  0
SECTION
  2
BLOCKS
  0
ENDSEC
  0
SECTION
  2
ENTITIES
  0
LINE
  8
0
 10
-111
 11
-111
 20
-147.5
 21
147.5
  0
LINE
  8
0
 10
-111
 11
111
 20
147.5
 21
147.5
  0
LINE
  8
0
 10
111
 11
111
 20
147.5
 21
-147.5
  0
LINE
  8
0
 10
111
 11
-111
 20
-147.5
 21
-147.5
  0
LINE
  8
0
 10
-100.5
 11
-99.675
 20
0
 21
1.429
  0
LINE
  8
0
 10
-99.675
 11
-98.025
 20
1.429
 21
1.429
  0
LINE
  8
0
 10
-98.025
 11
-97.2
 20
1.429
 21
0
  0
LINE
  8
0
 10
-97.2
 11
-98.025
 20
0
 21
-1.429
  0
LINE
  8
0
 10
-98.025
 11
-99.675
 20
-1.429
 21
-1.429
  0
LINE
  8
0
 10
-99.675
 11
-100.5
 20
-1.429
 21
0
  0
LINE
  8
0
 10
-92.16
 11
-92.16
 20
-0.982
 21
0.982
  0
LINE
  8
0
 10
-92.16
 11
-91.845
 20
0.982
 21
2.92
  0
LINE
  8
0
 10
-91.845
 11
-91.224
 20
2.92
 21
4.782
  0
LINE
  8
0
 10
-91.224
 11
-90.311
 20
4.782
 21
6.52
  0
LINE
  8
0
 10
-90.311
 11
-89.132
 20
6.52
 21
8.09
  0
LINE
  8
0
 10
-89.132
 11
-87.716
 20
8.09
 21
9.45
  0
LINE
  8
0
 10
-87.716
 11
-86.1
 20
9.45
 21
10.566
  0
LINE
  8
0
 10
-86.1
 11
-84.326
 20
10.566
 21
11.407
  0
LINE
  8
0
 10
-84.326
 11
-82.44
 20
11.407
 21
11.953
  0
LINE
  8
0
 10
-82.44
 11
-80.491
 20
11.953
 21
12.19
  0
LINE
  8
0
 10
-80.491
 11
-78.529
 20
12.19
 21
12.111
  0
LINE
  8
0
 10
-78.529
 11
-76.606
 20
12.111
 21
11.718
  0
LINE
  8
0
 10
-76.606
 11
-74.77
 20
11.718
 21
11.022
  0
LINE
  8
0
 10
-74.77
 11
-73.07
 20
11.022
 21
10.04
  0
LINE
  8
0
 10
-73.07
 11
-71.549
 20
10.04
 21
8.799
  0
LINE
  8
0
 10
-71.549
 11
-70.247
 20
8.799
 21
7.329
  0
LINE
  8
0
 10
-70.247
 11
-69.197
 20
7.329
 21
5.67
  0
LINE
  8
0
 10
-69.197
 11
-68.428
 20
5.67
 21
3.863
  0
LINE
  8
0
 10
-68.428
 11
-67.958
 20
3.863
 21
1.957
  0
LINE
  8
0
 10
-67.958
 11
-67.8
 20
1.957
 21
0
  0
LINE
  8
0
 10
-67.8
 11
-67.958
 20
0
 21
-1.957
  0
LINE
  8
0
 10
-67.958
 11
-68.428
 20
-1.957
 21
-3.863
  0
LINE
  8
0
 10
-68.428
 11
-69.197
 20
-3.863
 21
-5.67
  0
LINE
  8
0
 10
-69.197
 11
-70.247
 20
-5.67
 21
-7.329
  0
LINE
  8
0
 10
-70.247
 11
-71.549
 20
-7.329
 21
-8.799
  0
LINE
  8
0
 10
-71.549
 11
-73.07
 20
-8.799
 21
-10.04
  0
LINE
  8
0
 10
-73.07
 11
-74.77
 20
-10.04
 21
-11.022
  0
LINE
  8
0
 10
-74.77
 11
-76.606
 20
-11.022
 21
-11.718
  0
LINE
  8
0
 10
-76.606
 11
-78.529
 20
-11.718
 21
-12.111
  0
LINE
  8
0
 10
-78.529
 11
-80.491
 20
-12.111
 21
-12.19
  0
LINE
  8
0
 10
-80.491
 11
-82.44
 20
-12.19
 21
-11.953
  0
LINE
  8
0
 10
-82.44
 11
-84.326
 20
-11.953
 21
-11.407
  0
LINE
  8
0
 10
-84.326
 11
-86.1
 20
-11.407
 21
-10.566
  0
LINE
  8
0
 10
-86.1
 11
-87.716
 20
-10.566
 21
-9.45
  0
LINE
  8
0
 10
-87.716
 11
-89.132
 20
-9.45
 21
-8.09
  0
LINE
  8
0
 10
-89.132
 11
-90.311
 20
-8.09
 21
-6.52
  0
LINE
  8
0
 10
-90.311
 11
-91.224
 20
-6.52
 21
-4.782
  0
LINE
  8
0
 10
-91.224
 11
-91.845
 20
-4.782
 21
-2.92
  0
LINE
  8
0
 10
-91.845
 11
-92.16
 20
-2.92
 21
-0.982
  0
LINE
  8
0
 10
-62.8
 11
-61.975
 20
0
 21
1.429
  0
LINE
  8
0
 10
-61.975
 11
-60.325
 20
1.429
 21
1.429
  0
LINE
  8
0
 10
-60.325
 11
-59.5
 20
1.429
 21
0
  0
LINE
  8
0
 10
-59.5
 11
-60.325
 20
0
 21
-1.429
  0
LINE
  8
0
 10
-60.325
 11
-61.975
 20
-1.429
 21
-1.429
  0
LINE
  8
0
 10
-61.975
 11
-62.8
 20
-1.429
 21
0
  0
LINE
  8
0
 10
-46.9
 11
-46.327
 20
0
 21
1.763
  0
LINE
  8
0
 10
-46.327
 11
-44.827
 20
1.763
 21
2.853
  0
LINE
  8
0
 10
-44.827
 11
-43.775
 20
2.853
 21
2.853
  0
LINE
  8
0
 10
-43.775
 11
-43.733
 20
2.853
 21
3.826
  0
LINE
  8
0
 10
-43.733
 11
-43.233
 20
3.826
 21
7.623
  0
LINE
  8
0
 10
-43.233
 11
-42.404
 20
7.623
 21
11.362
  0
LINE
  8
0
 10
-42.404
 11
-41.253
 20
11.362
 21
15.015
  0
LINE
  8
0
 10
-41.253
 11
-39.787
 20
15.015
 21
18.553
  0
LINE
  8
0
 10
-39.787
 11
-38.019
 20
18.553
 21
21.95
  0
LINE
  8
0
 10
-38.019
 11
-35.961
 20
21.95
 21
25.18
  0
LINE
  8
0
 10
-35.961
 11
-33.629
 20
25.18
 21
28.218
  0
LINE
  8
0
 10
-33.629
 11
-31.042
 20
28.218
 21
31.042
  0
LINE
  8
0
 10
-31.042
 11
-28.218
 20
31.042
 21
33.629
  0
LINE
  8
0
 10
-28.218
 11
-25.18
 20
33.629
 21
35.961
  0
LINE
  8
0
 10
-25.18
 11
-21.95
 20
35.961
 21
38.019
  0
LINE
  8
0
 10
-21.95
 11
-18.553
 20
38.019
 21
39.787
  0
LINE
  8
0
 10
-18.553
 11
-15.015
 20
39.787
 21
41.253
  0
LINE
  8
0
 10
-15.015
 11
-11.362
 20
41.253
 21
42.404
  0
LINE
  8
0
 10
-11.362
 11
-7.623
 20
42.404
 21
43.233
  0
LINE
  8
0
 10
-7.623
 11
-3.826
 20
43.233
 21
43.733
  0
LINE
  8
0
 10
-3.826
 11
0
 20
43.733
 21
43.9
  0
LINE
  8
0
 10
0
 11
3.826
 20
43.9
 21
43.733
  0
LINE
  8
0
 10
3.826
 11
7.623
 20
43.733
 21
43.233
  0
LINE
  8
0
 10
7.623
 11
11.362
 20
43.233
 21
42.404
  0
LINE
  8
0
 10
11.362
 11
15.015
 20
42.404
 21
41.253
  0
LINE
  8
0
 10
15.015
 11
18.553
 20
41.253
 21
39.787
  0
LINE
  8
0
 10
18.553
 11
21.95
 20
39.787
 21
38.019
  0
LINE
  8
0
 10
21.95
 11
25.18
 20
38.019
 21
35.961
  0
LINE
  8
0
 10
25.18
 11
28.218
 20
35.961
 21
33.629
  0
LINE
  8
0
 10
28.218
 11
31.042
 20
33.629
 21
31.042
  0
LINE
  8
0
 10
31.042
 11
33.629
 20
31.042
 21
28.218
  0
LINE
  8
0
 10
33.629
 11
35.961
 20
28.218
 21
25.18
  0
LINE
  8
0
 10
35.961
 11
38.019
 20
25.18
 21
21.95
  0
LINE
  8
0
 10
38.019
 11
39.787
 20
21.95
 21
18.553
  0
LINE
  8
0
 10
39.787
 11
41.253
 20
18.553
 21
15.015
  0
LINE
  8
0
 10
41.253
 11
42.404
 20
15.015
 21
11.362
  0
LINE
  8
0
 10
42.404
 11
43.233
 20
11.362
 21
7.623
  0
LINE
  8
0
 10
43.233
 11
43.733
 20
7.623
 21
3.826
  0
LINE
  8
0
 10
43.733
 11
43.775
 20
3.826
 21
2.853
  0
LINE
  8
0
 10
43.775
 11
44.827
 20
2.853
 21
2.853
  0
LINE
  8
0
 10
44.827
 11
46.327
 20
2.853
 21
1.763
  0
LINE
  8
0
 10
46.327
 11
46.9
 20
1.763
 21
0
  0
LINE
  8
0
 10
46.9
 11
46.327
 20
0
 21
-1.763
  0
LINE
  8
0
 10
46.327
 11
44.827
 20
-1.763
 21
-2.853
  0
LINE
  8
0
 10
44.827
 11
43.775
 20
-2.853
 21
-2.853
  0
LINE
  8
0
 10
43.775
 11
43.733
 20
-2.853
 21
-3.826
  0
LINE
  8
0
 10
43.733
 11
43.233
 20
-3.826
 21
-7.623
  0
LINE
  8
0
 10
43.233
 11
42.404
 20
-7.623
 21
-11.362
  0
LINE
  8
0
 10
42.404
 11
41.253
 20
-11.362
 21
-15.015
  0
LINE
  8
0
 10
41.253
 11
39.787
 20
-15.015
 21
-18.553
  0
LINE
  8
0
 10
39.787
 11
38.019
 20
-18.553
 21
-21.95
  0
LINE
  8
0
 10
38.019
 11
35.961
 20
-21.95
 21
-25.18
  0
LINE
  8
0
 10
35.961
 11
33.629
 20
-25.18
 21
-28.218
  0
LINE
  8
0
 10
33.629
 11
31.042
 20
-28.218
 21
-31.042
  0
LINE
  8
0
 10
31.042
 11
28.218
 20
-31.042
 21
-33.629
  0
LINE
  8
0
 10
28.218
 11
25.18
 20
-33.629
 21
-35.961
  0
LINE
  8
0
 10
25.18
 11
21.95
 20
-35.961
 21
-38.019
  0
LINE
  8
0
 10
21.95
 11
18.553
 20
-38.019
 21
-39.787
  0
LINE
  8
0
 10
18.553
 11
15.015
 20
-39.787
 21
-41.253
  0
LINE
  8
0
 10
15.015
 11
11.362
 20
-41.253
 21
-42.404
  0
LINE
  8
0
 10
11.362
 11
7.623
 20
-42.404
 21
-43.233
  0
LINE
  8
0
 10
7.623
 11
3.826
 20
-43.233
 21
-43.733
  0
LINE
  8
0
 10
3.826
 11
0
 20
-43.733
 21
-43.9
  0
LINE
  8
0
 10
0
 11
-3.826
 20
-43.9
 21
-43.733
  0
LINE
  8
0
 10
-3.826
 11
-7.623
 20
-43.733
 21
-43.233
  0
LINE
  8
0
 10
-7.623
 11
-11.362
 20
-43.233
 21
-42.404
  0
LINE
  8
0
 10
-11.362
 11
-15.015
 20
-42.404
 21
-41.253
  0
LINE
  8
0
 10
-15.015
 11
-18.553
 20
-41.253
 21
-39.787
  0
LINE
  8
0
 10
-18.553
 11
-21.95
 20
-39.787
 21
-38.019
  0
LINE
  8
0
 10
-21.95
 11
-25.18
 20
-38.019
 21
-35.961
  0
LINE
  8
0
 10
-25.18
 11
-28.218
 20
-35.961
 21
-33.629
  0
LINE
  8
0
 10
-28.218
 11
-31.042
 20
-33.629
 21
-31.042
  0
LINE
  8
0
 10
-31.042
 11
-33.629
 20
-31.042
 21
-28.218
  0
LINE
  8
0
 10
-33.629
 11
-35.961
 20
-28.218
 21
-25.18
  0
LINE
  8
0
 10
-35.961
 11
-38.019
 20
-25.18
 21
-21.95
  0
LINE
  8
0
 10
-38.019
 11
-39.787
 20
-21.95
 21
-18.553
  0
LINE
  8
0
 10
-39.787
 11
-41.253
 20
-18.553
 21
-15.015
  0
LINE
  8
0
 10
-41.253
 11
-42.404
 20
-15.015
 21
-11.362
  0
LINE
  8
0
 10
-42.404
 11
-43.233
 20
-11.362
 21
-7.623
  0
LINE
  8
0
 10
-43.233
 11
-43.733
 20
-7.623
 21
-3.826
  0
LINE
  8
0
 10
-43.733
 11
-43.775
 20
-3.826
 21
-2.853
  0
LINE
  8
0
 10
-43.775
 11
-44.827
 20
-2.853
 21
-2.853
  0
LINE
  8
0
 10
-44.827
 11
-46.327
 20
-2.853
 21
-1.763
  0
LINE
  8
0
 10
-46.327
 11
-46.9
 20
-1.763
 21
0
  0
LINE
  8
0
 10
-20.5
 11
-19.675
 20
-80
 21
-78.571
  0
LINE
  8
0
 10
-19.675
 11
-18.025
 20
-78.571
 21
-78.571
  0
LINE
  8
0
 10
-18.025
 11
-17.2
 20
-78.571
 21
-80
  0
LINE
  8
0
 10
-17.2
 11
-18.025
 20
-80
 21
-81.429
  0
LINE
  8
0
 10
-18.025
 11
-19.675
 20
-81.429
 21
-81.429
  0
LINE
  8
0
 10
-19.675
 11
-20.5
 20
-81.429
 21
-80
  0
LINE
  8
0
 10
-20.5
 11
-19.675
 20
80
 21
81.429
  0
LINE
  8
0
 10
-19.675
 11
-18.025
 20
81.429
 21
81.429
  0
LINE
  8
0
 10
-18.025
 11
-17.2
 20
81.429
 21
80
  0
LINE
  8
0
 10
-17.2
 11
-18.025
 20
80
 21
78.571
  0
LINE
  8
0
 10
-18.025
 11
-19.675
 20
78.571
 21
78.571
  0
LINE
  8
0
 10
-19.675
 11
-20.5
 20
78.571
 21
80
  0
LINE
  8
0
 10
-12.16
 11
-12.16
 20
-80.982
 21
-79.018
  0
LINE
  8
0
 10
-12.16
 11
-11.845
 20
-79.018
 21
-77.08
  0
LINE
  8
0
 10
-11.845
 11
-11.224
 20
-77.08
 21
-75.218
  0
LINE
  8
0
 10
-11.224
 11
-10.311
 20
-75.218
 21
-73.48
  0
LINE
  8
0
 10
-10.311
 11
-9.132
 20
-73.48
 21
-71.91
  0
LINE
  8
0
 10
-9.132
 11
-7.716
 20
-71.91
 21
-70.55
  0
LINE
  8
0
 10
-7.716
 11
-6.1
 20
-70.55
 21
-69.434
  0
LINE
  8
0
 10
-6.1
 11
-4.326
 20
-69.434
 21
-68.593
  0
LINE
  8
0
 10
-4.326
 11
-2.44
 20
-68.593
 21
-68.047
  0
LINE
  8
0
 10
-2.44
 11
-0.491
 20
-68.047
 21
-67.81
  0
LINE
  8
0
 10
-0.491
 11
1.471
 20
-67.81
 21
-67.889
  0
LINE
  8
0
 10
1.471
 11
3.394
 20
-67.889
 21
-68.282
  0
LINE
  8
0
 10
3.394
 11
5.23
 20
-68.282
 21
-68.978
  0
LINE
  8
0
 10
5.23
 11
6.93
 20
-68.978
 21
-69.96
  0
LINE
  8
0
 10
6.93
 11
8.451
 20
-69.96
 21
-71.201
  0
LINE
  8
0
 10
8.451
 11
9.753
 20
-71.201
 21
-72.671
  0
LINE
  8
0
 10
9.753
 11
10.803
 20
-72.671
 21
-74.33
  0
LINE
  8
0
 10
10.803
 11
11.572
 20
-74.33
 21
-76.137
  0
LINE
  8
0
 10
11.572
 11
12.042
 20
-76.137
 21
-78.043
  0
LINE
  8
0
 10
12.042
 11
12.2
 20
-78.043
 21
-80
  0
LINE
  8
0
 10
12.2
 11
12.042
 20
-80
 21
-81.957
  0
LINE
  8
0
 10
12.042
 11
11.572
 20
-81.957
 21
-83.863
  0
LINE
  8
0
 10
11.572
 11
10.803
 20
-83.863
 21
-85.67
  0
LINE
  8
0
 10
10.803
 11
9.753
 20
-85.67
 21
-87.329
  0
LINE
  8
0
 10
9.753
 11
8.451
 20
-87.329
 21
-88.799
  0
LINE
  8
0
 10
8.451
 11
6.93
 20
-88.799
 21
-90.04
  0
LINE
  8
0
 10
6.93
 11
5.23
 20
-90.04
 21
-91.022
  0
LINE
  8
0
 10
5.23
 11
3.394
 20
-91.022
 21
-91.718
  0
LINE
  8
0
 10
3.394
 11
1.471
 20
-91.718
 21
-92.111
  0
LINE
  8
0
 10
1.471
 11
-0.491
 20
-92.111
 21
-92.19
  0
LINE
  8
0
 10
-0.491
 11
-2.44
 20
-92.19
 21
-91.953
  0
LINE
  8
0
 10
-2.44
 11
-4.326
 20
-91.953
 21
-91.407
  0
LINE
  8
0
 10
-4.326
 11
-6.1
 20
-91.407
 21
-90.566
  0
LINE
  8
0
 10
-6.1
 11
-7.716
 20
-90.566
 21
-89.45
  0
LINE
  8
0
 10
-7.716
 11
-9.132
 20
-89.45
 21
-88.09
  0
LINE
  8
0
 10
-9.132
 11
-10.311
 20
-88.09
 21
-86.52
  0
LINE
  8
0
 10
-10.311
 11
-11.224
 20
-86.52
 21
-84.782
  0
LINE
  8
0
 10
-11.224
 11
-11.845
 20
-84.782
 21
-82.92
  0
LINE
  8
0
 10
-11.845
 11
-12.16
 20
-82.92
 21
-80.982
  0
LINE
  8
0
 10
-12.16
 11
-12.16
 20
79.018
 21
80.982
  0
LINE
  8
0
 10
-12.16
 11
-11.845
 20
80.982
 21
82.92
  0
LINE
  8
0
 10
-11.845
 11
-11.224
 20
82.92
 21
84.782
  0
LINE
  8
0
 10
-11.224
 11
-10.311
 20
84.782
 21
86.52
  0
LINE
  8
0
 10
-10.311
 11
-9.132
 20
86.52
 21
88.09
  0
LINE
  8
0
 10
-9.132
 11
-7.716
 20
88.09
 21
89.45
  0
LINE
  8
0
 10
-7.716
 11
-6.1
 20
89.45
 21
90.566
  0
LINE
  8
0
 10
-6.1
 11
-4.326
 20
90.566
 21
91.407
  0
LINE
  8
0
 10
-4.326
 11
-2.44
 20
91.407
 21
91.953
  0
LINE
  8
0
 10
-2.44
 11
-0.491
 20
91.953
 21
92.19
  0
LINE
  8
0
 10
-0.491
 11
1.471
 20
92.19
 21
92.111
  0
LINE
  8
0
 10
1.471
 11
3.394
 20
92.111
 21
91.718
  0
LINE
  8
0
 10
3.394
 11
5.23
 20
91.718
 21
91.022
  0
LINE
  8
0
 10
5.23
 11
6.93
 20
91.022
 21
90.04
  0
LINE
  8
0
 10
6.93
 11
8.451
 20
90.04
 21
88.799
  0
LINE
  8
0
 10
8.451
 11
9.753
 20
88.799
 21
87.329
  0
LINE
  8
0
 10
9.753
 11
10.803
 20
87.329
 21
85.67
  0
LINE
  8
0
 10
10.803
 11
11.572
 20
85.67
 21
83.863
  0
LINE
  8
0
 10
11.572
 11
12.042
 20
83.863
 21
81.957
  0
LINE
  8
0
 10
12.042
 11
12.2
 20
81.957
 21
80
  0
LINE
  8
0
 10
12.2
 11
12.042
 20
80
 21
78.043
  0
LINE
  8
0
 10
12.042
 11
11.572
 20
78.043
 21
76.137
  0
LINE
  8
0
 10
11.572
 11
10.803
 20
76.137
 21
74.33
  0
LINE
  8
0
 10
10.803
 11
9.753
 20
74.33
 21
72.671
  0
LINE
  8
0
 10
9.753
 11
8.451
 20
72.671
 21
71.201
  0
LINE
  8
0
 10
8.451
 11
6.93
 20
71.201
 21
69.96
  0
LINE
  8
0
 10
6.93
 11
5.23
 20
69.96
 21
68.978
  0
LINE
  8
0
 10
5.23
 11
3.394
 20
68.978
 21
68.282
  0
LINE
  8
0
 10
3.394
 11
1.471
 20
68.282
 21
67.889
  0
LINE
  8
0
 10
1.471
 11
-0.491
 20
67.889
 21
67.81
  0
LINE
  8
0
 10
-0.491
 11
-2.44
 20
67.81
 21
68.047
  0
LINE
  8
0
 10
-2.44
 11
-4.326
 20
68.047
 21
68.593
  0
LINE
  8
0
 10
-4.326
 11
-6.1
 20
68.593
 21
69.434
  0
LINE
  8
0
 10
-6.1
 11
-7.716
 20
69.434
 21
70.55
  0
LINE
  8
0
 10
-7.716
 11
-9.132
 20
70.55
 21
71.91
  0
LINE
  8
0
 10
-9.132
 11
-10.311
 20
71.91
 21
73.48
  0
LINE
  8
0
 10
-10.311
 11
-11.224
 20
73.48
 21
75.218
  0
LINE
  8
0
 10
-11.224
 11
-11.845
 20
75.218
 21
77.08
  0
LINE
  8
0
 10
-11.845
 11
-12.16
 20
77.08
 21
79.018
  0
LINE
  8
0
 10
17.2
 11
18.025
 20
-80
 21
-78.571
  0
LINE
  8
0
 10
18.025
 11
19.675
 20
-78.571
 21
-78.571
  0
LINE
  8
0
 10
19.675
 11
20.5
 20
-78.571
 21
-80
  0
LINE
  8
0
 10
20.5
 11
19.675
 20
-80
 21
-81.429
  0
LINE
  8
0
 10
19.675
 11
18.025
 20
-81.429
 21
-81.429
  0
LINE
  8
0
 10
18.025
 11
17.2
 20
-81.429
 21
-80
  0
LINE
  8
0
 10
17.2
 11
18.025
 20
80
 21
81.429
  0
LINE
  8
0
 10
18.025
 11
19.675
 20
81.429
 21
81.429
  0
LINE
  8
0
 10
19.675
 11
20.5
 20
81.429
 21
80
  0
LINE
  8
0
 10
20.5
 11
19.675
 20
80
 21
78.571
  0
LINE
  8
0
 10
19.675
 11
18.025
 20
78.571
 21
78.571
  0
LINE
  8
0
 10
18.025
 11
17.2
 20
78.571
 21
80
  0
LINE
  8
0
 10
59.5
 11
60.325
 20
0
 21
1.429
  0
LINE
  8
0
 10
60.325
 11
61.975
 20
1.429
 21
1.429
  0
LINE
  8
0
 10
61.975
 11
62.8
 20
1.429
 21
0
  0
LINE
  8
0
 10
62.8
 11
61.975
 20
0
 21
-1.429
  0
LINE
  8
0
 10
61.975
 11
60.325
 20
-1.429
 21
-1.429
  0
LINE
  8
0
 10
60.325
 11
59.5
 20
-1.429
 21
0
  0
LINE
  8
0
 10
67.84
 11
67.84
 20
-0.982
 21
0.982
  0
LINE
  8
0
 10
67.84
 11
68.155
 20
0.982
 21
2.92
  0
LINE
  8
0
 10
68.155
 11
68.776
 20
2.92
 21
4.782
  0
LINE
  8
0
 10
68.776
 11
69.689
 20
4.782
 21
6.52
  0
LINE
  8
0
 10
69.689
 11
70.868
 20
6.52
 21
8.09
  0
LINE
  8
0
 10
70.868
 11
72.284
 20
8.09
 21
9.45
  0
LINE
  8
0
 10
72.284
 11
73.9
 20
9.45
 21
10.566
  0
LINE
  8
0
 10
73.9
 11
75.674
 20
10.566
 21
11.407
  0
LINE
  8
0
 10
75.674
 11
77.56
 20
11.407
 21
11.953
  0
LINE
  8
0
 10
77.56
 11
79.509
 20
11.953
 21
12.19
  0
LINE
  8
0
 10
79.509
 11
81.471
 20
12.19
 21
12.111
  0
LINE
  8
0
 10
81.471
 11
83.394
 20
12.111
 21
11.718
  0
LINE
  8
0
 10
83.394
 11
85.23
 20
11.718
 21
11.022
  0
LINE
  8
0
 10
85.23
 11
86.93
 20
11.022
 21
10.04
  0
LINE
  8
0
 10
86.93
 11
88.451
 20
10.04
 21
8.799
  0
LINE
  8
0
 10
88.451
 11
89.753
 20
8.799
 21
7.329
  0
LINE
  8
0
 10
89.753
 11
90.803
 20
7.329
 21
5.67
  0
LINE
  8
0
 10
90.803
 11
91.572
 20
5.67
 21
3.863
  0
LINE
  8
0
 10
91.572
 11
92.042
 20
3.863
 21
1.957
  0
LINE
  8
0
 10
92.042
 11
92.2
 20
1.957
 21
0
  0
LINE
  8
0
 10
92.2
 11
92.042
 20
0
 21
-1.957
  0
LINE
  8
0
 10
92.042
 11
91.572
 20
-1.957
 21
-3.863
  0
LINE
  8
0
 10
91.572
 11
90.803
 20
-3.863
 21
-5.67
  0
LINE
  8
0
 10
90.803
 11
89.753
 20
-5.67
 21
-7.329
  0
LINE
  8
0
 10
89.753
 11
88.451
 20
-7.329
 21
-8.799
  0
LINE
  8
0
 10
88.451
 11
86.93
 20
-8.799
 21
-10.04
  0
LINE
  8
0
 10
86.93
 11
85.23
 20
-10.04
 21
-11.022
  0
LINE
  8
0
 10
85.23
 11
83.394
 20
-11.022
 21
-11.718
  0
LINE
  8
0
 10
83.394
 11
81.471
 20
-11.718
 21
-12.111
  0
LINE
  8
0
 10
81.471
 11
79.509
 20
-12.111
 21
-12.19
  0
LINE
  8
0
 10
79.509
 11
77.56
 20
-12.19
 21
-11.953
  0
LINE
  8
0
 10
77.56
 11
75.674
 20
-11.953
 21
-11.407
  0
LINE
  8
0
 10
75.674
 11
73.9
 20
-11.407
 21
-10.566
  0
LINE
  8
0
 10
73.9
 11
72.284
 20
-10.566
 21
-9.45
  0
LINE
  8
0
 10
72.284
 11
70.868
 20
-9.45
 21
-8.09
  0
LINE
  8
0
 10
70.868
 11
69.689
 20
-8.09
 21
-6.52
  0
LINE
  8
0
 10
69.689
 11
68.776
 20
-6.52
 21
-4.782
  0
LINE
  8
0
 10
68.776
 11
68.155
 20
-4.782
 21
-2.92
  0
LINE
  8
0
 10
68.155
 11
67.84
 20
-2.92
 21
-0.982
  0
LINE
  8
0
 10
97.2
 11
98.025
 20
0
 21
1.429
  0
LINE
  8
0
 10
98.025
 11
99.675
 20
1.429
 21
1.429
  0
LINE
  8
0
 10
99.675
 11
100.5
 20
1.429
 21
0
  0
LINE
  8
0
 10
100.5
 11
99.675
 20
0
 21
-1.429
  0
LINE
  8
0
 10
99.675
 11
98.025
 20
-1.429
 21
-1.429
  0
LINE
  8
0
 10
98.025
 11
97.2
 20
-1.429
 21
0
  0
ENDSEC
  0
SECTION
  2
OBJECTS
  0
DICTIONARY
  0
ENDSEC
  0
EOF
