  0
SECTION
  2
HEADER
  9
$ACADVER
  1
AC1014
  9
$HANDSEED
  5
FFFF
  9
$MEASUREMENT
 70
     1
  0
ENDSEC
  0
SECTION
  2
TABLES
  0
TABLE
  2
VPORT
  5
8
330
0
100
AcDbSymbolTable
 70
     4
  0
VPORT
  5
2E
330
8
100
AcDbSymbolTableRecord
100
AcDbViewportTableRecord
  2
*ACTIVE
 70
     0
 10
0.0
 20
0.0
 11
1.0
 21
1.0
 12
210.0
 22
148.5
 13
0.0
 23
0.0
 14
10.0
 24
10.0
 15
10.0
 25
10.0
 16
0.0
 26
0.0
 36
1.0
 17
0.0
 27
0.0
 37
0.0
 40
341.0
 41
1.24
 42
50.0
 43
0.0
 44
0.0
 50
0.0
 51
0.0
 71
     0
 72
   100
 73
     1
 74
     3
 75
     0
 76
     0
 77
     0
 78
     0
  0
ENDTAB
  0
TABLE
  2
LTYPE
  5
5
330
0
100
AcDbSymbolTable
 70
     1
  0
LTYPE
  5
14
330
5
100
AcDbSymbolTableRecord
100
AcDbLinetypeTableRecord
  2
BYBLOCK
 70
     0
  3

 72
    65
 73
     0
 40
0.0
  0
LTYPE
  5
15
330
5
100
AcDbSymbolTableRecord
100
AcDbLinetypeTableRecord
  2
BYLAYER
 70
     0
  3

 72
    65
 73
     0
 40
0.0
  0
LTYPE
  5
16
330
5
100
AcDbSymbolTableRecord
100
AcDbLinetypeTableRecord
  2
CONTINUOUS
 70
     0
  3
Solid line
 72
    65
 73
     0
 40
0.0
  0
ENDTAB
  0
TABLE
  2
LAYER
  5
2
100
AcDbSymbolTable
 70
2
  0
LAYER
  5
50
100
AcDbSymbolTableRecord
100
AcDbLayerTableRecord
  2
0
 70
0
  6
CONTINUOUS
  0
LAYER
  5
51
100
AcDbSymbolTableRecord
100
AcDbLayerTableRecord
  2
Layer_1
 70
0
  6
CONTINUOUS
  0
ENDTAB
  0
TABLE
  2
STYLE
  5
3
330
0
100
AcDbSymbolTable
 70
     1
  0
STYLE
  5
11
330
3
100
AcDbSymbolTableRecord
100
AcDbTextStyleTableRecord
  2
STANDARD
 70
     0
 40
0.0
 41
1.0
 50
0.0
 71
     0
 42
2.5
  3
txt
  4

  0
ENDTAB
  0
TABLE
  2
VIEW
  5
6
330
0
100
AcDbSymbolTable
 70
     0
  0
ENDTAB
  0
TABLE
  2
UCS
  5
7
330
0
100
AcDbSymbolTable
 70
     0
  0
ENDTAB
  0
TABLE
  2
APPID
  5
9
330
0
100
AcDbSymbolTable
 70
     2
  0
APPID
  5
12
330
9
100
AcDbSymbolTableRecord
100
AcDbRegAppTableRecord
  2
ACAD
 70
     0
  0
ENDTAB
  0
TABLE
  2
DIMSTYLE
  5
A
330
0
100
AcDbSymbolTable
 70
     1
  0
DIMSTYLE
105
27
330
A
100
AcDbSymbolTableRecord
100
AcDbDimStyleTableRecord
  2
ISO-25
 70
     0
  3

  4

  5

  6

  7

 40
1.0
 41
2.5
 42
0.625
 43
3.75
 44
1.25
 45
0.0
 46
0.0
 47
0.0
 48
0.0
140
2.5
141
2.5
142
0.0
143
0.03937007874016
144
1.0
145
0.0
146
1.0
147
0.625
 71
     0
 72
     0
 73
     0
 74
     0
 75
     0
 76
     0
 77
     1
 78
     8
170
     0
171
     3
172
     1
173
     0
174
     0
175
     0
176
     0
177
     0
178
     0
270
     2
271
     2
272
     2
273
     2
274
     3
340
11
275
     0
280
     0
281
     0
282
     0
283
     0
284
     8
285
     0
286
     0
287
     3
288
     0
  0
ENDTAB
  0
TABLE
  2
BLOCK_RECORD
  5
1
330
0
100
AcDbSymbolTable
 70
     1
  0
BLOCK_RECORD
  5
1F
330
1
100
AcDbSymbolTableRecord
100
AcDbBlockTableRecord
  2
*MODEL_SPACE
  0
BLOCK_RECORD
  5
1B
330
1
100
AcDbSymbolTableRecord
100
AcDbBlockTableRecord
  2
*PAPER_SPACE
  0
ENDTAB
  0
ENDSEC
  0
SECTION
  2
BLOCKS
  0
BLOCK
  5
20
330
1F
100
AcDbEntity
  8
0
100
AcDbBlockBegin
  2
*MODEL_SPACE
 70
     0
 10
0.0
 20
0.0
 30
0.0
  3
*MODEL_SPACE
  1

  0
ENDBLK
  5
21
330
1F
100
AcDbEntity
  8
0
100
AcDbBlockEnd
  0
BLOCK
  5
1C
330
1B
100
AcDbEntity
 67
     1
  8
0
100
AcDbBlockBegin
  2
*PAPER_SPACE
  1

  0
ENDBLK
  5
1D
330
1B
100
AcDbEntity
 67
     1
  8
0
100
AcDbBlockEnd
  0
ENDSEC
  0
SECTION
  2
ENTITIES
  0
LWPOLYLINE
  5
100
100
AcDbEntity
  8
Layer_1
 62
7
100
AcDbPolyline
 90
5
 70
0
 10
-5.368242
 20
0.868252
 30
0.0
 10
-5.368242
 20
295.868252
 30
0.0
 10
216.631760
 20
295.868252
 30
0.0
 10
216.631760
 20
0.868252
 30
0.0
 10
-5.368242
 20
0.868252
 30
0.0
  0
LWPOLYLINE
  5
101
100
AcDbEntity
  8
Layer_1
 62
7
100
AcDbPolyline
 90
7
 70
0
 10
5.131760
 20
148.368254
 30
0.0
 10
5.956760
 20
149.797258
 30
0.0
 10
7.606758
 20
149.797258
 30
0.0
 10
8.431759
 20
148.368254
 30
0.0
 10
7.606758
 20
146.939250
 30
0.0
 10
5.956760
 20
146.939250
 30
0.0
 10
5.131760
 20
148.368254
 30
0.0
  0
LWPOLYLINE
  5
102
100
AcDbEntity
  8
Layer_1
 62
7
100
AcDbPolyline
 90
40
 70
0
 10
13.471759
 20
147.386261
 30
0.0
 10
13.471759
 20
149.350246
 30
0.0
 10
13.786759
 20
151.288266
 30
0.0
 10
14.407758
 20
153.150255
 30
0.0
 10
15.320758
 20
154.888264
 30
0.0
 10
16.499758
 20
156.458238
 30
0.0
 10
17.915760
 20
157.818239
 30
0.0
 10
19.531759
 20
158.934259
 30
0.0
 10
21.305760
 20
159.775253
 30
0.0
 10
23.191758
 20
160.321240
 30
0.0
 10
25.140759
 20
160.558250
 30
0.0
 10
27.102760
 20
160.479256
 30
0.0
 10
29.025760
 20
160.086261
 30
0.0
 10
30.861759
 20
159.390245
 30
0.0
 10
32.561759
 20
158.408253
 30
0.0
 10
34.082759
 20
157.167265
 30
0.0
 10
35.384760
 20
155.697254
 30
0.0
 10
36.434759
 20
154.038239
 30
0.0
 10
37.203758
 20
152.231255
 30
0.0
 10
37.673760
 20
150.325239
 30
0.0
 10
37.831759
 20
148.368254
 30
0.0
 10
37.673760
 20
146.411240
 30
0.0
 10
37.203758
 20
144.505252
 30
0.0
 10
36.434759
 20
142.698240
 30
0.0
 10
35.384760
 20
141.039253
 30
0.0
 10
34.082759
 20
139.569242
 30
0.0
 10
32.561759
 20
138.328255
 30
0.0
 10
30.861759
 20
137.346262
 30
0.0
 10
29.025760
 20
136.650246
 30
0.0
 10
27.102760
 20
136.257251
 30
0.0
 10
25.140759
 20
136.178257
 30
0.0
 10
23.191758
 20
136.415239
 30
0.0
 10
21.305760
 20
136.961255
 30
0.0
 10
19.531759
 20
137.802249
 30
0.0
 10
17.915760
 20
138.918240
 30
0.0
 10
16.499758
 20
140.278241
 30
0.0
 10
15.320758
 20
141.848243
 30
0.0
 10
14.407758
 20
143.586252
 30
0.0
 10
13.786759
 20
145.448241
 30
0.0
 10
13.471759
 20
147.386261
 30
0.0
  0
LWPOLYLINE
  5
103
100
AcDbEntity
  8
Layer_1
 62
7
100
AcDbPolyline
 90
7
 70
0
 10
42.831760
 20
148.368254
 30
0.0
 10
43.656758
 20
149.797258
 30
0.0
 10
45.306759
 20
149.797258
 30
0.0
 10
46.131759
 20
148.368254
 30
0.0
 10
45.306759
 20
146.939250
 30
0.0
 10
43.656758
 20
146.939250
 30
0.0
 10
42.831760
 20
148.368254
 30
0.0
  0
LWPOLYLINE
  5
104
100
AcDbEntity
  8
Layer_1
 62
7
100
AcDbPolyline
 90
85
 70
0
 10
58.731760
 20
148.368254
 30
0.0
 10
59.304758
 20
150.131239
 30
0.0
 10
60.804758
 20
151.221238
 30
0.0
 10
61.856758
 20
151.221238
 30
0.0
 10
61.898759
 20
152.194256
 30
0.0
 10
62.398760
 20
155.991245
 30
0.0
 10
63.227760
 20
159.730238
 30
0.0
 10
64.378758
 20
163.383252
 30
0.0
 10
65.844759
 20
166.921252
 30
0.0
 10
67.612760
 20
170.318254
 30
0.0
 10
69.670758
 20
173.548253
 30
0.0
 10
72.002760
 20
176.586254
 30
0.0
 10
74.589759
 20
179.410251
 30
0.0
 10
77.413759
 20
181.997253
 30
0.0
 10
80.451759
 20
184.329252
 30
0.0
 10
83.681759
 20
186.387253
 30
0.0
 10
87.078759
 20
188.155251
 30
0.0
 10
90.616759
 20
189.621252
 30
0.0
 10
94.269759
 20
190.772253
 30
0.0
 10
98.008759
 20
191.601252
 30
0.0
 10
101.805759
 20
192.101251
 30
0.0
 10
105.631759
 20
192.268253
 30
0.0
 10
109.457759
 20
192.101251
 30
0.0
 10
113.254759
 20
191.601252
 30
0.0
 10
116.993759
 20
190.772253
 30
0.0
 10
120.646759
 20
189.621252
 30
0.0
 10
124.184759
 20
188.155251
 30
0.0
 10
127.581759
 20
186.387253
 30
0.0
 10
130.811759
 20
184.329252
 30
0.0
 10
133.849759
 20
181.997253
 30
0.0
 10
136.673759
 20
179.410251
 30
0.0
 10
139.260758
 20
176.586254
 30
0.0
 10
141.592760
 20
173.548253
 30
0.0
 10
143.650758
 20
170.318254
 30
0.0
 10
145.418759
 20
166.921252
 30
0.0
 10
146.884760
 20
163.383252
 30
0.0
 10
148.035758
 20
159.730238
 30
0.0
 10
148.864757
 20
155.991245
 30
0.0
 10
149.364759
 20
152.194256
 30
0.0
 10
149.406760
 20
151.221238
 30
0.0
 10
150.458760
 20
151.221238
 30
0.0
 10
151.958760
 20
150.131239
 30
0.0
 10
152.531758
 20
148.368254
 30
0.0
 10
151.958760
 20
146.605240
 30
0.0
 10
150.458760
 20
145.515241
 30
0.0
 10
149.406760
 20
145.515241
 30
0.0
 10
149.364759
 20
144.542252
 30
0.0
 10
148.864757
 20
140.745262
 30
0.0
 10
148.035758
 20
137.006241
 30
0.0
 10
146.884760
 20
133.353241
 30
0.0
 10
145.418759
 20
129.815247
 30
0.0
 10
143.650758
 20
126.418251
 30
0.0
 10
141.592760
 20
123.188246
 30
0.0
 10
139.260758
 20
120.150265
 30
0.0
 10
136.673759
 20
117.326265
 30
0.0
 10
133.849759
 20
114.739246
 30
0.0
 10
130.811759
 20
112.407244
 30
0.0
 10
127.581759
 20
110.349251
 30
0.0
 10
124.184759
 20
108.581242
 30
0.0
 10
120.646759
 20
107.115239
 30
0.0
 10
116.993759
 20
105.964252
 30
0.0
 10
113.254759
 20
105.135252
 30
0.0
 10
109.457759
 20
104.635239
 30
0.0
 10
105.631759
 20
104.468248
 30
0.0
 10
101.805759
 20
104.635239
 30
0.0
 10
98.008759
 20
105.135252
 30
0.0
 10
94.269759
 20
105.964252
 30
0.0
 10
90.616759
 20
107.115239
 30
0.0
 10
87.078759
 20
108.581242
 30
0.0
 10
83.681759
 20
110.349251
 30
0.0
 10
80.451759
 20
112.407244
 30
0.0
 10
77.413759
 20
114.739246
 30
0.0
 10
74.589759
 20
117.326265
 30
0.0
 10
72.002760
 20
120.150265
 30
0.0
 10
69.670758
 20
123.188246
 30
0.0
 10
67.612760
 20
126.418251
 30
0.0
 10
65.844759
 20
129.815247
 30
0.0
 10
64.378758
 20
133.353241
 30
0.0
 10
63.227760
 20
137.006241
 30
0.0
 10
62.398760
 20
140.745262
 30
0.0
 10
61.898759
 20
144.542252
 30
0.0
 10
61.856758
 20
145.515241
 30
0.0
 10
60.804758
 20
145.515241
 30
0.0
 10
59.304758
 20
146.605240
 30
0.0
 10
58.731760
 20
148.368254
 30
0.0
  0
LWPOLYLINE
  5
105
100
AcDbEntity
  8
Layer_1
 62
7
100
AcDbPolyline
 90
7
 70
0
 10
85.131759
 20
68.368244
 30
0.0
 10
85.956759
 20
69.797248
 30
0.0
 10
87.606759
 20
69.797248
 30
0.0
 10
88.431759
 20
68.368244
 30
0.0
 10
87.606759
 20
66.939240
 30
0.0
 10
85.956759
 20
66.939240
 30
0.0
 10
85.131759
 20
68.368244
 30
0.0
  0
LWPOLYLINE
  5
106
100
AcDbEntity
  8
Layer_1
 62
7
100
AcDbPolyline
 90
7
 70
0
 10
85.131759
 20
228.368252
 30
0.0
 10
85.956759
 20
229.797253
 30
0.0
 10
87.606759
 20
229.797253
 30
0.0
 10
88.431759
 20
228.368252
 30
0.0
 10
87.606759
 20
226.939253
 30
0.0
 10
85.956759
 20
226.939253
 30
0.0
 10
85.131759
 20
228.368252
 30
0.0
  0
LWPOLYLINE
  5
107
100
AcDbEntity
  8
Layer_1
 62
7
100
AcDbPolyline
 90
40
 70
0
 10
93.471759
 20
67.386252
 30
0.0
 10
93.471759
 20
69.350265
 30
0.0
 10
93.786759
 20
71.288257
 30
0.0
 10
94.407759
 20
73.150246
 30
0.0
 10
95.320759
 20
74.888255
 30
0.0
 10
96.499759
 20
76.458257
 30
0.0
 10
97.915759
 20
77.818258
 30
0.0
 10
99.531759
 20
78.934249
 30
0.0
 10
101.305759
 20
79.775243
 30
0.0
 10
103.191759
 20
80.321259
 30
0.0
 10
105.140759
 20
80.558241
 30
0.0
 10
107.102759
 20
80.479247
 30
0.0
 10
109.025759
 20
80.086252
 30
0.0
 10
110.861759
 20
79.390264
 30
0.0
 10
112.561759
 20
78.408243
 30
0.0
 10
114.082759
 20
77.167256
 30
0.0
 10
115.384759
 20
75.697245
 30
0.0
 10
116.434759
 20
74.038258
 30
0.0
 10
117.203759
 20
72.231246
 30
0.0
 10
117.673759
 20
70.325258
 30
0.0
 10
117.831759
 20
68.368244
 30
0.0
 10
117.673759
 20
66.411259
 30
0.0
 10
117.203759
 20
64.505243
 30
0.0
 10
116.434759
 20
62.698259
 30
0.0
 10
115.384759
 20
61.039244
 30
0.0
 10
114.082759
 20
59.569261
 30
0.0
 10
112.561759
 20
58.328245
 30
0.0
 10
110.861759
 20
57.346253
 30
0.0
 10
109.025759
 20
56.650265
 30
0.0
 10
107.102759
 20
56.257242
 30
0.0
 10
105.140759
 20
56.178248
 30
0.0
 10
103.191759
 20
56.415258
 30
0.0
 10
101.305759
 20
56.961245
 30
0.0
 10
99.531759
 20
57.802239
 30
0.0
 10
97.915759
 20
58.918259
 30
0.0
 10
96.499759
 20
60.278260
 30
0.0
 10
95.320759
 20
61.848262
 30
0.0
 10
94.407759
 20
63.586243
 30
0.0
 10
93.786759
 20
65.448260
 30
0.0
 10
93.471759
 20
67.386252
 30
0.0
  0
LWPOLYLINE
  5
108
100
AcDbEntity
  8
Layer_1
 62
7
100
AcDbPolyline
 90
40
 70
0
 10
93.471759
 20
227.386254
 30
0.0
 10
93.471759
 20
229.350252
 30
0.0
 10
93.786759
 20
231.288253
 30
0.0
 10
94.407759
 20
233.150253
 30
0.0
 10
95.320759
 20
234.888251
 30
0.0
 10
96.499759
 20
236.458253
 30
0.0
 10
97.915759
 20
237.818251
 30
0.0
 10
99.531759
 20
238.934251
 30
0.0
 10
101.305759
 20
239.775253
 30
0.0
 10
103.191759
 20
240.321252
 30
0.0
 10
105.140759
 20
240.558254
 30
0.0
 10
107.102759
 20
240.479251
 30
0.0
 10
109.025759
 20
240.086254
 30
0.0
 10
110.861759
 20
239.390252
 30
0.0
 10
112.561759
 20
238.408251
 30
0.0
 10
114.082759
 20
237.167252
 30
0.0
 10
115.384759
 20
235.697252
 30
0.0
 10
116.434759
 20
234.038251
 30
0.0
 10
117.203759
 20
232.231253
 30
0.0
 10
117.673759
 20
230.325251
 30
0.0
 10
117.831759
 20
228.368252
 30
0.0
 10
117.673759
 20
226.411252
 30
0.0
 10
117.203759
 20
224.505253
 30
0.0
 10
116.434759
 20
222.698252
 30
0.0
 10
115.384759
 20
221.039254
 30
0.0
 10
114.082759
 20
219.569251
 30
0.0
 10
112.561759
 20
218.328253
 30
0.0
 10
110.861759
 20
217.346252
 30
0.0
 10
109.025759
 20
216.650252
 30
0.0
 10
107.102759
 20
216.257252
 30
0.0
 10
105.140759
 20
216.178253
 30
0.0
 10
103.191759
 20
216.415252
 30
0.0
 10
101.305759
 20
216.961253
 30
0.0
 10
99.531759
 20
217.802252
 30
0.0
 10
97.915759
 20
218.918252
 30
0.0
 10
96.499759
 20
220.278253
 30
0.0
 10
95.320759
 20
221.848252
 30
0.0
 10
94.407759
 20
223.586253
 30
0.0
 10
93.786759
 20
225.448254
 30
0.0
 10
93.471759
 20
227.386254
 30
0.0
  0
LWPOLYLINE
  5
109
100
AcDbEntity
  8
Layer_1
 62
7
100
AcDbPolyline
 90
7
 70
0
 10
122.831759
 20
68.368244
 30
0.0
 10
123.656759
 20
69.797248
 30
0.0
 10
125.306759
 20
69.797248
 30
0.0
 10
126.131759
 20
68.368244
 30
0.0
 10
125.306759
 20
66.939240
 30
0.0
 10
123.656759
 20
66.939240
 30
0.0
 10
122.831759
 20
68.368244
 30
0.0
  0
LWPOLYLINE
  5
10a
100
AcDbEntity
  8
Layer_1
 62
7
100
AcDbPolyline
 90
7
 70
0
 10
122.831759
 20
228.368252
 30
0.0
 10
123.656759
 20
229.797253
 30
0.0
 10
125.306759
 20
229.797253
 30
0.0
 10
126.131759
 20
228.368252
 30
0.0
 10
125.306759
 20
226.939253
 30
0.0
 10
123.656759
 20
226.939253
 30
0.0
 10
122.831759
 20
228.368252
 30
0.0
  0
LWPOLYLINE
  5
10b
100
AcDbEntity
  8
Layer_1
 62
7
100
AcDbPolyline
 90
7
 70
0
 10
165.131758
 20
148.368254
 30
0.0
 10
165.956759
 20
149.797258
 30
0.0
 10
167.606760
 20
149.797258
 30
0.0
 10
168.431758
 20
148.368254
 30
0.0
 10
167.606760
 20
146.939250
 30
0.0
 10
165.956759
 20
146.939250
 30
0.0
 10
165.131758
 20
148.368254
 30
0.0
  0
LWPOLYLINE
  5
10c
100
AcDbEntity
  8
Layer_1
 62
7
100
AcDbPolyline
 90
40
 70
0
 10
173.471758
 20
147.386261
 30
0.0
 10
173.471758
 20
149.350246
 30
0.0
 10
173.786758
 20
151.288266
 30
0.0
 10
174.407759
 20
153.150255
 30
0.0
 10
175.320760
 20
154.888264
 30
0.0
 10
176.499760
 20
156.458238
 30
0.0
 10
177.915759
 20
157.818239
 30
0.0
 10
179.531758
 20
158.934259
 30
0.0
 10
181.305759
 20
159.775253
 30
0.0
 10
183.191760
 20
160.321240
 30
0.0
 10
185.140758
 20
160.558250
 30
0.0
 10
187.102758
 20
160.479256
 30
0.0
 10
189.025759
 20
160.086261
 30
0.0
 10
190.861758
 20
159.390245
 30
0.0
 10
192.561758
 20
158.408253
 30
0.0
 10
194.082760
 20
157.167265
 30
0.0
 10
195.384759
 20
155.697254
 30
0.0
 10
196.434758
 20
154.038239
 30
0.0
 10
197.203760
 20
152.231255
 30
0.0
 10
197.673759
 20
150.325239
 30
0.0
 10
197.831758
 20
148.368254
 30
0.0
 10
197.673759
 20
146.411240
 30
0.0
 10
197.203760
 20
144.505252
 30
0.0
 10
196.434758
 20
142.698240
 30
0.0
 10
195.384759
 20
141.039253
 30
0.0
 10
194.082760
 20
139.569242
 30
0.0
 10
192.561758
 20
138.328255
 30
0.0
 10
190.861758
 20
137.346262
 30
0.0
 10
189.025759
 20
136.650246
 30
0.0
 10
187.102758
 20
136.257251
 30
0.0
 10
185.140758
 20
136.178257
 30
0.0
 10
183.191760
 20
136.415239
 30
0.0
 10
181.305759
 20
136.961255
 30
0.0
 10
179.531758
 20
137.802249
 30
0.0
 10
177.915759
 20
138.918240
 30
0.0
 10
176.499760
 20
140.278241
 30
0.0
 10
175.320760
 20
141.848243
 30
0.0
 10
174.407759
 20
143.586252
 30
0.0
 10
173.786758
 20
145.448241
 30
0.0
 10
173.471758
 20
147.386261
 30
0.0
  0
LWPOLYLINE
  5
10d
100
AcDbEntity
  8
Layer_1
 62
7
100
AcDbPolyline
 90
7
 70
0
 10
202.831759
 20
148.368254
 30
0.0
 10
203.656760
 20
149.797258
 30
0.0
 10
205.306758
 20
149.797258
 30
0.0
 10
206.131758
 20
148.368254
 30
0.0
 10
205.306758
 20
146.939250
 30
0.0
 10
203.656760
 20
146.939250
 30
0.0
 10
202.831759
 20
148.368254
 30
0.0
  0
ENDSEC
  0
SECTION
  2
OBJECTS
  0
DICTIONARY
  5
C
330
0
100
AcDbDictionary
  3
ACAD_GROUP
350
D
  3
ACAD_MLINESTYLE
350
17
  0
DICTIONARY
  5
D
330
C
100
AcDbDictionary
  0
DICTIONARY
  5
1A
330
C
100
AcDbDictionary
  0
DICTIONARY
  5
17
330
C
100
AcDbDictionary
  3
STANDARD
350
18
  0
DICTIONARY
  5
19
330
C
100
AcDbDictionary
  0
ENDSEC
  0
EOF
