  0
SECTION
  2
HEADER
  9
$ACADVER
  1
AC1014
  9
$HANDSEED
  5
FFFF
  9
$MEASUREMENT
 70
     1
  0
ENDSEC
  0
SECTION
  2
TABLES
  0
TABLE
  2
VPORT
  5
8
330
0
100
AcDbSymbolTable
 70
     4
  0
VPORT
  5
2E
330
8
100
AcDbSymbolTableRecord
100
AcDbViewportTableRecord
  2
*ACTIVE
 70
     0
 10
0.0
 20
0.0
 11
1.0
 21
1.0
 12
210.0
 22
148.5
 13
0.0
 23
0.0
 14
10.0
 24
10.0
 15
10.0
 25
10.0
 16
0.0
 26
0.0
 36
1.0
 17
0.0
 27
0.0
 37
0.0
 40
341.0
 41
1.24
 42
50.0
 43
0.0
 44
0.0
 50
0.0
 51
0.0
 71
     0
 72
   100
 73
     1
 74
     3
 75
     0
 76
     0
 77
     0
 78
     0
  0
ENDTAB
  0
TABLE
  2
LTYPE
  5
5
330
0
100
AcDbSymbolTable
 70
     1
  0
LTYPE
  5
14
330
5
100
AcDbSymbolTableRecord
100
AcDbLinetypeTableRecord
  2
BYBLOCK
 70
     0
  3

 72
    65
 73
     0
 40
0.0
  0
LTYPE
  5
15
330
5
100
AcDbSymbolTableRecord
100
AcDbLinetypeTableRecord
  2
BYLAYER
 70
     0
  3

 72
    65
 73
     0
 40
0.0
  0
LTYPE
  5
16
330
5
100
AcDbSymbolTableRecord
100
AcDbLinetypeTableRecord
  2
CONTINUOUS
 70
     0
  3
Solid line
 72
    65
 73
     0
 40
0.0
  0
ENDTAB
  0
TABLE
  2
LAYER
  5
2
100
AcDbSymbolTable
 70
2
  0
LAYER
  5
50
100
AcDbSymbolTableRecord
100
AcDbLayerTableRecord
  2
0
 70
0
  6
CONTINUOUS
  0
LAYER
  5
51
100
AcDbSymbolTableRecord
100
AcDbLayerTableRecord
  2
Layer_1
 70
0
  6
CONTINUOUS
  0
ENDTAB
  0
TABLE
  2
STYLE
  5
3
330
0
100
AcDbSymbolTable
 70
     1
  0
STYLE
  5
11
330
3
100
AcDbSymbolTableRecord
100
AcDbTextStyleTableRecord
  2
STANDARD
 70
     0
 40
0.0
 41
1.0
 50
0.0
 71
     0
 42
2.5
  3
txt
  4

  0
ENDTAB
  0
TABLE
  2
VIEW
  5
6
330
0
100
AcDbSymbolTable
 70
     0
  0
ENDTAB
  0
TABLE
  2
UCS
  5
7
330
0
100
AcDbSymbolTable
 70
     0
  0
ENDTAB
  0
TABLE
  2
APPID
  5
9
330
0
100
AcDbSymbolTable
 70
     2
  0
APPID
  5
12
330
9
100
AcDbSymbolTableRecord
100
AcDbRegAppTableRecord
  2
ACAD
 70
     0
  0
ENDTAB
  0
TABLE
  2
DIMSTYLE
  5
A
330
0
100
AcDbSymbolTable
 70
     1
  0
DIMSTYLE
105
27
330
A
100
AcDbSymbolTableRecord
100
AcDbDimStyleTableRecord
  2
ISO-25
 70
     0
  3

  4

  5

  6

  7

 40
1.0
 41
2.5
 42
0.625
 43
3.75
 44
1.25
 45
0.0
 46
0.0
 47
0.0
 48
0.0
140
2.5
141
2.5
142
0.0
143
0.03937007874016
144
1.0
145
0.0
146
1.0
147
0.625
 71
     0
 72
     0
 73
     0
 74
     0
 75
     0
 76
     0
 77
     1
 78
     8
170
     0
171
     3
172
     1
173
     0
174
     0
175
     0
176
     0
177
     0
178
     0
270
     2
271
     2
272
     2
273
     2
274
     3
340
11
275
     0
280
     0
281
     0
282
     0
283
     0
284
     8
285
     0
286
     0
287
     3
288
     0
  0
ENDTAB
  0
TABLE
  2
BLOCK_RECORD
  5
1
330
0
100
AcDbSymbolTable
 70
     1
  0
BLOCK_RECORD
  5
1F
330
1
100
AcDbSymbolTableRecord
100
AcDbBlockTableRecord
  2
*MODEL_SPACE
  0
BLOCK_RECORD
  5
1B
330
1
100
AcDbSymbolTableRecord
100
AcDbBlockTableRecord
  2
*PAPER_SPACE
  0
ENDTAB
  0
ENDSEC
  0
SECTION
  2
BLOCKS
  0
BLOCK
  5
20
330
1F
100
AcDbEntity
  8
0
100
AcDbBlockBegin
  2
*MODEL_SPACE
 70
     0
 10
0.0
 20
0.0
 30
0.0
  3
*MODEL_SPACE
  1

  0
ENDBLK
  5
21
330
1F
100
AcDbEntity
  8
0
100
AcDbBlockEnd
  0
BLOCK
  5
1C
330
1B
100
AcDbEntity
 67
     1
  8
0
100
AcDbBlockBegin
  2
*PAPER_SPACE
  1

  0
ENDBLK
  5
1D
330
1B
100
AcDbEntity
 67
     1
  8
0
100
AcDbBlockEnd
  0
ENDSEC
  0
SECTION
  2
ENTITIES
  0
LWPOLYLINE
  5
100
100
AcDbEntity
  8
Layer_1
 62
7
100
AcDbPolyline
 90
33
 70
0
 10
-5.020208
 20
22.719480
 30
0.0
 10
-5.020208
 20
228.861477
 30
0.0
 10
-4.801207
 20
230.940479
 30
0.0
 10
-4.155206
 20
232.928477
 30
0.0
 10
-3.110207
 20
234.739478
 30
0.0
 10
-1.711206
 20
236.292476
 30
0.0
 10
-0.020207
 20
237.521478
 30
0.0
 10
1.889794
 20
238.372476
 30
0.0
 10
3.934793
 20
238.806478
 30
0.0
 10
212.166793
 20
238.806478
 30
0.0
 10
214.211792
 20
238.372476
 30
0.0
 10
216.121793
 20
237.521478
 30
0.0
 10
217.812792
 20
236.292476
 30
0.0
 10
219.211793
 20
234.739478
 30
0.0
 10
220.256791
 20
232.928477
 30
0.0
 10
220.902792
 20
230.940479
 30
0.0
 10
221.121794
 20
228.861477
 30
0.0
 10
221.121794
 20
22.719480
 30
0.0
 10
220.902792
 20
20.640490
 30
0.0
 10
220.256791
 20
18.652489
 30
0.0
 10
219.211793
 20
16.841469
 30
0.0
 10
217.812792
 20
15.288484
 30
0.0
 10
216.121793
 20
14.059491
 30
0.0
 10
214.211792
 20
13.208478
 30
0.0
 10
212.166793
 20
12.774477
 30
0.0
 10
3.934793
 20
12.774477
 30
0.0
 10
1.889794
 20
13.208478
 30
0.0
 10
-0.020207
 20
14.059491
 30
0.0
 10
-1.711206
 20
15.288484
 30
0.0
 10
-3.110207
 20
16.841469
 30
0.0
 10
-4.155206
 20
18.652489
 30
0.0
 10
-4.801207
 20
20.640490
 30
0.0
 10
-5.020208
 20
22.719480
 30
0.0
  0
LWPOLYLINE
  5
101
100
AcDbEntity
  8
Layer_1
 62
7
100
AcDbPolyline
 90
31
 70
0
 10
3.279792
 20
22.719480
 30
0.0
 10
3.316794
 20
23.072484
 30
0.0
 10
3.426793
 20
23.410473
 30
0.0
 10
3.604793
 20
23.718490
 30
0.0
 10
3.841792
 20
23.982481
 30
0.0
 10
4.129792
 20
24.191467
 30
0.0
 10
4.454793
 20
24.336472
 30
0.0
 10
4.801794
 20
24.410471
 30
0.0
 10
5.157792
 20
24.410471
 30
0.0
 10
5.504792
 20
24.336472
 30
0.0
 10
5.829794
 20
24.191467
 30
0.0
 10
6.117793
 20
23.982481
 30
0.0
 10
6.354792
 20
23.718490
 30
0.0
 10
6.532793
 20
23.410473
 30
0.0
 10
6.642794
 20
23.072484
 30
0.0
 10
6.679794
 20
22.719480
 30
0.0
 10
6.642794
 20
22.366477
 30
0.0
 10
6.532793
 20
22.028487
 30
0.0
 10
6.354792
 20
21.720470
 30
0.0
 10
6.117793
 20
21.456479
 30
0.0
 10
5.829794
 20
21.247465
 30
0.0
 10
5.504792
 20
21.102488
 30
0.0
 10
5.157792
 20
21.028489
 30
0.0
 10
4.801794
 20
21.028489
 30
0.0
 10
4.454793
 20
21.102488
 30
0.0
 10
4.129792
 20
21.247465
 30
0.0
 10
3.841792
 20
21.456479
 30
0.0
 10
3.604793
 20
21.720470
 30
0.0
 10
3.426793
 20
22.028487
 30
0.0
 10
3.316794
 20
22.366477
 30
0.0
 10
3.279792
 20
22.719480
 30
0.0
  0
LWPOLYLINE
  5
102
100
AcDbEntity
  8
Layer_1
 62
7
100
AcDbPolyline
 90
31
 70
0
 10
3.279792
 20
228.861477
 30
0.0
 10
3.316794
 20
229.214478
 30
0.0
 10
3.426793
 20
229.552476
 30
0.0
 10
3.604793
 20
229.860476
 30
0.0
 10
3.841792
 20
230.124478
 30
0.0
 10
4.129792
 20
230.333478
 30
0.0
 10
4.454793
 20
230.478478
 30
0.0
 10
4.801794
 20
230.552477
 30
0.0
 10
5.157792
 20
230.552477
 30
0.0
 10
5.504792
 20
230.478478
 30
0.0
 10
5.829794
 20
230.333478
 30
0.0
 10
6.117793
 20
230.124478
 30
0.0
 10
6.354792
 20
229.860476
 30
0.0
 10
6.532793
 20
229.552476
 30
0.0
 10
6.642794
 20
229.214478
 30
0.0
 10
6.679794
 20
228.861477
 30
0.0
 10
6.642794
 20
228.508477
 30
0.0
 10
6.532793
 20
228.170476
 30
0.0
 10
6.354792
 20
227.862478
 30
0.0
 10
6.117793
 20
227.598477
 30
0.0
 10
5.829794
 20
227.389477
 30
0.0
 10
5.504792
 20
227.244477
 30
0.0
 10
5.157792
 20
227.170478
 30
0.0
 10
4.801794
 20
227.170478
 30
0.0
 10
4.454793
 20
227.244477
 30
0.0
 10
4.129792
 20
227.389477
 30
0.0
 10
3.841792
 20
227.598477
 30
0.0
 10
3.604793
 20
227.862478
 30
0.0
 10
3.426793
 20
228.170476
 30
0.0
 10
3.316794
 20
228.508477
 30
0.0
 10
3.279792
 20
228.861477
 30
0.0
  0
LWPOLYLINE
  5
103
100
AcDbEntity
  8
Layer_1
 62
7
100
AcDbPolyline
 90
5
 70
0
 10
3.479792
 20
44.719464
 30
0.0
 10
3.479792
 20
60.719489
 30
0.0
 10
6.479794
 20
60.719489
 30
0.0
 10
6.479794
 20
44.719464
 30
0.0
 10
3.479792
 20
44.719464
 30
0.0
  0
LWPOLYLINE
  5
104
100
AcDbEntity
  8
Layer_1
 62
7
100
AcDbPolyline
 90
5
 70
0
 10
3.479792
 20
90.388467
 30
0.0
 10
3.479792
 20
106.388491
 30
0.0
 10
6.479794
 20
106.388491
 30
0.0
 10
6.479794
 20
90.388467
 30
0.0
 10
3.479792
 20
90.388467
 30
0.0
  0
LWPOLYLINE
  5
105
100
AcDbEntity
  8
Layer_1
 62
7
100
AcDbPolyline
 90
5
 70
0
 10
3.479792
 20
145.192478
 30
0.0
 10
3.479792
 20
161.192477
 30
0.0
 10
6.479794
 20
161.192477
 30
0.0
 10
6.479794
 20
145.192478
 30
0.0
 10
3.479792
 20
145.192478
 30
0.0
  0
LWPOLYLINE
  5
106
100
AcDbEntity
  8
Layer_1
 62
7
100
AcDbPolyline
 90
5
 70
0
 10
3.479792
 20
190.861477
 30
0.0
 10
3.479792
 20
206.861476
 30
0.0
 10
6.479794
 20
206.861476
 30
0.0
 10
6.479794
 20
190.861477
 30
0.0
 10
3.479792
 20
190.861477
 30
0.0
  0
LWPOLYLINE
  5
107
100
AcDbEntity
  8
Layer_1
 62
7
100
AcDbPolyline
 90
31
 70
0
 10
7.450794
 20
125.790479
 30
0.0
 10
7.488792
 20
126.154489
 30
0.0
 10
7.601794
 20
126.502469
 30
0.0
 10
7.784792
 20
126.819489
 30
0.0
 10
8.029792
 20
127.091467
 30
0.0
 10
8.325793
 20
127.306464
 30
0.0
 10
8.659791
 20
127.454489
 30
0.0
 10
9.017793
 20
127.530463
 30
0.0
 10
9.383793
 20
127.530463
 30
0.0
 10
9.741792
 20
127.454489
 30
0.0
 10
10.075793
 20
127.306464
 30
0.0
 10
10.371794
 20
127.091467
 30
0.0
 10
10.616794
 20
126.819489
 30
0.0
 10
10.799792
 20
126.502469
 30
0.0
 10
10.912794
 20
126.154489
 30
0.0
 10
10.950792
 20
125.790479
 30
0.0
 10
10.912794
 20
125.426469
 30
0.0
 10
10.799792
 20
125.078489
 30
0.0
 10
10.616794
 20
124.761468
 30
0.0
 10
10.371794
 20
124.489491
 30
0.0
 10
10.075793
 20
124.274466
 30
0.0
 10
9.741792
 20
124.126468
 30
0.0
 10
9.383793
 20
124.050466
 30
0.0
 10
9.017793
 20
124.050466
 30
0.0
 10
8.659791
 20
124.126468
 30
0.0
 10
8.325793
 20
124.274466
 30
0.0
 10
8.029792
 20
124.489491
 30
0.0
 10
7.784792
 20
124.761468
 30
0.0
 10
7.601794
 20
125.078489
 30
0.0
 10
7.488792
 20
125.426469
 30
0.0
 10
7.450794
 20
125.790479
 30
0.0
  0
LWPOLYLINE
  5
108
100
AcDbEntity
  8
Layer_1
 62
7
100
AcDbPolyline
 90
31
 70
0
 10
15.850794
 20
125.790479
 30
0.0
 10
16.117793
 20
128.327487
 30
0.0
 10
16.905794
 20
130.752482
 30
0.0
 10
18.180792
 20
132.961463
 30
0.0
 10
19.887794
 20
134.856473
 30
0.0
 10
21.950793
 20
136.356484
 30
0.0
 10
24.280794
 20
137.393481
 30
0.0
 10
26.775794
 20
137.923466
 30
0.0
 10
29.325793
 20
137.923466
 30
0.0
 10
31.820793
 20
137.393481
 30
0.0
 10
34.150794
 20
136.356484
 30
0.0
 10
36.213793
 20
134.856473
 30
0.0
 10
37.920792
 20
132.961463
 30
0.0
 10
39.195793
 20
130.752482
 30
0.0
 10
39.983794
 20
128.327487
 30
0.0
 10
40.250793
 20
125.790479
 30
0.0
 10
39.983794
 20
123.253470
 30
0.0
 10
39.195793
 20
120.828476
 30
0.0
 10
37.920792
 20
118.619466
 30
0.0
 10
36.213793
 20
116.724485
 30
0.0
 10
34.150794
 20
115.224474
 30
0.0
 10
31.820793
 20
114.187477
 30
0.0
 10
29.325793
 20
113.657463
 30
0.0
 10
26.775794
 20
113.657463
 30
0.0
 10
24.280794
 20
114.187477
 30
0.0
 10
21.950793
 20
115.224474
 30
0.0
 10
19.887794
 20
116.724485
 30
0.0
 10
18.180792
 20
118.619466
 30
0.0
 10
16.905794
 20
120.828476
 30
0.0
 10
16.117793
 20
123.253470
 30
0.0
 10
15.850794
 20
125.790479
 30
0.0
  0
LWPOLYLINE
  5
109
100
AcDbEntity
  8
Layer_1
 62
7
100
AcDbPolyline
 90
5
 70
0
 10
26.979793
 20
21.219469
 30
0.0
 10
26.979793
 20
24.219491
 30
0.0
 10
42.979794
 20
24.219491
 30
0.0
 10
42.979794
 20
21.219469
 30
0.0
 10
26.979793
 20
21.219469
 30
0.0
  0
LWPOLYLINE
  5
10a
100
AcDbEntity
  8
Layer_1
 62
7
100
AcDbPolyline
 90
5
 70
0
 10
26.979793
 20
227.361478
 30
0.0
 10
26.979793
 20
230.361477
 30
0.0
 10
42.979794
 20
230.361477
 30
0.0
 10
42.979794
 20
227.361478
 30
0.0
 10
26.979793
 20
227.361478
 30
0.0
  0
LWPOLYLINE
  5
10b
100
AcDbEntity
  8
Layer_1
 62
7
100
AcDbPolyline
 90
31
 70
0
 10
45.150792
 20
125.790479
 30
0.0
 10
45.188793
 20
126.154489
 30
0.0
 10
45.301792
 20
126.502469
 30
0.0
 10
45.484793
 20
126.819489
 30
0.0
 10
45.729793
 20
127.091467
 30
0.0
 10
46.025793
 20
127.306464
 30
0.0
 10
46.359792
 20
127.454489
 30
0.0
 10
46.717794
 20
127.530463
 30
0.0
 10
47.083794
 20
127.530463
 30
0.0
 10
47.441793
 20
127.454489
 30
0.0
 10
47.775794
 20
127.306464
 30
0.0
 10
48.071792
 20
127.091467
 30
0.0
 10
48.316792
 20
126.819489
 30
0.0
 10
48.499793
 20
126.502469
 30
0.0
 10
48.612792
 20
126.154489
 30
0.0
 10
48.650793
 20
125.790479
 30
0.0
 10
48.612792
 20
125.426469
 30
0.0
 10
48.499793
 20
125.078489
 30
0.0
 10
48.316792
 20
124.761468
 30
0.0
 10
48.071792
 20
124.489491
 30
0.0
 10
47.775794
 20
124.274466
 30
0.0
 10
47.441793
 20
124.126468
 30
0.0
 10
47.083794
 20
124.050466
 30
0.0
 10
46.717794
 20
124.050466
 30
0.0
 10
46.359792
 20
124.126468
 30
0.0
 10
46.025793
 20
124.274466
 30
0.0
 10
45.729793
 20
124.489491
 30
0.0
 10
45.484793
 20
124.761468
 30
0.0
 10
45.301792
 20
125.078489
 30
0.0
 10
45.188793
 20
125.426469
 30
0.0
 10
45.150792
 20
125.790479
 30
0.0
  0
LWPOLYLINE
  5
10c
100
AcDbEntity
  8
Layer_1
 62
7
100
AcDbPolyline
 90
63
 70
0
 10
61.150794
 20
125.790479
 30
0.0
 10
61.216794
 20
126.414472
 30
0.0
 10
61.409792
 20
127.010469
 30
0.0
 10
61.723792
 20
127.553465
 30
0.0
 10
62.143792
 20
128.019470
 30
0.0
 10
62.650793
 20
128.388475
 30
0.0
 10
63.223792
 20
128.643463
 30
0.0
 10
63.836793
 20
128.774471
 30
0.0
 10
64.464794
 20
128.774471
 30
0.0
 10
65.109793
 20
134.917489
 30
0.0
 10
67.945793
 20
143.646478
 30
0.0
 10
72.534794
 20
151.594477
 30
0.0
 10
78.675792
 20
158.414479
 30
0.0
 10
86.100793
 20
163.809478
 30
0.0
 10
94.484793
 20
167.541478
 30
0.0
 10
103.461793
 20
169.450477
 30
0.0
 10
112.639793
 20
169.450477
 30
0.0
 10
121.616793
 20
167.541478
 30
0.0
 10
130.000793
 20
163.809478
 30
0.0
 10
137.425794
 20
158.414479
 30
0.0
 10
143.566792
 20
151.594477
 30
0.0
 10
148.155793
 20
143.646478
 30
0.0
 10
150.991793
 20
134.917489
 30
0.0
 10
151.636792
 20
128.774471
 30
0.0
 10
152.264793
 20
128.774471
 30
0.0
 10
152.877794
 20
128.643463
 30
0.0
 10
153.450792
 20
128.388475
 30
0.0
 10
153.957793
 20
128.019470
 30
0.0
 10
154.377794
 20
127.553465
 30
0.0
 10
154.691794
 20
127.010469
 30
0.0
 10
154.884792
 20
126.414472
 30
0.0
 10
154.950792
 20
125.790479
 30
0.0
 10
154.884792
 20
125.166485
 30
0.0
 10
154.691794
 20
124.570489
 30
0.0
 10
154.377794
 20
124.027465
 30
0.0
 10
153.957793
 20
123.561488
 30
0.0
 10
153.450792
 20
123.192482
 30
0.0
 10
152.877794
 20
122.937466
 30
0.0
 10
152.264793
 20
122.806487
 30
0.0
 10
151.636792
 20
122.806487
 30
0.0
 10
150.991793
 20
116.663469
 30
0.0
 10
148.155793
 20
107.934476
 30
0.0
 10
143.566792
 20
99.986478
 30
0.0
 10
137.425794
 20
93.166465
 30
0.0
 10
130.000793
 20
87.771477
 30
0.0
 10
121.616793
 20
84.039483
 30
0.0
 10
112.639793
 20
82.130475
 30
0.0
 10
103.461793
 20
82.130475
 30
0.0
 10
94.484793
 20
84.039483
 30
0.0
 10
86.100793
 20
87.771477
 30
0.0
 10
78.675792
 20
93.166465
 30
0.0
 10
72.534794
 20
99.986478
 30
0.0
 10
67.945793
 20
107.934476
 30
0.0
 10
65.109793
 20
116.663469
 30
0.0
 10
64.464794
 20
122.806487
 30
0.0
 10
63.836793
 20
122.806487
 30
0.0
 10
63.223792
 20
122.937466
 30
0.0
 10
62.650793
 20
123.192482
 30
0.0
 10
62.143792
 20
123.561488
 30
0.0
 10
61.723792
 20
124.027465
 30
0.0
 10
61.409792
 20
124.570489
 30
0.0
 10
61.216794
 20
125.166485
 30
0.0
 10
61.150794
 20
125.790479
 30
0.0
  0
LWPOLYLINE
  5
10d
100
AcDbEntity
  8
Layer_1
 62
7
100
AcDbPolyline
 90
5
 70
0
 10
72.648792
 20
21.219469
 30
0.0
 10
72.648792
 20
24.219491
 30
0.0
 10
88.648793
 20
24.219491
 30
0.0
 10
88.648793
 20
21.219469
 30
0.0
 10
72.648792
 20
21.219469
 30
0.0
  0
LWPOLYLINE
  5
10e
100
AcDbEntity
  8
Layer_1
 62
7
100
AcDbPolyline
 90
5
 70
0
 10
72.648792
 20
227.361478
 30
0.0
 10
72.648792
 20
230.361477
 30
0.0
 10
88.648793
 20
230.361477
 30
0.0
 10
88.648793
 20
227.361478
 30
0.0
 10
72.648792
 20
227.361478
 30
0.0
  0
LWPOLYLINE
  5
10f
100
AcDbEntity
  8
Layer_1
 62
7
100
AcDbPolyline
 90
31
 70
0
 10
87.450793
 20
45.790469
 30
0.0
 10
87.488793
 20
46.154480
 30
0.0
 10
87.601793
 20
46.502488
 30
0.0
 10
87.784793
 20
46.819480
 30
0.0
 10
88.029793
 20
47.091486
 30
0.0
 10
88.325793
 20
47.306483
 30
0.0
 10
88.659793
 20
47.454480
 30
0.0
 10
89.017793
 20
47.530482
 30
0.0
 10
89.383793
 20
47.530482
 30
0.0
 10
89.741793
 20
47.454480
 30
0.0
 10
90.075793
 20
47.306483
 30
0.0
 10
90.371793
 20
47.091486
 30
0.0
 10
90.616793
 20
46.819480
 30
0.0
 10
90.799793
 20
46.502488
 30
0.0
 10
90.912793
 20
46.154480
 30
0.0
 10
90.950793
 20
45.790469
 30
0.0
 10
90.912793
 20
45.426487
 30
0.0
 10
90.799793
 20
45.078479
 30
0.0
 10
90.616793
 20
44.761487
 30
0.0
 10
90.371793
 20
44.489481
 30
0.0
 10
90.075793
 20
44.274485
 30
0.0
 10
89.741793
 20
44.126487
 30
0.0
 10
89.383793
 20
44.050485
 30
0.0
 10
89.017793
 20
44.050485
 30
0.0
 10
88.659793
 20
44.126487
 30
0.0
 10
88.325793
 20
44.274485
 30
0.0
 10
88.029793
 20
44.489481
 30
0.0
 10
87.784793
 20
44.761487
 30
0.0
 10
87.601793
 20
45.078479
 30
0.0
 10
87.488793
 20
45.426487
 30
0.0
 10
87.450793
 20
45.790469
 30
0.0
  0
LWPOLYLINE
  5
110
100
AcDbEntity
  8
Layer_1
 62
7
100
AcDbPolyline
 90
31
 70
0
 10
87.450793
 20
205.790477
 30
0.0
 10
87.488793
 20
206.154479
 30
0.0
 10
87.601793
 20
206.502478
 30
0.0
 10
87.784793
 20
206.819479
 30
0.0
 10
88.029793
 20
207.091479
 30
0.0
 10
88.325793
 20
207.306479
 30
0.0
 10
88.659793
 20
207.454479
 30
0.0
 10
89.017793
 20
207.530478
 30
0.0
 10
89.383793
 20
207.530478
 30
0.0
 10
89.741793
 20
207.454479
 30
0.0
 10
90.075793
 20
207.306479
 30
0.0
 10
90.371793
 20
207.091479
 30
0.0
 10
90.616793
 20
206.819479
 30
0.0
 10
90.799793
 20
206.502478
 30
0.0
 10
90.912793
 20
206.154479
 30
0.0
 10
90.950793
 20
205.790477
 30
0.0
 10
90.912793
 20
205.426478
 30
0.0
 10
90.799793
 20
205.078478
 30
0.0
 10
90.616793
 20
204.761478
 30
0.0
 10
90.371793
 20
204.489477
 30
0.0
 10
90.075793
 20
204.274478
 30
0.0
 10
89.741793
 20
204.126478
 30
0.0
 10
89.383793
 20
204.050478
 30
0.0
 10
89.017793
 20
204.050478
 30
0.0
 10
88.659793
 20
204.126478
 30
0.0
 10
88.325793
 20
204.274478
 30
0.0
 10
88.029793
 20
204.489477
 30
0.0
 10
87.784793
 20
204.761478
 30
0.0
 10
87.601793
 20
205.078478
 30
0.0
 10
87.488793
 20
205.426478
 30
0.0
 10
87.450793
 20
205.790477
 30
0.0
  0
LWPOLYLINE
  5
111
100
AcDbEntity
  8
Layer_1
 62
7
100
AcDbPolyline
 90
31
 70
0
 10
95.850793
 20
45.790469
 30
0.0
 10
96.117793
 20
48.327478
 30
0.0
 10
96.905793
 20
50.752472
 30
0.0
 10
98.180793
 20
52.961482
 30
0.0
 10
99.887793
 20
54.856463
 30
0.0
 10
101.950793
 20
56.356474
 30
0.0
 10
104.280793
 20
57.393472
 30
0.0
 10
106.775793
 20
57.923485
 30
0.0
 10
109.325793
 20
57.923485
 30
0.0
 10
111.820793
 20
57.393472
 30
0.0
 10
114.150793
 20
56.356474
 30
0.0
 10
116.213793
 20
54.856463
 30
0.0
 10
117.920793
 20
52.961482
 30
0.0
 10
119.195793
 20
50.752472
 30
0.0
 10
119.983793
 20
48.327478
 30
0.0
 10
120.250793
 20
45.790469
 30
0.0
 10
119.983793
 20
43.253489
 30
0.0
 10
119.195793
 20
40.828467
 30
0.0
 10
117.920793
 20
38.619485
 30
0.0
 10
116.213793
 20
36.724476
 30
0.0
 10
114.150793
 20
35.224465
 30
0.0
 10
111.820793
 20
34.187467
 30
0.0
 10
109.325793
 20
33.657482
 30
0.0
 10
106.775793
 20
33.657482
 30
0.0
 10
104.280793
 20
34.187467
 30
0.0
 10
101.950793
 20
35.224465
 30
0.0
 10
99.887793
 20
36.724476
 30
0.0
 10
98.180793
 20
38.619485
 30
0.0
 10
96.905793
 20
40.828467
 30
0.0
 10
96.117793
 20
43.253489
 30
0.0
 10
95.850793
 20
45.790469
 30
0.0
  0
LWPOLYLINE
  5
112
100
AcDbEntity
  8
Layer_1
 62
7
100
AcDbPolyline
 90
31
 70
0
 10
95.850793
 20
205.790477
 30
0.0
 10
96.117793
 20
208.327477
 30
0.0
 10
96.905793
 20
210.752477
 30
0.0
 10
98.180793
 20
212.961478
 30
0.0
 10
99.887793
 20
214.856476
 30
0.0
 10
101.950793
 20
216.356476
 30
0.0
 10
104.280793
 20
217.393476
 30
0.0
 10
106.775793
 20
217.923478
 30
0.0
 10
109.325793
 20
217.923478
 30
0.0
 10
111.820793
 20
217.393476
 30
0.0
 10
114.150793
 20
216.356476
 30
0.0
 10
116.213793
 20
214.856476
 30
0.0
 10
117.920793
 20
212.961478
 30
0.0
 10
119.195793
 20
210.752477
 30
0.0
 10
119.983793
 20
208.327477
 30
0.0
 10
120.250793
 20
205.790477
 30
0.0
 10
119.983793
 20
203.253477
 30
0.0
 10
119.195793
 20
200.828477
 30
0.0
 10
117.920793
 20
198.619478
 30
0.0
 10
116.213793
 20
196.724477
 30
0.0
 10
114.150793
 20
195.224478
 30
0.0
 10
111.820793
 20
194.187477
 30
0.0
 10
109.325793
 20
193.657478
 30
0.0
 10
106.775793
 20
193.657478
 30
0.0
 10
104.280793
 20
194.187477
 30
0.0
 10
101.950793
 20
195.224478
 30
0.0
 10
99.887793
 20
196.724477
 30
0.0
 10
98.180793
 20
198.619478
 30
0.0
 10
96.905793
 20
200.828477
 30
0.0
 10
96.117793
 20
203.253477
 30
0.0
 10
95.850793
 20
205.790477
 30
0.0
  0
LWPOLYLINE
  5
113
100
AcDbEntity
  8
Layer_1
 62
7
100
AcDbPolyline
 90
31
 70
0
 10
125.150793
 20
45.790469
 30
0.0
 10
125.188793
 20
46.154480
 30
0.0
 10
125.301793
 20
46.502488
 30
0.0
 10
125.484793
 20
46.819480
 30
0.0
 10
125.729793
 20
47.091486
 30
0.0
 10
126.025793
 20
47.306483
 30
0.0
 10
126.359793
 20
47.454480
 30
0.0
 10
126.717793
 20
47.530482
 30
0.0
 10
127.083793
 20
47.530482
 30
0.0
 10
127.441793
 20
47.454480
 30
0.0
 10
127.775793
 20
47.306483
 30
0.0
 10
128.071793
 20
47.091486
 30
0.0
 10
128.316793
 20
46.819480
 30
0.0
 10
128.499793
 20
46.502488
 30
0.0
 10
128.612793
 20
46.154480
 30
0.0
 10
128.650793
 20
45.790469
 30
0.0
 10
128.612793
 20
45.426487
 30
0.0
 10
128.499793
 20
45.078479
 30
0.0
 10
128.316793
 20
44.761487
 30
0.0
 10
128.071793
 20
44.489481
 30
0.0
 10
127.775793
 20
44.274485
 30
0.0
 10
127.441793
 20
44.126487
 30
0.0
 10
127.083793
 20
44.050485
 30
0.0
 10
126.717793
 20
44.050485
 30
0.0
 10
126.359793
 20
44.126487
 30
0.0
 10
126.025793
 20
44.274485
 30
0.0
 10
125.729793
 20
44.489481
 30
0.0
 10
125.484793
 20
44.761487
 30
0.0
 10
125.301793
 20
45.078479
 30
0.0
 10
125.188793
 20
45.426487
 30
0.0
 10
125.150793
 20
45.790469
 30
0.0
  0
LWPOLYLINE
  5
114
100
AcDbEntity
  8
Layer_1
 62
7
100
AcDbPolyline
 90
31
 70
0
 10
125.150793
 20
205.790477
 30
0.0
 10
125.188793
 20
206.154479
 30
0.0
 10
125.301793
 20
206.502478
 30
0.0
 10
125.484793
 20
206.819479
 30
0.0
 10
125.729793
 20
207.091479
 30
0.0
 10
126.025793
 20
207.306479
 30
0.0
 10
126.359793
 20
207.454479
 30
0.0
 10
126.717793
 20
207.530478
 30
0.0
 10
127.083793
 20
207.530478
 30
0.0
 10
127.441793
 20
207.454479
 30
0.0
 10
127.775793
 20
207.306479
 30
0.0
 10
128.071793
 20
207.091479
 30
0.0
 10
128.316793
 20
206.819479
 30
0.0
 10
128.499793
 20
206.502478
 30
0.0
 10
128.612793
 20
206.154479
 30
0.0
 10
128.650793
 20
205.790477
 30
0.0
 10
128.612793
 20
205.426478
 30
0.0
 10
128.499793
 20
205.078478
 30
0.0
 10
128.316793
 20
204.761478
 30
0.0
 10
128.071793
 20
204.489477
 30
0.0
 10
127.775793
 20
204.274478
 30
0.0
 10
127.441793
 20
204.126478
 30
0.0
 10
127.083793
 20
204.050478
 30
0.0
 10
126.717793
 20
204.050478
 30
0.0
 10
126.359793
 20
204.126478
 30
0.0
 10
126.025793
 20
204.274478
 30
0.0
 10
125.729793
 20
204.489477
 30
0.0
 10
125.484793
 20
204.761478
 30
0.0
 10
125.301793
 20
205.078478
 30
0.0
 10
125.188793
 20
205.426478
 30
0.0
 10
125.150793
 20
205.790477
 30
0.0
  0
LWPOLYLINE
  5
115
100
AcDbEntity
  8
Layer_1
 62
7
100
AcDbPolyline
 90
5
 70
0
 10
127.452793
 20
21.219469
 30
0.0
 10
127.452793
 20
24.219491
 30
0.0
 10
143.452794
 20
24.219491
 30
0.0
 10
143.452794
 20
21.219469
 30
0.0
 10
127.452793
 20
21.219469
 30
0.0
  0
LWPOLYLINE
  5
116
100
AcDbEntity
  8
Layer_1
 62
7
100
AcDbPolyline
 90
5
 70
0
 10
127.452793
 20
227.361478
 30
0.0
 10
127.452793
 20
230.361477
 30
0.0
 10
143.452794
 20
230.361477
 30
0.0
 10
143.452794
 20
227.361478
 30
0.0
 10
127.452793
 20
227.361478
 30
0.0
  0
LWPOLYLINE
  5
117
100
AcDbEntity
  8
Layer_1
 62
7
100
AcDbPolyline
 90
31
 70
0
 10
167.450793
 20
125.790479
 30
0.0
 10
167.488794
 20
126.154489
 30
0.0
 10
167.601793
 20
126.502469
 30
0.0
 10
167.784794
 20
126.819489
 30
0.0
 10
168.029794
 20
127.091467
 30
0.0
 10
168.325792
 20
127.306464
 30
0.0
 10
168.659793
 20
127.454489
 30
0.0
 10
169.017792
 20
127.530463
 30
0.0
 10
169.383792
 20
127.530463
 30
0.0
 10
169.741794
 20
127.454489
 30
0.0
 10
170.075792
 20
127.306464
 30
0.0
 10
170.371793
 20
127.091467
 30
0.0
 10
170.616793
 20
126.819489
 30
0.0
 10
170.799794
 20
126.502469
 30
0.0
 10
170.912793
 20
126.154489
 30
0.0
 10
170.950794
 20
125.790479
 30
0.0
 10
170.912793
 20
125.426469
 30
0.0
 10
170.799794
 20
125.078489
 30
0.0
 10
170.616793
 20
124.761468
 30
0.0
 10
170.371793
 20
124.489491
 30
0.0
 10
170.075792
 20
124.274466
 30
0.0
 10
169.741794
 20
124.126468
 30
0.0
 10
169.383792
 20
124.050466
 30
0.0
 10
169.017792
 20
124.050466
 30
0.0
 10
168.659793
 20
124.126468
 30
0.0
 10
168.325792
 20
124.274466
 30
0.0
 10
168.029794
 20
124.489491
 30
0.0
 10
167.784794
 20
124.761468
 30
0.0
 10
167.601793
 20
125.078489
 30
0.0
 10
167.488794
 20
125.426469
 30
0.0
 10
167.450793
 20
125.790479
 30
0.0
  0
LWPOLYLINE
  5
118
100
AcDbEntity
  8
Layer_1
 62
7
100
AcDbPolyline
 90
5
 70
0
 10
173.121791
 20
21.219469
 30
0.0
 10
173.121791
 20
24.219491
 30
0.0
 10
189.121793
 20
24.219491
 30
0.0
 10
189.121793
 20
21.219469
 30
0.0
 10
173.121791
 20
21.219469
 30
0.0
  0
LWPOLYLINE
  5
119
100
AcDbEntity
  8
Layer_1
 62
7
100
AcDbPolyline
 90
5
 70
0
 10
173.121791
 20
227.361478
 30
0.0
 10
173.121791
 20
230.361477
 30
0.0
 10
189.121793
 20
230.361477
 30
0.0
 10
189.121793
 20
227.361478
 30
0.0
 10
173.121791
 20
227.361478
 30
0.0
  0
LWPOLYLINE
  5
11a
100
AcDbEntity
  8
Layer_1
 62
7
100
AcDbPolyline
 90
31
 70
0
 10
175.850793
 20
125.790479
 30
0.0
 10
176.117792
 20
128.327487
 30
0.0
 10
176.905793
 20
130.752482
 30
0.0
 10
178.180794
 20
132.961463
 30
0.0
 10
179.887793
 20
134.856473
 30
0.0
 10
181.950792
 20
136.356484
 30
0.0
 10
184.280793
 20
137.393481
 30
0.0
 10
186.775793
 20
137.923466
 30
0.0
 10
189.325792
 20
137.923466
 30
0.0
 10
191.820792
 20
137.393481
 30
0.0
 10
194.150793
 20
136.356484
 30
0.0
 10
196.213792
 20
134.856473
 30
0.0
 10
197.920793
 20
132.961463
 30
0.0
 10
199.195792
 20
130.752482
 30
0.0
 10
199.983793
 20
128.327487
 30
0.0
 10
200.250792
 20
125.790479
 30
0.0
 10
199.983793
 20
123.253470
 30
0.0
 10
199.195792
 20
120.828476
 30
0.0
 10
197.920793
 20
118.619466
 30
0.0
 10
196.213792
 20
116.724485
 30
0.0
 10
194.150793
 20
115.224474
 30
0.0
 10
191.820792
 20
114.187477
 30
0.0
 10
189.325792
 20
113.657463
 30
0.0
 10
186.775793
 20
113.657463
 30
0.0
 10
184.280793
 20
114.187477
 30
0.0
 10
181.950792
 20
115.224474
 30
0.0
 10
179.887793
 20
116.724485
 30
0.0
 10
178.180794
 20
118.619466
 30
0.0
 10
176.905793
 20
120.828476
 30
0.0
 10
176.117792
 20
123.253470
 30
0.0
 10
175.850793
 20
125.790479
 30
0.0
  0
LWPOLYLINE
  5
11b
100
AcDbEntity
  8
Layer_1
 62
7
100
AcDbPolyline
 90
31
 70
0
 10
205.150793
 20
125.790479
 30
0.0
 10
205.188792
 20
126.154489
 30
0.0
 10
205.301794
 20
126.502469
 30
0.0
 10
205.484792
 20
126.819489
 30
0.0
 10
205.729792
 20
127.091467
 30
0.0
 10
206.025792
 20
127.306464
 30
0.0
 10
206.359794
 20
127.454489
 30
0.0
 10
206.717793
 20
127.530463
 30
0.0
 10
207.083793
 20
127.530463
 30
0.0
 10
207.441794
 20
127.454489
 30
0.0
 10
207.775793
 20
127.306464
 30
0.0
 10
208.071793
 20
127.091467
 30
0.0
 10
208.316793
 20
126.819489
 30
0.0
 10
208.499792
 20
126.502469
 30
0.0
 10
208.612794
 20
126.154489
 30
0.0
 10
208.650792
 20
125.790479
 30
0.0
 10
208.612794
 20
125.426469
 30
0.0
 10
208.499792
 20
125.078489
 30
0.0
 10
208.316793
 20
124.761468
 30
0.0
 10
208.071793
 20
124.489491
 30
0.0
 10
207.775793
 20
124.274466
 30
0.0
 10
207.441794
 20
124.126468
 30
0.0
 10
207.083793
 20
124.050466
 30
0.0
 10
206.717793
 20
124.050466
 30
0.0
 10
206.359794
 20
124.126468
 30
0.0
 10
206.025792
 20
124.274466
 30
0.0
 10
205.729792
 20
124.489491
 30
0.0
 10
205.484792
 20
124.761468
 30
0.0
 10
205.301794
 20
125.078489
 30
0.0
 10
205.188792
 20
125.426469
 30
0.0
 10
205.150793
 20
125.790479
 30
0.0
  0
LWPOLYLINE
  5
11c
100
AcDbEntity
  8
Layer_1
 62
7
100
AcDbPolyline
 90
31
 70
0
 10
209.421792
 20
22.719480
 30
0.0
 10
209.458791
 20
23.072484
 30
0.0
 10
209.568793
 20
23.410473
 30
0.0
 10
209.746794
 20
23.718490
 30
0.0
 10
209.983792
 20
23.982481
 30
0.0
 10
210.271792
 20
24.191467
 30
0.0
 10
210.596793
 20
24.336472
 30
0.0
 10
210.943794
 20
24.410471
 30
0.0
 10
211.299792
 20
24.410471
 30
0.0
 10
211.646793
 20
24.336472
 30
0.0
 10
211.971794
 20
24.191467
 30
0.0
 10
212.259793
 20
23.982481
 30
0.0
 10
212.496792
 20
23.718490
 30
0.0
 10
212.674793
 20
23.410473
 30
0.0
 10
212.784792
 20
23.072484
 30
0.0
 10
212.821794
 20
22.719480
 30
0.0
 10
212.784792
 20
22.366477
 30
0.0
 10
212.674793
 20
22.028487
 30
0.0
 10
212.496792
 20
21.720470
 30
0.0
 10
212.259793
 20
21.456479
 30
0.0
 10
211.971794
 20
21.247465
 30
0.0
 10
211.646793
 20
21.102488
 30
0.0
 10
211.299792
 20
21.028489
 30
0.0
 10
210.943794
 20
21.028489
 30
0.0
 10
210.596793
 20
21.102488
 30
0.0
 10
210.271792
 20
21.247465
 30
0.0
 10
209.983792
 20
21.456479
 30
0.0
 10
209.746794
 20
21.720470
 30
0.0
 10
209.568793
 20
22.028487
 30
0.0
 10
209.458791
 20
22.366477
 30
0.0
 10
209.421792
 20
22.719480
 30
0.0
  0
LWPOLYLINE
  5
11d
100
AcDbEntity
  8
Layer_1
 62
7
100
AcDbPolyline
 90
31
 70
0
 10
209.421792
 20
228.861477
 30
0.0
 10
209.458791
 20
229.214478
 30
0.0
 10
209.568793
 20
229.552476
 30
0.0
 10
209.746794
 20
229.860476
 30
0.0
 10
209.983792
 20
230.124478
 30
0.0
 10
210.271792
 20
230.333478
 30
0.0
 10
210.596793
 20
230.478478
 30
0.0
 10
210.943794
 20
230.552477
 30
0.0
 10
211.299792
 20
230.552477
 30
0.0
 10
211.646793
 20
230.478478
 30
0.0
 10
211.971794
 20
230.333478
 30
0.0
 10
212.259793
 20
230.124478
 30
0.0
 10
212.496792
 20
229.860476
 30
0.0
 10
212.674793
 20
229.552476
 30
0.0
 10
212.784792
 20
229.214478
 30
0.0
 10
212.821794
 20
228.861477
 30
0.0
 10
212.784792
 20
228.508477
 30
0.0
 10
212.674793
 20
228.170476
 30
0.0
 10
212.496792
 20
227.862478
 30
0.0
 10
212.259793
 20
227.598477
 30
0.0
 10
211.971794
 20
227.389477
 30
0.0
 10
211.646793
 20
227.244477
 30
0.0
 10
211.299792
 20
227.170478
 30
0.0
 10
210.943794
 20
227.170478
 30
0.0
 10
210.596793
 20
227.244477
 30
0.0
 10
210.271792
 20
227.389477
 30
0.0
 10
209.983792
 20
227.598477
 30
0.0
 10
209.746794
 20
227.862478
 30
0.0
 10
209.568793
 20
228.170476
 30
0.0
 10
209.458791
 20
228.508477
 30
0.0
 10
209.421792
 20
228.861477
 30
0.0
  0
LWPOLYLINE
  5
11e
100
AcDbEntity
  8
Layer_1
 62
7
100
AcDbPolyline
 90
5
 70
0
 10
209.621792
 20
44.719464
 30
0.0
 10
209.621792
 20
60.719489
 30
0.0
 10
212.621794
 20
60.719489
 30
0.0
 10
212.621794
 20
44.719464
 30
0.0
 10
209.621792
 20
44.719464
 30
0.0
  0
LWPOLYLINE
  5
11f
100
AcDbEntity
  8
Layer_1
 62
7
100
AcDbPolyline
 90
5
 70
0
 10
209.621792
 20
90.388467
 30
0.0
 10
209.621792
 20
106.388491
 30
0.0
 10
212.621794
 20
106.388491
 30
0.0
 10
212.621794
 20
90.388467
 30
0.0
 10
209.621792
 20
90.388467
 30
0.0
  0
LWPOLYLINE
  5
120
100
AcDbEntity
  8
Layer_1
 62
7
100
AcDbPolyline
 90
5
 70
0
 10
209.621792
 20
145.192478
 30
0.0
 10
209.621792
 20
161.192477
 30
0.0
 10
212.621794
 20
161.192477
 30
0.0
 10
212.621794
 20
145.192478
 30
0.0
 10
209.621792
 20
145.192478
 30
0.0
  0
LWPOLYLINE
  5
121
100
AcDbEntity
  8
Layer_1
 62
7
100
AcDbPolyline
 90
5
 70
0
 10
209.621792
 20
190.861477
 30
0.0
 10
209.621792
 20
206.861476
 30
0.0
 10
212.621794
 20
206.861476
 30
0.0
 10
212.621794
 20
190.861477
 30
0.0
 10
209.621792
 20
190.861477
 30
0.0
  0
ENDSEC
  0
SECTION
  2
OBJECTS
  0
DICTIONARY
  5
C
330
0
100
AcDbDictionary
  3
ACAD_GROUP
350
D
  3
ACAD_MLINESTYLE
350
17
  0
DICTIONARY
  5
D
330
C
100
AcDbDictionary
  0
DICTIONARY
  5
1A
330
C
100
AcDbDictionary
  0
DICTIONARY
  5
17
330
C
100
AcDbDictionary
  3
STANDARD
350
18
  0
DICTIONARY
  5
19
330
C
100
AcDbDictionary
  0
ENDSEC
  0
EOF
