  0
SECTION
  2
BLOCKS
  0
ENDSEC
  0
SECTION
  2
ENTITIES
  0
LINE
  8
0
 10
-65.0711
 20
-33
 11
-35.4016
 21
-33
  0
LINE
  8
0
 10
-35.4016
 20
-33
 11
-35.4016
 21
-35.999
  0
LINE
  8
0
 10
-35.4016
 20
-35.999
 11
-19.4016
 21
-35.999
  0
LINE
  8
0
 10
-19.4016
 20
-35.999
 11
-19.4016
 21
-33
  0
LINE
  8
0
 10
-19.4016
 20
-33
 11
19.4016
 21
-33
  0
LINE
  8
0
 10
19.4016
 20
-33
 11
19.4016
 21
-35.999
  0
LINE
  8
0
 10
19.4016
 20
-35.999
 11
35.4016
 21
-35.999
  0
LINE
  8
0
 10
35.4016
 20
-35.999
 11
35.4016
 21
-33
  0
LINE
  8
0
 10
35.4016
 20
-33
 11
65.0711
 21
-33
  0
LINE
  8
0
 10
65.0711
 20
-33
 11
65.0711
 21
-35.999
  0
LINE
  8
0
 10
65.0711
 20
-35.999
 11
81.0711
 21
-35.999
  0
LINE
  8
0
 10
81.0711
 20
-35.999
 11
81.0711
 21
36
  0
LINE
  8
0
 10
81.0711
 20
36
 11
65.0711
 21
36
  0
LINE
  8
0
 10
65.0711
 20
36
 11
65.0711
 21
33
  0
LINE
  8
0
 10
65.0711
 20
33
 11
35.4016
 21
33
  0
LINE
  8
0
 10
35.4016
 20
33
 11
35.4016
 21
36
  0
LINE
  8
0
 10
35.4016
 20
36
 11
19.4016
 21
36
  0
LINE
  8
0
 10
19.4016
 20
36
 11
19.4016
 21
33
  0
LINE
  8
0
 10
19.4016
 20
33
 11
-19.4016
 21
33
  0
LINE
  8
0
 10
-19.4016
 20
33
 11
-19.4016
 21
36
  0
LINE
  8
0
 10
-19.4016
 20
36
 11
-35.4016
 21
36
  0
LINE
  8
0
 10
-35.4016
 20
36
 11
-35.4016
 21
33
  0
LINE
  8
0
 10
-35.4016
 20
33
 11
-65.0711
 21
33
  0
LINE
  8
0
 10
-65.0711
 20
33
 11
-65.0711
 21
36
  0
LINE
  8
0
 10
-65.0711
 20
36
 11
-81.0711
 21
36
  0
LINE
  8
0
 10
-81.0711
 20
36
 11
-81.0711
 21
-35.999
  0
LINE
  8
0
 10
-81.0711
 20
-35.999
 11
-65.0711
 21
-35.999
  0
LINE
  8
0
 10
-65.0711
 20
-35.999
 11
-65.0711
 21
-33
  0
LINE
  8
0
 10
50.0711
 20
2
 11
50.0711
 21
12
  0
LINE
  8
0
 10
50.0711
 20
12
 11
60.0711
 21
12
  0
LINE
  8
0
 10
60.0711
 20
12
 11
60.0711
 21
2
  0
LINE
  8
0
 10
60.0711
 20
2
 11
50.0711
 21
2
  0
LINE
  8
0
 10
50.5711
 20
-16.25
 11
50.5711
 21
-12.25
  0
LINE
  8
0
 10
50.5711
 20
-12.25
 11
59.5711
 21
-12.25
  0
LINE
  8
0
 10
59.5711
 20
-12.25
 11
59.5711
 21
-16.25
  0
LINE
  8
0
 10
59.5711
 20
-16.25
 11
50.5711
 21
-16.25
  0
LINE
  8
0
 10
45.4613
 20
-15.2942
 11
45.2466
 21
-15.2486
  0
LINE
  8
0
 10
45.2466
 20
-15.2486
 11
45.0461
 21
-15.1593
  0
LINE
  8
0
 10
45.0461
 20
-15.1593
 11
44.8685
 21
-15.0303
  0
LINE
  8
0
 10
44.8685
 20
-15.0303
 11
44.7216
 21
-14.8672
  0
LINE
  8
0
 10
44.7216
 20
-14.8672
 11
44.6118
 21
-14.6771
  0
LINE
  8
0
 10
44.6118
 20
-14.6771
 11
44.544
 21
-14.4683
  0
LINE
  8
0
 10
44.544
 20
-14.4683
 11
44.5211
 21
-14.25
  0
LINE
  8
0
 10
44.5211
 20
-14.25
 11
44.544
 21
-14.0317
  0
LINE
  8
0
 10
44.544
 20
-14.0317
 11
44.6118
 21
-13.8229
  0
LINE
  8
0
 10
44.6118
 20
-13.8229
 11
44.7216
 21
-13.6328
  0
LINE
  8
0
 10
44.7216
 20
-13.6328
 11
44.8685
 21
-13.4697
  0
LINE
  8
0
 10
44.8685
 20
-13.4697
 11
45.0461
 21
-13.3407
  0
LINE
  8
0
 10
45.0461
 20
-13.3407
 11
45.2466
 21
-13.2514
  0
LINE
  8
0
 10
45.2466
 20
-13.2514
 11
45.4613
 21
-13.2058
  0
LINE
  8
0
 10
45.4613
 20
-13.2058
 11
45.6808
 21
-13.2058
  0
LINE
  8
0
 10
45.6808
 20
-13.2058
 11
45.8955
 21
-13.2514
  0
LINE
  8
0
 10
45.8955
 20
-13.2514
 11
46.0961
 21
-13.3407
  0
LINE
  8
0
 10
46.0961
 20
-13.3407
 11
46.2736
 21
-13.4697
  0
LINE
  8
0
 10
46.2736
 20
-13.4697
 11
46.4205
 21
-13.6328
  0
LINE
  8
0
 10
46.4205
 20
-13.6328
 11
46.5303
 21
-13.8229
  0
LINE
  8
0
 10
46.5303
 20
-13.8229
 11
46.5981
 21
-14.0317
  0
LINE
  8
0
 10
46.5981
 20
-14.0317
 11
46.621
 21
-14.25
  0
LINE
  8
0
 10
46.621
 20
-14.25
 11
46.5981
 21
-14.4683
  0
LINE
  8
0
 10
46.5981
 20
-14.4683
 11
46.5303
 21
-14.6771
  0
LINE
  8
0
 10
46.5303
 20
-14.6771
 11
46.4205
 21
-14.8672
  0
LINE
  8
0
 10
46.4205
 20
-14.8672
 11
46.2736
 21
-15.0303
  0
LINE
  8
0
 10
46.2736
 20
-15.0303
 11
46.0961
 21
-15.1593
  0
LINE
  8
0
 10
46.0961
 20
-15.1593
 11
45.8955
 21
-15.2486
  0
LINE
  8
0
 10
45.8955
 20
-15.2486
 11
45.6808
 21
-15.2942
  0
LINE
  8
0
 10
45.6808
 20
-15.2942
 11
45.4613
 21
-15.2942
  0
LINE
  8
0
 10
64.4613
 20
-15.2942
 11
64.2466
 21
-15.2486
  0
LINE
  8
0
 10
64.2466
 20
-15.2486
 11
64.0461
 21
-15.1593
  0
LINE
  8
0
 10
64.0461
 20
-15.1593
 11
63.8685
 21
-15.0303
  0
LINE
  8
0
 10
63.8685
 20
-15.0303
 11
63.7216
 21
-14.8672
  0
LINE
  8
0
 10
63.7216
 20
-14.8672
 11
63.6118
 21
-14.6771
  0
LINE
  8
0
 10
63.6118
 20
-14.6771
 11
63.544
 21
-14.4683
  0
LINE
  8
0
 10
63.544
 20
-14.4683
 11
63.5211
 21
-14.25
  0
LINE
  8
0
 10
63.5211
 20
-14.25
 11
63.544
 21
-14.0317
  0
LINE
  8
0
 10
63.544
 20
-14.0317
 11
63.6118
 21
-13.8229
  0
LINE
  8
0
 10
63.6118
 20
-13.8229
 11
63.7216
 21
-13.6328
  0
LINE
  8
0
 10
63.7216
 20
-13.6328
 11
63.8685
 21
-13.4697
  0
LINE
  8
0
 10
63.8685
 20
-13.4697
 11
64.0461
 21
-13.3407
  0
LINE
  8
0
 10
64.0461
 20
-13.3407
 11
64.2466
 21
-13.2514
  0
LINE
  8
0
 10
64.2466
 20
-13.2514
 11
64.4613
 21
-13.2058
  0
LINE
  8
0
 10
64.4613
 20
-13.2058
 11
64.6808
 21
-13.2058
  0
LINE
  8
0
 10
64.6808
 20
-13.2058
 11
64.8955
 21
-13.2514
  0
LINE
  8
0
 10
64.8955
 20
-13.2514
 11
65.0961
 21
-13.3407
  0
LINE
  8
0
 10
65.0961
 20
-13.3407
 11
65.2736
 21
-13.4697
  0
LINE
  8
0
 10
65.2736
 20
-13.4697
 11
65.4205
 21
-13.6328
  0
LINE
  8
0
 10
65.4205
 20
-13.6328
 11
65.5303
 21
-13.8229
  0
LINE
  8
0
 10
65.5303
 20
-13.8229
 11
65.5981
 21
-14.0317
  0
LINE
  8
0
 10
65.5981
 20
-14.0317
 11
65.621
 21
-14.25
  0
LINE
  8
0
 10
65.621
 20
-14.25
 11
65.5981
 21
-14.4683
  0
LINE
  8
0
 10
65.5981
 20
-14.4683
 11
65.5303
 21
-14.6771
  0
LINE
  8
0
 10
65.5303
 20
-14.6771
 11
65.4205
 21
-14.8672
  0
LINE
  8
0
 10
65.4205
 20
-14.8672
 11
65.2736
 21
-15.0303
  0
LINE
  8
0
 10
65.2736
 20
-15.0303
 11
65.0961
 21
-15.1593
  0
LINE
  8
0
 10
65.0961
 20
-15.1593
 11
64.8955
 21
-15.2486
  0
LINE
  8
0
 10
64.8955
 20
-15.2486
 11
64.6808
 21
-15.2942
  0
LINE
  8
0
 10
64.6808
 20
-15.2942
 11
64.4613
 21
-15.2942
  0
ENDSEC
  0
SECTION
  2
OBJECTS
  0
DICTIONARY
  0
ENDSEC
  0
EOF
