  0
SECTION
  2
HEADER
  9
$ACADVER
  1
AC1014
  9
$HANDSEED
  5
FFFF
  9
$MEASUREMENT
 70
     1
  0
ENDSEC
  0
SECTION
  2
TABLES
  0
TABLE
  2
VPORT
  5
8
330
0
100
AcDbSymbolTable
 70
     4
  0
VPORT
  5
2E
330
8
100
AcDbSymbolTableRecord
100
AcDbViewportTableRecord
  2
*ACTIVE
 70
     0
 10
0.0
 20
0.0
 11
1.0
 21
1.0
 12
210.0
 22
148.5
 13
0.0
 23
0.0
 14
10.0
 24
10.0
 15
10.0
 25
10.0
 16
0.0
 26
0.0
 36
1.0
 17
0.0
 27
0.0
 37
0.0
 40
341.0
 41
1.24
 42
50.0
 43
0.0
 44
0.0
 50
0.0
 51
0.0
 71
     0
 72
   100
 73
     1
 74
     3
 75
     0
 76
     0
 77
     0
 78
     0
  0
ENDTAB
  0
TABLE
  2
LTYPE
  5
5
330
0
100
AcDbSymbolTable
 70
     1
  0
LTYPE
  5
14
330
5
100
AcDbSymbolTableRecord
100
AcDbLinetypeTableRecord
  2
BYBLOCK
 70
     0
  3

 72
    65
 73
     0
 40
0.0
  0
LTYPE
  5
15
330
5
100
AcDbSymbolTableRecord
100
AcDbLinetypeTableRecord
  2
BYLAYER
 70
     0
  3

 72
    65
 73
     0
 40
0.0
  0
LTYPE
  5
16
330
5
100
AcDbSymbolTableRecord
100
AcDbLinetypeTableRecord
  2
CONTINUOUS
 70
     0
  3
Solid line
 72
    65
 73
     0
 40
0.0
  0
ENDTAB
  0
TABLE
  2
LAYER
  5
2
100
AcDbSymbolTable
 70
2
  0
LAYER
  5
50
100
AcDbSymbolTableRecord
100
AcDbLayerTableRecord
  2
0
 70
0
  6
CONTINUOUS
  0
LAYER
  5
51
100
AcDbSymbolTableRecord
100
AcDbLayerTableRecord
  2
Layer_1
 70
0
  6
CONTINUOUS
  0
ENDTAB
  0
TABLE
  2
STYLE
  5
3
330
0
100
AcDbSymbolTable
 70
     1
  0
STYLE
  5
11
330
3
100
AcDbSymbolTableRecord
100
AcDbTextStyleTableRecord
  2
STANDARD
 70
     0
 40
0.0
 41
1.0
 50
0.0
 71
     0
 42
2.5
  3
txt
  4

  0
ENDTAB
  0
TABLE
  2
VIEW
  5
6
330
0
100
AcDbSymbolTable
 70
     0
  0
ENDTAB
  0
TABLE
  2
UCS
  5
7
330
0
100
AcDbSymbolTable
 70
     0
  0
ENDTAB
  0
TABLE
  2
APPID
  5
9
330
0
100
AcDbSymbolTable
 70
     2
  0
APPID
  5
12
330
9
100
AcDbSymbolTableRecord
100
AcDbRegAppTableRecord
  2
ACAD
 70
     0
  0
ENDTAB
  0
TABLE
  2
DIMSTYLE
  5
A
330
0
100
AcDbSymbolTable
 70
     1
  0
DIMSTYLE
105
27
330
A
100
AcDbSymbolTableRecord
100
AcDbDimStyleTableRecord
  2
ISO-25
 70
     0
  3

  4

  5

  6

  7

 40
1.0
 41
2.5
 42
0.625
 43
3.75
 44
1.25
 45
0.0
 46
0.0
 47
0.0
 48
0.0
140
2.5
141
2.5
142
0.0
143
0.03937007874016
144
1.0
145
0.0
146
1.0
147
0.625
 71
     0
 72
     0
 73
     0
 74
     0
 75
     0
 76
     0
 77
     1
 78
     8
170
     0
171
     3
172
     1
173
     0
174
     0
175
     0
176
     0
177
     0
178
     0
270
     2
271
     2
272
     2
273
     2
274
     3
340
11
275
     0
280
     0
281
     0
282
     0
283
     0
284
     8
285
     0
286
     0
287
     3
288
     0
  0
ENDTAB
  0
TABLE
  2
BLOCK_RECORD
  5
1
330
0
100
AcDbSymbolTable
 70
     1
  0
BLOCK_RECORD
  5
1F
330
1
100
AcDbSymbolTableRecord
100
AcDbBlockTableRecord
  2
*MODEL_SPACE
  0
BLOCK_RECORD
  5
1B
330
1
100
AcDbSymbolTableRecord
100
AcDbBlockTableRecord
  2
*PAPER_SPACE
  0
ENDTAB
  0
ENDSEC
  0
SECTION
  2
BLOCKS
  0
BLOCK
  5
20
330
1F
100
AcDbEntity
  8
0
100
AcDbBlockBegin
  2
*MODEL_SPACE
 70
     0
 10
0.0
 20
0.0
 30
0.0
  3
*MODEL_SPACE
  1

  0
ENDBLK
  5
21
330
1F
100
AcDbEntity
  8
0
100
AcDbBlockEnd
  0
BLOCK
  5
1C
330
1B
100
AcDbEntity
 67
     1
  8
0
100
AcDbBlockBegin
  2
*PAPER_SPACE
  1

  0
ENDBLK
  5
1D
330
1B
100
AcDbEntity
 67
     1
  8
0
100
AcDbBlockEnd
  0
ENDSEC
  0
SECTION
  2
ENTITIES
  0
LWPOLYLINE
  5
100
100
AcDbEntity
  8
Layer_1
 62
7
100
AcDbPolyline
 90
33
 70
0
 10
-7.876365
 20
33.905849
 30
0.0
 10
-7.876365
 20
240.047846
 30
0.0
 10
-7.657363
 20
242.126848
 30
0.0
 10
-7.011362
 20
244.114846
 30
0.0
 10
-5.966364
 20
245.925847
 30
0.0
 10
-4.567363
 20
247.478845
 30
0.0
 10
-2.876364
 20
248.707846
 30
0.0
 10
-0.966363
 20
249.558845
 30
0.0
 10
1.078636
 20
249.992847
 30
0.0
 10
209.310636
 20
249.992847
 30
0.0
 10
211.355635
 20
249.558845
 30
0.0
 10
213.265636
 20
248.707846
 30
0.0
 10
214.956636
 20
247.478845
 30
0.0
 10
216.355636
 20
245.925847
 30
0.0
 10
217.400635
 20
244.114846
 30
0.0
 10
218.046636
 20
242.126848
 30
0.0
 10
218.265637
 20
240.047846
 30
0.0
 10
218.265637
 20
33.905849
 30
0.0
 10
218.046636
 20
31.826859
 30
0.0
 10
217.400635
 20
29.838857
 30
0.0
 10
216.355636
 20
28.027837
 30
0.0
 10
214.956636
 20
26.474853
 30
0.0
 10
213.265636
 20
25.245860
 30
0.0
 10
211.355635
 20
24.394847
 30
0.0
 10
209.310636
 20
23.960846
 30
0.0
 10
1.078636
 20
23.960846
 30
0.0
 10
-0.966363
 20
24.394847
 30
0.0
 10
-2.876364
 20
25.245860
 30
0.0
 10
-4.567363
 20
26.474853
 30
0.0
 10
-5.966364
 20
28.027837
 30
0.0
 10
-7.011362
 20
29.838857
 30
0.0
 10
-7.657363
 20
31.826859
 30
0.0
 10
-7.876365
 20
33.905849
 30
0.0
  0
LWPOLYLINE
  5
101
100
AcDbEntity
  8
Layer_1
 62
7
100
AcDbPolyline
 90
31
 70
0
 10
0.423635
 20
33.905849
 30
0.0
 10
0.460637
 20
34.258852
 30
0.0
 10
0.570636
 20
34.596842
 30
0.0
 10
0.748637
 20
34.904859
 30
0.0
 10
0.985636
 20
35.168850
 30
0.0
 10
1.273635
 20
35.377835
 30
0.0
 10
1.598636
 20
35.522841
 30
0.0
 10
1.945637
 20
35.596840
 30
0.0
 10
2.301635
 20
35.596840
 30
0.0
 10
2.648636
 20
35.522841
 30
0.0
 10
2.973637
 20
35.377835
 30
0.0
 10
3.261637
 20
35.168850
 30
0.0
 10
3.498636
 20
34.904859
 30
0.0
 10
3.676636
 20
34.596842
 30
0.0
 10
3.786638
 20
34.258852
 30
0.0
 10
3.823637
 20
33.905849
 30
0.0
 10
3.786638
 20
33.552845
 30
0.0
 10
3.676636
 20
33.214856
 30
0.0
 10
3.498636
 20
32.906839
 30
0.0
 10
3.261637
 20
32.642848
 30
0.0
 10
2.973637
 20
32.433834
 30
0.0
 10
2.648636
 20
32.288857
 30
0.0
 10
2.301635
 20
32.214858
 30
0.0
 10
1.945637
 20
32.214858
 30
0.0
 10
1.598636
 20
32.288857
 30
0.0
 10
1.273635
 20
32.433834
 30
0.0
 10
0.985636
 20
32.642848
 30
0.0
 10
0.748637
 20
32.906839
 30
0.0
 10
0.570636
 20
33.214856
 30
0.0
 10
0.460637
 20
33.552845
 30
0.0
 10
0.423635
 20
33.905849
 30
0.0
  0
LWPOLYLINE
  5
102
100
AcDbEntity
  8
Layer_1
 62
7
100
AcDbPolyline
 90
31
 70
0
 10
0.423635
 20
240.047846
 30
0.0
 10
0.460637
 20
240.400847
 30
0.0
 10
0.570636
 20
240.738845
 30
0.0
 10
0.748637
 20
241.046845
 30
0.0
 10
0.985636
 20
241.310847
 30
0.0
 10
1.273635
 20
241.519847
 30
0.0
 10
1.598636
 20
241.664847
 30
0.0
 10
1.945637
 20
241.738846
 30
0.0
 10
2.301635
 20
241.738846
 30
0.0
 10
2.648636
 20
241.664847
 30
0.0
 10
2.973637
 20
241.519847
 30
0.0
 10
3.261637
 20
241.310847
 30
0.0
 10
3.498636
 20
241.046845
 30
0.0
 10
3.676636
 20
240.738845
 30
0.0
 10
3.786638
 20
240.400847
 30
0.0
 10
3.823637
 20
240.047846
 30
0.0
 10
3.786638
 20
239.694846
 30
0.0
 10
3.676636
 20
239.356845
 30
0.0
 10
3.498636
 20
239.048847
 30
0.0
 10
3.261637
 20
238.784845
 30
0.0
 10
2.973637
 20
238.575846
 30
0.0
 10
2.648636
 20
238.430846
 30
0.0
 10
2.301635
 20
238.356847
 30
0.0
 10
1.945637
 20
238.356847
 30
0.0
 10
1.598636
 20
238.430846
 30
0.0
 10
1.273635
 20
238.575846
 30
0.0
 10
0.985636
 20
238.784845
 30
0.0
 10
0.748637
 20
239.048847
 30
0.0
 10
0.570636
 20
239.356845
 30
0.0
 10
0.460637
 20
239.694846
 30
0.0
 10
0.423635
 20
240.047846
 30
0.0
  0
LWPOLYLINE
  5
103
100
AcDbEntity
  8
Layer_1
 62
7
100
AcDbPolyline
 90
31
 70
0
 10
4.594637
 20
136.976848
 30
0.0
 10
4.632635
 20
137.340858
 30
0.0
 10
4.745637
 20
137.688838
 30
0.0
 10
4.928636
 20
138.005858
 30
0.0
 10
5.173636
 20
138.277836
 30
0.0
 10
5.469636
 20
138.492832
 30
0.0
 10
5.803635
 20
138.640858
 30
0.0
 10
6.161636
 20
138.716832
 30
0.0
 10
6.527636
 20
138.716832
 30
0.0
 10
6.885635
 20
138.640858
 30
0.0
 10
7.219637
 20
138.492832
 30
0.0
 10
7.515637
 20
138.277836
 30
0.0
 10
7.760637
 20
138.005858
 30
0.0
 10
7.943636
 20
137.688838
 30
0.0
 10
8.056637
 20
137.340858
 30
0.0
 10
8.094636
 20
136.976848
 30
0.0
 10
8.056637
 20
136.612837
 30
0.0
 10
7.943636
 20
136.264857
 30
0.0
 10
7.760637
 20
135.947837
 30
0.0
 10
7.515637
 20
135.675860
 30
0.0
 10
7.219637
 20
135.460834
 30
0.0
 10
6.885635
 20
135.312837
 30
0.0
 10
6.527636
 20
135.236835
 30
0.0
 10
6.161636
 20
135.236835
 30
0.0
 10
5.803635
 20
135.312837
 30
0.0
 10
5.469636
 20
135.460834
 30
0.0
 10
5.173636
 20
135.675860
 30
0.0
 10
4.928636
 20
135.947837
 30
0.0
 10
4.745637
 20
136.264857
 30
0.0
 10
4.632635
 20
136.612837
 30
0.0
 10
4.594637
 20
136.976848
 30
0.0
  0
LWPOLYLINE
  5
104
100
AcDbEntity
  8
Layer_1
 62
7
100
AcDbPolyline
 90
31
 70
0
 10
12.994637
 20
136.976848
 30
0.0
 10
13.261636
 20
139.513856
 30
0.0
 10
14.049637
 20
141.938850
 30
0.0
 10
15.324636
 20
144.147832
 30
0.0
 10
17.031637
 20
146.042841
 30
0.0
 10
19.094636
 20
147.542852
 30
0.0
 10
21.424638
 20
148.579850
 30
0.0
 10
23.919637
 20
149.109835
 30
0.0
 10
26.469636
 20
149.109835
 30
0.0
 10
28.964636
 20
148.579850
 30
0.0
 10
31.294637
 20
147.542852
 30
0.0
 10
33.357637
 20
146.042841
 30
0.0
 10
35.064635
 20
144.147832
 30
0.0
 10
36.339636
 20
141.938850
 30
0.0
 10
37.127637
 20
139.513856
 30
0.0
 10
37.394636
 20
136.976848
 30
0.0
 10
37.127637
 20
134.439839
 30
0.0
 10
36.339636
 20
132.014845
 30
0.0
 10
35.064635
 20
129.805835
 30
0.0
 10
33.357637
 20
127.910854
 30
0.0
 10
31.294637
 20
126.410843
 30
0.0
 10
28.964636
 20
125.373845
 30
0.0
 10
26.469636
 20
124.843832
 30
0.0
 10
23.919637
 20
124.843832
 30
0.0
 10
21.424638
 20
125.373845
 30
0.0
 10
19.094636
 20
126.410843
 30
0.0
 10
17.031637
 20
127.910854
 30
0.0
 10
15.324636
 20
129.805835
 30
0.0
 10
14.049637
 20
132.014845
 30
0.0
 10
13.261636
 20
134.439839
 30
0.0
 10
12.994637
 20
136.976848
 30
0.0
  0
LWPOLYLINE
  5
105
100
AcDbEntity
  8
Layer_1
 62
7
100
AcDbPolyline
 90
31
 70
0
 10
42.294635
 20
136.976848
 30
0.0
 10
42.332636
 20
137.340858
 30
0.0
 10
42.445635
 20
137.688838
 30
0.0
 10
42.628637
 20
138.005858
 30
0.0
 10
42.873636
 20
138.277836
 30
0.0
 10
43.169637
 20
138.492832
 30
0.0
 10
43.503636
 20
138.640858
 30
0.0
 10
43.861637
 20
138.716832
 30
0.0
 10
44.227637
 20
138.716832
 30
0.0
 10
44.585636
 20
138.640858
 30
0.0
 10
44.919638
 20
138.492832
 30
0.0
 10
45.215635
 20
138.277836
 30
0.0
 10
45.460635
 20
138.005858
 30
0.0
 10
45.643636
 20
137.688838
 30
0.0
 10
45.756635
 20
137.340858
 30
0.0
 10
45.794636
 20
136.976848
 30
0.0
 10
45.756635
 20
136.612837
 30
0.0
 10
45.643636
 20
136.264857
 30
0.0
 10
45.460635
 20
135.947837
 30
0.0
 10
45.215635
 20
135.675860
 30
0.0
 10
44.919638
 20
135.460834
 30
0.0
 10
44.585636
 20
135.312837
 30
0.0
 10
44.227637
 20
135.236835
 30
0.0
 10
43.861637
 20
135.236835
 30
0.0
 10
43.503636
 20
135.312837
 30
0.0
 10
43.169637
 20
135.460834
 30
0.0
 10
42.873636
 20
135.675860
 30
0.0
 10
42.628637
 20
135.947837
 30
0.0
 10
42.445635
 20
136.264857
 30
0.0
 10
42.332636
 20
136.612837
 30
0.0
 10
42.294635
 20
136.976848
 30
0.0
  0
LWPOLYLINE
  5
106
100
AcDbEntity
  8
Layer_1
 62
7
100
AcDbPolyline
 90
63
 70
0
 10
57.594635
 20
136.976848
 30
0.0
 10
57.675636
 20
137.745847
 30
0.0
 10
57.914636
 20
138.481854
 30
0.0
 10
58.301636
 20
139.151850
 30
0.0
 10
58.818636
 20
139.726849
 30
0.0
 10
59.444636
 20
140.180860
 30
0.0
 10
60.151637
 20
140.495848
 30
0.0
 10
60.907636
 20
140.656856
 30
0.0
 10
61.681637
 20
140.656856
 30
0.0
 10
62.253636
 20
146.103858
 30
0.0
 10
65.089636
 20
154.832847
 30
0.0
 10
69.678637
 20
162.780846
 30
0.0
 10
75.819635
 20
169.600847
 30
0.0
 10
83.244636
 20
174.995847
 30
0.0
 10
91.628636
 20
178.727846
 30
0.0
 10
100.605636
 20
180.636845
 30
0.0
 10
109.783636
 20
180.636845
 30
0.0
 10
118.760636
 20
178.727846
 30
0.0
 10
127.144636
 20
174.995847
 30
0.0
 10
134.569637
 20
169.600847
 30
0.0
 10
140.710635
 20
162.780846
 30
0.0
 10
145.299636
 20
154.832847
 30
0.0
 10
148.135636
 20
146.103858
 30
0.0
 10
148.707636
 20
140.656856
 30
0.0
 10
149.481636
 20
140.656856
 30
0.0
 10
150.237636
 20
140.495848
 30
0.0
 10
150.944636
 20
140.180860
 30
0.0
 10
151.570636
 20
139.726849
 30
0.0
 10
152.087636
 20
139.151850
 30
0.0
 10
152.474636
 20
138.481854
 30
0.0
 10
152.713636
 20
137.745847
 30
0.0
 10
152.794637
 20
136.976848
 30
0.0
 10
152.713636
 20
136.207848
 30
0.0
 10
152.474636
 20
135.471841
 30
0.0
 10
152.087636
 20
134.801846
 30
0.0
 10
151.570636
 20
134.226846
 30
0.0
 10
150.944636
 20
133.772835
 30
0.0
 10
150.237636
 20
133.457847
 30
0.0
 10
149.481636
 20
133.296839
 30
0.0
 10
148.707636
 20
133.296839
 30
0.0
 10
148.135636
 20
127.849837
 30
0.0
 10
145.299636
 20
119.120845
 30
0.0
 10
140.710635
 20
111.172846
 30
0.0
 10
134.569637
 20
104.352834
 30
0.0
 10
127.144636
 20
98.957845
 30
0.0
 10
118.760636
 20
95.225852
 30
0.0
 10
109.783636
 20
93.316844
 30
0.0
 10
100.605636
 20
93.316844
 30
0.0
 10
91.628636
 20
95.225852
 30
0.0
 10
83.244636
 20
98.957845
 30
0.0
 10
75.819635
 20
104.352834
 30
0.0
 10
69.678637
 20
111.172846
 30
0.0
 10
65.089636
 20
119.120845
 30
0.0
 10
62.253636
 20
127.849837
 30
0.0
 10
61.681637
 20
133.296839
 30
0.0
 10
60.907636
 20
133.296839
 30
0.0
 10
60.151637
 20
133.457847
 30
0.0
 10
59.444636
 20
133.772835
 30
0.0
 10
58.818636
 20
134.226846
 30
0.0
 10
58.301636
 20
134.801846
 30
0.0
 10
57.914636
 20
135.471841
 30
0.0
 10
57.675636
 20
136.207848
 30
0.0
 10
57.594635
 20
136.976848
 30
0.0
  0
LWPOLYLINE
  5
107
100
AcDbEntity
  8
Layer_1
 62
7
100
AcDbPolyline
 90
31
 70
0
 10
84.594636
 20
56.976838
 30
0.0
 10
84.632636
 20
57.340848
 30
0.0
 10
84.745636
 20
57.688857
 30
0.0
 10
84.928636
 20
58.005849
 30
0.0
 10
85.173636
 20
58.277854
 30
0.0
 10
85.469636
 20
58.492851
 30
0.0
 10
85.803636
 20
58.640849
 30
0.0
 10
86.161636
 20
58.716851
 30
0.0
 10
86.527636
 20
58.716851
 30
0.0
 10
86.885636
 20
58.640849
 30
0.0
 10
87.219636
 20
58.492851
 30
0.0
 10
87.515636
 20
58.277854
 30
0.0
 10
87.760636
 20
58.005849
 30
0.0
 10
87.943636
 20
57.688857
 30
0.0
 10
88.056636
 20
57.340848
 30
0.0
 10
88.094636
 20
56.976838
 30
0.0
 10
88.056636
 20
56.612856
 30
0.0
 10
87.943636
 20
56.264848
 30
0.0
 10
87.760636
 20
55.947856
 30
0.0
 10
87.515636
 20
55.675850
 30
0.0
 10
87.219636
 20
55.460853
 30
0.0
 10
86.885636
 20
55.312856
 30
0.0
 10
86.527636
 20
55.236854
 30
0.0
 10
86.161636
 20
55.236854
 30
0.0
 10
85.803636
 20
55.312856
 30
0.0
 10
85.469636
 20
55.460853
 30
0.0
 10
85.173636
 20
55.675850
 30
0.0
 10
84.928636
 20
55.947856
 30
0.0
 10
84.745636
 20
56.264848
 30
0.0
 10
84.632636
 20
56.612856
 30
0.0
 10
84.594636
 20
56.976838
 30
0.0
  0
LWPOLYLINE
  5
108
100
AcDbEntity
  8
Layer_1
 62
7
100
AcDbPolyline
 90
31
 70
0
 10
84.594636
 20
216.976846
 30
0.0
 10
84.632636
 20
217.340847
 30
0.0
 10
84.745636
 20
217.688847
 30
0.0
 10
84.928636
 20
218.005848
 30
0.0
 10
85.173636
 20
218.277848
 30
0.0
 10
85.469636
 20
218.492847
 30
0.0
 10
85.803636
 20
218.640848
 30
0.0
 10
86.161636
 20
218.716847
 30
0.0
 10
86.527636
 20
218.716847
 30
0.0
 10
86.885636
 20
218.640848
 30
0.0
 10
87.219636
 20
218.492847
 30
0.0
 10
87.515636
 20
218.277848
 30
0.0
 10
87.760636
 20
218.005848
 30
0.0
 10
87.943636
 20
217.688847
 30
0.0
 10
88.056636
 20
217.340847
 30
0.0
 10
88.094636
 20
216.976846
 30
0.0
 10
88.056636
 20
216.612847
 30
0.0
 10
87.943636
 20
216.264847
 30
0.0
 10
87.760636
 20
215.947846
 30
0.0
 10
87.515636
 20
215.675846
 30
0.0
 10
87.219636
 20
215.460847
 30
0.0
 10
86.885636
 20
215.312846
 30
0.0
 10
86.527636
 20
215.236847
 30
0.0
 10
86.161636
 20
215.236847
 30
0.0
 10
85.803636
 20
215.312846
 30
0.0
 10
85.469636
 20
215.460847
 30
0.0
 10
85.173636
 20
215.675846
 30
0.0
 10
84.928636
 20
215.947846
 30
0.0
 10
84.745636
 20
216.264847
 30
0.0
 10
84.632636
 20
216.612847
 30
0.0
 10
84.594636
 20
216.976846
 30
0.0
  0
LWPOLYLINE
  5
109
100
AcDbEntity
  8
Layer_1
 62
7
100
AcDbPolyline
 90
31
 70
0
 10
92.994636
 20
56.976838
 30
0.0
 10
93.261636
 20
59.513847
 30
0.0
 10
94.049636
 20
61.938841
 30
0.0
 10
95.324636
 20
64.147851
 30
0.0
 10
97.031636
 20
66.042832
 30
0.0
 10
99.094636
 20
67.542843
 30
0.0
 10
101.424636
 20
68.579840
 30
0.0
 10
103.919636
 20
69.109854
 30
0.0
 10
106.469636
 20
69.109854
 30
0.0
 10
108.964636
 20
68.579840
 30
0.0
 10
111.294636
 20
67.542843
 30
0.0
 10
113.357636
 20
66.042832
 30
0.0
 10
115.064636
 20
64.147851
 30
0.0
 10
116.339636
 20
61.938841
 30
0.0
 10
117.127636
 20
59.513847
 30
0.0
 10
117.394636
 20
56.976838
 30
0.0
 10
117.127636
 20
54.439858
 30
0.0
 10
116.339636
 20
52.014835
 30
0.0
 10
115.064636
 20
49.805854
 30
0.0
 10
113.357636
 20
47.910844
 30
0.0
 10
111.294636
 20
46.410833
 30
0.0
 10
108.964636
 20
45.373836
 30
0.0
 10
106.469636
 20
44.843851
 30
0.0
 10
103.919636
 20
44.843851
 30
0.0
 10
101.424636
 20
45.373836
 30
0.0
 10
99.094636
 20
46.410833
 30
0.0
 10
97.031636
 20
47.910844
 30
0.0
 10
95.324636
 20
49.805854
 30
0.0
 10
94.049636
 20
52.014835
 30
0.0
 10
93.261636
 20
54.439858
 30
0.0
 10
92.994636
 20
56.976838
 30
0.0
  0
LWPOLYLINE
  5
10a
100
AcDbEntity
  8
Layer_1
 62
7
100
AcDbPolyline
 90
31
 70
0
 10
92.994636
 20
216.976846
 30
0.0
 10
93.261636
 20
219.513846
 30
0.0
 10
94.049636
 20
221.938846
 30
0.0
 10
95.324636
 20
224.147847
 30
0.0
 10
97.031636
 20
226.042845
 30
0.0
 10
99.094636
 20
227.542845
 30
0.0
 10
101.424636
 20
228.579845
 30
0.0
 10
103.919636
 20
229.109847
 30
0.0
 10
106.469636
 20
229.109847
 30
0.0
 10
108.964636
 20
228.579845
 30
0.0
 10
111.294636
 20
227.542845
 30
0.0
 10
113.357636
 20
226.042845
 30
0.0
 10
115.064636
 20
224.147847
 30
0.0
 10
116.339636
 20
221.938846
 30
0.0
 10
117.127636
 20
219.513846
 30
0.0
 10
117.394636
 20
216.976846
 30
0.0
 10
117.127636
 20
214.439846
 30
0.0
 10
116.339636
 20
212.014846
 30
0.0
 10
115.064636
 20
209.805847
 30
0.0
 10
113.357636
 20
207.910846
 30
0.0
 10
111.294636
 20
206.410846
 30
0.0
 10
108.964636
 20
205.373846
 30
0.0
 10
106.469636
 20
204.843847
 30
0.0
 10
103.919636
 20
204.843847
 30
0.0
 10
101.424636
 20
205.373846
 30
0.0
 10
99.094636
 20
206.410846
 30
0.0
 10
97.031636
 20
207.910846
 30
0.0
 10
95.324636
 20
209.805847
 30
0.0
 10
94.049636
 20
212.014846
 30
0.0
 10
93.261636
 20
214.439846
 30
0.0
 10
92.994636
 20
216.976846
 30
0.0
  0
LWPOLYLINE
  5
10b
100
AcDbEntity
  8
Layer_1
 62
7
100
AcDbPolyline
 90
31
 70
0
 10
122.294636
 20
56.976838
 30
0.0
 10
122.332636
 20
57.340848
 30
0.0
 10
122.445636
 20
57.688857
 30
0.0
 10
122.628636
 20
58.005849
 30
0.0
 10
122.873636
 20
58.277854
 30
0.0
 10
123.169636
 20
58.492851
 30
0.0
 10
123.503636
 20
58.640849
 30
0.0
 10
123.861636
 20
58.716851
 30
0.0
 10
124.227636
 20
58.716851
 30
0.0
 10
124.585636
 20
58.640849
 30
0.0
 10
124.919636
 20
58.492851
 30
0.0
 10
125.215636
 20
58.277854
 30
0.0
 10
125.460636
 20
58.005849
 30
0.0
 10
125.643636
 20
57.688857
 30
0.0
 10
125.756636
 20
57.340848
 30
0.0
 10
125.794636
 20
56.976838
 30
0.0
 10
125.756636
 20
56.612856
 30
0.0
 10
125.643636
 20
56.264848
 30
0.0
 10
125.460636
 20
55.947856
 30
0.0
 10
125.215636
 20
55.675850
 30
0.0
 10
124.919636
 20
55.460853
 30
0.0
 10
124.585636
 20
55.312856
 30
0.0
 10
124.227636
 20
55.236854
 30
0.0
 10
123.861636
 20
55.236854
 30
0.0
 10
123.503636
 20
55.312856
 30
0.0
 10
123.169636
 20
55.460853
 30
0.0
 10
122.873636
 20
55.675850
 30
0.0
 10
122.628636
 20
55.947856
 30
0.0
 10
122.445636
 20
56.264848
 30
0.0
 10
122.332636
 20
56.612856
 30
0.0
 10
122.294636
 20
56.976838
 30
0.0
  0
LWPOLYLINE
  5
10c
100
AcDbEntity
  8
Layer_1
 62
7
100
AcDbPolyline
 90
31
 70
0
 10
122.294636
 20
216.976846
 30
0.0
 10
122.332636
 20
217.340847
 30
0.0
 10
122.445636
 20
217.688847
 30
0.0
 10
122.628636
 20
218.005848
 30
0.0
 10
122.873636
 20
218.277848
 30
0.0
 10
123.169636
 20
218.492847
 30
0.0
 10
123.503636
 20
218.640848
 30
0.0
 10
123.861636
 20
218.716847
 30
0.0
 10
124.227636
 20
218.716847
 30
0.0
 10
124.585636
 20
218.640848
 30
0.0
 10
124.919636
 20
218.492847
 30
0.0
 10
125.215636
 20
218.277848
 30
0.0
 10
125.460636
 20
218.005848
 30
0.0
 10
125.643636
 20
217.688847
 30
0.0
 10
125.756636
 20
217.340847
 30
0.0
 10
125.794636
 20
216.976846
 30
0.0
 10
125.756636
 20
216.612847
 30
0.0
 10
125.643636
 20
216.264847
 30
0.0
 10
125.460636
 20
215.947846
 30
0.0
 10
125.215636
 20
215.675846
 30
0.0
 10
124.919636
 20
215.460847
 30
0.0
 10
124.585636
 20
215.312846
 30
0.0
 10
124.227636
 20
215.236847
 30
0.0
 10
123.861636
 20
215.236847
 30
0.0
 10
123.503636
 20
215.312846
 30
0.0
 10
123.169636
 20
215.460847
 30
0.0
 10
122.873636
 20
215.675846
 30
0.0
 10
122.628636
 20
215.947846
 30
0.0
 10
122.445636
 20
216.264847
 30
0.0
 10
122.332636
 20
216.612847
 30
0.0
 10
122.294636
 20
216.976846
 30
0.0
  0
LWPOLYLINE
  5
10d
100
AcDbEntity
  8
Layer_1
 62
7
100
AcDbPolyline
 90
31
 70
0
 10
164.594636
 20
136.976848
 30
0.0
 10
164.632637
 20
137.340858
 30
0.0
 10
164.745636
 20
137.688838
 30
0.0
 10
164.928637
 20
138.005858
 30
0.0
 10
165.173637
 20
138.277836
 30
0.0
 10
165.469635
 20
138.492832
 30
0.0
 10
165.803636
 20
138.640858
 30
0.0
 10
166.161635
 20
138.716832
 30
0.0
 10
166.527635
 20
138.716832
 30
0.0
 10
166.885637
 20
138.640858
 30
0.0
 10
167.219636
 20
138.492832
 30
0.0
 10
167.515636
 20
138.277836
 30
0.0
 10
167.760636
 20
138.005858
 30
0.0
 10
167.943637
 20
137.688838
 30
0.0
 10
168.056636
 20
137.340858
 30
0.0
 10
168.094637
 20
136.976848
 30
0.0
 10
168.056636
 20
136.612837
 30
0.0
 10
167.943637
 20
136.264857
 30
0.0
 10
167.760636
 20
135.947837
 30
0.0
 10
167.515636
 20
135.675860
 30
0.0
 10
167.219636
 20
135.460834
 30
0.0
 10
166.885637
 20
135.312837
 30
0.0
 10
166.527635
 20
135.236835
 30
0.0
 10
166.161635
 20
135.236835
 30
0.0
 10
165.803636
 20
135.312837
 30
0.0
 10
165.469635
 20
135.460834
 30
0.0
 10
165.173637
 20
135.675860
 30
0.0
 10
164.928637
 20
135.947837
 30
0.0
 10
164.745636
 20
136.264857
 30
0.0
 10
164.632637
 20
136.612837
 30
0.0
 10
164.594636
 20
136.976848
 30
0.0
  0
LWPOLYLINE
  5
10e
100
AcDbEntity
  8
Layer_1
 62
7
100
AcDbPolyline
 90
31
 70
0
 10
172.994636
 20
136.976848
 30
0.0
 10
173.261635
 20
139.513856
 30
0.0
 10
174.049636
 20
141.938850
 30
0.0
 10
175.324637
 20
144.147832
 30
0.0
 10
177.031636
 20
146.042841
 30
0.0
 10
179.094635
 20
147.542852
 30
0.0
 10
181.424636
 20
148.579850
 30
0.0
 10
183.919636
 20
149.109835
 30
0.0
 10
186.469635
 20
149.109835
 30
0.0
 10
188.964635
 20
148.579850
 30
0.0
 10
191.294636
 20
147.542852
 30
0.0
 10
193.357635
 20
146.042841
 30
0.0
 10
195.064637
 20
144.147832
 30
0.0
 10
196.339635
 20
141.938850
 30
0.0
 10
197.127636
 20
139.513856
 30
0.0
 10
197.394635
 20
136.976848
 30
0.0
 10
197.127636
 20
134.439839
 30
0.0
 10
196.339635
 20
132.014845
 30
0.0
 10
195.064637
 20
129.805835
 30
0.0
 10
193.357635
 20
127.910854
 30
0.0
 10
191.294636
 20
126.410843
 30
0.0
 10
188.964635
 20
125.373845
 30
0.0
 10
186.469635
 20
124.843832
 30
0.0
 10
183.919636
 20
124.843832
 30
0.0
 10
181.424636
 20
125.373845
 30
0.0
 10
179.094635
 20
126.410843
 30
0.0
 10
177.031636
 20
127.910854
 30
0.0
 10
175.324637
 20
129.805835
 30
0.0
 10
174.049636
 20
132.014845
 30
0.0
 10
173.261635
 20
134.439839
 30
0.0
 10
172.994636
 20
136.976848
 30
0.0
  0
LWPOLYLINE
  5
10f
100
AcDbEntity
  8
Layer_1
 62
7
100
AcDbPolyline
 90
31
 70
0
 10
202.294637
 20
136.976848
 30
0.0
 10
202.332635
 20
137.340858
 30
0.0
 10
202.445637
 20
137.688838
 30
0.0
 10
202.628635
 20
138.005858
 30
0.0
 10
202.873635
 20
138.277836
 30
0.0
 10
203.169636
 20
138.492832
 30
0.0
 10
203.503637
 20
138.640858
 30
0.0
 10
203.861636
 20
138.716832
 30
0.0
 10
204.227636
 20
138.716832
 30
0.0
 10
204.585638
 20
138.640858
 30
0.0
 10
204.919636
 20
138.492832
 30
0.0
 10
205.215637
 20
138.277836
 30
0.0
 10
205.460637
 20
138.005858
 30
0.0
 10
205.643635
 20
137.688838
 30
0.0
 10
205.756637
 20
137.340858
 30
0.0
 10
205.794635
 20
136.976848
 30
0.0
 10
205.756637
 20
136.612837
 30
0.0
 10
205.643635
 20
136.264857
 30
0.0
 10
205.460637
 20
135.947837
 30
0.0
 10
205.215637
 20
135.675860
 30
0.0
 10
204.919636
 20
135.460834
 30
0.0
 10
204.585638
 20
135.312837
 30
0.0
 10
204.227636
 20
135.236835
 30
0.0
 10
203.861636
 20
135.236835
 30
0.0
 10
203.503637
 20
135.312837
 30
0.0
 10
203.169636
 20
135.460834
 30
0.0
 10
202.873635
 20
135.675860
 30
0.0
 10
202.628635
 20
135.947837
 30
0.0
 10
202.445637
 20
136.264857
 30
0.0
 10
202.332635
 20
136.612837
 30
0.0
 10
202.294637
 20
136.976848
 30
0.0
  0
LWPOLYLINE
  5
110
100
AcDbEntity
  8
Layer_1
 62
7
100
AcDbPolyline
 90
31
 70
0
 10
206.565635
 20
33.905849
 30
0.0
 10
206.602635
 20
34.258852
 30
0.0
 10
206.712637
 20
34.596842
 30
0.0
 10
206.890637
 20
34.904859
 30
0.0
 10
207.127636
 20
35.168850
 30
0.0
 10
207.415635
 20
35.377835
 30
0.0
 10
207.740637
 20
35.522841
 30
0.0
 10
208.087637
 20
35.596840
 30
0.0
 10
208.443635
 20
35.596840
 30
0.0
 10
208.790636
 20
35.522841
 30
0.0
 10
209.115637
 20
35.377835
 30
0.0
 10
209.403637
 20
35.168850
 30
0.0
 10
209.640636
 20
34.904859
 30
0.0
 10
209.818636
 20
34.596842
 30
0.0
 10
209.928635
 20
34.258852
 30
0.0
 10
209.965637
 20
33.905849
 30
0.0
 10
209.928635
 20
33.552845
 30
0.0
 10
209.818636
 20
33.214856
 30
0.0
 10
209.640636
 20
32.906839
 30
0.0
 10
209.403637
 20
32.642848
 30
0.0
 10
209.115637
 20
32.433834
 30
0.0
 10
208.790636
 20
32.288857
 30
0.0
 10
208.443635
 20
32.214858
 30
0.0
 10
208.087637
 20
32.214858
 30
0.0
 10
207.740637
 20
32.288857
 30
0.0
 10
207.415635
 20
32.433834
 30
0.0
 10
207.127636
 20
32.642848
 30
0.0
 10
206.890637
 20
32.906839
 30
0.0
 10
206.712637
 20
33.214856
 30
0.0
 10
206.602635
 20
33.552845
 30
0.0
 10
206.565635
 20
33.905849
 30
0.0
  0
LWPOLYLINE
  5
111
100
AcDbEntity
  8
Layer_1
 62
7
100
AcDbPolyline
 90
31
 70
0
 10
206.565635
 20
240.047846
 30
0.0
 10
206.602635
 20
240.400847
 30
0.0
 10
206.712637
 20
240.738845
 30
0.0
 10
206.890637
 20
241.046845
 30
0.0
 10
207.127636
 20
241.310847
 30
0.0
 10
207.415635
 20
241.519847
 30
0.0
 10
207.740637
 20
241.664847
 30
0.0
 10
208.087637
 20
241.738846
 30
0.0
 10
208.443635
 20
241.738846
 30
0.0
 10
208.790636
 20
241.664847
 30
0.0
 10
209.115637
 20
241.519847
 30
0.0
 10
209.403637
 20
241.310847
 30
0.0
 10
209.640636
 20
241.046845
 30
0.0
 10
209.818636
 20
240.738845
 30
0.0
 10
209.928635
 20
240.400847
 30
0.0
 10
209.965637
 20
240.047846
 30
0.0
 10
209.928635
 20
239.694846
 30
0.0
 10
209.818636
 20
239.356845
 30
0.0
 10
209.640636
 20
239.048847
 30
0.0
 10
209.403637
 20
238.784845
 30
0.0
 10
209.115637
 20
238.575846
 30
0.0
 10
208.790636
 20
238.430846
 30
0.0
 10
208.443635
 20
238.356847
 30
0.0
 10
208.087637
 20
238.356847
 30
0.0
 10
207.740637
 20
238.430846
 30
0.0
 10
207.415635
 20
238.575846
 30
0.0
 10
207.127636
 20
238.784845
 30
0.0
 10
206.890637
 20
239.048847
 30
0.0
 10
206.712637
 20
239.356845
 30
0.0
 10
206.602635
 20
239.694846
 30
0.0
 10
206.565635
 20
240.047846
 30
0.0
  0
ENDSEC
  0
SECTION
  2
OBJECTS
  0
DICTIONARY
  5
C
330
0
100
AcDbDictionary
  3
ACAD_GROUP
350
D
  3
ACAD_MLINESTYLE
350
17
  0
DICTIONARY
  5
D
330
C
100
AcDbDictionary
  0
DICTIONARY
  5
1A
330
C
100
AcDbDictionary
  0
DICTIONARY
  5
17
330
C
100
AcDbDictionary
  3
STANDARD
350
18
  0
DICTIONARY
  5
19
330
C
100
AcDbDictionary
  0
ENDSEC
  0
EOF
