  0
SECTION
  2
HEADER
  9
$ACADVER
  1
AC1014
  9
$HANDSEED
  5
FFFF
  9
$MEASUREMENT
 70
     1
  0
ENDSEC
  0
SECTION
  2
TABLES
  0
TABLE
  2
VPORT
  5
8
330
0
100
AcDbSymbolTable
 70
     4
  0
VPORT
  5
2E
330
8
100
AcDbSymbolTableRecord
100
AcDbViewportTableRecord
  2
*ACTIVE
 70
     0
 10
0.0
 20
0.0
 11
1.0
 21
1.0
 12
210.0
 22
148.5
 13
0.0
 23
0.0
 14
10.0
 24
10.0
 15
10.0
 25
10.0
 16
0.0
 26
0.0
 36
1.0
 17
0.0
 27
0.0
 37
0.0
 40
341.0
 41
1.24
 42
50.0
 43
0.0
 44
0.0
 50
0.0
 51
0.0
 71
     0
 72
   100
 73
     1
 74
     3
 75
     0
 76
     0
 77
     0
 78
     0
  0
ENDTAB
  0
TABLE
  2
LTYPE
  5
5
330
0
100
AcDbSymbolTable
 70
     1
  0
LTYPE
  5
14
330
5
100
AcDbSymbolTableRecord
100
AcDbLinetypeTableRecord
  2
BYBLOCK
 70
     0
  3

 72
    65
 73
     0
 40
0.0
  0
LTYPE
  5
15
330
5
100
AcDbSymbolTableRecord
100
AcDbLinetypeTableRecord
  2
BYLAYER
 70
     0
  3

 72
    65
 73
     0
 40
0.0
  0
LTYPE
  5
16
330
5
100
AcDbSymbolTableRecord
100
AcDbLinetypeTableRecord
  2
CONTINUOUS
 70
     0
  3
Solid line
 72
    65
 73
     0
 40
0.0
  0
ENDTAB
  0
TABLE
  2
LAYER
  5
2
100
AcDbSymbolTable
 70
2
  0
LAYER
  5
50
100
AcDbSymbolTableRecord
100
AcDbLayerTableRecord
  2
0
 70
0
  6
CONTINUOUS
  0
LAYER
  5
51
100
AcDbSymbolTableRecord
100
AcDbLayerTableRecord
  2
Layer_1
 70
0
  6
CONTINUOUS
  0
ENDTAB
  0
TABLE
  2
STYLE
  5
3
330
0
100
AcDbSymbolTable
 70
     1
  0
STYLE
  5
11
330
3
100
AcDbSymbolTableRecord
100
AcDbTextStyleTableRecord
  2
STANDARD
 70
     0
 40
0.0
 41
1.0
 50
0.0
 71
     0
 42
2.5
  3
txt
  4

  0
ENDTAB
  0
TABLE
  2
VIEW
  5
6
330
0
100
AcDbSymbolTable
 70
     0
  0
ENDTAB
  0
TABLE
  2
UCS
  5
7
330
0
100
AcDbSymbolTable
 70
     0
  0
ENDTAB
  0
TABLE
  2
APPID
  5
9
330
0
100
AcDbSymbolTable
 70
     2
  0
APPID
  5
12
330
9
100
AcDbSymbolTableRecord
100
AcDbRegAppTableRecord
  2
ACAD
 70
     0
  0
ENDTAB
  0
TABLE
  2
DIMSTYLE
  5
A
330
0
100
AcDbSymbolTable
 70
     1
  0
DIMSTYLE
105
27
330
A
100
AcDbSymbolTableRecord
100
AcDbDimStyleTableRecord
  2
ISO-25
 70
     0
  3

  4

  5

  6

  7

 40
1.0
 41
2.5
 42
0.625
 43
3.75
 44
1.25
 45
0.0
 46
0.0
 47
0.0
 48
0.0
140
2.5
141
2.5
142
0.0
143
0.03937007874016
144
1.0
145
0.0
146
1.0
147
0.625
 71
     0
 72
     0
 73
     0
 74
     0
 75
     0
 76
     0
 77
     1
 78
     8
170
     0
171
     3
172
     1
173
     0
174
     0
175
     0
176
     0
177
     0
178
     0
270
     2
271
     2
272
     2
273
     2
274
     3
340
11
275
     0
280
     0
281
     0
282
     0
283
     0
284
     8
285
     0
286
     0
287
     3
288
     0
  0
ENDTAB
  0
TABLE
  2
BLOCK_RECORD
  5
1
330
0
100
AcDbSymbolTable
 70
     1
  0
BLOCK_RECORD
  5
1F
330
1
100
AcDbSymbolTableRecord
100
AcDbBlockTableRecord
  2
*MODEL_SPACE
  0
BLOCK_RECORD
  5
1B
330
1
100
AcDbSymbolTableRecord
100
AcDbBlockTableRecord
  2
*PAPER_SPACE
  0
ENDTAB
  0
ENDSEC
  0
SECTION
  2
BLOCKS
  0
BLOCK
  5
20
330
1F
100
AcDbEntity
  8
0
100
AcDbBlockBegin
  2
*MODEL_SPACE
 70
     0
 10
0.0
 20
0.0
 30
0.0
  3
*MODEL_SPACE
  1

  0
ENDBLK
  5
21
330
1F
100
AcDbEntity
  8
0
100
AcDbBlockEnd
  0
BLOCK
  5
1C
330
1B
100
AcDbEntity
 67
     1
  8
0
100
AcDbBlockBegin
  2
*PAPER_SPACE
  1

  0
ENDBLK
  5
1D
330
1B
100
AcDbEntity
 67
     1
  8
0
100
AcDbBlockEnd
  0
ENDSEC
  0
SECTION
  2
ENTITIES
  0
LWPOLYLINE
  5
100
100
AcDbEntity
  8
Layer_1
 62
7
100
AcDbPolyline
 90
33
 70
0
 10
-12.277347
 20
43.684558
 30
0.0
 10
-12.277347
 20
249.826556
 30
0.0
 10
-12.058345
 20
251.905557
 30
0.0
 10
-11.412344
 20
253.893556
 30
0.0
 10
-10.367346
 20
255.704556
 30
0.0
 10
-8.968345
 20
257.257554
 30
0.0
 10
-7.277346
 20
258.486556
 30
0.0
 10
-5.367345
 20
259.337555
 30
0.0
 10
-3.322345
 20
259.771556
 30
0.0
 10
204.909654
 20
259.771556
 30
0.0
 10
206.954653
 20
259.337555
 30
0.0
 10
208.864654
 20
258.486556
 30
0.0
 10
210.555654
 20
257.257554
 30
0.0
 10
211.954655
 20
255.704556
 30
0.0
 10
212.999653
 20
253.893556
 30
0.0
 10
213.645654
 20
251.905557
 30
0.0
 10
213.864656
 20
249.826556
 30
0.0
 10
213.864656
 20
43.684558
 30
0.0
 10
213.645654
 20
41.605568
 30
0.0
 10
212.999653
 20
39.617567
 30
0.0
 10
211.954655
 20
37.806547
 30
0.0
 10
210.555654
 20
36.253562
 30
0.0
 10
208.864654
 20
35.024569
 30
0.0
 10
206.954653
 20
34.173556
 30
0.0
 10
204.909654
 20
33.739555
 30
0.0
 10
-3.322345
 20
33.739555
 30
0.0
 10
-5.367345
 20
34.173556
 30
0.0
 10
-7.277346
 20
35.024569
 30
0.0
 10
-8.968345
 20
36.253562
 30
0.0
 10
-10.367346
 20
37.806547
 30
0.0
 10
-11.412344
 20
39.617567
 30
0.0
 10
-12.058345
 20
41.605568
 30
0.0
 10
-12.277347
 20
43.684558
 30
0.0
  0
LWPOLYLINE
  5
101
100
AcDbEntity
  8
Layer_1
 62
7
100
AcDbPolyline
 90
31
 70
0
 10
-3.977346
 20
43.684558
 30
0.0
 10
-3.940344
 20
44.037562
 30
0.0
 10
-3.830345
 20
44.375551
 30
0.0
 10
-3.652345
 20
44.683568
 30
0.0
 10
-3.415346
 20
44.947559
 30
0.0
 10
-3.127347
 20
45.156545
 30
0.0
 10
-2.802345
 20
45.301550
 30
0.0
 10
-2.455345
 20
45.375549
 30
0.0
 10
-2.099347
 20
45.375549
 30
0.0
 10
-1.752346
 20
45.301550
 30
0.0
 10
-1.427345
 20
45.156545
 30
0.0
 10
-1.139345
 20
44.947559
 30
0.0
 10
-0.902346
 20
44.683568
 30
0.0
 10
-0.724346
 20
44.375551
 30
0.0
 10
-0.614344
 20
44.037562
 30
0.0
 10
-0.577345
 20
43.684558
 30
0.0
 10
-0.614344
 20
43.331555
 30
0.0
 10
-0.724346
 20
42.993565
 30
0.0
 10
-0.902346
 20
42.685548
 30
0.0
 10
-1.139345
 20
42.421557
 30
0.0
 10
-1.427345
 20
42.212544
 30
0.0
 10
-1.752346
 20
42.067566
 30
0.0
 10
-2.099347
 20
41.993567
 30
0.0
 10
-2.455345
 20
41.993567
 30
0.0
 10
-2.802345
 20
42.067566
 30
0.0
 10
-3.127347
 20
42.212544
 30
0.0
 10
-3.415346
 20
42.421557
 30
0.0
 10
-3.652345
 20
42.685548
 30
0.0
 10
-3.830345
 20
42.993565
 30
0.0
 10
-3.940344
 20
43.331555
 30
0.0
 10
-3.977346
 20
43.684558
 30
0.0
  0
LWPOLYLINE
  5
102
100
AcDbEntity
  8
Layer_1
 62
7
100
AcDbPolyline
 90
31
 70
0
 10
-3.977346
 20
249.826556
 30
0.0
 10
-3.940344
 20
250.179556
 30
0.0
 10
-3.830345
 20
250.517554
 30
0.0
 10
-3.652345
 20
250.825554
 30
0.0
 10
-3.415346
 20
251.089556
 30
0.0
 10
-3.127347
 20
251.298556
 30
0.0
 10
-2.802345
 20
251.443556
 30
0.0
 10
-2.455345
 20
251.517555
 30
0.0
 10
-2.099347
 20
251.517555
 30
0.0
 10
-1.752346
 20
251.443556
 30
0.0
 10
-1.427345
 20
251.298556
 30
0.0
 10
-1.139345
 20
251.089556
 30
0.0
 10
-0.902346
 20
250.825554
 30
0.0
 10
-0.724346
 20
250.517554
 30
0.0
 10
-0.614344
 20
250.179556
 30
0.0
 10
-0.577345
 20
249.826556
 30
0.0
 10
-0.614344
 20
249.473555
 30
0.0
 10
-0.724346
 20
249.135554
 30
0.0
 10
-0.902346
 20
248.827557
 30
0.0
 10
-1.139345
 20
248.563555
 30
0.0
 10
-1.427345
 20
248.354555
 30
0.0
 10
-1.752346
 20
248.209555
 30
0.0
 10
-2.099347
 20
248.135556
 30
0.0
 10
-2.455345
 20
248.135556
 30
0.0
 10
-2.802345
 20
248.209555
 30
0.0
 10
-3.127347
 20
248.354555
 30
0.0
 10
-3.415346
 20
248.563555
 30
0.0
 10
-3.652345
 20
248.827557
 30
0.0
 10
-3.830345
 20
249.135554
 30
0.0
 10
-3.940344
 20
249.473555
 30
0.0
 10
-3.977346
 20
249.826556
 30
0.0
  0
LWPOLYLINE
  5
103
100
AcDbEntity
  8
Layer_1
 62
7
100
AcDbPolyline
 90
5
 70
0
 10
-3.777347
 20
65.684542
 30
0.0
 10
-3.777347
 20
81.684567
 30
0.0
 10
-0.777344
 20
81.684567
 30
0.0
 10
-0.777344
 20
65.684542
 30
0.0
 10
-3.777347
 20
65.684542
 30
0.0
  0
LWPOLYLINE
  5
104
100
AcDbEntity
  8
Layer_1
 62
7
100
AcDbPolyline
 90
5
 70
0
 10
-3.777347
 20
111.353545
 30
0.0
 10
-3.777347
 20
127.353569
 30
0.0
 10
-0.777344
 20
127.353569
 30
0.0
 10
-0.777344
 20
111.353545
 30
0.0
 10
-3.777347
 20
111.353545
 30
0.0
  0
LWPOLYLINE
  5
105
100
AcDbEntity
  8
Layer_1
 62
7
100
AcDbPolyline
 90
5
 70
0
 10
-3.777347
 20
166.157556
 30
0.0
 10
-3.777347
 20
182.157555
 30
0.0
 10
-0.777344
 20
182.157555
 30
0.0
 10
-0.777344
 20
166.157556
 30
0.0
 10
-3.777347
 20
166.157556
 30
0.0
  0
LWPOLYLINE
  5
106
100
AcDbEntity
  8
Layer_1
 62
7
100
AcDbPolyline
 90
5
 70
0
 10
-3.777347
 20
211.826555
 30
0.0
 10
-3.777347
 20
227.826554
 30
0.0
 10
-0.777344
 20
227.826554
 30
0.0
 10
-0.777344
 20
211.826555
 30
0.0
 10
-3.777347
 20
211.826555
 30
0.0
  0
LWPOLYLINE
  5
107
100
AcDbEntity
  8
Layer_1
 62
7
100
AcDbPolyline
 90
5
 70
0
 10
19.722654
 20
42.184547
 30
0.0
 10
19.722654
 20
45.184569
 30
0.0
 10
35.722656
 20
45.184569
 30
0.0
 10
35.722656
 20
42.184547
 30
0.0
 10
19.722654
 20
42.184547
 30
0.0
  0
LWPOLYLINE
  5
108
100
AcDbEntity
  8
Layer_1
 62
7
100
AcDbPolyline
 90
5
 70
0
 10
19.722654
 20
248.326556
 30
0.0
 10
19.722654
 20
251.326555
 30
0.0
 10
35.722656
 20
251.326555
 30
0.0
 10
35.722656
 20
248.326556
 30
0.0
 10
19.722654
 20
248.326556
 30
0.0
  0
LWPOLYLINE
  5
109
100
AcDbEntity
  8
Layer_1
 62
7
100
AcDbPolyline
 90
5
 70
0
 10
65.391654
 20
42.184547
 30
0.0
 10
65.391654
 20
45.184569
 30
0.0
 10
81.391654
 20
45.184569
 30
0.0
 10
81.391654
 20
42.184547
 30
0.0
 10
65.391654
 20
42.184547
 30
0.0
  0
LWPOLYLINE
  5
10a
100
AcDbEntity
  8
Layer_1
 62
7
100
AcDbPolyline
 90
5
 70
0
 10
65.391654
 20
248.326556
 30
0.0
 10
65.391654
 20
251.326555
 30
0.0
 10
81.391654
 20
251.326555
 30
0.0
 10
81.391654
 20
248.326556
 30
0.0
 10
65.391654
 20
248.326556
 30
0.0
  0
LWPOLYLINE
  5
10b
100
AcDbEntity
  8
Layer_1
 62
7
100
AcDbPolyline
 90
5
 70
0
 10
120.195654
 20
42.184547
 30
0.0
 10
120.195654
 20
45.184569
 30
0.0
 10
136.195655
 20
45.184569
 30
0.0
 10
136.195655
 20
42.184547
 30
0.0
 10
120.195654
 20
42.184547
 30
0.0
  0
LWPOLYLINE
  5
10c
100
AcDbEntity
  8
Layer_1
 62
7
100
AcDbPolyline
 90
5
 70
0
 10
120.195654
 20
248.326556
 30
0.0
 10
120.195654
 20
251.326555
 30
0.0
 10
136.195655
 20
251.326555
 30
0.0
 10
136.195655
 20
248.326556
 30
0.0
 10
120.195654
 20
248.326556
 30
0.0
  0
LWPOLYLINE
  5
10d
100
AcDbEntity
  8
Layer_1
 62
7
100
AcDbPolyline
 90
5
 70
0
 10
165.864653
 20
42.184547
 30
0.0
 10
165.864653
 20
45.184569
 30
0.0
 10
181.864655
 20
45.184569
 30
0.0
 10
181.864655
 20
42.184547
 30
0.0
 10
165.864653
 20
42.184547
 30
0.0
  0
LWPOLYLINE
  5
10e
100
AcDbEntity
  8
Layer_1
 62
7
100
AcDbPolyline
 90
5
 70
0
 10
165.864653
 20
248.326556
 30
0.0
 10
165.864653
 20
251.326555
 30
0.0
 10
181.864655
 20
251.326555
 30
0.0
 10
181.864655
 20
248.326556
 30
0.0
 10
165.864653
 20
248.326556
 30
0.0
  0
LWPOLYLINE
  5
10f
100
AcDbEntity
  8
Layer_1
 62
7
100
AcDbPolyline
 90
31
 70
0
 10
202.164654
 20
43.684558
 30
0.0
 10
202.201653
 20
44.037562
 30
0.0
 10
202.311655
 20
44.375551
 30
0.0
 10
202.489655
 20
44.683568
 30
0.0
 10
202.726654
 20
44.947559
 30
0.0
 10
203.014653
 20
45.156545
 30
0.0
 10
203.339655
 20
45.301550
 30
0.0
 10
203.686656
 20
45.375549
 30
0.0
 10
204.042653
 20
45.375549
 30
0.0
 10
204.389654
 20
45.301550
 30
0.0
 10
204.714656
 20
45.156545
 30
0.0
 10
205.002655
 20
44.947559
 30
0.0
 10
205.239654
 20
44.683568
 30
0.0
 10
205.417654
 20
44.375551
 30
0.0
 10
205.527653
 20
44.037562
 30
0.0
 10
205.564655
 20
43.684558
 30
0.0
 10
205.527653
 20
43.331555
 30
0.0
 10
205.417654
 20
42.993565
 30
0.0
 10
205.239654
 20
42.685548
 30
0.0
 10
205.002655
 20
42.421557
 30
0.0
 10
204.714656
 20
42.212544
 30
0.0
 10
204.389654
 20
42.067566
 30
0.0
 10
204.042653
 20
41.993567
 30
0.0
 10
203.686656
 20
41.993567
 30
0.0
 10
203.339655
 20
42.067566
 30
0.0
 10
203.014653
 20
42.212544
 30
0.0
 10
202.726654
 20
42.421557
 30
0.0
 10
202.489655
 20
42.685548
 30
0.0
 10
202.311655
 20
42.993565
 30
0.0
 10
202.201653
 20
43.331555
 30
0.0
 10
202.164654
 20
43.684558
 30
0.0
  0
LWPOLYLINE
  5
110
100
AcDbEntity
  8
Layer_1
 62
7
100
AcDbPolyline
 90
31
 70
0
 10
202.164654
 20
249.826556
 30
0.0
 10
202.201653
 20
250.179556
 30
0.0
 10
202.311655
 20
250.517554
 30
0.0
 10
202.489655
 20
250.825554
 30
0.0
 10
202.726654
 20
251.089556
 30
0.0
 10
203.014653
 20
251.298556
 30
0.0
 10
203.339655
 20
251.443556
 30
0.0
 10
203.686656
 20
251.517555
 30
0.0
 10
204.042653
 20
251.517555
 30
0.0
 10
204.389654
 20
251.443556
 30
0.0
 10
204.714656
 20
251.298556
 30
0.0
 10
205.002655
 20
251.089556
 30
0.0
 10
205.239654
 20
250.825554
 30
0.0
 10
205.417654
 20
250.517554
 30
0.0
 10
205.527653
 20
250.179556
 30
0.0
 10
205.564655
 20
249.826556
 30
0.0
 10
205.527653
 20
249.473555
 30
0.0
 10
205.417654
 20
249.135554
 30
0.0
 10
205.239654
 20
248.827557
 30
0.0
 10
205.002655
 20
248.563555
 30
0.0
 10
204.714656
 20
248.354555
 30
0.0
 10
204.389654
 20
248.209555
 30
0.0
 10
204.042653
 20
248.135556
 30
0.0
 10
203.686656
 20
248.135556
 30
0.0
 10
203.339655
 20
248.209555
 30
0.0
 10
203.014653
 20
248.354555
 30
0.0
 10
202.726654
 20
248.563555
 30
0.0
 10
202.489655
 20
248.827557
 30
0.0
 10
202.311655
 20
249.135554
 30
0.0
 10
202.201653
 20
249.473555
 30
0.0
 10
202.164654
 20
249.826556
 30
0.0
  0
LWPOLYLINE
  5
111
100
AcDbEntity
  8
Layer_1
 62
7
100
AcDbPolyline
 90
5
 70
0
 10
202.364653
 20
65.684542
 30
0.0
 10
202.364653
 20
81.684567
 30
0.0
 10
205.364656
 20
81.684567
 30
0.0
 10
205.364656
 20
65.684542
 30
0.0
 10
202.364653
 20
65.684542
 30
0.0
  0
LWPOLYLINE
  5
112
100
AcDbEntity
  8
Layer_1
 62
7
100
AcDbPolyline
 90
5
 70
0
 10
202.364653
 20
111.353545
 30
0.0
 10
202.364653
 20
127.353569
 30
0.0
 10
205.364656
 20
127.353569
 30
0.0
 10
205.364656
 20
111.353545
 30
0.0
 10
202.364653
 20
111.353545
 30
0.0
  0
LWPOLYLINE
  5
113
100
AcDbEntity
  8
Layer_1
 62
7
100
AcDbPolyline
 90
5
 70
0
 10
202.364653
 20
166.157556
 30
0.0
 10
202.364653
 20
182.157555
 30
0.0
 10
205.364656
 20
182.157555
 30
0.0
 10
205.364656
 20
166.157556
 30
0.0
 10
202.364653
 20
166.157556
 30
0.0
  0
LWPOLYLINE
  5
114
100
AcDbEntity
  8
Layer_1
 62
7
100
AcDbPolyline
 90
5
 70
0
 10
202.364653
 20
211.826555
 30
0.0
 10
202.364653
 20
227.826554
 30
0.0
 10
205.364656
 20
227.826554
 30
0.0
 10
205.364656
 20
211.826555
 30
0.0
 10
202.364653
 20
211.826555
 30
0.0
  0
ENDSEC
  0
SECTION
  2
OBJECTS
  0
DICTIONARY
  5
C
330
0
100
AcDbDictionary
  3
ACAD_GROUP
350
D
  3
ACAD_MLINESTYLE
350
17
  0
DICTIONARY
  5
D
330
C
100
AcDbDictionary
  0
DICTIONARY
  5
1A
330
C
100
AcDbDictionary
  0
DICTIONARY
  5
17
330
C
100
AcDbDictionary
  3
STANDARD
350
18
  0
DICTIONARY
  5
19
330
C
100
AcDbDictionary
  0
ENDSEC
  0
EOF
