  0
SECTION
  2
HEADER
  9
$ACADVER
  1
AC1014
  9
$HANDSEED
  5
FFFF
  9
$MEASUREMENT
 70
     1
  0
ENDSEC
  0
SECTION
  2
TABLES
  0
TABLE
  2
VPORT
  5
8
330
0
100
AcDbSymbolTable
 70
     4
  0
VPORT
  5
2E
330
8
100
AcDbSymbolTableRecord
100
AcDbViewportTableRecord
  2
*ACTIVE
 70
     0
 10
0.0
 20
0.0
 11
1.0
 21
1.0
 12
210.0
 22
148.5
 13
0.0
 23
0.0
 14
10.0
 24
10.0
 15
10.0
 25
10.0
 16
0.0
 26
0.0
 36
1.0
 17
0.0
 27
0.0
 37
0.0
 40
341.0
 41
1.24
 42
50.0
 43
0.0
 44
0.0
 50
0.0
 51
0.0
 71
     0
 72
   100
 73
     1
 74
     3
 75
     0
 76
     0
 77
     0
 78
     0
  0
ENDTAB
  0
TABLE
  2
LTYPE
  5
5
330
0
100
AcDbSymbolTable
 70
     1
  0
LTYPE
  5
14
330
5
100
AcDbSymbolTableRecord
100
AcDbLinetypeTableRecord
  2
BYBLOCK
 70
     0
  3

 72
    65
 73
     0
 40
0.0
  0
LTYPE
  5
15
330
5
100
AcDbSymbolTableRecord
100
AcDbLinetypeTableRecord
  2
BYLAYER
 70
     0
  3

 72
    65
 73
     0
 40
0.0
  0
LTYPE
  5
16
330
5
100
AcDbSymbolTableRecord
100
AcDbLinetypeTableRecord
  2
CONTINUOUS
 70
     0
  3
Solid line
 72
    65
 73
     0
 40
0.0
  0
ENDTAB
  0
TABLE
  2
LAYER
  5
2
100
AcDbSymbolTable
 70
2
  0
LAYER
  5
50
100
AcDbSymbolTableRecord
100
AcDbLayerTableRecord
  2
0
 70
0
  6
CONTINUOUS
  0
LAYER
  5
51
100
AcDbSymbolTableRecord
100
AcDbLayerTableRecord
  2
Layer_1
 70
0
  6
CONTINUOUS
  0
ENDTAB
  0
TABLE
  2
STYLE
  5
3
330
0
100
AcDbSymbolTable
 70
     1
  0
STYLE
  5
11
330
3
100
AcDbSymbolTableRecord
100
AcDbTextStyleTableRecord
  2
STANDARD
 70
     0
 40
0.0
 41
1.0
 50
0.0
 71
     0
 42
2.5
  3
txt
  4

  0
ENDTAB
  0
TABLE
  2
VIEW
  5
6
330
0
100
AcDbSymbolTable
 70
     0
  0
ENDTAB
  0
TABLE
  2
UCS
  5
7
330
0
100
AcDbSymbolTable
 70
     0
  0
ENDTAB
  0
TABLE
  2
APPID
  5
9
330
0
100
AcDbSymbolTable
 70
     2
  0
APPID
  5
12
330
9
100
AcDbSymbolTableRecord
100
AcDbRegAppTableRecord
  2
ACAD
 70
     0
  0
ENDTAB
  0
TABLE
  2
DIMSTYLE
  5
A
330
0
100
AcDbSymbolTable
 70
     1
  0
DIMSTYLE
105
27
330
A
100
AcDbSymbolTableRecord
100
AcDbDimStyleTableRecord
  2
ISO-25
 70
     0
  3

  4

  5

  6

  7

 40
1.0
 41
2.5
 42
0.625
 43
3.75
 44
1.25
 45
0.0
 46
0.0
 47
0.0
 48
0.0
140
2.5
141
2.5
142
0.0
143
0.03937007874016
144
1.0
145
0.0
146
1.0
147
0.625
 71
     0
 72
     0
 73
     0
 74
     0
 75
     0
 76
     0
 77
     1
 78
     8
170
     0
171
     3
172
     1
173
     0
174
     0
175
     0
176
     0
177
     0
178
     0
270
     2
271
     2
272
     2
273
     2
274
     3
340
11
275
     0
280
     0
281
     0
282
     0
283
     0
284
     8
285
     0
286
     0
287
     3
288
     0
  0
ENDTAB
  0
TABLE
  2
BLOCK_RECORD
  5
1
330
0
100
AcDbSymbolTable
 70
     1
  0
BLOCK_RECORD
  5
1F
330
1
100
AcDbSymbolTableRecord
100
AcDbBlockTableRecord
  2
*MODEL_SPACE
  0
BLOCK_RECORD
  5
1B
330
1
100
AcDbSymbolTableRecord
100
AcDbBlockTableRecord
  2
*PAPER_SPACE
  0
ENDTAB
  0
ENDSEC
  0
SECTION
  2
BLOCKS
  0
BLOCK
  5
20
330
1F
100
AcDbEntity
  8
0
100
AcDbBlockBegin
  2
*MODEL_SPACE
 70
     0
 10
0.0
 20
0.0
 30
0.0
  3
*MODEL_SPACE
  1

  0
ENDBLK
  5
21
330
1F
100
AcDbEntity
  8
0
100
AcDbBlockEnd
  0
BLOCK
  5
1C
330
1B
100
AcDbEntity
 67
     1
  8
0
100
AcDbBlockBegin
  2
*PAPER_SPACE
  1

  0
ENDBLK
  5
1D
330
1B
100
AcDbEntity
 67
     1
  8
0
100
AcDbBlockEnd
  0
ENDSEC
  0
SECTION
  2
ENTITIES
  0
LWPOLYLINE
  5
100
100
AcDbEntity
  8
Layer_1
 62
7
100
AcDbPolyline
 90
33
 70
0
 10
-6.632911
 20
46.909955
 30
0.0
 10
-6.632911
 20
253.051952
 30
0.0
 10
-6.413909
 20
255.130953
 30
0.0
 10
-5.767908
 20
257.118952
 30
0.0
 10
-4.722910
 20
258.929952
 30
0.0
 10
-3.323909
 20
260.482951
 30
0.0
 10
-1.632910
 20
261.711952
 30
0.0
 10
0.277091
 20
262.562951
 30
0.0
 10
2.322091
 20
262.996952
 30
0.0
 10
210.554090
 20
262.996952
 30
0.0
 10
212.599089
 20
262.562951
 30
0.0
 10
214.509090
 20
261.711952
 30
0.0
 10
216.200090
 20
260.482951
 30
0.0
 10
217.599091
 20
258.929952
 30
0.0
 10
218.644089
 20
257.118952
 30
0.0
 10
219.290090
 20
255.130953
 30
0.0
 10
219.509092
 20
253.051952
 30
0.0
 10
219.509092
 20
46.909955
 30
0.0
 10
219.290090
 20
44.830965
 30
0.0
 10
218.644089
 20
42.842963
 30
0.0
 10
217.599091
 20
41.031943
 30
0.0
 10
216.200090
 20
39.478959
 30
0.0
 10
214.509090
 20
38.249966
 30
0.0
 10
212.599089
 20
37.398953
 30
0.0
 10
210.554090
 20
36.964952
 30
0.0
 10
2.322091
 20
36.964952
 30
0.0
 10
0.277091
 20
37.398953
 30
0.0
 10
-1.632910
 20
38.249966
 30
0.0
 10
-3.323909
 20
39.478959
 30
0.0
 10
-4.722910
 20
41.031943
 30
0.0
 10
-5.767908
 20
42.842963
 30
0.0
 10
-6.413909
 20
44.830965
 30
0.0
 10
-6.632911
 20
46.909955
 30
0.0
  0
LWPOLYLINE
  5
101
100
AcDbEntity
  8
Layer_1
 62
7
100
AcDbPolyline
 90
31
 70
0
 10
1.667089
 20
46.909955
 30
0.0
 10
1.704092
 20
47.262958
 30
0.0
 10
1.814091
 20
47.600948
 30
0.0
 10
1.992091
 20
47.908965
 30
0.0
 10
2.229090
 20
48.172956
 30
0.0
 10
2.517089
 20
48.381941
 30
0.0
 10
2.842091
 20
48.526947
 30
0.0
 10
3.189091
 20
48.600946
 30
0.0
 10
3.545089
 20
48.600946
 30
0.0
 10
3.892090
 20
48.526947
 30
0.0
 10
4.217091
 20
48.381941
 30
0.0
 10
4.505091
 20
48.172956
 30
0.0
 10
4.742090
 20
47.908965
 30
0.0
 10
4.920090
 20
47.600948
 30
0.0
 10
5.030092
 20
47.262958
 30
0.0
 10
5.067091
 20
46.909955
 30
0.0
 10
5.030092
 20
46.556951
 30
0.0
 10
4.920090
 20
46.218962
 30
0.0
 10
4.742090
 20
45.910944
 30
0.0
 10
4.505091
 20
45.646954
 30
0.0
 10
4.217091
 20
45.437940
 30
0.0
 10
3.892090
 20
45.292962
 30
0.0
 10
3.545089
 20
45.218964
 30
0.0
 10
3.189091
 20
45.218964
 30
0.0
 10
2.842091
 20
45.292962
 30
0.0
 10
2.517089
 20
45.437940
 30
0.0
 10
2.229090
 20
45.646954
 30
0.0
 10
1.992091
 20
45.910944
 30
0.0
 10
1.814091
 20
46.218962
 30
0.0
 10
1.704092
 20
46.556951
 30
0.0
 10
1.667089
 20
46.909955
 30
0.0
  0
LWPOLYLINE
  5
102
100
AcDbEntity
  8
Layer_1
 62
7
100
AcDbPolyline
 90
31
 70
0
 10
1.667089
 20
253.051952
 30
0.0
 10
1.704092
 20
253.404953
 30
0.0
 10
1.814091
 20
253.742951
 30
0.0
 10
1.992091
 20
254.050951
 30
0.0
 10
2.229090
 20
254.314953
 30
0.0
 10
2.517089
 20
254.523953
 30
0.0
 10
2.842091
 20
254.668953
 30
0.0
 10
3.189091
 20
254.742951
 30
0.0
 10
3.545089
 20
254.742951
 30
0.0
 10
3.892090
 20
254.668953
 30
0.0
 10
4.217091
 20
254.523953
 30
0.0
 10
4.505091
 20
254.314953
 30
0.0
 10
4.742090
 20
254.050951
 30
0.0
 10
4.920090
 20
253.742951
 30
0.0
 10
5.030092
 20
253.404953
 30
0.0
 10
5.067091
 20
253.051952
 30
0.0
 10
5.030092
 20
252.698951
 30
0.0
 10
4.920090
 20
252.360951
 30
0.0
 10
4.742090
 20
252.052953
 30
0.0
 10
4.505091
 20
251.788951
 30
0.0
 10
4.217091
 20
251.579951
 30
0.0
 10
3.892090
 20
251.434951
 30
0.0
 10
3.545089
 20
251.360953
 30
0.0
 10
3.189091
 20
251.360953
 30
0.0
 10
2.842091
 20
251.434951
 30
0.0
 10
2.517089
 20
251.579951
 30
0.0
 10
2.229090
 20
251.788951
 30
0.0
 10
1.992091
 20
252.052953
 30
0.0
 10
1.814091
 20
252.360951
 30
0.0
 10
1.704092
 20
252.698951
 30
0.0
 10
1.667089
 20
253.051952
 30
0.0
  0
LWPOLYLINE
  5
103
100
AcDbEntity
  8
Layer_1
 62
7
100
AcDbPolyline
 90
31
 70
0
 10
5.838091
 20
149.980953
 30
0.0
 10
5.876090
 20
150.344964
 30
0.0
 10
5.989091
 20
150.692944
 30
0.0
 10
6.172090
 20
151.009964
 30
0.0
 10
6.417090
 20
151.281941
 30
0.0
 10
6.713090
 20
151.496938
 30
0.0
 10
7.047089
 20
151.644964
 30
0.0
 10
7.405091
 20
151.720938
 30
0.0
 10
7.771090
 20
151.720938
 30
0.0
 10
8.129089
 20
151.644964
 30
0.0
 10
8.463091
 20
151.496938
 30
0.0
 10
8.759091
 20
151.281941
 30
0.0
 10
9.004091
 20
151.009964
 30
0.0
 10
9.187090
 20
150.692944
 30
0.0
 10
9.300091
 20
150.344964
 30
0.0
 10
9.338090
 20
149.980953
 30
0.0
 10
9.300091
 20
149.616943
 30
0.0
 10
9.187090
 20
149.268963
 30
0.0
 10
9.004091
 20
148.951943
 30
0.0
 10
8.759091
 20
148.679965
 30
0.0
 10
8.463091
 20
148.464940
 30
0.0
 10
8.129089
 20
148.316943
 30
0.0
 10
7.771090
 20
148.240940
 30
0.0
 10
7.405091
 20
148.240940
 30
0.0
 10
7.047089
 20
148.316943
 30
0.0
 10
6.713090
 20
148.464940
 30
0.0
 10
6.417090
 20
148.679965
 30
0.0
 10
6.172090
 20
148.951943
 30
0.0
 10
5.989091
 20
149.268963
 30
0.0
 10
5.876090
 20
149.616943
 30
0.0
 10
5.838091
 20
149.980953
 30
0.0
  0
LWPOLYLINE
  5
104
100
AcDbEntity
  8
Layer_1
 62
7
100
AcDbPolyline
 90
31
 70
0
 10
14.238091
 20
149.980953
 30
0.0
 10
14.505091
 20
152.517962
 30
0.0
 10
15.293092
 20
154.942956
 30
0.0
 10
16.568090
 20
157.151938
 30
0.0
 10
18.275091
 20
159.046947
 30
0.0
 10
20.338090
 20
160.546958
 30
0.0
 10
22.668092
 20
161.583956
 30
0.0
 10
25.163091
 20
162.113941
 30
0.0
 10
27.713091
 20
162.113941
 30
0.0
 10
30.208090
 20
161.583956
 30
0.0
 10
32.538091
 20
160.546958
 30
0.0
 10
34.601091
 20
159.046947
 30
0.0
 10
36.308089
 20
157.151938
 30
0.0
 10
37.583090
 20
154.942956
 30
0.0
 10
38.371091
 20
152.517962
 30
0.0
 10
38.638091
 20
149.980953
 30
0.0
 10
38.371091
 20
147.443945
 30
0.0
 10
37.583090
 20
145.018950
 30
0.0
 10
36.308089
 20
142.809941
 30
0.0
 10
34.601091
 20
140.914960
 30
0.0
 10
32.538091
 20
139.414948
 30
0.0
 10
30.208090
 20
138.377951
 30
0.0
 10
27.713091
 20
137.847938
 30
0.0
 10
25.163091
 20
137.847938
 30
0.0
 10
22.668092
 20
138.377951
 30
0.0
 10
20.338090
 20
139.414948
 30
0.0
 10
18.275091
 20
140.914960
 30
0.0
 10
16.568090
 20
142.809941
 30
0.0
 10
15.293092
 20
145.018950
 30
0.0
 10
14.505091
 20
147.443945
 30
0.0
 10
14.238091
 20
149.980953
 30
0.0
  0
LWPOLYLINE
  5
105
100
AcDbEntity
  8
Layer_1
 62
7
100
AcDbPolyline
 90
31
 70
0
 10
43.538089
 20
149.980953
 30
0.0
 10
43.576090
 20
150.344964
 30
0.0
 10
43.689089
 20
150.692944
 30
0.0
 10
43.872091
 20
151.009964
 30
0.0
 10
44.117091
 20
151.281941
 30
0.0
 10
44.413091
 20
151.496938
 30
0.0
 10
44.747090
 20
151.644964
 30
0.0
 10
45.105091
 20
151.720938
 30
0.0
 10
45.471091
 20
151.720938
 30
0.0
 10
45.829090
 20
151.644964
 30
0.0
 10
46.163092
 20
151.496938
 30
0.0
 10
46.459089
 20
151.281941
 30
0.0
 10
46.704089
 20
151.009964
 30
0.0
 10
46.887090
 20
150.692944
 30
0.0
 10
47.000089
 20
150.344964
 30
0.0
 10
47.038091
 20
149.980953
 30
0.0
 10
47.000089
 20
149.616943
 30
0.0
 10
46.887090
 20
149.268963
 30
0.0
 10
46.704089
 20
148.951943
 30
0.0
 10
46.459089
 20
148.679965
 30
0.0
 10
46.163092
 20
148.464940
 30
0.0
 10
45.829090
 20
148.316943
 30
0.0
 10
45.471091
 20
148.240940
 30
0.0
 10
45.105091
 20
148.240940
 30
0.0
 10
44.747090
 20
148.316943
 30
0.0
 10
44.413091
 20
148.464940
 30
0.0
 10
44.117091
 20
148.679965
 30
0.0
 10
43.872091
 20
148.951943
 30
0.0
 10
43.689089
 20
149.268963
 30
0.0
 10
43.576090
 20
149.616943
 30
0.0
 10
43.538089
 20
149.980953
 30
0.0
  0
LWPOLYLINE
  5
106
100
AcDbEntity
  8
Layer_1
 62
7
100
AcDbPolyline
 90
63
 70
0
 10
59.538091
 20
149.980953
 30
0.0
 10
59.604092
 20
150.604947
 30
0.0
 10
59.797089
 20
151.200944
 30
0.0
 10
60.111090
 20
151.743939
 30
0.0
 10
60.531090
 20
152.209944
 30
0.0
 10
61.038091
 20
152.578950
 30
0.0
 10
61.611089
 20
152.833938
 30
0.0
 10
62.224090
 20
152.964945
 30
0.0
 10
62.852091
 20
152.964945
 30
0.0
 10
63.497090
 20
159.107964
 30
0.0
 10
66.333091
 20
167.836953
 30
0.0
 10
70.922092
 20
175.784952
 30
0.0
 10
77.063089
 20
182.604953
 30
0.0
 10
84.488090
 20
187.999953
 30
0.0
 10
92.872090
 20
191.731952
 30
0.0
 10
101.849090
 20
193.640951
 30
0.0
 10
111.027090
 20
193.640951
 30
0.0
 10
120.004090
 20
191.731952
 30
0.0
 10
128.388091
 20
187.999953
 30
0.0
 10
135.813092
 20
182.604953
 30
0.0
 10
141.954089
 20
175.784952
 30
0.0
 10
146.543090
 20
167.836953
 30
0.0
 10
149.379091
 20
159.107964
 30
0.0
 10
150.024090
 20
152.964945
 30
0.0
 10
150.652091
 20
152.964945
 30
0.0
 10
151.265091
 20
152.833938
 30
0.0
 10
151.838090
 20
152.578950
 30
0.0
 10
152.345091
 20
152.209944
 30
0.0
 10
152.765091
 20
151.743939
 30
0.0
 10
153.079092
 20
151.200944
 30
0.0
 10
153.272089
 20
150.604947
 30
0.0
 10
153.338090
 20
149.980953
 30
0.0
 10
153.272089
 20
149.356960
 30
0.0
 10
153.079092
 20
148.760963
 30
0.0
 10
152.765091
 20
148.217939
 30
0.0
 10
152.345091
 20
147.751962
 30
0.0
 10
151.838090
 20
147.382957
 30
0.0
 10
151.265091
 20
147.127941
 30
0.0
 10
150.652091
 20
146.996961
 30
0.0
 10
150.024090
 20
146.996961
 30
0.0
 10
149.379091
 20
140.853943
 30
0.0
 10
146.543090
 20
132.124951
 30
0.0
 10
141.954089
 20
124.176952
 30
0.0
 10
135.813092
 20
117.356939
 30
0.0
 10
128.388091
 20
111.961951
 30
0.0
 10
120.004090
 20
108.229957
 30
0.0
 10
111.027090
 20
106.320950
 30
0.0
 10
101.849090
 20
106.320950
 30
0.0
 10
92.872090
 20
108.229957
 30
0.0
 10
84.488090
 20
111.961951
 30
0.0
 10
77.063089
 20
117.356939
 30
0.0
 10
70.922092
 20
124.176952
 30
0.0
 10
66.333091
 20
132.124951
 30
0.0
 10
63.497090
 20
140.853943
 30
0.0
 10
62.852091
 20
146.996961
 30
0.0
 10
62.224090
 20
146.996961
 30
0.0
 10
61.611089
 20
147.127941
 30
0.0
 10
61.038091
 20
147.382957
 30
0.0
 10
60.531090
 20
147.751962
 30
0.0
 10
60.111090
 20
148.217939
 30
0.0
 10
59.797089
 20
148.760963
 30
0.0
 10
59.604092
 20
149.356960
 30
0.0
 10
59.538091
 20
149.980953
 30
0.0
  0
LWPOLYLINE
  5
107
100
AcDbEntity
  8
Layer_1
 62
7
100
AcDbPolyline
 90
31
 70
0
 10
85.838090
 20
69.980944
 30
0.0
 10
85.876090
 20
70.344954
 30
0.0
 10
85.989090
 20
70.692962
 30
0.0
 10
86.172091
 20
71.009954
 30
0.0
 10
86.417090
 20
71.281960
 30
0.0
 10
86.713090
 20
71.496957
 30
0.0
 10
87.047090
 20
71.644954
 30
0.0
 10
87.405090
 20
71.720957
 30
0.0
 10
87.771091
 20
71.720957
 30
0.0
 10
88.129091
 20
71.644954
 30
0.0
 10
88.463090
 20
71.496957
 30
0.0
 10
88.759090
 20
71.281960
 30
0.0
 10
89.004090
 20
71.009954
 30
0.0
 10
89.187090
 20
70.692962
 30
0.0
 10
89.300090
 20
70.344954
 30
0.0
 10
89.338090
 20
69.980944
 30
0.0
 10
89.300090
 20
69.616962
 30
0.0
 10
89.187090
 20
69.268954
 30
0.0
 10
89.004090
 20
68.951962
 30
0.0
 10
88.759090
 20
68.679956
 30
0.0
 10
88.463090
 20
68.464959
 30
0.0
 10
88.129091
 20
68.316962
 30
0.0
 10
87.771091
 20
68.240959
 30
0.0
 10
87.405090
 20
68.240959
 30
0.0
 10
87.047090
 20
68.316962
 30
0.0
 10
86.713090
 20
68.464959
 30
0.0
 10
86.417090
 20
68.679956
 30
0.0
 10
86.172091
 20
68.951962
 30
0.0
 10
85.989090
 20
69.268954
 30
0.0
 10
85.876090
 20
69.616962
 30
0.0
 10
85.838090
 20
69.980944
 30
0.0
  0
LWPOLYLINE
  5
108
100
AcDbEntity
  8
Layer_1
 62
7
100
AcDbPolyline
 90
31
 70
0
 10
85.838090
 20
229.980951
 30
0.0
 10
85.876090
 20
230.344953
 30
0.0
 10
85.989090
 20
230.692953
 30
0.0
 10
86.172091
 20
231.009953
 30
0.0
 10
86.417090
 20
231.281953
 30
0.0
 10
86.713090
 20
231.496953
 30
0.0
 10
87.047090
 20
231.644953
 30
0.0
 10
87.405090
 20
231.720953
 30
0.0
 10
87.771091
 20
231.720953
 30
0.0
 10
88.129091
 20
231.644953
 30
0.0
 10
88.463090
 20
231.496953
 30
0.0
 10
88.759090
 20
231.281953
 30
0.0
 10
89.004090
 20
231.009953
 30
0.0
 10
89.187090
 20
230.692953
 30
0.0
 10
89.300090
 20
230.344953
 30
0.0
 10
89.338090
 20
229.980951
 30
0.0
 10
89.300090
 20
229.616952
 30
0.0
 10
89.187090
 20
229.268953
 30
0.0
 10
89.004090
 20
228.951952
 30
0.0
 10
88.759090
 20
228.679952
 30
0.0
 10
88.463090
 20
228.464952
 30
0.0
 10
88.129091
 20
228.316952
 30
0.0
 10
87.771091
 20
228.240953
 30
0.0
 10
87.405090
 20
228.240953
 30
0.0
 10
87.047090
 20
228.316952
 30
0.0
 10
86.713090
 20
228.464952
 30
0.0
 10
86.417090
 20
228.679952
 30
0.0
 10
86.172091
 20
228.951952
 30
0.0
 10
85.989090
 20
229.268953
 30
0.0
 10
85.876090
 20
229.616952
 30
0.0
 10
85.838090
 20
229.980951
 30
0.0
  0
LWPOLYLINE
  5
109
100
AcDbEntity
  8
Layer_1
 62
7
100
AcDbPolyline
 90
31
 70
0
 10
94.238091
 20
69.980944
 30
0.0
 10
94.505091
 20
72.517952
 30
0.0
 10
95.293091
 20
74.942947
 30
0.0
 10
96.568090
 20
77.151957
 30
0.0
 10
98.275090
 20
79.046938
 30
0.0
 10
100.338090
 20
80.546949
 30
0.0
 10
102.668090
 20
81.583946
 30
0.0
 10
105.163090
 20
82.113960
 30
0.0
 10
107.713091
 20
82.113960
 30
0.0
 10
110.208090
 20
81.583946
 30
0.0
 10
112.538090
 20
80.546949
 30
0.0
 10
114.601090
 20
79.046938
 30
0.0
 10
116.308090
 20
77.151957
 30
0.0
 10
117.583090
 20
74.942947
 30
0.0
 10
118.371090
 20
72.517952
 30
0.0
 10
118.638090
 20
69.980944
 30
0.0
 10
118.371090
 20
67.443964
 30
0.0
 10
117.583090
 20
65.018941
 30
0.0
 10
116.308090
 20
62.809960
 30
0.0
 10
114.601090
 20
60.914950
 30
0.0
 10
112.538090
 20
59.414939
 30
0.0
 10
110.208090
 20
58.377942
 30
0.0
 10
107.713091
 20
57.847957
 30
0.0
 10
105.163090
 20
57.847957
 30
0.0
 10
102.668090
 20
58.377942
 30
0.0
 10
100.338090
 20
59.414939
 30
0.0
 10
98.275090
 20
60.914950
 30
0.0
 10
96.568090
 20
62.809960
 30
0.0
 10
95.293091
 20
65.018941
 30
0.0
 10
94.505091
 20
67.443964
 30
0.0
 10
94.238091
 20
69.980944
 30
0.0
  0
LWPOLYLINE
  5
10a
100
AcDbEntity
  8
Layer_1
 62
7
100
AcDbPolyline
 90
31
 70
0
 10
94.238091
 20
229.980951
 30
0.0
 10
94.505091
 20
232.517951
 30
0.0
 10
95.293091
 20
234.942951
 30
0.0
 10
96.568090
 20
237.151953
 30
0.0
 10
98.275090
 20
239.046951
 30
0.0
 10
100.338090
 20
240.546951
 30
0.0
 10
102.668090
 20
241.583951
 30
0.0
 10
105.163090
 20
242.113953
 30
0.0
 10
107.713091
 20
242.113953
 30
0.0
 10
110.208090
 20
241.583951
 30
0.0
 10
112.538090
 20
240.546951
 30
0.0
 10
114.601090
 20
239.046951
 30
0.0
 10
116.308090
 20
237.151953
 30
0.0
 10
117.583090
 20
234.942951
 30
0.0
 10
118.371090
 20
232.517951
 30
0.0
 10
118.638090
 20
229.980951
 30
0.0
 10
118.371090
 20
227.443951
 30
0.0
 10
117.583090
 20
225.018951
 30
0.0
 10
116.308090
 20
222.809953
 30
0.0
 10
114.601090
 20
220.914952
 30
0.0
 10
112.538090
 20
219.414952
 30
0.0
 10
110.208090
 20
218.377952
 30
0.0
 10
107.713091
 20
217.847953
 30
0.0
 10
105.163090
 20
217.847953
 30
0.0
 10
102.668090
 20
218.377952
 30
0.0
 10
100.338090
 20
219.414952
 30
0.0
 10
98.275090
 20
220.914952
 30
0.0
 10
96.568090
 20
222.809953
 30
0.0
 10
95.293091
 20
225.018951
 30
0.0
 10
94.505091
 20
227.443951
 30
0.0
 10
94.238091
 20
229.980951
 30
0.0
  0
LWPOLYLINE
  5
10b
100
AcDbEntity
  8
Layer_1
 62
7
100
AcDbPolyline
 90
31
 70
0
 10
123.538090
 20
69.980944
 30
0.0
 10
123.576090
 20
70.344954
 30
0.0
 10
123.689091
 20
70.692962
 30
0.0
 10
123.872090
 20
71.009954
 30
0.0
 10
124.117090
 20
71.281960
 30
0.0
 10
124.413090
 20
71.496957
 30
0.0
 10
124.747090
 20
71.644954
 30
0.0
 10
125.105090
 20
71.720957
 30
0.0
 10
125.471090
 20
71.720957
 30
0.0
 10
125.829090
 20
71.644954
 30
0.0
 10
126.163090
 20
71.496957
 30
0.0
 10
126.459090
 20
71.281960
 30
0.0
 10
126.704090
 20
71.009954
 30
0.0
 10
126.887091
 20
70.692962
 30
0.0
 10
127.000090
 20
70.344954
 30
0.0
 10
127.038090
 20
69.980944
 30
0.0
 10
127.000090
 20
69.616962
 30
0.0
 10
126.887091
 20
69.268954
 30
0.0
 10
126.704090
 20
68.951962
 30
0.0
 10
126.459090
 20
68.679956
 30
0.0
 10
126.163090
 20
68.464959
 30
0.0
 10
125.829090
 20
68.316962
 30
0.0
 10
125.471090
 20
68.240959
 30
0.0
 10
125.105090
 20
68.240959
 30
0.0
 10
124.747090
 20
68.316962
 30
0.0
 10
124.413090
 20
68.464959
 30
0.0
 10
124.117090
 20
68.679956
 30
0.0
 10
123.872090
 20
68.951962
 30
0.0
 10
123.689091
 20
69.268954
 30
0.0
 10
123.576090
 20
69.616962
 30
0.0
 10
123.538090
 20
69.980944
 30
0.0
  0
LWPOLYLINE
  5
10c
100
AcDbEntity
  8
Layer_1
 62
7
100
AcDbPolyline
 90
31
 70
0
 10
123.538090
 20
229.980951
 30
0.0
 10
123.576090
 20
230.344953
 30
0.0
 10
123.689091
 20
230.692953
 30
0.0
 10
123.872090
 20
231.009953
 30
0.0
 10
124.117090
 20
231.281953
 30
0.0
 10
124.413090
 20
231.496953
 30
0.0
 10
124.747090
 20
231.644953
 30
0.0
 10
125.105090
 20
231.720953
 30
0.0
 10
125.471090
 20
231.720953
 30
0.0
 10
125.829090
 20
231.644953
 30
0.0
 10
126.163090
 20
231.496953
 30
0.0
 10
126.459090
 20
231.281953
 30
0.0
 10
126.704090
 20
231.009953
 30
0.0
 10
126.887091
 20
230.692953
 30
0.0
 10
127.000090
 20
230.344953
 30
0.0
 10
127.038090
 20
229.980951
 30
0.0
 10
127.000090
 20
229.616952
 30
0.0
 10
126.887091
 20
229.268953
 30
0.0
 10
126.704090
 20
228.951952
 30
0.0
 10
126.459090
 20
228.679952
 30
0.0
 10
126.163090
 20
228.464952
 30
0.0
 10
125.829090
 20
228.316952
 30
0.0
 10
125.471090
 20
228.240953
 30
0.0
 10
125.105090
 20
228.240953
 30
0.0
 10
124.747090
 20
228.316952
 30
0.0
 10
124.413090
 20
228.464952
 30
0.0
 10
124.117090
 20
228.679952
 30
0.0
 10
123.872090
 20
228.951952
 30
0.0
 10
123.689091
 20
229.268953
 30
0.0
 10
123.576090
 20
229.616952
 30
0.0
 10
123.538090
 20
229.980951
 30
0.0
  0
LWPOLYLINE
  5
10d
100
AcDbEntity
  8
Layer_1
 62
7
100
AcDbPolyline
 90
31
 70
0
 10
165.838090
 20
149.980953
 30
0.0
 10
165.876091
 20
150.344964
 30
0.0
 10
165.989090
 20
150.692944
 30
0.0
 10
166.172092
 20
151.009964
 30
0.0
 10
166.417092
 20
151.281941
 30
0.0
 10
166.713089
 20
151.496938
 30
0.0
 10
167.047091
 20
151.644964
 30
0.0
 10
167.405090
 20
151.720938
 30
0.0
 10
167.771089
 20
151.720938
 30
0.0
 10
168.129091
 20
151.644964
 30
0.0
 10
168.463090
 20
151.496938
 30
0.0
 10
168.759090
 20
151.281941
 30
0.0
 10
169.004090
 20
151.009964
 30
0.0
 10
169.187091
 20
150.692944
 30
0.0
 10
169.300090
 20
150.344964
 30
0.0
 10
169.338092
 20
149.980953
 30
0.0
 10
169.300090
 20
149.616943
 30
0.0
 10
169.187091
 20
149.268963
 30
0.0
 10
169.004090
 20
148.951943
 30
0.0
 10
168.759090
 20
148.679965
 30
0.0
 10
168.463090
 20
148.464940
 30
0.0
 10
168.129091
 20
148.316943
 30
0.0
 10
167.771089
 20
148.240940
 30
0.0
 10
167.405090
 20
148.240940
 30
0.0
 10
167.047091
 20
148.316943
 30
0.0
 10
166.713089
 20
148.464940
 30
0.0
 10
166.417092
 20
148.679965
 30
0.0
 10
166.172092
 20
148.951943
 30
0.0
 10
165.989090
 20
149.268963
 30
0.0
 10
165.876091
 20
149.616943
 30
0.0
 10
165.838090
 20
149.980953
 30
0.0
  0
LWPOLYLINE
  5
10e
100
AcDbEntity
  8
Layer_1
 62
7
100
AcDbPolyline
 90
31
 70
0
 10
174.238090
 20
149.980953
 30
0.0
 10
174.505089
 20
152.517962
 30
0.0
 10
175.293091
 20
154.942956
 30
0.0
 10
176.568092
 20
157.151938
 30
0.0
 10
178.275090
 20
159.046947
 30
0.0
 10
180.338089
 20
160.546958
 30
0.0
 10
182.668091
 20
161.583956
 30
0.0
 10
185.163090
 20
162.113941
 30
0.0
 10
187.713089
 20
162.113941
 30
0.0
 10
190.208089
 20
161.583956
 30
0.0
 10
192.538090
 20
160.546958
 30
0.0
 10
194.601090
 20
159.046947
 30
0.0
 10
196.308091
 20
157.151938
 30
0.0
 10
197.583089
 20
154.942956
 30
0.0
 10
198.371090
 20
152.517962
 30
0.0
 10
198.638089
 20
149.980953
 30
0.0
 10
198.371090
 20
147.443945
 30
0.0
 10
197.583089
 20
145.018950
 30
0.0
 10
196.308091
 20
142.809941
 30
0.0
 10
194.601090
 20
140.914960
 30
0.0
 10
192.538090
 20
139.414948
 30
0.0
 10
190.208089
 20
138.377951
 30
0.0
 10
187.713089
 20
137.847938
 30
0.0
 10
185.163090
 20
137.847938
 30
0.0
 10
182.668091
 20
138.377951
 30
0.0
 10
180.338089
 20
139.414948
 30
0.0
 10
178.275090
 20
140.914960
 30
0.0
 10
176.568092
 20
142.809941
 30
0.0
 10
175.293091
 20
145.018950
 30
0.0
 10
174.505089
 20
147.443945
 30
0.0
 10
174.238090
 20
149.980953
 30
0.0
  0
LWPOLYLINE
  5
10f
100
AcDbEntity
  8
Layer_1
 62
7
100
AcDbPolyline
 90
31
 70
0
 10
203.538091
 20
149.980953
 30
0.0
 10
203.576089
 20
150.344964
 30
0.0
 10
203.689091
 20
150.692944
 30
0.0
 10
203.872090
 20
151.009964
 30
0.0
 10
204.117090
 20
151.281941
 30
0.0
 10
204.413090
 20
151.496938
 30
0.0
 10
204.747091
 20
151.644964
 30
0.0
 10
205.105090
 20
151.720938
 30
0.0
 10
205.471090
 20
151.720938
 30
0.0
 10
205.829092
 20
151.644964
 30
0.0
 10
206.163091
 20
151.496938
 30
0.0
 10
206.459091
 20
151.281941
 30
0.0
 10
206.704091
 20
151.009964
 30
0.0
 10
206.887089
 20
150.692944
 30
0.0
 10
207.000091
 20
150.344964
 30
0.0
 10
207.038090
 20
149.980953
 30
0.0
 10
207.000091
 20
149.616943
 30
0.0
 10
206.887089
 20
149.268963
 30
0.0
 10
206.704091
 20
148.951943
 30
0.0
 10
206.459091
 20
148.679965
 30
0.0
 10
206.163091
 20
148.464940
 30
0.0
 10
205.829092
 20
148.316943
 30
0.0
 10
205.471090
 20
148.240940
 30
0.0
 10
205.105090
 20
148.240940
 30
0.0
 10
204.747091
 20
148.316943
 30
0.0
 10
204.413090
 20
148.464940
 30
0.0
 10
204.117090
 20
148.679965
 30
0.0
 10
203.872090
 20
148.951943
 30
0.0
 10
203.689091
 20
149.268963
 30
0.0
 10
203.576089
 20
149.616943
 30
0.0
 10
203.538091
 20
149.980953
 30
0.0
  0
LWPOLYLINE
  5
110
100
AcDbEntity
  8
Layer_1
 62
7
100
AcDbPolyline
 90
31
 70
0
 10
207.809090
 20
46.909955
 30
0.0
 10
207.846089
 20
47.262958
 30
0.0
 10
207.956091
 20
47.600948
 30
0.0
 10
208.134091
 20
47.908965
 30
0.0
 10
208.371090
 20
48.172956
 30
0.0
 10
208.659089
 20
48.381941
 30
0.0
 10
208.984091
 20
48.526947
 30
0.0
 10
209.331092
 20
48.600946
 30
0.0
 10
209.687089
 20
48.600946
 30
0.0
 10
210.034090
 20
48.526947
 30
0.0
 10
210.359092
 20
48.381941
 30
0.0
 10
210.647091
 20
48.172956
 30
0.0
 10
210.884090
 20
47.908965
 30
0.0
 10
211.062090
 20
47.600948
 30
0.0
 10
211.172089
 20
47.262958
 30
0.0
 10
211.209091
 20
46.909955
 30
0.0
 10
211.172089
 20
46.556951
 30
0.0
 10
211.062090
 20
46.218962
 30
0.0
 10
210.884090
 20
45.910944
 30
0.0
 10
210.647091
 20
45.646954
 30
0.0
 10
210.359092
 20
45.437940
 30
0.0
 10
210.034090
 20
45.292962
 30
0.0
 10
209.687089
 20
45.218964
 30
0.0
 10
209.331092
 20
45.218964
 30
0.0
 10
208.984091
 20
45.292962
 30
0.0
 10
208.659089
 20
45.437940
 30
0.0
 10
208.371090
 20
45.646954
 30
0.0
 10
208.134091
 20
45.910944
 30
0.0
 10
207.956091
 20
46.218962
 30
0.0
 10
207.846089
 20
46.556951
 30
0.0
 10
207.809090
 20
46.909955
 30
0.0
  0
LWPOLYLINE
  5
111
100
AcDbEntity
  8
Layer_1
 62
7
100
AcDbPolyline
 90
31
 70
0
 10
207.809090
 20
253.051952
 30
0.0
 10
207.846089
 20
253.404953
 30
0.0
 10
207.956091
 20
253.742951
 30
0.0
 10
208.134091
 20
254.050951
 30
0.0
 10
208.371090
 20
254.314953
 30
0.0
 10
208.659089
 20
254.523953
 30
0.0
 10
208.984091
 20
254.668953
 30
0.0
 10
209.331092
 20
254.742951
 30
0.0
 10
209.687089
 20
254.742951
 30
0.0
 10
210.034090
 20
254.668953
 30
0.0
 10
210.359092
 20
254.523953
 30
0.0
 10
210.647091
 20
254.314953
 30
0.0
 10
210.884090
 20
254.050951
 30
0.0
 10
211.062090
 20
253.742951
 30
0.0
 10
211.172089
 20
253.404953
 30
0.0
 10
211.209091
 20
253.051952
 30
0.0
 10
211.172089
 20
252.698951
 30
0.0
 10
211.062090
 20
252.360951
 30
0.0
 10
210.884090
 20
252.052953
 30
0.0
 10
210.647091
 20
251.788951
 30
0.0
 10
210.359092
 20
251.579951
 30
0.0
 10
210.034090
 20
251.434951
 30
0.0
 10
209.687089
 20
251.360953
 30
0.0
 10
209.331092
 20
251.360953
 30
0.0
 10
208.984091
 20
251.434951
 30
0.0
 10
208.659089
 20
251.579951
 30
0.0
 10
208.371090
 20
251.788951
 30
0.0
 10
208.134091
 20
252.052953
 30
0.0
 10
207.956091
 20
252.360951
 30
0.0
 10
207.846089
 20
252.698951
 30
0.0
 10
207.809090
 20
253.051952
 30
0.0
  0
ENDSEC
  0
SECTION
  2
OBJECTS
  0
DICTIONARY
  5
C
330
0
100
AcDbDictionary
  3
ACAD_GROUP
350
D
  3
ACAD_MLINESTYLE
350
17
  0
DICTIONARY
  5
D
330
C
100
AcDbDictionary
  0
DICTIONARY
  5
1A
330
C
100
AcDbDictionary
  0
DICTIONARY
  5
17
330
C
100
AcDbDictionary
  3
STANDARD
350
18
  0
DICTIONARY
  5
19
330
C
100
AcDbDictionary
  0
ENDSEC
  0
EOF
