  0
SECTION
  2
BLOCKS
  0
ENDSEC
  0
SECTION
  2
ENTITIES
  0
LINE
  8
0
 10
-113.071
 11
-113.071
 20
-103.071
 21
103.071
  0
LINE
  8
0
 10
-113.071
 11
-112.852
 20
103.071
 21
105.15
  0
LINE
  8
0
 10
-112.852
 11
-112.206
 20
105.15
 21
107.138
  0
LINE
  8
0
 10
-112.206
 11
-111.161
 20
107.138
 21
108.949
  0
LINE
  8
0
 10
-111.161
 11
-109.762
 20
108.949
 21
110.502
  0
LINE
  8
0
 10
-109.762
 11
-108.071
 20
110.502
 21
111.731
  0
LINE
  8
0
 10
-108.071
 11
-106.161
 20
111.731
 21
112.582
  0
LINE
  8
0
 10
-106.161
 11
-104.116
 20
112.582
 21
113.016
  0
LINE
  8
0
 10
-104.116
 11
104.116
 20
113.016
 21
113.016
  0
LINE
  8
0
 10
104.116
 11
106.161
 20
113.016
 21
112.582
  0
LINE
  8
0
 10
106.161
 11
108.071
 20
112.582
 21
111.731
  0
LINE
  8
0
 10
108.071
 11
109.762
 20
111.731
 21
110.502
  0
LINE
  8
0
 10
109.762
 11
111.161
 20
110.502
 21
108.949
  0
LINE
  8
0
 10
111.161
 11
112.206
 20
108.949
 21
107.138
  0
LINE
  8
0
 10
112.206
 11
112.852
 20
107.138
 21
105.15
  0
LINE
  8
0
 10
112.852
 11
113.071
 20
105.15
 21
103.071
  0
LINE
  8
0
 10
113.071
 11
113.071
 20
103.071
 21
-103.071
  0
LINE
  8
0
 10
113.071
 11
112.852
 20
-103.071
 21
-105.15
  0
LINE
  8
0
 10
112.852
 11
112.206
 20
-105.15
 21
-107.138
  0
LINE
  8
0
 10
112.206
 11
111.161
 20
-107.138
 21
-108.949
  0
LINE
  8
0
 10
111.161
 11
109.762
 20
-108.949
 21
-110.502
  0
LINE
  8
0
 10
109.762
 11
108.071
 20
-110.502
 21
-111.731
  0
LINE
  8
0
 10
108.071
 11
106.161
 20
-111.731
 21
-112.582
  0
LINE
  8
0
 10
106.161
 11
104.116
 20
-112.582
 21
-113.016
  0
LINE
  8
0
 10
104.116
 11
-104.116
 20
-113.016
 21
-113.016
  0
LINE
  8
0
 10
-104.116
 11
-106.161
 20
-113.016
 21
-112.582
  0
LINE
  8
0
 10
-106.161
 11
-108.071
 20
-112.582
 21
-111.731
  0
LINE
  8
0
 10
-108.071
 11
-109.762
 20
-111.731
 21
-110.502
  0
LINE
  8
0
 10
-109.762
 11
-111.161
 20
-110.502
 21
-108.949
  0
LINE
  8
0
 10
-111.161
 11
-112.206
 20
-108.949
 21
-107.138
  0
LINE
  8
0
 10
-112.206
 11
-112.852
 20
-107.138
 21
-105.15
  0
LINE
  8
0
 10
-112.852
 11
-113.071
 20
-105.15
 21
-103.071
  0
LINE
  8
0
 10
-104.771
 11
-104.734
 20
-103.071
 21
-102.718
  0
LINE
  8
0
 10
-104.734
 11
-104.624
 20
-102.718
 21
-102.38
  0
LINE
  8
0
 10
-104.624
 11
-104.446
 20
-102.38
 21
-102.072
  0
LINE
  8
0
 10
-104.446
 11
-104.209
 20
-102.072
 21
-101.808
  0
LINE
  8
0
 10
-104.209
 11
-103.921
 20
-101.808
 21
-101.599
  0
LINE
  8
0
 10
-103.921
 11
-103.596
 20
-101.599
 21
-101.454
  0
LINE
  8
0
 10
-103.596
 11
-103.249
 20
-101.454
 21
-101.38
  0
LINE
  8
0
 10
-103.249
 11
-102.893
 20
-101.38
 21
-101.38
  0
LINE
  8
0
 10
-102.893
 11
-102.546
 20
-101.38
 21
-101.454
  0
LINE
  8
0
 10
-102.546
 11
-102.221
 20
-101.454
 21
-101.599
  0
LINE
  8
0
 10
-102.221
 11
-101.933
 20
-101.599
 21
-101.808
  0
LINE
  8
0
 10
-101.933
 11
-101.696
 20
-101.808
 21
-102.072
  0
LINE
  8
0
 10
-101.696
 11
-101.518
 20
-102.072
 21
-102.38
  0
LINE
  8
0
 10
-101.518
 11
-101.408
 20
-102.38
 21
-102.718
  0
LINE
  8
0
 10
-101.408
 11
-101.371
 20
-102.718
 21
-103.071
  0
LINE
  8
0
 10
-101.371
 11
-101.408
 20
-103.071
 21
-103.424
  0
LINE
  8
0
 10
-101.408
 11
-101.518
 20
-103.424
 21
-103.762
  0
LINE
  8
0
 10
-101.518
 11
-101.696
 20
-103.762
 21
-104.07
  0
LINE
  8
0
 10
-101.696
 11
-101.933
 20
-104.07
 21
-104.334
  0
LINE
  8
0
 10
-101.933
 11
-102.221
 20
-104.334
 21
-104.543
  0
LINE
  8
0
 10
-102.221
 11
-102.546
 20
-104.543
 21
-104.688
  0
LINE
  8
0
 10
-102.546
 11
-102.893
 20
-104.688
 21
-104.762
  0
LINE
  8
0
 10
-102.893
 11
-103.249
 20
-104.762
 21
-104.762
  0
LINE
  8
0
 10
-103.249
 11
-103.596
 20
-104.762
 21
-104.688
  0
LINE
  8
0
 10
-103.596
 11
-103.921
 20
-104.688
 21
-104.543
  0
LINE
  8
0
 10
-103.921
 11
-104.209
 20
-104.543
 21
-104.334
  0
LINE
  8
0
 10
-104.209
 11
-104.446
 20
-104.334
 21
-104.07
  0
LINE
  8
0
 10
-104.446
 11
-104.624
 20
-104.07
 21
-103.762
  0
LINE
  8
0
 10
-104.624
 11
-104.734
 20
-103.762
 21
-103.424
  0
LINE
  8
0
 10
-104.734
 11
-104.771
 20
-103.424
 21
-103.071
  0
LINE
  8
0
 10
-104.771
 11
-104.734
 20
103.071
 21
103.424
  0
LINE
  8
0
 10
-104.734
 11
-104.624
 20
103.424
 21
103.762
  0
LINE
  8
0
 10
-104.624
 11
-104.446
 20
103.762
 21
104.07
  0
LINE
  8
0
 10
-104.446
 11
-104.209
 20
104.07
 21
104.334
  0
LINE
  8
0
 10
-104.209
 11
-103.921
 20
104.334
 21
104.543
  0
LINE
  8
0
 10
-103.921
 11
-103.596
 20
104.543
 21
104.688
  0
LINE
  8
0
 10
-103.596
 11
-103.249
 20
104.688
 21
104.762
  0
LINE
  8
0
 10
-103.249
 11
-102.893
 20
104.762
 21
104.762
  0
LINE
  8
0
 10
-102.893
 11
-102.546
 20
104.762
 21
104.688
  0
LINE
  8
0
 10
-102.546
 11
-102.221
 20
104.688
 21
104.543
  0
LINE
  8
0
 10
-102.221
 11
-101.933
 20
104.543
 21
104.334
  0
LINE
  8
0
 10
-101.933
 11
-101.696
 20
104.334
 21
104.07
  0
LINE
  8
0
 10
-101.696
 11
-101.518
 20
104.07
 21
103.762
  0
LINE
  8
0
 10
-101.518
 11
-101.408
 20
103.762
 21
103.424
  0
LINE
  8
0
 10
-101.408
 11
-101.371
 20
103.424
 21
103.071
  0
LINE
  8
0
 10
-101.371
 11
-101.408
 20
103.071
 21
102.718
  0
LINE
  8
0
 10
-101.408
 11
-101.518
 20
102.718
 21
102.38
  0
LINE
  8
0
 10
-101.518
 11
-101.696
 20
102.38
 21
102.072
  0
LINE
  8
0
 10
-101.696
 11
-101.933
 20
102.072
 21
101.808
  0
LINE
  8
0
 10
-101.933
 11
-102.221
 20
101.808
 21
101.599
  0
LINE
  8
0
 10
-102.221
 11
-102.546
 20
101.599
 21
101.454
  0
LINE
  8
0
 10
-102.546
 11
-102.893
 20
101.454
 21
101.38
  0
LINE
  8
0
 10
-102.893
 11
-103.249
 20
101.38
 21
101.38
  0
LINE
  8
0
 10
-103.249
 11
-103.596
 20
101.38
 21
101.454
  0
LINE
  8
0
 10
-103.596
 11
-103.921
 20
101.454
 21
101.599
  0
LINE
  8
0
 10
-103.921
 11
-104.209
 20
101.599
 21
101.808
  0
LINE
  8
0
 10
-104.209
 11
-104.446
 20
101.808
 21
102.072
  0
LINE
  8
0
 10
-104.446
 11
-104.624
 20
102.072
 21
102.38
  0
LINE
  8
0
 10
-104.624
 11
-104.734
 20
102.38
 21
102.718
  0
LINE
  8
0
 10
-104.734
 11
-104.771
 20
102.718
 21
103.071
  0
LINE
  8
0
 10
-100.6
 11
-100.562
 20
0
 21
0.364
  0
LINE
  8
0
 10
-100.562
 11
-100.449
 20
0.364
 21
0.712
  0
LINE
  8
0
 10
-100.449
 11
-100.266
 20
0.712
 21
1.029
  0
LINE
  8
0
 10
-100.266
 11
-100.021
 20
1.029
 21
1.301
  0
LINE
  8
0
 10
-100.021
 11
-99.725
 20
1.301
 21
1.516
  0
LINE
  8
0
 10
-99.725
 11
-99.391
 20
1.516
 21
1.664
  0
LINE
  8
0
 10
-99.391
 11
-99.033
 20
1.664
 21
1.74
  0
LINE
  8
0
 10
-99.033
 11
-98.667
 20
1.74
 21
1.74
  0
LINE
  8
0
 10
-98.667
 11
-98.309
 20
1.74
 21
1.664
  0
LINE
  8
0
 10
-98.309
 11
-97.975
 20
1.664
 21
1.516
  0
LINE
  8
0
 10
-97.975
 11
-97.679
 20
1.516
 21
1.301
  0
LINE
  8
0
 10
-97.679
 11
-97.434
 20
1.301
 21
1.029
  0
LINE
  8
0
 10
-97.434
 11
-97.251
 20
1.029
 21
0.712
  0
LINE
  8
0
 10
-97.251
 11
-97.138
 20
0.712
 21
0.364
  0
LINE
  8
0
 10
-97.138
 11
-97.1
 20
0.364
 21
0
  0
LINE
  8
0
 10
-97.1
 11
-97.138
 20
0
 21
-0.364
  0
LINE
  8
0
 10
-97.138
 11
-97.251
 20
-0.364
 21
-0.712
  0
LINE
  8
0
 10
-97.251
 11
-97.434
 20
-0.712
 21
-1.029
  0
LINE
  8
0
 10
-97.434
 11
-97.679
 20
-1.029
 21
-1.301
  0
LINE
  8
0
 10
-97.679
 11
-97.975
 20
-1.301
 21
-1.516
  0
LINE
  8
0
 10
-97.975
 11
-98.309
 20
-1.516
 21
-1.664
  0
LINE
  8
0
 10
-98.309
 11
-98.667
 20
-1.664
 21
-1.74
  0
LINE
  8
0
 10
-98.667
 11
-99.033
 20
-1.74
 21
-1.74
  0
LINE
  8
0
 10
-99.033
 11
-99.391
 20
-1.74
 21
-1.664
  0
LINE
  8
0
 10
-99.391
 11
-99.725
 20
-1.664
 21
-1.516
  0
LINE
  8
0
 10
-99.725
 11
-100.021
 20
-1.516
 21
-1.301
  0
LINE
  8
0
 10
-100.021
 11
-100.266
 20
-1.301
 21
-1.029
  0
LINE
  8
0
 10
-100.266
 11
-100.449
 20
-1.029
 21
-0.712
  0
LINE
  8
0
 10
-100.449
 11
-100.562
 20
-0.712
 21
-0.364
  0
LINE
  8
0
 10
-100.562
 11
-100.6
 20
-0.364
 21
0
  0
LINE
  8
0
 10
-92.2
 11
-91.933
 20
0
 21
2.537
  0
LINE
  8
0
 10
-91.933
 11
-91.145
 20
2.537
 21
4.962
  0
LINE
  8
0
 10
-91.145
 11
-89.87
 20
4.962
 21
7.171
  0
LINE
  8
0
 10
-89.87
 11
-88.163
 20
7.171
 21
9.066
  0
LINE
  8
0
 10
-88.163
 11
-86.1
 20
9.066
 21
10.566
  0
LINE
  8
0
 10
-86.1
 11
-83.77
 20
10.566
 21
11.603
  0
LINE
  8
0
 10
-83.77
 11
-81.275
 20
11.603
 21
12.133
  0
LINE
  8
0
 10
-81.275
 11
-78.725
 20
12.133
 21
12.133
  0
LINE
  8
0
 10
-78.725
 11
-76.23
 20
12.133
 21
11.603
  0
LINE
  8
0
 10
-76.23
 11
-73.9
 20
11.603
 21
10.566
  0
LINE
  8
0
 10
-73.9
 11
-71.837
 20
10.566
 21
9.066
  0
LINE
  8
0
 10
-71.837
 11
-70.13
 20
9.066
 21
7.171
  0
LINE
  8
0
 10
-70.13
 11
-68.855
 20
7.171
 21
4.962
  0
LINE
  8
0
 10
-68.855
 11
-68.067
 20
4.962
 21
2.537
  0
LINE
  8
0
 10
-68.067
 11
-67.8
 20
2.537
 21
0
  0
LINE
  8
0
 10
-67.8
 11
-68.067
 20
0
 21
-2.537
  0
LINE
  8
0
 10
-68.067
 11
-68.855
 20
-2.537
 21
-4.962
  0
LINE
  8
0
 10
-68.855
 11
-70.13
 20
-4.962
 21
-7.171
  0
LINE
  8
0
 10
-70.13
 11
-71.837
 20
-7.171
 21
-9.066
  0
LINE
  8
0
 10
-71.837
 11
-73.9
 20
-9.066
 21
-10.566
  0
LINE
  8
0
 10
-73.9
 11
-76.23
 20
-10.566
 21
-11.603
  0
LINE
  8
0
 10
-76.23
 11
-78.725
 20
-11.603
 21
-12.133
  0
LINE
  8
0
 10
-78.725
 11
-81.275
 20
-12.133
 21
-12.133
  0
LINE
  8
0
 10
-81.275
 11
-83.77
 20
-12.133
 21
-11.603
  0
LINE
  8
0
 10
-83.77
 11
-86.1
 20
-11.603
 21
-10.566
  0
LINE
  8
0
 10
-86.1
 11
-88.163
 20
-10.566
 21
-9.066
  0
LINE
  8
0
 10
-88.163
 11
-89.87
 20
-9.066
 21
-7.171
  0
LINE
  8
0
 10
-89.87
 11
-91.145
 20
-7.171
 21
-4.962
  0
LINE
  8
0
 10
-91.145
 11
-91.933
 20
-4.962
 21
-2.537
  0
LINE
  8
0
 10
-91.933
 11
-92.2
 20
-2.537
 21
0
  0
LINE
  8
0
 10
-62.9
 11
-62.862
 20
0
 21
0.364
  0
LINE
  8
0
 10
-62.862
 11
-62.749
 20
0.364
 21
0.712
  0
LINE
  8
0
 10
-62.749
 11
-62.566
 20
0.712
 21
1.029
  0
LINE
  8
0
 10
-62.566
 11
-62.321
 20
1.029
 21
1.301
  0
LINE
  8
0
 10
-62.321
 11
-62.025
 20
1.301
 21
1.516
  0
LINE
  8
0
 10
-62.025
 11
-61.691
 20
1.516
 21
1.664
  0
LINE
  8
0
 10
-61.691
 11
-61.333
 20
1.664
 21
1.74
  0
LINE
  8
0
 10
-61.333
 11
-60.967
 20
1.74
 21
1.74
  0
LINE
  8
0
 10
-60.967
 11
-60.609
 20
1.74
 21
1.664
  0
LINE
  8
0
 10
-60.609
 11
-60.275
 20
1.664
 21
1.516
  0
LINE
  8
0
 10
-60.275
 11
-59.979
 20
1.516
 21
1.301
  0
LINE
  8
0
 10
-59.979
 11
-59.734
 20
1.301
 21
1.029
  0
LINE
  8
0
 10
-59.734
 11
-59.551
 20
1.029
 21
0.712
  0
LINE
  8
0
 10
-59.551
 11
-59.438
 20
0.712
 21
0.364
  0
LINE
  8
0
 10
-59.438
 11
-59.4
 20
0.364
 21
0
  0
LINE
  8
0
 10
-59.4
 11
-59.438
 20
0
 21
-0.364
  0
LINE
  8
0
 10
-59.438
 11
-59.551
 20
-0.364
 21
-0.712
  0
LINE
  8
0
 10
-59.551
 11
-59.734
 20
-0.712
 21
-1.029
  0
LINE
  8
0
 10
-59.734
 11
-59.979
 20
-1.029
 21
-1.301
  0
LINE
  8
0
 10
-59.979
 11
-60.275
 20
-1.301
 21
-1.516
  0
LINE
  8
0
 10
-60.275
 11
-60.609
 20
-1.516
 21
-1.664
  0
LINE
  8
0
 10
-60.609
 11
-60.967
 20
-1.664
 21
-1.74
  0
LINE
  8
0
 10
-60.967
 11
-61.333
 20
-1.74
 21
-1.74
  0
LINE
  8
0
 10
-61.333
 11
-61.691
 20
-1.74
 21
-1.664
  0
LINE
  8
0
 10
-61.691
 11
-62.025
 20
-1.664
 21
-1.516
  0
LINE
  8
0
 10
-62.025
 11
-62.321
 20
-1.516
 21
-1.301
  0
LINE
  8
0
 10
-62.321
 11
-62.566
 20
-1.301
 21
-1.029
  0
LINE
  8
0
 10
-62.566
 11
-62.749
 20
-1.029
 21
-0.712
  0
LINE
  8
0
 10
-62.749
 11
-62.862
 20
-0.712
 21
-0.364
  0
LINE
  8
0
 10
-62.862
 11
-62.9
 20
-0.364
 21
0
  0
LINE
  8
0
 10
-46.9
 11
-46.834
 20
0
 21
0.624
  0
LINE
  8
0
 10
-46.834
 11
-46.641
 20
0.624
 21
1.22
  0
LINE
  8
0
 10
-46.641
 11
-46.327
 20
1.22
 21
1.763
  0
LINE
  8
0
 10
-46.327
 11
-45.907
 20
1.763
 21
2.229
  0
LINE
  8
0
 10
-45.907
 11
-45.4
 20
2.229
 21
2.598
  0
LINE
  8
0
 10
-45.4
 11
-44.827
 20
2.598
 21
2.853
  0
LINE
  8
0
 10
-44.827
 11
-44.214
 20
2.853
 21
2.984
  0
LINE
  8
0
 10
-44.214
 11
-43.586
 20
2.984
 21
2.984
  0
LINE
  8
0
 10
-43.586
 11
-42.941
 20
2.984
 21
9.127
  0
LINE
  8
0
 10
-42.941
 11
-40.105
 20
9.127
 21
17.856
  0
LINE
  8
0
 10
-40.105
 11
-35.516
 20
17.856
 21
25.804
  0
LINE
  8
0
 10
-35.516
 11
-29.375
 20
25.804
 21
32.624
  0
LINE
  8
0
 10
-29.375
 11
-21.95
 20
32.624
 21
38.019
  0
LINE
  8
0
 10
-21.95
 11
-13.566
 20
38.019
 21
41.751
  0
LINE
  8
0
 10
-13.566
 11
-4.589
 20
41.751
 21
43.66
  0
LINE
  8
0
 10
-4.589
 11
4.589
 20
43.66
 21
43.66
  0
LINE
  8
0
 10
4.589
 11
13.566
 20
43.66
 21
41.751
  0
LINE
  8
0
 10
13.566
 11
21.95
 20
41.751
 21
38.019
  0
LINE
  8
0
 10
21.95
 11
29.375
 20
38.019
 21
32.624
  0
LINE
  8
0
 10
29.375
 11
35.516
 20
32.624
 21
25.804
  0
LINE
  8
0
 10
35.516
 11
40.105
 20
25.804
 21
17.856
  0
LINE
  8
0
 10
40.105
 11
42.941
 20
17.856
 21
9.127
  0
LINE
  8
0
 10
42.941
 11
43.586
 20
9.127
 21
2.984
  0
LINE
  8
0
 10
43.586
 11
44.214
 20
2.984
 21
2.984
  0
LINE
  8
0
 10
44.214
 11
44.827
 20
2.984
 21
2.853
  0
LINE
  8
0
 10
44.827
 11
45.4
 20
2.853
 21
2.598
  0
LINE
  8
0
 10
45.4
 11
45.907
 20
2.598
 21
2.229
  0
LINE
  8
0
 10
45.907
 11
46.327
 20
2.229
 21
1.763
  0
LINE
  8
0
 10
46.327
 11
46.641
 20
1.763
 21
1.22
  0
LINE
  8
0
 10
46.641
 11
46.834
 20
1.22
 21
0.624
  0
LINE
  8
0
 10
46.834
 11
46.9
 20
0.624
 21
0
  0
LINE
  8
0
 10
46.9
 11
46.834
 20
0
 21
-0.624
  0
LINE
  8
0
 10
46.834
 11
46.641
 20
-0.624
 21
-1.22
  0
LINE
  8
0
 10
46.641
 11
46.327
 20
-1.22
 21
-1.763
  0
LINE
  8
0
 10
46.327
 11
45.907
 20
-1.763
 21
-2.229
  0
LINE
  8
0
 10
45.907
 11
45.4
 20
-2.229
 21
-2.598
  0
LINE
  8
0
 10
45.4
 11
44.827
 20
-2.598
 21
-2.853
  0
LINE
  8
0
 10
44.827
 11
44.214
 20
-2.853
 21
-2.984
  0
LINE
  8
0
 10
44.214
 11
43.586
 20
-2.984
 21
-2.984
  0
LINE
  8
0
 10
43.586
 11
42.941
 20
-2.984
 21
-9.127
  0
LINE
  8
0
 10
42.941
 11
40.105
 20
-9.127
 21
-17.856
  0
LINE
  8
0
 10
40.105
 11
35.516
 20
-17.856
 21
-25.804
  0
LINE
  8
0
 10
35.516
 11
29.375
 20
-25.804
 21
-32.624
  0
LINE
  8
0
 10
29.375
 11
21.95
 20
-32.624
 21
-38.019
  0
LINE
  8
0
 10
21.95
 11
13.566
 20
-38.019
 21
-41.751
  0
LINE
  8
0
 10
13.566
 11
4.589
 20
-41.751
 21
-43.66
  0
LINE
  8
0
 10
4.589
 11
-4.589
 20
-43.66
 21
-43.66
  0
LINE
  8
0
 10
-4.589
 11
-13.566
 20
-43.66
 21
-41.751
  0
LINE
  8
0
 10
-13.566
 11
-21.95
 20
-41.751
 21
-38.019
  0
LINE
  8
0
 10
-21.95
 11
-29.375
 20
-38.019
 21
-32.624
  0
LINE
  8
0
 10
-29.375
 11
-35.516
 20
-32.624
 21
-25.804
  0
LINE
  8
0
 10
-35.516
 11
-40.105
 20
-25.804
 21
-17.856
  0
LINE
  8
0
 10
-40.105
 11
-42.941
 20
-17.856
 21
-9.127
  0
LINE
  8
0
 10
-42.941
 11
-43.586
 20
-9.127
 21
-2.984
  0
LINE
  8
0
 10
-43.586
 11
-44.214
 20
-2.984
 21
-2.984
  0
LINE
  8
0
 10
-44.214
 11
-44.827
 20
-2.984
 21
-2.853
  0
LINE
  8
0
 10
-44.827
 11
-45.4
 20
-2.853
 21
-2.598
  0
LINE
  8
0
 10
-45.4
 11
-45.907
 20
-2.598
 21
-2.229
  0
LINE
  8
0
 10
-45.907
 11
-46.327
 20
-2.229
 21
-1.763
  0
LINE
  8
0
 10
-46.327
 11
-46.641
 20
-1.763
 21
-1.22
  0
LINE
  8
0
 10
-46.641
 11
-46.834
 20
-1.22
 21
-0.624
  0
LINE
  8
0
 10
-46.834
 11
-46.9
 20
-0.624
 21
0
  0
LINE
  8
0
 10
-20.6
 11
-20.562
 20
-80
 21
-79.636
  0
LINE
  8
0
 10
-20.562
 11
-20.449
 20
-79.636
 21
-79.288
  0
LINE
  8
0
 10
-20.449
 11
-20.266
 20
-79.288
 21
-78.971
  0
LINE
  8
0
 10
-20.266
 11
-20.021
 20
-78.971
 21
-78.699
  0
LINE
  8
0
 10
-20.021
 11
-19.725
 20
-78.699
 21
-78.484
  0
LINE
  8
0
 10
-19.725
 11
-19.391
 20
-78.484
 21
-78.336
  0
LINE
  8
0
 10
-19.391
 11
-19.033
 20
-78.336
 21
-78.26
  0
LINE
  8
0
 10
-19.033
 11
-18.667
 20
-78.26
 21
-78.26
  0
LINE
  8
0
 10
-18.667
 11
-18.309
 20
-78.26
 21
-78.336
  0
LINE
  8
0
 10
-18.309
 11
-17.975
 20
-78.336
 21
-78.484
  0
LINE
  8
0
 10
-17.975
 11
-17.679
 20
-78.484
 21
-78.699
  0
LINE
  8
0
 10
-17.679
 11
-17.434
 20
-78.699
 21
-78.971
  0
LINE
  8
0
 10
-17.434
 11
-17.251
 20
-78.971
 21
-79.288
  0
LINE
  8
0
 10
-17.251
 11
-17.138
 20
-79.288
 21
-79.636
  0
LINE
  8
0
 10
-17.138
 11
-17.1
 20
-79.636
 21
-80
  0
LINE
  8
0
 10
-17.1
 11
-17.138
 20
-80
 21
-80.364
  0
LINE
  8
0
 10
-17.138
 11
-17.251
 20
-80.364
 21
-80.712
  0
LINE
  8
0
 10
-17.251
 11
-17.434
 20
-80.712
 21
-81.029
  0
LINE
  8
0
 10
-17.434
 11
-17.679
 20
-81.029
 21
-81.301
  0
LINE
  8
0
 10
-17.679
 11
-17.975
 20
-81.301
 21
-81.516
  0
LINE
  8
0
 10
-17.975
 11
-18.309
 20
-81.516
 21
-81.664
  0
LINE
  8
0
 10
-18.309
 11
-18.667
 20
-81.664
 21
-81.74
  0
LINE
  8
0
 10
-18.667
 11
-19.033
 20
-81.74
 21
-81.74
  0
LINE
  8
0
 10
-19.033
 11
-19.391
 20
-81.74
 21
-81.664
  0
LINE
  8
0
 10
-19.391
 11
-19.725
 20
-81.664
 21
-81.516
  0
LINE
  8
0
 10
-19.725
 11
-20.021
 20
-81.516
 21
-81.301
  0
LINE
  8
0
 10
-20.021
 11
-20.266
 20
-81.301
 21
-81.029
  0
LINE
  8
0
 10
-20.266
 11
-20.449
 20
-81.029
 21
-80.712
  0
LINE
  8
0
 10
-20.449
 11
-20.562
 20
-80.712
 21
-80.364
  0
LINE
  8
0
 10
-20.562
 11
-20.6
 20
-80.364
 21
-80
  0
LINE
  8
0
 10
-20.6
 11
-20.562
 20
80
 21
80.364
  0
LINE
  8
0
 10
-20.562
 11
-20.449
 20
80.364
 21
80.712
  0
LINE
  8
0
 10
-20.449
 11
-20.266
 20
80.712
 21
81.029
  0
LINE
  8
0
 10
-20.266
 11
-20.021
 20
81.029
 21
81.301
  0
LINE
  8
0
 10
-20.021
 11
-19.725
 20
81.301
 21
81.516
  0
LINE
  8
0
 10
-19.725
 11
-19.391
 20
81.516
 21
81.664
  0
LINE
  8
0
 10
-19.391
 11
-19.033
 20
81.664
 21
81.74
  0
LINE
  8
0
 10
-19.033
 11
-18.667
 20
81.74
 21
81.74
  0
LINE
  8
0
 10
-18.667
 11
-18.309
 20
81.74
 21
81.664
  0
LINE
  8
0
 10
-18.309
 11
-17.975
 20
81.664
 21
81.516
  0
LINE
  8
0
 10
-17.975
 11
-17.679
 20
81.516
 21
81.301
  0
LINE
  8
0
 10
-17.679
 11
-17.434
 20
81.301
 21
81.029
  0
LINE
  8
0
 10
-17.434
 11
-17.251
 20
81.029
 21
80.712
  0
LINE
  8
0
 10
-17.251
 11
-17.138
 20
80.712
 21
80.364
  0
LINE
  8
0
 10
-17.138
 11
-17.1
 20
80.364
 21
80
  0
LINE
  8
0
 10
-17.1
 11
-17.138
 20
80
 21
79.636
  0
LINE
  8
0
 10
-17.138
 11
-17.251
 20
79.636
 21
79.288
  0
LINE
  8
0
 10
-17.251
 11
-17.434
 20
79.288
 21
78.971
  0
LINE
  8
0
 10
-17.434
 11
-17.679
 20
78.971
 21
78.699
  0
LINE
  8
0
 10
-17.679
 11
-17.975
 20
78.699
 21
78.484
  0
LINE
  8
0
 10
-17.975
 11
-18.309
 20
78.484
 21
78.336
  0
LINE
  8
0
 10
-18.309
 11
-18.667
 20
78.336
 21
78.26
  0
LINE
  8
0
 10
-18.667
 11
-19.033
 20
78.26
 21
78.26
  0
LINE
  8
0
 10
-19.033
 11
-19.391
 20
78.26
 21
78.336
  0
LINE
  8
0
 10
-19.391
 11
-19.725
 20
78.336
 21
78.484
  0
LINE
  8
0
 10
-19.725
 11
-20.021
 20
78.484
 21
78.699
  0
LINE
  8
0
 10
-20.021
 11
-20.266
 20
78.699
 21
78.971
  0
LINE
  8
0
 10
-20.266
 11
-20.449
 20
78.971
 21
79.288
  0
LINE
  8
0
 10
-20.449
 11
-20.562
 20
79.288
 21
79.636
  0
LINE
  8
0
 10
-20.562
 11
-20.6
 20
79.636
 21
80
  0
LINE
  8
0
 10
-12.2
 11
-11.933
 20
-80
 21
-77.463
  0
LINE
  8
0
 10
-11.933
 11
-11.145
 20
-77.463
 21
-75.038
  0
LINE
  8
0
 10
-11.145
 11
-9.87
 20
-75.038
 21
-72.829
  0
LINE
  8
0
 10
-9.87
 11
-8.163
 20
-72.829
 21
-70.934
  0
LINE
  8
0
 10
-8.163
 11
-6.1
 20
-70.934
 21
-69.434
  0
LINE
  8
0
 10
-6.1
 11
-3.77
 20
-69.434
 21
-68.397
  0
LINE
  8
0
 10
-3.77
 11
-1.275
 20
-68.397
 21
-67.867
  0
LINE
  8
0
 10
-1.275
 11
1.275
 20
-67.867
 21
-67.867
  0
LINE
  8
0
 10
1.275
 11
3.77
 20
-67.867
 21
-68.397
  0
LINE
  8
0
 10
3.77
 11
6.1
 20
-68.397
 21
-69.434
  0
LINE
  8
0
 10
6.1
 11
8.163
 20
-69.434
 21
-70.934
  0
LINE
  8
0
 10
8.163
 11
9.87
 20
-70.934
 21
-72.829
  0
LINE
  8
0
 10
9.87
 11
11.145
 20
-72.829
 21
-75.038
  0
LINE
  8
0
 10
11.145
 11
11.933
 20
-75.038
 21
-77.463
  0
LINE
  8
0
 10
11.933
 11
12.2
 20
-77.463
 21
-80
  0
LINE
  8
0
 10
12.2
 11
11.933
 20
-80
 21
-82.537
  0
LINE
  8
0
 10
11.933
 11
11.145
 20
-82.537
 21
-84.962
  0
LINE
  8
0
 10
11.145
 11
9.87
 20
-84.962
 21
-87.171
  0
LINE
  8
0
 10
9.87
 11
8.163
 20
-87.171
 21
-89.066
  0
LINE
  8
0
 10
8.163
 11
6.1
 20
-89.066
 21
-90.566
  0
LINE
  8
0
 10
6.1
 11
3.77
 20
-90.566
 21
-91.603
  0
LINE
  8
0
 10
3.77
 11
1.275
 20
-91.603
 21
-92.133
  0
LINE
  8
0
 10
1.275
 11
-1.275
 20
-92.133
 21
-92.133
  0
LINE
  8
0
 10
-1.275
 11
-3.77
 20
-92.133
 21
-91.603
  0
LINE
  8
0
 10
-3.77
 11
-6.1
 20
-91.603
 21
-90.566
  0
LINE
  8
0
 10
-6.1
 11
-8.163
 20
-90.566
 21
-89.066
  0
LINE
  8
0
 10
-8.163
 11
-9.87
 20
-89.066
 21
-87.171
  0
LINE
  8
0
 10
-9.87
 11
-11.145
 20
-87.171
 21
-84.962
  0
LINE
  8
0
 10
-11.145
 11
-11.933
 20
-84.962
 21
-82.537
  0
LINE
  8
0
 10
-11.933
 11
-12.2
 20
-82.537
 21
-80
  0
LINE
  8
0
 10
-12.2
 11
-11.933
 20
80
 21
82.537
  0
LINE
  8
0
 10
-11.933
 11
-11.145
 20
82.537
 21
84.962
  0
LINE
  8
0
 10
-11.145
 11
-9.87
 20
84.962
 21
87.171
  0
LINE
  8
0
 10
-9.87
 11
-8.163
 20
87.171
 21
89.066
  0
LINE
  8
0
 10
-8.163
 11
-6.1
 20
89.066
 21
90.566
  0
LINE
  8
0
 10
-6.1
 11
-3.77
 20
90.566
 21
91.603
  0
LINE
  8
0
 10
-3.77
 11
-1.275
 20
91.603
 21
92.133
  0
LINE
  8
0
 10
-1.275
 11
1.275
 20
92.133
 21
92.133
  0
LINE
  8
0
 10
1.275
 11
3.77
 20
92.133
 21
91.603
  0
LINE
  8
0
 10
3.77
 11
6.1
 20
91.603
 21
90.566
  0
LINE
  8
0
 10
6.1
 11
8.163
 20
90.566
 21
89.066
  0
LINE
  8
0
 10
8.163
 11
9.87
 20
89.066
 21
87.171
  0
LINE
  8
0
 10
9.87
 11
11.145
 20
87.171
 21
84.962
  0
LINE
  8
0
 10
11.145
 11
11.933
 20
84.962
 21
82.537
  0
LINE
  8
0
 10
11.933
 11
12.2
 20
82.537
 21
80
  0
LINE
  8
0
 10
12.2
 11
11.933
 20
80
 21
77.463
  0
LINE
  8
0
 10
11.933
 11
11.145
 20
77.463
 21
75.038
  0
LINE
  8
0
 10
11.145
 11
9.87
 20
75.038
 21
72.829
  0
LINE
  8
0
 10
9.87
 11
8.163
 20
72.829
 21
70.934
  0
LINE
  8
0
 10
8.163
 11
6.1
 20
70.934
 21
69.434
  0
LINE
  8
0
 10
6.1
 11
3.77
 20
69.434
 21
68.397
  0
LINE
  8
0
 10
3.77
 11
1.275
 20
68.397
 21
67.867
  0
LINE
  8
0
 10
1.275
 11
-1.275
 20
67.867
 21
67.867
  0
LINE
  8
0
 10
-1.275
 11
-3.77
 20
67.867
 21
68.397
  0
LINE
  8
0
 10
-3.77
 11
-6.1
 20
68.397
 21
69.434
  0
LINE
  8
0
 10
-6.1
 11
-8.163
 20
69.434
 21
70.934
  0
LINE
  8
0
 10
-8.163
 11
-9.87
 20
70.934
 21
72.829
  0
LINE
  8
0
 10
-9.87
 11
-11.145
 20
72.829
 21
75.038
  0
LINE
  8
0
 10
-11.145
 11
-11.933
 20
75.038
 21
77.463
  0
LINE
  8
0
 10
-11.933
 11
-12.2
 20
77.463
 21
80
  0
LINE
  8
0
 10
17.1
 11
17.138
 20
-80
 21
-79.636
  0
LINE
  8
0
 10
17.138
 11
17.251
 20
-79.636
 21
-79.288
  0
LINE
  8
0
 10
17.251
 11
17.434
 20
-79.288
 21
-78.971
  0
LINE
  8
0
 10
17.434
 11
17.679
 20
-78.971
 21
-78.699
  0
LINE
  8
0
 10
17.679
 11
17.975
 20
-78.699
 21
-78.484
  0
LINE
  8
0
 10
17.975
 11
18.309
 20
-78.484
 21
-78.336
  0
LINE
  8
0
 10
18.309
 11
18.667
 20
-78.336
 21
-78.26
  0
LINE
  8
0
 10
18.667
 11
19.033
 20
-78.26
 21
-78.26
  0
LINE
  8
0
 10
19.033
 11
19.391
 20
-78.26
 21
-78.336
  0
LINE
  8
0
 10
19.391
 11
19.725
 20
-78.336
 21
-78.484
  0
LINE
  8
0
 10
19.725
 11
20.021
 20
-78.484
 21
-78.699
  0
LINE
  8
0
 10
20.021
 11
20.266
 20
-78.699
 21
-78.971
  0
LINE
  8
0
 10
20.266
 11
20.449
 20
-78.971
 21
-79.288
  0
LINE
  8
0
 10
20.449
 11
20.562
 20
-79.288
 21
-79.636
  0
LINE
  8
0
 10
20.562
 11
20.6
 20
-79.636
 21
-80
  0
LINE
  8
0
 10
20.6
 11
20.562
 20
-80
 21
-80.364
  0
LINE
  8
0
 10
20.562
 11
20.449
 20
-80.364
 21
-80.712
  0
LINE
  8
0
 10
20.449
 11
20.266
 20
-80.712
 21
-81.029
  0
LINE
  8
0
 10
20.266
 11
20.021
 20
-81.029
 21
-81.301
  0
LINE
  8
0
 10
20.021
 11
19.725
 20
-81.301
 21
-81.516
  0
LINE
  8
0
 10
19.725
 11
19.391
 20
-81.516
 21
-81.664
  0
LINE
  8
0
 10
19.391
 11
19.033
 20
-81.664
 21
-81.74
  0
LINE
  8
0
 10
19.033
 11
18.667
 20
-81.74
 21
-81.74
  0
LINE
  8
0
 10
18.667
 11
18.309
 20
-81.74
 21
-81.664
  0
LINE
  8
0
 10
18.309
 11
17.975
 20
-81.664
 21
-81.516
  0
LINE
  8
0
 10
17.975
 11
17.679
 20
-81.516
 21
-81.301
  0
LINE
  8
0
 10
17.679
 11
17.434
 20
-81.301
 21
-81.029
  0
LINE
  8
0
 10
17.434
 11
17.251
 20
-81.029
 21
-80.712
  0
LINE
  8
0
 10
17.251
 11
17.138
 20
-80.712
 21
-80.364
  0
LINE
  8
0
 10
17.138
 11
17.1
 20
-80.364
 21
-80
  0
LINE
  8
0
 10
17.1
 11
17.138
 20
80
 21
80.364
  0
LINE
  8
0
 10
17.138
 11
17.251
 20
80.364
 21
80.712
  0
LINE
  8
0
 10
17.251
 11
17.434
 20
80.712
 21
81.029
  0
LINE
  8
0
 10
17.434
 11
17.679
 20
81.029
 21
81.301
  0
LINE
  8
0
 10
17.679
 11
17.975
 20
81.301
 21
81.516
  0
LINE
  8
0
 10
17.975
 11
18.309
 20
81.516
 21
81.664
  0
LINE
  8
0
 10
18.309
 11
18.667
 20
81.664
 21
81.74
  0
LINE
  8
0
 10
18.667
 11
19.033
 20
81.74
 21
81.74
  0
LINE
  8
0
 10
19.033
 11
19.391
 20
81.74
 21
81.664
  0
LINE
  8
0
 10
19.391
 11
19.725
 20
81.664
 21
81.516
  0
LINE
  8
0
 10
19.725
 11
20.021
 20
81.516
 21
81.301
  0
LINE
  8
0
 10
20.021
 11
20.266
 20
81.301
 21
81.029
  0
LINE
  8
0
 10
20.266
 11
20.449
 20
81.029
 21
80.712
  0
LINE
  8
0
 10
20.449
 11
20.562
 20
80.712
 21
80.364
  0
LINE
  8
0
 10
20.562
 11
20.6
 20
80.364
 21
80
  0
LINE
  8
0
 10
20.6
 11
20.562
 20
80
 21
79.636
  0
LINE
  8
0
 10
20.562
 11
20.449
 20
79.636
 21
79.288
  0
LINE
  8
0
 10
20.449
 11
20.266
 20
79.288
 21
78.971
  0
LINE
  8
0
 10
20.266
 11
20.021
 20
78.971
 21
78.699
  0
LINE
  8
0
 10
20.021
 11
19.725
 20
78.699
 21
78.484
  0
LINE
  8
0
 10
19.725
 11
19.391
 20
78.484
 21
78.336
  0
LINE
  8
0
 10
19.391
 11
19.033
 20
78.336
 21
78.26
  0
LINE
  8
0
 10
19.033
 11
18.667
 20
78.26
 21
78.26
  0
LINE
  8
0
 10
18.667
 11
18.309
 20
78.26
 21
78.336
  0
LINE
  8
0
 10
18.309
 11
17.975
 20
78.336
 21
78.484
  0
LINE
  8
0
 10
17.975
 11
17.679
 20
78.484
 21
78.699
  0
LINE
  8
0
 10
17.679
 11
17.434
 20
78.699
 21
78.971
  0
LINE
  8
0
 10
17.434
 11
17.251
 20
78.971
 21
79.288
  0
LINE
  8
0
 10
17.251
 11
17.138
 20
79.288
 21
79.636
  0
LINE
  8
0
 10
17.138
 11
17.1
 20
79.636
 21
80
  0
LINE
  8
0
 10
59.4
 11
59.438
 20
0
 21
0.364
  0
LINE
  8
0
 10
59.438
 11
59.551
 20
0.364
 21
0.712
  0
LINE
  8
0
 10
59.551
 11
59.734
 20
0.712
 21
1.029
  0
LINE
  8
0
 10
59.734
 11
59.979
 20
1.029
 21
1.301
  0
LINE
  8
0
 10
59.979
 11
60.275
 20
1.301
 21
1.516
  0
LINE
  8
0
 10
60.275
 11
60.609
 20
1.516
 21
1.664
  0
LINE
  8
0
 10
60.609
 11
60.967
 20
1.664
 21
1.74
  0
LINE
  8
0
 10
60.967
 11
61.333
 20
1.74
 21
1.74
  0
LINE
  8
0
 10
61.333
 11
61.691
 20
1.74
 21
1.664
  0
LINE
  8
0
 10
61.691
 11
62.025
 20
1.664
 21
1.516
  0
LINE
  8
0
 10
62.025
 11
62.321
 20
1.516
 21
1.301
  0
LINE
  8
0
 10
62.321
 11
62.566
 20
1.301
 21
1.029
  0
LINE
  8
0
 10
62.566
 11
62.749
 20
1.029
 21
0.712
  0
LINE
  8
0
 10
62.749
 11
62.862
 20
0.712
 21
0.364
  0
LINE
  8
0
 10
62.862
 11
62.9
 20
0.364
 21
0
  0
LINE
  8
0
 10
62.9
 11
62.862
 20
0
 21
-0.364
  0
LINE
  8
0
 10
62.862
 11
62.749
 20
-0.364
 21
-0.712
  0
LINE
  8
0
 10
62.749
 11
62.566
 20
-0.712
 21
-1.029
  0
LINE
  8
0
 10
62.566
 11
62.321
 20
-1.029
 21
-1.301
  0
LINE
  8
0
 10
62.321
 11
62.025
 20
-1.301
 21
-1.516
  0
LINE
  8
0
 10
62.025
 11
61.691
 20
-1.516
 21
-1.664
  0
LINE
  8
0
 10
61.691
 11
61.333
 20
-1.664
 21
-1.74
  0
LINE
  8
0
 10
61.333
 11
60.967
 20
-1.74
 21
-1.74
  0
LINE
  8
0
 10
60.967
 11
60.609
 20
-1.74
 21
-1.664
  0
LINE
  8
0
 10
60.609
 11
60.275
 20
-1.664
 21
-1.516
  0
LINE
  8
0
 10
60.275
 11
59.979
 20
-1.516
 21
-1.301
  0
LINE
  8
0
 10
59.979
 11
59.734
 20
-1.301
 21
-1.029
  0
LINE
  8
0
 10
59.734
 11
59.551
 20
-1.029
 21
-0.712
  0
LINE
  8
0
 10
59.551
 11
59.438
 20
-0.712
 21
-0.364
  0
LINE
  8
0
 10
59.438
 11
59.4
 20
-0.364
 21
0
  0
LINE
  8
0
 10
67.8
 11
68.067
 20
0
 21
2.537
  0
LINE
  8
0
 10
68.067
 11
68.855
 20
2.537
 21
4.962
  0
LINE
  8
0
 10
68.855
 11
70.13
 20
4.962
 21
7.171
  0
LINE
  8
0
 10
70.13
 11
71.837
 20
7.171
 21
9.066
  0
LINE
  8
0
 10
71.837
 11
73.9
 20
9.066
 21
10.566
  0
LINE
  8
0
 10
73.9
 11
76.23
 20
10.566
 21
11.603
  0
LINE
  8
0
 10
76.23
 11
78.725
 20
11.603
 21
12.133
  0
LINE
  8
0
 10
78.725
 11
81.275
 20
12.133
 21
12.133
  0
LINE
  8
0
 10
81.275
 11
83.77
 20
12.133
 21
11.603
  0
LINE
  8
0
 10
83.77
 11
86.1
 20
11.603
 21
10.566
  0
LINE
  8
0
 10
86.1
 11
88.163
 20
10.566
 21
9.066
  0
LINE
  8
0
 10
88.163
 11
89.87
 20
9.066
 21
7.171
  0
LINE
  8
0
 10
89.87
 11
91.145
 20
7.171
 21
4.962
  0
LINE
  8
0
 10
91.145
 11
91.933
 20
4.962
 21
2.537
  0
LINE
  8
0
 10
91.933
 11
92.2
 20
2.537
 21
0
  0
LINE
  8
0
 10
92.2
 11
91.933
 20
0
 21
-2.537
  0
LINE
  8
0
 10
91.933
 11
91.145
 20
-2.537
 21
-4.962
  0
LINE
  8
0
 10
91.145
 11
89.87
 20
-4.962
 21
-7.171
  0
LINE
  8
0
 10
89.87
 11
88.163
 20
-7.171
 21
-9.066
  0
LINE
  8
0
 10
88.163
 11
86.1
 20
-9.066
 21
-10.566
  0
LINE
  8
0
 10
86.1
 11
83.77
 20
-10.566
 21
-11.603
  0
LINE
  8
0
 10
83.77
 11
81.275
 20
-11.603
 21
-12.133
  0
LINE
  8
0
 10
81.275
 11
78.725
 20
-12.133
 21
-12.133
  0
LINE
  8
0
 10
78.725
 11
76.23
 20
-12.133
 21
-11.603
  0
LINE
  8
0
 10
76.23
 11
73.9
 20
-11.603
 21
-10.566
  0
LINE
  8
0
 10
73.9
 11
71.837
 20
-10.566
 21
-9.066
  0
LINE
  8
0
 10
71.837
 11
70.13
 20
-9.066
 21
-7.171
  0
LINE
  8
0
 10
70.13
 11
68.855
 20
-7.171
 21
-4.962
  0
LINE
  8
0
 10
68.855
 11
68.067
 20
-4.962
 21
-2.537
  0
LINE
  8
0
 10
68.067
 11
67.8
 20
-2.537
 21
0
  0
LINE
  8
0
 10
97.1
 11
97.138
 20
0
 21
0.364
  0
LINE
  8
0
 10
97.138
 11
97.251
 20
0.364
 21
0.712
  0
LINE
  8
0
 10
97.251
 11
97.434
 20
0.712
 21
1.029
  0
LINE
  8
0
 10
97.434
 11
97.679
 20
1.029
 21
1.301
  0
LINE
  8
0
 10
97.679
 11
97.975
 20
1.301
 21
1.516
  0
LINE
  8
0
 10
97.975
 11
98.309
 20
1.516
 21
1.664
  0
LINE
  8
0
 10
98.309
 11
98.667
 20
1.664
 21
1.74
  0
LINE
  8
0
 10
98.667
 11
99.033
 20
1.74
 21
1.74
  0
LINE
  8
0
 10
99.033
 11
99.391
 20
1.74
 21
1.664
  0
LINE
  8
0
 10
99.391
 11
99.725
 20
1.664
 21
1.516
  0
LINE
  8
0
 10
99.725
 11
100.021
 20
1.516
 21
1.301
  0
LINE
  8
0
 10
100.021
 11
100.266
 20
1.301
 21
1.029
  0
LINE
  8
0
 10
100.266
 11
100.449
 20
1.029
 21
0.712
  0
LINE
  8
0
 10
100.449
 11
100.562
 20
0.712
 21
0.364
  0
LINE
  8
0
 10
100.562
 11
100.6
 20
0.364
 21
0
  0
LINE
  8
0
 10
100.6
 11
100.562
 20
0
 21
-0.364
  0
LINE
  8
0
 10
100.562
 11
100.449
 20
-0.364
 21
-0.712
  0
LINE
  8
0
 10
100.449
 11
100.266
 20
-0.712
 21
-1.029
  0
LINE
  8
0
 10
100.266
 11
100.021
 20
-1.029
 21
-1.301
  0
LINE
  8
0
 10
100.021
 11
99.725
 20
-1.301
 21
-1.516
  0
LINE
  8
0
 10
99.725
 11
99.391
 20
-1.516
 21
-1.664
  0
LINE
  8
0
 10
99.391
 11
99.033
 20
-1.664
 21
-1.74
  0
LINE
  8
0
 10
99.033
 11
98.667
 20
-1.74
 21
-1.74
  0
LINE
  8
0
 10
98.667
 11
98.309
 20
-1.74
 21
-1.664
  0
LINE
  8
0
 10
98.309
 11
97.975
 20
-1.664
 21
-1.516
  0
LINE
  8
0
 10
97.975
 11
97.679
 20
-1.516
 21
-1.301
  0
LINE
  8
0
 10
97.679
 11
97.434
 20
-1.301
 21
-1.029
  0
LINE
  8
0
 10
97.434
 11
97.251
 20
-1.029
 21
-0.712
  0
LINE
  8
0
 10
97.251
 11
97.138
 20
-0.712
 21
-0.364
  0
LINE
  8
0
 10
97.138
 11
97.1
 20
-0.364
 21
0
  0
LINE
  8
0
 10
101.371
 11
101.408
 20
-103.071
 21
-102.718
  0
LINE
  8
0
 10
101.408
 11
101.518
 20
-102.718
 21
-102.38
  0
LINE
  8
0
 10
101.518
 11
101.696
 20
-102.38
 21
-102.072
  0
LINE
  8
0
 10
101.696
 11
101.933
 20
-102.072
 21
-101.808
  0
LINE
  8
0
 10
101.933
 11
102.221
 20
-101.808
 21
-101.599
  0
LINE
  8
0
 10
102.221
 11
102.546
 20
-101.599
 21
-101.454
  0
LINE
  8
0
 10
102.546
 11
102.893
 20
-101.454
 21
-101.38
  0
LINE
  8
0
 10
102.893
 11
103.249
 20
-101.38
 21
-101.38
  0
LINE
  8
0
 10
103.249
 11
103.596
 20
-101.38
 21
-101.454
  0
LINE
  8
0
 10
103.596
 11
103.921
 20
-101.454
 21
-101.599
  0
LINE
  8
0
 10
103.921
 11
104.209
 20
-101.599
 21
-101.808
  0
LINE
  8
0
 10
104.209
 11
104.446
 20
-101.808
 21
-102.072
  0
LINE
  8
0
 10
104.446
 11
104.624
 20
-102.072
 21
-102.38
  0
LINE
  8
0
 10
104.624
 11
104.734
 20
-102.38
 21
-102.718
  0
LINE
  8
0
 10
104.734
 11
104.771
 20
-102.718
 21
-103.071
  0
LINE
  8
0
 10
104.771
 11
104.734
 20
-103.071
 21
-103.424
  0
LINE
  8
0
 10
104.734
 11
104.624
 20
-103.424
 21
-103.762
  0
LINE
  8
0
 10
104.624
 11
104.446
 20
-103.762
 21
-104.07
  0
LINE
  8
0
 10
104.446
 11
104.209
 20
-104.07
 21
-104.334
  0
LINE
  8
0
 10
104.209
 11
103.921
 20
-104.334
 21
-104.543
  0
LINE
  8
0
 10
103.921
 11
103.596
 20
-104.543
 21
-104.688
  0
LINE
  8
0
 10
103.596
 11
103.249
 20
-104.688
 21
-104.762
  0
LINE
  8
0
 10
103.249
 11
102.893
 20
-104.762
 21
-104.762
  0
LINE
  8
0
 10
102.893
 11
102.546
 20
-104.762
 21
-104.688
  0
LINE
  8
0
 10
102.546
 11
102.221
 20
-104.688
 21
-104.543
  0
LINE
  8
0
 10
102.221
 11
101.933
 20
-104.543
 21
-104.334
  0
LINE
  8
0
 10
101.933
 11
101.696
 20
-104.334
 21
-104.07
  0
LINE
  8
0
 10
101.696
 11
101.518
 20
-104.07
 21
-103.762
  0
LINE
  8
0
 10
101.518
 11
101.408
 20
-103.762
 21
-103.424
  0
LINE
  8
0
 10
101.408
 11
101.371
 20
-103.424
 21
-103.071
  0
LINE
  8
0
 10
101.371
 11
101.408
 20
103.071
 21
103.424
  0
LINE
  8
0
 10
101.408
 11
101.518
 20
103.424
 21
103.762
  0
LINE
  8
0
 10
101.518
 11
101.696
 20
103.762
 21
104.07
  0
LINE
  8
0
 10
101.696
 11
101.933
 20
104.07
 21
104.334
  0
LINE
  8
0
 10
101.933
 11
102.221
 20
104.334
 21
104.543
  0
LINE
  8
0
 10
102.221
 11
102.546
 20
104.543
 21
104.688
  0
LINE
  8
0
 10
102.546
 11
102.893
 20
104.688
 21
104.762
  0
LINE
  8
0
 10
102.893
 11
103.249
 20
104.762
 21
104.762
  0
LINE
  8
0
 10
103.249
 11
103.596
 20
104.762
 21
104.688
  0
LINE
  8
0
 10
103.596
 11
103.921
 20
104.688
 21
104.543
  0
LINE
  8
0
 10
103.921
 11
104.209
 20
104.543
 21
104.334
  0
LINE
  8
0
 10
104.209
 11
104.446
 20
104.334
 21
104.07
  0
LINE
  8
0
 10
104.446
 11
104.624
 20
104.07
 21
103.762
  0
LINE
  8
0
 10
104.624
 11
104.734
 20
103.762
 21
103.424
  0
LINE
  8
0
 10
104.734
 11
104.771
 20
103.424
 21
103.071
  0
LINE
  8
0
 10
104.771
 11
104.734
 20
103.071
 21
102.718
  0
LINE
  8
0
 10
104.734
 11
104.624
 20
102.718
 21
102.38
  0
LINE
  8
0
 10
104.624
 11
104.446
 20
102.38
 21
102.072
  0
LINE
  8
0
 10
104.446
 11
104.209
 20
102.072
 21
101.808
  0
LINE
  8
0
 10
104.209
 11
103.921
 20
101.808
 21
101.599
  0
LINE
  8
0
 10
103.921
 11
103.596
 20
101.599
 21
101.454
  0
LINE
  8
0
 10
103.596
 11
103.249
 20
101.454
 21
101.38
  0
LINE
  8
0
 10
103.249
 11
102.893
 20
101.38
 21
101.38
  0
LINE
  8
0
 10
102.893
 11
102.546
 20
101.38
 21
101.454
  0
LINE
  8
0
 10
102.546
 11
102.221
 20
101.454
 21
101.599
  0
LINE
  8
0
 10
102.221
 11
101.933
 20
101.599
 21
101.808
  0
LINE
  8
0
 10
101.933
 11
101.696
 20
101.808
 21
102.072
  0
LINE
  8
0
 10
101.696
 11
101.518
 20
102.072
 21
102.38
  0
LINE
  8
0
 10
101.518
 11
101.408
 20
102.38
 21
102.718
  0
LINE
  8
0
 10
101.408
 11
101.371
 20
102.718
 21
103.071
  0
ENDSEC
  0
SECTION
  2
OBJECTS
  0
DICTIONARY
  0
ENDSEC
  0
EOF
