  0
SECTION
  2
BLOCKS
  0
ENDSEC
  0
SECTION
  2
ENTITIES
  0
LINE
  8
0
 10
-10
 11
-10
 20
0
 21
20
  0
LINE
  8
0
 10
-10
 11
-9.781
 20
20
 21
22.079
  0
LINE
  8
0
 10
-9.781
 11
-9.135
 20
22.079
 21
24.067
  0
LINE
  8
0
 10
-9.135
 11
-8.09
 20
24.067
 21
25.878
  0
LINE
  8
0
 10
-8.09
 11
-6.691
 20
25.878
 21
27.431
  0
LINE
  8
0
 10
-6.691
 11
-5
 20
27.431
 21
28.66
  0
LINE
  8
0
 10
-5
 11
-3.09
 20
28.66
 21
29.511
  0
LINE
  8
0
 10
-3.09
 11
-1.5
 20
29.511
 21
29.848
  0
LINE
  8
0
 10
-1.5
 11
-1.5
 20
29.848
 21
22
  0
LINE
  8
0
 10
-1.5
 11
1.5
 20
22
 21
22
  0
LINE
  8
0
 10
1.5
 11
1.5
 20
22
 21
29.848
  0
LINE
  8
0
 10
1.5
 11
3.09
 20
29.848
 21
29.511
  0
LINE
  8
0
 10
3.09
 11
5
 20
29.511
 21
28.66
  0
LINE
  8
0
 10
5
 11
6.691
 20
28.66
 21
27.431
  0
LINE
  8
0
 10
6.691
 11
26.691
 20
27.431
 21
7.431
  0
LINE
  8
0
 10
26.691
 11
28.09
 20
7.431
 21
5.878
  0
LINE
  8
0
 10
28.09
 11
29.135
 20
5.878
 21
4.067
  0
LINE
  8
0
 10
29.135
 11
29.781
 20
4.067
 21
2.079
  0
LINE
  8
0
 10
29.781
 11
29.842
 20
2.079
 21
1.5
  0
LINE
  8
0
 10
29.842
 11
22
 20
1.5
 21
1.5
  0
LINE
  8
0
 10
22
 11
22
 20
1.5
 21
-1.5
  0
LINE
  8
0
 10
22
 11
29.842
 20
-1.5
 21
-1.5
  0
LINE
  8
0
 10
29.842
 11
29.781
 20
-1.5
 21
-2.079
  0
LINE
  8
0
 10
29.781
 11
29.135
 20
-2.079
 21
-4.067
  0
LINE
  8
0
 10
29.135
 11
28.09
 20
-4.067
 21
-5.878
  0
LINE
  8
0
 10
28.09
 11
26.691
 20
-5.878
 21
-7.431
  0
LINE
  8
0
 10
26.691
 11
25
 20
-7.431
 21
-8.66
  0
LINE
  8
0
 10
25
 11
23.09
 20
-8.66
 21
-9.511
  0
LINE
  8
0
 10
23.09
 11
21.045
 20
-9.511
 21
-9.945
  0
LINE
  8
0
 10
21.045
 11
-1.045
 20
-9.945
 21
-9.945
  0
LINE
  8
0
 10
-1.045
 11
-3.09
 20
-9.945
 21
-9.511
  0
LINE
  8
0
 10
-3.09
 11
-5
 20
-9.511
 21
-8.66
  0
LINE
  8
0
 10
-5
 11
-6.691
 20
-8.66
 21
-7.431
  0
LINE
  8
0
 10
-6.691
 11
-8.09
 20
-7.431
 21
-5.878
  0
LINE
  8
0
 10
-8.09
 11
-9.135
 20
-5.878
 21
-4.067
  0
LINE
  8
0
 10
-9.135
 11
-9.781
 20
-4.067
 21
-2.079
  0
LINE
  8
0
 10
-9.781
 11
-10
 20
-2.079
 21
0
  0
LINE
  8
0
 10
-2.675
 11
-1.337
 20
0
 21
2.317
  0
LINE
  8
0
 10
-1.337
 11
1.337
 20
2.317
 21
2.317
  0
LINE
  8
0
 10
1.337
 11
2.675
 20
2.317
 21
0
  0
LINE
  8
0
 10
2.675
 11
1.337
 20
0
 21
-2.317
  0
LINE
  8
0
 10
1.337
 11
-1.337
 20
-2.317
 21
-2.317
  0
LINE
  8
0
 10
-1.337
 11
-2.675
 20
-2.317
 21
0
  0
ENDSEC
  0
SECTION
  2
OBJECTS
  0
DICTIONARY
  0
ENDSEC
  0
EOF
