  0
SECTION
  2
BLOCKS
  0
ENDSEC
  0
SECTION
  2
ENTITIES
  0
LINE
  8
0
 10
101.571
 20
101.571
 11
101.212
 21
101.571
  0
LINE
  8
0
 10
101.212
 20
101.571
 11
101.571
 21
100.949
  0
LINE
  8
0
 10
101.571
 20
100.949
 11
101.571
 21
101.571
  0
LINE
  8
0
 10
-100.949
 20
101.571
 11
-101.571
 21
101.571
  0
LINE
  8
0
 10
-101.571
 20
101.571
 11
-101.571
 21
101.212
  0
LINE
  8
0
 10
-101.571
 20
101.212
 11
-100.949
 21
101.571
  0
LINE
  8
0
 10
73.5605
 20
-99.9809
 11
74.4108
 21
-98.0711
  0
LINE
  8
0
 10
74.4108
 20
-98.0711
 11
75.6396
 21
-96.3798
  0
LINE
  8
0
 10
75.6396
 20
-96.3798
 11
95.6396
 21
-76.3798
  0
LINE
  8
0
 10
95.6396
 20
-76.3798
 11
97.1932
 21
-74.9809
  0
LINE
  8
0
 10
97.1932
 20
-74.9809
 11
99.0037
 21
-73.9356
  0
LINE
  8
0
 10
99.0037
 20
-73.9356
 11
100.992
 21
-73.2896
  0
LINE
  8
0
 10
100.992
 20
-73.2896
 11
101.571
 21
-73.2287
  0
LINE
  8
0
 10
101.571
 20
-73.2287
 11
101.571
 21
73.2225
  0
LINE
  8
0
 10
101.571
 20
73.2225
 11
99.9809
 21
73.5605
  0
LINE
  8
0
 10
99.9809
 20
73.5605
 11
98.0711
 21
74.4108
  0
LINE
  8
0
 10
98.0711
 20
74.4108
 11
96.3798
 21
75.6396
  0
LINE
  8
0
 10
96.3798
 20
75.6396
 11
76.3798
 21
95.6396
  0
LINE
  8
0
 10
76.3798
 20
95.6396
 11
74.9809
 21
97.1932
  0
LINE
  8
0
 10
74.9809
 20
97.1932
 11
73.9356
 21
99.0037
  0
LINE
  8
0
 10
73.9356
 20
99.0037
 11
73.2896
 21
100.992
  0
LINE
  8
0
 10
73.2896
 20
100.992
 11
73.2287
 21
101.571
  0
LINE
  8
0
 10
73.2287
 20
101.571
 11
-73.2225
 21
101.571
  0
LINE
  8
0
 10
-73.2225
 20
101.571
 11
-73.5605
 21
99.9809
  0
LINE
  8
0
 10
-73.5605
 20
99.9809
 11
-74.4108
 21
98.0711
  0
LINE
  8
0
 10
-74.4108
 20
98.0711
 11
-75.6396
 21
96.3798
  0
LINE
  8
0
 10
-75.6396
 20
96.3798
 11
-95.6396
 21
76.3798
  0
LINE
  8
0
 10
-95.6396
 20
76.3798
 11
-97.1932
 21
74.9809
  0
LINE
  8
0
 10
-97.1932
 20
74.9809
 11
-99.0037
 21
73.9356
  0
LINE
  8
0
 10
-99.0037
 20
73.9356
 11
-100.992
 21
73.2896
  0
LINE
  8
0
 10
-100.992
 20
73.2896
 11
-101.571
 21
73.2287
  0
LINE
  8
0
 10
-101.571
 20
73.2287
 11
-101.571
 21
-73.2225
  0
LINE
  8
0
 10
-101.571
 20
-73.2225
 11
-99.9809
 21
-73.5605
  0
LINE
  8
0
 10
-99.9809
 20
-73.5605
 11
-98.0711
 21
-74.4108
  0
LINE
  8
0
 10
-98.0711
 20
-74.4108
 11
-96.3798
 21
-75.6396
  0
LINE
  8
0
 10
-96.3798
 20
-75.6396
 11
-76.3798
 21
-95.6396
  0
LINE
  8
0
 10
-76.3798
 20
-95.6396
 11
-74.9809
 21
-97.1932
  0
LINE
  8
0
 10
-74.9809
 20
-97.1932
 11
-73.9356
 21
-99.0037
  0
LINE
  8
0
 10
-73.9356
 20
-99.0037
 11
-73.2896
 21
-100.992
  0
LINE
  8
0
 10
-73.2896
 20
-100.992
 11
-73.2287
 21
-101.571
  0
LINE
  8
0
 10
-73.2287
 20
-101.571
 11
73.2225
 21
-101.571
  0
LINE
  8
0
 10
73.2225
 20
-101.571
 11
73.5605
 21
-99.9809
  0
LINE
  8
0
 10
-1.27524
 20
67.8668
 11
-3.77
 21
68.3971
  0
LINE
  8
0
 10
-3.77
 20
68.3971
 11
-6.09999
 21
69.4345
  0
LINE
  8
0
 10
-6.09999
 20
69.4345
 11
-8.16339
 21
70.9336
  0
LINE
  8
0
 10
-8.16339
 20
70.9336
 11
-9.87
 21
72.829
  0
LINE
  8
0
 10
-9.87
 20
72.829
 11
-11.1452
 21
75.0378
  0
LINE
  8
0
 10
-11.1452
 20
75.0378
 11
-11.9334
 21
77.4635
  0
LINE
  8
0
 10
-11.9334
 20
77.4635
 11
-12.2
 21
80
  0
LINE
  8
0
 10
-12.2
 20
80
 11
-11.9334
 21
82.5365
  0
LINE
  8
0
 10
-11.9334
 20
82.5365
 11
-11.1452
 21
84.9622
  0
LINE
  8
0
 10
-11.1452
 20
84.9622
 11
-9.87
 21
87.171
  0
LINE
  8
0
 10
-9.87
 20
87.171
 11
-8.16339
 21
89.0664
  0
LINE
  8
0
 10
-8.16339
 20
89.0664
 11
-6.09999
 21
90.5655
  0
LINE
  8
0
 10
-6.09999
 20
90.5655
 11
-3.77
 21
91.6029
  0
LINE
  8
0
 10
-3.77
 20
91.6029
 11
-1.27524
 21
92.1332
  0
LINE
  8
0
 10
-1.27524
 20
92.1332
 11
1.27524
 21
92.1332
  0
LINE
  8
0
 10
1.27524
 20
92.1332
 11
3.77
 21
91.6029
  0
LINE
  8
0
 10
3.77
 20
91.6029
 11
6.09999
 21
90.5655
  0
LINE
  8
0
 10
6.09999
 20
90.5655
 11
8.16339
 21
89.0664
  0
LINE
  8
0
 10
8.16339
 20
89.0664
 11
9.87
 21
87.171
  0
LINE
  8
0
 10
9.87
 20
87.171
 11
11.1452
 21
84.9622
  0
LINE
  8
0
 10
11.1452
 20
84.9622
 11
11.9334
 21
82.5365
  0
LINE
  8
0
 10
11.9334
 20
82.5365
 11
12.2
 21
80
  0
LINE
  8
0
 10
12.2
 20
80
 11
11.9334
 21
77.4635
  0
LINE
  8
0
 10
11.9334
 20
77.4635
 11
11.1452
 21
75.0378
  0
LINE
  8
0
 10
11.1452
 20
75.0378
 11
9.87
 21
72.829
  0
LINE
  8
0
 10
9.87
 20
72.829
 11
8.16339
 21
70.9336
  0
LINE
  8
0
 10
8.16339
 20
70.9336
 11
6.09999
 21
69.4345
  0
LINE
  8
0
 10
6.09999
 20
69.4345
 11
3.77
 21
68.3971
  0
LINE
  8
0
 10
3.77
 20
68.3971
 11
1.27524
 21
67.8668
  0
LINE
  8
0
 10
1.27524
 20
67.8668
 11
-1.27524
 21
67.8668
  0
LINE
  8
0
 10
-46.1673
 20
54.4088
 11
-46.4944
 21
54.4783
  0
LINE
  8
0
 10
-46.4944
 20
54.4783
 11
-46.8
 21
54.6143
  0
LINE
  8
0
 10
-46.8
 20
54.6143
 11
-47.0706
 21
54.811
  0
LINE
  8
0
 10
-47.0706
 20
54.811
 11
-47.2944
 21
55.0595
  0
LINE
  8
0
 10
-47.2944
 20
55.0595
 11
-47.4617
 21
55.3492
  0
LINE
  8
0
 10
-47.4617
 20
55.3492
 11
-47.565
 21
55.6673
  0
LINE
  8
0
 10
-47.565
 20
55.6673
 11
-47.6
 21
56
  0
LINE
  8
0
 10
-47.6
 20
56
 11
-47.565
 21
56.3327
  0
LINE
  8
0
 10
-47.565
 20
56.3327
 11
-47.4617
 21
56.6508
  0
LINE
  8
0
 10
-47.4617
 20
56.6508
 11
-47.2944
 21
56.9404
  0
LINE
  8
0
 10
-47.2944
 20
56.9404
 11
-47.0706
 21
57.189
  0
LINE
  8
0
 10
-47.0706
 20
57.189
 11
-46.8
 21
57.3856
  0
LINE
  8
0
 10
-46.8
 20
57.3856
 11
-46.4944
 21
57.5217
  0
LINE
  8
0
 10
-46.4944
 20
57.5217
 11
-46.1673
 21
57.5912
  0
LINE
  8
0
 10
-46.1673
 20
57.5912
 11
-45.8328
 21
57.5912
  0
LINE
  8
0
 10
-45.8328
 20
57.5912
 11
-45.5056
 21
57.5217
  0
LINE
  8
0
 10
-45.5056
 20
57.5217
 11
-45.2
 21
57.3856
  0
LINE
  8
0
 10
-45.2
 20
57.3856
 11
-44.9294
 21
57.189
  0
LINE
  8
0
 10
-44.9294
 20
57.189
 11
-44.7056
 21
56.9404
  0
LINE
  8
0
 10
-44.7056
 20
56.9404
 11
-44.5383
 21
56.6508
  0
LINE
  8
0
 10
-44.5383
 20
56.6508
 11
-44.435
 21
56.3327
  0
LINE
  8
0
 10
-44.435
 20
56.3327
 11
-44.4
 21
56
  0
LINE
  8
0
 10
-44.4
 20
56
 11
-44.435
 21
55.6673
  0
LINE
  8
0
 10
-44.435
 20
55.6673
 11
-44.5383
 21
55.3492
  0
LINE
  8
0
 10
-44.5383
 20
55.3492
 11
-44.7056
 21
55.0595
  0
LINE
  8
0
 10
-44.7056
 20
55.0595
 11
-44.9294
 21
54.811
  0
LINE
  8
0
 10
-44.9294
 20
54.811
 11
-45.2
 21
54.6143
  0
LINE
  8
0
 10
-45.2
 20
54.6143
 11
-45.5056
 21
54.4783
  0
LINE
  8
0
 10
-45.5056
 20
54.4783
 11
-45.8328
 21
54.4088
  0
LINE
  8
0
 10
-45.8328
 20
54.4088
 11
-46.1673
 21
54.4088
  0
LINE
  8
0
 10
53.8327
 20
54.4088
 11
53.5056
 21
54.4783
  0
LINE
  8
0
 10
53.5056
 20
54.4783
 11
53.2
 21
54.6143
  0
LINE
  8
0
 10
53.2
 20
54.6143
 11
52.9294
 21
54.811
  0
LINE
  8
0
 10
52.9294
 20
54.811
 11
52.7056
 21
55.0595
  0
LINE
  8
0
 10
52.7056
 20
55.0595
 11
52.5383
 21
55.3492
  0
LINE
  8
0
 10
52.5383
 20
55.3492
 11
52.435
 21
55.6673
  0
LINE
  8
0
 10
52.435
 20
55.6673
 11
52.4
 21
56
  0
LINE
  8
0
 10
52.4
 20
56
 11
52.435
 21
56.3327
  0
LINE
  8
0
 10
52.435
 20
56.3327
 11
52.5383
 21
56.6508
  0
LINE
  8
0
 10
52.5383
 20
56.6508
 11
52.7056
 21
56.9404
  0
LINE
  8
0
 10
52.7056
 20
56.9404
 11
52.9294
 21
57.189
  0
LINE
  8
0
 10
52.9294
 20
57.189
 11
53.2
 21
57.3856
  0
LINE
  8
0
 10
53.2
 20
57.3856
 11
53.5056
 21
57.5217
  0
LINE
  8
0
 10
53.5056
 20
57.5217
 11
53.8327
 21
57.5912
  0
LINE
  8
0
 10
53.8327
 20
57.5912
 11
54.1672
 21
57.5912
  0
LINE
  8
0
 10
54.1672
 20
57.5912
 11
54.4944
 21
57.5217
  0
LINE
  8
0
 10
54.4944
 20
57.5217
 11
54.8
 21
57.3856
  0
LINE
  8
0
 10
54.8
 20
57.3856
 11
55.0706
 21
57.189
  0
LINE
  8
0
 10
55.0706
 20
57.189
 11
55.2944
 21
56.9404
  0
LINE
  8
0
 10
55.2944
 20
56.9404
 11
55.4617
 21
56.6508
  0
LINE
  8
0
 10
55.4617
 20
56.6508
 11
55.565
 21
56.3327
  0
LINE
  8
0
 10
55.565
 20
56.3327
 11
55.6
 21
56
  0
LINE
  8
0
 10
55.6
 20
56
 11
55.565
 21
55.6673
  0
LINE
  8
0
 10
55.565
 20
55.6673
 11
55.4617
 21
55.3492
  0
LINE
  8
0
 10
55.4617
 20
55.3492
 11
55.2944
 21
55.0595
  0
LINE
  8
0
 10
55.2944
 20
55.0595
 11
55.0706
 21
54.811
  0
LINE
  8
0
 10
55.0706
 20
54.811
 11
54.8
 21
54.6143
  0
LINE
  8
0
 10
54.8
 20
54.6143
 11
54.4944
 21
54.4783
  0
LINE
  8
0
 10
54.4944
 20
54.4783
 11
54.1672
 21
54.4088
  0
LINE
  8
0
 10
54.1672
 20
54.4088
 11
53.8327
 21
54.4088
  0
LINE
  8
0
 10
-54.1672
 20
54.4088
 11
-54.4944
 21
54.4783
  0
LINE
  8
0
 10
-54.4944
 20
54.4783
 11
-54.8
 21
54.6143
  0
LINE
  8
0
 10
-54.8
 20
54.6143
 11
-55.0706
 21
54.811
  0
LINE
  8
0
 10
-55.0706
 20
54.811
 11
-55.2944
 21
55.0595
  0
LINE
  8
0
 10
-55.2944
 20
55.0595
 11
-55.4617
 21
55.3492
  0
LINE
  8
0
 10
-55.4617
 20
55.3492
 11
-55.565
 21
55.6673
  0
LINE
  8
0
 10
-55.565
 20
55.6673
 11
-55.6
 21
56
  0
LINE
  8
0
 10
-55.6
 20
56
 11
-55.565
 21
56.3327
  0
LINE
  8
0
 10
-55.565
 20
56.3327
 11
-55.4617
 21
56.6508
  0
LINE
  8
0
 10
-55.4617
 20
56.6508
 11
-55.2944
 21
56.9404
  0
LINE
  8
0
 10
-55.2944
 20
56.9404
 11
-55.0706
 21
57.189
  0
LINE
  8
0
 10
-55.0706
 20
57.189
 11
-54.8
 21
57.3856
  0
LINE
  8
0
 10
-54.8
 20
57.3856
 11
-54.4944
 21
57.5217
  0
LINE
  8
0
 10
-54.4944
 20
57.5217
 11
-54.1672
 21
57.5912
  0
LINE
  8
0
 10
-54.1672
 20
57.5912
 11
-53.8327
 21
57.5912
  0
LINE
  8
0
 10
-53.8327
 20
57.5912
 11
-53.5056
 21
57.5217
  0
LINE
  8
0
 10
-53.5056
 20
57.5217
 11
-53.2
 21
57.3856
  0
LINE
  8
0
 10
-53.2
 20
57.3856
 11
-52.9294
 21
57.189
  0
LINE
  8
0
 10
-52.9294
 20
57.189
 11
-52.7056
 21
56.9404
  0
LINE
  8
0
 10
-52.7056
 20
56.9404
 11
-52.5383
 21
56.6508
  0
LINE
  8
0
 10
-52.5383
 20
56.6508
 11
-52.435
 21
56.3327
  0
LINE
  8
0
 10
-52.435
 20
56.3327
 11
-52.4
 21
56
  0
LINE
  8
0
 10
-52.4
 20
56
 11
-52.435
 21
55.6673
  0
LINE
  8
0
 10
-52.435
 20
55.6673
 11
-52.5383
 21
55.3492
  0
LINE
  8
0
 10
-52.5383
 20
55.3492
 11
-52.7056
 21
55.0595
  0
LINE
  8
0
 10
-52.7056
 20
55.0595
 11
-52.9294
 21
54.811
  0
LINE
  8
0
 10
-52.9294
 20
54.811
 11
-53.2
 21
54.6143
  0
LINE
  8
0
 10
-53.2
 20
54.6143
 11
-53.5056
 21
54.4783
  0
LINE
  8
0
 10
-53.5056
 20
54.4783
 11
-53.8327
 21
54.4088
  0
LINE
  8
0
 10
-53.8327
 20
54.4088
 11
-54.1672
 21
54.4088
  0
LINE
  8
0
 10
45.8328
 20
54.4088
 11
45.5056
 21
54.4783
  0
LINE
  8
0
 10
45.5056
 20
54.4783
 11
45.2
 21
54.6143
  0
LINE
  8
0
 10
45.2
 20
54.6143
 11
44.9294
 21
54.811
  0
LINE
  8
0
 10
44.9294
 20
54.811
 11
44.7056
 21
55.0595
  0
LINE
  8
0
 10
44.7056
 20
55.0595
 11
44.5383
 21
55.3492
  0
LINE
  8
0
 10
44.5383
 20
55.3492
 11
44.435
 21
55.6673
  0
LINE
  8
0
 10
44.435
 20
55.6673
 11
44.4
 21
56
  0
LINE
  8
0
 10
44.4
 20
56
 11
44.435
 21
56.3327
  0
LINE
  8
0
 10
44.435
 20
56.3327
 11
44.5383
 21
56.6508
  0
LINE
  8
0
 10
44.5383
 20
56.6508
 11
44.7056
 21
56.9404
  0
LINE
  8
0
 10
44.7056
 20
56.9404
 11
44.9294
 21
57.189
  0
LINE
  8
0
 10
44.9294
 20
57.189
 11
45.2
 21
57.3856
  0
LINE
  8
0
 10
45.2
 20
57.3856
 11
45.5056
 21
57.5217
  0
LINE
  8
0
 10
45.5056
 20
57.5217
 11
45.8328
 21
57.5912
  0
LINE
  8
0
 10
45.8328
 20
57.5912
 11
46.1673
 21
57.5912
  0
LINE
  8
0
 10
46.1673
 20
57.5912
 11
46.4944
 21
57.5217
  0
LINE
  8
0
 10
46.4944
 20
57.5217
 11
46.8
 21
57.3856
  0
LINE
  8
0
 10
46.8
 20
57.3856
 11
47.0706
 21
57.189
  0
LINE
  8
0
 10
47.0706
 20
57.189
 11
47.2944
 21
56.9404
  0
LINE
  8
0
 10
47.2944
 20
56.9404
 11
47.4617
 21
56.6508
  0
LINE
  8
0
 10
47.4617
 20
56.6508
 11
47.565
 21
56.3327
  0
LINE
  8
0
 10
47.565
 20
56.3327
 11
47.6
 21
56
  0
LINE
  8
0
 10
47.6
 20
56
 11
47.565
 21
55.6673
  0
LINE
  8
0
 10
47.565
 20
55.6673
 11
47.4617
 21
55.3492
  0
LINE
  8
0
 10
47.4617
 20
55.3492
 11
47.2944
 21
55.0595
  0
LINE
  8
0
 10
47.2944
 20
55.0595
 11
47.0706
 21
54.811
  0
LINE
  8
0
 10
47.0706
 20
54.811
 11
46.8
 21
54.6143
  0
LINE
  8
0
 10
46.8
 20
54.6143
 11
46.4944
 21
54.4783
  0
LINE
  8
0
 10
46.4944
 20
54.4783
 11
46.1673
 21
54.4088
  0
LINE
  8
0
 10
46.1673
 20
54.4088
 11
45.8328
 21
54.4088
  0
LINE
  8
0
 10
53.8327
 20
42.4088
 11
53.5056
 21
42.4783
  0
LINE
  8
0
 10
53.5056
 20
42.4783
 11
53.2
 21
42.6144
  0
LINE
  8
0
 10
53.2
 20
42.6144
 11
52.9294
 21
42.811
  0
LINE
  8
0
 10
52.9294
 20
42.811
 11
52.7056
 21
43.0596
  0
LINE
  8
0
 10
52.7056
 20
43.0596
 11
52.5383
 21
43.3492
  0
LINE
  8
0
 10
52.5383
 20
43.3492
 11
52.435
 21
43.6673
  0
LINE
  8
0
 10
52.435
 20
43.6673
 11
52.4
 21
44
  0
LINE
  8
0
 10
52.4
 20
44
 11
52.435
 21
44.3327
  0
LINE
  8
0
 10
52.435
 20
44.3327
 11
52.5383
 21
44.6508
  0
LINE
  8
0
 10
52.5383
 20
44.6508
 11
52.7056
 21
44.9405
  0
LINE
  8
0
 10
52.7056
 20
44.9405
 11
52.9294
 21
45.189
  0
LINE
  8
0
 10
52.9294
 20
45.189
 11
53.2
 21
45.3857
  0
LINE
  8
0
 10
53.2
 20
45.3857
 11
53.5056
 21
45.5217
  0
LINE
  8
0
 10
53.5056
 20
45.5217
 11
53.8327
 21
45.5912
  0
LINE
  8
0
 10
53.8327
 20
45.5912
 11
54.1672
 21
45.5912
  0
LINE
  8
0
 10
54.1672
 20
45.5912
 11
54.4944
 21
45.5217
  0
LINE
  8
0
 10
54.4944
 20
45.5217
 11
54.8
 21
45.3857
  0
LINE
  8
0
 10
54.8
 20
45.3857
 11
55.0706
 21
45.189
  0
LINE
  8
0
 10
55.0706
 20
45.189
 11
55.2944
 21
44.9405
  0
LINE
  8
0
 10
55.2944
 20
44.9405
 11
55.4617
 21
44.6508
  0
LINE
  8
0
 10
55.4617
 20
44.6508
 11
55.565
 21
44.3327
  0
LINE
  8
0
 10
55.565
 20
44.3327
 11
55.6
 21
44
  0
LINE
  8
0
 10
55.6
 20
44
 11
55.565
 21
43.6673
  0
LINE
  8
0
 10
55.565
 20
43.6673
 11
55.4617
 21
43.3492
  0
LINE
  8
0
 10
55.4617
 20
43.3492
 11
55.2944
 21
43.0596
  0
LINE
  8
0
 10
55.2944
 20
43.0596
 11
55.0706
 21
42.811
  0
LINE
  8
0
 10
55.0706
 20
42.811
 11
54.8
 21
42.6144
  0
LINE
  8
0
 10
54.8
 20
42.6144
 11
54.4944
 21
42.4783
  0
LINE
  8
0
 10
54.4944
 20
42.4783
 11
54.1672
 21
42.4088
  0
LINE
  8
0
 10
54.1672
 20
42.4088
 11
53.8327
 21
42.4088
  0
LINE
  8
0
 10
45.8328
 20
42.4088
 11
45.5056
 21
42.4783
  0
LINE
  8
0
 10
45.5056
 20
42.4783
 11
45.2
 21
42.6144
  0
LINE
  8
0
 10
45.2
 20
42.6144
 11
44.9294
 21
42.811
  0
LINE
  8
0
 10
44.9294
 20
42.811
 11
44.7056
 21
43.0596
  0
LINE
  8
0
 10
44.7056
 20
43.0596
 11
44.5383
 21
43.3492
  0
LINE
  8
0
 10
44.5383
 20
43.3492
 11
44.435
 21
43.6673
  0
LINE
  8
0
 10
44.435
 20
43.6673
 11
44.4
 21
44
  0
LINE
  8
0
 10
44.4
 20
44
 11
44.435
 21
44.3327
  0
LINE
  8
0
 10
44.435
 20
44.3327
 11
44.5383
 21
44.6508
  0
LINE
  8
0
 10
44.5383
 20
44.6508
 11
44.7056
 21
44.9405
  0
LINE
  8
0
 10
44.7056
 20
44.9405
 11
44.9294
 21
45.189
  0
LINE
  8
0
 10
44.9294
 20
45.189
 11
45.2
 21
45.3857
  0
LINE
  8
0
 10
45.2
 20
45.3857
 11
45.5056
 21
45.5217
  0
LINE
  8
0
 10
45.5056
 20
45.5217
 11
45.8328
 21
45.5912
  0
LINE
  8
0
 10
45.8328
 20
45.5912
 11
46.1673
 21
45.5912
  0
LINE
  8
0
 10
46.1673
 20
45.5912
 11
46.4944
 21
45.5217
  0
LINE
  8
0
 10
46.4944
 20
45.5217
 11
46.8
 21
45.3857
  0
LINE
  8
0
 10
46.8
 20
45.3857
 11
47.0706
 21
45.189
  0
LINE
  8
0
 10
47.0706
 20
45.189
 11
47.2944
 21
44.9405
  0
LINE
  8
0
 10
47.2944
 20
44.9405
 11
47.4617
 21
44.6508
  0
LINE
  8
0
 10
47.4617
 20
44.6508
 11
47.565
 21
44.3327
  0
LINE
  8
0
 10
47.565
 20
44.3327
 11
47.6
 21
44
  0
LINE
  8
0
 10
47.6
 20
44
 11
47.565
 21
43.6673
  0
LINE
  8
0
 10
47.565
 20
43.6673
 11
47.4617
 21
43.3492
  0
LINE
  8
0
 10
47.4617
 20
43.3492
 11
47.2944
 21
43.0596
  0
LINE
  8
0
 10
47.2944
 20
43.0596
 11
47.0706
 21
42.811
  0
LINE
  8
0
 10
47.0706
 20
42.811
 11
46.8
 21
42.6144
  0
LINE
  8
0
 10
46.8
 20
42.6144
 11
46.4944
 21
42.4783
  0
LINE
  8
0
 10
46.4944
 20
42.4783
 11
46.1673
 21
42.4088
  0
LINE
  8
0
 10
46.1673
 20
42.4088
 11
45.8328
 21
42.4088
  0
LINE
  8
0
 10
-54.1672
 20
42.4088
 11
-54.4944
 21
42.4783
  0
LINE
  8
0
 10
-54.4944
 20
42.4783
 11
-54.8
 21
42.6144
  0
LINE
  8
0
 10
-54.8
 20
42.6144
 11
-55.0706
 21
42.811
  0
LINE
  8
0
 10
-55.0706
 20
42.811
 11
-55.2944
 21
43.0596
  0
LINE
  8
0
 10
-55.2944
 20
43.0596
 11
-55.4617
 21
43.3492
  0
LINE
  8
0
 10
-55.4617
 20
43.3492
 11
-55.565
 21
43.6673
  0
LINE
  8
0
 10
-55.565
 20
43.6673
 11
-55.6
 21
44
  0
LINE
  8
0
 10
-55.6
 20
44
 11
-55.565
 21
44.3327
  0
LINE
  8
0
 10
-55.565
 20
44.3327
 11
-55.4617
 21
44.6508
  0
LINE
  8
0
 10
-55.4617
 20
44.6508
 11
-55.2944
 21
44.9405
  0
LINE
  8
0
 10
-55.2944
 20
44.9405
 11
-55.0706
 21
45.189
  0
LINE
  8
0
 10
-55.0706
 20
45.189
 11
-54.8
 21
45.3857
  0
LINE
  8
0
 10
-54.8
 20
45.3857
 11
-54.4944
 21
45.5217
  0
LINE
  8
0
 10
-54.4944
 20
45.5217
 11
-54.1672
 21
45.5912
  0
LINE
  8
0
 10
-54.1672
 20
45.5912
 11
-53.8327
 21
45.5912
  0
LINE
  8
0
 10
-53.8327
 20
45.5912
 11
-53.5056
 21
45.5217
  0
LINE
  8
0
 10
-53.5056
 20
45.5217
 11
-53.2
 21
45.3857
  0
LINE
  8
0
 10
-53.2
 20
45.3857
 11
-52.9294
 21
45.189
  0
LINE
  8
0
 10
-52.9294
 20
45.189
 11
-52.7056
 21
44.9405
  0
LINE
  8
0
 10
-52.7056
 20
44.9405
 11
-52.5383
 21
44.6508
  0
LINE
  8
0
 10
-52.5383
 20
44.6508
 11
-52.435
 21
44.3327
  0
LINE
  8
0
 10
-52.435
 20
44.3327
 11
-52.4
 21
44
  0
LINE
  8
0
 10
-52.4
 20
44
 11
-52.435
 21
43.6673
  0
LINE
  8
0
 10
-52.435
 20
43.6673
 11
-52.5383
 21
43.3492
  0
LINE
  8
0
 10
-52.5383
 20
43.3492
 11
-52.7056
 21
43.0596
  0
LINE
  8
0
 10
-52.7056
 20
43.0596
 11
-52.9294
 21
42.811
  0
LINE
  8
0
 10
-52.9294
 20
42.811
 11
-53.2
 21
42.6144
  0
LINE
  8
0
 10
-53.2
 20
42.6144
 11
-53.5056
 21
42.4783
  0
LINE
  8
0
 10
-53.5056
 20
42.4783
 11
-53.8327
 21
42.4088
  0
LINE
  8
0
 10
-53.8327
 20
42.4088
 11
-54.1672
 21
42.4088
  0
LINE
  8
0
 10
-46.1673
 20
42.4088
 11
-46.4944
 21
42.4783
  0
LINE
  8
0
 10
-46.4944
 20
42.4783
 11
-46.8
 21
42.6144
  0
LINE
  8
0
 10
-46.8
 20
42.6144
 11
-47.0706
 21
42.811
  0
LINE
  8
0
 10
-47.0706
 20
42.811
 11
-47.2944
 21
43.0596
  0
LINE
  8
0
 10
-47.2944
 20
43.0596
 11
-47.4617
 21
43.3492
  0
LINE
  8
0
 10
-47.4617
 20
43.3492
 11
-47.565
 21
43.6673
  0
LINE
  8
0
 10
-47.565
 20
43.6673
 11
-47.6
 21
44
  0
LINE
  8
0
 10
-47.6
 20
44
 11
-47.565
 21
44.3327
  0
LINE
  8
0
 10
-47.565
 20
44.3327
 11
-47.4617
 21
44.6508
  0
LINE
  8
0
 10
-47.4617
 20
44.6508
 11
-47.2944
 21
44.9405
  0
LINE
  8
0
 10
-47.2944
 20
44.9405
 11
-47.0706
 21
45.189
  0
LINE
  8
0
 10
-47.0706
 20
45.189
 11
-46.8
 21
45.3857
  0
LINE
  8
0
 10
-46.8
 20
45.3857
 11
-46.4944
 21
45.5217
  0
LINE
  8
0
 10
-46.4944
 20
45.5217
 11
-46.1673
 21
45.5912
  0
LINE
  8
0
 10
-46.1673
 20
45.5912
 11
-45.8328
 21
45.5912
  0
LINE
  8
0
 10
-45.8328
 20
45.5912
 11
-45.5056
 21
45.5217
  0
LINE
  8
0
 10
-45.5056
 20
45.5217
 11
-45.2
 21
45.3857
  0
LINE
  8
0
 10
-45.2
 20
45.3857
 11
-44.9294
 21
45.189
  0
LINE
  8
0
 10
-44.9294
 20
45.189
 11
-44.7056
 21
44.9405
  0
LINE
  8
0
 10
-44.7056
 20
44.9405
 11
-44.5383
 21
44.6508
  0
LINE
  8
0
 10
-44.5383
 20
44.6508
 11
-44.435
 21
44.3327
  0
LINE
  8
0
 10
-44.435
 20
44.3327
 11
-44.4
 21
44
  0
LINE
  8
0
 10
-44.4
 20
44
 11
-44.435
 21
43.6673
  0
LINE
  8
0
 10
-44.435
 20
43.6673
 11
-44.5383
 21
43.3492
  0
LINE
  8
0
 10
-44.5383
 20
43.3492
 11
-44.7056
 21
43.0596
  0
LINE
  8
0
 10
-44.7056
 20
43.0596
 11
-44.9294
 21
42.811
  0
LINE
  8
0
 10
-44.9294
 20
42.811
 11
-45.2
 21
42.6144
  0
LINE
  8
0
 10
-45.2
 20
42.6144
 11
-45.5056
 21
42.4783
  0
LINE
  8
0
 10
-45.5056
 20
42.4783
 11
-45.8328
 21
42.4088
  0
LINE
  8
0
 10
-45.8328
 20
42.4088
 11
-46.1673
 21
42.4088
  0
LINE
  8
0
 10
-24.1667
 20
25
 11
-24.1667
 21
35
  0
LINE
  8
0
 10
-24.1667
 20
35
 11
-21.1667
 21
35
  0
LINE
  8
0
 10
-21.1667
 20
35
 11
-21.1667
 21
25
  0
LINE
  8
0
 10
-21.1667
 20
25
 11
-24.1667
 21
25
  0
LINE
  8
0
 10
21.1667
 20
25
 11
21.1667
 21
35
  0
LINE
  8
0
 10
21.1667
 20
35
 11
24.1667
 21
35
  0
LINE
  8
0
 10
24.1667
 20
35
 11
24.1667
 21
25
  0
LINE
  8
0
 10
24.1667
 20
25
 11
21.1667
 21
25
  0
LINE
  8
0
 10
-81.2752
 20
-12.1332
 11
-83.77
 21
-11.6029
  0
LINE
  8
0
 10
-83.77
 20
-11.6029
 11
-86.1
 21
-10.5655
  0
LINE
  8
0
 10
-86.1
 20
-10.5655
 11
-88.1634
 21
-9.06636
  0
LINE
  8
0
 10
-88.1634
 20
-9.06636
 11
-89.87
 21
-7.17097
  0
LINE
  8
0
 10
-89.87
 20
-7.17097
 11
-91.1452
 21
-4.96217
  0
LINE
  8
0
 10
-91.1452
 20
-4.96217
 11
-91.9334
 21
-2.53651
  0
LINE
  8
0
 10
-91.9334
 20
-2.53651
 11
-92.2
 21
0
  0
LINE
  8
0
 10
-92.2
 20
0
 11
-91.9334
 21
2.53651
  0
LINE
  8
0
 10
-91.9334
 20
2.53651
 11
-91.1452
 21
4.96217
  0
LINE
  8
0
 10
-91.1452
 20
4.96217
 11
-89.87
 21
7.17097
  0
LINE
  8
0
 10
-89.87
 20
7.17097
 11
-88.1634
 21
9.06636
  0
LINE
  8
0
 10
-88.1634
 20
9.06636
 11
-86.1
 21
10.5655
  0
LINE
  8
0
 10
-86.1
 20
10.5655
 11
-83.77
 21
11.6029
  0
LINE
  8
0
 10
-83.77
 20
11.6029
 11
-81.2752
 21
12.1332
  0
LINE
  8
0
 10
-81.2752
 20
12.1332
 11
-78.7247
 21
12.1332
  0
LINE
  8
0
 10
-78.7247
 20
12.1332
 11
-76.23
 21
11.6029
  0
LINE
  8
0
 10
-76.23
 20
11.6029
 11
-73.9
 21
10.5655
  0
LINE
  8
0
 10
-73.9
 20
10.5655
 11
-71.8366
 21
9.06636
  0
LINE
  8
0
 10
-71.8366
 20
9.06636
 11
-70.13
 21
7.17097
  0
LINE
  8
0
 10
-70.13
 20
7.17097
 11
-68.8547
 21
4.96217
  0
LINE
  8
0
 10
-68.8547
 20
4.96217
 11
-68.0666
 21
2.53651
  0
LINE
  8
0
 10
-68.0666
 20
2.53651
 11
-67.8
 21
0
  0
LINE
  8
0
 10
-67.8
 20
0
 11
-68.0666
 21
-2.53651
  0
LINE
  8
0
 10
-68.0666
 20
-2.53651
 11
-68.8547
 21
-4.96217
  0
LINE
  8
0
 10
-68.8547
 20
-4.96217
 11
-70.13
 21
-7.17097
  0
LINE
  8
0
 10
-70.13
 20
-7.17097
 11
-71.8366
 21
-9.06636
  0
LINE
  8
0
 10
-71.8366
 20
-9.06636
 11
-73.9
 21
-10.5655
  0
LINE
  8
0
 10
-73.9
 20
-10.5655
 11
-76.23
 21
-11.6029
  0
LINE
  8
0
 10
-76.23
 20
-11.6029
 11
-78.7247
 21
-12.1332
  0
LINE
  8
0
 10
-78.7247
 20
-12.1332
 11
-81.2752
 21
-12.1332
  0
LINE
  8
0
 10
78.7247
 20
-12.1332
 11
76.23
 21
-11.6029
  0
LINE
  8
0
 10
76.23
 20
-11.6029
 11
73.9
 21
-10.5655
  0
LINE
  8
0
 10
73.9
 20
-10.5655
 11
71.8366
 21
-9.06636
  0
LINE
  8
0
 10
71.8366
 20
-9.06636
 11
70.13
 21
-7.17097
  0
LINE
  8
0
 10
70.13
 20
-7.17097
 11
68.8547
 21
-4.96217
  0
LINE
  8
0
 10
68.8547
 20
-4.96217
 11
68.0666
 21
-2.53651
  0
LINE
  8
0
 10
68.0666
 20
-2.53651
 11
67.8
 21
0
  0
LINE
  8
0
 10
67.8
 20
0
 11
68.0666
 21
2.53651
  0
LINE
  8
0
 10
68.0666
 20
2.53651
 11
68.8547
 21
4.96217
  0
LINE
  8
0
 10
68.8547
 20
4.96217
 11
70.13
 21
7.17097
  0
LINE
  8
0
 10
70.13
 20
7.17097
 11
71.8366
 21
9.06636
  0
LINE
  8
0
 10
71.8366
 20
9.06636
 11
73.9
 21
10.5655
  0
LINE
  8
0
 10
73.9
 20
10.5655
 11
76.23
 21
11.6029
  0
LINE
  8
0
 10
76.23
 20
11.6029
 11
78.7247
 21
12.1332
  0
LINE
  8
0
 10
78.7247
 20
12.1332
 11
81.2752
 21
12.1332
  0
LINE
  8
0
 10
81.2752
 20
12.1332
 11
83.77
 21
11.6029
  0
LINE
  8
0
 10
83.77
 20
11.6029
 11
86.1
 21
10.5655
  0
LINE
  8
0
 10
86.1
 20
10.5655
 11
88.1634
 21
9.06636
  0
LINE
  8
0
 10
88.1634
 20
9.06636
 11
89.87
 21
7.17097
  0
LINE
  8
0
 10
89.87
 20
7.17097
 11
91.1452
 21
4.96217
  0
LINE
  8
0
 10
91.1452
 20
4.96217
 11
91.9334
 21
2.53651
  0
LINE
  8
0
 10
91.9334
 20
2.53651
 11
92.2
 21
0
  0
LINE
  8
0
 10
92.2
 20
0
 11
91.9334
 21
-2.53651
  0
LINE
  8
0
 10
91.9334
 20
-2.53651
 11
91.1452
 21
-4.96217
  0
LINE
  8
0
 10
91.1452
 20
-4.96217
 11
89.87
 21
-7.17097
  0
LINE
  8
0
 10
89.87
 20
-7.17097
 11
88.1634
 21
-9.06636
  0
LINE
  8
0
 10
88.1634
 20
-9.06636
 11
86.1
 21
-10.5655
  0
LINE
  8
0
 10
86.1
 20
-10.5655
 11
83.77
 21
-11.6029
  0
LINE
  8
0
 10
83.77
 20
-11.6029
 11
81.2752
 21
-12.1332
  0
LINE
  8
0
 10
81.2752
 20
-12.1332
 11
78.7247
 21
-12.1332
  0
LINE
  8
0
 10
-1.27524
 20
-12.1332
 11
-3.77
 21
-11.6029
  0
LINE
  8
0
 10
-3.77
 20
-11.6029
 11
-6.09999
 21
-10.5655
  0
LINE
  8
0
 10
-6.09999
 20
-10.5655
 11
-8.16339
 21
-9.06636
  0
LINE
  8
0
 10
-8.16339
 20
-9.06636
 11
-9.87
 21
-7.17097
  0
LINE
  8
0
 10
-9.87
 20
-7.17097
 11
-11.1452
 21
-4.96217
  0
LINE
  8
0
 10
-11.1452
 20
-4.96217
 11
-11.9334
 21
-2.53651
  0
LINE
  8
0
 10
-11.9334
 20
-2.53651
 11
-12.2
 21
0
  0
LINE
  8
0
 10
-12.2
 20
0
 11
-11.9334
 21
2.53651
  0
LINE
  8
0
 10
-11.9334
 20
2.53651
 11
-11.1452
 21
4.96217
  0
LINE
  8
0
 10
-11.1452
 20
4.96217
 11
-9.87
 21
7.17097
  0
LINE
  8
0
 10
-9.87
 20
7.17097
 11
-8.16339
 21
9.06636
  0
LINE
  8
0
 10
-8.16339
 20
9.06636
 11
-6.09999
 21
10.5655
  0
LINE
  8
0
 10
-6.09999
 20
10.5655
 11
-3.77
 21
11.6029
  0
LINE
  8
0
 10
-3.77
 20
11.6029
 11
-1.27524
 21
12.1332
  0
LINE
  8
0
 10
-1.27524
 20
12.1332
 11
1.27524
 21
12.1332
  0
LINE
  8
0
 10
1.27524
 20
12.1332
 11
3.77
 21
11.6029
  0
LINE
  8
0
 10
3.77
 20
11.6029
 11
6.09999
 21
10.5655
  0
LINE
  8
0
 10
6.09999
 20
10.5655
 11
8.16339
 21
9.06636
  0
LINE
  8
0
 10
8.16339
 20
9.06636
 11
9.87
 21
7.17097
  0
LINE
  8
0
 10
9.87
 20
7.17097
 11
11.1452
 21
4.96217
  0
LINE
  8
0
 10
11.1452
 20
4.96217
 11
11.9334
 21
2.53651
  0
LINE
  8
0
 10
11.9334
 20
2.53651
 11
12.2
 21
0
  0
LINE
  8
0
 10
12.2
 20
0
 11
11.9334
 21
-2.53651
  0
LINE
  8
0
 10
11.9334
 20
-2.53651
 11
11.1452
 21
-4.96217
  0
LINE
  8
0
 10
11.1452
 20
-4.96217
 11
9.87
 21
-7.17097
  0
LINE
  8
0
 10
9.87
 20
-7.17097
 11
8.16339
 21
-9.06636
  0
LINE
  8
0
 10
8.16339
 20
-9.06636
 11
6.09999
 21
-10.5655
  0
LINE
  8
0
 10
6.09999
 20
-10.5655
 11
3.77
 21
-11.6029
  0
LINE
  8
0
 10
3.77
 20
-11.6029
 11
1.27524
 21
-12.1332
  0
LINE
  8
0
 10
1.27524
 20
-12.1332
 11
-1.27524
 21
-12.1332
  0
LINE
  8
0
 10
-18.0087
 20
-21.551
 11
-18.2274
 21
-21.4799
  0
LINE
  8
0
 10
-18.2274
 20
-21.4799
 11
-18.4266
 21
-21.3649
  0
LINE
  8
0
 10
-18.4266
 20
-21.3649
 11
-18.5975
 21
-21.211
  0
LINE
  8
0
 10
-18.5975
 20
-21.211
 11
-18.7326
 21
-21.025
  0
LINE
  8
0
 10
-18.7326
 20
-21.025
 11
-18.8262
 21
-20.8149
  0
LINE
  8
0
 10
-18.8262
 20
-20.8149
 11
-18.874
 21
-20.59
  0
LINE
  8
0
 10
-18.874
 20
-20.59
 11
-18.874
 21
-20.36
  0
LINE
  8
0
 10
-18.874
 20
-20.36
 11
-18.8262
 21
-20.1351
  0
LINE
  8
0
 10
-18.8262
 20
-20.1351
 11
-18.7326
 21
-19.925
  0
LINE
  8
0
 10
-18.7326
 20
-19.925
 11
-18.5975
 21
-19.739
  0
LINE
  8
0
 10
-18.5975
 20
-19.739
 11
-18.4266
 21
-19.5851
  0
LINE
  8
0
 10
-18.4266
 20
-19.5851
 11
-18.2274
 21
-19.4701
  0
LINE
  8
0
 10
-18.2274
 20
-19.4701
 11
-18.0087
 21
-19.399
  0
LINE
  8
0
 10
-18.0087
 20
-19.399
 11
-17.78
 21
-19.375
  0
LINE
  8
0
 10
-17.78
 20
-19.375
 11
-17.5513
 21
-19.399
  0
LINE
  8
0
 10
-17.5513
 20
-19.399
 11
-17.3326
 21
-19.4701
  0
LINE
  8
0
 10
-17.3326
 20
-19.4701
 11
-17.1334
 21
-19.5851
  0
LINE
  8
0
 10
-17.1334
 20
-19.5851
 11
-16.9625
 21
-19.739
  0
LINE
  8
0
 10
-16.9625
 20
-19.739
 11
-16.8274
 21
-19.925
  0
LINE
  8
0
 10
-16.8274
 20
-19.925
 11
-16.7338
 21
-20.1351
  0
LINE
  8
0
 10
-16.7338
 20
-20.1351
 11
-16.686
 21
-20.36
  0
LINE
  8
0
 10
-16.686
 20
-20.36
 11
-16.686
 21
-20.59
  0
LINE
  8
0
 10
-16.686
 20
-20.59
 11
-16.7338
 21
-20.8149
  0
LINE
  8
0
 10
-16.7338
 20
-20.8149
 11
-16.8274
 21
-21.025
  0
LINE
  8
0
 10
-16.8274
 20
-21.025
 11
-16.9625
 21
-21.211
  0
LINE
  8
0
 10
-16.9625
 20
-21.211
 11
-17.1334
 21
-21.3649
  0
LINE
  8
0
 10
-17.1334
 20
-21.3649
 11
-17.3326
 21
-21.4799
  0
LINE
  8
0
 10
-17.3326
 20
-21.4799
 11
-17.5513
 21
-21.551
  0
LINE
  8
0
 10
-17.5513
 20
-21.551
 11
-17.78
 21
-21.575
  0
LINE
  8
0
 10
-17.78
 20
-21.575
 11
-18.0087
 21
-21.551
  0
LINE
  8
0
 10
17.5513
 20
-21.551
 11
17.3326
 21
-21.4799
  0
LINE
  8
0
 10
17.3326
 20
-21.4799
 11
17.1334
 21
-21.3649
  0
LINE
  8
0
 10
17.1334
 20
-21.3649
 11
16.9625
 21
-21.211
  0
LINE
  8
0
 10
16.9625
 20
-21.211
 11
16.8274
 21
-21.025
  0
LINE
  8
0
 10
16.8274
 20
-21.025
 11
16.7338
 21
-20.8149
  0
LINE
  8
0
 10
16.7338
 20
-20.8149
 11
16.686
 21
-20.59
  0
LINE
  8
0
 10
16.686
 20
-20.59
 11
16.686
 21
-20.36
  0
LINE
  8
0
 10
16.686
 20
-20.36
 11
16.7338
 21
-20.1351
  0
LINE
  8
0
 10
16.7338
 20
-20.1351
 11
16.8274
 21
-19.925
  0
LINE
  8
0
 10
16.8274
 20
-19.925
 11
16.9625
 21
-19.739
  0
LINE
  8
0
 10
16.9625
 20
-19.739
 11
17.1334
 21
-19.5851
  0
LINE
  8
0
 10
17.1334
 20
-19.5851
 11
17.3326
 21
-19.4701
  0
LINE
  8
0
 10
17.3326
 20
-19.4701
 11
17.5513
 21
-19.399
  0
LINE
  8
0
 10
17.5513
 20
-19.399
 11
17.78
 21
-19.375
  0
LINE
  8
0
 10
17.78
 20
-19.375
 11
18.0087
 21
-19.399
  0
LINE
  8
0
 10
18.0087
 20
-19.399
 11
18.2274
 21
-19.4701
  0
LINE
  8
0
 10
18.2274
 20
-19.4701
 11
18.4266
 21
-19.5851
  0
LINE
  8
0
 10
18.4266
 20
-19.5851
 11
18.5975
 21
-19.739
  0
LINE
  8
0
 10
18.5975
 20
-19.739
 11
18.7326
 21
-19.925
  0
LINE
  8
0
 10
18.7326
 20
-19.925
 11
18.8262
 21
-20.1351
  0
LINE
  8
0
 10
18.8262
 20
-20.1351
 11
18.874
 21
-20.36
  0
LINE
  8
0
 10
18.874
 20
-20.36
 11
18.874
 21
-20.59
  0
LINE
  8
0
 10
18.874
 20
-20.59
 11
18.8262
 21
-20.8149
  0
LINE
  8
0
 10
18.8262
 20
-20.8149
 11
18.7326
 21
-21.025
  0
LINE
  8
0
 10
18.7326
 20
-21.025
 11
18.5975
 21
-21.211
  0
LINE
  8
0
 10
18.5975
 20
-21.211
 11
18.4266
 21
-21.3649
  0
LINE
  8
0
 10
18.4266
 20
-21.3649
 11
18.2274
 21
-21.4799
  0
LINE
  8
0
 10
18.2274
 20
-21.4799
 11
18.0087
 21
-21.551
  0
LINE
  8
0
 10
18.0087
 20
-21.551
 11
17.78
 21
-21.575
  0
LINE
  8
0
 10
17.78
 20
-21.575
 11
17.5513
 21
-21.551
  0
LINE
  8
0
 10
-18.0087
 20
-40.601
 11
-18.2274
 21
-40.5299
  0
LINE
  8
0
 10
-18.2274
 20
-40.5299
 11
-18.4266
 21
-40.4149
  0
LINE
  8
0
 10
-18.4266
 20
-40.4149
 11
-18.5975
 21
-40.261
  0
LINE
  8
0
 10
-18.5975
 20
-40.261
 11
-18.7326
 21
-40.075
  0
LINE
  8
0
 10
-18.7326
 20
-40.075
 11
-18.8262
 21
-39.8649
  0
LINE
  8
0
 10
-18.8262
 20
-39.8649
 11
-18.874
 21
-39.64
  0
LINE
  8
0
 10
-18.874
 20
-39.64
 11
-18.874
 21
-39.41
  0
LINE
  8
0
 10
-18.874
 20
-39.41
 11
-18.8262
 21
-39.1851
  0
LINE
  8
0
 10
-18.8262
 20
-39.1851
 11
-18.7326
 21
-38.975
  0
LINE
  8
0
 10
-18.7326
 20
-38.975
 11
-18.5975
 21
-38.789
  0
LINE
  8
0
 10
-18.5975
 20
-38.789
 11
-18.4266
 21
-38.6351
  0
LINE
  8
0
 10
-18.4266
 20
-38.6351
 11
-18.2274
 21
-38.5201
  0
LINE
  8
0
 10
-18.2274
 20
-38.5201
 11
-18.0087
 21
-38.449
  0
LINE
  8
0
 10
-18.0087
 20
-38.449
 11
-17.78
 21
-38.425
  0
LINE
  8
0
 10
-17.78
 20
-38.425
 11
-17.5513
 21
-38.449
  0
LINE
  8
0
 10
-17.5513
 20
-38.449
 11
-17.3326
 21
-38.5201
  0
LINE
  8
0
 10
-17.3326
 20
-38.5201
 11
-17.1334
 21
-38.6351
  0
LINE
  8
0
 10
-17.1334
 20
-38.6351
 11
-16.9625
 21
-38.789
  0
LINE
  8
0
 10
-16.9625
 20
-38.789
 11
-16.8274
 21
-38.975
  0
LINE
  8
0
 10
-16.8274
 20
-38.975
 11
-16.7338
 21
-39.1851
  0
LINE
  8
0
 10
-16.7338
 20
-39.1851
 11
-16.686
 21
-39.41
  0
LINE
  8
0
 10
-16.686
 20
-39.41
 11
-16.686
 21
-39.64
  0
LINE
  8
0
 10
-16.686
 20
-39.64
 11
-16.7338
 21
-39.8649
  0
LINE
  8
0
 10
-16.7338
 20
-39.8649
 11
-16.8274
 21
-40.075
  0
LINE
  8
0
 10
-16.8274
 20
-40.075
 11
-16.9625
 21
-40.261
  0
LINE
  8
0
 10
-16.9625
 20
-40.261
 11
-17.1334
 21
-40.4149
  0
LINE
  8
0
 10
-17.1334
 20
-40.4149
 11
-17.3326
 21
-40.5299
  0
LINE
  8
0
 10
-17.3326
 20
-40.5299
 11
-17.5513
 21
-40.601
  0
LINE
  8
0
 10
-17.5513
 20
-40.601
 11
-17.78
 21
-40.625
  0
LINE
  8
0
 10
-17.78
 20
-40.625
 11
-18.0087
 21
-40.601
  0
LINE
  8
0
 10
17.5513
 20
-40.601
 11
17.3326
 21
-40.5299
  0
LINE
  8
0
 10
17.3326
 20
-40.5299
 11
17.1334
 21
-40.4149
  0
LINE
  8
0
 10
17.1334
 20
-40.4149
 11
16.9625
 21
-40.261
  0
LINE
  8
0
 10
16.9625
 20
-40.261
 11
16.8274
 21
-40.075
  0
LINE
  8
0
 10
16.8274
 20
-40.075
 11
16.7338
 21
-39.8649
  0
LINE
  8
0
 10
16.7338
 20
-39.8649
 11
16.686
 21
-39.64
  0
LINE
  8
0
 10
16.686
 20
-39.64
 11
16.686
 21
-39.41
  0
LINE
  8
0
 10
16.686
 20
-39.41
 11
16.7338
 21
-39.1851
  0
LINE
  8
0
 10
16.7338
 20
-39.1851
 11
16.8274
 21
-38.975
  0
LINE
  8
0
 10
16.8274
 20
-38.975
 11
16.9625
 21
-38.789
  0
LINE
  8
0
 10
16.9625
 20
-38.789
 11
17.1334
 21
-38.6351
  0
LINE
  8
0
 10
17.1334
 20
-38.6351
 11
17.3326
 21
-38.5201
  0
LINE
  8
0
 10
17.3326
 20
-38.5201
 11
17.5513
 21
-38.449
  0
LINE
  8
0
 10
17.5513
 20
-38.449
 11
17.78
 21
-38.425
  0
LINE
  8
0
 10
17.78
 20
-38.425
 11
18.0087
 21
-38.449
  0
LINE
  8
0
 10
18.0087
 20
-38.449
 11
18.2274
 21
-38.5201
  0
LINE
  8
0
 10
18.2274
 20
-38.5201
 11
18.4266
 21
-38.6351
  0
LINE
  8
0
 10
18.4266
 20
-38.6351
 11
18.5975
 21
-38.789
  0
LINE
  8
0
 10
18.5975
 20
-38.789
 11
18.7326
 21
-38.975
  0
LINE
  8
0
 10
18.7326
 20
-38.975
 11
18.8262
 21
-39.1851
  0
LINE
  8
0
 10
18.8262
 20
-39.1851
 11
18.874
 21
-39.41
  0
LINE
  8
0
 10
18.874
 20
-39.41
 11
18.874
 21
-39.64
  0
LINE
  8
0
 10
18.874
 20
-39.64
 11
18.8262
 21
-39.8649
  0
LINE
  8
0
 10
18.8262
 20
-39.8649
 11
18.7326
 21
-40.075
  0
LINE
  8
0
 10
18.7326
 20
-40.075
 11
18.5975
 21
-40.261
  0
LINE
  8
0
 10
18.5975
 20
-40.261
 11
18.4266
 21
-40.4149
  0
LINE
  8
0
 10
18.4266
 20
-40.4149
 11
18.2274
 21
-40.5299
  0
LINE
  8
0
 10
18.2274
 20
-40.5299
 11
18.0087
 21
-40.601
  0
LINE
  8
0
 10
18.0087
 20
-40.601
 11
17.78
 21
-40.625
  0
LINE
  8
0
 10
17.78
 20
-40.625
 11
17.5513
 21
-40.601
  0
LINE
  8
0
 10
-75.4383
 20
-43.6623
 11
-75.7655
 21
-43.5928
  0
LINE
  8
0
 10
-75.7655
 20
-43.5928
 11
-76.0711
 21
-43.4567
  0
LINE
  8
0
 10
-76.0711
 20
-43.4567
 11
-76.3417
 21
-43.2601
  0
LINE
  8
0
 10
-76.3417
 20
-43.2601
 11
-76.5655
 21
-43.0115
  0
LINE
  8
0
 10
-76.5655
 20
-43.0115
 11
-76.7327
 21
-42.7218
  0
LINE
  8
0
 10
-76.7327
 20
-42.7218
 11
-76.8361
 21
-42.4037
  0
LINE
  8
0
 10
-76.8361
 20
-42.4037
 11
-76.8711
 21
-42.0711
  0
LINE
  8
0
 10
-76.8711
 20
-42.0711
 11
-76.8361
 21
-41.7384
  0
LINE
  8
0
 10
-76.8361
 20
-41.7384
 11
-76.7327
 21
-41.4203
  0
LINE
  8
0
 10
-76.7327
 20
-41.4203
 11
-76.5655
 21
-41.1306
  0
LINE
  8
0
 10
-76.5655
 20
-41.1306
 11
-76.3417
 21
-40.882
  0
LINE
  8
0
 10
-76.3417
 20
-40.882
 11
-76.0711
 21
-40.6854
  0
LINE
  8
0
 10
-76.0711
 20
-40.6854
 11
-75.7655
 21
-40.5494
  0
LINE
  8
0
 10
-75.7655
 20
-40.5494
 11
-75.4383
 21
-40.4798
  0
LINE
  8
0
 10
-75.4383
 20
-40.4798
 11
-75.1038
 21
-40.4798
  0
LINE
  8
0
 10
-75.1038
 20
-40.4798
 11
-74.7766
 21
-40.5494
  0
LINE
  8
0
 10
-74.7766
 20
-40.5494
 11
-74.4711
 21
-40.6854
  0
LINE
  8
0
 10
-74.4711
 20
-40.6854
 11
-74.2005
 21
-40.882
  0
LINE
  8
0
 10
-74.2005
 20
-40.882
 11
-73.9766
 21
-41.1306
  0
LINE
  8
0
 10
-73.9766
 20
-41.1306
 11
-73.8094
 21
-41.4203
  0
LINE
  8
0
 10
-73.8094
 20
-41.4203
 11
-73.706
 21
-41.7384
  0
LINE
  8
0
 10
-73.706
 20
-41.7384
 11
-73.6711
 21
-42.0711
  0
LINE
  8
0
 10
-73.6711
 20
-42.0711
 11
-73.706
 21
-42.4037
  0
LINE
  8
0
 10
-73.706
 20
-42.4037
 11
-73.8094
 21
-42.7218
  0
LINE
  8
0
 10
-73.8094
 20
-42.7218
 11
-73.9766
 21
-43.0115
  0
LINE
  8
0
 10
-73.9766
 20
-43.0115
 11
-74.2005
 21
-43.2601
  0
LINE
  8
0
 10
-74.2005
 20
-43.2601
 11
-74.4711
 21
-43.4567
  0
LINE
  8
0
 10
-74.4711
 20
-43.4567
 11
-74.7766
 21
-43.5928
  0
LINE
  8
0
 10
-74.7766
 20
-43.5928
 11
-75.1038
 21
-43.6623
  0
LINE
  8
0
 10
-75.1038
 20
-43.6623
 11
-75.4383
 21
-43.6623
  0
LINE
  8
0
 10
-97.7383
 20
-43.6623
 11
-98.0655
 21
-43.5928
  0
LINE
  8
0
 10
-98.0655
 20
-43.5928
 11
-98.3711
 21
-43.4567
  0
LINE
  8
0
 10
-98.3711
 20
-43.4567
 11
-98.6417
 21
-43.2601
  0
LINE
  8
0
 10
-98.6417
 20
-43.2601
 11
-98.8655
 21
-43.0115
  0
LINE
  8
0
 10
-98.8655
 20
-43.0115
 11
-99.0327
 21
-42.7218
  0
LINE
  8
0
 10
-99.0327
 20
-42.7218
 11
-99.1361
 21
-42.4037
  0
LINE
  8
0
 10
-99.1361
 20
-42.4037
 11
-99.1711
 21
-42.0711
  0
LINE
  8
0
 10
-99.1711
 20
-42.0711
 11
-99.1361
 21
-41.7384
  0
LINE
  8
0
 10
-99.1361
 20
-41.7384
 11
-99.0327
 21
-41.4203
  0
LINE
  8
0
 10
-99.0327
 20
-41.4203
 11
-98.8655
 21
-41.1306
  0
LINE
  8
0
 10
-98.8655
 20
-41.1306
 11
-98.6417
 21
-40.882
  0
LINE
  8
0
 10
-98.6417
 20
-40.882
 11
-98.3711
 21
-40.6854
  0
LINE
  8
0
 10
-98.3711
 20
-40.6854
 11
-98.0655
 21
-40.5494
  0
LINE
  8
0
 10
-98.0655
 20
-40.5494
 11
-97.7383
 21
-40.4798
  0
LINE
  8
0
 10
-97.7383
 20
-40.4798
 11
-97.4038
 21
-40.4798
  0
LINE
  8
0
 10
-97.4038
 20
-40.4798
 11
-97.0766
 21
-40.5494
  0
LINE
  8
0
 10
-97.0766
 20
-40.5494
 11
-96.7711
 21
-40.6854
  0
LINE
  8
0
 10
-96.7711
 20
-40.6854
 11
-96.5005
 21
-40.882
  0
LINE
  8
0
 10
-96.5005
 20
-40.882
 11
-96.2766
 21
-41.1306
  0
LINE
  8
0
 10
-96.2766
 20
-41.1306
 11
-96.1094
 21
-41.4203
  0
LINE
  8
0
 10
-96.1094
 20
-41.4203
 11
-96.006
 21
-41.7384
  0
LINE
  8
0
 10
-96.006
 20
-41.7384
 11
-95.9711
 21
-42.0711
  0
LINE
  8
0
 10
-95.9711
 20
-42.0711
 11
-96.006
 21
-42.4037
  0
LINE
  8
0
 10
-96.006
 20
-42.4037
 11
-96.1094
 21
-42.7218
  0
LINE
  8
0
 10
-96.1094
 20
-42.7218
 11
-96.2766
 21
-43.0115
  0
LINE
  8
0
 10
-96.2766
 20
-43.0115
 11
-96.5005
 21
-43.2601
  0
LINE
  8
0
 10
-96.5005
 20
-43.2601
 11
-96.7711
 21
-43.4567
  0
LINE
  8
0
 10
-96.7711
 20
-43.4567
 11
-97.0766
 21
-43.5928
  0
LINE
  8
0
 10
-97.0766
 20
-43.5928
 11
-97.4038
 21
-43.6623
  0
LINE
  8
0
 10
-97.4038
 20
-43.6623
 11
-97.7383
 21
-43.6623
  0
LINE
  8
0
 10
53.8327
 20
-45.5912
 11
53.5056
 21
-45.5217
  0
LINE
  8
0
 10
53.5056
 20
-45.5217
 11
53.2
 21
-45.3857
  0
LINE
  8
0
 10
53.2
 20
-45.3857
 11
52.9294
 21
-45.189
  0
LINE
  8
0
 10
52.9294
 20
-45.189
 11
52.7056
 21
-44.9405
  0
LINE
  8
0
 10
52.7056
 20
-44.9405
 11
52.5383
 21
-44.6508
  0
LINE
  8
0
 10
52.5383
 20
-44.6508
 11
52.435
 21
-44.3327
  0
LINE
  8
0
 10
52.435
 20
-44.3327
 11
52.4
 21
-44
  0
LINE
  8
0
 10
52.4
 20
-44
 11
52.435
 21
-43.6673
  0
LINE
  8
0
 10
52.435
 20
-43.6673
 11
52.5383
 21
-43.3492
  0
LINE
  8
0
 10
52.5383
 20
-43.3492
 11
52.7056
 21
-43.0596
  0
LINE
  8
0
 10
52.7056
 20
-43.0596
 11
52.9294
 21
-42.811
  0
LINE
  8
0
 10
52.9294
 20
-42.811
 11
53.2
 21
-42.6144
  0
LINE
  8
0
 10
53.2
 20
-42.6144
 11
53.5056
 21
-42.4783
  0
LINE
  8
0
 10
53.5056
 20
-42.4783
 11
53.8327
 21
-42.4088
  0
LINE
  8
0
 10
53.8327
 20
-42.4088
 11
54.1672
 21
-42.4088
  0
LINE
  8
0
 10
54.1672
 20
-42.4088
 11
54.4944
 21
-42.4783
  0
LINE
  8
0
 10
54.4944
 20
-42.4783
 11
54.8
 21
-42.6144
  0
LINE
  8
0
 10
54.8
 20
-42.6144
 11
55.0706
 21
-42.811
  0
LINE
  8
0
 10
55.0706
 20
-42.811
 11
55.2944
 21
-43.0596
  0
LINE
  8
0
 10
55.2944
 20
-43.0596
 11
55.4617
 21
-43.3492
  0
LINE
  8
0
 10
55.4617
 20
-43.3492
 11
55.565
 21
-43.6673
  0
LINE
  8
0
 10
55.565
 20
-43.6673
 11
55.6
 21
-44
  0
LINE
  8
0
 10
55.6
 20
-44
 11
55.565
 21
-44.3327
  0
LINE
  8
0
 10
55.565
 20
-44.3327
 11
55.4617
 21
-44.6508
  0
LINE
  8
0
 10
55.4617
 20
-44.6508
 11
55.2944
 21
-44.9405
  0
LINE
  8
0
 10
55.2944
 20
-44.9405
 11
55.0706
 21
-45.189
  0
LINE
  8
0
 10
55.0706
 20
-45.189
 11
54.8
 21
-45.3857
  0
LINE
  8
0
 10
54.8
 20
-45.3857
 11
54.4944
 21
-45.5217
  0
LINE
  8
0
 10
54.4944
 20
-45.5217
 11
54.1672
 21
-45.5912
  0
LINE
  8
0
 10
54.1672
 20
-45.5912
 11
53.8327
 21
-45.5912
  0
LINE
  8
0
 10
45.8328
 20
-45.5912
 11
45.5056
 21
-45.5217
  0
LINE
  8
0
 10
45.5056
 20
-45.5217
 11
45.2
 21
-45.3857
  0
LINE
  8
0
 10
45.2
 20
-45.3857
 11
44.9294
 21
-45.189
  0
LINE
  8
0
 10
44.9294
 20
-45.189
 11
44.7056
 21
-44.9405
  0
LINE
  8
0
 10
44.7056
 20
-44.9405
 11
44.5383
 21
-44.6508
  0
LINE
  8
0
 10
44.5383
 20
-44.6508
 11
44.435
 21
-44.3327
  0
LINE
  8
0
 10
44.435
 20
-44.3327
 11
44.4
 21
-44
  0
LINE
  8
0
 10
44.4
 20
-44
 11
44.435
 21
-43.6673
  0
LINE
  8
0
 10
44.435
 20
-43.6673
 11
44.5383
 21
-43.3492
  0
LINE
  8
0
 10
44.5383
 20
-43.3492
 11
44.7056
 21
-43.0596
  0
LINE
  8
0
 10
44.7056
 20
-43.0596
 11
44.9294
 21
-42.811
  0
LINE
  8
0
 10
44.9294
 20
-42.811
 11
45.2
 21
-42.6144
  0
LINE
  8
0
 10
45.2
 20
-42.6144
 11
45.5056
 21
-42.4783
  0
LINE
  8
0
 10
45.5056
 20
-42.4783
 11
45.8328
 21
-42.4088
  0
LINE
  8
0
 10
45.8328
 20
-42.4088
 11
46.1673
 21
-42.4088
  0
LINE
  8
0
 10
46.1673
 20
-42.4088
 11
46.4944
 21
-42.4783
  0
LINE
  8
0
 10
46.4944
 20
-42.4783
 11
46.8
 21
-42.6144
  0
LINE
  8
0
 10
46.8
 20
-42.6144
 11
47.0706
 21
-42.811
  0
LINE
  8
0
 10
47.0706
 20
-42.811
 11
47.2944
 21
-43.0596
  0
LINE
  8
0
 10
47.2944
 20
-43.0596
 11
47.4617
 21
-43.3492
  0
LINE
  8
0
 10
47.4617
 20
-43.3492
 11
47.565
 21
-43.6673
  0
LINE
  8
0
 10
47.565
 20
-43.6673
 11
47.6
 21
-44
  0
LINE
  8
0
 10
47.6
 20
-44
 11
47.565
 21
-44.3327
  0
LINE
  8
0
 10
47.565
 20
-44.3327
 11
47.4617
 21
-44.6508
  0
LINE
  8
0
 10
47.4617
 20
-44.6508
 11
47.2944
 21
-44.9405
  0
LINE
  8
0
 10
47.2944
 20
-44.9405
 11
47.0706
 21
-45.189
  0
LINE
  8
0
 10
47.0706
 20
-45.189
 11
46.8
 21
-45.3857
  0
LINE
  8
0
 10
46.8
 20
-45.3857
 11
46.4944
 21
-45.5217
  0
LINE
  8
0
 10
46.4944
 20
-45.5217
 11
46.1673
 21
-45.5912
  0
LINE
  8
0
 10
46.1673
 20
-45.5912
 11
45.8328
 21
-45.5912
  0
LINE
  8
0
 10
-54.1672
 20
-45.5912
 11
-54.4944
 21
-45.5217
  0
LINE
  8
0
 10
-54.4944
 20
-45.5217
 11
-54.8
 21
-45.3857
  0
LINE
  8
0
 10
-54.8
 20
-45.3857
 11
-55.0706
 21
-45.189
  0
LINE
  8
0
 10
-55.0706
 20
-45.189
 11
-55.2944
 21
-44.9405
  0
LINE
  8
0
 10
-55.2944
 20
-44.9405
 11
-55.4617
 21
-44.6508
  0
LINE
  8
0
 10
-55.4617
 20
-44.6508
 11
-55.565
 21
-44.3327
  0
LINE
  8
0
 10
-55.565
 20
-44.3327
 11
-55.6
 21
-44
  0
LINE
  8
0
 10
-55.6
 20
-44
 11
-55.565
 21
-43.6673
  0
LINE
  8
0
 10
-55.565
 20
-43.6673
 11
-55.4617
 21
-43.3492
  0
LINE
  8
0
 10
-55.4617
 20
-43.3492
 11
-55.2944
 21
-43.0596
  0
LINE
  8
0
 10
-55.2944
 20
-43.0596
 11
-55.0706
 21
-42.811
  0
LINE
  8
0
 10
-55.0706
 20
-42.811
 11
-54.8
 21
-42.6144
  0
LINE
  8
0
 10
-54.8
 20
-42.6144
 11
-54.4944
 21
-42.4783
  0
LINE
  8
0
 10
-54.4944
 20
-42.4783
 11
-54.1672
 21
-42.4088
  0
LINE
  8
0
 10
-54.1672
 20
-42.4088
 11
-53.8327
 21
-42.4088
  0
LINE
  8
0
 10
-53.8327
 20
-42.4088
 11
-53.5056
 21
-42.4783
  0
LINE
  8
0
 10
-53.5056
 20
-42.4783
 11
-53.2
 21
-42.6144
  0
LINE
  8
0
 10
-53.2
 20
-42.6144
 11
-52.9294
 21
-42.811
  0
LINE
  8
0
 10
-52.9294
 20
-42.811
 11
-52.7056
 21
-43.0596
  0
LINE
  8
0
 10
-52.7056
 20
-43.0596
 11
-52.5383
 21
-43.3492
  0
LINE
  8
0
 10
-52.5383
 20
-43.3492
 11
-52.435
 21
-43.6673
  0
LINE
  8
0
 10
-52.435
 20
-43.6673
 11
-52.4
 21
-44
  0
LINE
  8
0
 10
-52.4
 20
-44
 11
-52.435
 21
-44.3327
  0
LINE
  8
0
 10
-52.435
 20
-44.3327
 11
-52.5383
 21
-44.6508
  0
LINE
  8
0
 10
-52.5383
 20
-44.6508
 11
-52.7056
 21
-44.9405
  0
LINE
  8
0
 10
-52.7056
 20
-44.9405
 11
-52.9294
 21
-45.189
  0
LINE
  8
0
 10
-52.9294
 20
-45.189
 11
-53.2
 21
-45.3857
  0
LINE
  8
0
 10
-53.2
 20
-45.3857
 11
-53.5056
 21
-45.5217
  0
LINE
  8
0
 10
-53.5056
 20
-45.5217
 11
-53.8327
 21
-45.5912
  0
LINE
  8
0
 10
-53.8327
 20
-45.5912
 11
-54.1672
 21
-45.5912
  0
LINE
  8
0
 10
-46.1673
 20
-45.5912
 11
-46.4944
 21
-45.5217
  0
LINE
  8
0
 10
-46.4944
 20
-45.5217
 11
-46.8
 21
-45.3857
  0
LINE
  8
0
 10
-46.8
 20
-45.3857
 11
-47.0706
 21
-45.189
  0
LINE
  8
0
 10
-47.0706
 20
-45.189
 11
-47.2944
 21
-44.9405
  0
LINE
  8
0
 10
-47.2944
 20
-44.9405
 11
-47.4617
 21
-44.6508
  0
LINE
  8
0
 10
-47.4617
 20
-44.6508
 11
-47.565
 21
-44.3327
  0
LINE
  8
0
 10
-47.565
 20
-44.3327
 11
-47.6
 21
-44
  0
LINE
  8
0
 10
-47.6
 20
-44
 11
-47.565
 21
-43.6673
  0
LINE
  8
0
 10
-47.565
 20
-43.6673
 11
-47.4617
 21
-43.3492
  0
LINE
  8
0
 10
-47.4617
 20
-43.3492
 11
-47.2944
 21
-43.0596
  0
LINE
  8
0
 10
-47.2944
 20
-43.0596
 11
-47.0706
 21
-42.811
  0
LINE
  8
0
 10
-47.0706
 20
-42.811
 11
-46.8
 21
-42.6144
  0
LINE
  8
0
 10
-46.8
 20
-42.6144
 11
-46.4944
 21
-42.4783
  0
LINE
  8
0
 10
-46.4944
 20
-42.4783
 11
-46.1673
 21
-42.4088
  0
LINE
  8
0
 10
-46.1673
 20
-42.4088
 11
-45.8328
 21
-42.4088
  0
LINE
  8
0
 10
-45.8328
 20
-42.4088
 11
-45.5056
 21
-42.4783
  0
LINE
  8
0
 10
-45.5056
 20
-42.4783
 11
-45.2
 21
-42.6144
  0
LINE
  8
0
 10
-45.2
 20
-42.6144
 11
-44.9294
 21
-42.811
  0
LINE
  8
0
 10
-44.9294
 20
-42.811
 11
-44.7056
 21
-43.0596
  0
LINE
  8
0
 10
-44.7056
 20
-43.0596
 11
-44.5383
 21
-43.3492
  0
LINE
  8
0
 10
-44.5383
 20
-43.3492
 11
-44.435
 21
-43.6673
  0
LINE
  8
0
 10
-44.435
 20
-43.6673
 11
-44.4
 21
-44
  0
LINE
  8
0
 10
-44.4
 20
-44
 11
-44.435
 21
-44.3327
  0
LINE
  8
0
 10
-44.435
 20
-44.3327
 11
-44.5383
 21
-44.6508
  0
LINE
  8
0
 10
-44.5383
 20
-44.6508
 11
-44.7056
 21
-44.9405
  0
LINE
  8
0
 10
-44.7056
 20
-44.9405
 11
-44.9294
 21
-45.189
  0
LINE
  8
0
 10
-44.9294
 20
-45.189
 11
-45.2
 21
-45.3857
  0
LINE
  8
0
 10
-45.2
 20
-45.3857
 11
-45.5056
 21
-45.5217
  0
LINE
  8
0
 10
-45.5056
 20
-45.5217
 11
-45.8328
 21
-45.5912
  0
LINE
  8
0
 10
-45.8328
 20
-45.5912
 11
-46.1673
 21
-45.5912
  0
LINE
  8
0
 10
-85.2711
 20
-65.0711
 11
-85.2711
 21
-46.0711
  0
LINE
  8
0
 10
-85.2711
 20
-46.0711
 11
-79.2711
 21
-46.0711
  0
LINE
  8
0
 10
-79.2711
 20
-46.0711
 11
-79.2711
 21
-65.0711
  0
LINE
  8
0
 10
-79.2711
 20
-65.0711
 11
-85.2711
 21
-65.0711
  0
LINE
  8
0
 10
45.8328
 20
-57.5912
 11
45.5056
 21
-57.5217
  0
LINE
  8
0
 10
45.5056
 20
-57.5217
 11
45.2
 21
-57.3856
  0
LINE
  8
0
 10
45.2
 20
-57.3856
 11
44.9294
 21
-57.189
  0
LINE
  8
0
 10
44.9294
 20
-57.189
 11
44.7056
 21
-56.9404
  0
LINE
  8
0
 10
44.7056
 20
-56.9404
 11
44.5383
 21
-56.6508
  0
LINE
  8
0
 10
44.5383
 20
-56.6508
 11
44.435
 21
-56.3327
  0
LINE
  8
0
 10
44.435
 20
-56.3327
 11
44.4
 21
-56
  0
LINE
  8
0
 10
44.4
 20
-56
 11
44.435
 21
-55.6673
  0
LINE
  8
0
 10
44.435
 20
-55.6673
 11
44.5383
 21
-55.3492
  0
LINE
  8
0
 10
44.5383
 20
-55.3492
 11
44.7056
 21
-55.0595
  0
LINE
  8
0
 10
44.7056
 20
-55.0595
 11
44.9294
 21
-54.811
  0
LINE
  8
0
 10
44.9294
 20
-54.811
 11
45.2
 21
-54.6143
  0
LINE
  8
0
 10
45.2
 20
-54.6143
 11
45.5056
 21
-54.4783
  0
LINE
  8
0
 10
45.5056
 20
-54.4783
 11
45.8328
 21
-54.4088
  0
LINE
  8
0
 10
45.8328
 20
-54.4088
 11
46.1673
 21
-54.4088
  0
LINE
  8
0
 10
46.1673
 20
-54.4088
 11
46.4944
 21
-54.4783
  0
LINE
  8
0
 10
46.4944
 20
-54.4783
 11
46.8
 21
-54.6143
  0
LINE
  8
0
 10
46.8
 20
-54.6143
 11
47.0706
 21
-54.811
  0
LINE
  8
0
 10
47.0706
 20
-54.811
 11
47.2944
 21
-55.0595
  0
LINE
  8
0
 10
47.2944
 20
-55.0595
 11
47.4617
 21
-55.3492
  0
LINE
  8
0
 10
47.4617
 20
-55.3492
 11
47.565
 21
-55.6673
  0
LINE
  8
0
 10
47.565
 20
-55.6673
 11
47.6
 21
-56
  0
LINE
  8
0
 10
47.6
 20
-56
 11
47.565
 21
-56.3327
  0
LINE
  8
0
 10
47.565
 20
-56.3327
 11
47.4617
 21
-56.6508
  0
LINE
  8
0
 10
47.4617
 20
-56.6508
 11
47.2944
 21
-56.9404
  0
LINE
  8
0
 10
47.2944
 20
-56.9404
 11
47.0706
 21
-57.189
  0
LINE
  8
0
 10
47.0706
 20
-57.189
 11
46.8
 21
-57.3856
  0
LINE
  8
0
 10
46.8
 20
-57.3856
 11
46.4944
 21
-57.5217
  0
LINE
  8
0
 10
46.4944
 20
-57.5217
 11
46.1673
 21
-57.5912
  0
LINE
  8
0
 10
46.1673
 20
-57.5912
 11
45.8328
 21
-57.5912
  0
LINE
  8
0
 10
53.8327
 20
-57.5912
 11
53.5056
 21
-57.5217
  0
LINE
  8
0
 10
53.5056
 20
-57.5217
 11
53.2
 21
-57.3856
  0
LINE
  8
0
 10
53.2
 20
-57.3856
 11
52.9294
 21
-57.189
  0
LINE
  8
0
 10
52.9294
 20
-57.189
 11
52.7056
 21
-56.9404
  0
LINE
  8
0
 10
52.7056
 20
-56.9404
 11
52.5383
 21
-56.6508
  0
LINE
  8
0
 10
52.5383
 20
-56.6508
 11
52.435
 21
-56.3327
  0
LINE
  8
0
 10
52.435
 20
-56.3327
 11
52.4
 21
-56
  0
LINE
  8
0
 10
52.4
 20
-56
 11
52.435
 21
-55.6673
  0
LINE
  8
0
 10
52.435
 20
-55.6673
 11
52.5383
 21
-55.3492
  0
LINE
  8
0
 10
52.5383
 20
-55.3492
 11
52.7056
 21
-55.0595
  0
LINE
  8
0
 10
52.7056
 20
-55.0595
 11
52.9294
 21
-54.811
  0
LINE
  8
0
 10
52.9294
 20
-54.811
 11
53.2
 21
-54.6143
  0
LINE
  8
0
 10
53.2
 20
-54.6143
 11
53.5056
 21
-54.4783
  0
LINE
  8
0
 10
53.5056
 20
-54.4783
 11
53.8327
 21
-54.4088
  0
LINE
  8
0
 10
53.8327
 20
-54.4088
 11
54.1672
 21
-54.4088
  0
LINE
  8
0
 10
54.1672
 20
-54.4088
 11
54.4944
 21
-54.4783
  0
LINE
  8
0
 10
54.4944
 20
-54.4783
 11
54.8
 21
-54.6143
  0
LINE
  8
0
 10
54.8
 20
-54.6143
 11
55.0706
 21
-54.811
  0
LINE
  8
0
 10
55.0706
 20
-54.811
 11
55.2944
 21
-55.0595
  0
LINE
  8
0
 10
55.2944
 20
-55.0595
 11
55.4617
 21
-55.3492
  0
LINE
  8
0
 10
55.4617
 20
-55.3492
 11
55.565
 21
-55.6673
  0
LINE
  8
0
 10
55.565
 20
-55.6673
 11
55.6
 21
-56
  0
LINE
  8
0
 10
55.6
 20
-56
 11
55.565
 21
-56.3327
  0
LINE
  8
0
 10
55.565
 20
-56.3327
 11
55.4617
 21
-56.6508
  0
LINE
  8
0
 10
55.4617
 20
-56.6508
 11
55.2944
 21
-56.9404
  0
LINE
  8
0
 10
55.2944
 20
-56.9404
 11
55.0706
 21
-57.189
  0
LINE
  8
0
 10
55.0706
 20
-57.189
 11
54.8
 21
-57.3856
  0
LINE
  8
0
 10
54.8
 20
-57.3856
 11
54.4944
 21
-57.5217
  0
LINE
  8
0
 10
54.4944
 20
-57.5217
 11
54.1672
 21
-57.5912
  0
LINE
  8
0
 10
54.1672
 20
-57.5912
 11
53.8327
 21
-57.5912
  0
LINE
  8
0
 10
-46.1673
 20
-57.5912
 11
-46.4944
 21
-57.5217
  0
LINE
  8
0
 10
-46.4944
 20
-57.5217
 11
-46.8
 21
-57.3856
  0
LINE
  8
0
 10
-46.8
 20
-57.3856
 11
-47.0706
 21
-57.189
  0
LINE
  8
0
 10
-47.0706
 20
-57.189
 11
-47.2944
 21
-56.9404
  0
LINE
  8
0
 10
-47.2944
 20
-56.9404
 11
-47.4617
 21
-56.6508
  0
LINE
  8
0
 10
-47.4617
 20
-56.6508
 11
-47.565
 21
-56.3327
  0
LINE
  8
0
 10
-47.565
 20
-56.3327
 11
-47.6
 21
-56
  0
LINE
  8
0
 10
-47.6
 20
-56
 11
-47.565
 21
-55.6673
  0
LINE
  8
0
 10
-47.565
 20
-55.6673
 11
-47.4617
 21
-55.3492
  0
LINE
  8
0
 10
-47.4617
 20
-55.3492
 11
-47.2944
 21
-55.0595
  0
LINE
  8
0
 10
-47.2944
 20
-55.0595
 11
-47.0706
 21
-54.811
  0
LINE
  8
0
 10
-47.0706
 20
-54.811
 11
-46.8
 21
-54.6143
  0
LINE
  8
0
 10
-46.8
 20
-54.6143
 11
-46.4944
 21
-54.4783
  0
LINE
  8
0
 10
-46.4944
 20
-54.4783
 11
-46.1673
 21
-54.4088
  0
LINE
  8
0
 10
-46.1673
 20
-54.4088
 11
-45.8328
 21
-54.4088
  0
LINE
  8
0
 10
-45.8328
 20
-54.4088
 11
-45.5056
 21
-54.4783
  0
LINE
  8
0
 10
-45.5056
 20
-54.4783
 11
-45.2
 21
-54.6143
  0
LINE
  8
0
 10
-45.2
 20
-54.6143
 11
-44.9294
 21
-54.811
  0
LINE
  8
0
 10
-44.9294
 20
-54.811
 11
-44.7056
 21
-55.0595
  0
LINE
  8
0
 10
-44.7056
 20
-55.0595
 11
-44.5383
 21
-55.3492
  0
LINE
  8
0
 10
-44.5383
 20
-55.3492
 11
-44.435
 21
-55.6673
  0
LINE
  8
0
 10
-44.435
 20
-55.6673
 11
-44.4
 21
-56
  0
LINE
  8
0
 10
-44.4
 20
-56
 11
-44.435
 21
-56.3327
  0
LINE
  8
0
 10
-44.435
 20
-56.3327
 11
-44.5383
 21
-56.6508
  0
LINE
  8
0
 10
-44.5383
 20
-56.6508
 11
-44.7056
 21
-56.9404
  0
LINE
  8
0
 10
-44.7056
 20
-56.9404
 11
-44.9294
 21
-57.189
  0
LINE
  8
0
 10
-44.9294
 20
-57.189
 11
-45.2
 21
-57.3856
  0
LINE
  8
0
 10
-45.2
 20
-57.3856
 11
-45.5056
 21
-57.5217
  0
LINE
  8
0
 10
-45.5056
 20
-57.5217
 11
-45.8328
 21
-57.5912
  0
LINE
  8
0
 10
-45.8328
 20
-57.5912
 11
-46.1673
 21
-57.5912
  0
LINE
  8
0
 10
-54.1672
 20
-57.5912
 11
-54.4944
 21
-57.5217
  0
LINE
  8
0
 10
-54.4944
 20
-57.5217
 11
-54.8
 21
-57.3856
  0
LINE
  8
0
 10
-54.8
 20
-57.3856
 11
-55.0706
 21
-57.189
  0
LINE
  8
0
 10
-55.0706
 20
-57.189
 11
-55.2944
 21
-56.9404
  0
LINE
  8
0
 10
-55.2944
 20
-56.9404
 11
-55.4617
 21
-56.6508
  0
LINE
  8
0
 10
-55.4617
 20
-56.6508
 11
-55.565
 21
-56.3327
  0
LINE
  8
0
 10
-55.565
 20
-56.3327
 11
-55.6
 21
-56
  0
LINE
  8
0
 10
-55.6
 20
-56
 11
-55.565
 21
-55.6673
  0
LINE
  8
0
 10
-55.565
 20
-55.6673
 11
-55.4617
 21
-55.3492
  0
LINE
  8
0
 10
-55.4617
 20
-55.3492
 11
-55.2944
 21
-55.0595
  0
LINE
  8
0
 10
-55.2944
 20
-55.0595
 11
-55.0706
 21
-54.811
  0
LINE
  8
0
 10
-55.0706
 20
-54.811
 11
-54.8
 21
-54.6143
  0
LINE
  8
0
 10
-54.8
 20
-54.6143
 11
-54.4944
 21
-54.4783
  0
LINE
  8
0
 10
-54.4944
 20
-54.4783
 11
-54.1672
 21
-54.4088
  0
LINE
  8
0
 10
-54.1672
 20
-54.4088
 11
-53.8327
 21
-54.4088
  0
LINE
  8
0
 10
-53.8327
 20
-54.4088
 11
-53.5056
 21
-54.4783
  0
LINE
  8
0
 10
-53.5056
 20
-54.4783
 11
-53.2
 21
-54.6143
  0
LINE
  8
0
 10
-53.2
 20
-54.6143
 11
-52.9294
 21
-54.811
  0
LINE
  8
0
 10
-52.9294
 20
-54.811
 11
-52.7056
 21
-55.0595
  0
LINE
  8
0
 10
-52.7056
 20
-55.0595
 11
-52.5383
 21
-55.3492
  0
LINE
  8
0
 10
-52.5383
 20
-55.3492
 11
-52.435
 21
-55.6673
  0
LINE
  8
0
 10
-52.435
 20
-55.6673
 11
-52.4
 21
-56
  0
LINE
  8
0
 10
-52.4
 20
-56
 11
-52.435
 21
-56.3327
  0
LINE
  8
0
 10
-52.435
 20
-56.3327
 11
-52.5383
 21
-56.6508
  0
LINE
  8
0
 10
-52.5383
 20
-56.6508
 11
-52.7056
 21
-56.9404
  0
LINE
  8
0
 10
-52.7056
 20
-56.9404
 11
-52.9294
 21
-57.189
  0
LINE
  8
0
 10
-52.9294
 20
-57.189
 11
-53.2
 21
-57.3856
  0
LINE
  8
0
 10
-53.2
 20
-57.3856
 11
-53.5056
 21
-57.5217
  0
LINE
  8
0
 10
-53.5056
 20
-57.5217
 11
-53.8327
 21
-57.5912
  0
LINE
  8
0
 10
-53.8327
 20
-57.5912
 11
-54.1672
 21
-57.5912
  0
LINE
  8
0
 10
-97.7383
 20
-70.6623
 11
-98.0655
 21
-70.5928
  0
LINE
  8
0
 10
-98.0655
 20
-70.5928
 11
-98.3711
 21
-70.4567
  0
LINE
  8
0
 10
-98.3711
 20
-70.4567
 11
-98.6417
 21
-70.2601
  0
LINE
  8
0
 10
-98.6417
 20
-70.2601
 11
-98.8655
 21
-70.0115
  0
LINE
  8
0
 10
-98.8655
 20
-70.0115
 11
-99.0327
 21
-69.7218
  0
LINE
  8
0
 10
-99.0327
 20
-69.7218
 11
-99.1361
 21
-69.4037
  0
LINE
  8
0
 10
-99.1361
 20
-69.4037
 11
-99.1711
 21
-69.0711
  0
LINE
  8
0
 10
-99.1711
 20
-69.0711
 11
-99.1361
 21
-68.7384
  0
LINE
  8
0
 10
-99.1361
 20
-68.7384
 11
-99.0327
 21
-68.4203
  0
LINE
  8
0
 10
-99.0327
 20
-68.4203
 11
-98.8655
 21
-68.1306
  0
LINE
  8
0
 10
-98.8655
 20
-68.1306
 11
-98.6417
 21
-67.882
  0
LINE
  8
0
 10
-98.6417
 20
-67.882
 11
-98.3711
 21
-67.6854
  0
LINE
  8
0
 10
-98.3711
 20
-67.6854
 11
-98.0655
 21
-67.5494
  0
LINE
  8
0
 10
-98.0655
 20
-67.5494
 11
-97.7383
 21
-67.4798
  0
LINE
  8
0
 10
-97.7383
 20
-67.4798
 11
-97.4038
 21
-67.4798
  0
LINE
  8
0
 10
-97.4038
 20
-67.4798
 11
-97.0766
 21
-67.5494
  0
LINE
  8
0
 10
-97.0766
 20
-67.5494
 11
-96.7711
 21
-67.6854
  0
LINE
  8
0
 10
-96.7711
 20
-67.6854
 11
-96.5005
 21
-67.882
  0
LINE
  8
0
 10
-96.5005
 20
-67.882
 11
-96.2766
 21
-68.1306
  0
LINE
  8
0
 10
-96.2766
 20
-68.1306
 11
-96.1094
 21
-68.4203
  0
LINE
  8
0
 10
-96.1094
 20
-68.4203
 11
-96.006
 21
-68.7384
  0
LINE
  8
0
 10
-96.006
 20
-68.7384
 11
-95.9711
 21
-69.0711
  0
LINE
  8
0
 10
-95.9711
 20
-69.0711
 11
-96.006
 21
-69.4037
  0
LINE
  8
0
 10
-96.006
 20
-69.4037
 11
-96.1094
 21
-69.7218
  0
LINE
  8
0
 10
-96.1094
 20
-69.7218
 11
-96.2766
 21
-70.0115
  0
LINE
  8
0
 10
-96.2766
 20
-70.0115
 11
-96.5005
 21
-70.2601
  0
LINE
  8
0
 10
-96.5005
 20
-70.2601
 11
-96.7711
 21
-70.4567
  0
LINE
  8
0
 10
-96.7711
 20
-70.4567
 11
-97.0766
 21
-70.5928
  0
LINE
  8
0
 10
-97.0766
 20
-70.5928
 11
-97.4038
 21
-70.6623
  0
LINE
  8
0
 10
-97.4038
 20
-70.6623
 11
-97.7383
 21
-70.6623
  0
LINE
  8
0
 10
-75.4383
 20
-70.6623
 11
-75.7655
 21
-70.5928
  0
LINE
  8
0
 10
-75.7655
 20
-70.5928
 11
-76.0711
 21
-70.4567
  0
LINE
  8
0
 10
-76.0711
 20
-70.4567
 11
-76.3417
 21
-70.2601
  0
LINE
  8
0
 10
-76.3417
 20
-70.2601
 11
-76.5655
 21
-70.0115
  0
LINE
  8
0
 10
-76.5655
 20
-70.0115
 11
-76.7327
 21
-69.7218
  0
LINE
  8
0
 10
-76.7327
 20
-69.7218
 11
-76.8361
 21
-69.4037
  0
LINE
  8
0
 10
-76.8361
 20
-69.4037
 11
-76.8711
 21
-69.0711
  0
LINE
  8
0
 10
-76.8711
 20
-69.0711
 11
-76.8361
 21
-68.7384
  0
LINE
  8
0
 10
-76.8361
 20
-68.7384
 11
-76.7327
 21
-68.4203
  0
LINE
  8
0
 10
-76.7327
 20
-68.4203
 11
-76.5655
 21
-68.1306
  0
LINE
  8
0
 10
-76.5655
 20
-68.1306
 11
-76.3417
 21
-67.882
  0
LINE
  8
0
 10
-76.3417
 20
-67.882
 11
-76.0711
 21
-67.6854
  0
LINE
  8
0
 10
-76.0711
 20
-67.6854
 11
-75.7655
 21
-67.5494
  0
LINE
  8
0
 10
-75.7655
 20
-67.5494
 11
-75.4383
 21
-67.4798
  0
LINE
  8
0
 10
-75.4383
 20
-67.4798
 11
-75.1038
 21
-67.4798
  0
LINE
  8
0
 10
-75.1038
 20
-67.4798
 11
-74.7766
 21
-67.5494
  0
LINE
  8
0
 10
-74.7766
 20
-67.5494
 11
-74.4711
 21
-67.6854
  0
LINE
  8
0
 10
-74.4711
 20
-67.6854
 11
-74.2005
 21
-67.882
  0
LINE
  8
0
 10
-74.2005
 20
-67.882
 11
-73.9766
 21
-68.1306
  0
LINE
  8
0
 10
-73.9766
 20
-68.1306
 11
-73.8094
 21
-68.4203
  0
LINE
  8
0
 10
-73.8094
 20
-68.4203
 11
-73.706
 21
-68.7384
  0
LINE
  8
0
 10
-73.706
 20
-68.7384
 11
-73.6711
 21
-69.0711
  0
LINE
  8
0
 10
-73.6711
 20
-69.0711
 11
-73.706
 21
-69.4037
  0
LINE
  8
0
 10
-73.706
 20
-69.4037
 11
-73.8094
 21
-69.7218
  0
LINE
  8
0
 10
-73.8094
 20
-69.7218
 11
-73.9766
 21
-70.0115
  0
LINE
  8
0
 10
-73.9766
 20
-70.0115
 11
-74.2005
 21
-70.2601
  0
LINE
  8
0
 10
-74.2005
 20
-70.2601
 11
-74.4711
 21
-70.4567
  0
LINE
  8
0
 10
-74.4711
 20
-70.4567
 11
-74.7766
 21
-70.5928
  0
LINE
  8
0
 10
-74.7766
 20
-70.5928
 11
-75.1038
 21
-70.6623
  0
LINE
  8
0
 10
-75.1038
 20
-70.6623
 11
-75.4383
 21
-70.6623
  0
LINE
  8
0
 10
-1.27524
 20
-92.1332
 11
-3.77
 21
-91.6029
  0
LINE
  8
0
 10
-3.77
 20
-91.6029
 11
-6.09999
 21
-90.5655
  0
LINE
  8
0
 10
-6.09999
 20
-90.5655
 11
-8.16339
 21
-89.0664
  0
LINE
  8
0
 10
-8.16339
 20
-89.0664
 11
-9.87
 21
-87.171
  0
LINE
  8
0
 10
-9.87
 20
-87.171
 11
-11.1452
 21
-84.9622
  0
LINE
  8
0
 10
-11.1452
 20
-84.9622
 11
-11.9334
 21
-82.5365
  0
LINE
  8
0
 10
-11.9334
 20
-82.5365
 11
-12.2
 21
-80
  0
LINE
  8
0
 10
-12.2
 20
-80
 11
-11.9334
 21
-77.4635
  0
LINE
  8
0
 10
-11.9334
 20
-77.4635
 11
-11.1452
 21
-75.0378
  0
LINE
  8
0
 10
-11.1452
 20
-75.0378
 11
-9.87
 21
-72.829
  0
LINE
  8
0
 10
-9.87
 20
-72.829
 11
-8.16339
 21
-70.9336
  0
LINE
  8
0
 10
-8.16339
 20
-70.9336
 11
-6.09999
 21
-69.4345
  0
LINE
  8
0
 10
-6.09999
 20
-69.4345
 11
-3.77
 21
-68.3971
  0
LINE
  8
0
 10
-3.77
 20
-68.3971
 11
-1.27524
 21
-67.8668
  0
LINE
  8
0
 10
-1.27524
 20
-67.8668
 11
1.27524
 21
-67.8668
  0
LINE
  8
0
 10
1.27524
 20
-67.8668
 11
3.77
 21
-68.3971
  0
LINE
  8
0
 10
3.77
 20
-68.3971
 11
6.09999
 21
-69.4345
  0
LINE
  8
0
 10
6.09999
 20
-69.4345
 11
8.16339
 21
-70.9336
  0
LINE
  8
0
 10
8.16339
 20
-70.9336
 11
9.87
 21
-72.829
  0
LINE
  8
0
 10
9.87
 20
-72.829
 11
11.1452
 21
-75.0378
  0
LINE
  8
0
 10
11.1452
 20
-75.0378
 11
11.9334
 21
-77.4635
  0
LINE
  8
0
 10
11.9334
 20
-77.4635
 11
12.2
 21
-80
  0
LINE
  8
0
 10
12.2
 20
-80
 11
11.9334
 21
-82.5365
  0
LINE
  8
0
 10
11.9334
 20
-82.5365
 11
11.1452
 21
-84.9622
  0
LINE
  8
0
 10
11.1452
 20
-84.9622
 11
9.87
 21
-87.171
  0
LINE
  8
0
 10
9.87
 20
-87.171
 11
8.16339
 21
-89.0664
  0
LINE
  8
0
 10
8.16339
 20
-89.0664
 11
6.09999
 21
-90.5655
  0
LINE
  8
0
 10
6.09999
 20
-90.5655
 11
3.77
 21
-91.6029
  0
LINE
  8
0
 10
3.77
 20
-91.6029
 11
1.27524
 21
-92.1332
  0
LINE
  8
0
 10
1.27524
 20
-92.1332
 11
-1.27524
 21
-92.1332
  0
LINE
  8
0
 10
-101.571
 20
-100.949
 11
-101.571
 21
-101.571
  0
LINE
  8
0
 10
-101.571
 20
-101.571
 11
-101.212
 21
-101.571
  0
LINE
  8
0
 10
-101.212
 20
-101.571
 11
-101.571
 21
-100.949
  0
LINE
  8
0
 10
101.571
 20
-101.212
 11
100.949
 21
-101.571
  0
LINE
  8
0
 10
100.949
 20
-101.571
 11
101.571
 21
-101.571
  0
LINE
  8
0
 10
101.571
 20
-101.571
 11
101.571
 21
-101.212
  0
LINE
  8
0
 10
80.3
 20
-121
 11
50
 21
-121
  0
LINE
  8
0
 10
50
 20
-121
 11
50
 21
-130
  0
LINE
  8
0
 10
50
 20
-130
 11
66.3
 21
-130
  0
LINE
  8
0
 10
66.3
 20
-130
 11
66.3
 21
-129
  0
LINE
  8
0
 10
66.3
 20
-129
 11
72.3
 21
-129
  0
LINE
  8
0
 10
72.3
 20
-129
 11
72.3
 21
-148
  0
LINE
  8
0
 10
72.3
 20
-148
 11
66.3
 21
-148
  0
LINE
  8
0
 10
66.3
 20
-148
 11
66.3
 21
-147
  0
LINE
  8
0
 10
66.3
 20
-147
 11
50
 21
-147
  0
LINE
  8
0
 10
50
 20
-147
 11
50
 21
-156
  0
LINE
  8
0
 10
50
 20
-156
 11
80.3
 21
-156
  0
LINE
  8
0
 10
80.3
 20
-156
 11
80.3
 21
-121
  0
LINE
  8
0
 10
76.1328
 20
-126.591
 11
75.8056
 21
-126.522
  0
LINE
  8
0
 10
75.8056
 20
-126.522
 11
75.5
 21
-126.386
  0
LINE
  8
0
 10
75.5
 20
-126.386
 11
75.2294
 21
-126.189
  0
LINE
  8
0
 10
75.2294
 20
-126.189
 11
75.0056
 21
-125.94
  0
LINE
  8
0
 10
75.0056
 20
-125.94
 11
74.8383
 21
-125.651
  0
LINE
  8
0
 10
74.8383
 20
-125.651
 11
74.735
 21
-125.333
  0
LINE
  8
0
 10
74.735
 20
-125.333
 11
74.7
 21
-125
  0
LINE
  8
0
 10
74.7
 20
-125
 11
74.735
 21
-124.667
  0
LINE
  8
0
 10
74.735
 20
-124.667
 11
74.8383
 21
-124.349
  0
LINE
  8
0
 10
74.8383
 20
-124.349
 11
75.0056
 21
-124.06
  0
LINE
  8
0
 10
75.0056
 20
-124.06
 11
75.2294
 21
-123.811
  0
LINE
  8
0
 10
75.2294
 20
-123.811
 11
75.5
 21
-123.614
  0
LINE
  8
0
 10
75.5
 20
-123.614
 11
75.8056
 21
-123.478
  0
LINE
  8
0
 10
75.8056
 20
-123.478
 11
76.1328
 21
-123.409
  0
LINE
  8
0
 10
76.1328
 20
-123.409
 11
76.4672
 21
-123.409
  0
LINE
  8
0
 10
76.4672
 20
-123.409
 11
76.7944
 21
-123.478
  0
LINE
  8
0
 10
76.7944
 20
-123.478
 11
77.1
 21
-123.614
  0
LINE
  8
0
 10
77.1
 20
-123.614
 11
77.3706
 21
-123.811
  0
LINE
  8
0
 10
77.3706
 20
-123.811
 11
77.5944
 21
-124.06
  0
LINE
  8
0
 10
77.5944
 20
-124.06
 11
77.7617
 21
-124.349
  0
LINE
  8
0
 10
77.7617
 20
-124.349
 11
77.865
 21
-124.667
  0
LINE
  8
0
 10
77.865
 20
-124.667
 11
77.9
 21
-125
  0
LINE
  8
0
 10
77.9
 20
-125
 11
77.865
 21
-125.333
  0
LINE
  8
0
 10
77.865
 20
-125.333
 11
77.7617
 21
-125.651
  0
LINE
  8
0
 10
77.7617
 20
-125.651
 11
77.5944
 21
-125.94
  0
LINE
  8
0
 10
77.5944
 20
-125.94
 11
77.3706
 21
-126.189
  0
LINE
  8
0
 10
77.3706
 20
-126.189
 11
77.1
 21
-126.386
  0
LINE
  8
0
 10
77.1
 20
-126.386
 11
76.7944
 21
-126.522
  0
LINE
  8
0
 10
76.7944
 20
-126.522
 11
76.4672
 21
-126.591
  0
LINE
  8
0
 10
76.4672
 20
-126.591
 11
76.1328
 21
-126.591
  0
LINE
  8
0
 10
53.8327
 20
-126.591
 11
53.5056
 21
-126.522
  0
LINE
  8
0
 10
53.5056
 20
-126.522
 11
53.2
 21
-126.386
  0
LINE
  8
0
 10
53.2
 20
-126.386
 11
52.9294
 21
-126.189
  0
LINE
  8
0
 10
52.9294
 20
-126.189
 11
52.7056
 21
-125.94
  0
LINE
  8
0
 10
52.7056
 20
-125.94
 11
52.5383
 21
-125.651
  0
LINE
  8
0
 10
52.5383
 20
-125.651
 11
52.435
 21
-125.333
  0
LINE
  8
0
 10
52.435
 20
-125.333
 11
52.4
 21
-125
  0
LINE
  8
0
 10
52.4
 20
-125
 11
52.435
 21
-124.667
  0
LINE
  8
0
 10
52.435
 20
-124.667
 11
52.5383
 21
-124.349
  0
LINE
  8
0
 10
52.5383
 20
-124.349
 11
52.7056
 21
-124.06
  0
LINE
  8
0
 10
52.7056
 20
-124.06
 11
52.9294
 21
-123.811
  0
LINE
  8
0
 10
52.9294
 20
-123.811
 11
53.2
 21
-123.614
  0
LINE
  8
0
 10
53.2
 20
-123.614
 11
53.5056
 21
-123.478
  0
LINE
  8
0
 10
53.5056
 20
-123.478
 11
53.8327
 21
-123.409
  0
LINE
  8
0
 10
53.8327
 20
-123.409
 11
54.1672
 21
-123.409
  0
LINE
  8
0
 10
54.1672
 20
-123.409
 11
54.4944
 21
-123.478
  0
LINE
  8
0
 10
54.4944
 20
-123.478
 11
54.8
 21
-123.614
  0
LINE
  8
0
 10
54.8
 20
-123.614
 11
55.0706
 21
-123.811
  0
LINE
  8
0
 10
55.0706
 20
-123.811
 11
55.2944
 21
-124.06
  0
LINE
  8
0
 10
55.2944
 20
-124.06
 11
55.4617
 21
-124.349
  0
LINE
  8
0
 10
55.4617
 20
-124.349
 11
55.565
 21
-124.667
  0
LINE
  8
0
 10
55.565
 20
-124.667
 11
55.6
 21
-125
  0
LINE
  8
0
 10
55.6
 20
-125
 11
55.565
 21
-125.333
  0
LINE
  8
0
 10
55.565
 20
-125.333
 11
55.4617
 21
-125.651
  0
LINE
  8
0
 10
55.4617
 20
-125.651
 11
55.2944
 21
-125.94
  0
LINE
  8
0
 10
55.2944
 20
-125.94
 11
55.0706
 21
-126.189
  0
LINE
  8
0
 10
55.0706
 20
-126.189
 11
54.8
 21
-126.386
  0
LINE
  8
0
 10
54.8
 20
-126.386
 11
54.4944
 21
-126.522
  0
LINE
  8
0
 10
54.4944
 20
-126.522
 11
54.1672
 21
-126.591
  0
LINE
  8
0
 10
54.1672
 20
-126.591
 11
53.8327
 21
-126.591
  0
LINE
  8
0
 10
53.8327
 20
-153.591
 11
53.5056
 21
-153.522
  0
LINE
  8
0
 10
53.5056
 20
-153.522
 11
53.2
 21
-153.386
  0
LINE
  8
0
 10
53.2
 20
-153.386
 11
52.9294
 21
-153.189
  0
LINE
  8
0
 10
52.9294
 20
-153.189
 11
52.7056
 21
-152.94
  0
LINE
  8
0
 10
52.7056
 20
-152.94
 11
52.5383
 21
-152.651
  0
LINE
  8
0
 10
52.5383
 20
-152.651
 11
52.435
 21
-152.333
  0
LINE
  8
0
 10
52.435
 20
-152.333
 11
52.4
 21
-152
  0
LINE
  8
0
 10
52.4
 20
-152
 11
52.435
 21
-151.667
  0
LINE
  8
0
 10
52.435
 20
-151.667
 11
52.5383
 21
-151.349
  0
LINE
  8
0
 10
52.5383
 20
-151.349
 11
52.7056
 21
-151.06
  0
LINE
  8
0
 10
52.7056
 20
-151.06
 11
52.9294
 21
-150.811
  0
LINE
  8
0
 10
52.9294
 20
-150.811
 11
53.2
 21
-150.614
  0
LINE
  8
0
 10
53.2
 20
-150.614
 11
53.5056
 21
-150.478
  0
LINE
  8
0
 10
53.5056
 20
-150.478
 11
53.8327
 21
-150.409
  0
LINE
  8
0
 10
53.8327
 20
-150.409
 11
54.1672
 21
-150.409
  0
LINE
  8
0
 10
54.1672
 20
-150.409
 11
54.4944
 21
-150.478
  0
LINE
  8
0
 10
54.4944
 20
-150.478
 11
54.8
 21
-150.614
  0
LINE
  8
0
 10
54.8
 20
-150.614
 11
55.0706
 21
-150.811
  0
LINE
  8
0
 10
55.0706
 20
-150.811
 11
55.2944
 21
-151.06
  0
LINE
  8
0
 10
55.2944
 20
-151.06
 11
55.4617
 21
-151.349
  0
LINE
  8
0
 10
55.4617
 20
-151.349
 11
55.565
 21
-151.667
  0
LINE
  8
0
 10
55.565
 20
-151.667
 11
55.6
 21
-152
  0
LINE
  8
0
 10
55.6
 20
-152
 11
55.565
 21
-152.333
  0
LINE
  8
0
 10
55.565
 20
-152.333
 11
55.4617
 21
-152.651
  0
LINE
  8
0
 10
55.4617
 20
-152.651
 11
55.2944
 21
-152.94
  0
LINE
  8
0
 10
55.2944
 20
-152.94
 11
55.0706
 21
-153.189
  0
LINE
  8
0
 10
55.0706
 20
-153.189
 11
54.8
 21
-153.386
  0
LINE
  8
0
 10
54.8
 20
-153.386
 11
54.4944
 21
-153.522
  0
LINE
  8
0
 10
54.4944
 20
-153.522
 11
54.1672
 21
-153.591
  0
LINE
  8
0
 10
54.1672
 20
-153.591
 11
53.8327
 21
-153.591
  0
LINE
  8
0
 10
76.1328
 20
-153.591
 11
75.8056
 21
-153.522
  0
LINE
  8
0
 10
75.8056
 20
-153.522
 11
75.5
 21
-153.386
  0
LINE
  8
0
 10
75.5
 20
-153.386
 11
75.2294
 21
-153.189
  0
LINE
  8
0
 10
75.2294
 20
-153.189
 11
75.0056
 21
-152.94
  0
LINE
  8
0
 10
75.0056
 20
-152.94
 11
74.8383
 21
-152.651
  0
LINE
  8
0
 10
74.8383
 20
-152.651
 11
74.735
 21
-152.333
  0
LINE
  8
0
 10
74.735
 20
-152.333
 11
74.7
 21
-152
  0
LINE
  8
0
 10
74.7
 20
-152
 11
74.735
 21
-151.667
  0
LINE
  8
0
 10
74.735
 20
-151.667
 11
74.8383
 21
-151.349
  0
LINE
  8
0
 10
74.8383
 20
-151.349
 11
75.0056
 21
-151.06
  0
LINE
  8
0
 10
75.0056
 20
-151.06
 11
75.2294
 21
-150.811
  0
LINE
  8
0
 10
75.2294
 20
-150.811
 11
75.5
 21
-150.614
  0
LINE
  8
0
 10
75.5
 20
-150.614
 11
75.8056
 21
-150.478
  0
LINE
  8
0
 10
75.8056
 20
-150.478
 11
76.1328
 21
-150.409
  0
LINE
  8
0
 10
76.1328
 20
-150.409
 11
76.4672
 21
-150.409
  0
LINE
  8
0
 10
76.4672
 20
-150.409
 11
76.7944
 21
-150.478
  0
LINE
  8
0
 10
76.7944
 20
-150.478
 11
77.1
 21
-150.614
  0
LINE
  8
0
 10
77.1
 20
-150.614
 11
77.3706
 21
-150.811
  0
LINE
  8
0
 10
77.3706
 20
-150.811
 11
77.5944
 21
-151.06
  0
LINE
  8
0
 10
77.5944
 20
-151.06
 11
77.7617
 21
-151.349
  0
LINE
  8
0
 10
77.7617
 20
-151.349
 11
77.865
 21
-151.667
  0
LINE
  8
0
 10
77.865
 20
-151.667
 11
77.9
 21
-152
  0
LINE
  8
0
 10
77.9
 20
-152
 11
77.865
 21
-152.333
  0
LINE
  8
0
 10
77.865
 20
-152.333
 11
77.7617
 21
-152.651
  0
LINE
  8
0
 10
77.7617
 20
-152.651
 11
77.5944
 21
-152.94
  0
LINE
  8
0
 10
77.5944
 20
-152.94
 11
77.3706
 21
-153.189
  0
LINE
  8
0
 10
77.3706
 20
-153.189
 11
77.1
 21
-153.386
  0
LINE
  8
0
 10
77.1
 20
-153.386
 11
76.7944
 21
-153.522
  0
LINE
  8
0
 10
76.7944
 20
-153.522
 11
76.4672
 21
-153.591
  0
LINE
  8
0
 10
76.4672
 20
-153.591
 11
76.1328
 21
-153.591
  0
LINE
  8
0
 10
6.29999
 20
-121
 11
-24
 21
-121
  0
LINE
  8
0
 10
-24
 20
-121
 11
-24
 21
-130
  0
LINE
  8
0
 10
-24
 20
-130
 11
-7.70001
 21
-130
  0
LINE
  8
0
 10
-7.70001
 20
-130
 11
-7.70001
 21
-129
  0
LINE
  8
0
 10
-7.70001
 20
-129
 11
-1.70001
 21
-129
  0
LINE
  8
0
 10
-1.70001
 20
-129
 11
-1.70001
 21
-148
  0
LINE
  8
0
 10
-1.70001
 20
-148
 11
-7.70001
 21
-148
  0
LINE
  8
0
 10
-7.70001
 20
-148
 11
-7.70001
 21
-147
  0
LINE
  8
0
 10
-7.70001
 20
-147
 11
-24
 21
-147
  0
LINE
  8
0
 10
-24
 20
-147
 11
-24
 21
-156
  0
LINE
  8
0
 10
-24
 20
-156
 11
6.29999
 21
-156
  0
LINE
  8
0
 10
6.29999
 20
-156
 11
6.29999
 21
-121
  0
LINE
  8
0
 10
-20.1673
 20
-126.591
 11
-20.4944
 21
-126.522
  0
LINE
  8
0
 10
-20.4944
 20
-126.522
 11
-20.8
 21
-126.386
  0
LINE
  8
0
 10
-20.8
 20
-126.386
 11
-21.0706
 21
-126.189
  0
LINE
  8
0
 10
-21.0706
 20
-126.189
 11
-21.2944
 21
-125.94
  0
LINE
  8
0
 10
-21.2944
 20
-125.94
 11
-21.4617
 21
-125.651
  0
LINE
  8
0
 10
-21.4617
 20
-125.651
 11
-21.565
 21
-125.333
  0
LINE
  8
0
 10
-21.565
 20
-125.333
 11
-21.6
 21
-125
  0
LINE
  8
0
 10
-21.6
 20
-125
 11
-21.565
 21
-124.667
  0
LINE
  8
0
 10
-21.565
 20
-124.667
 11
-21.4617
 21
-124.349
  0
LINE
  8
0
 10
-21.4617
 20
-124.349
 11
-21.2944
 21
-124.06
  0
LINE
  8
0
 10
-21.2944
 20
-124.06
 11
-21.0706
 21
-123.811
  0
LINE
  8
0
 10
-21.0706
 20
-123.811
 11
-20.8
 21
-123.614
  0
LINE
  8
0
 10
-20.8
 20
-123.614
 11
-20.4944
 21
-123.478
  0
LINE
  8
0
 10
-20.4944
 20
-123.478
 11
-20.1673
 21
-123.409
  0
LINE
  8
0
 10
-20.1673
 20
-123.409
 11
-19.8328
 21
-123.409
  0
LINE
  8
0
 10
-19.8328
 20
-123.409
 11
-19.5056
 21
-123.478
  0
LINE
  8
0
 10
-19.5056
 20
-123.478
 11
-19.2
 21
-123.614
  0
LINE
  8
0
 10
-19.2
 20
-123.614
 11
-18.9294
 21
-123.811
  0
LINE
  8
0
 10
-18.9294
 20
-123.811
 11
-18.7056
 21
-124.06
  0
LINE
  8
0
 10
-18.7056
 20
-124.06
 11
-18.5383
 21
-124.349
  0
LINE
  8
0
 10
-18.5383
 20
-124.349
 11
-18.435
 21
-124.667
  0
LINE
  8
0
 10
-18.435
 20
-124.667
 11
-18.4
 21
-125
  0
LINE
  8
0
 10
-18.4
 20
-125
 11
-18.435
 21
-125.333
  0
LINE
  8
0
 10
-18.435
 20
-125.333
 11
-18.5383
 21
-125.651
  0
LINE
  8
0
 10
-18.5383
 20
-125.651
 11
-18.7056
 21
-125.94
  0
LINE
  8
0
 10
-18.7056
 20
-125.94
 11
-18.9294
 21
-126.189
  0
LINE
  8
0
 10
-18.9294
 20
-126.189
 11
-19.2
 21
-126.386
  0
LINE
  8
0
 10
-19.2
 20
-126.386
 11
-19.5056
 21
-126.522
  0
LINE
  8
0
 10
-19.5056
 20
-126.522
 11
-19.8328
 21
-126.591
  0
LINE
  8
0
 10
-19.8328
 20
-126.591
 11
-20.1673
 21
-126.591
  0
LINE
  8
0
 10
2.13275
 20
-126.591
 11
1.80557
 21
-126.522
  0
LINE
  8
0
 10
1.80557
 20
-126.522
 11
1.5
 21
-126.386
  0
LINE
  8
0
 10
1.5
 20
-126.386
 11
1.22939
 21
-126.189
  0
LINE
  8
0
 10
1.22939
 20
-126.189
 11
1.00557
 21
-125.94
  0
LINE
  8
0
 10
1.00557
 20
-125.94
 11
0.838318
 21
-125.651
  0
LINE
  8
0
 10
0.838318
 20
-125.651
 11
0.734955
 21
-125.333
  0
LINE
  8
0
 10
0.734955
 20
-125.333
 11
0.699997
 21
-125
  0
LINE
  8
0
 10
0.699997
 20
-125
 11
0.734955
 21
-124.667
  0
LINE
  8
0
 10
0.734955
 20
-124.667
 11
0.838318
 21
-124.349
  0
LINE
  8
0
 10
0.838318
 20
-124.349
 11
1.00557
 21
-124.06
  0
LINE
  8
0
 10
1.00557
 20
-124.06
 11
1.22939
 21
-123.811
  0
LINE
  8
0
 10
1.22939
 20
-123.811
 11
1.5
 21
-123.614
  0
LINE
  8
0
 10
1.5
 20
-123.614
 11
1.80557
 21
-123.478
  0
LINE
  8
0
 10
1.80557
 20
-123.478
 11
2.13275
 21
-123.409
  0
LINE
  8
0
 10
2.13275
 20
-123.409
 11
2.46724
 21
-123.409
  0
LINE
  8
0
 10
2.46724
 20
-123.409
 11
2.79442
 21
-123.478
  0
LINE
  8
0
 10
2.79442
 20
-123.478
 11
3.09999
 21
-123.614
  0
LINE
  8
0
 10
3.09999
 20
-123.614
 11
3.37061
 21
-123.811
  0
LINE
  8
0
 10
3.37061
 20
-123.811
 11
3.59442
 21
-124.06
  0
LINE
  8
0
 10
3.59442
 20
-124.06
 11
3.76166
 21
-124.349
  0
LINE
  8
0
 10
3.76166
 20
-124.349
 11
3.86504
 21
-124.667
  0
LINE
  8
0
 10
3.86504
 20
-124.667
 11
3.89999
 21
-125
  0
LINE
  8
0
 10
3.89999
 20
-125
 11
3.86504
 21
-125.333
  0
LINE
  8
0
 10
3.86504
 20
-125.333
 11
3.76166
 21
-125.651
  0
LINE
  8
0
 10
3.76166
 20
-125.651
 11
3.59442
 21
-125.94
  0
LINE
  8
0
 10
3.59442
 20
-125.94
 11
3.37061
 21
-126.189
  0
LINE
  8
0
 10
3.37061
 20
-126.189
 11
3.09999
 21
-126.386
  0
LINE
  8
0
 10
3.09999
 20
-126.386
 11
2.79442
 21
-126.522
  0
LINE
  8
0
 10
2.79442
 20
-126.522
 11
2.46724
 21
-126.591
  0
LINE
  8
0
 10
2.46724
 20
-126.591
 11
2.13275
 21
-126.591
  0
LINE
  8
0
 10
-20.1673
 20
-153.591
 11
-20.4944
 21
-153.522
  0
LINE
  8
0
 10
-20.4944
 20
-153.522
 11
-20.8
 21
-153.386
  0
LINE
  8
0
 10
-20.8
 20
-153.386
 11
-21.0706
 21
-153.189
  0
LINE
  8
0
 10
-21.0706
 20
-153.189
 11
-21.2944
 21
-152.94
  0
LINE
  8
0
 10
-21.2944
 20
-152.94
 11
-21.4617
 21
-152.651
  0
LINE
  8
0
 10
-21.4617
 20
-152.651
 11
-21.565
 21
-152.333
  0
LINE
  8
0
 10
-21.565
 20
-152.333
 11
-21.6
 21
-152
  0
LINE
  8
0
 10
-21.6
 20
-152
 11
-21.565
 21
-151.667
  0
LINE
  8
0
 10
-21.565
 20
-151.667
 11
-21.4617
 21
-151.349
  0
LINE
  8
0
 10
-21.4617
 20
-151.349
 11
-21.2944
 21
-151.06
  0
LINE
  8
0
 10
-21.2944
 20
-151.06
 11
-21.0706
 21
-150.811
  0
LINE
  8
0
 10
-21.0706
 20
-150.811
 11
-20.8
 21
-150.614
  0
LINE
  8
0
 10
-20.8
 20
-150.614
 11
-20.4944
 21
-150.478
  0
LINE
  8
0
 10
-20.4944
 20
-150.478
 11
-20.1673
 21
-150.409
  0
LINE
  8
0
 10
-20.1673
 20
-150.409
 11
-19.8328
 21
-150.409
  0
LINE
  8
0
 10
-19.8328
 20
-150.409
 11
-19.5056
 21
-150.478
  0
LINE
  8
0
 10
-19.5056
 20
-150.478
 11
-19.2
 21
-150.614
  0
LINE
  8
0
 10
-19.2
 20
-150.614
 11
-18.9294
 21
-150.811
  0
LINE
  8
0
 10
-18.9294
 20
-150.811
 11
-18.7056
 21
-151.06
  0
LINE
  8
0
 10
-18.7056
 20
-151.06
 11
-18.5383
 21
-151.349
  0
LINE
  8
0
 10
-18.5383
 20
-151.349
 11
-18.435
 21
-151.667
  0
LINE
  8
0
 10
-18.435
 20
-151.667
 11
-18.4
 21
-152
  0
LINE
  8
0
 10
-18.4
 20
-152
 11
-18.435
 21
-152.333
  0
LINE
  8
0
 10
-18.435
 20
-152.333
 11
-18.5383
 21
-152.651
  0
LINE
  8
0
 10
-18.5383
 20
-152.651
 11
-18.7056
 21
-152.94
  0
LINE
  8
0
 10
-18.7056
 20
-152.94
 11
-18.9294
 21
-153.189
  0
LINE
  8
0
 10
-18.9294
 20
-153.189
 11
-19.2
 21
-153.386
  0
LINE
  8
0
 10
-19.2
 20
-153.386
 11
-19.5056
 21
-153.522
  0
LINE
  8
0
 10
-19.5056
 20
-153.522
 11
-19.8328
 21
-153.591
  0
LINE
  8
0
 10
-19.8328
 20
-153.591
 11
-20.1673
 21
-153.591
  0
LINE
  8
0
 10
2.13275
 20
-153.591
 11
1.80557
 21
-153.522
  0
LINE
  8
0
 10
1.80557
 20
-153.522
 11
1.5
 21
-153.386
  0
LINE
  8
0
 10
1.5
 20
-153.386
 11
1.22939
 21
-153.189
  0
LINE
  8
0
 10
1.22939
 20
-153.189
 11
1.00557
 21
-152.94
  0
LINE
  8
0
 10
1.00557
 20
-152.94
 11
0.838318
 21
-152.651
  0
LINE
  8
0
 10
0.838318
 20
-152.651
 11
0.734955
 21
-152.333
  0
LINE
  8
0
 10
0.734955
 20
-152.333
 11
0.699997
 21
-152
  0
LINE
  8
0
 10
0.699997
 20
-152
 11
0.734955
 21
-151.667
  0
LINE
  8
0
 10
0.734955
 20
-151.667
 11
0.838318
 21
-151.349
  0
LINE
  8
0
 10
0.838318
 20
-151.349
 11
1.00557
 21
-151.06
  0
LINE
  8
0
 10
1.00557
 20
-151.06
 11
1.22939
 21
-150.811
  0
LINE
  8
0
 10
1.22939
 20
-150.811
 11
1.5
 21
-150.614
  0
LINE
  8
0
 10
1.5
 20
-150.614
 11
1.80557
 21
-150.478
  0
LINE
  8
0
 10
1.80557
 20
-150.478
 11
2.13275
 21
-150.409
  0
LINE
  8
0
 10
2.13275
 20
-150.409
 11
2.46724
 21
-150.409
  0
LINE
  8
0
 10
2.46724
 20
-150.409
 11
2.79442
 21
-150.478
  0
LINE
  8
0
 10
2.79442
 20
-150.478
 11
3.09999
 21
-150.614
  0
LINE
  8
0
 10
3.09999
 20
-150.614
 11
3.37061
 21
-150.811
  0
LINE
  8
0
 10
3.37061
 20
-150.811
 11
3.59442
 21
-151.06
  0
LINE
  8
0
 10
3.59442
 20
-151.06
 11
3.76166
 21
-151.349
  0
LINE
  8
0
 10
3.76166
 20
-151.349
 11
3.86504
 21
-151.667
  0
LINE
  8
0
 10
3.86504
 20
-151.667
 11
3.89999
 21
-152
  0
LINE
  8
0
 10
3.89999
 20
-152
 11
3.86504
 21
-152.333
  0
LINE
  8
0
 10
3.86504
 20
-152.333
 11
3.76166
 21
-152.651
  0
LINE
  8
0
 10
3.76166
 20
-152.651
 11
3.59442
 21
-152.94
  0
LINE
  8
0
 10
3.59442
 20
-152.94
 11
3.37061
 21
-153.189
  0
LINE
  8
0
 10
3.37061
 20
-153.189
 11
3.09999
 21
-153.386
  0
LINE
  8
0
 10
3.09999
 20
-153.386
 11
2.79442
 21
-153.522
  0
LINE
  8
0
 10
2.79442
 20
-153.522
 11
2.46724
 21
-153.591
  0
LINE
  8
0
 10
2.46724
 20
-153.591
 11
2.13275
 21
-153.591
  0
LINE
  8
0
 10
-30.7
 20
-121
 11
-61
 21
-121
  0
LINE
  8
0
 10
-61
 20
-121
 11
-61
 21
-130
  0
LINE
  8
0
 10
-61
 20
-130
 11
-44.7
 21
-130
  0
LINE
  8
0
 10
-44.7
 20
-130
 11
-44.7
 21
-129
  0
LINE
  8
0
 10
-44.7
 20
-129
 11
-38.7
 21
-129
  0
LINE
  8
0
 10
-38.7
 20
-129
 11
-38.7
 21
-148
  0
LINE
  8
0
 10
-38.7
 20
-148
 11
-44.7
 21
-148
  0
LINE
  8
0
 10
-44.7
 20
-148
 11
-44.7
 21
-147
  0
LINE
  8
0
 10
-44.7
 20
-147
 11
-61
 21
-147
  0
LINE
  8
0
 10
-61
 20
-147
 11
-61
 21
-156
  0
LINE
  8
0
 10
-61
 20
-156
 11
-30.7
 21
-156
  0
LINE
  8
0
 10
-30.7
 20
-156
 11
-30.7
 21
-121
  0
LINE
  8
0
 10
-34.8672
 20
-126.591
 11
-35.1944
 21
-126.522
  0
LINE
  8
0
 10
-35.1944
 20
-126.522
 11
-35.5
 21
-126.386
  0
LINE
  8
0
 10
-35.5
 20
-126.386
 11
-35.7706
 21
-126.189
  0
LINE
  8
0
 10
-35.7706
 20
-126.189
 11
-35.9944
 21
-125.94
  0
LINE
  8
0
 10
-35.9944
 20
-125.94
 11
-36.1617
 21
-125.651
  0
LINE
  8
0
 10
-36.1617
 20
-125.651
 11
-36.265
 21
-125.333
  0
LINE
  8
0
 10
-36.265
 20
-125.333
 11
-36.3
 21
-125
  0
LINE
  8
0
 10
-36.3
 20
-125
 11
-36.265
 21
-124.667
  0
LINE
  8
0
 10
-36.265
 20
-124.667
 11
-36.1617
 21
-124.349
  0
LINE
  8
0
 10
-36.1617
 20
-124.349
 11
-35.9944
 21
-124.06
  0
LINE
  8
0
 10
-35.9944
 20
-124.06
 11
-35.7706
 21
-123.811
  0
LINE
  8
0
 10
-35.7706
 20
-123.811
 11
-35.5
 21
-123.614
  0
LINE
  8
0
 10
-35.5
 20
-123.614
 11
-35.1944
 21
-123.478
  0
LINE
  8
0
 10
-35.1944
 20
-123.478
 11
-34.8672
 21
-123.409
  0
LINE
  8
0
 10
-34.8672
 20
-123.409
 11
-34.5328
 21
-123.409
  0
LINE
  8
0
 10
-34.5328
 20
-123.409
 11
-34.2056
 21
-123.478
  0
LINE
  8
0
 10
-34.2056
 20
-123.478
 11
-33.9
 21
-123.614
  0
LINE
  8
0
 10
-33.9
 20
-123.614
 11
-33.6294
 21
-123.811
  0
LINE
  8
0
 10
-33.6294
 20
-123.811
 11
-33.4056
 21
-124.06
  0
LINE
  8
0
 10
-33.4056
 20
-124.06
 11
-33.2383
 21
-124.349
  0
LINE
  8
0
 10
-33.2383
 20
-124.349
 11
-33.135
 21
-124.667
  0
LINE
  8
0
 10
-33.135
 20
-124.667
 11
-33.1
 21
-125
  0
LINE
  8
0
 10
-33.1
 20
-125
 11
-33.135
 21
-125.333
  0
LINE
  8
0
 10
-33.135
 20
-125.333
 11
-33.2383
 21
-125.651
  0
LINE
  8
0
 10
-33.2383
 20
-125.651
 11
-33.4056
 21
-125.94
  0
LINE
  8
0
 10
-33.4056
 20
-125.94
 11
-33.6294
 21
-126.189
  0
LINE
  8
0
 10
-33.6294
 20
-126.189
 11
-33.9
 21
-126.386
  0
LINE
  8
0
 10
-33.9
 20
-126.386
 11
-34.2056
 21
-126.522
  0
LINE
  8
0
 10
-34.2056
 20
-126.522
 11
-34.5328
 21
-126.591
  0
LINE
  8
0
 10
-34.5328
 20
-126.591
 11
-34.8672
 21
-126.591
  0
LINE
  8
0
 10
-57.1673
 20
-126.591
 11
-57.4944
 21
-126.522
  0
LINE
  8
0
 10
-57.4944
 20
-126.522
 11
-57.8
 21
-126.386
  0
LINE
  8
0
 10
-57.8
 20
-126.386
 11
-58.0706
 21
-126.189
  0
LINE
  8
0
 10
-58.0706
 20
-126.189
 11
-58.2944
 21
-125.94
  0
LINE
  8
0
 10
-58.2944
 20
-125.94
 11
-58.4617
 21
-125.651
  0
LINE
  8
0
 10
-58.4617
 20
-125.651
 11
-58.565
 21
-125.333
  0
LINE
  8
0
 10
-58.565
 20
-125.333
 11
-58.6
 21
-125
  0
LINE
  8
0
 10
-58.6
 20
-125
 11
-58.565
 21
-124.667
  0
LINE
  8
0
 10
-58.565
 20
-124.667
 11
-58.4617
 21
-124.349
  0
LINE
  8
0
 10
-58.4617
 20
-124.349
 11
-58.2944
 21
-124.06
  0
LINE
  8
0
 10
-58.2944
 20
-124.06
 11
-58.0706
 21
-123.811
  0
LINE
  8
0
 10
-58.0706
 20
-123.811
 11
-57.8
 21
-123.614
  0
LINE
  8
0
 10
-57.8
 20
-123.614
 11
-57.4944
 21
-123.478
  0
LINE
  8
0
 10
-57.4944
 20
-123.478
 11
-57.1673
 21
-123.409
  0
LINE
  8
0
 10
-57.1673
 20
-123.409
 11
-56.8328
 21
-123.409
  0
LINE
  8
0
 10
-56.8328
 20
-123.409
 11
-56.5056
 21
-123.478
  0
LINE
  8
0
 10
-56.5056
 20
-123.478
 11
-56.2
 21
-123.614
  0
LINE
  8
0
 10
-56.2
 20
-123.614
 11
-55.9294
 21
-123.811
  0
LINE
  8
0
 10
-55.9294
 20
-123.811
 11
-55.7056
 21
-124.06
  0
LINE
  8
0
 10
-55.7056
 20
-124.06
 11
-55.5383
 21
-124.349
  0
LINE
  8
0
 10
-55.5383
 20
-124.349
 11
-55.435
 21
-124.667
  0
LINE
  8
0
 10
-55.435
 20
-124.667
 11
-55.4
 21
-125
  0
LINE
  8
0
 10
-55.4
 20
-125
 11
-55.435
 21
-125.333
  0
LINE
  8
0
 10
-55.435
 20
-125.333
 11
-55.5383
 21
-125.651
  0
LINE
  8
0
 10
-55.5383
 20
-125.651
 11
-55.7056
 21
-125.94
  0
LINE
  8
0
 10
-55.7056
 20
-125.94
 11
-55.9294
 21
-126.189
  0
LINE
  8
0
 10
-55.9294
 20
-126.189
 11
-56.2
 21
-126.386
  0
LINE
  8
0
 10
-56.2
 20
-126.386
 11
-56.5056
 21
-126.522
  0
LINE
  8
0
 10
-56.5056
 20
-126.522
 11
-56.8328
 21
-126.591
  0
LINE
  8
0
 10
-56.8328
 20
-126.591
 11
-57.1673
 21
-126.591
  0
LINE
  8
0
 10
-57.1673
 20
-153.591
 11
-57.4944
 21
-153.522
  0
LINE
  8
0
 10
-57.4944
 20
-153.522
 11
-57.8
 21
-153.386
  0
LINE
  8
0
 10
-57.8
 20
-153.386
 11
-58.0706
 21
-153.189
  0
LINE
  8
0
 10
-58.0706
 20
-153.189
 11
-58.2944
 21
-152.94
  0
LINE
  8
0
 10
-58.2944
 20
-152.94
 11
-58.4617
 21
-152.651
  0
LINE
  8
0
 10
-58.4617
 20
-152.651
 11
-58.565
 21
-152.333
  0
LINE
  8
0
 10
-58.565
 20
-152.333
 11
-58.6
 21
-152
  0
LINE
  8
0
 10
-58.6
 20
-152
 11
-58.565
 21
-151.667
  0
LINE
  8
0
 10
-58.565
 20
-151.667
 11
-58.4617
 21
-151.349
  0
LINE
  8
0
 10
-58.4617
 20
-151.349
 11
-58.2944
 21
-151.06
  0
LINE
  8
0
 10
-58.2944
 20
-151.06
 11
-58.0706
 21
-150.811
  0
LINE
  8
0
 10
-58.0706
 20
-150.811
 11
-57.8
 21
-150.614
  0
LINE
  8
0
 10
-57.8
 20
-150.614
 11
-57.4944
 21
-150.478
  0
LINE
  8
0
 10
-57.4944
 20
-150.478
 11
-57.1673
 21
-150.409
  0
LINE
  8
0
 10
-57.1673
 20
-150.409
 11
-56.8328
 21
-150.409
  0
LINE
  8
0
 10
-56.8328
 20
-150.409
 11
-56.5056
 21
-150.478
  0
LINE
  8
0
 10
-56.5056
 20
-150.478
 11
-56.2
 21
-150.614
  0
LINE
  8
0
 10
-56.2
 20
-150.614
 11
-55.9294
 21
-150.811
  0
LINE
  8
0
 10
-55.9294
 20
-150.811
 11
-55.7056
 21
-151.06
  0
LINE
  8
0
 10
-55.7056
 20
-151.06
 11
-55.5383
 21
-151.349
  0
LINE
  8
0
 10
-55.5383
 20
-151.349
 11
-55.435
 21
-151.667
  0
LINE
  8
0
 10
-55.435
 20
-151.667
 11
-55.4
 21
-152
  0
LINE
  8
0
 10
-55.4
 20
-152
 11
-55.435
 21
-152.333
  0
LINE
  8
0
 10
-55.435
 20
-152.333
 11
-55.5383
 21
-152.651
  0
LINE
  8
0
 10
-55.5383
 20
-152.651
 11
-55.7056
 21
-152.94
  0
LINE
  8
0
 10
-55.7056
 20
-152.94
 11
-55.9294
 21
-153.189
  0
LINE
  8
0
 10
-55.9294
 20
-153.189
 11
-56.2
 21
-153.386
  0
LINE
  8
0
 10
-56.2
 20
-153.386
 11
-56.5056
 21
-153.522
  0
LINE
  8
0
 10
-56.5056
 20
-153.522
 11
-56.8328
 21
-153.591
  0
LINE
  8
0
 10
-56.8328
 20
-153.591
 11
-57.1673
 21
-153.591
  0
LINE
  8
0
 10
-34.8672
 20
-153.591
 11
-35.1944
 21
-153.522
  0
LINE
  8
0
 10
-35.1944
 20
-153.522
 11
-35.5
 21
-153.386
  0
LINE
  8
0
 10
-35.5
 20
-153.386
 11
-35.7706
 21
-153.189
  0
LINE
  8
0
 10
-35.7706
 20
-153.189
 11
-35.9944
 21
-152.94
  0
LINE
  8
0
 10
-35.9944
 20
-152.94
 11
-36.1617
 21
-152.651
  0
LINE
  8
0
 10
-36.1617
 20
-152.651
 11
-36.265
 21
-152.333
  0
LINE
  8
0
 10
-36.265
 20
-152.333
 11
-36.3
 21
-152
  0
LINE
  8
0
 10
-36.3
 20
-152
 11
-36.265
 21
-151.667
  0
LINE
  8
0
 10
-36.265
 20
-151.667
 11
-36.1617
 21
-151.349
  0
LINE
  8
0
 10
-36.1617
 20
-151.349
 11
-35.9944
 21
-151.06
  0
LINE
  8
0
 10
-35.9944
 20
-151.06
 11
-35.7706
 21
-150.811
  0
LINE
  8
0
 10
-35.7706
 20
-150.811
 11
-35.5
 21
-150.614
  0
LINE
  8
0
 10
-35.5
 20
-150.614
 11
-35.1944
 21
-150.478
  0
LINE
  8
0
 10
-35.1944
 20
-150.478
 11
-34.8672
 21
-150.409
  0
LINE
  8
0
 10
-34.8672
 20
-150.409
 11
-34.5328
 21
-150.409
  0
LINE
  8
0
 10
-34.5328
 20
-150.409
 11
-34.2056
 21
-150.478
  0
LINE
  8
0
 10
-34.2056
 20
-150.478
 11
-33.9
 21
-150.614
  0
LINE
  8
0
 10
-33.9
 20
-150.614
 11
-33.6294
 21
-150.811
  0
LINE
  8
0
 10
-33.6294
 20
-150.811
 11
-33.4056
 21
-151.06
  0
LINE
  8
0
 10
-33.4056
 20
-151.06
 11
-33.2383
 21
-151.349
  0
LINE
  8
0
 10
-33.2383
 20
-151.349
 11
-33.135
 21
-151.667
  0
LINE
  8
0
 10
-33.135
 20
-151.667
 11
-33.1
 21
-152
  0
LINE
  8
0
 10
-33.1
 20
-152
 11
-33.135
 21
-152.333
  0
LINE
  8
0
 10
-33.135
 20
-152.333
 11
-33.2383
 21
-152.651
  0
LINE
  8
0
 10
-33.2383
 20
-152.651
 11
-33.4056
 21
-152.94
  0
LINE
  8
0
 10
-33.4056
 20
-152.94
 11
-33.6294
 21
-153.189
  0
LINE
  8
0
 10
-33.6294
 20
-153.189
 11
-33.9
 21
-153.386
  0
LINE
  8
0
 10
-33.9
 20
-153.386
 11
-34.2056
 21
-153.522
  0
LINE
  8
0
 10
-34.2056
 20
-153.522
 11
-34.5328
 21
-153.591
  0
LINE
  8
0
 10
-34.5328
 20
-153.591
 11
-34.8672
 21
-153.591
  0
LINE
  8
0
 10
43.3
 20
-121
 11
13
 21
-121
  0
LINE
  8
0
 10
13
 20
-121
 11
13
 21
-130
  0
LINE
  8
0
 10
13
 20
-130
 11
29.3
 21
-130
  0
LINE
  8
0
 10
29.3
 20
-130
 11
29.3
 21
-129
  0
LINE
  8
0
 10
29.3
 20
-129
 11
35.3
 21
-129
  0
LINE
  8
0
 10
35.3
 20
-129
 11
35.3
 21
-148
  0
LINE
  8
0
 10
35.3
 20
-148
 11
29.3
 21
-148
  0
LINE
  8
0
 10
29.3
 20
-148
 11
29.3
 21
-147
  0
LINE
  8
0
 10
29.3
 20
-147
 11
13
 21
-147
  0
LINE
  8
0
 10
13
 20
-147
 11
13
 21
-156
  0
LINE
  8
0
 10
13
 20
-156
 11
43.3
 21
-156
  0
LINE
  8
0
 10
43.3
 20
-156
 11
43.3
 21
-121
  0
LINE
  8
0
 10
16.8327
 20
-126.591
 11
16.5056
 21
-126.522
  0
LINE
  8
0
 10
16.5056
 20
-126.522
 11
16.2
 21
-126.386
  0
LINE
  8
0
 10
16.2
 20
-126.386
 11
15.9294
 21
-126.189
  0
LINE
  8
0
 10
15.9294
 20
-126.189
 11
15.7056
 21
-125.94
  0
LINE
  8
0
 10
15.7056
 20
-125.94
 11
15.5383
 21
-125.651
  0
LINE
  8
0
 10
15.5383
 20
-125.651
 11
15.435
 21
-125.333
  0
LINE
  8
0
 10
15.435
 20
-125.333
 11
15.4
 21
-125
  0
LINE
  8
0
 10
15.4
 20
-125
 11
15.435
 21
-124.667
  0
LINE
  8
0
 10
15.435
 20
-124.667
 11
15.5383
 21
-124.349
  0
LINE
  8
0
 10
15.5383
 20
-124.349
 11
15.7056
 21
-124.06
  0
LINE
  8
0
 10
15.7056
 20
-124.06
 11
15.9294
 21
-123.811
  0
LINE
  8
0
 10
15.9294
 20
-123.811
 11
16.2
 21
-123.614
  0
LINE
  8
0
 10
16.2
 20
-123.614
 11
16.5056
 21
-123.478
  0
LINE
  8
0
 10
16.5056
 20
-123.478
 11
16.8327
 21
-123.409
  0
LINE
  8
0
 10
16.8327
 20
-123.409
 11
17.1672
 21
-123.409
  0
LINE
  8
0
 10
17.1672
 20
-123.409
 11
17.4944
 21
-123.478
  0
LINE
  8
0
 10
17.4944
 20
-123.478
 11
17.8
 21
-123.614
  0
LINE
  8
0
 10
17.8
 20
-123.614
 11
18.0706
 21
-123.811
  0
LINE
  8
0
 10
18.0706
 20
-123.811
 11
18.2944
 21
-124.06
  0
LINE
  8
0
 10
18.2944
 20
-124.06
 11
18.4617
 21
-124.349
  0
LINE
  8
0
 10
18.4617
 20
-124.349
 11
18.565
 21
-124.667
  0
LINE
  8
0
 10
18.565
 20
-124.667
 11
18.6
 21
-125
  0
LINE
  8
0
 10
18.6
 20
-125
 11
18.565
 21
-125.333
  0
LINE
  8
0
 10
18.565
 20
-125.333
 11
18.4617
 21
-125.651
  0
LINE
  8
0
 10
18.4617
 20
-125.651
 11
18.2944
 21
-125.94
  0
LINE
  8
0
 10
18.2944
 20
-125.94
 11
18.0706
 21
-126.189
  0
LINE
  8
0
 10
18.0706
 20
-126.189
 11
17.8
 21
-126.386
  0
LINE
  8
0
 10
17.8
 20
-126.386
 11
17.4944
 21
-126.522
  0
LINE
  8
0
 10
17.4944
 20
-126.522
 11
17.1672
 21
-126.591
  0
LINE
  8
0
 10
17.1672
 20
-126.591
 11
16.8327
 21
-126.591
  0
LINE
  8
0
 10
39.1328
 20
-126.591
 11
38.8056
 21
-126.522
  0
LINE
  8
0
 10
38.8056
 20
-126.522
 11
38.5
 21
-126.386
  0
LINE
  8
0
 10
38.5
 20
-126.386
 11
38.2294
 21
-126.189
  0
LINE
  8
0
 10
38.2294
 20
-126.189
 11
38.0056
 21
-125.94
  0
LINE
  8
0
 10
38.0056
 20
-125.94
 11
37.8383
 21
-125.651
  0
LINE
  8
0
 10
37.8383
 20
-125.651
 11
37.735
 21
-125.333
  0
LINE
  8
0
 10
37.735
 20
-125.333
 11
37.7
 21
-125
  0
LINE
  8
0
 10
37.7
 20
-125
 11
37.735
 21
-124.667
  0
LINE
  8
0
 10
37.735
 20
-124.667
 11
37.8383
 21
-124.349
  0
LINE
  8
0
 10
37.8383
 20
-124.349
 11
38.0056
 21
-124.06
  0
LINE
  8
0
 10
38.0056
 20
-124.06
 11
38.2294
 21
-123.811
  0
LINE
  8
0
 10
38.2294
 20
-123.811
 11
38.5
 21
-123.614
  0
LINE
  8
0
 10
38.5
 20
-123.614
 11
38.8056
 21
-123.478
  0
LINE
  8
0
 10
38.8056
 20
-123.478
 11
39.1328
 21
-123.409
  0
LINE
  8
0
 10
39.1328
 20
-123.409
 11
39.4672
 21
-123.409
  0
LINE
  8
0
 10
39.4672
 20
-123.409
 11
39.7944
 21
-123.478
  0
LINE
  8
0
 10
39.7944
 20
-123.478
 11
40.1
 21
-123.614
  0
LINE
  8
0
 10
40.1
 20
-123.614
 11
40.3706
 21
-123.811
  0
LINE
  8
0
 10
40.3706
 20
-123.811
 11
40.5944
 21
-124.06
  0
LINE
  8
0
 10
40.5944
 20
-124.06
 11
40.7617
 21
-124.349
  0
LINE
  8
0
 10
40.7617
 20
-124.349
 11
40.865
 21
-124.667
  0
LINE
  8
0
 10
40.865
 20
-124.667
 11
40.9
 21
-125
  0
LINE
  8
0
 10
40.9
 20
-125
 11
40.865
 21
-125.333
  0
LINE
  8
0
 10
40.865
 20
-125.333
 11
40.7617
 21
-125.651
  0
LINE
  8
0
 10
40.7617
 20
-125.651
 11
40.5944
 21
-125.94
  0
LINE
  8
0
 10
40.5944
 20
-125.94
 11
40.3706
 21
-126.189
  0
LINE
  8
0
 10
40.3706
 20
-126.189
 11
40.1
 21
-126.386
  0
LINE
  8
0
 10
40.1
 20
-126.386
 11
39.7944
 21
-126.522
  0
LINE
  8
0
 10
39.7944
 20
-126.522
 11
39.4672
 21
-126.591
  0
LINE
  8
0
 10
39.4672
 20
-126.591
 11
39.1328
 21
-126.591
  0
LINE
  8
0
 10
39.1328
 20
-153.591
 11
38.8056
 21
-153.522
  0
LINE
  8
0
 10
38.8056
 20
-153.522
 11
38.5
 21
-153.386
  0
LINE
  8
0
 10
38.5
 20
-153.386
 11
38.2294
 21
-153.189
  0
LINE
  8
0
 10
38.2294
 20
-153.189
 11
38.0056
 21
-152.94
  0
LINE
  8
0
 10
38.0056
 20
-152.94
 11
37.8383
 21
-152.651
  0
LINE
  8
0
 10
37.8383
 20
-152.651
 11
37.735
 21
-152.333
  0
LINE
  8
0
 10
37.735
 20
-152.333
 11
37.7
 21
-152
  0
LINE
  8
0
 10
37.7
 20
-152
 11
37.735
 21
-151.667
  0
LINE
  8
0
 10
37.735
 20
-151.667
 11
37.8383
 21
-151.349
  0
LINE
  8
0
 10
37.8383
 20
-151.349
 11
38.0056
 21
-151.06
  0
LINE
  8
0
 10
38.0056
 20
-151.06
 11
38.2294
 21
-150.811
  0
LINE
  8
0
 10
38.2294
 20
-150.811
 11
38.5
 21
-150.614
  0
LINE
  8
0
 10
38.5
 20
-150.614
 11
38.8056
 21
-150.478
  0
LINE
  8
0
 10
38.8056
 20
-150.478
 11
39.1328
 21
-150.409
  0
LINE
  8
0
 10
39.1328
 20
-150.409
 11
39.4672
 21
-150.409
  0
LINE
  8
0
 10
39.4672
 20
-150.409
 11
39.7944
 21
-150.478
  0
LINE
  8
0
 10
39.7944
 20
-150.478
 11
40.1
 21
-150.614
  0
LINE
  8
0
 10
40.1
 20
-150.614
 11
40.3706
 21
-150.811
  0
LINE
  8
0
 10
40.3706
 20
-150.811
 11
40.5944
 21
-151.06
  0
LINE
  8
0
 10
40.5944
 20
-151.06
 11
40.7617
 21
-151.349
  0
LINE
  8
0
 10
40.7617
 20
-151.349
 11
40.865
 21
-151.667
  0
LINE
  8
0
 10
40.865
 20
-151.667
 11
40.9
 21
-152
  0
LINE
  8
0
 10
40.9
 20
-152
 11
40.865
 21
-152.333
  0
LINE
  8
0
 10
40.865
 20
-152.333
 11
40.7617
 21
-152.651
  0
LINE
  8
0
 10
40.7617
 20
-152.651
 11
40.5944
 21
-152.94
  0
LINE
  8
0
 10
40.5944
 20
-152.94
 11
40.3706
 21
-153.189
  0
LINE
  8
0
 10
40.3706
 20
-153.189
 11
40.1
 21
-153.386
  0
LINE
  8
0
 10
40.1
 20
-153.386
 11
39.7944
 21
-153.522
  0
LINE
  8
0
 10
39.7944
 20
-153.522
 11
39.4672
 21
-153.591
  0
LINE
  8
0
 10
39.4672
 20
-153.591
 11
39.1328
 21
-153.591
  0
LINE
  8
0
 10
16.8327
 20
-153.591
 11
16.5056
 21
-153.522
  0
LINE
  8
0
 10
16.5056
 20
-153.522
 11
16.2
 21
-153.386
  0
LINE
  8
0
 10
16.2
 20
-153.386
 11
15.9294
 21
-153.189
  0
LINE
  8
0
 10
15.9294
 20
-153.189
 11
15.7056
 21
-152.94
  0
LINE
  8
0
 10
15.7056
 20
-152.94
 11
15.5383
 21
-152.651
  0
LINE
  8
0
 10
15.5383
 20
-152.651
 11
15.435
 21
-152.333
  0
LINE
  8
0
 10
15.435
 20
-152.333
 11
15.4
 21
-152
  0
LINE
  8
0
 10
15.4
 20
-152
 11
15.435
 21
-151.667
  0
LINE
  8
0
 10
15.435
 20
-151.667
 11
15.5383
 21
-151.349
  0
LINE
  8
0
 10
15.5383
 20
-151.349
 11
15.7056
 21
-151.06
  0
LINE
  8
0
 10
15.7056
 20
-151.06
 11
15.9294
 21
-150.811
  0
LINE
  8
0
 10
15.9294
 20
-150.811
 11
16.2
 21
-150.614
  0
LINE
  8
0
 10
16.2
 20
-150.614
 11
16.5056
 21
-150.478
  0
LINE
  8
0
 10
16.5056
 20
-150.478
 11
16.8327
 21
-150.409
  0
LINE
  8
0
 10
16.8327
 20
-150.409
 11
17.1672
 21
-150.409
  0
LINE
  8
0
 10
17.1672
 20
-150.409
 11
17.4944
 21
-150.478
  0
LINE
  8
0
 10
17.4944
 20
-150.478
 11
17.8
 21
-150.614
  0
LINE
  8
0
 10
17.8
 20
-150.614
 11
18.0706
 21
-150.811
  0
LINE
  8
0
 10
18.0706
 20
-150.811
 11
18.2944
 21
-151.06
  0
LINE
  8
0
 10
18.2944
 20
-151.06
 11
18.4617
 21
-151.349
  0
LINE
  8
0
 10
18.4617
 20
-151.349
 11
18.565
 21
-151.667
  0
LINE
  8
0
 10
18.565
 20
-151.667
 11
18.6
 21
-152
  0
LINE
  8
0
 10
18.6
 20
-152
 11
18.565
 21
-152.333
  0
LINE
  8
0
 10
18.565
 20
-152.333
 11
18.4617
 21
-152.651
  0
LINE
  8
0
 10
18.4617
 20
-152.651
 11
18.2944
 21
-152.94
  0
LINE
  8
0
 10
18.2944
 20
-152.94
 11
18.0706
 21
-153.189
  0
LINE
  8
0
 10
18.0706
 20
-153.189
 11
17.8
 21
-153.386
  0
LINE
  8
0
 10
17.8
 20
-153.386
 11
17.4944
 21
-153.522
  0
LINE
  8
0
 10
17.4944
 20
-153.522
 11
17.1672
 21
-153.591
  0
LINE
  8
0
 10
17.1672
 20
-153.591
 11
16.8327
 21
-153.591
  0
LINE
  8
0
 10
-65.7
 20
-121
 11
-96
 21
-121
  0
LINE
  8
0
 10
-96
 20
-121
 11
-96
 21
-129
  0
LINE
  8
0
 10
-96
 20
-129
 11
-73.7
 21
-129
  0
LINE
  8
0
 10
-73.7
 20
-129
 11
-73.7
 21
-148
  0
LINE
  8
0
 10
-73.7
 20
-148
 11
-96
 21
-148
  0
LINE
  8
0
 10
-96
 20
-148
 11
-96
 21
-156
  0
LINE
  8
0
 10
-96
 20
-156
 11
-65.7
 21
-156
  0
LINE
  8
0
 10
-65.7
 20
-156
 11
-65.7
 21
-121
  0
LINE
  8
0
 10
-69.8672
 20
-126.591
 11
-70.1944
 21
-126.522
  0
LINE
  8
0
 10
-70.1944
 20
-126.522
 11
-70.5
 21
-126.386
  0
LINE
  8
0
 10
-70.5
 20
-126.386
 11
-70.7706
 21
-126.189
  0
LINE
  8
0
 10
-70.7706
 20
-126.189
 11
-70.9944
 21
-125.94
  0
LINE
  8
0
 10
-70.9944
 20
-125.94
 11
-71.1617
 21
-125.651
  0
LINE
  8
0
 10
-71.1617
 20
-125.651
 11
-71.265
 21
-125.333
  0
LINE
  8
0
 10
-71.265
 20
-125.333
 11
-71.3
 21
-125
  0
LINE
  8
0
 10
-71.3
 20
-125
 11
-71.265
 21
-124.667
  0
LINE
  8
0
 10
-71.265
 20
-124.667
 11
-71.1617
 21
-124.349
  0
LINE
  8
0
 10
-71.1617
 20
-124.349
 11
-70.9944
 21
-124.06
  0
LINE
  8
0
 10
-70.9944
 20
-124.06
 11
-70.7706
 21
-123.811
  0
LINE
  8
0
 10
-70.7706
 20
-123.811
 11
-70.5
 21
-123.614
  0
LINE
  8
0
 10
-70.5
 20
-123.614
 11
-70.1944
 21
-123.478
  0
LINE
  8
0
 10
-70.1944
 20
-123.478
 11
-69.8672
 21
-123.409
  0
LINE
  8
0
 10
-69.8672
 20
-123.409
 11
-69.5328
 21
-123.409
  0
LINE
  8
0
 10
-69.5328
 20
-123.409
 11
-69.2056
 21
-123.478
  0
LINE
  8
0
 10
-69.2056
 20
-123.478
 11
-68.9
 21
-123.614
  0
LINE
  8
0
 10
-68.9
 20
-123.614
 11
-68.6294
 21
-123.811
  0
LINE
  8
0
 10
-68.6294
 20
-123.811
 11
-68.4056
 21
-124.06
  0
LINE
  8
0
 10
-68.4056
 20
-124.06
 11
-68.2383
 21
-124.349
  0
LINE
  8
0
 10
-68.2383
 20
-124.349
 11
-68.135
 21
-124.667
  0
LINE
  8
0
 10
-68.135
 20
-124.667
 11
-68.1
 21
-125
  0
LINE
  8
0
 10
-68.1
 20
-125
 11
-68.135
 21
-125.333
  0
LINE
  8
0
 10
-68.135
 20
-125.333
 11
-68.2383
 21
-125.651
  0
LINE
  8
0
 10
-68.2383
 20
-125.651
 11
-68.4056
 21
-125.94
  0
LINE
  8
0
 10
-68.4056
 20
-125.94
 11
-68.6294
 21
-126.189
  0
LINE
  8
0
 10
-68.6294
 20
-126.189
 11
-68.9
 21
-126.386
  0
LINE
  8
0
 10
-68.9
 20
-126.386
 11
-69.2056
 21
-126.522
  0
LINE
  8
0
 10
-69.2056
 20
-126.522
 11
-69.5328
 21
-126.591
  0
LINE
  8
0
 10
-69.5328
 20
-126.591
 11
-69.8672
 21
-126.591
  0
LINE
  8
0
 10
-92.1673
 20
-126.591
 11
-92.4944
 21
-126.522
  0
LINE
  8
0
 10
-92.4944
 20
-126.522
 11
-92.8
 21
-126.386
  0
LINE
  8
0
 10
-92.8
 20
-126.386
 11
-93.0706
 21
-126.189
  0
LINE
  8
0
 10
-93.0706
 20
-126.189
 11
-93.2944
 21
-125.94
  0
LINE
  8
0
 10
-93.2944
 20
-125.94
 11
-93.4617
 21
-125.651
  0
LINE
  8
0
 10
-93.4617
 20
-125.651
 11
-93.565
 21
-125.333
  0
LINE
  8
0
 10
-93.565
 20
-125.333
 11
-93.6
 21
-125
  0
LINE
  8
0
 10
-93.6
 20
-125
 11
-93.565
 21
-124.667
  0
LINE
  8
0
 10
-93.565
 20
-124.667
 11
-93.4617
 21
-124.349
  0
LINE
  8
0
 10
-93.4617
 20
-124.349
 11
-93.2944
 21
-124.06
  0
LINE
  8
0
 10
-93.2944
 20
-124.06
 11
-93.0706
 21
-123.811
  0
LINE
  8
0
 10
-93.0706
 20
-123.811
 11
-92.8
 21
-123.614
  0
LINE
  8
0
 10
-92.8
 20
-123.614
 11
-92.4944
 21
-123.478
  0
LINE
  8
0
 10
-92.4944
 20
-123.478
 11
-92.1673
 21
-123.409
  0
LINE
  8
0
 10
-92.1673
 20
-123.409
 11
-91.8328
 21
-123.409
  0
LINE
  8
0
 10
-91.8328
 20
-123.409
 11
-91.5056
 21
-123.478
  0
LINE
  8
0
 10
-91.5056
 20
-123.478
 11
-91.2
 21
-123.614
  0
LINE
  8
0
 10
-91.2
 20
-123.614
 11
-90.9294
 21
-123.811
  0
LINE
  8
0
 10
-90.9294
 20
-123.811
 11
-90.7056
 21
-124.06
  0
LINE
  8
0
 10
-90.7056
 20
-124.06
 11
-90.5383
 21
-124.349
  0
LINE
  8
0
 10
-90.5383
 20
-124.349
 11
-90.435
 21
-124.667
  0
LINE
  8
0
 10
-90.435
 20
-124.667
 11
-90.4
 21
-125
  0
LINE
  8
0
 10
-90.4
 20
-125
 11
-90.435
 21
-125.333
  0
LINE
  8
0
 10
-90.435
 20
-125.333
 11
-90.5383
 21
-125.651
  0
LINE
  8
0
 10
-90.5383
 20
-125.651
 11
-90.7056
 21
-125.94
  0
LINE
  8
0
 10
-90.7056
 20
-125.94
 11
-90.9294
 21
-126.189
  0
LINE
  8
0
 10
-90.9294
 20
-126.189
 11
-91.2
 21
-126.386
  0
LINE
  8
0
 10
-91.2
 20
-126.386
 11
-91.5056
 21
-126.522
  0
LINE
  8
0
 10
-91.5056
 20
-126.522
 11
-91.8328
 21
-126.591
  0
LINE
  8
0
 10
-91.8328
 20
-126.591
 11
-92.1673
 21
-126.591
  0
LINE
  8
0
 10
-92.1673
 20
-153.591
 11
-92.4944
 21
-153.522
  0
LINE
  8
0
 10
-92.4944
 20
-153.522
 11
-92.8
 21
-153.386
  0
LINE
  8
0
 10
-92.8
 20
-153.386
 11
-93.0706
 21
-153.189
  0
LINE
  8
0
 10
-93.0706
 20
-153.189
 11
-93.2944
 21
-152.94
  0
LINE
  8
0
 10
-93.2944
 20
-152.94
 11
-93.4617
 21
-152.651
  0
LINE
  8
0
 10
-93.4617
 20
-152.651
 11
-93.565
 21
-152.333
  0
LINE
  8
0
 10
-93.565
 20
-152.333
 11
-93.6
 21
-152
  0
LINE
  8
0
 10
-93.6
 20
-152
 11
-93.565
 21
-151.667
  0
LINE
  8
0
 10
-93.565
 20
-151.667
 11
-93.4617
 21
-151.349
  0
LINE
  8
0
 10
-93.4617
 20
-151.349
 11
-93.2944
 21
-151.06
  0
LINE
  8
0
 10
-93.2944
 20
-151.06
 11
-93.0706
 21
-150.811
  0
LINE
  8
0
 10
-93.0706
 20
-150.811
 11
-92.8
 21
-150.614
  0
LINE
  8
0
 10
-92.8
 20
-150.614
 11
-92.4944
 21
-150.478
  0
LINE
  8
0
 10
-92.4944
 20
-150.478
 11
-92.1673
 21
-150.409
  0
LINE
  8
0
 10
-92.1673
 20
-150.409
 11
-91.8328
 21
-150.409
  0
LINE
  8
0
 10
-91.8328
 20
-150.409
 11
-91.5056
 21
-150.478
  0
LINE
  8
0
 10
-91.5056
 20
-150.478
 11
-91.2
 21
-150.614
  0
LINE
  8
0
 10
-91.2
 20
-150.614
 11
-90.9294
 21
-150.811
  0
LINE
  8
0
 10
-90.9294
 20
-150.811
 11
-90.7056
 21
-151.06
  0
LINE
  8
0
 10
-90.7056
 20
-151.06
 11
-90.5383
 21
-151.349
  0
LINE
  8
0
 10
-90.5383
 20
-151.349
 11
-90.435
 21
-151.667
  0
LINE
  8
0
 10
-90.435
 20
-151.667
 11
-90.4
 21
-152
  0
LINE
  8
0
 10
-90.4
 20
-152
 11
-90.435
 21
-152.333
  0
LINE
  8
0
 10
-90.435
 20
-152.333
 11
-90.5383
 21
-152.651
  0
LINE
  8
0
 10
-90.5383
 20
-152.651
 11
-90.7056
 21
-152.94
  0
LINE
  8
0
 10
-90.7056
 20
-152.94
 11
-90.9294
 21
-153.189
  0
LINE
  8
0
 10
-90.9294
 20
-153.189
 11
-91.2
 21
-153.386
  0
LINE
  8
0
 10
-91.2
 20
-153.386
 11
-91.5056
 21
-153.522
  0
LINE
  8
0
 10
-91.5056
 20
-153.522
 11
-91.8328
 21
-153.591
  0
LINE
  8
0
 10
-91.8328
 20
-153.591
 11
-92.1673
 21
-153.591
  0
LINE
  8
0
 10
-69.8672
 20
-153.591
 11
-70.1944
 21
-153.522
  0
LINE
  8
0
 10
-70.1944
 20
-153.522
 11
-70.5
 21
-153.386
  0
LINE
  8
0
 10
-70.5
 20
-153.386
 11
-70.7706
 21
-153.189
  0
LINE
  8
0
 10
-70.7706
 20
-153.189
 11
-70.9944
 21
-152.94
  0
LINE
  8
0
 10
-70.9944
 20
-152.94
 11
-71.1617
 21
-152.651
  0
LINE
  8
0
 10
-71.1617
 20
-152.651
 11
-71.265
 21
-152.333
  0
LINE
  8
0
 10
-71.265
 20
-152.333
 11
-71.3
 21
-152
  0
LINE
  8
0
 10
-71.3
 20
-152
 11
-71.265
 21
-151.667
  0
LINE
  8
0
 10
-71.265
 20
-151.667
 11
-71.1617
 21
-151.349
  0
LINE
  8
0
 10
-71.1617
 20
-151.349
 11
-70.9944
 21
-151.06
  0
LINE
  8
0
 10
-70.9944
 20
-151.06
 11
-70.7706
 21
-150.811
  0
LINE
  8
0
 10
-70.7706
 20
-150.811
 11
-70.5
 21
-150.614
  0
LINE
  8
0
 10
-70.5
 20
-150.614
 11
-70.1944
 21
-150.478
  0
LINE
  8
0
 10
-70.1944
 20
-150.478
 11
-69.8672
 21
-150.409
  0
LINE
  8
0
 10
-69.8672
 20
-150.409
 11
-69.5328
 21
-150.409
  0
LINE
  8
0
 10
-69.5328
 20
-150.409
 11
-69.2056
 21
-150.478
  0
LINE
  8
0
 10
-69.2056
 20
-150.478
 11
-68.9
 21
-150.614
  0
LINE
  8
0
 10
-68.9
 20
-150.614
 11
-68.6294
 21
-150.811
  0
LINE
  8
0
 10
-68.6294
 20
-150.811
 11
-68.4056
 21
-151.06
  0
LINE
  8
0
 10
-68.4056
 20
-151.06
 11
-68.2383
 21
-151.349
  0
LINE
  8
0
 10
-68.2383
 20
-151.349
 11
-68.135
 21
-151.667
  0
LINE
  8
0
 10
-68.135
 20
-151.667
 11
-68.1
 21
-152
  0
LINE
  8
0
 10
-68.1
 20
-152
 11
-68.135
 21
-152.333
  0
LINE
  8
0
 10
-68.135
 20
-152.333
 11
-68.2383
 21
-152.651
  0
LINE
  8
0
 10
-68.2383
 20
-152.651
 11
-68.4056
 21
-152.94
  0
LINE
  8
0
 10
-68.4056
 20
-152.94
 11
-68.6294
 21
-153.189
  0
LINE
  8
0
 10
-68.6294
 20
-153.189
 11
-68.9
 21
-153.386
  0
LINE
  8
0
 10
-68.9
 20
-153.386
 11
-69.2056
 21
-153.522
  0
LINE
  8
0
 10
-69.2056
 20
-153.522
 11
-69.5328
 21
-153.591
  0
LINE
  8
0
 10
-69.5328
 20
-153.591
 11
-69.8672
 21
-153.591
  0
LINE
  8
0
 10
-63
 20
-171
 11
-93
 21
-171
  0
LINE
  8
0
 10
-93
 20
-171
 11
-93
 21
-181
  0
LINE
  8
0
 10
-93
 20
-181
 11
-96
 21
-181
  0
LINE
  8
0
 10
-96
 20
-181
 11
-96
 21
-191
  0
LINE
  8
0
 10
-96
 20
-191
 11
-93
 21
-191
  0
LINE
  8
0
 10
-93
 20
-191
 11
-93
 21
-201
  0
LINE
  8
0
 10
-93
 20
-201
 11
-63
 21
-201
  0
LINE
  8
0
 10
-63
 20
-201
 11
-63
 21
-171
  0
LINE
  8
0
 10
-78.993
 20
-195.448
 11
-80.9357
 21
-195.035
  0
LINE
  8
0
 10
-80.9357
 20
-195.035
 11
-82.75
 21
-194.227
  0
LINE
  8
0
 10
-82.75
 20
-194.227
 11
-84.3567
 21
-193.06
  0
LINE
  8
0
 10
-84.3567
 20
-193.06
 11
-85.6857
 21
-191.584
  0
LINE
  8
0
 10
-85.6857
 20
-191.584
 11
-86.6787
 21
-189.864
  0
LINE
  8
0
 10
-86.6787
 20
-189.864
 11
-87.1219
 21
-188.5
  0
LINE
  8
0
 10
-87.1219
 20
-188.5
 11
-90
 21
-188.5
  0
LINE
  8
0
 10
-90
 20
-188.5
 11
-90
 21
-183.5
  0
LINE
  8
0
 10
-90
 20
-183.5
 11
-87.1219
 21
-183.5
  0
LINE
  8
0
 10
-87.1219
 20
-183.5
 11
-86.6787
 21
-182.136
  0
LINE
  8
0
 10
-86.6787
 20
-182.136
 11
-85.6857
 21
-180.416
  0
LINE
  8
0
 10
-85.6857
 20
-180.416
 11
-84.3567
 21
-178.94
  0
LINE
  8
0
 10
-84.3567
 20
-178.94
 11
-82.75
 21
-177.773
  0
LINE
  8
0
 10
-82.75
 20
-177.773
 11
-80.9357
 21
-176.965
  0
LINE
  8
0
 10
-80.9357
 20
-176.965
 11
-78.993
 21
-176.552
  0
LINE
  8
0
 10
-78.993
 20
-176.552
 11
-77.007
 21
-176.552
  0
LINE
  8
0
 10
-77.007
 20
-176.552
 11
-75.0643
 21
-176.965
  0
LINE
  8
0
 10
-75.0643
 20
-176.965
 11
-73.25
 21
-177.773
  0
LINE
  8
0
 10
-73.25
 20
-177.773
 11
-71.6432
 21
-178.94
  0
LINE
  8
0
 10
-71.6432
 20
-178.94
 11
-70.3143
 21
-180.416
  0
LINE
  8
0
 10
-70.3143
 20
-180.416
 11
-69.3213
 21
-182.136
  0
LINE
  8
0
 10
-69.3213
 20
-182.136
 11
-68.8781
 21
-183.5
  0
LINE
  8
0
 10
-68.8781
 20
-183.5
 11
-66
 21
-183.5
  0
LINE
  8
0
 10
-66
 20
-183.5
 11
-66
 21
-188.5
  0
LINE
  8
0
 10
-66
 20
-188.5
 11
-68.8781
 21
-188.5
  0
LINE
  8
0
 10
-68.8781
 20
-188.5
 11
-69.3213
 21
-189.864
  0
LINE
  8
0
 10
-69.3213
 20
-189.864
 11
-70.3143
 21
-191.584
  0
LINE
  8
0
 10
-70.3143
 20
-191.584
 11
-71.6432
 21
-193.06
  0
LINE
  8
0
 10
-71.6432
 20
-193.06
 11
-73.25
 21
-194.227
  0
LINE
  8
0
 10
-73.25
 20
-194.227
 11
-75.0643
 21
-195.035
  0
LINE
  8
0
 10
-75.0643
 20
-195.035
 11
-77.007
 21
-195.448
  0
LINE
  8
0
 10
-77.007
 20
-195.448
 11
-78.993
 21
-195.448
  0
LINE
  8
0
 10
-23
 20
-171
 11
-53
 21
-171
  0
LINE
  8
0
 10
-53
 20
-171
 11
-53
 21
-181
  0
LINE
  8
0
 10
-53
 20
-181
 11
-56
 21
-181
  0
LINE
  8
0
 10
-56
 20
-181
 11
-56
 21
-191
  0
LINE
  8
0
 10
-56
 20
-191
 11
-53
 21
-191
  0
LINE
  8
0
 10
-53
 20
-191
 11
-53
 21
-201
  0
LINE
  8
0
 10
-53
 20
-201
 11
-23
 21
-201
  0
LINE
  8
0
 10
-23
 20
-201
 11
-23
 21
-171
  0
LINE
  8
0
 10
-38.993
 20
-195.448
 11
-40.9357
 21
-195.035
  0
LINE
  8
0
 10
-40.9357
 20
-195.035
 11
-42.75
 21
-194.227
  0
LINE
  8
0
 10
-42.75
 20
-194.227
 11
-44.3567
 21
-193.06
  0
LINE
  8
0
 10
-44.3567
 20
-193.06
 11
-45.6857
 21
-191.584
  0
LINE
  8
0
 10
-45.6857
 20
-191.584
 11
-46.6787
 21
-189.864
  0
LINE
  8
0
 10
-46.6787
 20
-189.864
 11
-47.1219
 21
-188.5
  0
LINE
  8
0
 10
-47.1219
 20
-188.5
 11
-50
 21
-188.5
  0
LINE
  8
0
 10
-50
 20
-188.5
 11
-50
 21
-183.5
  0
LINE
  8
0
 10
-50
 20
-183.5
 11
-47.1219
 21
-183.5
  0
LINE
  8
0
 10
-47.1219
 20
-183.5
 11
-46.6787
 21
-182.136
  0
LINE
  8
0
 10
-46.6787
 20
-182.136
 11
-45.6857
 21
-180.416
  0
LINE
  8
0
 10
-45.6857
 20
-180.416
 11
-44.3567
 21
-178.94
  0
LINE
  8
0
 10
-44.3567
 20
-178.94
 11
-42.75
 21
-177.773
  0
LINE
  8
0
 10
-42.75
 20
-177.773
 11
-40.9357
 21
-176.965
  0
LINE
  8
0
 10
-40.9357
 20
-176.965
 11
-38.993
 21
-176.552
  0
LINE
  8
0
 10
-38.993
 20
-176.552
 11
-37.007
 21
-176.552
  0
LINE
  8
0
 10
-37.007
 20
-176.552
 11
-35.0643
 21
-176.965
  0
LINE
  8
0
 10
-35.0643
 20
-176.965
 11
-33.25
 21
-177.773
  0
LINE
  8
0
 10
-33.25
 20
-177.773
 11
-31.6432
 21
-178.94
  0
LINE
  8
0
 10
-31.6432
 20
-178.94
 11
-30.3143
 21
-180.416
  0
LINE
  8
0
 10
-30.3143
 20
-180.416
 11
-29.3213
 21
-182.136
  0
LINE
  8
0
 10
-29.3213
 20
-182.136
 11
-28.8781
 21
-183.5
  0
LINE
  8
0
 10
-28.8781
 20
-183.5
 11
-26
 21
-183.5
  0
LINE
  8
0
 10
-26
 20
-183.5
 11
-26
 21
-188.5
  0
LINE
  8
0
 10
-26
 20
-188.5
 11
-28.8781
 21
-188.5
  0
LINE
  8
0
 10
-28.8781
 20
-188.5
 11
-29.3213
 21
-189.864
  0
LINE
  8
0
 10
-29.3213
 20
-189.864
 11
-30.3143
 21
-191.584
  0
LINE
  8
0
 10
-30.3143
 20
-191.584
 11
-31.6432
 21
-193.06
  0
LINE
  8
0
 10
-31.6432
 20
-193.06
 11
-33.25
 21
-194.227
  0
LINE
  8
0
 10
-33.25
 20
-194.227
 11
-35.0643
 21
-195.035
  0
LINE
  8
0
 10
-35.0643
 20
-195.035
 11
-37.007
 21
-195.448
  0
LINE
  8
0
 10
-37.007
 20
-195.448
 11
-38.993
 21
-195.448
  0
ENDSEC
  0
SECTION
  2
OBJECTS
  0
DICTIONARY
  0
ENDSEC
  0
EOF
