  0
SECTION
  2
BLOCKS
  0
ENDSEC
  0
SECTION
  2
ENTITIES
  0
LINE
  8
0
 10
35.4016
 20
-36
 11
35.4016
 21
-33
  0
LINE
  8
0
 10
35.4016
 20
-33
 11
65.0711
 21
-33
  0
LINE
  8
0
 10
65.0711
 20
-33
 11
65.0711
 21
-36
  0
LINE
  8
0
 10
65.0711
 20
-36
 11
81.0711
 21
-36
  0
LINE
  8
0
 10
81.0711
 20
-36
 11
81.0711
 21
36
  0
LINE
  8
0
 10
81.0711
 20
36
 11
65.0711
 21
36
  0
LINE
  8
0
 10
65.0711
 20
36
 11
65.0711
 21
33
  0
LINE
  8
0
 10
65.0711
 20
33
 11
35.4016
 21
33
  0
LINE
  8
0
 10
35.4016
 20
33
 11
35.4016
 21
36
  0
LINE
  8
0
 10
35.4016
 20
36
 11
19.4016
 21
36
  0
LINE
  8
0
 10
19.4016
 20
36
 11
19.4016
 21
33
  0
LINE
  8
0
 10
19.4016
 20
33
 11
-19.4016
 21
33
  0
LINE
  8
0
 10
-19.4016
 20
33
 11
-19.4016
 21
36
  0
LINE
  8
0
 10
-19.4016
 20
36
 11
-35.4016
 21
36
  0
LINE
  8
0
 10
-35.4016
 20
36
 11
-35.4016
 21
33
  0
LINE
  8
0
 10
-35.4016
 20
33
 11
-65.0711
 21
33
  0
LINE
  8
0
 10
-65.0711
 20
33
 11
-65.0711
 21
36
  0
LINE
  8
0
 10
-65.0711
 20
36
 11
-81.0711
 21
36
  0
LINE
  8
0
 10
-81.0711
 20
36
 11
-81.0711
 21
-33
  0
LINE
  8
0
 10
-81.0711
 20
-33
 11
19.4016
 21
-33
  0
LINE
  8
0
 10
19.4016
 20
-33
 11
19.4016
 21
-36
  0
LINE
  8
0
 10
19.4016
 20
-36
 11
35.4016
 21
-36
  0
LINE
  8
0
 10
46.0711
 20
0
 11
46.0711
 21
15
  0
LINE
  8
0
 10
46.0711
 20
15
 11
64.0711
 21
15
  0
LINE
  8
0
 10
64.0711
 20
15
 11
64.0711
 21
0
  0
LINE
  8
0
 10
64.0711
 20
0
 11
46.0711
 21
0
  0
LINE
  8
0
 10
-65.0711
 20
-33
 11
-81.0711
 21
-33
  0
LINE
  8
0
 10
-81.0711
 20
-33
 11
-81.0711
 21
-36
  0
LINE
  8
0
 10
-81.0711
 20
-36
 11
-65.0711
 21
-36
  0
LINE
  8
0
 10
-65.0711
 20
-36
 11
-65.0711
 21
-33
  0
LINE
  8
0
 10
-19.4016
 20
-33
 11
-35.4016
 21
-33
  0
LINE
  8
0
 10
-35.4016
 20
-33
 11
-35.4016
 21
-36
  0
LINE
  8
0
 10
-35.4016
 20
-36
 11
-19.4016
 21
-36
  0
LINE
  8
0
 10
-19.4016
 20
-36
 11
-19.4016
 21
-33
  0
ENDSEC
  0
SECTION
  2
OBJECTS
  0
DICTIONARY
  0
ENDSEC
  0
EOF
