  0
SECTION
  2
BLOCKS
  0
ENDSEC
  0
SECTION
  2
ENTITIES
  0
LINE
  8
0
 10
155
 20
35
 11
120
 21
35
  0
LINE
  8
0
 10
120
 20
35
 11
120
 21
0
  0
LINE
  8
0
 10
120
 20
0
 11
155
 21
0
  0
LINE
  8
0
 10
155
 20
0
 11
155
 21
35
  0
LINE
  8
0
 10
146.133
 20
29.4088
 11
145.806
 21
29.4783
  0
LINE
  8
0
 10
145.806
 20
29.4783
 11
145.5
 21
29.6143
  0
LINE
  8
0
 10
145.5
 20
29.6143
 11
145.229
 21
29.811
  0
LINE
  8
0
 10
145.229
 20
29.811
 11
145.006
 21
30.0595
  0
LINE
  8
0
 10
145.006
 20
30.0595
 11
144.838
 21
30.3492
  0
LINE
  8
0
 10
144.838
 20
30.3492
 11
144.735
 21
30.6673
  0
LINE
  8
0
 10
144.735
 20
30.6673
 11
144.7
 21
31
  0
LINE
  8
0
 10
144.7
 20
31
 11
144.735
 21
31.3327
  0
LINE
  8
0
 10
144.735
 20
31.3327
 11
144.838
 21
31.6508
  0
LINE
  8
0
 10
144.838
 20
31.6508
 11
145.006
 21
31.9404
  0
LINE
  8
0
 10
145.006
 20
31.9404
 11
145.229
 21
32.189
  0
LINE
  8
0
 10
145.229
 20
32.189
 11
145.5
 21
32.3856
  0
LINE
  8
0
 10
145.5
 20
32.3856
 11
145.806
 21
32.5217
  0
LINE
  8
0
 10
145.806
 20
32.5217
 11
146.133
 21
32.5912
  0
LINE
  8
0
 10
146.133
 20
32.5912
 11
146.467
 21
32.5912
  0
LINE
  8
0
 10
146.467
 20
32.5912
 11
146.794
 21
32.5217
  0
LINE
  8
0
 10
146.794
 20
32.5217
 11
147.1
 21
32.3856
  0
LINE
  8
0
 10
147.1
 20
32.3856
 11
147.371
 21
32.189
  0
LINE
  8
0
 10
147.371
 20
32.189
 11
147.594
 21
31.9404
  0
LINE
  8
0
 10
147.594
 20
31.9404
 11
147.762
 21
31.6508
  0
LINE
  8
0
 10
147.762
 20
31.6508
 11
147.865
 21
31.3327
  0
LINE
  8
0
 10
147.865
 20
31.3327
 11
147.9
 21
31
  0
LINE
  8
0
 10
147.9
 20
31
 11
147.865
 21
30.6673
  0
LINE
  8
0
 10
147.865
 20
30.6673
 11
147.762
 21
30.3492
  0
LINE
  8
0
 10
147.762
 20
30.3492
 11
147.594
 21
30.0595
  0
LINE
  8
0
 10
147.594
 20
30.0595
 11
147.371
 21
29.811
  0
LINE
  8
0
 10
147.371
 20
29.811
 11
147.1
 21
29.6143
  0
LINE
  8
0
 10
147.1
 20
29.6143
 11
146.794
 21
29.4783
  0
LINE
  8
0
 10
146.794
 20
29.4783
 11
146.467
 21
29.4088
  0
LINE
  8
0
 10
146.467
 20
29.4088
 11
146.133
 21
29.4088
  0
LINE
  8
0
 10
123.833
 20
29.4088
 11
123.506
 21
29.4783
  0
LINE
  8
0
 10
123.506
 20
29.4783
 11
123.2
 21
29.6143
  0
LINE
  8
0
 10
123.2
 20
29.6143
 11
122.929
 21
29.811
  0
LINE
  8
0
 10
122.929
 20
29.811
 11
122.706
 21
30.0595
  0
LINE
  8
0
 10
122.706
 20
30.0595
 11
122.538
 21
30.3492
  0
LINE
  8
0
 10
122.538
 20
30.3492
 11
122.435
 21
30.6673
  0
LINE
  8
0
 10
122.435
 20
30.6673
 11
122.4
 21
31
  0
LINE
  8
0
 10
122.4
 20
31
 11
122.435
 21
31.3327
  0
LINE
  8
0
 10
122.435
 20
31.3327
 11
122.538
 21
31.6508
  0
LINE
  8
0
 10
122.538
 20
31.6508
 11
122.706
 21
31.9404
  0
LINE
  8
0
 10
122.706
 20
31.9404
 11
122.929
 21
32.189
  0
LINE
  8
0
 10
122.929
 20
32.189
 11
123.2
 21
32.3856
  0
LINE
  8
0
 10
123.2
 20
32.3856
 11
123.506
 21
32.5217
  0
LINE
  8
0
 10
123.506
 20
32.5217
 11
123.833
 21
32.5912
  0
LINE
  8
0
 10
123.833
 20
32.5912
 11
124.167
 21
32.5912
  0
LINE
  8
0
 10
124.167
 20
32.5912
 11
124.494
 21
32.5217
  0
LINE
  8
0
 10
124.494
 20
32.5217
 11
124.8
 21
32.3856
  0
LINE
  8
0
 10
124.8
 20
32.3856
 11
125.071
 21
32.189
  0
LINE
  8
0
 10
125.071
 20
32.189
 11
125.294
 21
31.9404
  0
LINE
  8
0
 10
125.294
 20
31.9404
 11
125.462
 21
31.6508
  0
LINE
  8
0
 10
125.462
 20
31.6508
 11
125.565
 21
31.3327
  0
LINE
  8
0
 10
125.565
 20
31.3327
 11
125.6
 21
31
  0
LINE
  8
0
 10
125.6
 20
31
 11
125.565
 21
30.6673
  0
LINE
  8
0
 10
125.565
 20
30.6673
 11
125.462
 21
30.3492
  0
LINE
  8
0
 10
125.462
 20
30.3492
 11
125.294
 21
30.0595
  0
LINE
  8
0
 10
125.294
 20
30.0595
 11
125.071
 21
29.811
  0
LINE
  8
0
 10
125.071
 20
29.811
 11
124.8
 21
29.6143
  0
LINE
  8
0
 10
124.8
 20
29.6143
 11
124.494
 21
29.4783
  0
LINE
  8
0
 10
124.494
 20
29.4783
 11
124.167
 21
29.4088
  0
LINE
  8
0
 10
124.167
 20
29.4088
 11
123.833
 21
29.4088
  0
LINE
  8
0
 10
143
 20
9
 11
143
 21
26
  0
LINE
  8
0
 10
143
 20
26
 11
147
 21
26
  0
LINE
  8
0
 10
147
 20
26
 11
147
 21
9
  0
LINE
  8
0
 10
147
 20
9
 11
143
 21
9
  0
LINE
  8
0
 10
146.133
 20
2.40875
 11
145.806
 21
2.4783
  0
LINE
  8
0
 10
145.806
 20
2.4783
 11
145.5
 21
2.61435
  0
LINE
  8
0
 10
145.5
 20
2.61435
 11
145.229
 21
2.81096
  0
LINE
  8
0
 10
145.229
 20
2.81096
 11
145.006
 21
3.05954
  0
LINE
  8
0
 10
145.006
 20
3.05954
 11
144.838
 21
3.34921
  0
LINE
  8
0
 10
144.838
 20
3.34921
 11
144.735
 21
3.66733
  0
LINE
  8
0
 10
144.735
 20
3.66733
 11
144.7
 21
4
  0
LINE
  8
0
 10
144.7
 20
4
 11
144.735
 21
4.33266
  0
LINE
  8
0
 10
144.735
 20
4.33266
 11
144.838
 21
4.65077
  0
LINE
  8
0
 10
144.838
 20
4.65077
 11
145.006
 21
4.94044
  0
LINE
  8
0
 10
145.006
 20
4.94044
 11
145.229
 21
5.18903
  0
LINE
  8
0
 10
145.229
 20
5.18903
 11
145.5
 21
5.38564
  0
LINE
  8
0
 10
145.5
 20
5.38564
 11
145.806
 21
5.52168
  0
LINE
  8
0
 10
145.806
 20
5.52168
 11
146.133
 21
5.59123
  0
LINE
  8
0
 10
146.133
 20
5.59123
 11
146.467
 21
5.59123
  0
LINE
  8
0
 10
146.467
 20
5.59123
 11
146.794
 21
5.52168
  0
LINE
  8
0
 10
146.794
 20
5.52168
 11
147.1
 21
5.38564
  0
LINE
  8
0
 10
147.1
 20
5.38564
 11
147.371
 21
5.18903
  0
LINE
  8
0
 10
147.371
 20
5.18903
 11
147.594
 21
4.94044
  0
LINE
  8
0
 10
147.594
 20
4.94044
 11
147.762
 21
4.65077
  0
LINE
  8
0
 10
147.762
 20
4.65077
 11
147.865
 21
4.33266
  0
LINE
  8
0
 10
147.865
 20
4.33266
 11
147.9
 21
4
  0
LINE
  8
0
 10
147.9
 20
4
 11
147.865
 21
3.66733
  0
LINE
  8
0
 10
147.865
 20
3.66733
 11
147.762
 21
3.34921
  0
LINE
  8
0
 10
147.762
 20
3.34921
 11
147.594
 21
3.05954
  0
LINE
  8
0
 10
147.594
 20
3.05954
 11
147.371
 21
2.81096
  0
LINE
  8
0
 10
147.371
 20
2.81096
 11
147.1
 21
2.61435
  0
LINE
  8
0
 10
147.1
 20
2.61435
 11
146.794
 21
2.4783
  0
LINE
  8
0
 10
146.794
 20
2.4783
 11
146.467
 21
2.40875
  0
LINE
  8
0
 10
146.467
 20
2.40875
 11
146.133
 21
2.40875
  0
LINE
  8
0
 10
123.833
 20
2.40875
 11
123.506
 21
2.4783
  0
LINE
  8
0
 10
123.506
 20
2.4783
 11
123.2
 21
2.61435
  0
LINE
  8
0
 10
123.2
 20
2.61435
 11
122.929
 21
2.81096
  0
LINE
  8
0
 10
122.929
 20
2.81096
 11
122.706
 21
3.05954
  0
LINE
  8
0
 10
122.706
 20
3.05954
 11
122.538
 21
3.34921
  0
LINE
  8
0
 10
122.538
 20
3.34921
 11
122.435
 21
3.66733
  0
LINE
  8
0
 10
122.435
 20
3.66733
 11
122.4
 21
4
  0
LINE
  8
0
 10
122.4
 20
4
 11
122.435
 21
4.33266
  0
LINE
  8
0
 10
122.435
 20
4.33266
 11
122.538
 21
4.65077
  0
LINE
  8
0
 10
122.538
 20
4.65077
 11
122.706
 21
4.94044
  0
LINE
  8
0
 10
122.706
 20
4.94044
 11
122.929
 21
5.18903
  0
LINE
  8
0
 10
122.929
 20
5.18903
 11
123.2
 21
5.38564
  0
LINE
  8
0
 10
123.2
 20
5.38564
 11
123.506
 21
5.52168
  0
LINE
  8
0
 10
123.506
 20
5.52168
 11
123.833
 21
5.59123
  0
LINE
  8
0
 10
123.833
 20
5.59123
 11
124.167
 21
5.59123
  0
LINE
  8
0
 10
124.167
 20
5.59123
 11
124.494
 21
5.52168
  0
LINE
  8
0
 10
124.494
 20
5.52168
 11
124.8
 21
5.38564
  0
LINE
  8
0
 10
124.8
 20
5.38564
 11
125.071
 21
5.18903
  0
LINE
  8
0
 10
125.071
 20
5.18903
 11
125.294
 21
4.94044
  0
LINE
  8
0
 10
125.294
 20
4.94044
 11
125.462
 21
4.65077
  0
LINE
  8
0
 10
125.462
 20
4.65077
 11
125.565
 21
4.33266
  0
LINE
  8
0
 10
125.565
 20
4.33266
 11
125.6
 21
4
  0
LINE
  8
0
 10
125.6
 20
4
 11
125.565
 21
3.66733
  0
LINE
  8
0
 10
125.565
 20
3.66733
 11
125.462
 21
3.34921
  0
LINE
  8
0
 10
125.462
 20
3.34921
 11
125.294
 21
3.05954
  0
LINE
  8
0
 10
125.294
 20
3.05954
 11
125.071
 21
2.81096
  0
LINE
  8
0
 10
125.071
 20
2.81096
 11
124.8
 21
2.61435
  0
LINE
  8
0
 10
124.8
 20
2.61435
 11
124.494
 21
2.4783
  0
LINE
  8
0
 10
124.494
 20
2.4783
 11
124.167
 21
2.40875
  0
LINE
  8
0
 10
124.167
 20
2.40875
 11
123.833
 21
2.40875
  0
LINE
  8
0
 10
115
 20
35
 11
80
 21
35
  0
LINE
  8
0
 10
80
 20
35
 11
80
 21
0
  0
LINE
  8
0
 10
80
 20
0
 11
115
 21
0
  0
LINE
  8
0
 10
115
 20
0
 11
115
 21
35
  0
LINE
  8
0
 10
83.8327
 20
29.4088
 11
83.5056
 21
29.4783
  0
LINE
  8
0
 10
83.5056
 20
29.4783
 11
83.2
 21
29.6143
  0
LINE
  8
0
 10
83.2
 20
29.6143
 11
82.9294
 21
29.811
  0
LINE
  8
0
 10
82.9294
 20
29.811
 11
82.7056
 21
30.0595
  0
LINE
  8
0
 10
82.7056
 20
30.0595
 11
82.5383
 21
30.3492
  0
LINE
  8
0
 10
82.5383
 20
30.3492
 11
82.435
 21
30.6673
  0
LINE
  8
0
 10
82.435
 20
30.6673
 11
82.4
 21
31
  0
LINE
  8
0
 10
82.4
 20
31
 11
82.435
 21
31.3327
  0
LINE
  8
0
 10
82.435
 20
31.3327
 11
82.5383
 21
31.6508
  0
LINE
  8
0
 10
82.5383
 20
31.6508
 11
82.7056
 21
31.9404
  0
LINE
  8
0
 10
82.7056
 20
31.9404
 11
82.9294
 21
32.189
  0
LINE
  8
0
 10
82.9294
 20
32.189
 11
83.2
 21
32.3856
  0
LINE
  8
0
 10
83.2
 20
32.3856
 11
83.5056
 21
32.5217
  0
LINE
  8
0
 10
83.5056
 20
32.5217
 11
83.8327
 21
32.5912
  0
LINE
  8
0
 10
83.8327
 20
32.5912
 11
84.1672
 21
32.5912
  0
LINE
  8
0
 10
84.1672
 20
32.5912
 11
84.4944
 21
32.5217
  0
LINE
  8
0
 10
84.4944
 20
32.5217
 11
84.8
 21
32.3856
  0
LINE
  8
0
 10
84.8
 20
32.3856
 11
85.0706
 21
32.189
  0
LINE
  8
0
 10
85.0706
 20
32.189
 11
85.2944
 21
31.9404
  0
LINE
  8
0
 10
85.2944
 20
31.9404
 11
85.4617
 21
31.6508
  0
LINE
  8
0
 10
85.4617
 20
31.6508
 11
85.565
 21
31.3327
  0
LINE
  8
0
 10
85.565
 20
31.3327
 11
85.6
 21
31
  0
LINE
  8
0
 10
85.6
 20
31
 11
85.565
 21
30.6673
  0
LINE
  8
0
 10
85.565
 20
30.6673
 11
85.4617
 21
30.3492
  0
LINE
  8
0
 10
85.4617
 20
30.3492
 11
85.2944
 21
30.0595
  0
LINE
  8
0
 10
85.2944
 20
30.0595
 11
85.0706
 21
29.811
  0
LINE
  8
0
 10
85.0706
 20
29.811
 11
84.8
 21
29.6143
  0
LINE
  8
0
 10
84.8
 20
29.6143
 11
84.4944
 21
29.4783
  0
LINE
  8
0
 10
84.4944
 20
29.4783
 11
84.1672
 21
29.4088
  0
LINE
  8
0
 10
84.1672
 20
29.4088
 11
83.8327
 21
29.4088
  0
LINE
  8
0
 10
106.133
 20
29.4088
 11
105.806
 21
29.4783
  0
LINE
  8
0
 10
105.806
 20
29.4783
 11
105.5
 21
29.6143
  0
LINE
  8
0
 10
105.5
 20
29.6143
 11
105.229
 21
29.811
  0
LINE
  8
0
 10
105.229
 20
29.811
 11
105.006
 21
30.0595
  0
LINE
  8
0
 10
105.006
 20
30.0595
 11
104.838
 21
30.3492
  0
LINE
  8
0
 10
104.838
 20
30.3492
 11
104.735
 21
30.6673
  0
LINE
  8
0
 10
104.735
 20
30.6673
 11
104.7
 21
31
  0
LINE
  8
0
 10
104.7
 20
31
 11
104.735
 21
31.3327
  0
LINE
  8
0
 10
104.735
 20
31.3327
 11
104.838
 21
31.6508
  0
LINE
  8
0
 10
104.838
 20
31.6508
 11
105.006
 21
31.9404
  0
LINE
  8
0
 10
105.006
 20
31.9404
 11
105.229
 21
32.189
  0
LINE
  8
0
 10
105.229
 20
32.189
 11
105.5
 21
32.3856
  0
LINE
  8
0
 10
105.5
 20
32.3856
 11
105.806
 21
32.5217
  0
LINE
  8
0
 10
105.806
 20
32.5217
 11
106.133
 21
32.5912
  0
LINE
  8
0
 10
106.133
 20
32.5912
 11
106.467
 21
32.5912
  0
LINE
  8
0
 10
106.467
 20
32.5912
 11
106.794
 21
32.5217
  0
LINE
  8
0
 10
106.794
 20
32.5217
 11
107.1
 21
32.3856
  0
LINE
  8
0
 10
107.1
 20
32.3856
 11
107.371
 21
32.189
  0
LINE
  8
0
 10
107.371
 20
32.189
 11
107.594
 21
31.9404
  0
LINE
  8
0
 10
107.594
 20
31.9404
 11
107.762
 21
31.6508
  0
LINE
  8
0
 10
107.762
 20
31.6508
 11
107.865
 21
31.3327
  0
LINE
  8
0
 10
107.865
 20
31.3327
 11
107.9
 21
31
  0
LINE
  8
0
 10
107.9
 20
31
 11
107.865
 21
30.6673
  0
LINE
  8
0
 10
107.865
 20
30.6673
 11
107.762
 21
30.3492
  0
LINE
  8
0
 10
107.762
 20
30.3492
 11
107.594
 21
30.0595
  0
LINE
  8
0
 10
107.594
 20
30.0595
 11
107.371
 21
29.811
  0
LINE
  8
0
 10
107.371
 20
29.811
 11
107.1
 21
29.6143
  0
LINE
  8
0
 10
107.1
 20
29.6143
 11
106.794
 21
29.4783
  0
LINE
  8
0
 10
106.794
 20
29.4783
 11
106.467
 21
29.4088
  0
LINE
  8
0
 10
106.467
 20
29.4088
 11
106.133
 21
29.4088
  0
LINE
  8
0
 10
106.133
 20
2.40875
 11
105.806
 21
2.4783
  0
LINE
  8
0
 10
105.806
 20
2.4783
 11
105.5
 21
2.61435
  0
LINE
  8
0
 10
105.5
 20
2.61435
 11
105.229
 21
2.81096
  0
LINE
  8
0
 10
105.229
 20
2.81096
 11
105.006
 21
3.05954
  0
LINE
  8
0
 10
105.006
 20
3.05954
 11
104.838
 21
3.34921
  0
LINE
  8
0
 10
104.838
 20
3.34921
 11
104.735
 21
3.66733
  0
LINE
  8
0
 10
104.735
 20
3.66733
 11
104.7
 21
4
  0
LINE
  8
0
 10
104.7
 20
4
 11
104.735
 21
4.33266
  0
LINE
  8
0
 10
104.735
 20
4.33266
 11
104.838
 21
4.65077
  0
LINE
  8
0
 10
104.838
 20
4.65077
 11
105.006
 21
4.94044
  0
LINE
  8
0
 10
105.006
 20
4.94044
 11
105.229
 21
5.18903
  0
LINE
  8
0
 10
105.229
 20
5.18903
 11
105.5
 21
5.38564
  0
LINE
  8
0
 10
105.5
 20
5.38564
 11
105.806
 21
5.52168
  0
LINE
  8
0
 10
105.806
 20
5.52168
 11
106.133
 21
5.59123
  0
LINE
  8
0
 10
106.133
 20
5.59123
 11
106.467
 21
5.59123
  0
LINE
  8
0
 10
106.467
 20
5.59123
 11
106.794
 21
5.52168
  0
LINE
  8
0
 10
106.794
 20
5.52168
 11
107.1
 21
5.38564
  0
LINE
  8
0
 10
107.1
 20
5.38564
 11
107.371
 21
5.18903
  0
LINE
  8
0
 10
107.371
 20
5.18903
 11
107.594
 21
4.94044
  0
LINE
  8
0
 10
107.594
 20
4.94044
 11
107.762
 21
4.65077
  0
LINE
  8
0
 10
107.762
 20
4.65077
 11
107.865
 21
4.33266
  0
LINE
  8
0
 10
107.865
 20
4.33266
 11
107.9
 21
4
  0
LINE
  8
0
 10
107.9
 20
4
 11
107.865
 21
3.66733
  0
LINE
  8
0
 10
107.865
 20
3.66733
 11
107.762
 21
3.34921
  0
LINE
  8
0
 10
107.762
 20
3.34921
 11
107.594
 21
3.05954
  0
LINE
  8
0
 10
107.594
 20
3.05954
 11
107.371
 21
2.81096
  0
LINE
  8
0
 10
107.371
 20
2.81096
 11
107.1
 21
2.61435
  0
LINE
  8
0
 10
107.1
 20
2.61435
 11
106.794
 21
2.4783
  0
LINE
  8
0
 10
106.794
 20
2.4783
 11
106.467
 21
2.40875
  0
LINE
  8
0
 10
106.467
 20
2.40875
 11
106.133
 21
2.40875
  0
LINE
  8
0
 10
83.8327
 20
2.40875
 11
83.5056
 21
2.4783
  0
LINE
  8
0
 10
83.5056
 20
2.4783
 11
83.2
 21
2.61435
  0
LINE
  8
0
 10
83.2
 20
2.61435
 11
82.9294
 21
2.81096
  0
LINE
  8
0
 10
82.9294
 20
2.81096
 11
82.7056
 21
3.05954
  0
LINE
  8
0
 10
82.7056
 20
3.05954
 11
82.5383
 21
3.34921
  0
LINE
  8
0
 10
82.5383
 20
3.34921
 11
82.435
 21
3.66733
  0
LINE
  8
0
 10
82.435
 20
3.66733
 11
82.4
 21
4
  0
LINE
  8
0
 10
82.4
 20
4
 11
82.435
 21
4.33266
  0
LINE
  8
0
 10
82.435
 20
4.33266
 11
82.5383
 21
4.65077
  0
LINE
  8
0
 10
82.5383
 20
4.65077
 11
82.7056
 21
4.94044
  0
LINE
  8
0
 10
82.7056
 20
4.94044
 11
82.9294
 21
5.18903
  0
LINE
  8
0
 10
82.9294
 20
5.18903
 11
83.2
 21
5.38564
  0
LINE
  8
0
 10
83.2
 20
5.38564
 11
83.5056
 21
5.52168
  0
LINE
  8
0
 10
83.5056
 20
5.52168
 11
83.8327
 21
5.59123
  0
LINE
  8
0
 10
83.8327
 20
5.59123
 11
84.1672
 21
5.59123
  0
LINE
  8
0
 10
84.1672
 20
5.59123
 11
84.4944
 21
5.52168
  0
LINE
  8
0
 10
84.4944
 20
5.52168
 11
84.8
 21
5.38564
  0
LINE
  8
0
 10
84.8
 20
5.38564
 11
85.0706
 21
5.18903
  0
LINE
  8
0
 10
85.0706
 20
5.18903
 11
85.2944
 21
4.94044
  0
LINE
  8
0
 10
85.2944
 20
4.94044
 11
85.4617
 21
4.65077
  0
LINE
  8
0
 10
85.4617
 20
4.65077
 11
85.565
 21
4.33266
  0
LINE
  8
0
 10
85.565
 20
4.33266
 11
85.6
 21
4
  0
LINE
  8
0
 10
85.6
 20
4
 11
85.565
 21
3.66733
  0
LINE
  8
0
 10
85.565
 20
3.66733
 11
85.4617
 21
3.34921
  0
LINE
  8
0
 10
85.4617
 20
3.34921
 11
85.2944
 21
3.05954
  0
LINE
  8
0
 10
85.2944
 20
3.05954
 11
85.0706
 21
2.81096
  0
LINE
  8
0
 10
85.0706
 20
2.81096
 11
84.8
 21
2.61435
  0
LINE
  8
0
 10
84.8
 20
2.61435
 11
84.4944
 21
2.4783
  0
LINE
  8
0
 10
84.4944
 20
2.4783
 11
84.1672
 21
2.40875
  0
LINE
  8
0
 10
84.1672
 20
2.40875
 11
83.8327
 21
2.40875
  0
LINE
  8
0
 10
75
 20
35
 11
40
 21
35
  0
LINE
  8
0
 10
40
 20
35
 11
40
 21
26
  0
LINE
  8
0
 10
40
 20
26
 11
67
 21
26
  0
LINE
  8
0
 10
67
 20
26
 11
67
 21
9
  0
LINE
  8
0
 10
67
 20
9
 11
40
 21
9
  0
LINE
  8
0
 10
40
 20
9
 11
40
 21
0
  0
LINE
  8
0
 10
40
 20
0
 11
75
 21
0
  0
LINE
  8
0
 10
75
 20
0
 11
75
 21
35
  0
LINE
  8
0
 10
43.8327
 20
29.4088
 11
43.5056
 21
29.4783
  0
LINE
  8
0
 10
43.5056
 20
29.4783
 11
43.2
 21
29.6143
  0
LINE
  8
0
 10
43.2
 20
29.6143
 11
42.9294
 21
29.811
  0
LINE
  8
0
 10
42.9294
 20
29.811
 11
42.7056
 21
30.0595
  0
LINE
  8
0
 10
42.7056
 20
30.0595
 11
42.5383
 21
30.3492
  0
LINE
  8
0
 10
42.5383
 20
30.3492
 11
42.435
 21
30.6673
  0
LINE
  8
0
 10
42.435
 20
30.6673
 11
42.4
 21
31
  0
LINE
  8
0
 10
42.4
 20
31
 11
42.435
 21
31.3327
  0
LINE
  8
0
 10
42.435
 20
31.3327
 11
42.5383
 21
31.6508
  0
LINE
  8
0
 10
42.5383
 20
31.6508
 11
42.7056
 21
31.9404
  0
LINE
  8
0
 10
42.7056
 20
31.9404
 11
42.9294
 21
32.189
  0
LINE
  8
0
 10
42.9294
 20
32.189
 11
43.2
 21
32.3856
  0
LINE
  8
0
 10
43.2
 20
32.3856
 11
43.5056
 21
32.5217
  0
LINE
  8
0
 10
43.5056
 20
32.5217
 11
43.8327
 21
32.5912
  0
LINE
  8
0
 10
43.8327
 20
32.5912
 11
44.1672
 21
32.5912
  0
LINE
  8
0
 10
44.1672
 20
32.5912
 11
44.4944
 21
32.5217
  0
LINE
  8
0
 10
44.4944
 20
32.5217
 11
44.8
 21
32.3856
  0
LINE
  8
0
 10
44.8
 20
32.3856
 11
45.0706
 21
32.189
  0
LINE
  8
0
 10
45.0706
 20
32.189
 11
45.2944
 21
31.9404
  0
LINE
  8
0
 10
45.2944
 20
31.9404
 11
45.4617
 21
31.6508
  0
LINE
  8
0
 10
45.4617
 20
31.6508
 11
45.565
 21
31.3327
  0
LINE
  8
0
 10
45.565
 20
31.3327
 11
45.6
 21
31
  0
LINE
  8
0
 10
45.6
 20
31
 11
45.565
 21
30.6673
  0
LINE
  8
0
 10
45.565
 20
30.6673
 11
45.4617
 21
30.3492
  0
LINE
  8
0
 10
45.4617
 20
30.3492
 11
45.2944
 21
30.0595
  0
LINE
  8
0
 10
45.2944
 20
30.0595
 11
45.0706
 21
29.811
  0
LINE
  8
0
 10
45.0706
 20
29.811
 11
44.8
 21
29.6143
  0
LINE
  8
0
 10
44.8
 20
29.6143
 11
44.4944
 21
29.4783
  0
LINE
  8
0
 10
44.4944
 20
29.4783
 11
44.1672
 21
29.4088
  0
LINE
  8
0
 10
44.1672
 20
29.4088
 11
43.8327
 21
29.4088
  0
LINE
  8
0
 10
66.1328
 20
29.4088
 11
65.8056
 21
29.4783
  0
LINE
  8
0
 10
65.8056
 20
29.4783
 11
65.5
 21
29.6143
  0
LINE
  8
0
 10
65.5
 20
29.6143
 11
65.2294
 21
29.811
  0
LINE
  8
0
 10
65.2294
 20
29.811
 11
65.0056
 21
30.0595
  0
LINE
  8
0
 10
65.0056
 20
30.0595
 11
64.8383
 21
30.3492
  0
LINE
  8
0
 10
64.8383
 20
30.3492
 11
64.735
 21
30.6673
  0
LINE
  8
0
 10
64.735
 20
30.6673
 11
64.7
 21
31
  0
LINE
  8
0
 10
64.7
 20
31
 11
64.735
 21
31.3327
  0
LINE
  8
0
 10
64.735
 20
31.3327
 11
64.8383
 21
31.6508
  0
LINE
  8
0
 10
64.8383
 20
31.6508
 11
65.0056
 21
31.9404
  0
LINE
  8
0
 10
65.0056
 20
31.9404
 11
65.2294
 21
32.189
  0
LINE
  8
0
 10
65.2294
 20
32.189
 11
65.5
 21
32.3856
  0
LINE
  8
0
 10
65.5
 20
32.3856
 11
65.8056
 21
32.5217
  0
LINE
  8
0
 10
65.8056
 20
32.5217
 11
66.1328
 21
32.5912
  0
LINE
  8
0
 10
66.1328
 20
32.5912
 11
66.4672
 21
32.5912
  0
LINE
  8
0
 10
66.4672
 20
32.5912
 11
66.7944
 21
32.5217
  0
LINE
  8
0
 10
66.7944
 20
32.5217
 11
67.1
 21
32.3856
  0
LINE
  8
0
 10
67.1
 20
32.3856
 11
67.3706
 21
32.189
  0
LINE
  8
0
 10
67.3706
 20
32.189
 11
67.5944
 21
31.9404
  0
LINE
  8
0
 10
67.5944
 20
31.9404
 11
67.7617
 21
31.6508
  0
LINE
  8
0
 10
67.7617
 20
31.6508
 11
67.865
 21
31.3327
  0
LINE
  8
0
 10
67.865
 20
31.3327
 11
67.9
 21
31
  0
LINE
  8
0
 10
67.9
 20
31
 11
67.865
 21
30.6673
  0
LINE
  8
0
 10
67.865
 20
30.6673
 11
67.7617
 21
30.3492
  0
LINE
  8
0
 10
67.7617
 20
30.3492
 11
67.5944
 21
30.0595
  0
LINE
  8
0
 10
67.5944
 20
30.0595
 11
67.3706
 21
29.811
  0
LINE
  8
0
 10
67.3706
 20
29.811
 11
67.1
 21
29.6143
  0
LINE
  8
0
 10
67.1
 20
29.6143
 11
66.7944
 21
29.4783
  0
LINE
  8
0
 10
66.7944
 20
29.4783
 11
66.4672
 21
29.4088
  0
LINE
  8
0
 10
66.4672
 20
29.4088
 11
66.1328
 21
29.4088
  0
LINE
  8
0
 10
66.1328
 20
2.40875
 11
65.8056
 21
2.4783
  0
LINE
  8
0
 10
65.8056
 20
2.4783
 11
65.5
 21
2.61435
  0
LINE
  8
0
 10
65.5
 20
2.61435
 11
65.2294
 21
2.81096
  0
LINE
  8
0
 10
65.2294
 20
2.81096
 11
65.0056
 21
3.05954
  0
LINE
  8
0
 10
65.0056
 20
3.05954
 11
64.8383
 21
3.34921
  0
LINE
  8
0
 10
64.8383
 20
3.34921
 11
64.735
 21
3.66733
  0
LINE
  8
0
 10
64.735
 20
3.66733
 11
64.7
 21
4
  0
LINE
  8
0
 10
64.7
 20
4
 11
64.735
 21
4.33266
  0
LINE
  8
0
 10
64.735
 20
4.33266
 11
64.8383
 21
4.65077
  0
LINE
  8
0
 10
64.8383
 20
4.65077
 11
65.0056
 21
4.94044
  0
LINE
  8
0
 10
65.0056
 20
4.94044
 11
65.2294
 21
5.18903
  0
LINE
  8
0
 10
65.2294
 20
5.18903
 11
65.5
 21
5.38564
  0
LINE
  8
0
 10
65.5
 20
5.38564
 11
65.8056
 21
5.52168
  0
LINE
  8
0
 10
65.8056
 20
5.52168
 11
66.1328
 21
5.59123
  0
LINE
  8
0
 10
66.1328
 20
5.59123
 11
66.4672
 21
5.59123
  0
LINE
  8
0
 10
66.4672
 20
5.59123
 11
66.7944
 21
5.52168
  0
LINE
  8
0
 10
66.7944
 20
5.52168
 11
67.1
 21
5.38564
  0
LINE
  8
0
 10
67.1
 20
5.38564
 11
67.3706
 21
5.18903
  0
LINE
  8
0
 10
67.3706
 20
5.18903
 11
67.5944
 21
4.94044
  0
LINE
  8
0
 10
67.5944
 20
4.94044
 11
67.7617
 21
4.65077
  0
LINE
  8
0
 10
67.7617
 20
4.65077
 11
67.865
 21
4.33266
  0
LINE
  8
0
 10
67.865
 20
4.33266
 11
67.9
 21
4
  0
LINE
  8
0
 10
67.9
 20
4
 11
67.865
 21
3.66733
  0
LINE
  8
0
 10
67.865
 20
3.66733
 11
67.7617
 21
3.34921
  0
LINE
  8
0
 10
67.7617
 20
3.34921
 11
67.5944
 21
3.05954
  0
LINE
  8
0
 10
67.5944
 20
3.05954
 11
67.3706
 21
2.81096
  0
LINE
  8
0
 10
67.3706
 20
2.81096
 11
67.1
 21
2.61435
  0
LINE
  8
0
 10
67.1
 20
2.61435
 11
66.7944
 21
2.4783
  0
LINE
  8
0
 10
66.7944
 20
2.4783
 11
66.4672
 21
2.40875
  0
LINE
  8
0
 10
66.4672
 20
2.40875
 11
66.1328
 21
2.40875
  0
LINE
  8
0
 10
43.8327
 20
2.40875
 11
43.5056
 21
2.4783
  0
LINE
  8
0
 10
43.5056
 20
2.4783
 11
43.2
 21
2.61435
  0
LINE
  8
0
 10
43.2
 20
2.61435
 11
42.9294
 21
2.81096
  0
LINE
  8
0
 10
42.9294
 20
2.81096
 11
42.7056
 21
3.05954
  0
LINE
  8
0
 10
42.7056
 20
3.05954
 11
42.5383
 21
3.34921
  0
LINE
  8
0
 10
42.5383
 20
3.34921
 11
42.435
 21
3.66733
  0
LINE
  8
0
 10
42.435
 20
3.66733
 11
42.4
 21
4
  0
LINE
  8
0
 10
42.4
 20
4
 11
42.435
 21
4.33266
  0
LINE
  8
0
 10
42.435
 20
4.33266
 11
42.5383
 21
4.65077
  0
LINE
  8
0
 10
42.5383
 20
4.65077
 11
42.7056
 21
4.94044
  0
LINE
  8
0
 10
42.7056
 20
4.94044
 11
42.9294
 21
5.18903
  0
LINE
  8
0
 10
42.9294
 20
5.18903
 11
43.2
 21
5.38564
  0
LINE
  8
0
 10
43.2
 20
5.38564
 11
43.5056
 21
5.52168
  0
LINE
  8
0
 10
43.5056
 20
5.52168
 11
43.8327
 21
5.59123
  0
LINE
  8
0
 10
43.8327
 20
5.59123
 11
44.1672
 21
5.59123
  0
LINE
  8
0
 10
44.1672
 20
5.59123
 11
44.4944
 21
5.52168
  0
LINE
  8
0
 10
44.4944
 20
5.52168
 11
44.8
 21
5.38564
  0
LINE
  8
0
 10
44.8
 20
5.38564
 11
45.0706
 21
5.18903
  0
LINE
  8
0
 10
45.0706
 20
5.18903
 11
45.2944
 21
4.94044
  0
LINE
  8
0
 10
45.2944
 20
4.94044
 11
45.4617
 21
4.65077
  0
LINE
  8
0
 10
45.4617
 20
4.65077
 11
45.565
 21
4.33266
  0
LINE
  8
0
 10
45.565
 20
4.33266
 11
45.6
 21
4
  0
LINE
  8
0
 10
45.6
 20
4
 11
45.565
 21
3.66733
  0
LINE
  8
0
 10
45.565
 20
3.66733
 11
45.4617
 21
3.34921
  0
LINE
  8
0
 10
45.4617
 20
3.34921
 11
45.2944
 21
3.05954
  0
LINE
  8
0
 10
45.2944
 20
3.05954
 11
45.0706
 21
2.81096
  0
LINE
  8
0
 10
45.0706
 20
2.81096
 11
44.8
 21
2.61435
  0
LINE
  8
0
 10
44.8
 20
2.61435
 11
44.4944
 21
2.4783
  0
LINE
  8
0
 10
44.4944
 20
2.4783
 11
44.1672
 21
2.40875
  0
LINE
  8
0
 10
44.1672
 20
2.40875
 11
43.8327
 21
2.40875
  0
LINE
  8
0
 10
35
 20
35
 11
0
 21
35
  0
LINE
  8
0
 10
0
 20
35
 11
0
 21
26
  0
LINE
  8
0
 10
0
 20
26
 11
27
 21
26
  0
LINE
  8
0
 10
27
 20
26
 11
27
 21
9
  0
LINE
  8
0
 10
27
 20
9
 11
0
 21
9
  0
LINE
  8
0
 10
0
 20
9
 11
0
 21
0
  0
LINE
  8
0
 10
0
 20
0
 11
35
 21
0
  0
LINE
  8
0
 10
35
 20
0
 11
35
 21
35
  0
LINE
  8
0
 10
26.1328
 20
29.4088
 11
25.8056
 21
29.4783
  0
LINE
  8
0
 10
25.8056
 20
29.4783
 11
25.5
 21
29.6143
  0
LINE
  8
0
 10
25.5
 20
29.6143
 11
25.2294
 21
29.811
  0
LINE
  8
0
 10
25.2294
 20
29.811
 11
25.0056
 21
30.0595
  0
LINE
  8
0
 10
25.0056
 20
30.0595
 11
24.8383
 21
30.3492
  0
LINE
  8
0
 10
24.8383
 20
30.3492
 11
24.735
 21
30.6673
  0
LINE
  8
0
 10
24.735
 20
30.6673
 11
24.7
 21
31
  0
LINE
  8
0
 10
24.7
 20
31
 11
24.735
 21
31.3327
  0
LINE
  8
0
 10
24.735
 20
31.3327
 11
24.8383
 21
31.6508
  0
LINE
  8
0
 10
24.8383
 20
31.6508
 11
25.0056
 21
31.9404
  0
LINE
  8
0
 10
25.0056
 20
31.9404
 11
25.2294
 21
32.189
  0
LINE
  8
0
 10
25.2294
 20
32.189
 11
25.5
 21
32.3856
  0
LINE
  8
0
 10
25.5
 20
32.3856
 11
25.8056
 21
32.5217
  0
LINE
  8
0
 10
25.8056
 20
32.5217
 11
26.1328
 21
32.5912
  0
LINE
  8
0
 10
26.1328
 20
32.5912
 11
26.4672
 21
32.5912
  0
LINE
  8
0
 10
26.4672
 20
32.5912
 11
26.7944
 21
32.5217
  0
LINE
  8
0
 10
26.7944
 20
32.5217
 11
27.1
 21
32.3856
  0
LINE
  8
0
 10
27.1
 20
32.3856
 11
27.3706
 21
32.189
  0
LINE
  8
0
 10
27.3706
 20
32.189
 11
27.5944
 21
31.9404
  0
LINE
  8
0
 10
27.5944
 20
31.9404
 11
27.7617
 21
31.6508
  0
LINE
  8
0
 10
27.7617
 20
31.6508
 11
27.865
 21
31.3327
  0
LINE
  8
0
 10
27.865
 20
31.3327
 11
27.9
 21
31
  0
LINE
  8
0
 10
27.9
 20
31
 11
27.865
 21
30.6673
  0
LINE
  8
0
 10
27.865
 20
30.6673
 11
27.7617
 21
30.3492
  0
LINE
  8
0
 10
27.7617
 20
30.3492
 11
27.5944
 21
30.0595
  0
LINE
  8
0
 10
27.5944
 20
30.0595
 11
27.3706
 21
29.811
  0
LINE
  8
0
 10
27.3706
 20
29.811
 11
27.1
 21
29.6143
  0
LINE
  8
0
 10
27.1
 20
29.6143
 11
26.7944
 21
29.4783
  0
LINE
  8
0
 10
26.7944
 20
29.4783
 11
26.4672
 21
29.4088
  0
LINE
  8
0
 10
26.4672
 20
29.4088
 11
26.1328
 21
29.4088
  0
LINE
  8
0
 10
3.83275
 20
29.4088
 11
3.50557
 21
29.4783
  0
LINE
  8
0
 10
3.50557
 20
29.4783
 11
3.2
 21
29.6143
  0
LINE
  8
0
 10
3.2
 20
29.6143
 11
2.92938
 21
29.811
  0
LINE
  8
0
 10
2.92938
 20
29.811
 11
2.70557
 21
30.0595
  0
LINE
  8
0
 10
2.70557
 20
30.0595
 11
2.53831
 21
30.3492
  0
LINE
  8
0
 10
2.53831
 20
30.3492
 11
2.43495
 21
30.6673
  0
LINE
  8
0
 10
2.43495
 20
30.6673
 11
2.39999
 21
31
  0
LINE
  8
0
 10
2.39999
 20
31
 11
2.43495
 21
31.3327
  0
LINE
  8
0
 10
2.43495
 20
31.3327
 11
2.53831
 21
31.6508
  0
LINE
  8
0
 10
2.53831
 20
31.6508
 11
2.70557
 21
31.9404
  0
LINE
  8
0
 10
2.70557
 20
31.9404
 11
2.92938
 21
32.189
  0
LINE
  8
0
 10
2.92938
 20
32.189
 11
3.2
 21
32.3856
  0
LINE
  8
0
 10
3.2
 20
32.3856
 11
3.50557
 21
32.5217
  0
LINE
  8
0
 10
3.50557
 20
32.5217
 11
3.83275
 21
32.5912
  0
LINE
  8
0
 10
3.83275
 20
32.5912
 11
4.16724
 21
32.5912
  0
LINE
  8
0
 10
4.16724
 20
32.5912
 11
4.49442
 21
32.5217
  0
LINE
  8
0
 10
4.49442
 20
32.5217
 11
4.79999
 21
32.3856
  0
LINE
  8
0
 10
4.79999
 20
32.3856
 11
5.0706
 21
32.189
  0
LINE
  8
0
 10
5.0706
 20
32.189
 11
5.29442
 21
31.9404
  0
LINE
  8
0
 10
5.29442
 20
31.9404
 11
5.46167
 21
31.6508
  0
LINE
  8
0
 10
5.46167
 20
31.6508
 11
5.56503
 21
31.3327
  0
LINE
  8
0
 10
5.56503
 20
31.3327
 11
5.59999
 21
31
  0
LINE
  8
0
 10
5.59999
 20
31
 11
5.56503
 21
30.6673
  0
LINE
  8
0
 10
5.56503
 20
30.6673
 11
5.46167
 21
30.3492
  0
LINE
  8
0
 10
5.46167
 20
30.3492
 11
5.29442
 21
30.0595
  0
LINE
  8
0
 10
5.29442
 20
30.0595
 11
5.0706
 21
29.811
  0
LINE
  8
0
 10
5.0706
 20
29.811
 11
4.79999
 21
29.6143
  0
LINE
  8
0
 10
4.79999
 20
29.6143
 11
4.49442
 21
29.4783
  0
LINE
  8
0
 10
4.49442
 20
29.4783
 11
4.16724
 21
29.4088
  0
LINE
  8
0
 10
4.16724
 20
29.4088
 11
3.83275
 21
29.4088
  0
LINE
  8
0
 10
26.1328
 20
2.40875
 11
25.8056
 21
2.4783
  0
LINE
  8
0
 10
25.8056
 20
2.4783
 11
25.5
 21
2.61435
  0
LINE
  8
0
 10
25.5
 20
2.61435
 11
25.2294
 21
2.81096
  0
LINE
  8
0
 10
25.2294
 20
2.81096
 11
25.0056
 21
3.05954
  0
LINE
  8
0
 10
25.0056
 20
3.05954
 11
24.8383
 21
3.34921
  0
LINE
  8
0
 10
24.8383
 20
3.34921
 11
24.735
 21
3.66733
  0
LINE
  8
0
 10
24.735
 20
3.66733
 11
24.7
 21
4
  0
LINE
  8
0
 10
24.7
 20
4
 11
24.735
 21
4.33266
  0
LINE
  8
0
 10
24.735
 20
4.33266
 11
24.8383
 21
4.65077
  0
LINE
  8
0
 10
24.8383
 20
4.65077
 11
25.0056
 21
4.94044
  0
LINE
  8
0
 10
25.0056
 20
4.94044
 11
25.2294
 21
5.18903
  0
LINE
  8
0
 10
25.2294
 20
5.18903
 11
25.5
 21
5.38564
  0
LINE
  8
0
 10
25.5
 20
5.38564
 11
25.8056
 21
5.52168
  0
LINE
  8
0
 10
25.8056
 20
5.52168
 11
26.1328
 21
5.59123
  0
LINE
  8
0
 10
26.1328
 20
5.59123
 11
26.4672
 21
5.59123
  0
LINE
  8
0
 10
26.4672
 20
5.59123
 11
26.7944
 21
5.52168
  0
LINE
  8
0
 10
26.7944
 20
5.52168
 11
27.1
 21
5.38564
  0
LINE
  8
0
 10
27.1
 20
5.38564
 11
27.3706
 21
5.18903
  0
LINE
  8
0
 10
27.3706
 20
5.18903
 11
27.5944
 21
4.94044
  0
LINE
  8
0
 10
27.5944
 20
4.94044
 11
27.7617
 21
4.65077
  0
LINE
  8
0
 10
27.7617
 20
4.65077
 11
27.865
 21
4.33266
  0
LINE
  8
0
 10
27.865
 20
4.33266
 11
27.9
 21
4
  0
LINE
  8
0
 10
27.9
 20
4
 11
27.865
 21
3.66733
  0
LINE
  8
0
 10
27.865
 20
3.66733
 11
27.7617
 21
3.34921
  0
LINE
  8
0
 10
27.7617
 20
3.34921
 11
27.5944
 21
3.05954
  0
LINE
  8
0
 10
27.5944
 20
3.05954
 11
27.3706
 21
2.81096
  0
LINE
  8
0
 10
27.3706
 20
2.81096
 11
27.1
 21
2.61435
  0
LINE
  8
0
 10
27.1
 20
2.61435
 11
26.7944
 21
2.4783
  0
LINE
  8
0
 10
26.7944
 20
2.4783
 11
26.4672
 21
2.40875
  0
LINE
  8
0
 10
26.4672
 20
2.40875
 11
26.1328
 21
2.40875
  0
LINE
  8
0
 10
3.83275
 20
2.40875
 11
3.50557
 21
2.4783
  0
LINE
  8
0
 10
3.50557
 20
2.4783
 11
3.2
 21
2.61435
  0
LINE
  8
0
 10
3.2
 20
2.61435
 11
2.92938
 21
2.81096
  0
LINE
  8
0
 10
2.92938
 20
2.81096
 11
2.70557
 21
3.05954
  0
LINE
  8
0
 10
2.70557
 20
3.05954
 11
2.53831
 21
3.34921
  0
LINE
  8
0
 10
2.53831
 20
3.34921
 11
2.43495
 21
3.66733
  0
LINE
  8
0
 10
2.43495
 20
3.66733
 11
2.39999
 21
4
  0
LINE
  8
0
 10
2.39999
 20
4
 11
2.43495
 21
4.33266
  0
LINE
  8
0
 10
2.43495
 20
4.33266
 11
2.53831
 21
4.65077
  0
LINE
  8
0
 10
2.53831
 20
4.65077
 11
2.70557
 21
4.94044
  0
LINE
  8
0
 10
2.70557
 20
4.94044
 11
2.92938
 21
5.18903
  0
LINE
  8
0
 10
2.92938
 20
5.18903
 11
3.2
 21
5.38564
  0
LINE
  8
0
 10
3.2
 20
5.38564
 11
3.50557
 21
5.52168
  0
LINE
  8
0
 10
3.50557
 20
5.52168
 11
3.83275
 21
5.59123
  0
LINE
  8
0
 10
3.83275
 20
5.59123
 11
4.16724
 21
5.59123
  0
LINE
  8
0
 10
4.16724
 20
5.59123
 11
4.49442
 21
5.52168
  0
LINE
  8
0
 10
4.49442
 20
5.52168
 11
4.79999
 21
5.38564
  0
LINE
  8
0
 10
4.79999
 20
5.38564
 11
5.0706
 21
5.18903
  0
LINE
  8
0
 10
5.0706
 20
5.18903
 11
5.29442
 21
4.94044
  0
LINE
  8
0
 10
5.29442
 20
4.94044
 11
5.46167
 21
4.65077
  0
LINE
  8
0
 10
5.46167
 20
4.65077
 11
5.56503
 21
4.33266
  0
LINE
  8
0
 10
5.56503
 20
4.33266
 11
5.59999
 21
4
  0
LINE
  8
0
 10
5.59999
 20
4
 11
5.56503
 21
3.66733
  0
LINE
  8
0
 10
5.56503
 20
3.66733
 11
5.46167
 21
3.34921
  0
LINE
  8
0
 10
5.46167
 20
3.34921
 11
5.29442
 21
3.05954
  0
LINE
  8
0
 10
5.29442
 20
3.05954
 11
5.0706
 21
2.81096
  0
LINE
  8
0
 10
5.0706
 20
2.81096
 11
4.79999
 21
2.61435
  0
LINE
  8
0
 10
4.79999
 20
2.61435
 11
4.49442
 21
2.4783
  0
LINE
  8
0
 10
4.49442
 20
2.4783
 11
4.16724
 21
2.40875
  0
LINE
  8
0
 10
4.16724
 20
2.40875
 11
3.83275
 21
2.40875
  0
ENDSEC
  0
SECTION
  2
OBJECTS
  0
DICTIONARY
  0
ENDSEC
  0
EOF
