  0
SECTION
  2
BLOCKS
  0
ENDSEC
  0
SECTION
  2
ENTITIES
  0
LINE
  8
0
 10
3.09016
 20
-9.51056
 11
5
 21
-8.66025
  0
LINE
  8
0
 10
5
 20
-8.66025
 11
6.6913
 21
-7.43144
  0
LINE
  8
0
 10
6.6913
 20
-7.43144
 11
8.09016
 21
-5.87784
  0
LINE
  8
0
 10
8.09016
 20
-5.87784
 11
9.13545
 21
-4.06735
  0
LINE
  8
0
 10
9.13545
 20
-4.06735
 11
9.78146
 21
-2.07912
  0
LINE
  8
0
 10
9.78146
 20
-2.07912
 11
10
 21
0
  0
LINE
  8
0
 10
10
 20
0
 11
9.78146
 21
2.07912
  0
LINE
  8
0
 10
9.78146
 20
2.07912
 11
9.13545
 21
4.06735
  0
LINE
  8
0
 10
9.13545
 20
4.06735
 11
8.09016
 21
5.87784
  0
LINE
  8
0
 10
8.09016
 20
5.87784
 11
6.6913
 21
7.43144
  0
LINE
  8
0
 10
6.6913
 20
7.43144
 11
5
 21
8.66025
  0
LINE
  8
0
 10
5
 20
8.66025
 11
3.09016
 21
9.51056
  0
LINE
  8
0
 10
3.09016
 20
9.51056
 11
1.04527
 21
9.94521
  0
LINE
  8
0
 10
1.04527
 20
9.94521
 11
-1.04527
 21
9.94521
  0
LINE
  8
0
 10
-1.04527
 20
9.94521
 11
-3.09016
 21
9.51056
  0
LINE
  8
0
 10
-3.09016
 20
9.51056
 11
-4.99998
 21
8.66025
  0
LINE
  8
0
 10
-4.99998
 20
8.66025
 11
-6.6913
 21
7.43144
  0
LINE
  8
0
 10
-6.6913
 20
7.43144
 11
-8.09016
 21
5.87784
  0
LINE
  8
0
 10
-8.09016
 20
5.87784
 11
-9.13545
 21
4.06735
  0
LINE
  8
0
 10
-9.13545
 20
4.06735
 11
-9.78146
 21
2.07912
  0
LINE
  8
0
 10
-9.78146
 20
2.07912
 11
-10
 21
0
  0
LINE
  8
0
 10
-10
 20
0
 11
-9.78146
 21
-2.07912
  0
LINE
  8
0
 10
-9.78146
 20
-2.07912
 11
-9.13545
 21
-4.06735
  0
LINE
  8
0
 10
-9.13545
 20
-4.06735
 11
-8.09016
 21
-5.87784
  0
LINE
  8
0
 10
-8.09016
 20
-5.87784
 11
-6.6913
 21
-7.43144
  0
LINE
  8
0
 10
-6.6913
 20
-7.43144
 11
-5
 21
-8.66025
  0
LINE
  8
0
 10
-5
 20
-8.66025
 11
-3.09016
 21
-9.51056
  0
LINE
  8
0
 10
-3.09016
 20
-9.51056
 11
-1.04527
 21
-9.94521
  0
LINE
  8
0
 10
-1.04527
 20
-9.94521
 11
1.04527
 21
-9.94521
  0
LINE
  8
0
 10
1.04527
 20
-9.94521
 11
3.09016
 21
-9.51056
  0
LINE
  8
0
 10
-0.167236
 20
-1.59123
 11
-0.494415
 21
-1.52168
  0
LINE
  8
0
 10
-0.494415
 20
-1.52168
 11
-0.799988
 21
-1.38564
  0
LINE
  8
0
 10
-0.799988
 20
-1.38564
 11
-1.0706
 21
-1.18903
  0
LINE
  8
0
 10
-1.0706
 20
-1.18903
 11
-1.29442
 21
-0.940445
  0
LINE
  8
0
 10
-1.29442
 20
-0.940445
 11
-1.46167
 21
-0.650772
  0
LINE
  8
0
 10
-1.46167
 20
-0.650772
 11
-1.56503
 21
-0.332657
  0
LINE
  8
0
 10
-1.56503
 20
-0.332657
 11
-1.59999
 21
0
  0
LINE
  8
0
 10
-1.59999
 20
0
 11
-1.56503
 21
0.332657
  0
LINE
  8
0
 10
-1.56503
 20
0.332657
 11
-1.46167
 21
0.650772
  0
LINE
  8
0
 10
-1.46167
 20
0.650772
 11
-1.29442
 21
0.940445
  0
LINE
  8
0
 10
-1.29442
 20
0.940445
 11
-1.0706
 21
1.18903
  0
LINE
  8
0
 10
-1.0706
 20
1.18903
 11
-0.799988
 21
1.38564
  0
LINE
  8
0
 10
-0.799988
 20
1.38564
 11
-0.494415
 21
1.52168
  0
LINE
  8
0
 10
-0.494415
 20
1.52168
 11
-0.167236
 21
1.59123
  0
LINE
  8
0
 10
-0.167236
 20
1.59123
 11
0.167236
 21
1.59123
  0
LINE
  8
0
 10
0.167236
 20
1.59123
 11
0.494415
 21
1.52168
  0
LINE
  8
0
 10
0.494415
 20
1.52168
 11
0.799988
 21
1.38564
  0
LINE
  8
0
 10
0.799988
 20
1.38564
 11
1.0706
 21
1.18903
  0
LINE
  8
0
 10
1.0706
 20
1.18903
 11
1.29442
 21
0.940445
  0
LINE
  8
0
 10
1.29442
 20
0.940445
 11
1.46167
 21
0.650772
  0
LINE
  8
0
 10
1.46167
 20
0.650772
 11
1.56503
 21
0.332657
  0
LINE
  8
0
 10
1.56503
 20
0.332657
 11
1.59999
 21
0
  0
LINE
  8
0
 10
1.59999
 20
0
 11
1.56503
 21
-0.332657
  0
LINE
  8
0
 10
1.56503
 20
-0.332657
 11
1.46167
 21
-0.650772
  0
LINE
  8
0
 10
1.46167
 20
-0.650772
 11
1.29442
 21
-0.940445
  0
LINE
  8
0
 10
1.29442
 20
-0.940445
 11
1.0706
 21
-1.18903
  0
LINE
  8
0
 10
1.0706
 20
-1.18903
 11
0.799988
 21
-1.38564
  0
LINE
  8
0
 10
0.799988
 20
-1.38564
 11
0.494415
 21
-1.52168
  0
LINE
  8
0
 10
0.494415
 20
-1.52168
 11
0.167236
 21
-1.59123
  0
LINE
  8
0
 10
0.167236
 20
-1.59123
 11
-0.167236
 21
-1.59123
  0
LINE
  8
0
 10
26.0902
 20
-9.51056
 11
28
 21
-8.66025
  0
LINE
  8
0
 10
28
 20
-8.66025
 11
29.6913
 21
-7.43144
  0
LINE
  8
0
 10
29.6913
 20
-7.43144
 11
31.0902
 21
-5.87784
  0
LINE
  8
0
 10
31.0902
 20
-5.87784
 11
32.1355
 21
-4.06735
  0
LINE
  8
0
 10
32.1355
 20
-4.06735
 11
32.7815
 21
-2.07912
  0
LINE
  8
0
 10
32.7815
 20
-2.07912
 11
32.8476
 21
-1.45
  0
LINE
  8
0
 10
32.8476
 20
-1.45
 11
28
 21
-1.45
  0
LINE
  8
0
 10
28
 20
-1.45
 11
28
 21
1.45
  0
LINE
  8
0
 10
28
 20
1.45
 11
32.8476
 21
1.45
  0
LINE
  8
0
 10
32.8476
 20
1.45
 11
32.7815
 21
2.07912
  0
LINE
  8
0
 10
32.7815
 20
2.07912
 11
32.1355
 21
4.06735
  0
LINE
  8
0
 10
32.1355
 20
4.06735
 11
31.0902
 21
5.87784
  0
LINE
  8
0
 10
31.0902
 20
5.87784
 11
29.6913
 21
7.43144
  0
LINE
  8
0
 10
29.6913
 20
7.43144
 11
28
 21
8.66025
  0
LINE
  8
0
 10
28
 20
8.66025
 11
26.0902
 21
9.51056
  0
LINE
  8
0
 10
26.0902
 20
9.51056
 11
24.45
 21
9.85918
  0
LINE
  8
0
 10
24.45
 20
9.85918
 11
24.45
 21
5
  0
LINE
  8
0
 10
24.45
 20
5
 11
21.55
 21
5
  0
LINE
  8
0
 10
21.55
 20
5
 11
21.55
 21
9.85918
  0
LINE
  8
0
 10
21.55
 20
9.85918
 11
19.9098
 21
9.51056
  0
LINE
  8
0
 10
19.9098
 20
9.51056
 11
18
 21
8.66025
  0
LINE
  8
0
 10
18
 20
8.66025
 11
16.3087
 21
7.43144
  0
LINE
  8
0
 10
16.3087
 20
7.43144
 11
14.9098
 21
5.87784
  0
LINE
  8
0
 10
14.9098
 20
5.87784
 11
13.8645
 21
4.06735
  0
LINE
  8
0
 10
13.8645
 20
4.06735
 11
13.2185
 21
2.07912
  0
LINE
  8
0
 10
13.2185
 20
2.07912
 11
13
 21
0
  0
LINE
  8
0
 10
13
 20
0
 11
13.2185
 21
-2.07912
  0
LINE
  8
0
 10
13.2185
 20
-2.07912
 11
13.8645
 21
-4.06735
  0
LINE
  8
0
 10
13.8645
 20
-4.06735
 11
14.9098
 21
-5.87784
  0
LINE
  8
0
 10
14.9098
 20
-5.87784
 11
16.3087
 21
-7.43144
  0
LINE
  8
0
 10
16.3087
 20
-7.43144
 11
18
 21
-8.66025
  0
LINE
  8
0
 10
18
 20
-8.66025
 11
19.9098
 21
-9.51056
  0
LINE
  8
0
 10
19.9098
 20
-9.51056
 11
21.9547
 21
-9.94521
  0
LINE
  8
0
 10
21.9547
 20
-9.94521
 11
24.0453
 21
-9.94521
  0
LINE
  8
0
 10
24.0453
 20
-9.94521
 11
26.0902
 21
-9.51056
  0
LINE
  8
0
 10
22.8328
 20
-1.59123
 11
22.5056
 21
-1.52168
  0
LINE
  8
0
 10
22.5056
 20
-1.52168
 11
22.2
 21
-1.38564
  0
LINE
  8
0
 10
22.2
 20
-1.38564
 11
21.9294
 21
-1.18903
  0
LINE
  8
0
 10
21.9294
 20
-1.18903
 11
21.7056
 21
-0.940445
  0
LINE
  8
0
 10
21.7056
 20
-0.940445
 11
21.5383
 21
-0.650772
  0
LINE
  8
0
 10
21.5383
 20
-0.650772
 11
21.435
 21
-0.332657
  0
LINE
  8
0
 10
21.435
 20
-0.332657
 11
21.4
 21
0
  0
LINE
  8
0
 10
21.4
 20
0
 11
21.435
 21
0.332657
  0
LINE
  8
0
 10
21.435
 20
0.332657
 11
21.5383
 21
0.650772
  0
LINE
  8
0
 10
21.5383
 20
0.650772
 11
21.7056
 21
0.940445
  0
LINE
  8
0
 10
21.7056
 20
0.940445
 11
21.9294
 21
1.18903
  0
LINE
  8
0
 10
21.9294
 20
1.18903
 11
22.2
 21
1.38564
  0
LINE
  8
0
 10
22.2
 20
1.38564
 11
22.5056
 21
1.52168
  0
LINE
  8
0
 10
22.5056
 20
1.52168
 11
22.8328
 21
1.59123
  0
LINE
  8
0
 10
22.8328
 20
1.59123
 11
23.1672
 21
1.59123
  0
LINE
  8
0
 10
23.1672
 20
1.59123
 11
23.4944
 21
1.52168
  0
LINE
  8
0
 10
23.4944
 20
1.52168
 11
23.8
 21
1.38564
  0
LINE
  8
0
 10
23.8
 20
1.38564
 11
24.0706
 21
1.18903
  0
LINE
  8
0
 10
24.0706
 20
1.18903
 11
24.2944
 21
0.940445
  0
LINE
  8
0
 10
24.2944
 20
0.940445
 11
24.4617
 21
0.650772
  0
LINE
  8
0
 10
24.4617
 20
0.650772
 11
24.565
 21
0.332657
  0
LINE
  8
0
 10
24.565
 20
0.332657
 11
24.6
 21
0
  0
LINE
  8
0
 10
24.6
 20
0
 11
24.565
 21
-0.332657
  0
LINE
  8
0
 10
24.565
 20
-0.332657
 11
24.4617
 21
-0.650772
  0
LINE
  8
0
 10
24.4617
 20
-0.650772
 11
24.2944
 21
-0.940445
  0
LINE
  8
0
 10
24.2944
 20
-0.940445
 11
24.0706
 21
-1.18903
  0
LINE
  8
0
 10
24.0706
 20
-1.18903
 11
23.8
 21
-1.38564
  0
LINE
  8
0
 10
23.8
 20
-1.38564
 11
23.4944
 21
-1.52168
  0
LINE
  8
0
 10
23.4944
 20
-1.52168
 11
23.1672
 21
-1.59123
  0
LINE
  8
0
 10
23.1672
 20
-1.59123
 11
22.8328
 21
-1.59123
  0
ENDSEC
  0
SECTION
  2
OBJECTS
  0
DICTIONARY
  0
ENDSEC
  0
EOF
