  0
SECTION
  2
BLOCKS
  0
ENDSEC
  0
SECTION
  2
ENTITIES
  0
LINE
  8
0
 10
-112.852
 11
-112.852
 20
-105.15
 21
105.15
  0
LINE
  8
0
 10
-112.852
 11
-111.161
 20
105.15
 21
108.949
  0
LINE
  8
0
 10
-111.161
 11
-108.071
 20
108.949
 21
111.731
  0
LINE
  8
0
 10
-108.071
 11
-104.116
 20
111.731
 21
113.016
  0
LINE
  8
0
 10
-104.116
 11
102.026
 20
113.016
 21
113.016
  0
LINE
  8
0
 10
102.026
 11
106.161
 20
113.016
 21
112.582
  0
LINE
  8
0
 10
106.161
 11
109.762
 20
112.582
 21
110.502
  0
LINE
  8
0
 10
109.762
 11
112.206
 20
110.502
 21
107.138
  0
LINE
  8
0
 10
112.206
 11
113.071
 20
107.138
 21
103.071
  0
LINE
  8
0
 10
113.071
 11
113.071
 20
103.071
 21
-103.071
  0
LINE
  8
0
 10
113.071
 11
112.206
 20
-103.071
 21
-107.138
  0
LINE
  8
0
 10
112.206
 11
109.762
 20
-107.138
 21
-110.502
  0
LINE
  8
0
 10
109.762
 11
106.161
 20
-110.502
 21
-112.582
  0
LINE
  8
0
 10
106.161
 11
102.026
 20
-112.582
 21
-113.016
  0
LINE
  8
0
 10
102.026
 11
-104.116
 20
-113.016
 21
-113.016
  0
LINE
  8
0
 10
-104.116
 11
-108.071
 20
-113.016
 21
-111.731
  0
LINE
  8
0
 10
-108.071
 11
-111.161
 20
-111.731
 21
-108.949
  0
LINE
  8
0
 10
-111.161
 11
-112.852
 20
-108.949
 21
-105.15
  0
LINE
  8
0
 10
-104.734
 11
-104.734
 20
-103.424
 21
-102.718
  0
LINE
  8
0
 10
-104.734
 11
-104.446
 20
-102.718
 21
-102.072
  0
LINE
  8
0
 10
-104.446
 11
-103.921
 20
-102.072
 21
-101.599
  0
LINE
  8
0
 10
-103.921
 11
-103.249
 20
-101.599
 21
-101.38
  0
LINE
  8
0
 10
-103.249
 11
-102.546
 20
-101.38
 21
-101.454
  0
LINE
  8
0
 10
-102.546
 11
-101.933
 20
-101.454
 21
-101.808
  0
LINE
  8
0
 10
-101.933
 11
-101.518
 20
-101.808
 21
-102.38
  0
LINE
  8
0
 10
-101.518
 11
-101.371
 20
-102.38
 21
-103.071
  0
LINE
  8
0
 10
-101.371
 11
-101.518
 20
-103.071
 21
-103.762
  0
LINE
  8
0
 10
-101.518
 11
-101.933
 20
-103.762
 21
-104.334
  0
LINE
  8
0
 10
-101.933
 11
-102.546
 20
-104.334
 21
-104.688
  0
LINE
  8
0
 10
-102.546
 11
-103.249
 20
-104.688
 21
-104.762
  0
LINE
  8
0
 10
-103.249
 11
-103.921
 20
-104.762
 21
-104.543
  0
LINE
  8
0
 10
-103.921
 11
-104.446
 20
-104.543
 21
-104.07
  0
LINE
  8
0
 10
-104.446
 11
-104.734
 20
-104.07
 21
-103.424
  0
LINE
  8
0
 10
-104.734
 11
-104.734
 20
102.718
 21
103.424
  0
LINE
  8
0
 10
-104.734
 11
-104.446
 20
103.424
 21
104.07
  0
LINE
  8
0
 10
-104.446
 11
-103.921
 20
104.07
 21
104.543
  0
LINE
  8
0
 10
-103.921
 11
-103.249
 20
104.543
 21
104.762
  0
LINE
  8
0
 10
-103.249
 11
-102.546
 20
104.762
 21
104.688
  0
LINE
  8
0
 10
-102.546
 11
-101.933
 20
104.688
 21
104.334
  0
LINE
  8
0
 10
-101.933
 11
-101.518
 20
104.334
 21
103.762
  0
LINE
  8
0
 10
-101.518
 11
-101.371
 20
103.762
 21
103.071
  0
LINE
  8
0
 10
-101.371
 11
-101.518
 20
103.071
 21
102.38
  0
LINE
  8
0
 10
-101.518
 11
-101.933
 20
102.38
 21
101.808
  0
LINE
  8
0
 10
-101.933
 11
-102.546
 20
101.808
 21
101.454
  0
LINE
  8
0
 10
-102.546
 11
-103.249
 20
101.454
 21
101.38
  0
LINE
  8
0
 10
-103.249
 11
-103.921
 20
101.38
 21
101.599
  0
LINE
  8
0
 10
-103.921
 11
-104.446
 20
101.599
 21
102.072
  0
LINE
  8
0
 10
-104.446
 11
-104.734
 20
102.072
 21
102.718
  0
LINE
  8
0
 10
-89.663
 11
-89.663
 20
77.647
 21
78.353
  0
LINE
  8
0
 10
-89.663
 11
-89.375
 20
78.353
 21
78.999
  0
LINE
  8
0
 10
-89.375
 11
-88.85
 20
78.999
 21
79.472
  0
LINE
  8
0
 10
-88.85
 11
-88.178
 20
79.472
 21
79.691
  0
LINE
  8
0
 10
-88.178
 11
-87.475
 20
79.691
 21
79.617
  0
LINE
  8
0
 10
-87.475
 11
-86.862
 20
79.617
 21
79.263
  0
LINE
  8
0
 10
-86.862
 11
-86.447
 20
79.263
 21
78.691
  0
LINE
  8
0
 10
-86.447
 11
-86.3
 20
78.691
 21
78
  0
LINE
  8
0
 10
-86.3
 11
-86.447
 20
78
 21
77.309
  0
LINE
  8
0
 10
-86.447
 11
-86.862
 20
77.309
 21
76.737
  0
LINE
  8
0
 10
-86.862
 11
-87.475
 20
76.737
 21
76.383
  0
LINE
  8
0
 10
-87.475
 11
-88.178
 20
76.383
 21
76.309
  0
LINE
  8
0
 10
-88.178
 11
-88.85
 20
76.309
 21
76.528
  0
LINE
  8
0
 10
-88.85
 11
-89.375
 20
76.528
 21
77.001
  0
LINE
  8
0
 10
-89.375
 11
-89.663
 20
77.001
 21
77.647
  0
LINE
  8
0
 10
-88.163
 11
-88.163
 20
-0.353
 21
0.353
  0
LINE
  8
0
 10
-88.163
 11
-87.875
 20
0.353
 21
0.999
  0
LINE
  8
0
 10
-87.875
 11
-87.35
 20
0.999
 21
1.472
  0
LINE
  8
0
 10
-87.35
 11
-86.678
 20
1.472
 21
1.691
  0
LINE
  8
0
 10
-86.678
 11
-85.975
 20
1.691
 21
1.617
  0
LINE
  8
0
 10
-85.975
 11
-85.362
 20
1.617
 21
1.263
  0
LINE
  8
0
 10
-85.362
 11
-84.947
 20
1.263
 21
0.691
  0
LINE
  8
0
 10
-84.947
 11
-84.8
 20
0.691
 21
0
  0
LINE
  8
0
 10
-84.8
 11
-84.947
 20
0
 21
-0.691
  0
LINE
  8
0
 10
-84.947
 11
-85.362
 20
-0.691
 21
-1.263
  0
LINE
  8
0
 10
-85.362
 11
-85.975
 20
-1.263
 21
-1.617
  0
LINE
  8
0
 10
-85.975
 11
-86.678
 20
-1.617
 21
-1.691
  0
LINE
  8
0
 10
-86.678
 11
-87.35
 20
-1.691
 21
-1.472
  0
LINE
  8
0
 10
-87.35
 11
-87.875
 20
-1.472
 21
-0.999
  0
LINE
  8
0
 10
-87.875
 11
-88.163
 20
-0.999
 21
-0.353
  0
LINE
  8
0
 10
-84.563
 11
-84.563
 20
-86.853
 21
-86.147
  0
LINE
  8
0
 10
-84.563
 11
-84.275
 20
-86.147
 21
-85.501
  0
LINE
  8
0
 10
-84.275
 11
-83.75
 20
-85.501
 21
-85.028
  0
LINE
  8
0
 10
-83.75
 11
-83.078
 20
-85.028
 21
-84.809
  0
LINE
  8
0
 10
-83.078
 11
-82.375
 20
-84.809
 21
-84.883
  0
LINE
  8
0
 10
-82.375
 11
-81.762
 20
-84.883
 21
-85.237
  0
LINE
  8
0
 10
-81.762
 11
-81.347
 20
-85.237
 21
-85.809
  0
LINE
  8
0
 10
-81.347
 11
-81.2
 20
-85.809
 21
-86.5
  0
LINE
  8
0
 10
-81.2
 11
-81.347
 20
-86.5
 21
-87.191
  0
LINE
  8
0
 10
-81.347
 11
-81.762
 20
-87.191
 21
-87.763
  0
LINE
  8
0
 10
-81.762
 11
-82.375
 20
-87.763
 21
-88.117
  0
LINE
  8
0
 10
-82.375
 11
-83.078
 20
-88.117
 21
-88.191
  0
LINE
  8
0
 10
-83.078
 11
-83.75
 20
-88.191
 21
-87.972
  0
LINE
  8
0
 10
-83.75
 11
-84.275
 20
-87.972
 21
-87.499
  0
LINE
  8
0
 10
-84.275
 11
-84.563
 20
-87.499
 21
-86.853
  0
LINE
  8
0
 10
-84.563
 11
-84.563
 20
86.147
 21
86.853
  0
LINE
  8
0
 10
-84.563
 11
-84.275
 20
86.853
 21
87.499
  0
LINE
  8
0
 10
-84.275
 11
-83.75
 20
87.499
 21
87.972
  0
LINE
  8
0
 10
-83.75
 11
-83.078
 20
87.972
 21
88.191
  0
LINE
  8
0
 10
-83.078
 11
-82.375
 20
88.191
 21
88.117
  0
LINE
  8
0
 10
-82.375
 11
-81.762
 20
88.117
 21
87.763
  0
LINE
  8
0
 10
-81.762
 11
-81.347
 20
87.763
 21
87.191
  0
LINE
  8
0
 10
-81.347
 11
-81.2
 20
87.191
 21
86.5
  0
LINE
  8
0
 10
-81.2
 11
-81.347
 20
86.5
 21
85.809
  0
LINE
  8
0
 10
-81.347
 11
-81.762
 20
85.809
 21
85.237
  0
LINE
  8
0
 10
-81.762
 11
-82.375
 20
85.237
 21
84.883
  0
LINE
  8
0
 10
-82.375
 11
-83.078
 20
84.883
 21
84.809
  0
LINE
  8
0
 10
-83.078
 11
-83.75
 20
84.809
 21
85.028
  0
LINE
  8
0
 10
-83.75
 11
-84.275
 20
85.028
 21
85.501
  0
LINE
  8
0
 10
-84.275
 11
-84.563
 20
85.501
 21
86.147
  0
LINE
  8
0
 10
-76
 11
-76
 20
30
 21
60
  0
LINE
  8
0
 10
-76
 11
-66
 20
60
 21
60
  0
LINE
  8
0
 10
-66
 11
-66
 20
60
 21
30
  0
LINE
  8
0
 10
-66
 11
-76
 20
30
 21
30
  0
LINE
  8
0
 10
-1.663
 11
-1.663
 20
-86.853
 21
-86.147
  0
LINE
  8
0
 10
-1.663
 11
-1.375
 20
-86.147
 21
-85.501
  0
LINE
  8
0
 10
-1.375
 11
-0.85
 20
-85.501
 21
-85.028
  0
LINE
  8
0
 10
-0.85
 11
-0.178
 20
-85.028
 21
-84.809
  0
LINE
  8
0
 10
-0.178
 11
0.525
 20
-84.809
 21
-84.883
  0
LINE
  8
0
 10
0.525
 11
1.138
 20
-84.883
 21
-85.237
  0
LINE
  8
0
 10
1.138
 11
1.553
 20
-85.237
 21
-85.809
  0
LINE
  8
0
 10
1.553
 11
1.7
 20
-85.809
 21
-86.5
  0
LINE
  8
0
 10
1.7
 11
1.553
 20
-86.5
 21
-87.191
  0
LINE
  8
0
 10
1.553
 11
1.138
 20
-87.191
 21
-87.763
  0
LINE
  8
0
 10
1.138
 11
0.525
 20
-87.763
 21
-88.117
  0
LINE
  8
0
 10
0.525
 11
-0.178
 20
-88.117
 21
-88.191
  0
LINE
  8
0
 10
-0.178
 11
-0.85
 20
-88.191
 21
-87.972
  0
LINE
  8
0
 10
-0.85
 11
-1.375
 20
-87.972
 21
-87.499
  0
LINE
  8
0
 10
-1.375
 11
-1.663
 20
-87.499
 21
-86.853
  0
LINE
  8
0
 10
-1.663
 11
-1.663
 20
86.147
 21
86.853
  0
LINE
  8
0
 10
-1.663
 11
-1.375
 20
86.853
 21
87.499
  0
LINE
  8
0
 10
-1.375
 11
-0.85
 20
87.499
 21
87.972
  0
LINE
  8
0
 10
-0.85
 11
-0.178
 20
87.972
 21
88.191
  0
LINE
  8
0
 10
-0.178
 11
0.525
 20
88.191
 21
88.117
  0
LINE
  8
0
 10
0.525
 11
1.138
 20
88.117
 21
87.763
  0
LINE
  8
0
 10
1.138
 11
1.553
 20
87.763
 21
87.191
  0
LINE
  8
0
 10
1.553
 11
1.7
 20
87.191
 21
86.5
  0
LINE
  8
0
 10
1.7
 11
1.553
 20
86.5
 21
85.809
  0
LINE
  8
0
 10
1.553
 11
1.138
 20
85.809
 21
85.237
  0
LINE
  8
0
 10
1.138
 11
0.525
 20
85.237
 21
84.883
  0
LINE
  8
0
 10
0.525
 11
-0.178
 20
84.883
 21
84.809
  0
LINE
  8
0
 10
-0.178
 11
-0.85
 20
84.809
 21
85.028
  0
LINE
  8
0
 10
-0.85
 11
-1.375
 20
85.028
 21
85.501
  0
LINE
  8
0
 10
-1.375
 11
-1.663
 20
85.501
 21
86.147
  0
LINE
  8
0
 10
13.155
 11
13.155
 20
23.214
 21
23.786
  0
LINE
  8
0
 10
13.155
 11
13.388
 20
23.786
 21
24.308
  0
LINE
  8
0
 10
13.388
 11
13.812
 20
24.308
 21
24.691
  0
LINE
  8
0
 10
13.812
 11
14.356
 20
24.691
 21
24.867
  0
LINE
  8
0
 10
14.356
 11
14.925
 20
24.867
 21
24.808
  0
LINE
  8
0
 10
14.925
 11
15.42
 20
24.808
 21
24.522
  0
LINE
  8
0
 10
15.42
 11
15.756
 20
24.522
 21
24.059
  0
LINE
  8
0
 10
15.756
 11
15.875
 20
24.059
 21
23.5
  0
LINE
  8
0
 10
15.875
 11
15.756
 20
23.5
 21
22.941
  0
LINE
  8
0
 10
15.756
 11
15.42
 20
22.941
 21
22.478
  0
LINE
  8
0
 10
15.42
 11
14.925
 20
22.478
 21
22.192
  0
LINE
  8
0
 10
14.925
 11
14.356
 20
22.192
 21
22.133
  0
LINE
  8
0
 10
14.356
 11
13.812
 20
22.133
 21
22.309
  0
LINE
  8
0
 10
13.812
 11
13.388
 20
22.309
 21
22.692
  0
LINE
  8
0
 10
13.388
 11
13.155
 20
22.692
 21
23.214
  0
LINE
  8
0
 10
13.155
 11
13.155
 20
72.214
 21
72.786
  0
LINE
  8
0
 10
13.155
 11
13.388
 20
72.786
 21
73.308
  0
LINE
  8
0
 10
13.388
 11
13.812
 20
73.308
 21
73.691
  0
LINE
  8
0
 10
13.812
 11
14.356
 20
73.691
 21
73.867
  0
LINE
  8
0
 10
14.356
 11
14.925
 20
73.867
 21
73.808
  0
LINE
  8
0
 10
14.925
 11
15.42
 20
73.808
 21
73.522
  0
LINE
  8
0
 10
15.42
 11
15.756
 20
73.522
 21
73.059
  0
LINE
  8
0
 10
15.756
 11
15.875
 20
73.059
 21
72.5
  0
LINE
  8
0
 10
15.875
 11
15.756
 20
72.5
 21
71.941
  0
LINE
  8
0
 10
15.756
 11
15.42
 20
71.941
 21
71.478
  0
LINE
  8
0
 10
15.42
 11
14.925
 20
71.478
 21
71.192
  0
LINE
  8
0
 10
14.925
 11
14.356
 20
71.192
 21
71.133
  0
LINE
  8
0
 10
14.356
 11
13.812
 20
71.133
 21
71.309
  0
LINE
  8
0
 10
13.812
 11
13.388
 20
71.309
 21
71.692
  0
LINE
  8
0
 10
13.388
 11
13.155
 20
71.692
 21
72.214
  0
LINE
  8
0
 10
22
 11
22
 20
-25
 21
-10
  0
LINE
  8
0
 10
22
 11
42
 20
-10
 21
-10
  0
LINE
  8
0
 10
42
 11
42
 20
-10
 21
-25
  0
LINE
  8
0
 10
42
 11
22
 20
-25
 21
-25
  0
LINE
  8
0
 10
66
 11
66
 20
30
 21
60
  0
LINE
  8
0
 10
66
 11
76
 20
60
 21
60
  0
LINE
  8
0
 10
76
 11
76
 20
60
 21
30
  0
LINE
  8
0
 10
76
 11
66
 20
30
 21
30
  0
LINE
  8
0
 10
71.155
 11
71.155
 20
23.214
 21
23.786
  0
LINE
  8
0
 10
71.155
 11
71.388
 20
23.786
 21
24.308
  0
LINE
  8
0
 10
71.388
 11
71.812
 20
24.308
 21
24.691
  0
LINE
  8
0
 10
71.812
 11
72.356
 20
24.691
 21
24.867
  0
LINE
  8
0
 10
72.356
 11
72.925
 20
24.867
 21
24.808
  0
LINE
  8
0
 10
72.925
 11
73.42
 20
24.808
 21
24.522
  0
LINE
  8
0
 10
73.42
 11
73.756
 20
24.522
 21
24.059
  0
LINE
  8
0
 10
73.756
 11
73.875
 20
24.059
 21
23.5
  0
LINE
  8
0
 10
73.875
 11
73.756
 20
23.5
 21
22.941
  0
LINE
  8
0
 10
73.756
 11
73.42
 20
22.941
 21
22.478
  0
LINE
  8
0
 10
73.42
 11
72.925
 20
22.478
 21
22.192
  0
LINE
  8
0
 10
72.925
 11
72.356
 20
22.192
 21
22.133
  0
LINE
  8
0
 10
72.356
 11
71.812
 20
22.133
 21
22.309
  0
LINE
  8
0
 10
71.812
 11
71.388
 20
22.309
 21
22.692
  0
LINE
  8
0
 10
71.388
 11
71.155
 20
22.692
 21
23.214
  0
LINE
  8
0
 10
71.155
 11
71.155
 20
72.214
 21
72.786
  0
LINE
  8
0
 10
71.155
 11
71.388
 20
72.786
 21
73.308
  0
LINE
  8
0
 10
71.388
 11
71.812
 20
73.308
 21
73.691
  0
LINE
  8
0
 10
71.812
 11
72.356
 20
73.691
 21
73.867
  0
LINE
  8
0
 10
72.356
 11
72.925
 20
73.867
 21
73.808
  0
LINE
  8
0
 10
72.925
 11
73.42
 20
73.808
 21
73.522
  0
LINE
  8
0
 10
73.42
 11
73.756
 20
73.522
 21
73.059
  0
LINE
  8
0
 10
73.756
 11
73.875
 20
73.059
 21
72.5
  0
LINE
  8
0
 10
73.875
 11
73.756
 20
72.5
 21
71.941
  0
LINE
  8
0
 10
73.756
 11
73.42
 20
71.941
 21
71.478
  0
LINE
  8
0
 10
73.42
 11
72.925
 20
71.478
 21
71.192
  0
LINE
  8
0
 10
72.925
 11
72.356
 20
71.192
 21
71.133
  0
LINE
  8
0
 10
72.356
 11
71.812
 20
71.133
 21
71.309
  0
LINE
  8
0
 10
71.812
 11
71.388
 20
71.309
 21
71.692
  0
LINE
  8
0
 10
71.388
 11
71.155
 20
71.692
 21
72.214
  0
LINE
  8
0
 10
81.237
 11
81.237
 20
-86.853
 21
-86.147
  0
LINE
  8
0
 10
81.237
 11
81.525
 20
-86.147
 21
-85.501
  0
LINE
  8
0
 10
81.525
 11
82.05
 20
-85.501
 21
-85.028
  0
LINE
  8
0
 10
82.05
 11
82.722
 20
-85.028
 21
-84.809
  0
LINE
  8
0
 10
82.722
 11
83.425
 20
-84.809
 21
-84.883
  0
LINE
  8
0
 10
83.425
 11
84.038
 20
-84.883
 21
-85.237
  0
LINE
  8
0
 10
84.038
 11
84.453
 20
-85.237
 21
-85.809
  0
LINE
  8
0
 10
84.453
 11
84.6
 20
-85.809
 21
-86.5
  0
LINE
  8
0
 10
84.6
 11
84.453
 20
-86.5
 21
-87.191
  0
LINE
  8
0
 10
84.453
 11
84.038
 20
-87.191
 21
-87.763
  0
LINE
  8
0
 10
84.038
 11
83.425
 20
-87.763
 21
-88.117
  0
LINE
  8
0
 10
83.425
 11
82.722
 20
-88.117
 21
-88.191
  0
LINE
  8
0
 10
82.722
 11
82.05
 20
-88.191
 21
-87.972
  0
LINE
  8
0
 10
82.05
 11
81.525
 20
-87.972
 21
-87.499
  0
LINE
  8
0
 10
81.525
 11
81.237
 20
-87.499
 21
-86.853
  0
LINE
  8
0
 10
81.237
 11
81.237
 20
86.147
 21
86.853
  0
LINE
  8
0
 10
81.237
 11
81.525
 20
86.853
 21
87.499
  0
LINE
  8
0
 10
81.525
 11
82.05
 20
87.499
 21
87.972
  0
LINE
  8
0
 10
82.05
 11
82.722
 20
87.972
 21
88.191
  0
LINE
  8
0
 10
82.722
 11
83.425
 20
88.191
 21
88.117
  0
LINE
  8
0
 10
83.425
 11
84.038
 20
88.117
 21
87.763
  0
LINE
  8
0
 10
84.038
 11
84.453
 20
87.763
 21
87.191
  0
LINE
  8
0
 10
84.453
 11
84.6
 20
87.191
 21
86.5
  0
LINE
  8
0
 10
84.6
 11
84.453
 20
86.5
 21
85.809
  0
LINE
  8
0
 10
84.453
 11
84.038
 20
85.809
 21
85.237
  0
LINE
  8
0
 10
84.038
 11
83.425
 20
85.237
 21
84.883
  0
LINE
  8
0
 10
83.425
 11
82.722
 20
84.883
 21
84.809
  0
LINE
  8
0
 10
82.722
 11
82.05
 20
84.809
 21
85.028
  0
LINE
  8
0
 10
82.05
 11
81.525
 20
85.028
 21
85.501
  0
LINE
  8
0
 10
81.525
 11
81.237
 20
85.501
 21
86.147
  0
LINE
  8
0
 10
84.837
 11
84.837
 20
-0.353
 21
0.353
  0
LINE
  8
0
 10
84.837
 11
85.125
 20
0.353
 21
0.999
  0
LINE
  8
0
 10
85.125
 11
85.65
 20
0.999
 21
1.472
  0
LINE
  8
0
 10
85.65
 11
86.322
 20
1.472
 21
1.691
  0
LINE
  8
0
 10
86.322
 11
87.025
 20
1.691
 21
1.617
  0
LINE
  8
0
 10
87.025
 11
87.638
 20
1.617
 21
1.263
  0
LINE
  8
0
 10
87.638
 11
88.053
 20
1.263
 21
0.691
  0
LINE
  8
0
 10
88.053
 11
88.2
 20
0.691
 21
0
  0
LINE
  8
0
 10
88.2
 11
88.053
 20
0
 21
-0.691
  0
LINE
  8
0
 10
88.053
 11
87.638
 20
-0.691
 21
-1.263
  0
LINE
  8
0
 10
87.638
 11
87.025
 20
-1.263
 21
-1.617
  0
LINE
  8
0
 10
87.025
 11
86.322
 20
-1.617
 21
-1.691
  0
LINE
  8
0
 10
86.322
 11
85.65
 20
-1.691
 21
-1.472
  0
LINE
  8
0
 10
85.65
 11
85.125
 20
-1.472
 21
-0.999
  0
LINE
  8
0
 10
85.125
 11
84.837
 20
-0.999
 21
-0.353
  0
LINE
  8
0
 10
86.337
 11
86.337
 20
-78.353
 21
-77.647
  0
LINE
  8
0
 10
86.337
 11
86.625
 20
-77.647
 21
-77.001
  0
LINE
  8
0
 10
86.625
 11
87.15
 20
-77.001
 21
-76.528
  0
LINE
  8
0
 10
87.15
 11
87.822
 20
-76.528
 21
-76.309
  0
LINE
  8
0
 10
87.822
 11
88.525
 20
-76.309
 21
-76.383
  0
LINE
  8
0
 10
88.525
 11
89.138
 20
-76.383
 21
-76.737
  0
LINE
  8
0
 10
89.138
 11
89.553
 20
-76.737
 21
-77.309
  0
LINE
  8
0
 10
89.553
 11
89.7
 20
-77.309
 21
-78
  0
LINE
  8
0
 10
89.7
 11
89.553
 20
-78
 21
-78.691
  0
LINE
  8
0
 10
89.553
 11
89.138
 20
-78.691
 21
-79.263
  0
LINE
  8
0
 10
89.138
 11
88.525
 20
-79.263
 21
-79.617
  0
LINE
  8
0
 10
88.525
 11
87.822
 20
-79.617
 21
-79.691
  0
LINE
  8
0
 10
87.822
 11
87.15
 20
-79.691
 21
-79.472
  0
LINE
  8
0
 10
87.15
 11
86.625
 20
-79.472
 21
-78.999
  0
LINE
  8
0
 10
86.625
 11
86.337
 20
-78.999
 21
-78.353
  0
LINE
  8
0
 10
101.408
 11
101.408
 20
-103.424
 21
-102.718
  0
LINE
  8
0
 10
101.408
 11
101.696
 20
-102.718
 21
-102.072
  0
LINE
  8
0
 10
101.696
 11
102.221
 20
-102.072
 21
-101.599
  0
LINE
  8
0
 10
102.221
 11
102.893
 20
-101.599
 21
-101.38
  0
LINE
  8
0
 10
102.893
 11
103.596
 20
-101.38
 21
-101.454
  0
LINE
  8
0
 10
103.596
 11
104.209
 20
-101.454
 21
-101.808
  0
LINE
  8
0
 10
104.209
 11
104.624
 20
-101.808
 21
-102.38
  0
LINE
  8
0
 10
104.624
 11
104.771
 20
-102.38
 21
-103.071
  0
LINE
  8
0
 10
104.771
 11
104.624
 20
-103.071
 21
-103.762
  0
LINE
  8
0
 10
104.624
 11
104.209
 20
-103.762
 21
-104.334
  0
LINE
  8
0
 10
104.209
 11
103.596
 20
-104.334
 21
-104.688
  0
LINE
  8
0
 10
103.596
 11
102.893
 20
-104.688
 21
-104.762
  0
LINE
  8
0
 10
102.893
 11
102.221
 20
-104.762
 21
-104.543
  0
LINE
  8
0
 10
102.221
 11
101.696
 20
-104.543
 21
-104.07
  0
LINE
  8
0
 10
101.696
 11
101.408
 20
-104.07
 21
-103.424
  0
LINE
  8
0
 10
101.408
 11
101.408
 20
102.718
 21
103.424
  0
LINE
  8
0
 10
101.408
 11
101.696
 20
103.424
 21
104.07
  0
LINE
  8
0
 10
101.696
 11
102.221
 20
104.07
 21
104.543
  0
LINE
  8
0
 10
102.221
 11
102.893
 20
104.543
 21
104.762
  0
LINE
  8
0
 10
102.893
 11
103.596
 20
104.762
 21
104.688
  0
LINE
  8
0
 10
103.596
 11
104.209
 20
104.688
 21
104.334
  0
LINE
  8
0
 10
104.209
 11
104.624
 20
104.334
 21
103.762
  0
LINE
  8
0
 10
104.624
 11
104.771
 20
103.762
 21
103.071
  0
LINE
  8
0
 10
104.771
 11
104.624
 20
103.071
 21
102.38
  0
LINE
  8
0
 10
104.624
 11
104.209
 20
102.38
 21
101.808
  0
LINE
  8
0
 10
104.209
 11
103.596
 20
101.808
 21
101.454
  0
LINE
  8
0
 10
103.596
 11
102.893
 20
101.454
 21
101.38
  0
LINE
  8
0
 10
102.893
 11
102.221
 20
101.38
 21
101.599
  0
LINE
  8
0
 10
102.221
 11
101.696
 20
101.599
 21
102.072
  0
LINE
  8
0
 10
101.696
 11
101.408
 20
102.072
 21
102.718
  0
ENDSEC
  0
SECTION
  2
OBJECTS
  0
DICTIONARY
  0
ENDSEC
  0
EOF
