<?xml version="1.0" encoding="UTF-8" standalone="no"?>
<svg
   xmlns:dc="http://purl.org/dc/elements/1.1/"
   xmlns:cc="http://creativecommons.org/ns#"
   xmlns:rdf="http://www.w3.org/1999/02/22-rdf-syntax-ns#"
   xmlns:svg="http://www.w3.org/2000/svg"
   xmlns="http://www.w3.org/2000/svg"
   version="1.1"
   id="svg2"
   viewBox="0 0 744.09448819 1052.3622047"
   height="297mm"
   width="210mm">
  <defs
     id="defs4">
    <marker
       id="DistanceX"
       orient="auto"
       refX="0.0"
       refY="0.0"
       style="overflow:visible">
      <path
         d="M 3,-3 L -3,3 M 0,-5 L  0,5"
         style="stroke:#000000; stroke-width:0.5"
         id="path3362" />
    </marker>
    <pattern
       height="8"
       id="Hatch"
       patternUnits="userSpaceOnUse"
       width="8"
       x="0"
       y="0">
      <path
         d="M8 4 l-4,4"
         linecap="square"
         stroke="#000000"
         stroke-width="0.25"
         id="path3365" />
      <path
         d="M6 2 l-4,4"
         linecap="square"
         stroke="#000000"
         stroke-width="0.25"
         id="path3367" />
      <path
         d="M4 0 l-4,4"
         linecap="square"
         stroke="#000000"
         stroke-width="0.25"
         id="path3369" />
    </pattern>
    <marker
       id="DistanceX-3"
       orient="auto"
       refX="0.0"
       refY="0.0"
       style="overflow:visible">
      <path
         d="M 3,-3 L -3,3 M 0,-5 L  0,5"
         style="stroke:#000000; stroke-width:0.5"
         id="path4693" />
    </marker>
    <pattern
       height="8"
       id="Hatch-0"
       patternUnits="userSpaceOnUse"
       width="8"
       x="0"
       y="0">
      <path
         d="M8 4 l-4,4"
         linecap="square"
         stroke="#000000"
         stroke-width="0.25"
         id="path4696" />
      <path
         d="M6 2 l-4,4"
         linecap="square"
         stroke="#000000"
         stroke-width="0.25"
         id="path4698" />
      <path
         d="M4 0 l-4,4"
         linecap="square"
         stroke="#000000"
         stroke-width="0.25"
         id="path4700" />
    </pattern>
    <marker
       id="DistanceX-32"
       orient="auto"
       refX="0.0"
       refY="0.0"
       style="overflow:visible">
      <path
         d="M 3,-3 L -3,3 M 0,-5 L  0,5"
         style="stroke:#000000; stroke-width:0.5"
         id="path5587" />
    </marker>
    <pattern
       height="8"
       id="Hatch-7"
       patternUnits="userSpaceOnUse"
       width="8"
       x="0"
       y="0">
      <path
         d="M8 4 l-4,4"
         linecap="square"
         stroke="#000000"
         stroke-width="0.25"
         id="path5590" />
      <path
         d="M6 2 l-4,4"
         linecap="square"
         stroke="#000000"
         stroke-width="0.25"
         id="path5592" />
      <path
         d="M4 0 l-4,4"
         linecap="square"
         stroke="#000000"
         stroke-width="0.25"
         id="path5594" />
    </pattern>
  </defs>
  <metadata
     id="metadata7">
    <rdf:RDF>
      <cc:Work
         rdf:about="">
        <dc:format>image/svg+xml</dc:format>
        <dc:type
           rdf:resource="http://purl.org/dc/dcmitype/StillImage" />
        <dc:title></dc:title>
      </cc:Work>
    </rdf:RDF>
  </metadata>
  <g
     id="layer1">
    <g
       transform="translate(322.46915,-594.28571)"
       id="g5596">
      <path
         d="m -399.86929,1424.9409 0,-745.15744"
         style="fill:none;stroke:#000000"
         id="path5598" />
      <path
         d="m -399.86929,679.78346 5.99173,-13.46102"
         style="fill:none;stroke:#000000"
         id="path5600" />
      <path
         d="m -393.87756,666.32244 10.94882,-9.85748"
         style="fill:none;stroke:#000000"
         id="path5602" />
      <path
         d="m -382.92874,656.46496 14.01378,-4.55315"
         style="fill:none;stroke:#000000"
         id="path5604" />
      <path
         d="m -368.91496,651.91181 730.42441,0"
         style="fill:none;stroke:#000000"
         id="path5606" />
      <path
         d="m 361.50945,651.91181 14.65157,1.5378"
         style="fill:none;stroke:#000000"
         id="path5608" />
      <path
         d="m 376.16102,653.44961 12.75945,7.37008"
         style="fill:none;stroke:#000000"
         id="path5610" />
      <path
         d="m 388.92047,660.81969 8.65984,11.91968"
         style="fill:none;stroke:#000000"
         id="path5612" />
      <path
         d="M 397.58031,672.73937 400.64528,687.15"
         style="fill:none;stroke:#000000"
         id="path5614" />
      <path
         d="m 400.64528,687.15 0,730.4244"
         style="fill:none;stroke:#000000"
         id="path5616" />
      <path
         d="m 400.64528,1417.5744 -3.06497,14.4106"
         style="fill:none;stroke:#000000"
         id="path5618" />
      <path
         d="m 397.58031,1431.985 -8.65984,11.9197"
         style="fill:none;stroke:#000000"
         id="path5620" />
      <path
         d="m 388.92047,1443.9047 -12.75945,7.3701"
         style="fill:none;stroke:#000000"
         id="path5622" />
      <path
         d="m 376.16102,1451.2748 -14.65157,1.5378"
         style="fill:none;stroke:#000000"
         id="path5624" />
      <path
         d="m 361.50945,1452.8126 -730.42441,0"
         style="fill:none;stroke:#000000"
         id="path5626" />
      <path
         d="m -368.91496,1452.8126 -14.01378,-4.5532"
         style="fill:none;stroke:#000000"
         id="path5628" />
      <path
         d="m -382.92874,1448.2594 -10.94882,-9.8574"
         style="fill:none;stroke:#000000"
         id="path5630" />
      <path
         d="m -393.87756,1438.402 -5.99173,-13.4611"
         style="fill:none;stroke:#000000"
         id="path5632" />
      <path
         d="m -371.10472,1418.8252 0,-2.5016"
         style="fill:none;stroke:#000000"
         id="path5634" />
      <path
         d="m -371.10472,1416.3236 1.02047,-2.289"
         style="fill:none;stroke:#000000"
         id="path5636" />
      <path
         d="m -370.08425,1414.0346 1.86023,-1.6759"
         style="fill:none;stroke:#000000"
         id="path5638" />
      <path
         d="m -368.22402,1412.3587 2.38111,-0.776"
         style="fill:none;stroke:#000000"
         id="path5640" />
      <path
         d="m -365.84291,1411.5827 2.49094,0.2622"
         style="fill:none;stroke:#000000"
         id="path5642" />
      <path
         d="m -363.35197,1411.8449 2.17205,1.2543"
         style="fill:none;stroke:#000000"
         id="path5644" />
      <path
         d="m -361.17992,1413.0992 1.47047,2.0268"
         style="fill:none;stroke:#000000"
         id="path5646" />
      <path
         d="m -359.70945,1415.126 0.52087,2.4484"
         style="fill:none;stroke:#000000"
         id="path5648" />
      <path
         d="m -359.18858,1417.5744 -0.52087,2.4484"
         style="fill:none;stroke:#000000"
         id="path5650" />
      <path
         d="m -359.70945,1420.0228 -1.47047,2.0268"
         style="fill:none;stroke:#000000"
         id="path5652" />
      <path
         d="m -361.17992,1422.0496 -2.17205,1.2543"
         style="fill:none;stroke:#000000"
         id="path5654" />
      <path
         d="m -363.35197,1423.3039 -2.49094,0.2622"
         style="fill:none;stroke:#000000"
         id="path5656" />
      <path
         d="m -365.84291,1423.5661 -2.38111,-0.7759"
         style="fill:none;stroke:#000000"
         id="path5658" />
      <path
         d="m -368.22402,1422.7902 -1.86023,-1.676"
         style="fill:none;stroke:#000000"
         id="path5660" />
      <path
         d="m -370.08425,1421.1142 -1.02047,-2.289"
         style="fill:none;stroke:#000000"
         id="path5662" />
      <path
         d="m -371.10472,688.40079 0,-2.50158"
         style="fill:none;stroke:#000000"
         id="path5664" />
      <path
         d="m -371.10472,685.89921 1.02047,-2.28897"
         style="fill:none;stroke:#000000"
         id="path5666" />
      <path
         d="m -370.08425,683.61024 1.86023,-1.67599"
         style="fill:none;stroke:#000000"
         id="path5668" />
      <path
         d="m -368.22402,681.93425 2.38111,-0.77598"
         style="fill:none;stroke:#000000"
         id="path5670" />
      <path
         d="m -365.84291,681.15827 2.49094,0.2622"
         style="fill:none;stroke:#000000"
         id="path5672" />
      <path
         d="m -363.35197,681.42047 2.17205,1.25433"
         style="fill:none;stroke:#000000"
         id="path5674" />
      <path
         d="m -361.17992,682.6748 1.47047,2.02678"
         style="fill:none;stroke:#000000"
         id="path5676" />
      <path
         d="m -359.70945,684.70158 0.52087,2.44842"
         style="fill:none;stroke:#000000"
         id="path5678" />
      <path
         d="m -359.18858,687.15 -0.52087,2.44843"
         style="fill:none;stroke:#000000"
         id="path5680" />
      <path
         d="m -359.70945,689.59843 -1.47047,2.02677"
         style="fill:none;stroke:#000000"
         id="path5682" />
      <path
         d="m -361.17992,691.6252 -2.17205,1.25433"
         style="fill:none;stroke:#000000"
         id="path5684" />
      <path
         d="m -363.35197,692.87953 -2.49094,0.2622"
         style="fill:none;stroke:#000000"
         id="path5686" />
      <path
         d="m -365.84291,693.14173 -2.38111,-0.77598"
         style="fill:none;stroke:#000000"
         id="path5688" />
      <path
         d="m -368.22402,692.36575 -1.86023,-1.67599"
         style="fill:none;stroke:#000000"
         id="path5690" />
      <path
         d="m -370.08425,690.68976 -1.02047,-2.28897"
         style="fill:none;stroke:#000000"
         id="path5692" />
      <path
         d="m -317.70354,777.23504 0,-2.50157"
         style="fill:none;stroke:#000000"
         id="path5694" />
      <path
         d="m -317.70354,774.73347 1.02047,-2.28898"
         style="fill:none;stroke:#000000"
         id="path5696" />
      <path
         d="m -316.68307,772.44449 1.86024,-1.67599"
         style="fill:none;stroke:#000000"
         id="path5698" />
      <path
         d="m -314.82283,770.7685 2.3811,-0.77598"
         style="fill:none;stroke:#000000"
         id="path5700" />
      <path
         d="m -312.44173,769.99252 2.49094,0.2622"
         style="fill:none;stroke:#000000"
         id="path5702" />
      <path
         d="m -309.95079,770.25472 2.17205,1.25433"
         style="fill:none;stroke:#000000"
         id="path5704" />
      <path
         d="m -307.77874,771.50905 1.47047,2.02678"
         style="fill:none;stroke:#000000"
         id="path5706" />
      <path
         d="m -306.30827,773.53583 0.52087,2.44842"
         style="fill:none;stroke:#000000"
         id="path5708" />
      <path
         d="m -305.7874,775.98425 -0.52087,2.44843"
         style="fill:none;stroke:#000000"
         id="path5710" />
      <path
         d="m -306.30827,778.43268 -1.47047,2.02677"
         style="fill:none;stroke:#000000"
         id="path5712" />
      <path
         d="m -307.77874,780.45945 -2.17205,1.25433"
         style="fill:none;stroke:#000000"
         id="path5714" />
      <path
         d="m -309.95079,781.71378 -2.49094,0.2622"
         style="fill:none;stroke:#000000"
         id="path5716" />
      <path
         d="M -312.44173,781.97598 -314.82283,781.2"
         style="fill:none;stroke:#000000"
         id="path5718" />
      <path
         d="m -314.82283,781.2 -1.86024,-1.67598"
         style="fill:none;stroke:#000000"
         id="path5720" />
      <path
         d="m -316.68307,779.52402 -1.02047,-2.28898"
         style="fill:none;stroke:#000000"
         id="path5722" />
      <path
         d="m -312.38858,1053.613 0,-2.5016"
         style="fill:none;stroke:#000000"
         id="path5724" />
      <path
         d="m -312.38858,1051.1114 1.02047,-2.289"
         style="fill:none;stroke:#000000"
         id="path5726" />
      <path
         d="m -311.36811,1048.8224 1.86024,-1.6759"
         style="fill:none;stroke:#000000"
         id="path5728" />
      <path
         d="m -309.50787,1047.1465 2.3811,-0.776"
         style="fill:none;stroke:#000000"
         id="path5730" />
      <path
         d="m -307.12677,1046.3705 2.49094,0.2622"
         style="fill:none;stroke:#000000"
         id="path5732" />
      <path
         d="m -304.63583,1046.6327 2.17205,1.2543"
         style="fill:none;stroke:#000000"
         id="path5734" />
      <path
         d="m -302.46378,1047.887 1.47047,2.0268"
         style="fill:none;stroke:#000000"
         id="path5736" />
      <path
         d="m -300.99331,1049.9138 0.52087,2.4484"
         style="fill:none;stroke:#000000"
         id="path5738" />
      <path
         d="m -300.47244,1052.3622 -0.52087,2.4484"
         style="fill:none;stroke:#000000"
         id="path5740" />
      <path
         d="m -300.99331,1054.8106 -1.47047,2.0268"
         style="fill:none;stroke:#000000"
         id="path5742" />
      <path
         d="m -302.46378,1056.8374 -2.17205,1.2543"
         style="fill:none;stroke:#000000"
         id="path5744" />
      <path
         d="m -304.63583,1058.0917 -2.49094,0.2622"
         style="fill:none;stroke:#000000"
         id="path5746" />
      <path
         d="m -307.12677,1058.3539 -2.3811,-0.7759"
         style="fill:none;stroke:#000000"
         id="path5748" />
      <path
         d="m -309.50787,1057.578 -1.86024,-1.676"
         style="fill:none;stroke:#000000"
         id="path5750" />
      <path
         d="m -311.36811,1055.902 -1.02047,-2.289"
         style="fill:none;stroke:#000000"
         id="path5752" />
      <path
         d="m -301.75866,1360.1091 0,-2.5016"
         style="fill:none;stroke:#000000"
         id="path5754" />
      <path
         d="m -301.75866,1357.6075 1.02047,-2.289"
         style="fill:none;stroke:#000000"
         id="path5756" />
      <path
         d="m -300.73819,1355.3185 1.86024,-1.676"
         style="fill:none;stroke:#000000"
         id="path5758" />
      <path
         d="m -298.87795,1353.6425 2.3811,-0.776"
         style="fill:none;stroke:#000000"
         id="path5760" />
      <path
         d="m -296.49685,1352.8665 2.49094,0.2622"
         style="fill:none;stroke:#000000"
         id="path5762" />
      <path
         d="m -294.00591,1353.1287 2.17205,1.2544"
         style="fill:none;stroke:#000000"
         id="path5764" />
      <path
         d="m -291.83386,1354.3831 1.47047,2.0267"
         style="fill:none;stroke:#000000"
         id="path5766" />
      <path
         d="m -290.36339,1356.4098 0.52087,2.4485"
         style="fill:none;stroke:#000000"
         id="path5768" />
      <path
         d="m -289.84252,1358.8583 -0.52087,2.4484"
         style="fill:none;stroke:#000000"
         id="path5770" />
      <path
         d="m -290.36339,1361.3067 -1.47047,2.0268"
         style="fill:none;stroke:#000000"
         id="path5772" />
      <path
         d="m -291.83386,1363.3335 -2.17205,1.2543"
         style="fill:none;stroke:#000000"
         id="path5774" />
      <path
         d="m -294.00591,1364.5878 -2.49094,0.2622"
         style="fill:none;stroke:#000000"
         id="path5776" />
      <path
         d="m -296.49685,1364.85 -2.3811,-0.776"
         style="fill:none;stroke:#000000"
         id="path5778" />
      <path
         d="m -298.87795,1364.074 -1.86024,-1.676"
         style="fill:none;stroke:#000000"
         id="path5780" />
      <path
         d="m -300.73819,1362.398 -1.02047,-2.2889"
         style="fill:none;stroke:#000000"
         id="path5782" />
      <path
         d="m -301.75866,747.11693 0,-2.50158"
         style="fill:none;stroke:#000000"
         id="path5784" />
      <path
         d="m -301.75866,744.61535 1.02047,-2.28897"
         style="fill:none;stroke:#000000"
         id="path5786" />
      <path
         d="m -300.73819,742.32638 1.86024,-1.67599"
         style="fill:none;stroke:#000000"
         id="path5788" />
      <path
         d="m -298.87795,740.65039 2.3811,-0.77598"
         style="fill:none;stroke:#000000"
         id="path5790" />
      <path
         d="m -296.49685,739.87441 2.49094,0.2622"
         style="fill:none;stroke:#000000"
         id="path5792" />
      <path
         d="m -294.00591,740.13661 2.17205,1.25433"
         style="fill:none;stroke:#000000"
         id="path5794" />
      <path
         d="m -291.83386,741.39094 1.47047,2.02678"
         style="fill:none;stroke:#000000"
         id="path5796" />
      <path
         d="m -290.36339,743.41772 0.52087,2.44842"
         style="fill:none;stroke:#000000"
         id="path5798" />
      <path
         d="m -289.84252,745.86614 -0.52087,2.44843"
         style="fill:none;stroke:#000000"
         id="path5800" />
      <path
         d="m -290.36339,748.31457 -1.47047,2.02677"
         style="fill:none;stroke:#000000"
         id="path5802" />
      <path
         d="m -291.83386,750.34134 -2.17205,1.25433"
         style="fill:none;stroke:#000000"
         id="path5804" />
      <path
         d="m -294.00591,751.59567 -2.49094,0.2622"
         style="fill:none;stroke:#000000"
         id="path5806" />
      <path
         d="m -296.49685,751.85787 -2.3811,-0.77598"
         style="fill:none;stroke:#000000"
         id="path5808" />
      <path
         d="m -298.87795,751.08189 -1.86024,-1.67598"
         style="fill:none;stroke:#000000"
         id="path5810" />
      <path
         d="m -300.73819,749.40591 -1.02047,-2.28898"
         style="fill:none;stroke:#000000"
         id="path5812" />
      <path
         d="m -269.29134,946.06299 0,-106.29921"
         style="fill:none;stroke:#000000"
         id="path5814" />
      <path
         d="m -269.29134,839.76378 35.43307,0"
         style="fill:none;stroke:#000000"
         id="path5816" />
      <path
         d="m -233.85827,839.76378 0,106.29921"
         style="fill:none;stroke:#000000"
         id="path5818" />
      <path
         d="m -233.85827,946.06299 -35.43307,0"
         style="fill:none;stroke:#000000"
         id="path5820" />
      <path
         d="m -5.89252,1360.1091 0,-2.5016"
         style="fill:none;stroke:#000000"
         id="path5822" />
      <path
         d="m -5.89252,1357.6075 1.020473,-2.289"
         style="fill:none;stroke:#000000"
         id="path5824" />
      <path
         d="m -4.872047,1355.3185 1.860236,-1.676"
         style="fill:none;stroke:#000000"
         id="path5826" />
      <path
         d="m -3.011811,1353.6425 2.381102,-0.776"
         style="fill:none;stroke:#000000"
         id="path5828" />
      <path
         d="m -0.630709,1352.8665 2.490945,0.2622"
         style="fill:none;stroke:#000000"
         id="path5830" />
      <path
         d="m 1.860236,1353.1287 2.172047,1.2544"
         style="fill:none;stroke:#000000"
         id="path5832" />
      <path
         d="m 4.032283,1354.3831 1.470473,2.0267"
         style="fill:none;stroke:#000000"
         id="path5834" />
      <path
         d="m 5.502756,1356.4098 0.520866,2.4485"
         style="fill:none;stroke:#000000"
         id="path5836" />
      <path
         d="m 6.023622,1358.8583 -0.520866,2.4484"
         style="fill:none;stroke:#000000"
         id="path5838" />
      <path
         d="m 5.502756,1361.3067 -1.470473,2.0268"
         style="fill:none;stroke:#000000"
         id="path5840" />
      <path
         d="m 4.032283,1363.3335 -2.172047,1.2543"
         style="fill:none;stroke:#000000"
         id="path5842" />
      <path
         d="m 1.860236,1364.5878 -2.490945,0.2622"
         style="fill:none;stroke:#000000"
         id="path5844" />
      <path
         d="m -0.630709,1364.85 -2.381102,-0.776"
         style="fill:none;stroke:#000000"
         id="path5846" />
      <path
         d="m -3.011811,1364.074 -1.860236,-1.676"
         style="fill:none;stroke:#000000"
         id="path5848" />
      <path
         d="m -4.872047,1362.398 -1.020473,-2.2889"
         style="fill:none;stroke:#000000"
         id="path5850" />
      <path
         d="m -5.89252,747.11693 0,-2.50158"
         style="fill:none;stroke:#000000"
         id="path5852" />
      <path
         d="m -5.89252,744.61535 1.020473,-2.28897"
         style="fill:none;stroke:#000000"
         id="path5854" />
      <path
         d="m -4.872047,742.32638 1.860236,-1.67599"
         style="fill:none;stroke:#000000"
         id="path5856" />
      <path
         d="m -3.011811,740.65039 2.381102,-0.77598"
         style="fill:none;stroke:#000000"
         id="path5858" />
      <path
         d="m -0.630709,739.87441 2.490945,0.2622"
         style="fill:none;stroke:#000000"
         id="path5860" />
      <path
         d="m 1.860236,740.13661 2.172047,1.25433"
         style="fill:none;stroke:#000000"
         id="path5862" />
      <path
         d="m 4.032283,741.39094 1.470473,2.02678"
         style="fill:none;stroke:#000000"
         id="path5864" />
      <path
         d="m 5.502756,743.41772 0.520866,2.44842"
         style="fill:none;stroke:#000000"
         id="path5866" />
      <path
         d="m 6.023622,745.86614 -0.520866,2.44843"
         style="fill:none;stroke:#000000"
         id="path5868" />
      <path
         d="m 5.502756,748.31457 -1.470473,2.02677"
         style="fill:none;stroke:#000000"
         id="path5870" />
      <path
         d="m 4.032283,750.34134 -2.172047,1.25433"
         style="fill:none;stroke:#000000"
         id="path5872" />
      <path
         d="m 1.860236,751.59567 -2.490945,0.2622"
         style="fill:none;stroke:#000000"
         id="path5874" />
      <path
         d="m -0.630709,751.85787 -2.381102,-0.77598"
         style="fill:none;stroke:#000000"
         id="path5876" />
      <path
         d="m -3.011811,751.08189 -1.860236,-1.67598"
         style="fill:none;stroke:#000000"
         id="path5878" />
      <path
         d="M -4.872047,749.40591 -5.89252,747.11693"
         style="fill:none;stroke:#000000"
         id="path5880" />
      <path
         d="m 46.612205,970.10787 0,-2.02677"
         style="fill:none;stroke:#000000"
         id="path5882" />
      <path
         d="m 46.612205,968.0811 0.82559,-1.8496"
         style="fill:none;stroke:#000000"
         id="path5884" />
      <path
         d="m 47.437795,966.2315 1.502362,-1.35709"
         style="fill:none;stroke:#000000"
         id="path5886" />
      <path
         d="m 48.940157,964.87441 1.92756,-0.62362"
         style="fill:none;stroke:#000000"
         id="path5888" />
      <path
         d="m 50.867717,964.25079 2.016141,0.20905"
         style="fill:none;stroke:#000000"
         id="path5890" />
      <path
         d="m 52.883858,964.45984 1.753937,1.01339"
         style="fill:none;stroke:#000000"
         id="path5892" />
      <path
         d="m 54.637795,965.47323 1.190551,1.64055"
         style="fill:none;stroke:#000000"
         id="path5894" />
      <path
         d="M 55.828346,967.11378 56.25,969.09449"
         style="fill:none;stroke:#000000"
         id="path5896" />
      <path
         d="m 56.25,969.09449 -0.421654,1.98071"
         style="fill:none;stroke:#000000"
         id="path5898" />
      <path
         d="m 55.828346,971.0752 -1.190551,1.64055"
         style="fill:none;stroke:#000000"
         id="path5900" />
      <path
         d="m 54.637795,972.71575 -1.753937,1.01338"
         style="fill:none;stroke:#000000"
         id="path5902" />
      <path
         d="m 52.883858,973.72913 -2.016141,0.20906"
         style="fill:none;stroke:#000000"
         id="path5904" />
      <path
         d="m 50.867717,973.93819 -1.92756,-0.62362"
         style="fill:none;stroke:#000000"
         id="path5906" />
      <path
         d="m 48.940157,973.31457 -1.502362,-1.35709"
         style="fill:none;stroke:#000000"
         id="path5908" />
      <path
         d="m 47.437795,971.95748 -0.82559,-1.84961"
         style="fill:none;stroke:#000000"
         id="path5910" />
      <path
         d="m 46.612205,796.48583 0,-2.02677"
         style="fill:none;stroke:#000000"
         id="path5912" />
      <path
         d="m 46.612205,794.45906 0.82559,-1.84961"
         style="fill:none;stroke:#000000"
         id="path5914" />
      <path
         d="m 47.437795,792.60945 1.502362,-1.35709"
         style="fill:none;stroke:#000000"
         id="path5916" />
      <path
         d="m 48.940157,791.25236 1.92756,-0.62362"
         style="fill:none;stroke:#000000"
         id="path5918" />
      <path
         d="m 50.867717,790.62874 2.016141,0.20906"
         style="fill:none;stroke:#000000"
         id="path5920" />
      <path
         d="m 52.883858,790.8378 1.753937,1.01338"
         style="fill:none;stroke:#000000"
         id="path5922" />
      <path
         d="m 54.637795,791.85118 1.190551,1.64055"
         style="fill:none;stroke:#000000"
         id="path5924" />
      <path
         d="M 55.828346,793.49173 56.25,795.47244"
         style="fill:none;stroke:#000000"
         id="path5926" />
      <path
         d="m 56.25,795.47244 -0.421654,1.98071"
         style="fill:none;stroke:#000000"
         id="path5928" />
      <path
         d="m 55.828346,797.45315 -1.190551,1.64055"
         style="fill:none;stroke:#000000"
         id="path5930" />
      <path
         d="m 54.637795,799.0937 -1.753937,1.01339"
         style="fill:none;stroke:#000000"
         id="path5932" />
      <path
         d="m 52.883858,800.10709 -2.016141,0.20905"
         style="fill:none;stroke:#000000"
         id="path5934" />
      <path
         d="m 50.867717,800.31614 -1.92756,-0.62362"
         style="fill:none;stroke:#000000"
         id="path5936" />
      <path
         d="m 48.940157,799.69252 -1.502362,-1.35709"
         style="fill:none;stroke:#000000"
         id="path5938" />
      <path
         d="m 47.437795,798.33543 -0.82559,-1.8496"
         style="fill:none;stroke:#000000"
         id="path5940" />
      <path
         d="m 77.952756,1140.9449 0,-53.1496"
         style="fill:none;stroke:#000000"
         id="path5942" />
      <path
         d="m 77.952756,1087.7953 70.866144,0"
         style="fill:none;stroke:#000000"
         id="path5944" />
      <path
         d="m 148.8189,1087.7953 0,53.1496"
         style="fill:none;stroke:#000000"
         id="path5946" />
      <path
         d="m 148.8189,1140.9449 -70.866144,0"
         style="fill:none;stroke:#000000"
         id="path5948" />
      <path
         d="m 233.85827,946.06299 0,-106.29921"
         style="fill:none;stroke:#000000"
         id="path5950" />
      <path
         d="m 233.85827,839.76378 35.43307,0"
         style="fill:none;stroke:#000000"
         id="path5952" />
      <path
         d="m 269.29134,839.76378 0,106.29921"
         style="fill:none;stroke:#000000"
         id="path5954" />
      <path
         d="m 269.29134,946.06299 -35.43307,0"
         style="fill:none;stroke:#000000"
         id="path5956" />
      <path
         d="m 252.12402,970.10787 0,-2.02677"
         style="fill:none;stroke:#000000"
         id="path5958" />
      <path
         d="m 252.12402,968.0811 0.82559,-1.8496"
         style="fill:none;stroke:#000000"
         id="path5960" />
      <path
         d="m 252.94961,966.2315 1.50236,-1.35709"
         style="fill:none;stroke:#000000"
         id="path5962" />
      <path
         d="m 254.45197,964.87441 1.92756,-0.62362"
         style="fill:none;stroke:#000000"
         id="path5964" />
      <path
         d="m 256.37953,964.25079 2.01614,0.20905"
         style="fill:none;stroke:#000000"
         id="path5966" />
      <path
         d="m 258.39567,964.45984 1.75394,1.01339"
         style="fill:none;stroke:#000000"
         id="path5968" />
      <path
         d="m 260.14961,965.47323 1.19055,1.64055"
         style="fill:none;stroke:#000000"
         id="path5970" />
      <path
         d="m 261.34016,967.11378 0.42165,1.98071"
         style="fill:none;stroke:#000000"
         id="path5972" />
      <path
         d="m 261.76181,969.09449 -0.42165,1.98071"
         style="fill:none;stroke:#000000"
         id="path5974" />
      <path
         d="m 261.34016,971.0752 -1.19055,1.64055"
         style="fill:none;stroke:#000000"
         id="path5976" />
      <path
         d="m 260.14961,972.71575 -1.75394,1.01338"
         style="fill:none;stroke:#000000"
         id="path5978" />
      <path
         d="m 258.39567,973.72913 -2.01614,0.20906"
         style="fill:none;stroke:#000000"
         id="path5980" />
      <path
         d="m 256.37953,973.93819 -1.92756,-0.62362"
         style="fill:none;stroke:#000000"
         id="path5982" />
      <path
         d="m 254.45197,973.31457 -1.50236,-1.35709"
         style="fill:none;stroke:#000000"
         id="path5984" />
      <path
         d="m 252.94961,971.95748 -0.82559,-1.84961"
         style="fill:none;stroke:#000000"
         id="path5986" />
      <path
         d="m 252.12402,796.48583 0,-2.02677"
         style="fill:none;stroke:#000000"
         id="path5988" />
      <path
         d="m 252.12402,794.45906 0.82559,-1.84961"
         style="fill:none;stroke:#000000"
         id="path5990" />
      <path
         d="m 252.94961,792.60945 1.50236,-1.35709"
         style="fill:none;stroke:#000000"
         id="path5992" />
      <path
         d="m 254.45197,791.25236 1.92756,-0.62362"
         style="fill:none;stroke:#000000"
         id="path5994" />
      <path
         d="m 256.37953,790.62874 2.01614,0.20906"
         style="fill:none;stroke:#000000"
         id="path5996" />
      <path
         d="m 258.39567,790.8378 1.75394,1.01338"
         style="fill:none;stroke:#000000"
         id="path5998" />
      <path
         d="m 260.14961,791.85118 1.19055,1.64055"
         style="fill:none;stroke:#000000"
         id="path6000" />
      <path
         d="m 261.34016,793.49173 0.42165,1.98071"
         style="fill:none;stroke:#000000"
         id="path6002" />
      <path
         d="m 261.76181,795.47244 -0.42165,1.98071"
         style="fill:none;stroke:#000000"
         id="path6004" />
      <path
         d="m 261.34016,797.45315 -1.19055,1.64055"
         style="fill:none;stroke:#000000"
         id="path6006" />
      <path
         d="m 260.14961,799.0937 -1.75394,1.01339"
         style="fill:none;stroke:#000000"
         id="path6008" />
      <path
         d="m 258.39567,800.10709 -2.01614,0.20905"
         style="fill:none;stroke:#000000"
         id="path6010" />
      <path
         d="m 256.37953,800.31614 -1.92756,-0.62362"
         style="fill:none;stroke:#000000"
         id="path6012" />
      <path
         d="m 254.45197,799.69252 -1.50236,-1.35709"
         style="fill:none;stroke:#000000"
         id="path6014" />
      <path
         d="m 252.94961,798.33543 -0.82559,-1.8496"
         style="fill:none;stroke:#000000"
         id="path6016" />
      <path
         d="m 289.97362,1360.1091 0,-2.5016"
         style="fill:none;stroke:#000000"
         id="path6018" />
      <path
         d="m 289.97362,1357.6075 1.02047,-2.289"
         style="fill:none;stroke:#000000"
         id="path6020" />
      <path
         d="m 290.99409,1355.3185 1.86024,-1.676"
         style="fill:none;stroke:#000000"
         id="path6022" />
      <path
         d="m 292.85433,1353.6425 2.3811,-0.776"
         style="fill:none;stroke:#000000"
         id="path6024" />
      <path
         d="m 295.23543,1352.8665 2.49095,0.2622"
         style="fill:none;stroke:#000000"
         id="path6026" />
      <path
         d="m 297.72638,1353.1287 2.17204,1.2544"
         style="fill:none;stroke:#000000"
         id="path6028" />
      <path
         d="m 299.89842,1354.3831 1.47048,2.0267"
         style="fill:none;stroke:#000000"
         id="path6030" />
      <path
         d="m 301.3689,1356.4098 0.52086,2.4485"
         style="fill:none;stroke:#000000"
         id="path6032" />
      <path
         d="m 301.88976,1358.8583 -0.52086,2.4484"
         style="fill:none;stroke:#000000"
         id="path6034" />
      <path
         d="m 301.3689,1361.3067 -1.47048,2.0268"
         style="fill:none;stroke:#000000"
         id="path6036" />
      <path
         d="m 299.89842,1363.3335 -2.17204,1.2543"
         style="fill:none;stroke:#000000"
         id="path6038" />
      <path
         d="m 297.72638,1364.5878 -2.49095,0.2622"
         style="fill:none;stroke:#000000"
         id="path6040" />
      <path
         d="m 295.23543,1364.85 -2.3811,-0.776"
         style="fill:none;stroke:#000000"
         id="path6042" />
      <path
         d="m 292.85433,1364.074 -1.86024,-1.676"
         style="fill:none;stroke:#000000"
         id="path6044" />
      <path
         d="m 290.99409,1362.398 -1.02047,-2.2889"
         style="fill:none;stroke:#000000"
         id="path6046" />
      <path
         d="m 289.97362,747.11693 0,-2.50158"
         style="fill:none;stroke:#000000"
         id="path6048" />
      <path
         d="m 289.97362,744.61535 1.02047,-2.28897"
         style="fill:none;stroke:#000000"
         id="path6050" />
      <path
         d="m 290.99409,742.32638 1.86024,-1.67599"
         style="fill:none;stroke:#000000"
         id="path6052" />
      <path
         d="m 292.85433,740.65039 2.3811,-0.77598"
         style="fill:none;stroke:#000000"
         id="path6054" />
      <path
         d="m 295.23543,739.87441 2.49095,0.2622"
         style="fill:none;stroke:#000000"
         id="path6056" />
      <path
         d="m 297.72638,740.13661 2.17204,1.25433"
         style="fill:none;stroke:#000000"
         id="path6058" />
      <path
         d="m 299.89842,741.39094 1.47048,2.02678"
         style="fill:none;stroke:#000000"
         id="path6060" />
      <path
         d="m 301.3689,743.41772 0.52086,2.44842"
         style="fill:none;stroke:#000000"
         id="path6062" />
      <path
         d="m 301.88976,745.86614 -0.52086,2.44843"
         style="fill:none;stroke:#000000"
         id="path6064" />
      <path
         d="m 301.3689,748.31457 -1.47048,2.02677"
         style="fill:none;stroke:#000000"
         id="path6066" />
      <path
         d="m 299.89842,750.34134 -2.17204,1.25433"
         style="fill:none;stroke:#000000"
         id="path6068" />
      <path
         d="m 297.72638,751.59567 -2.49095,0.2622"
         style="fill:none;stroke:#000000"
         id="path6070" />
      <path
         d="m 295.23543,751.85787 -2.3811,-0.77598"
         style="fill:none;stroke:#000000"
         id="path6072" />
      <path
         d="m 292.85433,751.08189 -1.86024,-1.67598"
         style="fill:none;stroke:#000000"
         id="path6074" />
      <path
         d="m 290.99409,749.40591 -1.02047,-2.28898"
         style="fill:none;stroke:#000000"
         id="path6076" />
      <path
         d="m 300.60354,1053.613 0,-2.5016"
         style="fill:none;stroke:#000000"
         id="path6078" />
      <path
         d="m 300.60354,1051.1114 1.02048,-2.289"
         style="fill:none;stroke:#000000"
         id="path6080" />
      <path
         d="m 301.62402,1048.8224 1.86023,-1.6759"
         style="fill:none;stroke:#000000"
         id="path6082" />
      <path
         d="m 303.48425,1047.1465 2.3811,-0.776"
         style="fill:none;stroke:#000000"
         id="path6084" />
      <path
         d="m 305.86535,1046.3705 2.49095,0.2622"
         style="fill:none;stroke:#000000"
         id="path6086" />
      <path
         d="m 308.3563,1046.6327 2.17205,1.2543"
         style="fill:none;stroke:#000000"
         id="path6088" />
      <path
         d="m 310.52835,1047.887 1.47047,2.0268"
         style="fill:none;stroke:#000000"
         id="path6090" />
      <path
         d="m 311.99882,1049.9138 0.52086,2.4484"
         style="fill:none;stroke:#000000"
         id="path6092" />
      <path
         d="m 312.51968,1052.3622 -0.52086,2.4484"
         style="fill:none;stroke:#000000"
         id="path6094" />
      <path
         d="m 311.99882,1054.8106 -1.47047,2.0268"
         style="fill:none;stroke:#000000"
         id="path6096" />
      <path
         d="m 310.52835,1056.8374 -2.17205,1.2543"
         style="fill:none;stroke:#000000"
         id="path6098" />
      <path
         d="m 308.3563,1058.0917 -2.49095,0.2622"
         style="fill:none;stroke:#000000"
         id="path6100" />
      <path
         d="m 305.86535,1058.3539 -2.3811,-0.7759"
         style="fill:none;stroke:#000000"
         id="path6102" />
      <path
         d="m 303.48425,1057.578 -1.86023,-1.676"
         style="fill:none;stroke:#000000"
         id="path6104" />
      <path
         d="m 301.62402,1055.902 -1.02048,-2.289"
         style="fill:none;stroke:#000000"
         id="path6106" />
      <path
         d="m 305.9185,1329.9909 0,-2.5015"
         style="fill:none;stroke:#000000"
         id="path6108" />
      <path
         d="m 305.9185,1327.4894 1.02048,-2.289"
         style="fill:none;stroke:#000000"
         id="path6110" />
      <path
         d="m 306.93898,1325.2004 1.86023,-1.676"
         style="fill:none;stroke:#000000"
         id="path6112" />
      <path
         d="m 308.79921,1323.5244 2.3811,-0.776"
         style="fill:none;stroke:#000000"
         id="path6114" />
      <path
         d="m 311.18031,1322.7484 2.49095,0.2622"
         style="fill:none;stroke:#000000"
         id="path6116" />
      <path
         d="m 313.67126,1323.0106 2.17205,1.2544"
         style="fill:none;stroke:#000000"
         id="path6118" />
      <path
         d="m 315.84331,1324.265 1.47047,2.0267"
         style="fill:none;stroke:#000000"
         id="path6120" />
      <path
         d="m 317.31378,1326.2917 0.52087,2.4485"
         style="fill:none;stroke:#000000"
         id="path6122" />
      <path
         d="m 317.83465,1328.7402 -0.52087,2.4484"
         style="fill:none;stroke:#000000"
         id="path6124" />
      <path
         d="m 317.31378,1331.1886 -1.47047,2.0268"
         style="fill:none;stroke:#000000"
         id="path6126" />
      <path
         d="m 315.84331,1333.2154 -2.17205,1.2543"
         style="fill:none;stroke:#000000"
         id="path6128" />
      <path
         d="m 313.67126,1334.4697 -2.49095,0.2622"
         style="fill:none;stroke:#000000"
         id="path6130" />
      <path
         d="m 311.18031,1334.7319 -2.3811,-0.776"
         style="fill:none;stroke:#000000"
         id="path6132" />
      <path
         d="m 308.79921,1333.9559 -1.86023,-1.676"
         style="fill:none;stroke:#000000"
         id="path6134" />
      <path
         d="m 306.93898,1332.2799 -1.02048,-2.289"
         style="fill:none;stroke:#000000"
         id="path6136" />
      <path
         d="m 359.31968,1418.8252 0,-2.5016"
         style="fill:none;stroke:#000000"
         id="path6138" />
      <path
         d="m 359.31968,1416.3236 1.02048,-2.289"
         style="fill:none;stroke:#000000"
         id="path6140" />
      <path
         d="m 360.34016,1414.0346 1.86023,-1.6759"
         style="fill:none;stroke:#000000"
         id="path6142" />
      <path
         d="m 362.20039,1412.3587 2.38111,-0.776"
         style="fill:none;stroke:#000000"
         id="path6144" />
      <path
         d="m 364.5815,1411.5827 2.49094,0.2622"
         style="fill:none;stroke:#000000"
         id="path6146" />
      <path
         d="m 367.07244,1411.8449 2.17205,1.2543"
         style="fill:none;stroke:#000000"
         id="path6148" />
      <path
         d="m 369.24449,1413.0992 1.47047,2.0268"
         style="fill:none;stroke:#000000"
         id="path6150" />
      <path
         d="m 370.71496,1415.126 0.52087,2.4484"
         style="fill:none;stroke:#000000"
         id="path6152" />
      <path
         d="m 371.23583,1417.5744 -0.52087,2.4484"
         style="fill:none;stroke:#000000"
         id="path6154" />
      <path
         d="m 370.71496,1420.0228 -1.47047,2.0268"
         style="fill:none;stroke:#000000"
         id="path6156" />
      <path
         d="m 369.24449,1422.0496 -2.17205,1.2543"
         style="fill:none;stroke:#000000"
         id="path6158" />
      <path
         d="m 367.07244,1423.3039 -2.49094,0.2622"
         style="fill:none;stroke:#000000"
         id="path6160" />
      <path
         d="m 364.5815,1423.5661 -2.38111,-0.7759"
         style="fill:none;stroke:#000000"
         id="path6162" />
      <path
         d="m 362.20039,1422.7902 -1.86023,-1.676"
         style="fill:none;stroke:#000000"
         id="path6164" />
      <path
         d="m 360.34016,1421.1142 -1.02048,-2.289"
         style="fill:none;stroke:#000000"
         id="path6166" />
      <path
         d="m 359.31968,688.40079 0,-2.50158"
         style="fill:none;stroke:#000000"
         id="path6168" />
      <path
         d="m 359.31968,685.89921 1.02048,-2.28897"
         style="fill:none;stroke:#000000"
         id="path6170" />
      <path
         d="m 360.34016,683.61024 1.86023,-1.67599"
         style="fill:none;stroke:#000000"
         id="path6172" />
      <path
         d="m 362.20039,681.93425 2.38111,-0.77598"
         style="fill:none;stroke:#000000"
         id="path6174" />
      <path
         d="m 364.5815,681.15827 2.49094,0.2622"
         style="fill:none;stroke:#000000"
         id="path6176" />
      <path
         d="m 367.07244,681.42047 2.17205,1.25433"
         style="fill:none;stroke:#000000"
         id="path6178" />
      <path
         d="m 369.24449,682.6748 1.47047,2.02678"
         style="fill:none;stroke:#000000"
         id="path6180" />
      <path
         d="m 370.71496,684.70158 0.52087,2.44842"
         style="fill:none;stroke:#000000"
         id="path6182" />
      <path
         d="m 371.23583,687.15 -0.52087,2.44843"
         style="fill:none;stroke:#000000"
         id="path6184" />
      <path
         d="m 370.71496,689.59843 -1.47047,2.02677"
         style="fill:none;stroke:#000000"
         id="path6186" />
      <path
         d="m 369.24449,691.6252 -2.17205,1.25433"
         style="fill:none;stroke:#000000"
         id="path6188" />
      <path
         d="m 367.07244,692.87953 -2.49094,0.2622"
         style="fill:none;stroke:#000000"
         id="path6190" />
      <path
         d="m 364.5815,693.14173 -2.38111,-0.77598"
         style="fill:none;stroke:#000000"
         id="path6192" />
      <path
         d="m 362.20039,692.36575 -1.86023,-1.67599"
         style="fill:none;stroke:#000000"
         id="path6194" />
      <path
         d="m 360.34016,690.68976 -1.02048,-2.28897"
         style="fill:none;stroke:#000000"
         id="path6196" />
    </g>
  </g>
</svg>
