  0
SECTION
  2
HEADER
  9
$ACADVER
  1
AC1014
  9
$HANDSEED
  5
FFFF
  9
$MEASUREMENT
 70
     1
  0
ENDSEC
  0
SECTION
  2
TABLES
  0
TABLE
  2
VPORT
  5
8
330
0
100
AcDbSymbolTable
 70
     4
  0
VPORT
  5
2E
330
8
100
AcDbSymbolTableRecord
100
AcDbViewportTableRecord
  2
*ACTIVE
 70
     0
 10
0.0
 20
0.0
 11
1.0
 21
1.0
 12
210.0
 22
148.5
 13
0.0
 23
0.0
 14
10.0
 24
10.0
 15
10.0
 25
10.0
 16
0.0
 26
0.0
 36
1.0
 17
0.0
 27
0.0
 37
0.0
 40
341.0
 41
1.24
 42
50.0
 43
0.0
 44
0.0
 50
0.0
 51
0.0
 71
     0
 72
   100
 73
     1
 74
     3
 75
     0
 76
     0
 77
     0
 78
     0
  0
ENDTAB
  0
TABLE
  2
LTYPE
  5
5
330
0
100
AcDbSymbolTable
 70
     1
  0
LTYPE
  5
14
330
5
100
AcDbSymbolTableRecord
100
AcDbLinetypeTableRecord
  2
BYBLOCK
 70
     0
  3

 72
    65
 73
     0
 40
0.0
  0
LTYPE
  5
15
330
5
100
AcDbSymbolTableRecord
100
AcDbLinetypeTableRecord
  2
BYLAYER
 70
     0
  3

 72
    65
 73
     0
 40
0.0
  0
LTYPE
  5
16
330
5
100
AcDbSymbolTableRecord
100
AcDbLinetypeTableRecord
  2
CONTINUOUS
 70
     0
  3
Solid line
 72
    65
 73
     0
 40
0.0
  0
ENDTAB
  0
TABLE
  2
LAYER
  5
2
100
AcDbSymbolTable
 70
2
  0
LAYER
  5
50
100
AcDbSymbolTableRecord
100
AcDbLayerTableRecord
  2
0
 70
0
  6
CONTINUOUS
  0
LAYER
  5
51
100
AcDbSymbolTableRecord
100
AcDbLayerTableRecord
  2
Layer_1
 70
0
  6
CONTINUOUS
  0
ENDTAB
  0
TABLE
  2
STYLE
  5
3
330
0
100
AcDbSymbolTable
 70
     1
  0
STYLE
  5
11
330
3
100
AcDbSymbolTableRecord
100
AcDbTextStyleTableRecord
  2
STANDARD
 70
     0
 40
0.0
 41
1.0
 50
0.0
 71
     0
 42
2.5
  3
txt
  4

  0
ENDTAB
  0
TABLE
  2
VIEW
  5
6
330
0
100
AcDbSymbolTable
 70
     0
  0
ENDTAB
  0
TABLE
  2
UCS
  5
7
330
0
100
AcDbSymbolTable
 70
     0
  0
ENDTAB
  0
TABLE
  2
APPID
  5
9
330
0
100
AcDbSymbolTable
 70
     2
  0
APPID
  5
12
330
9
100
AcDbSymbolTableRecord
100
AcDbRegAppTableRecord
  2
ACAD
 70
     0
  0
ENDTAB
  0
TABLE
  2
DIMSTYLE
  5
A
330
0
100
AcDbSymbolTable
 70
     1
  0
DIMSTYLE
105
27
330
A
100
AcDbSymbolTableRecord
100
AcDbDimStyleTableRecord
  2
ISO-25
 70
     0
  3

  4

  5

  6

  7

 40
1.0
 41
2.5
 42
0.625
 43
3.75
 44
1.25
 45
0.0
 46
0.0
 47
0.0
 48
0.0
140
2.5
141
2.5
142
0.0
143
0.03937007874016
144
1.0
145
0.0
146
1.0
147
0.625
 71
     0
 72
     0
 73
     0
 74
     0
 75
     0
 76
     0
 77
     1
 78
     8
170
     0
171
     3
172
     1
173
     0
174
     0
175
     0
176
     0
177
     0
178
     0
270
     2
271
     2
272
     2
273
     2
274
     3
340
11
275
     0
280
     0
281
     0
282
     0
283
     0
284
     8
285
     0
286
     0
287
     3
288
     0
  0
ENDTAB
  0
TABLE
  2
BLOCK_RECORD
  5
1
330
0
100
AcDbSymbolTable
 70
     1
  0
BLOCK_RECORD
  5
1F
330
1
100
AcDbSymbolTableRecord
100
AcDbBlockTableRecord
  2
*MODEL_SPACE
  0
BLOCK_RECORD
  5
1B
330
1
100
AcDbSymbolTableRecord
100
AcDbBlockTableRecord
  2
*PAPER_SPACE
  0
ENDTAB
  0
ENDSEC
  0
SECTION
  2
BLOCKS
  0
BLOCK
  5
20
330
1F
100
AcDbEntity
  8
0
100
AcDbBlockBegin
  2
*MODEL_SPACE
 70
     0
 10
0.0
 20
0.0
 30
0.0
  3
*MODEL_SPACE
  1

  0
ENDBLK
  5
21
330
1F
100
AcDbEntity
  8
0
100
AcDbBlockEnd
  0
BLOCK
  5
1C
330
1B
100
AcDbEntity
 67
     1
  8
0
100
AcDbBlockBegin
  2
*PAPER_SPACE
  1

  0
ENDBLK
  5
1D
330
1B
100
AcDbEntity
 67
     1
  8
0
100
AcDbBlockEnd
  0
ENDSEC
  0
SECTION
  2
ENTITIES
  0
LWPOLYLINE
  5
100
100
AcDbEntity
  8
Layer_1
 62
7
100
AcDbPolyline
 90
19
 70
0
 10
-34.745642
 20
69.827790
 30
0.0
 10
-34.745642
 20
280.127779
 30
0.0
 10
-33.054643
 20
283.926778
 30
0.0
 10
-29.964642
 20
286.708778
 30
0.0
 10
-26.009642
 20
287.993778
 30
0.0
 10
180.132358
 20
287.993778
 30
0.0
 10
184.267356
 20
287.559777
 30
0.0
 10
187.868357
 20
285.479776
 30
0.0
 10
190.312356
 20
282.115778
 30
0.0
 10
191.177359
 20
278.048778
 30
0.0
 10
191.177359
 20
71.906780
 30
0.0
 10
190.312356
 20
67.839789
 30
0.0
 10
187.868357
 20
64.475785
 30
0.0
 10
184.267356
 20
62.395779
 30
0.0
 10
180.132358
 20
61.961777
 30
0.0
 10
-26.009642
 20
61.961777
 30
0.0
 10
-29.964642
 20
63.246792
 30
0.0
 10
-33.054643
 20
66.028769
 30
0.0
 10
-34.745642
 20
69.827790
 30
0.0
  0
LWPOLYLINE
  5
101
100
AcDbEntity
  8
Layer_1
 62
7
100
AcDbPolyline
 90
16
 70
0
 10
-26.627641
 20
71.553777
 30
0.0
 10
-26.627641
 20
72.259784
 30
0.0
 10
-26.339642
 20
72.905791
 30
0.0
 10
-25.814644
 20
73.378767
 30
0.0
 10
-25.142642
 20
73.597771
 30
0.0
 10
-24.439643
 20
73.523773
 30
0.0
 10
-23.826642
 20
73.169781
 30
0.0
 10
-23.411643
 20
72.597773
 30
0.0
 10
-23.264642
 20
71.906780
 30
0.0
 10
-23.411643
 20
71.215788
 30
0.0
 10
-23.826642
 20
70.643780
 30
0.0
 10
-24.439643
 20
70.289788
 30
0.0
 10
-25.142642
 20
70.215790
 30
0.0
 10
-25.814644
 20
70.434766
 30
0.0
 10
-26.339642
 20
70.907770
 30
0.0
 10
-26.627641
 20
71.553777
 30
0.0
  0
LWPOLYLINE
  5
102
100
AcDbEntity
  8
Layer_1
 62
7
100
AcDbPolyline
 90
16
 70
0
 10
-26.627641
 20
277.695777
 30
0.0
 10
-26.627641
 20
278.401779
 30
0.0
 10
-26.339642
 20
279.047777
 30
0.0
 10
-25.814644
 20
279.520778
 30
0.0
 10
-25.142642
 20
279.739777
 30
0.0
 10
-24.439643
 20
279.665778
 30
0.0
 10
-23.826642
 20
279.311779
 30
0.0
 10
-23.411643
 20
278.739776
 30
0.0
 10
-23.264642
 20
278.048778
 30
0.0
 10
-23.411643
 20
277.357776
 30
0.0
 10
-23.826642
 20
276.785777
 30
0.0
 10
-24.439643
 20
276.431777
 30
0.0
 10
-25.142642
 20
276.357778
 30
0.0
 10
-25.814644
 20
276.576777
 30
0.0
 10
-26.339642
 20
277.049779
 30
0.0
 10
-26.627641
 20
277.695777
 30
0.0
  0
LWPOLYLINE
  5
103
100
AcDbEntity
  8
Layer_1
 62
7
100
AcDbPolyline
 90
16
 70
0
 10
-11.556642
 20
252.624778
 30
0.0
 10
-11.556642
 20
253.330776
 30
0.0
 10
-11.268642
 20
253.976777
 30
0.0
 10
-10.743641
 20
254.449779
 30
0.0
 10
-10.071642
 20
254.668778
 30
0.0
 10
-9.368643
 20
254.594779
 30
0.0
 10
-8.755642
 20
254.240779
 30
0.0
 10
-8.340643
 20
253.668777
 30
0.0
 10
-8.193642
 20
252.977778
 30
0.0
 10
-8.340643
 20
252.286777
 30
0.0
 10
-8.755642
 20
251.714777
 30
0.0
 10
-9.368643
 20
251.360778
 30
0.0
 10
-10.071642
 20
251.286779
 30
0.0
 10
-10.743641
 20
251.505778
 30
0.0
 10
-11.268642
 20
251.978777
 30
0.0
 10
-11.556642
 20
252.624778
 30
0.0
  0
LWPOLYLINE
  5
104
100
AcDbEntity
  8
Layer_1
 62
7
100
AcDbPolyline
 90
16
 70
0
 10
-10.056642
 20
174.624776
 30
0.0
 10
-10.056642
 20
175.330783
 30
0.0
 10
-9.768642
 20
175.976789
 30
0.0
 10
-9.243641
 20
176.449766
 30
0.0
 10
-8.571642
 20
176.668770
 30
0.0
 10
-7.868643
 20
176.594771
 30
0.0
 10
-7.255643
 20
176.240780
 30
0.0
 10
-6.840643
 20
175.668772
 30
0.0
 10
-6.693642
 20
174.977779
 30
0.0
 10
-6.840643
 20
174.286786
 30
0.0
 10
-7.255643
 20
173.714778
 30
0.0
 10
-7.868643
 20
173.360787
 30
0.0
 10
-8.571642
 20
173.286788
 30
0.0
 10
-9.243641
 20
173.505764
 30
0.0
 10
-9.768642
 20
173.978769
 30
0.0
 10
-10.056642
 20
174.624776
 30
0.0
  0
LWPOLYLINE
  5
105
100
AcDbEntity
  8
Layer_1
 62
7
100
AcDbPolyline
 90
16
 70
0
 10
-6.456643
 20
88.124765
 30
0.0
 10
-6.456643
 20
88.830772
 30
0.0
 10
-6.168644
 20
89.476779
 30
0.0
 10
-5.643643
 20
89.949783
 30
0.0
 10
-4.971644
 20
90.168788
 30
0.0
 10
-4.268642
 20
90.094789
 30
0.0
 10
-3.655641
 20
89.740770
 30
0.0
 10
-3.240642
 20
89.168790
 30
0.0
 10
-3.093644
 20
88.477769
 30
0.0
 10
-3.240642
 20
87.786776
 30
0.0
 10
-3.655641
 20
87.214768
 30
0.0
 10
-4.268642
 20
86.860776
 30
0.0
 10
-4.971644
 20
86.786778
 30
0.0
 10
-5.643643
 20
87.005782
 30
0.0
 10
-6.168644
 20
87.478787
 30
0.0
 10
-6.456643
 20
88.124765
 30
0.0
  0
LWPOLYLINE
  5
106
100
AcDbEntity
  8
Layer_1
 62
7
100
AcDbPolyline
 90
16
 70
0
 10
-6.456643
 20
261.124778
 30
0.0
 10
-6.456643
 20
261.830779
 30
0.0
 10
-6.168644
 20
262.476777
 30
0.0
 10
-5.643643
 20
262.949779
 30
0.0
 10
-4.971644
 20
263.168778
 30
0.0
 10
-4.268642
 20
263.094779
 30
0.0
 10
-3.655641
 20
262.740779
 30
0.0
 10
-3.240642
 20
262.168777
 30
0.0
 10
-3.093644
 20
261.477778
 30
0.0
 10
-3.240642
 20
260.786777
 30
0.0
 10
-3.655641
 20
260.214777
 30
0.0
 10
-4.268642
 20
259.860778
 30
0.0
 10
-4.971644
 20
259.786779
 30
0.0
 10
-5.643643
 20
260.005778
 30
0.0
 10
-6.168644
 20
260.478777
 30
0.0
 10
-6.456643
 20
261.124778
 30
0.0
  0
LWPOLYLINE
  5
107
100
AcDbEntity
  8
Layer_1
 62
7
100
AcDbPolyline
 90
5
 70
0
 10
2.106357
 20
204.977778
 30
0.0
 10
2.106357
 20
234.977778
 30
0.0
 10
12.106357
 20
234.977778
 30
0.0
 10
12.106357
 20
204.977778
 30
0.0
 10
2.106357
 20
204.977778
 30
0.0
  0
LWPOLYLINE
  5
108
100
AcDbEntity
  8
Layer_1
 62
7
100
AcDbPolyline
 90
16
 70
0
 10
76.443357
 20
88.124765
 30
0.0
 10
76.443357
 20
88.830772
 30
0.0
 10
76.731358
 20
89.476779
 30
0.0
 10
77.256357
 20
89.949783
 30
0.0
 10
77.928357
 20
90.168788
 30
0.0
 10
78.631357
 20
90.094789
 30
0.0
 10
79.244357
 20
89.740770
 30
0.0
 10
79.659358
 20
89.168790
 30
0.0
 10
79.806357
 20
88.477769
 30
0.0
 10
79.659358
 20
87.786776
 30
0.0
 10
79.244357
 20
87.214768
 30
0.0
 10
78.631357
 20
86.860776
 30
0.0
 10
77.928357
 20
86.786778
 30
0.0
 10
77.256357
 20
87.005782
 30
0.0
 10
76.731358
 20
87.478787
 30
0.0
 10
76.443357
 20
88.124765
 30
0.0
  0
LWPOLYLINE
  5
109
100
AcDbEntity
  8
Layer_1
 62
7
100
AcDbPolyline
 90
16
 70
0
 10
76.443357
 20
261.124778
 30
0.0
 10
76.443357
 20
261.830779
 30
0.0
 10
76.731358
 20
262.476777
 30
0.0
 10
77.256357
 20
262.949779
 30
0.0
 10
77.928357
 20
263.168778
 30
0.0
 10
78.631357
 20
263.094779
 30
0.0
 10
79.244357
 20
262.740779
 30
0.0
 10
79.659358
 20
262.168777
 30
0.0
 10
79.806357
 20
261.477778
 30
0.0
 10
79.659358
 20
260.786777
 30
0.0
 10
79.244357
 20
260.214777
 30
0.0
 10
78.631357
 20
259.860778
 30
0.0
 10
77.928357
 20
259.786779
 30
0.0
 10
77.256357
 20
260.005778
 30
0.0
 10
76.731358
 20
260.478777
 30
0.0
 10
76.443357
 20
261.124778
 30
0.0
  0
LWPOLYLINE
  5
10a
100
AcDbEntity
  8
Layer_1
 62
7
100
AcDbPolyline
 90
16
 70
0
 10
91.261358
 20
198.191779
 30
0.0
 10
91.261358
 20
198.763778
 30
0.0
 10
91.494357
 20
199.285777
 30
0.0
 10
91.918357
 20
199.668778
 30
0.0
 10
92.462358
 20
199.844777
 30
0.0
 10
93.031357
 20
199.785778
 30
0.0
 10
93.526357
 20
199.499777
 30
0.0
 10
93.862357
 20
199.036778
 30
0.0
 10
93.981357
 20
198.477777
 30
0.0
 10
93.862357
 20
197.918777
 30
0.0
 10
93.526357
 20
197.455777
 30
0.0
 10
93.031357
 20
197.169779
 30
0.0
 10
92.462358
 20
197.110777
 30
0.0
 10
91.918357
 20
197.286777
 30
0.0
 10
91.494357
 20
197.669778
 30
0.0
 10
91.261358
 20
198.191779
 30
0.0
  0
LWPOLYLINE
  5
10b
100
AcDbEntity
  8
Layer_1
 62
7
100
AcDbPolyline
 90
16
 70
0
 10
91.261358
 20
247.191777
 30
0.0
 10
91.261358
 20
247.763776
 30
0.0
 10
91.494357
 20
248.285777
 30
0.0
 10
91.918357
 20
248.668778
 30
0.0
 10
92.462358
 20
248.844778
 30
0.0
 10
93.031357
 20
248.785776
 30
0.0
 10
93.526357
 20
248.499778
 30
0.0
 10
93.862357
 20
248.036778
 30
0.0
 10
93.981357
 20
247.477778
 30
0.0
 10
93.862357
 20
246.918778
 30
0.0
 10
93.526357
 20
246.455778
 30
0.0
 10
93.031357
 20
246.169777
 30
0.0
 10
92.462358
 20
246.110778
 30
0.0
 10
91.918357
 20
246.286778
 30
0.0
 10
91.494357
 20
246.669779
 30
0.0
 10
91.261358
 20
247.191777
 30
0.0
  0
LWPOLYLINE
  5
10c
100
AcDbEntity
  8
Layer_1
 62
7
100
AcDbPolyline
 90
5
 70
0
 10
100.106358
 20
149.977773
 30
0.0
 10
100.106358
 20
164.977771
 30
0.0
 10
120.106358
 20
164.977771
 30
0.0
 10
120.106358
 20
149.977773
 30
0.0
 10
100.106358
 20
149.977773
 30
0.0
  0
LWPOLYLINE
  5
10d
100
AcDbEntity
  8
Layer_1
 62
7
100
AcDbPolyline
 90
5
 70
0
 10
144.106358
 20
204.977778
 30
0.0
 10
144.106358
 20
234.977778
 30
0.0
 10
154.106358
 20
234.977778
 30
0.0
 10
154.106358
 20
204.977778
 30
0.0
 10
144.106358
 20
204.977778
 30
0.0
  0
LWPOLYLINE
  5
10e
100
AcDbEntity
  8
Layer_1
 62
7
100
AcDbPolyline
 90
16
 70
0
 10
149.261359
 20
198.191779
 30
0.0
 10
149.261359
 20
198.763778
 30
0.0
 10
149.494359
 20
199.285777
 30
0.0
 10
149.918358
 20
199.668778
 30
0.0
 10
150.462358
 20
199.844777
 30
0.0
 10
151.031358
 20
199.785778
 30
0.0
 10
151.526359
 20
199.499777
 30
0.0
 10
151.862358
 20
199.036778
 30
0.0
 10
151.981357
 20
198.477777
 30
0.0
 10
151.862358
 20
197.918777
 30
0.0
 10
151.526359
 20
197.455777
 30
0.0
 10
151.031358
 20
197.169779
 30
0.0
 10
150.462358
 20
197.110777
 30
0.0
 10
149.918358
 20
197.286777
 30
0.0
 10
149.494359
 20
197.669778
 30
0.0
 10
149.261359
 20
198.191779
 30
0.0
  0
LWPOLYLINE
  5
10f
100
AcDbEntity
  8
Layer_1
 62
7
100
AcDbPolyline
 90
16
 70
0
 10
149.261359
 20
247.191777
 30
0.0
 10
149.261359
 20
247.763776
 30
0.0
 10
149.494359
 20
248.285777
 30
0.0
 10
149.918358
 20
248.668778
 30
0.0
 10
150.462358
 20
248.844778
 30
0.0
 10
151.031358
 20
248.785776
 30
0.0
 10
151.526359
 20
248.499778
 30
0.0
 10
151.862358
 20
248.036778
 30
0.0
 10
151.981357
 20
247.477778
 30
0.0
 10
151.862358
 20
246.918778
 30
0.0
 10
151.526359
 20
246.455778
 30
0.0
 10
151.031358
 20
246.169777
 30
0.0
 10
150.462358
 20
246.110778
 30
0.0
 10
149.918358
 20
246.286778
 30
0.0
 10
149.494359
 20
246.669779
 30
0.0
 10
149.261359
 20
247.191777
 30
0.0
  0
LWPOLYLINE
  5
110
100
AcDbEntity
  8
Layer_1
 62
7
100
AcDbPolyline
 90
16
 70
0
 10
159.343358
 20
88.124765
 30
0.0
 10
159.343358
 20
88.830772
 30
0.0
 10
159.631357
 20
89.476779
 30
0.0
 10
160.156358
 20
89.949783
 30
0.0
 10
160.828358
 20
90.168788
 30
0.0
 10
161.531356
 20
90.094789
 30
0.0
 10
162.144357
 20
89.740770
 30
0.0
 10
162.559357
 20
89.168790
 30
0.0
 10
162.706358
 20
88.477769
 30
0.0
 10
162.559357
 20
87.786776
 30
0.0
 10
162.144357
 20
87.214768
 30
0.0
 10
161.531356
 20
86.860776
 30
0.0
 10
160.828358
 20
86.786778
 30
0.0
 10
160.156358
 20
87.005782
 30
0.0
 10
159.631357
 20
87.478787
 30
0.0
 10
159.343358
 20
88.124765
 30
0.0
  0
LWPOLYLINE
  5
111
100
AcDbEntity
  8
Layer_1
 62
7
100
AcDbPolyline
 90
16
 70
0
 10
159.343358
 20
261.124778
 30
0.0
 10
159.343358
 20
261.830779
 30
0.0
 10
159.631357
 20
262.476777
 30
0.0
 10
160.156358
 20
262.949779
 30
0.0
 10
160.828358
 20
263.168778
 30
0.0
 10
161.531356
 20
263.094779
 30
0.0
 10
162.144357
 20
262.740779
 30
0.0
 10
162.559357
 20
262.168777
 30
0.0
 10
162.706358
 20
261.477778
 30
0.0
 10
162.559357
 20
260.786777
 30
0.0
 10
162.144357
 20
260.214777
 30
0.0
 10
161.531356
 20
259.860778
 30
0.0
 10
160.828358
 20
259.786779
 30
0.0
 10
160.156358
 20
260.005778
 30
0.0
 10
159.631357
 20
260.478777
 30
0.0
 10
159.343358
 20
261.124778
 30
0.0
  0
LWPOLYLINE
  5
112
100
AcDbEntity
  8
Layer_1
 62
7
100
AcDbPolyline
 90
16
 70
0
 10
162.943357
 20
174.624776
 30
0.0
 10
162.943357
 20
175.330783
 30
0.0
 10
163.231359
 20
175.976789
 30
0.0
 10
163.756357
 20
176.449766
 30
0.0
 10
164.428356
 20
176.668770
 30
0.0
 10
165.131358
 20
176.594771
 30
0.0
 10
165.744358
 20
176.240780
 30
0.0
 10
166.159358
 20
175.668772
 30
0.0
 10
166.306356
 20
174.977779
 30
0.0
 10
166.159358
 20
174.286786
 30
0.0
 10
165.744358
 20
173.714778
 30
0.0
 10
165.131358
 20
173.360787
 30
0.0
 10
164.428356
 20
173.286788
 30
0.0
 10
163.756357
 20
173.505764
 30
0.0
 10
163.231359
 20
173.978769
 30
0.0
 10
162.943357
 20
174.624776
 30
0.0
  0
LWPOLYLINE
  5
113
100
AcDbEntity
  8
Layer_1
 62
7
100
AcDbPolyline
 90
16
 70
0
 10
164.443356
 20
96.624790
 30
0.0
 10
164.443356
 20
97.330769
 30
0.0
 10
164.731359
 20
97.976776
 30
0.0
 10
165.256357
 20
98.449780
 30
0.0
 10
165.928356
 20
98.668785
 30
0.0
 10
166.631358
 20
98.594786
 30
0.0
 10
167.244358
 20
98.240767
 30
0.0
 10
167.659358
 20
97.668787
 30
0.0
 10
167.806359
 20
96.977766
 30
0.0
 10
167.659358
 20
96.286773
 30
0.0
 10
167.244358
 20
95.714765
 30
0.0
 10
166.631358
 20
95.360774
 30
0.0
 10
165.928356
 20
95.286775
 30
0.0
 10
165.256357
 20
95.505779
 30
0.0
 10
164.731359
 20
95.978784
 30
0.0
 10
164.443356
 20
96.624790
 30
0.0
  0
LWPOLYLINE
  5
114
100
AcDbEntity
  8
Layer_1
 62
7
100
AcDbPolyline
 90
16
 70
0
 10
179.514356
 20
71.553777
 30
0.0
 10
179.514356
 20
72.259784
 30
0.0
 10
179.802358
 20
72.905791
 30
0.0
 10
180.327356
 20
73.378767
 30
0.0
 10
180.999359
 20
73.597771
 30
0.0
 10
181.702357
 20
73.523773
 30
0.0
 10
182.315358
 20
73.169781
 30
0.0
 10
182.730357
 20
72.597773
 30
0.0
 10
182.877358
 20
71.906780
 30
0.0
 10
182.730357
 20
71.215788
 30
0.0
 10
182.315358
 20
70.643780
 30
0.0
 10
181.702357
 20
70.289788
 30
0.0
 10
180.999359
 20
70.215790
 30
0.0
 10
180.327356
 20
70.434766
 30
0.0
 10
179.802358
 20
70.907770
 30
0.0
 10
179.514356
 20
71.553777
 30
0.0
  0
LWPOLYLINE
  5
115
100
AcDbEntity
  8
Layer_1
 62
7
100
AcDbPolyline
 90
16
 70
0
 10
179.514356
 20
277.695777
 30
0.0
 10
179.514356
 20
278.401779
 30
0.0
 10
179.802358
 20
279.047777
 30
0.0
 10
180.327356
 20
279.520778
 30
0.0
 10
180.999359
 20
279.739777
 30
0.0
 10
181.702357
 20
279.665778
 30
0.0
 10
182.315358
 20
279.311779
 30
0.0
 10
182.730357
 20
278.739776
 30
0.0
 10
182.877358
 20
278.048778
 30
0.0
 10
182.730357
 20
277.357776
 30
0.0
 10
182.315358
 20
276.785777
 30
0.0
 10
181.702357
 20
276.431777
 30
0.0
 10
180.999359
 20
276.357778
 30
0.0
 10
180.327356
 20
276.576777
 30
0.0
 10
179.802358
 20
277.049779
 30
0.0
 10
179.514356
 20
277.695777
 30
0.0
  0
ENDSEC
  0
SECTION
  2
OBJECTS
  0
DICTIONARY
  5
C
330
0
100
AcDbDictionary
  3
ACAD_GROUP
350
D
  3
ACAD_MLINESTYLE
350
17
  0
DICTIONARY
  5
D
330
C
100
AcDbDictionary
  0
DICTIONARY
  5
1A
330
C
100
AcDbDictionary
  0
DICTIONARY
  5
17
330
C
100
AcDbDictionary
  3
STANDARD
350
18
  0
DICTIONARY
  5
19
330
C
100
AcDbDictionary
  0
ENDSEC
  0
EOF
