  0
SECTION
  2
BLOCKS
  0
ENDSEC
  0
SECTION
  2
ENTITIES
  0
LINE
  8
0
 10
-4.55
 20
88.0711
 11
-4.92894
 21
88.0711
  0
LINE
  8
0
 10
-4.92894
 20
88.0711
 11
-4.92894
 21
103.071
  0
LINE
  8
0
 10
-4.92894
 20
103.071
 11
-4.55
 21
103.071
  0
LINE
  8
0
 10
-4.55
 20
103.071
 11
-4.55
 21
128.442
  0
LINE
  8
0
 10
-4.55
 20
128.442
 11
-128.55
 21
128.442
  0
LINE
  8
0
 10
-128.55
 20
128.442
 11
-128.55
 21
19.7703
  0
LINE
  8
0
 10
-128.55
 20
19.7703
 11
-126.91
 21
19.5106
  0
LINE
  8
0
 10
-126.91
 20
19.5106
 11
-124.122
 21
18.0902
  0
LINE
  8
0
 10
-124.122
 20
18.0902
 11
-121.91
 21
15.8778
  0
LINE
  8
0
 10
-121.91
 20
15.8778
 11
-120.489
 21
13.0902
  0
LINE
  8
0
 10
-120.489
 20
13.0902
 11
-120.23
 21
11.45
  0
LINE
  8
0
 10
-120.23
 20
11.45
 11
-4.55
 21
11.45
  0
LINE
  8
0
 10
-4.55
 20
11.45
 11
-4.55
 21
88.0711
  0
LINE
  8
0
 10
-48.6667
 20
103.446
 11
-48.6667
 21
118.446
  0
LINE
  8
0
 10
-48.6667
 20
118.446
 11
-45.7667
 21
118.446
  0
LINE
  8
0
 10
-45.7667
 20
118.446
 11
-45.7667
 21
103.446
  0
LINE
  8
0
 10
-45.7667
 20
103.446
 11
-48.6667
 21
103.446
  0
LINE
  8
0
 10
-94.3333
 20
103.446
 11
-94.3333
 21
118.446
  0
LINE
  8
0
 10
-94.3333
 20
118.446
 11
-91.4333
 21
118.446
  0
LINE
  8
0
 10
-91.4333
 20
118.446
 11
-91.4333
 21
103.446
  0
LINE
  8
0
 10
-91.4333
 20
103.446
 11
-94.3333
 21
103.446
  0
LINE
  8
0
 10
-113.72
 20
111.407
 11
-114.208
 21
111.655
  0
LINE
  8
0
 10
-114.208
 20
111.655
 11
-114.595
 21
112.042
  0
LINE
  8
0
 10
-114.595
 20
112.042
 11
-114.843
 21
112.53
  0
LINE
  8
0
 10
-114.843
 20
112.53
 11
-114.929
 21
113.071
  0
LINE
  8
0
 10
-114.929
 20
113.071
 11
-114.843
 21
113.612
  0
LINE
  8
0
 10
-114.843
 20
113.612
 11
-114.595
 21
114.1
  0
LINE
  8
0
 10
-114.595
 20
114.1
 11
-114.208
 21
114.487
  0
LINE
  8
0
 10
-114.208
 20
114.487
 11
-113.72
 21
114.735
  0
LINE
  8
0
 10
-113.72
 20
114.735
 11
-113.179
 21
114.821
  0
LINE
  8
0
 10
-113.179
 20
114.821
 11
-112.638
 21
114.735
  0
LINE
  8
0
 10
-112.638
 20
114.735
 11
-112.15
 21
114.487
  0
LINE
  8
0
 10
-112.15
 20
114.487
 11
-111.763
 21
114.1
  0
LINE
  8
0
 10
-111.763
 20
114.1
 11
-111.515
 21
113.612
  0
LINE
  8
0
 10
-111.515
 20
113.612
 11
-111.429
 21
113.071
  0
LINE
  8
0
 10
-111.429
 20
113.071
 11
-111.515
 21
112.53
  0
LINE
  8
0
 10
-111.515
 20
112.53
 11
-111.763
 21
112.042
  0
LINE
  8
0
 10
-111.763
 20
112.042
 11
-112.15
 21
111.655
  0
LINE
  8
0
 10
-112.15
 20
111.655
 11
-112.638
 21
111.407
  0
LINE
  8
0
 10
-112.638
 20
111.407
 11
-113.179
 21
111.321
  0
LINE
  8
0
 10
-113.179
 20
111.321
 11
-113.72
 21
111.407
  0
LINE
  8
0
 10
-48.6667
 20
21.4461
 11
-48.6667
 21
36.4461
  0
LINE
  8
0
 10
-48.6667
 20
36.4461
 11
-45.7667
 21
36.4461
  0
LINE
  8
0
 10
-45.7667
 20
36.4461
 11
-45.7667
 21
21.4461
  0
LINE
  8
0
 10
-45.7667
 20
21.4461
 11
-48.6667
 21
21.4461
  0
LINE
  8
0
 10
-94.3333
 20
21.4461
 11
-94.3333
 21
36.4461
  0
LINE
  8
0
 10
-94.3333
 20
36.4461
 11
-91.4333
 21
36.4461
  0
LINE
  8
0
 10
-91.4333
 20
36.4461
 11
-91.4333
 21
21.4461
  0
LINE
  8
0
 10
-91.4333
 20
21.4461
 11
-94.3333
 21
21.4461
  0
LINE
  8
0
 10
-27.4697
 20
25.1567
 11
-27.9576
 21
25.4053
  0
LINE
  8
0
 10
-27.9576
 20
25.4053
 11
-28.3447
 21
25.7924
  0
LINE
  8
0
 10
-28.3447
 20
25.7924
 11
-28.5933
 21
26.2803
  0
LINE
  8
0
 10
-28.5933
 20
26.2803
 11
-28.6789
 21
26.8211
  0
LINE
  8
0
 10
-28.6789
 20
26.8211
 11
-28.5933
 21
27.3618
  0
LINE
  8
0
 10
-28.5933
 20
27.3618
 11
-28.3447
 21
27.8497
  0
LINE
  8
0
 10
-28.3447
 20
27.8497
 11
-27.9576
 21
28.2368
  0
LINE
  8
0
 10
-27.9576
 20
28.2368
 11
-27.4697
 21
28.4854
  0
LINE
  8
0
 10
-27.4697
 20
28.4854
 11
-26.9289
 21
28.5711
  0
LINE
  8
0
 10
-26.9289
 20
28.5711
 11
-26.3882
 21
28.4854
  0
LINE
  8
0
 10
-26.3882
 20
28.4854
 11
-25.9003
 21
28.2368
  0
LINE
  8
0
 10
-25.9003
 20
28.2368
 11
-25.5132
 21
27.8497
  0
LINE
  8
0
 10
-25.5132
 20
27.8497
 11
-25.2646
 21
27.3618
  0
LINE
  8
0
 10
-25.2646
 20
27.3618
 11
-25.1789
 21
26.8211
  0
LINE
  8
0
 10
-25.1789
 20
26.8211
 11
-25.2646
 21
26.2803
  0
LINE
  8
0
 10
-25.2646
 20
26.2803
 11
-25.5132
 21
25.7924
  0
LINE
  8
0
 10
-25.5132
 20
25.7924
 11
-25.9003
 21
25.4053
  0
LINE
  8
0
 10
-25.9003
 20
25.4053
 11
-26.3882
 21
25.1567
  0
LINE
  8
0
 10
-26.3882
 20
25.1567
 11
-26.9289
 21
25.0711
  0
LINE
  8
0
 10
-26.9289
 20
25.0711
 11
-27.4697
 21
25.1567
  0
LINE
  8
0
 10
-109.97
 20
25.1567
 11
-110.458
 21
25.4053
  0
LINE
  8
0
 10
-110.458
 20
25.4053
 11
-110.845
 21
25.7924
  0
LINE
  8
0
 10
-110.845
 20
25.7924
 11
-111.093
 21
26.2803
  0
LINE
  8
0
 10
-111.093
 20
26.2803
 11
-111.179
 21
26.8211
  0
LINE
  8
0
 10
-111.179
 20
26.8211
 11
-111.093
 21
27.3618
  0
LINE
  8
0
 10
-111.093
 20
27.3618
 11
-110.845
 21
27.8497
  0
LINE
  8
0
 10
-110.845
 20
27.8497
 11
-110.458
 21
28.2368
  0
LINE
  8
0
 10
-110.458
 20
28.2368
 11
-109.97
 21
28.4854
  0
LINE
  8
0
 10
-109.97
 20
28.4854
 11
-109.429
 21
28.5711
  0
LINE
  8
0
 10
-109.429
 20
28.5711
 11
-108.888
 21
28.4854
  0
LINE
  8
0
 10
-108.888
 20
28.4854
 11
-108.4
 21
28.2368
  0
LINE
  8
0
 10
-108.4
 20
28.2368
 11
-108.013
 21
27.8497
  0
LINE
  8
0
 10
-108.013
 20
27.8497
 11
-107.765
 21
27.3618
  0
LINE
  8
0
 10
-107.765
 20
27.3618
 11
-107.679
 21
26.8211
  0
LINE
  8
0
 10
-107.679
 20
26.8211
 11
-107.765
 21
26.2803
  0
LINE
  8
0
 10
-107.765
 20
26.2803
 11
-108.013
 21
25.7924
  0
LINE
  8
0
 10
-108.013
 20
25.7924
 11
-108.4
 21
25.4053
  0
LINE
  8
0
 10
-108.4
 20
25.4053
 11
-108.888
 21
25.1567
  0
LINE
  8
0
 10
-108.888
 20
25.1567
 11
-109.429
 21
25.0711
  0
LINE
  8
0
 10
-109.429
 20
25.0711
 11
-109.97
 21
25.1567
  0
ENDSEC
  0
SECTION
  2
OBJECTS
  0
DICTIONARY
  0
ENDSEC
  0
EOF
