  0
SECTION
  2
BLOCKS
  0
ENDSEC
  0
SECTION
  2
ENTITIES
  0
LINE
  8
0
 10
-112.852
 11
-112.852
 20
-105.15
 21
105.15
  0
LINE
  8
0
 10
-112.852
 11
-111.161
 20
105.15
 21
108.949
  0
LINE
  8
0
 10
-111.161
 11
-108.071
 20
108.949
 21
111.731
  0
LINE
  8
0
 10
-108.071
 11
-104.116
 20
111.731
 21
113.016
  0
LINE
  8
0
 10
-104.116
 11
102.026
 20
113.016
 21
113.016
  0
LINE
  8
0
 10
102.026
 11
106.161
 20
113.016
 21
112.582
  0
LINE
  8
0
 10
106.161
 11
109.762
 20
112.582
 21
110.502
  0
LINE
  8
0
 10
109.762
 11
112.206
 20
110.502
 21
107.138
  0
LINE
  8
0
 10
112.206
 11
113.071
 20
107.138
 21
103.071
  0
LINE
  8
0
 10
113.071
 11
113.071
 20
103.071
 21
-103.071
  0
LINE
  8
0
 10
113.071
 11
112.206
 20
-103.071
 21
-107.138
  0
LINE
  8
0
 10
112.206
 11
109.762
 20
-107.138
 21
-110.502
  0
LINE
  8
0
 10
109.762
 11
106.161
 20
-110.502
 21
-112.582
  0
LINE
  8
0
 10
106.161
 11
102.026
 20
-112.582
 21
-113.016
  0
LINE
  8
0
 10
102.026
 11
-104.116
 20
-113.016
 21
-113.016
  0
LINE
  8
0
 10
-104.116
 11
-108.071
 20
-113.016
 21
-111.731
  0
LINE
  8
0
 10
-108.071
 11
-111.161
 20
-111.731
 21
-108.949
  0
LINE
  8
0
 10
-111.161
 11
-112.852
 20
-108.949
 21
-105.15
  0
LINE
  8
0
 10
-104.734
 11
-104.734
 20
-103.424
 21
-102.718
  0
LINE
  8
0
 10
-104.734
 11
-104.446
 20
-102.718
 21
-102.072
  0
LINE
  8
0
 10
-104.446
 11
-103.921
 20
-102.072
 21
-101.599
  0
LINE
  8
0
 10
-103.921
 11
-103.249
 20
-101.599
 21
-101.38
  0
LINE
  8
0
 10
-103.249
 11
-102.546
 20
-101.38
 21
-101.454
  0
LINE
  8
0
 10
-102.546
 11
-101.933
 20
-101.454
 21
-101.808
  0
LINE
  8
0
 10
-101.933
 11
-101.518
 20
-101.808
 21
-102.38
  0
LINE
  8
0
 10
-101.518
 11
-101.371
 20
-102.38
 21
-103.071
  0
LINE
  8
0
 10
-101.371
 11
-101.518
 20
-103.071
 21
-103.762
  0
LINE
  8
0
 10
-101.518
 11
-101.933
 20
-103.762
 21
-104.334
  0
LINE
  8
0
 10
-101.933
 11
-102.546
 20
-104.334
 21
-104.688
  0
LINE
  8
0
 10
-102.546
 11
-103.249
 20
-104.688
 21
-104.762
  0
LINE
  8
0
 10
-103.249
 11
-103.921
 20
-104.762
 21
-104.543
  0
LINE
  8
0
 10
-103.921
 11
-104.446
 20
-104.543
 21
-104.07
  0
LINE
  8
0
 10
-104.446
 11
-104.734
 20
-104.07
 21
-103.424
  0
LINE
  8
0
 10
-104.734
 11
-104.734
 20
102.718
 21
103.424
  0
LINE
  8
0
 10
-104.734
 11
-104.446
 20
103.424
 21
104.07
  0
LINE
  8
0
 10
-104.446
 11
-103.921
 20
104.07
 21
104.543
  0
LINE
  8
0
 10
-103.921
 11
-103.249
 20
104.543
 21
104.762
  0
LINE
  8
0
 10
-103.249
 11
-102.546
 20
104.762
 21
104.688
  0
LINE
  8
0
 10
-102.546
 11
-101.933
 20
104.688
 21
104.334
  0
LINE
  8
0
 10
-101.933
 11
-101.518
 20
104.334
 21
103.762
  0
LINE
  8
0
 10
-101.518
 11
-101.371
 20
103.762
 21
103.071
  0
LINE
  8
0
 10
-101.371
 11
-101.518
 20
103.071
 21
102.38
  0
LINE
  8
0
 10
-101.518
 11
-101.933
 20
102.38
 21
101.808
  0
LINE
  8
0
 10
-101.933
 11
-102.546
 20
101.808
 21
101.454
  0
LINE
  8
0
 10
-102.546
 11
-103.249
 20
101.454
 21
101.38
  0
LINE
  8
0
 10
-103.249
 11
-103.921
 20
101.38
 21
101.599
  0
LINE
  8
0
 10
-103.921
 11
-104.446
 20
101.599
 21
102.072
  0
LINE
  8
0
 10
-104.446
 11
-104.734
 20
102.072
 21
102.718
  0
LINE
  8
0
 10
-96
 11
-96
 20
-96
 21
96
  0
LINE
  8
0
 10
-96
 11
96
 20
96
 21
96
  0
LINE
  8
0
 10
96
 11
96
 20
96
 21
-96
  0
LINE
  8
0
 10
96
 11
-96
 20
-96
 21
-96
  0
LINE
  8
0
 10
101.408
 11
101.408
 20
-103.424
 21
-102.718
  0
LINE
  8
0
 10
101.408
 11
101.696
 20
-102.718
 21
-102.072
  0
LINE
  8
0
 10
101.696
 11
102.221
 20
-102.072
 21
-101.599
  0
LINE
  8
0
 10
102.221
 11
102.893
 20
-101.599
 21
-101.38
  0
LINE
  8
0
 10
102.893
 11
103.596
 20
-101.38
 21
-101.454
  0
LINE
  8
0
 10
103.596
 11
104.209
 20
-101.454
 21
-101.808
  0
LINE
  8
0
 10
104.209
 11
104.624
 20
-101.808
 21
-102.38
  0
LINE
  8
0
 10
104.624
 11
104.771
 20
-102.38
 21
-103.071
  0
LINE
  8
0
 10
104.771
 11
104.624
 20
-103.071
 21
-103.762
  0
LINE
  8
0
 10
104.624
 11
104.209
 20
-103.762
 21
-104.334
  0
LINE
  8
0
 10
104.209
 11
103.596
 20
-104.334
 21
-104.688
  0
LINE
  8
0
 10
103.596
 11
102.893
 20
-104.688
 21
-104.762
  0
LINE
  8
0
 10
102.893
 11
102.221
 20
-104.762
 21
-104.543
  0
LINE
  8
0
 10
102.221
 11
101.696
 20
-104.543
 21
-104.07
  0
LINE
  8
0
 10
101.696
 11
101.408
 20
-104.07
 21
-103.424
  0
LINE
  8
0
 10
101.408
 11
101.408
 20
102.718
 21
103.424
  0
LINE
  8
0
 10
101.408
 11
101.696
 20
103.424
 21
104.07
  0
LINE
  8
0
 10
101.696
 11
102.221
 20
104.07
 21
104.543
  0
LINE
  8
0
 10
102.221
 11
102.893
 20
104.543
 21
104.762
  0
LINE
  8
0
 10
102.893
 11
103.596
 20
104.762
 21
104.688
  0
LINE
  8
0
 10
103.596
 11
104.209
 20
104.688
 21
104.334
  0
LINE
  8
0
 10
104.209
 11
104.624
 20
104.334
 21
103.762
  0
LINE
  8
0
 10
104.624
 11
104.771
 20
103.762
 21
103.071
  0
LINE
  8
0
 10
104.771
 11
104.624
 20
103.071
 21
102.38
  0
LINE
  8
0
 10
104.624
 11
104.209
 20
102.38
 21
101.808
  0
LINE
  8
0
 10
104.209
 11
103.596
 20
101.808
 21
101.454
  0
LINE
  8
0
 10
103.596
 11
102.893
 20
101.454
 21
101.38
  0
LINE
  8
0
 10
102.893
 11
102.221
 20
101.38
 21
101.599
  0
LINE
  8
0
 10
102.221
 11
101.696
 20
101.599
 21
102.072
  0
LINE
  8
0
 10
101.696
 11
101.408
 20
102.072
 21
102.718
  0
ENDSEC
  0
SECTION
  2
OBJECTS
  0
DICTIONARY
  0
ENDSEC
  0
EOF
