  0
SECTION
  2
HEADER
  9
$ACADVER
  1
AC1014
  9
$HANDSEED
  5
FFFF
  9
$MEASUREMENT
 70
     1
  0
ENDSEC
  0
SECTION
  2
TABLES
  0
TABLE
  2
VPORT
  5
8
330
0
100
AcDbSymbolTable
 70
     4
  0
VPORT
  5
2E
330
8
100
AcDbSymbolTableRecord
100
AcDbViewportTableRecord
  2
*ACTIVE
 70
     0
 10
0.0
 20
0.0
 11
1.0
 21
1.0
 12
210.0
 22
148.5
 13
0.0
 23
0.0
 14
10.0
 24
10.0
 15
10.0
 25
10.0
 16
0.0
 26
0.0
 36
1.0
 17
0.0
 27
0.0
 37
0.0
 40
341.0
 41
1.24
 42
50.0
 43
0.0
 44
0.0
 50
0.0
 51
0.0
 71
     0
 72
   100
 73
     1
 74
     3
 75
     0
 76
     0
 77
     0
 78
     0
  0
ENDTAB
  0
TABLE
  2
LTYPE
  5
5
330
0
100
AcDbSymbolTable
 70
     1
  0
LTYPE
  5
14
330
5
100
AcDbSymbolTableRecord
100
AcDbLinetypeTableRecord
  2
BYBLOCK
 70
     0
  3

 72
    65
 73
     0
 40
0.0
  0
LTYPE
  5
15
330
5
100
AcDbSymbolTableRecord
100
AcDbLinetypeTableRecord
  2
BYLAYER
 70
     0
  3

 72
    65
 73
     0
 40
0.0
  0
LTYPE
  5
16
330
5
100
AcDbSymbolTableRecord
100
AcDbLinetypeTableRecord
  2
CONTINUOUS
 70
     0
  3
Solid line
 72
    65
 73
     0
 40
0.0
  0
ENDTAB
  0
TABLE
  2
LAYER
  5
2
100
AcDbSymbolTable
 70
2
  0
LAYER
  5
50
100
AcDbSymbolTableRecord
100
AcDbLayerTableRecord
  2
0
 70
0
  6
CONTINUOUS
  0
LAYER
  5
51
100
AcDbSymbolTableRecord
100
AcDbLayerTableRecord
  2
Layer_1
 70
0
  6
CONTINUOUS
  0
ENDTAB
  0
TABLE
  2
STYLE
  5
3
330
0
100
AcDbSymbolTable
 70
     1
  0
STYLE
  5
11
330
3
100
AcDbSymbolTableRecord
100
AcDbTextStyleTableRecord
  2
STANDARD
 70
     0
 40
0.0
 41
1.0
 50
0.0
 71
     0
 42
2.5
  3
txt
  4

  0
ENDTAB
  0
TABLE
  2
VIEW
  5
6
330
0
100
AcDbSymbolTable
 70
     0
  0
ENDTAB
  0
TABLE
  2
UCS
  5
7
330
0
100
AcDbSymbolTable
 70
     0
  0
ENDTAB
  0
TABLE
  2
APPID
  5
9
330
0
100
AcDbSymbolTable
 70
     2
  0
APPID
  5
12
330
9
100
AcDbSymbolTableRecord
100
AcDbRegAppTableRecord
  2
ACAD
 70
     0
  0
ENDTAB
  0
TABLE
  2
DIMSTYLE
  5
A
330
0
100
AcDbSymbolTable
 70
     1
  0
DIMSTYLE
105
27
330
A
100
AcDbSymbolTableRecord
100
AcDbDimStyleTableRecord
  2
ISO-25
 70
     0
  3

  4

  5

  6

  7

 40
1.0
 41
2.5
 42
0.625
 43
3.75
 44
1.25
 45
0.0
 46
0.0
 47
0.0
 48
0.0
140
2.5
141
2.5
142
0.0
143
0.03937007874016
144
1.0
145
0.0
146
1.0
147
0.625
 71
     0
 72
     0
 73
     0
 74
     0
 75
     0
 76
     0
 77
     1
 78
     8
170
     0
171
     3
172
     1
173
     0
174
     0
175
     0
176
     0
177
     0
178
     0
270
     2
271
     2
272
     2
273
     2
274
     3
340
11
275
     0
280
     0
281
     0
282
     0
283
     0
284
     8
285
     0
286
     0
287
     3
288
     0
  0
ENDTAB
  0
TABLE
  2
BLOCK_RECORD
  5
1
330
0
100
AcDbSymbolTable
 70
     1
  0
BLOCK_RECORD
  5
1F
330
1
100
AcDbSymbolTableRecord
100
AcDbBlockTableRecord
  2
*MODEL_SPACE
  0
BLOCK_RECORD
  5
1B
330
1
100
AcDbSymbolTableRecord
100
AcDbBlockTableRecord
  2
*PAPER_SPACE
  0
ENDTAB
  0
ENDSEC
  0
SECTION
  2
BLOCKS
  0
BLOCK
  5
20
330
1F
100
AcDbEntity
  8
0
100
AcDbBlockBegin
  2
*MODEL_SPACE
 70
     0
 10
0.0
 20
0.0
 30
0.0
  3
*MODEL_SPACE
  1

  0
ENDBLK
  5
21
330
1F
100
AcDbEntity
  8
0
100
AcDbBlockEnd
  0
BLOCK
  5
1C
330
1B
100
AcDbEntity
 67
     1
  8
0
100
AcDbBlockBegin
  2
*PAPER_SPACE
  1

  0
ENDBLK
  5
1D
330
1B
100
AcDbEntity
 67
     1
  8
0
100
AcDbBlockEnd
  0
ENDSEC
  0
SECTION
  2
ENTITIES
  0
LWPOLYLINE
  5
100
100
AcDbEntity
  8
Layer_1
 62
7
100
AcDbPolyline
 90
19
 70
0
 10
-7.329763
 20
47.250013
 30
0.0
 10
-7.329763
 20
257.550001
 30
0.0
 10
-5.638763
 20
261.349000
 30
0.0
 10
-2.548763
 20
264.131000
 30
0.0
 10
1.406237
 20
265.416000
 30
0.0
 10
207.548237
 20
265.416000
 30
0.0
 10
211.683236
 20
264.981999
 30
0.0
 10
215.284236
 20
262.901999
 30
0.0
 10
217.728236
 20
259.538000
 30
0.0
 10
218.593238
 20
255.471000
 30
0.0
 10
218.593238
 20
49.329003
 30
0.0
 10
217.728236
 20
45.262011
 30
0.0
 10
215.284236
 20
41.898007
 30
0.0
 10
211.683236
 20
39.818001
 30
0.0
 10
207.548237
 20
39.384000
 30
0.0
 10
1.406237
 20
39.384000
 30
0.0
 10
-2.548763
 20
40.669014
 30
0.0
 10
-5.638763
 20
43.450991
 30
0.0
 10
-7.329763
 20
47.250013
 30
0.0
  0
LWPOLYLINE
  5
101
100
AcDbEntity
  8
Layer_1
 62
7
100
AcDbPolyline
 90
16
 70
0
 10
0.788238
 20
48.975999
 30
0.0
 10
0.788238
 20
49.682006
 30
0.0
 10
1.076238
 20
50.328013
 30
0.0
 10
1.601236
 20
50.800989
 30
0.0
 10
2.273238
 20
51.019994
 30
0.0
 10
2.976237
 20
50.945995
 30
0.0
 10
3.589237
 20
50.592004
 30
0.0
 10
4.004237
 20
50.019996
 30
0.0
 10
4.151238
 20
49.329003
 30
0.0
 10
4.004237
 20
48.638010
 30
0.0
 10
3.589237
 20
48.066002
 30
0.0
 10
2.976237
 20
47.712010
 30
0.0
 10
2.273238
 20
47.638012
 30
0.0
 10
1.601236
 20
47.856988
 30
0.0
 10
1.076238
 20
48.329992
 30
0.0
 10
0.788238
 20
48.975999
 30
0.0
  0
LWPOLYLINE
  5
102
100
AcDbEntity
  8
Layer_1
 62
7
100
AcDbPolyline
 90
16
 70
0
 10
0.788238
 20
255.117999
 30
0.0
 10
0.788238
 20
255.824001
 30
0.0
 10
1.076238
 20
256.469999
 30
0.0
 10
1.601236
 20
256.943001
 30
0.0
 10
2.273238
 20
257.161999
 30
0.0
 10
2.976237
 20
257.088001
 30
0.0
 10
3.589237
 20
256.734001
 30
0.0
 10
4.004237
 20
256.161999
 30
0.0
 10
4.151238
 20
255.471000
 30
0.0
 10
4.004237
 20
254.779999
 30
0.0
 10
3.589237
 20
254.207999
 30
0.0
 10
2.976237
 20
253.853999
 30
0.0
 10
2.273238
 20
253.780001
 30
0.0
 10
1.601236
 20
253.998999
 30
0.0
 10
1.076238
 20
254.472001
 30
0.0
 10
0.788238
 20
255.117999
 30
0.0
  0
LWPOLYLINE
  5
103
100
AcDbEntity
  8
Layer_1
 62
7
100
AcDbPolyline
 90
5
 70
0
 10
9.522237
 20
56.399996
 30
0.0
 10
9.522237
 20
248.400001
 30
0.0
 10
201.522237
 20
248.400001
 30
0.0
 10
201.522237
 20
56.399996
 30
0.0
 10
9.522237
 20
56.399996
 30
0.0
  0
LWPOLYLINE
  5
104
100
AcDbEntity
  8
Layer_1
 62
7
100
AcDbPolyline
 90
16
 70
0
 10
206.930236
 20
48.975999
 30
0.0
 10
206.930236
 20
49.682006
 30
0.0
 10
207.218238
 20
50.328013
 30
0.0
 10
207.743236
 20
50.800989
 30
0.0
 10
208.415238
 20
51.019994
 30
0.0
 10
209.118237
 20
50.945995
 30
0.0
 10
209.731237
 20
50.592004
 30
0.0
 10
210.146237
 20
50.019996
 30
0.0
 10
210.293238
 20
49.329003
 30
0.0
 10
210.146237
 20
48.638010
 30
0.0
 10
209.731237
 20
48.066002
 30
0.0
 10
209.118237
 20
47.712010
 30
0.0
 10
208.415238
 20
47.638012
 30
0.0
 10
207.743236
 20
47.856988
 30
0.0
 10
207.218238
 20
48.329992
 30
0.0
 10
206.930236
 20
48.975999
 30
0.0
  0
LWPOLYLINE
  5
105
100
AcDbEntity
  8
Layer_1
 62
7
100
AcDbPolyline
 90
16
 70
0
 10
206.930236
 20
255.117999
 30
0.0
 10
206.930236
 20
255.824001
 30
0.0
 10
207.218238
 20
256.469999
 30
0.0
 10
207.743236
 20
256.943001
 30
0.0
 10
208.415238
 20
257.161999
 30
0.0
 10
209.118237
 20
257.088001
 30
0.0
 10
209.731237
 20
256.734001
 30
0.0
 10
210.146237
 20
256.161999
 30
0.0
 10
210.293238
 20
255.471000
 30
0.0
 10
210.146237
 20
254.779999
 30
0.0
 10
209.731237
 20
254.207999
 30
0.0
 10
209.118237
 20
253.853999
 30
0.0
 10
208.415238
 20
253.780001
 30
0.0
 10
207.743236
 20
253.998999
 30
0.0
 10
207.218238
 20
254.472001
 30
0.0
 10
206.930236
 20
255.117999
 30
0.0
  0
ENDSEC
  0
SECTION
  2
OBJECTS
  0
DICTIONARY
  5
C
330
0
100
AcDbDictionary
  3
ACAD_GROUP
350
D
  3
ACAD_MLINESTYLE
350
17
  0
DICTIONARY
  5
D
330
C
100
AcDbDictionary
  0
DICTIONARY
  5
1A
330
C
100
AcDbDictionary
  0
DICTIONARY
  5
17
330
C
100
AcDbDictionary
  3
STANDARD
350
18
  0
DICTIONARY
  5
19
330
C
100
AcDbDictionary
  0
ENDSEC
  0
EOF
