  0
SECTION
  2
BLOCKS
  0
ENDSEC
  0
SECTION
  2
ENTITIES
  0
LINE
  8
0
 10
219.232
 20
0.489426
 11
222.02
 21
1.90982
  0
LINE
  8
0
 10
222.02
 20
1.90982
 11
224.232
 21
4.12215
  0
LINE
  8
0
 10
224.232
 20
4.12215
 11
225.653
 21
6.90982
  0
LINE
  8
0
 10
225.653
 20
6.90982
 11
226.142
 21
10
  0
LINE
  8
0
 10
226.142
 20
10
 11
226.142
 21
216.142
  0
LINE
  8
0
 10
226.142
 20
216.142
 11
225.653
 21
219.232
  0
LINE
  8
0
 10
225.653
 20
219.232
 11
224.232
 21
222.02
  0
LINE
  8
0
 10
224.232
 20
222.02
 11
222.02
 21
224.232
  0
LINE
  8
0
 10
222.02
 20
224.232
 11
219.232
 21
225.653
  0
LINE
  8
0
 10
219.232
 20
225.653
 11
216.142
 21
226.142
  0
LINE
  8
0
 10
216.142
 20
226.142
 11
10
 21
226.142
  0
LINE
  8
0
 10
10
 20
226.142
 11
6.90982
 21
225.653
  0
LINE
  8
0
 10
6.90982
 20
225.653
 11
4.12215
 21
224.232
  0
LINE
  8
0
 10
4.12215
 20
224.232
 11
1.90982
 21
222.02
  0
LINE
  8
0
 10
1.90982
 20
222.02
 11
0.489426
 21
219.232
  0
LINE
  8
0
 10
0.489426
 20
219.232
 11
0
 21
216.142
  0
LINE
  8
0
 10
0
 20
216.142
 11
0
 21
10
  0
LINE
  8
0
 10
0
 20
10
 11
0.489426
 21
6.90982
  0
LINE
  8
0
 10
0.489426
 20
6.90982
 11
1.90982
 21
4.12215
  0
LINE
  8
0
 10
1.90982
 20
4.12215
 11
4.12215
 21
1.90982
  0
LINE
  8
0
 10
4.12215
 20
1.90982
 11
6.90982
 21
0.489426
  0
LINE
  8
0
 10
6.90982
 20
0.489426
 11
9.99998
 21
0
  0
LINE
  8
0
 10
9.99998
 20
0
 11
216.142
 21
0
  0
LINE
  8
0
 10
216.142
 20
0
 11
219.232
 21
0.489426
  0
LINE
  8
0
 10
215.648
 20
214.62
 11
215.202
 21
214.848
  0
LINE
  8
0
 10
215.202
 20
214.848
 11
214.848
 21
215.202
  0
LINE
  8
0
 10
214.848
 20
215.202
 11
214.62
 21
215.648
  0
LINE
  8
0
 10
214.62
 20
215.648
 11
214.542
 21
216.142
  0
LINE
  8
0
 10
214.542
 20
216.142
 11
214.62
 21
216.637
  0
LINE
  8
0
 10
214.62
 20
216.637
 11
214.848
 21
217.083
  0
LINE
  8
0
 10
214.848
 20
217.083
 11
215.202
 21
217.437
  0
LINE
  8
0
 10
215.202
 20
217.437
 11
215.648
 21
217.664
  0
LINE
  8
0
 10
215.648
 20
217.664
 11
216.142
 21
217.742
  0
LINE
  8
0
 10
216.142
 20
217.742
 11
216.637
 21
217.664
  0
LINE
  8
0
 10
216.637
 20
217.664
 11
217.083
 21
217.437
  0
LINE
  8
0
 10
217.083
 20
217.437
 11
217.437
 21
217.083
  0
LINE
  8
0
 10
217.437
 20
217.083
 11
217.664
 21
216.637
  0
LINE
  8
0
 10
217.664
 20
216.637
 11
217.742
 21
216.142
  0
LINE
  8
0
 10
217.742
 20
216.142
 11
217.664
 21
215.648
  0
LINE
  8
0
 10
217.664
 20
215.648
 11
217.437
 21
215.202
  0
LINE
  8
0
 10
217.437
 20
215.202
 11
217.083
 21
214.848
  0
LINE
  8
0
 10
217.083
 20
214.848
 11
216.637
 21
214.62
  0
LINE
  8
0
 10
216.637
 20
214.62
 11
216.142
 21
214.542
  0
LINE
  8
0
 10
216.142
 20
214.542
 11
215.648
 21
214.62
  0
LINE
  8
0
 10
9.50557
 20
214.62
 11
9.05954
 21
214.848
  0
LINE
  8
0
 10
9.05954
 20
214.848
 11
8.70557
 21
215.202
  0
LINE
  8
0
 10
8.70557
 20
215.202
 11
8.4783
 21
215.648
  0
LINE
  8
0
 10
8.4783
 20
215.648
 11
8.39999
 21
216.142
  0
LINE
  8
0
 10
8.39999
 20
216.142
 11
8.4783
 21
216.637
  0
LINE
  8
0
 10
8.4783
 20
216.637
 11
8.70557
 21
217.083
  0
LINE
  8
0
 10
8.70557
 20
217.083
 11
9.05954
 21
217.437
  0
LINE
  8
0
 10
9.05954
 20
217.437
 11
9.50557
 21
217.664
  0
LINE
  8
0
 10
9.50557
 20
217.664
 11
10
 21
217.742
  0
LINE
  8
0
 10
10
 20
217.742
 11
10.4944
 21
217.664
  0
LINE
  8
0
 10
10.4944
 20
217.664
 11
10.9404
 21
217.437
  0
LINE
  8
0
 10
10.9404
 20
217.437
 11
11.2944
 21
217.083
  0
LINE
  8
0
 10
11.2944
 20
217.083
 11
11.5217
 21
216.637
  0
LINE
  8
0
 10
11.5217
 20
216.637
 11
11.6
 21
216.142
  0
LINE
  8
0
 10
11.6
 20
216.142
 11
11.5217
 21
215.648
  0
LINE
  8
0
 10
11.5217
 20
215.648
 11
11.2944
 21
215.202
  0
LINE
  8
0
 10
11.2944
 20
215.202
 11
10.9404
 21
214.848
  0
LINE
  8
0
 10
10.9404
 20
214.848
 11
10.4944
 21
214.62
  0
LINE
  8
0
 10
10.4944
 20
214.62
 11
10
 21
214.542
  0
LINE
  8
0
 10
10
 20
214.542
 11
9.50557
 21
214.62
  0
LINE
  8
0
 10
43.0203
 20
214.592
 11
43.0203
 21
217.692
  0
LINE
  8
0
 10
43.0203
 20
217.692
 11
71.0406
 21
217.692
  0
LINE
  8
0
 10
71.0406
 20
217.692
 11
71.0406
 21
214.592
  0
LINE
  8
0
 10
71.0406
 20
214.592
 11
43.0203
 21
214.592
  0
LINE
  8
0
 10
99.0609
 20
214.592
 11
99.0609
 21
217.692
  0
LINE
  8
0
 10
99.0609
 20
217.692
 11
127.081
 21
217.692
  0
LINE
  8
0
 10
127.081
 20
217.692
 11
127.081
 21
214.592
  0
LINE
  8
0
 10
127.081
 20
214.592
 11
99.0609
 21
214.592
  0
LINE
  8
0
 10
155.102
 20
214.592
 11
155.102
 21
217.692
  0
LINE
  8
0
 10
155.102
 20
217.692
 11
183.122
 21
217.692
  0
LINE
  8
0
 10
183.122
 20
217.692
 11
183.122
 21
214.592
  0
LINE
  8
0
 10
183.122
 20
214.592
 11
155.102
 21
214.592
  0
LINE
  8
0
 10
214.592
 20
155.102
 11
214.592
 21
183.122
  0
LINE
  8
0
 10
214.592
 20
183.122
 11
217.692
 21
183.122
  0
LINE
  8
0
 10
217.692
 20
183.122
 11
217.692
 21
155.102
  0
LINE
  8
0
 10
217.692
 20
155.102
 11
214.592
 21
155.102
  0
LINE
  8
0
 10
8.45
 20
155.102
 11
8.45
 21
183.122
  0
LINE
  8
0
 10
8.45
 20
183.122
 11
11.55
 21
183.122
  0
LINE
  8
0
 10
11.55
 20
183.122
 11
11.55
 21
155.102
  0
LINE
  8
0
 10
11.55
 20
155.102
 11
8.45
 21
155.102
  0
LINE
  8
0
 10
214.592
 20
99.0609
 11
214.592
 21
127.081
  0
LINE
  8
0
 10
214.592
 20
127.081
 11
217.692
 21
127.081
  0
LINE
  8
0
 10
217.692
 20
127.081
 11
217.692
 21
99.0609
  0
LINE
  8
0
 10
217.692
 20
99.0609
 11
214.592
 21
99.0609
  0
LINE
  8
0
 10
8.45
 20
99.0609
 11
8.45
 21
127.081
  0
LINE
  8
0
 10
8.45
 20
127.081
 11
11.55
 21
127.081
  0
LINE
  8
0
 10
11.55
 20
127.081
 11
11.55
 21
99.0609
  0
LINE
  8
0
 10
11.55
 20
99.0609
 11
8.45
 21
99.0609
  0
LINE
  8
0
 10
214.592
 20
43.0203
 11
214.592
 21
71.0406
  0
LINE
  8
0
 10
214.592
 20
71.0406
 11
217.692
 21
71.0406
  0
LINE
  8
0
 10
217.692
 20
71.0406
 11
217.692
 21
43.0203
  0
LINE
  8
0
 10
217.692
 20
43.0203
 11
214.592
 21
43.0203
  0
LINE
  8
0
 10
8.45
 20
43.0203
 11
8.45
 21
71.0406
  0
LINE
  8
0
 10
8.45
 20
71.0406
 11
11.55
 21
71.0406
  0
LINE
  8
0
 10
11.55
 20
71.0406
 11
11.55
 21
43.0203
  0
LINE
  8
0
 10
11.55
 20
43.0203
 11
8.45
 21
43.0203
  0
LINE
  8
0
 10
9.50557
 20
8.4783
 11
9.05954
 21
8.70557
  0
LINE
  8
0
 10
9.05954
 20
8.70557
 11
8.70557
 21
9.05954
  0
LINE
  8
0
 10
8.70557
 20
9.05954
 11
8.4783
 21
9.50557
  0
LINE
  8
0
 10
8.4783
 20
9.50557
 11
8.39999
 21
10
  0
LINE
  8
0
 10
8.39999
 20
10
 11
8.4783
 21
10.4944
  0
LINE
  8
0
 10
8.4783
 20
10.4944
 11
8.70557
 21
10.9404
  0
LINE
  8
0
 10
8.70557
 20
10.9404
 11
9.05954
 21
11.2944
  0
LINE
  8
0
 10
9.05954
 20
11.2944
 11
9.50557
 21
11.5217
  0
LINE
  8
0
 10
9.50557
 20
11.5217
 11
10
 21
11.6
  0
LINE
  8
0
 10
10
 20
11.6
 11
10.4944
 21
11.5217
  0
LINE
  8
0
 10
10.4944
 20
11.5217
 11
10.9404
 21
11.2944
  0
LINE
  8
0
 10
10.9404
 20
11.2944
 11
11.2944
 21
10.9404
  0
LINE
  8
0
 10
11.2944
 20
10.9404
 11
11.5217
 21
10.4944
  0
LINE
  8
0
 10
11.5217
 20
10.4944
 11
11.6
 21
10
  0
LINE
  8
0
 10
11.6
 20
10
 11
11.5217
 21
9.50557
  0
LINE
  8
0
 10
11.5217
 20
9.50557
 11
11.2944
 21
9.05954
  0
LINE
  8
0
 10
11.2944
 20
9.05954
 11
10.9404
 21
8.70557
  0
LINE
  8
0
 10
10.9404
 20
8.70557
 11
10.4944
 21
8.4783
  0
LINE
  8
0
 10
10.4944
 20
8.4783
 11
10
 21
8.39999
  0
LINE
  8
0
 10
10
 20
8.39999
 11
9.50557
 21
8.4783
  0
LINE
  8
0
 10
215.648
 20
8.4783
 11
215.202
 21
8.70557
  0
LINE
  8
0
 10
215.202
 20
8.70557
 11
214.848
 21
9.05954
  0
LINE
  8
0
 10
214.848
 20
9.05954
 11
214.62
 21
9.50557
  0
LINE
  8
0
 10
214.62
 20
9.50557
 11
214.542
 21
10
  0
LINE
  8
0
 10
214.542
 20
10
 11
214.62
 21
10.4944
  0
LINE
  8
0
 10
214.62
 20
10.4944
 11
214.848
 21
10.9404
  0
LINE
  8
0
 10
214.848
 20
10.9404
 11
215.202
 21
11.2944
  0
LINE
  8
0
 10
215.202
 20
11.2944
 11
215.648
 21
11.5217
  0
LINE
  8
0
 10
215.648
 20
11.5217
 11
216.142
 21
11.6
  0
LINE
  8
0
 10
216.142
 20
11.6
 11
216.637
 21
11.5217
  0
LINE
  8
0
 10
216.637
 20
11.5217
 11
217.083
 21
11.2944
  0
LINE
  8
0
 10
217.083
 20
11.2944
 11
217.437
 21
10.9404
  0
LINE
  8
0
 10
217.437
 20
10.9404
 11
217.664
 21
10.4944
  0
LINE
  8
0
 10
217.664
 20
10.4944
 11
217.742
 21
10
  0
LINE
  8
0
 10
217.742
 20
10
 11
217.664
 21
9.50557
  0
LINE
  8
0
 10
217.664
 20
9.50557
 11
217.437
 21
9.05954
  0
LINE
  8
0
 10
217.437
 20
9.05954
 11
217.083
 21
8.70557
  0
LINE
  8
0
 10
217.083
 20
8.70557
 11
216.637
 21
8.4783
  0
LINE
  8
0
 10
216.637
 20
8.4783
 11
216.142
 21
8.39999
  0
LINE
  8
0
 10
216.142
 20
8.39999
 11
215.648
 21
8.4783
  0
LINE
  8
0
 10
155.102
 20
8.45
 11
155.102
 21
11.55
  0
LINE
  8
0
 10
155.102
 20
11.55
 11
183.122
 21
11.55
  0
LINE
  8
0
 10
183.122
 20
11.55
 11
183.122
 21
8.45
  0
LINE
  8
0
 10
183.122
 20
8.45
 11
155.102
 21
8.45
  0
LINE
  8
0
 10
99.0609
 20
8.45
 11
99.0609
 21
11.55
  0
LINE
  8
0
 10
99.0609
 20
11.55
 11
127.081
 21
11.55
  0
LINE
  8
0
 10
127.081
 20
11.55
 11
127.081
 21
8.45
  0
LINE
  8
0
 10
127.081
 20
8.45
 11
99.0609
 21
8.45
  0
LINE
  8
0
 10
43.0203
 20
8.45
 11
43.0203
 21
11.55
  0
LINE
  8
0
 10
43.0203
 20
11.55
 11
71.0406
 21
11.55
  0
LINE
  8
0
 10
71.0406
 20
11.55
 11
71.0406
 21
8.45
  0
LINE
  8
0
 10
71.0406
 20
8.45
 11
43.0203
 21
8.45
  0
ENDSEC
  0
SECTION
  2
OBJECTS
  0
DICTIONARY
  0
ENDSEC
  0
EOF
