  0
SECTION
  2
BLOCKS
  0
ENDSEC
  0
SECTION
  2
ENTITIES
  0
LINE
  8
0
 10
219.232
 20
0.489426
 11
222.02
 21
1.90982
  0
LINE
  8
0
 10
222.02
 20
1.90982
 11
224.232
 21
4.12215
  0
LINE
  8
0
 10
224.232
 20
4.12215
 11
225.653
 21
6.90982
  0
LINE
  8
0
 10
225.653
 20
6.90982
 11
226.142
 21
10
  0
LINE
  8
0
 10
226.142
 20
10
 11
226.142
 21
216.142
  0
LINE
  8
0
 10
226.142
 20
216.142
 11
225.653
 21
219.232
  0
LINE
  8
0
 10
225.653
 20
219.232
 11
224.232
 21
222.02
  0
LINE
  8
0
 10
224.232
 20
222.02
 11
222.02
 21
224.232
  0
LINE
  8
0
 10
222.02
 20
224.232
 11
219.232
 21
225.653
  0
LINE
  8
0
 10
219.232
 20
225.653
 11
216.142
 21
226.142
  0
LINE
  8
0
 10
216.142
 20
226.142
 11
10
 21
226.142
  0
LINE
  8
0
 10
10
 20
226.142
 11
6.90982
 21
225.653
  0
LINE
  8
0
 10
6.90982
 20
225.653
 11
4.12215
 21
224.232
  0
LINE
  8
0
 10
4.12215
 20
224.232
 11
1.90982
 21
222.02
  0
LINE
  8
0
 10
1.90982
 20
222.02
 11
0.489426
 21
219.232
  0
LINE
  8
0
 10
0.489426
 20
219.232
 11
0
 21
216.142
  0
LINE
  8
0
 10
0
 20
216.142
 11
0
 21
10
  0
LINE
  8
0
 10
0
 20
10
 11
0.489426
 21
6.90982
  0
LINE
  8
0
 10
0.489426
 20
6.90982
 11
1.90982
 21
4.12215
  0
LINE
  8
0
 10
1.90982
 20
4.12215
 11
4.12215
 21
1.90982
  0
LINE
  8
0
 10
4.12215
 20
1.90982
 11
6.90982
 21
0.489426
  0
LINE
  8
0
 10
6.90982
 20
0.489426
 11
9.99998
 21
0
  0
LINE
  8
0
 10
9.99998
 20
0
 11
216.142
 21
0
  0
LINE
  8
0
 10
216.142
 20
0
 11
219.232
 21
0.489426
  0
LINE
  8
0
 10
215.648
 20
214.62
 11
215.202
 21
214.848
  0
LINE
  8
0
 10
215.202
 20
214.848
 11
214.848
 21
215.202
  0
LINE
  8
0
 10
214.848
 20
215.202
 11
214.62
 21
215.648
  0
LINE
  8
0
 10
214.62
 20
215.648
 11
214.542
 21
216.142
  0
LINE
  8
0
 10
214.542
 20
216.142
 11
214.62
 21
216.637
  0
LINE
  8
0
 10
214.62
 20
216.637
 11
214.848
 21
217.083
  0
LINE
  8
0
 10
214.848
 20
217.083
 11
215.202
 21
217.437
  0
LINE
  8
0
 10
215.202
 20
217.437
 11
215.648
 21
217.664
  0
LINE
  8
0
 10
215.648
 20
217.664
 11
216.142
 21
217.742
  0
LINE
  8
0
 10
216.142
 20
217.742
 11
216.637
 21
217.664
  0
LINE
  8
0
 10
216.637
 20
217.664
 11
217.083
 21
217.437
  0
LINE
  8
0
 10
217.083
 20
217.437
 11
217.437
 21
217.083
  0
LINE
  8
0
 10
217.437
 20
217.083
 11
217.664
 21
216.637
  0
LINE
  8
0
 10
217.664
 20
216.637
 11
217.742
 21
216.142
  0
LINE
  8
0
 10
217.742
 20
216.142
 11
217.664
 21
215.648
  0
LINE
  8
0
 10
217.664
 20
215.648
 11
217.437
 21
215.202
  0
LINE
  8
0
 10
217.437
 20
215.202
 11
217.083
 21
214.848
  0
LINE
  8
0
 10
217.083
 20
214.848
 11
216.637
 21
214.62
  0
LINE
  8
0
 10
216.637
 20
214.62
 11
216.142
 21
214.542
  0
LINE
  8
0
 10
216.142
 20
214.542
 11
215.648
 21
214.62
  0
LINE
  8
0
 10
9.50557
 20
214.62
 11
9.05954
 21
214.848
  0
LINE
  8
0
 10
9.05954
 20
214.848
 11
8.70557
 21
215.202
  0
LINE
  8
0
 10
8.70557
 20
215.202
 11
8.4783
 21
215.648
  0
LINE
  8
0
 10
8.4783
 20
215.648
 11
8.39999
 21
216.142
  0
LINE
  8
0
 10
8.39999
 20
216.142
 11
8.4783
 21
216.637
  0
LINE
  8
0
 10
8.4783
 20
216.637
 11
8.70557
 21
217.083
  0
LINE
  8
0
 10
8.70557
 20
217.083
 11
9.05954
 21
217.437
  0
LINE
  8
0
 10
9.05954
 20
217.437
 11
9.50557
 21
217.664
  0
LINE
  8
0
 10
9.50557
 20
217.664
 11
10
 21
217.742
  0
LINE
  8
0
 10
10
 20
217.742
 11
10.4944
 21
217.664
  0
LINE
  8
0
 10
10.4944
 20
217.664
 11
10.9404
 21
217.437
  0
LINE
  8
0
 10
10.9404
 20
217.437
 11
11.2944
 21
217.083
  0
LINE
  8
0
 10
11.2944
 20
217.083
 11
11.5217
 21
216.637
  0
LINE
  8
0
 10
11.5217
 20
216.637
 11
11.6
 21
216.142
  0
LINE
  8
0
 10
11.6
 20
216.142
 11
11.5217
 21
215.648
  0
LINE
  8
0
 10
11.5217
 20
215.648
 11
11.2944
 21
215.202
  0
LINE
  8
0
 10
11.2944
 20
215.202
 11
10.9404
 21
214.848
  0
LINE
  8
0
 10
10.9404
 20
214.848
 11
10.4944
 21
214.62
  0
LINE
  8
0
 10
10.4944
 20
214.62
 11
10
 21
214.542
  0
LINE
  8
0
 10
10
 20
214.542
 11
9.50557
 21
214.62
  0
LINE
  8
0
 10
43.0203
 20
214.592
 11
43.0203
 21
217.692
  0
LINE
  8
0
 10
43.0203
 20
217.692
 11
71.0406
 21
217.692
  0
LINE
  8
0
 10
71.0406
 20
217.692
 11
71.0406
 21
214.592
  0
LINE
  8
0
 10
71.0406
 20
214.592
 11
43.0203
 21
214.592
  0
LINE
  8
0
 10
99.0609
 20
214.592
 11
99.0609
 21
217.692
  0
LINE
  8
0
 10
99.0609
 20
217.692
 11
127.081
 21
217.692
  0
LINE
  8
0
 10
127.081
 20
217.692
 11
127.081
 21
214.592
  0
LINE
  8
0
 10
127.081
 20
214.592
 11
99.0609
 21
214.592
  0
LINE
  8
0
 10
155.102
 20
214.592
 11
155.102
 21
217.692
  0
LINE
  8
0
 10
155.102
 20
217.692
 11
183.122
 21
217.692
  0
LINE
  8
0
 10
183.122
 20
217.692
 11
183.122
 21
214.592
  0
LINE
  8
0
 10
183.122
 20
214.592
 11
155.102
 21
214.592
  0
LINE
  8
0
 10
195.03
 20
197.657
 11
194.542
 21
197.905
  0
LINE
  8
0
 10
194.542
 20
197.905
 11
194.155
 21
198.292
  0
LINE
  8
0
 10
194.155
 20
198.292
 11
193.907
 21
198.78
  0
LINE
  8
0
 10
193.907
 20
198.78
 11
193.821
 21
199.321
  0
LINE
  8
0
 10
193.821
 20
199.321
 11
193.907
 21
199.862
  0
LINE
  8
0
 10
193.907
 20
199.862
 11
194.155
 21
200.35
  0
LINE
  8
0
 10
194.155
 20
200.35
 11
194.542
 21
200.737
  0
LINE
  8
0
 10
194.542
 20
200.737
 11
195.03
 21
200.985
  0
LINE
  8
0
 10
195.03
 20
200.985
 11
195.571
 21
201.071
  0
LINE
  8
0
 10
195.571
 20
201.071
 11
196.112
 21
200.985
  0
LINE
  8
0
 10
196.112
 20
200.985
 11
196.6
 21
200.737
  0
LINE
  8
0
 10
196.6
 20
200.737
 11
196.987
 21
200.35
  0
LINE
  8
0
 10
196.987
 20
200.35
 11
197.235
 21
199.862
  0
LINE
  8
0
 10
197.235
 20
199.862
 11
197.321
 21
199.321
  0
LINE
  8
0
 10
197.321
 20
199.321
 11
197.235
 21
198.78
  0
LINE
  8
0
 10
197.235
 20
198.78
 11
196.987
 21
198.292
  0
LINE
  8
0
 10
196.987
 20
198.292
 11
196.6
 21
197.905
  0
LINE
  8
0
 10
196.6
 20
197.905
 11
196.112
 21
197.657
  0
LINE
  8
0
 10
196.112
 20
197.657
 11
195.571
 21
197.571
  0
LINE
  8
0
 10
195.571
 20
197.571
 11
195.03
 21
197.657
  0
LINE
  8
0
 10
30.0303
 20
197.657
 11
29.5424
 21
197.905
  0
LINE
  8
0
 10
29.5424
 20
197.905
 11
29.1553
 21
198.292
  0
LINE
  8
0
 10
29.1553
 20
198.292
 11
28.9067
 21
198.78
  0
LINE
  8
0
 10
28.9067
 20
198.78
 11
28.8211
 21
199.321
  0
LINE
  8
0
 10
28.8211
 20
199.321
 11
28.9067
 21
199.862
  0
LINE
  8
0
 10
28.9067
 20
199.862
 11
29.1553
 21
200.35
  0
LINE
  8
0
 10
29.1553
 20
200.35
 11
29.5424
 21
200.737
  0
LINE
  8
0
 10
29.5424
 20
200.737
 11
30.0303
 21
200.985
  0
LINE
  8
0
 10
30.0303
 20
200.985
 11
30.5711
 21
201.071
  0
LINE
  8
0
 10
30.5711
 20
201.071
 11
31.1118
 21
200.985
  0
LINE
  8
0
 10
31.1118
 20
200.985
 11
31.5997
 21
200.737
  0
LINE
  8
0
 10
31.5997
 20
200.737
 11
31.9868
 21
200.35
  0
LINE
  8
0
 10
31.9868
 20
200.35
 11
32.2354
 21
199.862
  0
LINE
  8
0
 10
32.2354
 20
199.862
 11
32.3211
 21
199.321
  0
LINE
  8
0
 10
32.3211
 20
199.321
 11
32.2354
 21
198.78
  0
LINE
  8
0
 10
32.2354
 20
198.78
 11
31.9868
 21
198.292
  0
LINE
  8
0
 10
31.9868
 20
198.292
 11
31.5997
 21
197.905
  0
LINE
  8
0
 10
31.5997
 20
197.905
 11
31.1118
 21
197.657
  0
LINE
  8
0
 10
31.1118
 20
197.657
 11
30.5711
 21
197.571
  0
LINE
  8
0
 10
30.5711
 20
197.571
 11
30.0303
 21
197.657
  0
LINE
  8
0
 10
112.53
 20
197.657
 11
112.042
 21
197.905
  0
LINE
  8
0
 10
112.042
 20
197.905
 11
111.655
 21
198.292
  0
LINE
  8
0
 10
111.655
 20
198.292
 11
111.407
 21
198.78
  0
LINE
  8
0
 10
111.407
 20
198.78
 11
111.321
 21
199.321
  0
LINE
  8
0
 10
111.321
 20
199.321
 11
111.407
 21
199.862
  0
LINE
  8
0
 10
111.407
 20
199.862
 11
111.655
 21
200.35
  0
LINE
  8
0
 10
111.655
 20
200.35
 11
112.042
 21
200.737
  0
LINE
  8
0
 10
112.042
 20
200.737
 11
112.53
 21
200.985
  0
LINE
  8
0
 10
112.53
 20
200.985
 11
113.071
 21
201.071
  0
LINE
  8
0
 10
113.071
 20
201.071
 11
113.612
 21
200.985
  0
LINE
  8
0
 10
113.612
 20
200.985
 11
114.1
 21
200.737
  0
LINE
  8
0
 10
114.1
 20
200.737
 11
114.487
 21
200.35
  0
LINE
  8
0
 10
114.487
 20
200.35
 11
114.735
 21
199.862
  0
LINE
  8
0
 10
114.735
 20
199.862
 11
114.821
 21
199.321
  0
LINE
  8
0
 10
114.821
 20
199.321
 11
114.735
 21
198.78
  0
LINE
  8
0
 10
114.735
 20
198.78
 11
114.487
 21
198.292
  0
LINE
  8
0
 10
114.487
 20
198.292
 11
114.1
 21
197.905
  0
LINE
  8
0
 10
114.1
 20
197.905
 11
113.612
 21
197.657
  0
LINE
  8
0
 10
113.612
 20
197.657
 11
113.071
 21
197.571
  0
LINE
  8
0
 10
113.071
 20
197.571
 11
112.53
 21
197.657
  0
LINE
  8
0
 10
24.5303
 20
189.407
 11
24.0424
 21
189.655
  0
LINE
  8
0
 10
24.0424
 20
189.655
 11
23.6553
 21
190.042
  0
LINE
  8
0
 10
23.6553
 20
190.042
 11
23.4067
 21
190.53
  0
LINE
  8
0
 10
23.4067
 20
190.53
 11
23.3211
 21
191.071
  0
LINE
  8
0
 10
23.3211
 20
191.071
 11
23.4067
 21
191.612
  0
LINE
  8
0
 10
23.4067
 20
191.612
 11
23.6553
 21
192.1
  0
LINE
  8
0
 10
23.6553
 20
192.1
 11
24.0424
 21
192.487
  0
LINE
  8
0
 10
24.0424
 20
192.487
 11
24.5303
 21
192.735
  0
LINE
  8
0
 10
24.5303
 20
192.735
 11
25.0711
 21
192.821
  0
LINE
  8
0
 10
25.0711
 20
192.821
 11
25.6118
 21
192.735
  0
LINE
  8
0
 10
25.6118
 20
192.735
 11
26.0997
 21
192.487
  0
LINE
  8
0
 10
26.0997
 20
192.487
 11
26.4868
 21
192.1
  0
LINE
  8
0
 10
26.4868
 20
192.1
 11
26.7354
 21
191.612
  0
LINE
  8
0
 10
26.7354
 20
191.612
 11
26.8211
 21
191.071
  0
LINE
  8
0
 10
26.8211
 20
191.071
 11
26.7354
 21
190.53
  0
LINE
  8
0
 10
26.7354
 20
190.53
 11
26.4868
 21
190.042
  0
LINE
  8
0
 10
26.4868
 20
190.042
 11
26.0997
 21
189.655
  0
LINE
  8
0
 10
26.0997
 20
189.655
 11
25.6118
 21
189.407
  0
LINE
  8
0
 10
25.6118
 20
189.407
 11
25.0711
 21
189.321
  0
LINE
  8
0
 10
25.0711
 20
189.321
 11
24.5303
 21
189.407
  0
LINE
  8
0
 10
190.667
 20
184.263
 11
190.284
 21
184.459
  0
LINE
  8
0
 10
190.284
 20
184.459
 11
189.98
 21
184.763
  0
LINE
  8
0
 10
189.98
 20
184.763
 11
189.784
 21
185.146
  0
LINE
  8
0
 10
189.784
 20
185.146
 11
189.717
 21
185.571
  0
LINE
  8
0
 10
189.717
 20
185.571
 11
189.784
 21
185.996
  0
LINE
  8
0
 10
189.784
 20
185.996
 11
189.98
 21
186.379
  0
LINE
  8
0
 10
189.98
 20
186.379
 11
190.284
 21
186.683
  0
LINE
  8
0
 10
190.284
 20
186.683
 11
190.667
 21
186.879
  0
LINE
  8
0
 10
190.667
 20
186.879
 11
191.092
 21
186.946
  0
LINE
  8
0
 10
191.092
 20
186.946
 11
191.517
 21
186.879
  0
LINE
  8
0
 10
191.517
 20
186.879
 11
191.9
 21
186.683
  0
LINE
  8
0
 10
191.9
 20
186.683
 11
192.205
 21
186.379
  0
LINE
  8
0
 10
192.205
 20
186.379
 11
192.4
 21
185.996
  0
LINE
  8
0
 10
192.4
 20
185.996
 11
192.467
 21
185.571
  0
LINE
  8
0
 10
192.467
 20
185.571
 11
192.4
 21
185.146
  0
LINE
  8
0
 10
192.4
 20
185.146
 11
192.205
 21
184.763
  0
LINE
  8
0
 10
192.205
 20
184.763
 11
191.9
 21
184.459
  0
LINE
  8
0
 10
191.9
 20
184.459
 11
191.517
 21
184.263
  0
LINE
  8
0
 10
191.517
 20
184.263
 11
191.092
 21
184.196
  0
LINE
  8
0
 10
191.092
 20
184.196
 11
190.667
 21
184.263
  0
LINE
  8
0
 10
132.667
 20
184.263
 11
132.284
 21
184.459
  0
LINE
  8
0
 10
132.284
 20
184.459
 11
131.98
 21
184.763
  0
LINE
  8
0
 10
131.98
 20
184.763
 11
131.784
 21
185.146
  0
LINE
  8
0
 10
131.784
 20
185.146
 11
131.717
 21
185.571
  0
LINE
  8
0
 10
131.717
 20
185.571
 11
131.784
 21
185.996
  0
LINE
  8
0
 10
131.784
 20
185.996
 11
131.98
 21
186.379
  0
LINE
  8
0
 10
131.98
 20
186.379
 11
132.284
 21
186.683
  0
LINE
  8
0
 10
132.284
 20
186.683
 11
132.667
 21
186.879
  0
LINE
  8
0
 10
132.667
 20
186.879
 11
133.092
 21
186.946
  0
LINE
  8
0
 10
133.092
 20
186.946
 11
133.517
 21
186.879
  0
LINE
  8
0
 10
133.517
 20
186.879
 11
133.9
 21
186.683
  0
LINE
  8
0
 10
133.9
 20
186.683
 11
134.205
 21
186.379
  0
LINE
  8
0
 10
134.205
 20
186.379
 11
134.4
 21
185.996
  0
LINE
  8
0
 10
134.4
 20
185.996
 11
134.467
 21
185.571
  0
LINE
  8
0
 10
134.467
 20
185.571
 11
134.4
 21
185.146
  0
LINE
  8
0
 10
134.4
 20
185.146
 11
134.205
 21
184.763
  0
LINE
  8
0
 10
134.205
 20
184.763
 11
133.9
 21
184.459
  0
LINE
  8
0
 10
133.9
 20
184.459
 11
133.517
 21
184.263
  0
LINE
  8
0
 10
133.517
 20
184.263
 11
133.092
 21
184.196
  0
LINE
  8
0
 10
133.092
 20
184.196
 11
132.667
 21
184.263
  0
LINE
  8
0
 10
214.592
 20
155.102
 11
214.592
 21
183.122
  0
LINE
  8
0
 10
214.592
 20
183.122
 11
217.692
 21
183.122
  0
LINE
  8
0
 10
217.692
 20
183.122
 11
217.692
 21
155.102
  0
LINE
  8
0
 10
217.692
 20
155.102
 11
214.592
 21
155.102
  0
LINE
  8
0
 10
8.45
 20
155.102
 11
8.45
 21
183.122
  0
LINE
  8
0
 10
8.45
 20
183.122
 11
11.55
 21
183.122
  0
LINE
  8
0
 10
11.55
 20
183.122
 11
11.55
 21
155.102
  0
LINE
  8
0
 10
11.55
 20
155.102
 11
8.45
 21
155.102
  0
LINE
  8
0
 10
179.071
 20
143.071
 11
179.071
 21
173.071
  0
LINE
  8
0
 10
179.071
 20
173.071
 11
189.071
 21
173.071
  0
LINE
  8
0
 10
189.071
 20
173.071
 11
189.071
 21
143.071
  0
LINE
  8
0
 10
189.071
 20
143.071
 11
179.071
 21
143.071
  0
LINE
  8
0
 10
37.0711
 20
143.071
 11
37.0711
 21
173.071
  0
LINE
  8
0
 10
37.0711
 20
173.071
 11
47.0711
 21
173.071
  0
LINE
  8
0
 10
47.0711
 20
173.071
 11
47.0711
 21
143.071
  0
LINE
  8
0
 10
47.0711
 20
143.071
 11
37.0711
 21
143.071
  0
LINE
  8
0
 10
190.667
 20
135.263
 11
190.284
 21
135.459
  0
LINE
  8
0
 10
190.284
 20
135.459
 11
189.98
 21
135.763
  0
LINE
  8
0
 10
189.98
 20
135.763
 11
189.784
 21
136.146
  0
LINE
  8
0
 10
189.784
 20
136.146
 11
189.717
 21
136.571
  0
LINE
  8
0
 10
189.717
 20
136.571
 11
189.784
 21
136.996
  0
LINE
  8
0
 10
189.784
 20
136.996
 11
189.98
 21
137.379
  0
LINE
  8
0
 10
189.98
 20
137.379
 11
190.284
 21
137.683
  0
LINE
  8
0
 10
190.284
 20
137.683
 11
190.667
 21
137.879
  0
LINE
  8
0
 10
190.667
 20
137.879
 11
191.092
 21
137.946
  0
LINE
  8
0
 10
191.092
 20
137.946
 11
191.517
 21
137.879
  0
LINE
  8
0
 10
191.517
 20
137.879
 11
191.9
 21
137.683
  0
LINE
  8
0
 10
191.9
 20
137.683
 11
192.205
 21
137.379
  0
LINE
  8
0
 10
192.205
 20
137.379
 11
192.4
 21
136.996
  0
LINE
  8
0
 10
192.4
 20
136.996
 11
192.467
 21
136.571
  0
LINE
  8
0
 10
192.467
 20
136.571
 11
192.4
 21
136.146
  0
LINE
  8
0
 10
192.4
 20
136.146
 11
192.205
 21
135.763
  0
LINE
  8
0
 10
192.205
 20
135.763
 11
191.9
 21
135.459
  0
LINE
  8
0
 10
191.9
 20
135.459
 11
191.517
 21
135.263
  0
LINE
  8
0
 10
191.517
 20
135.263
 11
191.092
 21
135.196
  0
LINE
  8
0
 10
191.092
 20
135.196
 11
190.667
 21
135.263
  0
LINE
  8
0
 10
132.667
 20
135.263
 11
132.284
 21
135.459
  0
LINE
  8
0
 10
132.284
 20
135.459
 11
131.98
 21
135.763
  0
LINE
  8
0
 10
131.98
 20
135.763
 11
131.784
 21
136.146
  0
LINE
  8
0
 10
131.784
 20
136.146
 11
131.717
 21
136.571
  0
LINE
  8
0
 10
131.717
 20
136.571
 11
131.784
 21
136.996
  0
LINE
  8
0
 10
131.784
 20
136.996
 11
131.98
 21
137.379
  0
LINE
  8
0
 10
131.98
 20
137.379
 11
132.284
 21
137.683
  0
LINE
  8
0
 10
132.284
 20
137.683
 11
132.667
 21
137.879
  0
LINE
  8
0
 10
132.667
 20
137.879
 11
133.092
 21
137.946
  0
LINE
  8
0
 10
133.092
 20
137.946
 11
133.517
 21
137.879
  0
LINE
  8
0
 10
133.517
 20
137.879
 11
133.9
 21
137.683
  0
LINE
  8
0
 10
133.9
 20
137.683
 11
134.205
 21
137.379
  0
LINE
  8
0
 10
134.205
 20
137.379
 11
134.4
 21
136.996
  0
LINE
  8
0
 10
134.4
 20
136.996
 11
134.467
 21
136.571
  0
LINE
  8
0
 10
134.467
 20
136.571
 11
134.4
 21
136.146
  0
LINE
  8
0
 10
134.4
 20
136.146
 11
134.205
 21
135.763
  0
LINE
  8
0
 10
134.205
 20
135.763
 11
133.9
 21
135.459
  0
LINE
  8
0
 10
133.9
 20
135.459
 11
133.517
 21
135.263
  0
LINE
  8
0
 10
133.517
 20
135.263
 11
133.092
 21
135.196
  0
LINE
  8
0
 10
133.092
 20
135.196
 11
132.667
 21
135.263
  0
LINE
  8
0
 10
8.45
 20
99.0609
 11
8.45
 21
127.081
  0
LINE
  8
0
 10
8.45
 20
127.081
 11
11.55
 21
127.081
  0
LINE
  8
0
 10
11.55
 20
127.081
 11
11.55
 21
99.0609
  0
LINE
  8
0
 10
11.55
 20
99.0609
 11
8.45
 21
99.0609
  0
LINE
  8
0
 10
214.592
 20
99.0609
 11
214.592
 21
127.081
  0
LINE
  8
0
 10
214.592
 20
127.081
 11
217.692
 21
127.081
  0
LINE
  8
0
 10
217.692
 20
127.081
 11
217.692
 21
99.0609
  0
LINE
  8
0
 10
217.692
 20
99.0609
 11
214.592
 21
99.0609
  0
LINE
  8
0
 10
26.2803
 20
111.407
 11
25.7924
 21
111.655
  0
LINE
  8
0
 10
25.7924
 20
111.655
 11
25.4053
 21
112.042
  0
LINE
  8
0
 10
25.4053
 20
112.042
 11
25.1567
 21
112.53
  0
LINE
  8
0
 10
25.1567
 20
112.53
 11
25.0711
 21
113.071
  0
LINE
  8
0
 10
25.0711
 20
113.071
 11
25.1567
 21
113.612
  0
LINE
  8
0
 10
25.1567
 20
113.612
 11
25.4053
 21
114.1
  0
LINE
  8
0
 10
25.4053
 20
114.1
 11
25.7924
 21
114.487
  0
LINE
  8
0
 10
25.7924
 20
114.487
 11
26.2803
 21
114.735
  0
LINE
  8
0
 10
26.2803
 20
114.735
 11
26.8211
 21
114.821
  0
LINE
  8
0
 10
26.8211
 20
114.821
 11
27.3618
 21
114.735
  0
LINE
  8
0
 10
27.3618
 20
114.735
 11
27.8497
 21
114.487
  0
LINE
  8
0
 10
27.8497
 20
114.487
 11
28.2368
 21
114.1
  0
LINE
  8
0
 10
28.2368
 20
114.1
 11
28.4854
 21
113.612
  0
LINE
  8
0
 10
28.4854
 20
113.612
 11
28.5711
 21
113.071
  0
LINE
  8
0
 10
28.5711
 20
113.071
 11
28.4854
 21
112.53
  0
LINE
  8
0
 10
28.4854
 20
112.53
 11
28.2368
 21
112.042
  0
LINE
  8
0
 10
28.2368
 20
112.042
 11
27.8497
 21
111.655
  0
LINE
  8
0
 10
27.8497
 20
111.655
 11
27.3618
 21
111.407
  0
LINE
  8
0
 10
27.3618
 20
111.407
 11
26.8211
 21
111.321
  0
LINE
  8
0
 10
26.8211
 20
111.321
 11
26.2803
 21
111.407
  0
LINE
  8
0
 10
198.78
 20
111.407
 11
198.292
 21
111.655
  0
LINE
  8
0
 10
198.292
 20
111.655
 11
197.905
 21
112.042
  0
LINE
  8
0
 10
197.905
 20
112.042
 11
197.657
 21
112.53
  0
LINE
  8
0
 10
197.657
 20
112.53
 11
197.571
 21
113.071
  0
LINE
  8
0
 10
197.571
 20
113.071
 11
197.657
 21
113.612
  0
LINE
  8
0
 10
197.657
 20
113.612
 11
197.905
 21
114.1
  0
LINE
  8
0
 10
197.905
 20
114.1
 11
198.292
 21
114.487
  0
LINE
  8
0
 10
198.292
 20
114.487
 11
198.78
 21
114.735
  0
LINE
  8
0
 10
198.78
 20
114.735
 11
199.321
 21
114.821
  0
LINE
  8
0
 10
199.321
 20
114.821
 11
199.862
 21
114.735
  0
LINE
  8
0
 10
199.862
 20
114.735
 11
200.35
 21
114.487
  0
LINE
  8
0
 10
200.35
 20
114.487
 11
200.737
 21
114.1
  0
LINE
  8
0
 10
200.737
 20
114.1
 11
200.985
 21
113.612
  0
LINE
  8
0
 10
200.985
 20
113.612
 11
201.071
 21
113.071
  0
LINE
  8
0
 10
201.071
 20
113.071
 11
200.985
 21
112.53
  0
LINE
  8
0
 10
200.985
 20
112.53
 11
200.737
 21
112.042
  0
LINE
  8
0
 10
200.737
 20
112.042
 11
200.35
 21
111.655
  0
LINE
  8
0
 10
200.35
 20
111.655
 11
199.862
 21
111.407
  0
LINE
  8
0
 10
199.862
 20
111.407
 11
199.321
 21
111.321
  0
LINE
  8
0
 10
199.321
 20
111.321
 11
198.78
 21
111.407
  0
LINE
  8
0
 10
135.071
 20
88.0711
 11
135.071
 21
103.071
  0
LINE
  8
0
 10
135.071
 20
103.071
 11
155.071
 21
103.071
  0
LINE
  8
0
 10
155.071
 20
103.071
 11
155.071
 21
88.0711
  0
LINE
  8
0
 10
155.071
 20
88.0711
 11
135.071
 21
88.0711
  0
LINE
  8
0
 10
214.592
 20
43.0203
 11
214.592
 21
71.0406
  0
LINE
  8
0
 10
214.592
 20
71.0406
 11
217.692
 21
71.0406
  0
LINE
  8
0
 10
217.692
 20
71.0406
 11
217.692
 21
43.0203
  0
LINE
  8
0
 10
217.692
 20
43.0203
 11
214.592
 21
43.0203
  0
LINE
  8
0
 10
8.45
 20
43.0203
 11
8.45
 21
71.0406
  0
LINE
  8
0
 10
8.45
 20
71.0406
 11
11.55
 21
71.0406
  0
LINE
  8
0
 10
11.55
 20
71.0406
 11
11.55
 21
43.0203
  0
LINE
  8
0
 10
11.55
 20
43.0203
 11
8.45
 21
43.0203
  0
LINE
  8
0
 10
200.53
 20
33.4067
 11
200.042
 21
33.6553
  0
LINE
  8
0
 10
200.042
 20
33.6553
 11
199.655
 21
34.0424
  0
LINE
  8
0
 10
199.655
 20
34.0424
 11
199.407
 21
34.5303
  0
LINE
  8
0
 10
199.407
 20
34.5303
 11
199.321
 21
35.0711
  0
LINE
  8
0
 10
199.321
 20
35.0711
 11
199.407
 21
35.6118
  0
LINE
  8
0
 10
199.407
 20
35.6118
 11
199.655
 21
36.0997
  0
LINE
  8
0
 10
199.655
 20
36.0997
 11
200.042
 21
36.4868
  0
LINE
  8
0
 10
200.042
 20
36.4868
 11
200.53
 21
36.7354
  0
LINE
  8
0
 10
200.53
 20
36.7354
 11
201.071
 21
36.8211
  0
LINE
  8
0
 10
201.071
 20
36.8211
 11
201.612
 21
36.7354
  0
LINE
  8
0
 10
201.612
 20
36.7354
 11
202.1
 21
36.4868
  0
LINE
  8
0
 10
202.1
 20
36.4868
 11
202.487
 21
36.0997
  0
LINE
  8
0
 10
202.487
 20
36.0997
 11
202.735
 21
35.6118
  0
LINE
  8
0
 10
202.735
 20
35.6118
 11
202.821
 21
35.0711
  0
LINE
  8
0
 10
202.821
 20
35.0711
 11
202.735
 21
34.5303
  0
LINE
  8
0
 10
202.735
 20
34.5303
 11
202.487
 21
34.0424
  0
LINE
  8
0
 10
202.487
 20
34.0424
 11
202.1
 21
33.6553
  0
LINE
  8
0
 10
202.1
 20
33.6553
 11
201.612
 21
33.4067
  0
LINE
  8
0
 10
201.612
 20
33.4067
 11
201.071
 21
33.3211
  0
LINE
  8
0
 10
201.071
 20
33.3211
 11
200.53
 21
33.4067
  0
LINE
  8
0
 10
195.03
 20
25.1567
 11
194.542
 21
25.4053
  0
LINE
  8
0
 10
194.542
 20
25.4053
 11
194.155
 21
25.7924
  0
LINE
  8
0
 10
194.155
 20
25.7924
 11
193.907
 21
26.2803
  0
LINE
  8
0
 10
193.907
 20
26.2803
 11
193.821
 21
26.8211
  0
LINE
  8
0
 10
193.821
 20
26.8211
 11
193.907
 21
27.3618
  0
LINE
  8
0
 10
193.907
 20
27.3618
 11
194.155
 21
27.8497
  0
LINE
  8
0
 10
194.155
 20
27.8497
 11
194.542
 21
28.2368
  0
LINE
  8
0
 10
194.542
 20
28.2368
 11
195.03
 21
28.4854
  0
LINE
  8
0
 10
195.03
 20
28.4854
 11
195.571
 21
28.5711
  0
LINE
  8
0
 10
195.571
 20
28.5711
 11
196.112
 21
28.4854
  0
LINE
  8
0
 10
196.112
 20
28.4854
 11
196.6
 21
28.2368
  0
LINE
  8
0
 10
196.6
 20
28.2368
 11
196.987
 21
27.8497
  0
LINE
  8
0
 10
196.987
 20
27.8497
 11
197.235
 21
27.3618
  0
LINE
  8
0
 10
197.235
 20
27.3618
 11
197.321
 21
26.8211
  0
LINE
  8
0
 10
197.321
 20
26.8211
 11
197.235
 21
26.2803
  0
LINE
  8
0
 10
197.235
 20
26.2803
 11
196.987
 21
25.7924
  0
LINE
  8
0
 10
196.987
 20
25.7924
 11
196.6
 21
25.4053
  0
LINE
  8
0
 10
196.6
 20
25.4053
 11
196.112
 21
25.1567
  0
LINE
  8
0
 10
196.112
 20
25.1567
 11
195.571
 21
25.0711
  0
LINE
  8
0
 10
195.571
 20
25.0711
 11
195.03
 21
25.1567
  0
LINE
  8
0
 10
112.53
 20
25.1567
 11
112.042
 21
25.4053
  0
LINE
  8
0
 10
112.042
 20
25.4053
 11
111.655
 21
25.7924
  0
LINE
  8
0
 10
111.655
 20
25.7924
 11
111.407
 21
26.2803
  0
LINE
  8
0
 10
111.407
 20
26.2803
 11
111.321
 21
26.8211
  0
LINE
  8
0
 10
111.321
 20
26.8211
 11
111.407
 21
27.3618
  0
LINE
  8
0
 10
111.407
 20
27.3618
 11
111.655
 21
27.8497
  0
LINE
  8
0
 10
111.655
 20
27.8497
 11
112.042
 21
28.2368
  0
LINE
  8
0
 10
112.042
 20
28.2368
 11
112.53
 21
28.4854
  0
LINE
  8
0
 10
112.53
 20
28.4854
 11
113.071
 21
28.5711
  0
LINE
  8
0
 10
113.071
 20
28.5711
 11
113.612
 21
28.4854
  0
LINE
  8
0
 10
113.612
 20
28.4854
 11
114.1
 21
28.2368
  0
LINE
  8
0
 10
114.1
 20
28.2368
 11
114.487
 21
27.8497
  0
LINE
  8
0
 10
114.487
 20
27.8497
 11
114.735
 21
27.3618
  0
LINE
  8
0
 10
114.735
 20
27.3618
 11
114.821
 21
26.8211
  0
LINE
  8
0
 10
114.821
 20
26.8211
 11
114.735
 21
26.2803
  0
LINE
  8
0
 10
114.735
 20
26.2803
 11
114.487
 21
25.7924
  0
LINE
  8
0
 10
114.487
 20
25.7924
 11
114.1
 21
25.4053
  0
LINE
  8
0
 10
114.1
 20
25.4053
 11
113.612
 21
25.1567
  0
LINE
  8
0
 10
113.612
 20
25.1567
 11
113.071
 21
25.0711
  0
LINE
  8
0
 10
113.071
 20
25.0711
 11
112.53
 21
25.1567
  0
LINE
  8
0
 10
30.0303
 20
25.1567
 11
29.5424
 21
25.4053
  0
LINE
  8
0
 10
29.5424
 20
25.4053
 11
29.1553
 21
25.7924
  0
LINE
  8
0
 10
29.1553
 20
25.7924
 11
28.9067
 21
26.2803
  0
LINE
  8
0
 10
28.9067
 20
26.2803
 11
28.8211
 21
26.8211
  0
LINE
  8
0
 10
28.8211
 20
26.8211
 11
28.9067
 21
27.3618
  0
LINE
  8
0
 10
28.9067
 20
27.3618
 11
29.1553
 21
27.8497
  0
LINE
  8
0
 10
29.1553
 20
27.8497
 11
29.5424
 21
28.2368
  0
LINE
  8
0
 10
29.5424
 20
28.2368
 11
30.0303
 21
28.4854
  0
LINE
  8
0
 10
30.0303
 20
28.4854
 11
30.5711
 21
28.5711
  0
LINE
  8
0
 10
30.5711
 20
28.5711
 11
31.1118
 21
28.4854
  0
LINE
  8
0
 10
31.1118
 20
28.4854
 11
31.5997
 21
28.2368
  0
LINE
  8
0
 10
31.5997
 20
28.2368
 11
31.9868
 21
27.8497
  0
LINE
  8
0
 10
31.9868
 20
27.8497
 11
32.2354
 21
27.3618
  0
LINE
  8
0
 10
32.2354
 20
27.3618
 11
32.3211
 21
26.8211
  0
LINE
  8
0
 10
32.3211
 20
26.8211
 11
32.2354
 21
26.2803
  0
LINE
  8
0
 10
32.2354
 20
26.2803
 11
31.9868
 21
25.7924
  0
LINE
  8
0
 10
31.9868
 20
25.7924
 11
31.5997
 21
25.4053
  0
LINE
  8
0
 10
31.5997
 20
25.4053
 11
31.1118
 21
25.1567
  0
LINE
  8
0
 10
31.1118
 20
25.1567
 11
30.5711
 21
25.0711
  0
LINE
  8
0
 10
30.5711
 20
25.0711
 11
30.0303
 21
25.1567
  0
LINE
  8
0
 10
215.648
 20
8.4783
 11
215.202
 21
8.70557
  0
LINE
  8
0
 10
215.202
 20
8.70557
 11
214.848
 21
9.05954
  0
LINE
  8
0
 10
214.848
 20
9.05954
 11
214.62
 21
9.50557
  0
LINE
  8
0
 10
214.62
 20
9.50557
 11
214.542
 21
10
  0
LINE
  8
0
 10
214.542
 20
10
 11
214.62
 21
10.4944
  0
LINE
  8
0
 10
214.62
 20
10.4944
 11
214.848
 21
10.9404
  0
LINE
  8
0
 10
214.848
 20
10.9404
 11
215.202
 21
11.2944
  0
LINE
  8
0
 10
215.202
 20
11.2944
 11
215.648
 21
11.5217
  0
LINE
  8
0
 10
215.648
 20
11.5217
 11
216.142
 21
11.6
  0
LINE
  8
0
 10
216.142
 20
11.6
 11
216.637
 21
11.5217
  0
LINE
  8
0
 10
216.637
 20
11.5217
 11
217.083
 21
11.2944
  0
LINE
  8
0
 10
217.083
 20
11.2944
 11
217.437
 21
10.9404
  0
LINE
  8
0
 10
217.437
 20
10.9404
 11
217.664
 21
10.4944
  0
LINE
  8
0
 10
217.664
 20
10.4944
 11
217.742
 21
10
  0
LINE
  8
0
 10
217.742
 20
10
 11
217.664
 21
9.50557
  0
LINE
  8
0
 10
217.664
 20
9.50557
 11
217.437
 21
9.05954
  0
LINE
  8
0
 10
217.437
 20
9.05954
 11
217.083
 21
8.70557
  0
LINE
  8
0
 10
217.083
 20
8.70557
 11
216.637
 21
8.4783
  0
LINE
  8
0
 10
216.637
 20
8.4783
 11
216.142
 21
8.39999
  0
LINE
  8
0
 10
216.142
 20
8.39999
 11
215.648
 21
8.4783
  0
LINE
  8
0
 10
9.50557
 20
8.4783
 11
9.05954
 21
8.70557
  0
LINE
  8
0
 10
9.05954
 20
8.70557
 11
8.70557
 21
9.05954
  0
LINE
  8
0
 10
8.70557
 20
9.05954
 11
8.4783
 21
9.50557
  0
LINE
  8
0
 10
8.4783
 20
9.50557
 11
8.39999
 21
10
  0
LINE
  8
0
 10
8.39999
 20
10
 11
8.4783
 21
10.4944
  0
LINE
  8
0
 10
8.4783
 20
10.4944
 11
8.70557
 21
10.9404
  0
LINE
  8
0
 10
8.70557
 20
10.9404
 11
9.05954
 21
11.2944
  0
LINE
  8
0
 10
9.05954
 20
11.2944
 11
9.50557
 21
11.5217
  0
LINE
  8
0
 10
9.50557
 20
11.5217
 11
10
 21
11.6
  0
LINE
  8
0
 10
10
 20
11.6
 11
10.4944
 21
11.5217
  0
LINE
  8
0
 10
10.4944
 20
11.5217
 11
10.9404
 21
11.2944
  0
LINE
  8
0
 10
10.9404
 20
11.2944
 11
11.2944
 21
10.9404
  0
LINE
  8
0
 10
11.2944
 20
10.9404
 11
11.5217
 21
10.4944
  0
LINE
  8
0
 10
11.5217
 20
10.4944
 11
11.6
 21
10
  0
LINE
  8
0
 10
11.6
 20
10
 11
11.5217
 21
9.50557
  0
LINE
  8
0
 10
11.5217
 20
9.50557
 11
11.2944
 21
9.05954
  0
LINE
  8
0
 10
11.2944
 20
9.05954
 11
10.9404
 21
8.70557
  0
LINE
  8
0
 10
10.9404
 20
8.70557
 11
10.4944
 21
8.4783
  0
LINE
  8
0
 10
10.4944
 20
8.4783
 11
10
 21
8.39999
  0
LINE
  8
0
 10
10
 20
8.39999
 11
9.50557
 21
8.4783
  0
LINE
  8
0
 10
155.102
 20
8.45
 11
155.102
 21
11.55
  0
LINE
  8
0
 10
155.102
 20
11.55
 11
183.122
 21
11.55
  0
LINE
  8
0
 10
183.122
 20
11.55
 11
183.122
 21
8.45
  0
LINE
  8
0
 10
183.122
 20
8.45
 11
155.102
 21
8.45
  0
LINE
  8
0
 10
99.0609
 20
8.45
 11
99.0609
 21
11.55
  0
LINE
  8
0
 10
99.0609
 20
11.55
 11
127.081
 21
11.55
  0
LINE
  8
0
 10
127.081
 20
11.55
 11
127.081
 21
8.45
  0
LINE
  8
0
 10
127.081
 20
8.45
 11
99.0609
 21
8.45
  0
LINE
  8
0
 10
43.0203
 20
8.45
 11
43.0203
 21
11.55
  0
LINE
  8
0
 10
43.0203
 20
11.55
 11
71.0406
 21
11.55
  0
LINE
  8
0
 10
71.0406
 20
11.55
 11
71.0406
 21
8.45
  0
LINE
  8
0
 10
71.0406
 20
8.45
 11
43.0203
 21
8.45
  0
LINE
  8
0
 10
270.142
 20
43.0203
 11
273.242
 21
43.0203
  0
LINE
  8
0
 10
273.242
 20
43.0203
 11
273.242
 21
71.0406
  0
LINE
  8
0
 10
273.242
 20
71.0406
 11
270.142
 21
71.0406
  0
LINE
  8
0
 10
270.142
 20
71.0406
 11
270.142
 21
99.0609
  0
LINE
  8
0
 10
270.142
 20
99.0609
 11
273.242
 21
99.0609
  0
LINE
  8
0
 10
273.242
 20
99.0609
 11
273.242
 21
127.081
  0
LINE
  8
0
 10
273.242
 20
127.081
 11
270.142
 21
127.081
  0
LINE
  8
0
 10
270.142
 20
127.081
 11
270.142
 21
155.102
  0
LINE
  8
0
 10
270.142
 20
155.102
 11
273.242
 21
155.102
  0
LINE
  8
0
 10
273.242
 20
155.102
 11
273.242
 21
183.122
  0
LINE
  8
0
 10
273.242
 20
183.122
 11
270.142
 21
183.122
  0
LINE
  8
0
 10
270.142
 20
183.122
 11
270.142
 21
211.142
  0
LINE
  8
0
 10
270.142
 20
211.142
 11
232.942
 21
211.142
  0
LINE
  8
0
 10
232.942
 20
211.142
 11
232.942
 21
183.122
  0
LINE
  8
0
 10
232.942
 20
183.122
 11
229.842
 21
183.122
  0
LINE
  8
0
 10
229.842
 20
183.122
 11
229.842
 21
155.102
  0
LINE
  8
0
 10
229.842
 20
155.102
 11
232.942
 21
155.102
  0
LINE
  8
0
 10
232.942
 20
155.102
 11
232.942
 21
127.081
  0
LINE
  8
0
 10
232.942
 20
127.081
 11
229.842
 21
127.081
  0
LINE
  8
0
 10
229.842
 20
127.081
 11
229.842
 21
99.0609
  0
LINE
  8
0
 10
229.842
 20
99.0609
 11
232.942
 21
99.0609
  0
LINE
  8
0
 10
232.942
 20
99.0609
 11
232.942
 21
71.0406
  0
LINE
  8
0
 10
232.942
 20
71.0406
 11
229.842
 21
71.0406
  0
LINE
  8
0
 10
229.842
 20
71.0406
 11
229.842
 21
43.0203
  0
LINE
  8
0
 10
229.842
 20
43.0203
 11
232.942
 21
43.0203
  0
LINE
  8
0
 10
232.942
 20
43.0203
 11
232.942
 21
15
  0
LINE
  8
0
 10
232.942
 20
15
 11
270.142
 21
15
  0
LINE
  8
0
 10
270.142
 20
15
 11
270.142
 21
43.0203
  0
LINE
  8
0
 10
238.942
 20
172.071
 11
238.942
 21
188.071
  0
LINE
  8
0
 10
238.942
 20
188.071
 11
254.942
 21
188.071
  0
LINE
  8
0
 10
254.942
 20
188.071
 11
254.942
 21
172.071
  0
LINE
  8
0
 10
254.942
 20
172.071
 11
238.942
 21
172.071
  0
LINE
  8
0
 10
238.942
 20
154.071
 11
238.942
 21
170.071
  0
LINE
  8
0
 10
238.942
 20
170.071
 11
254.942
 21
170.071
  0
LINE
  8
0
 10
254.942
 20
170.071
 11
254.942
 21
154.071
  0
LINE
  8
0
 10
254.942
 20
154.071
 11
238.942
 21
154.071
  0
LINE
  8
0
 10
238.942
 20
135.321
 11
238.942
 21
151.321
  0
LINE
  8
0
 10
238.942
 20
151.321
 11
251.442
 21
151.321
  0
LINE
  8
0
 10
251.442
 20
151.321
 11
251.442
 21
135.321
  0
LINE
  8
0
 10
251.442
 20
135.321
 11
238.942
 21
135.321
  0
LINE
  8
0
 10
343.342
 20
43.0203
 11
346.442
 21
43.0203
  0
LINE
  8
0
 10
346.442
 20
43.0203
 11
346.442
 21
71.0406
  0
LINE
  8
0
 10
346.442
 20
71.0406
 11
343.342
 21
71.0406
  0
LINE
  8
0
 10
343.342
 20
71.0406
 11
343.342
 21
99.0609
  0
LINE
  8
0
 10
343.342
 20
99.0609
 11
346.442
 21
99.0609
  0
LINE
  8
0
 10
346.442
 20
99.0609
 11
346.442
 21
127.081
  0
LINE
  8
0
 10
346.442
 20
127.081
 11
343.342
 21
127.081
  0
LINE
  8
0
 10
343.342
 20
127.081
 11
343.342
 21
155.102
  0
LINE
  8
0
 10
343.342
 20
155.102
 11
346.442
 21
155.102
  0
LINE
  8
0
 10
346.442
 20
155.102
 11
346.442
 21
183.122
  0
LINE
  8
0
 10
346.442
 20
183.122
 11
343.342
 21
183.122
  0
LINE
  8
0
 10
343.342
 20
183.122
 11
343.342
 21
211.142
  0
LINE
  8
0
 10
343.342
 20
211.142
 11
306.142
 21
211.142
  0
LINE
  8
0
 10
306.142
 20
211.142
 11
306.142
 21
183.122
  0
LINE
  8
0
 10
306.142
 20
183.122
 11
303.042
 21
183.122
  0
LINE
  8
0
 10
303.042
 20
183.122
 11
303.042
 21
155.102
  0
LINE
  8
0
 10
303.042
 20
155.102
 11
306.142
 21
155.102
  0
LINE
  8
0
 10
306.142
 20
155.102
 11
306.142
 21
127.081
  0
LINE
  8
0
 10
306.142
 20
127.081
 11
303.042
 21
127.081
  0
LINE
  8
0
 10
303.042
 20
127.081
 11
303.042
 21
99.0609
  0
LINE
  8
0
 10
303.042
 20
99.0609
 11
306.142
 21
99.0609
  0
LINE
  8
0
 10
306.142
 20
99.0609
 11
306.142
 21
71.0406
  0
LINE
  8
0
 10
306.142
 20
71.0406
 11
303.042
 21
71.0406
  0
LINE
  8
0
 10
303.042
 20
71.0406
 11
303.042
 21
43.0203
  0
LINE
  8
0
 10
303.042
 20
43.0203
 11
306.142
 21
43.0203
  0
LINE
  8
0
 10
306.142
 20
43.0203
 11
306.142
 21
15
  0
LINE
  8
0
 10
306.142
 20
15
 11
343.342
 21
15
  0
LINE
  8
0
 10
343.342
 20
15
 11
343.342
 21
43.0203
  0
LINE
  8
0
 10
323.537
 20
134.362
 11
322.45
 21
134.916
  0
LINE
  8
0
 10
322.45
 20
134.916
 11
321.587
 21
135.779
  0
LINE
  8
0
 10
321.587
 20
135.779
 11
321.033
 21
136.866
  0
LINE
  8
0
 10
321.033
 20
136.866
 11
320.842
 21
138.071
  0
LINE
  8
0
 10
320.842
 20
138.071
 11
321.033
 21
139.276
  0
LINE
  8
0
 10
321.033
 20
139.276
 11
321.587
 21
140.363
  0
LINE
  8
0
 10
321.587
 20
140.363
 11
322.45
 21
141.226
  0
LINE
  8
0
 10
322.45
 20
141.226
 11
323.537
 21
141.78
  0
LINE
  8
0
 10
323.537
 20
141.78
 11
324.742
 21
141.971
  0
LINE
  8
0
 10
324.742
 20
141.971
 11
325.947
 21
141.78
  0
LINE
  8
0
 10
325.947
 20
141.78
 11
327.034
 21
141.226
  0
LINE
  8
0
 10
327.034
 20
141.226
 11
327.897
 21
140.363
  0
LINE
  8
0
 10
327.897
 20
140.363
 11
328.451
 21
139.276
  0
LINE
  8
0
 10
328.451
 20
139.276
 11
328.642
 21
138.071
  0
LINE
  8
0
 10
328.642
 20
138.071
 11
328.451
 21
136.866
  0
LINE
  8
0
 10
328.451
 20
136.866
 11
327.897
 21
135.779
  0
LINE
  8
0
 10
327.897
 20
135.779
 11
327.034
 21
134.916
  0
LINE
  8
0
 10
327.034
 20
134.916
 11
325.947
 21
134.362
  0
LINE
  8
0
 10
325.947
 20
134.362
 11
324.742
 21
134.171
  0
LINE
  8
0
 10
324.742
 20
134.171
 11
323.537
 21
134.362
  0
LINE
  8
0
 10
309.242
 20
51.4461
 11
309.242
 21
118.446
  0
LINE
  8
0
 10
309.242
 20
118.446
 11
329.242
 21
118.446
  0
LINE
  8
0
 10
329.242
 20
118.446
 11
329.242
 21
51.4461
  0
LINE
  8
0
 10
329.242
 20
51.4461
 11
309.242
 21
51.4461
  0
LINE
  8
0
 10
-4.45001
 20
88.0711
 11
-4.92894
 21
88.0711
  0
LINE
  8
0
 10
-4.92894
 20
88.0711
 11
-4.92894
 21
103.071
  0
LINE
  8
0
 10
-4.92894
 20
103.071
 11
-4.45001
 21
103.071
  0
LINE
  8
0
 10
-4.45001
 20
103.071
 11
-4.45001
 21
128.342
  0
LINE
  8
0
 10
-4.45001
 20
128.342
 11
-128.45
 21
128.342
  0
LINE
  8
0
 10
-128.45
 20
128.342
 11
-128.45
 21
19.7545
  0
LINE
  8
0
 10
-128.45
 20
19.7545
 11
-126.91
 21
19.5106
  0
LINE
  8
0
 10
-126.91
 20
19.5106
 11
-124.122
 21
18.0902
  0
LINE
  8
0
 10
-124.122
 20
18.0902
 11
-121.91
 21
15.8778
  0
LINE
  8
0
 10
-121.91
 20
15.8778
 11
-120.489
 21
13.0902
  0
LINE
  8
0
 10
-120.489
 20
13.0902
 11
-120.245
 21
11.55
  0
LINE
  8
0
 10
-120.245
 20
11.55
 11
-4.45001
 21
11.55
  0
LINE
  8
0
 10
-4.45001
 20
11.55
 11
-4.45001
 21
88.0711
  0
LINE
  8
0
 10
-94.3333
 20
103.446
 11
-94.3333
 21
118.446
  0
LINE
  8
0
 10
-94.3333
 20
118.446
 11
-91.2333
 21
118.446
  0
LINE
  8
0
 10
-91.2333
 20
118.446
 11
-91.2333
 21
103.446
  0
LINE
  8
0
 10
-91.2333
 20
103.446
 11
-94.3333
 21
103.446
  0
LINE
  8
0
 10
-48.6667
 20
103.446
 11
-48.6667
 21
118.446
  0
LINE
  8
0
 10
-48.6667
 20
118.446
 11
-45.5667
 21
118.446
  0
LINE
  8
0
 10
-45.5667
 20
118.446
 11
-45.5667
 21
103.446
  0
LINE
  8
0
 10
-45.5667
 20
103.446
 11
-48.6667
 21
103.446
  0
LINE
  8
0
 10
-113.72
 20
111.407
 11
-114.208
 21
111.655
  0
LINE
  8
0
 10
-114.208
 20
111.655
 11
-114.595
 21
112.042
  0
LINE
  8
0
 10
-114.595
 20
112.042
 11
-114.843
 21
112.53
  0
LINE
  8
0
 10
-114.843
 20
112.53
 11
-114.929
 21
113.071
  0
LINE
  8
0
 10
-114.929
 20
113.071
 11
-114.843
 21
113.612
  0
LINE
  8
0
 10
-114.843
 20
113.612
 11
-114.595
 21
114.1
  0
LINE
  8
0
 10
-114.595
 20
114.1
 11
-114.208
 21
114.487
  0
LINE
  8
0
 10
-114.208
 20
114.487
 11
-113.72
 21
114.735
  0
LINE
  8
0
 10
-113.72
 20
114.735
 11
-113.179
 21
114.821
  0
LINE
  8
0
 10
-113.179
 20
114.821
 11
-112.638
 21
114.735
  0
LINE
  8
0
 10
-112.638
 20
114.735
 11
-112.15
 21
114.487
  0
LINE
  8
0
 10
-112.15
 20
114.487
 11
-111.763
 21
114.1
  0
LINE
  8
0
 10
-111.763
 20
114.1
 11
-111.515
 21
113.612
  0
LINE
  8
0
 10
-111.515
 20
113.612
 11
-111.429
 21
113.071
  0
LINE
  8
0
 10
-111.429
 20
113.071
 11
-111.515
 21
112.53
  0
LINE
  8
0
 10
-111.515
 20
112.53
 11
-111.763
 21
112.042
  0
LINE
  8
0
 10
-111.763
 20
112.042
 11
-112.15
 21
111.655
  0
LINE
  8
0
 10
-112.15
 20
111.655
 11
-112.638
 21
111.407
  0
LINE
  8
0
 10
-112.638
 20
111.407
 11
-113.179
 21
111.321
  0
LINE
  8
0
 10
-113.179
 20
111.321
 11
-113.72
 21
111.407
  0
LINE
  8
0
 10
-94.3333
 20
21.4461
 11
-94.3333
 21
36.4461
  0
LINE
  8
0
 10
-94.3333
 20
36.4461
 11
-91.2333
 21
36.4461
  0
LINE
  8
0
 10
-91.2333
 20
36.4461
 11
-91.2333
 21
21.4461
  0
LINE
  8
0
 10
-91.2333
 20
21.4461
 11
-94.3333
 21
21.4461
  0
LINE
  8
0
 10
-48.6667
 20
21.4461
 11
-48.6667
 21
36.4461
  0
LINE
  8
0
 10
-48.6667
 20
36.4461
 11
-45.5667
 21
36.4461
  0
LINE
  8
0
 10
-45.5667
 20
36.4461
 11
-45.5667
 21
21.4461
  0
LINE
  8
0
 10
-45.5667
 20
21.4461
 11
-48.6667
 21
21.4461
  0
LINE
  8
0
 10
-109.97
 20
25.1567
 11
-110.458
 21
25.4053
  0
LINE
  8
0
 10
-110.458
 20
25.4053
 11
-110.845
 21
25.7924
  0
LINE
  8
0
 10
-110.845
 20
25.7924
 11
-111.093
 21
26.2803
  0
LINE
  8
0
 10
-111.093
 20
26.2803
 11
-111.179
 21
26.8211
  0
LINE
  8
0
 10
-111.179
 20
26.8211
 11
-111.093
 21
27.3618
  0
LINE
  8
0
 10
-111.093
 20
27.3618
 11
-110.845
 21
27.8497
  0
LINE
  8
0
 10
-110.845
 20
27.8497
 11
-110.458
 21
28.2368
  0
LINE
  8
0
 10
-110.458
 20
28.2368
 11
-109.97
 21
28.4854
  0
LINE
  8
0
 10
-109.97
 20
28.4854
 11
-109.429
 21
28.5711
  0
LINE
  8
0
 10
-109.429
 20
28.5711
 11
-108.888
 21
28.4854
  0
LINE
  8
0
 10
-108.888
 20
28.4854
 11
-108.4
 21
28.2368
  0
LINE
  8
0
 10
-108.4
 20
28.2368
 11
-108.013
 21
27.8497
  0
LINE
  8
0
 10
-108.013
 20
27.8497
 11
-107.765
 21
27.3618
  0
LINE
  8
0
 10
-107.765
 20
27.3618
 11
-107.679
 21
26.8211
  0
LINE
  8
0
 10
-107.679
 20
26.8211
 11
-107.765
 21
26.2803
  0
LINE
  8
0
 10
-107.765
 20
26.2803
 11
-108.013
 21
25.7924
  0
LINE
  8
0
 10
-108.013
 20
25.7924
 11
-108.4
 21
25.4053
  0
LINE
  8
0
 10
-108.4
 20
25.4053
 11
-108.888
 21
25.1567
  0
LINE
  8
0
 10
-108.888
 20
25.1567
 11
-109.429
 21
25.0711
  0
LINE
  8
0
 10
-109.429
 20
25.0711
 11
-109.97
 21
25.1567
  0
LINE
  8
0
 10
-27.4697
 20
25.1567
 11
-27.9576
 21
25.4053
  0
LINE
  8
0
 10
-27.9576
 20
25.4053
 11
-28.3447
 21
25.7924
  0
LINE
  8
0
 10
-28.3447
 20
25.7924
 11
-28.5933
 21
26.2803
  0
LINE
  8
0
 10
-28.5933
 20
26.2803
 11
-28.6789
 21
26.8211
  0
LINE
  8
0
 10
-28.6789
 20
26.8211
 11
-28.5933
 21
27.3618
  0
LINE
  8
0
 10
-28.5933
 20
27.3618
 11
-28.3447
 21
27.8497
  0
LINE
  8
0
 10
-28.3447
 20
27.8497
 11
-27.9576
 21
28.2368
  0
LINE
  8
0
 10
-27.9576
 20
28.2368
 11
-27.4697
 21
28.4854
  0
LINE
  8
0
 10
-27.4697
 20
28.4854
 11
-26.9289
 21
28.5711
  0
LINE
  8
0
 10
-26.9289
 20
28.5711
 11
-26.3882
 21
28.4854
  0
LINE
  8
0
 10
-26.3882
 20
28.4854
 11
-25.9003
 21
28.2368
  0
LINE
  8
0
 10
-25.9003
 20
28.2368
 11
-25.5132
 21
27.8497
  0
LINE
  8
0
 10
-25.5132
 20
27.8497
 11
-25.2646
 21
27.3618
  0
LINE
  8
0
 10
-25.2646
 20
27.3618
 11
-25.1789
 21
26.8211
  0
LINE
  8
0
 10
-25.1789
 20
26.8211
 11
-25.2646
 21
26.2803
  0
LINE
  8
0
 10
-25.2646
 20
26.2803
 11
-25.5132
 21
25.7924
  0
LINE
  8
0
 10
-25.5132
 20
25.7924
 11
-25.9003
 21
25.4053
  0
LINE
  8
0
 10
-25.9003
 20
25.4053
 11
-26.3882
 21
25.1567
  0
LINE
  8
0
 10
-26.3882
 20
25.1567
 11
-26.9289
 21
25.0711
  0
LINE
  8
0
 10
-26.9289
 20
25.0711
 11
-27.4697
 21
25.1567
  0
LINE
  8
0
 10
-162.8
 20
128.342
 11
-196.9
 21
128.342
  0
LINE
  8
0
 10
-196.9
 20
128.342
 11
-196.9
 21
118.446
  0
LINE
  8
0
 10
-196.9
 20
118.446
 11
-200
 21
118.446
  0
LINE
  8
0
 10
-200
 20
118.446
 11
-200
 21
103.446
  0
LINE
  8
0
 10
-200
 20
103.446
 11
-180
 21
103.446
  0
LINE
  8
0
 10
-180
 20
103.446
 11
-180
 21
36.4461
  0
LINE
  8
0
 10
-180
 20
36.4461
 11
-200
 21
36.4461
  0
LINE
  8
0
 10
-200
 20
36.4461
 11
-200
 21
21.4461
  0
LINE
  8
0
 10
-200
 20
21.4461
 11
-196.9
 21
21.4461
  0
LINE
  8
0
 10
-196.9
 20
21.4461
 11
-196.9
 21
11.55
  0
LINE
  8
0
 10
-196.9
 20
11.55
 11
-162.8
 21
11.55
  0
LINE
  8
0
 10
-162.8
 20
11.55
 11
-162.8
 21
128.342
  0
LINE
  8
0
 10
56.0406
 20
-50
 11
84.0609
 21
-50
  0
LINE
  8
0
 10
84.0609
 20
-50
 11
84.0609
 21
-53.1
  0
LINE
  8
0
 10
84.0609
 20
-53.1
 11
112.081
 21
-53.1
  0
LINE
  8
0
 10
112.081
 20
-53.1
 11
112.081
 21
-50
  0
LINE
  8
0
 10
112.081
 20
-50
 11
140.102
 21
-50
  0
LINE
  8
0
 10
140.102
 20
-50
 11
140.102
 21
-53.1
  0
LINE
  8
0
 10
140.102
 20
-53.1
 11
168.122
 21
-53.1
  0
LINE
  8
0
 10
168.122
 20
-53.1
 11
168.122
 21
-50
  0
LINE
  8
0
 10
168.122
 20
-50
 11
196.142
 21
-50
  0
LINE
  8
0
 10
196.142
 20
-50
 11
196.142
 21
-12.8
  0
LINE
  8
0
 10
196.142
 20
-12.8
 11
168.122
 21
-12.8
  0
LINE
  8
0
 10
168.122
 20
-12.8
 11
168.122
 21
-9.70001
  0
LINE
  8
0
 10
168.122
 20
-9.70001
 11
140.102
 21
-9.70001
  0
LINE
  8
0
 10
140.102
 20
-9.70001
 11
140.102
 21
-12.8
  0
LINE
  8
0
 10
140.102
 20
-12.8
 11
112.081
 21
-12.8
  0
LINE
  8
0
 10
112.081
 20
-12.8
 11
112.081
 21
-9.70001
  0
LINE
  8
0
 10
112.081
 20
-9.70001
 11
84.0609
 21
-9.70001
  0
LINE
  8
0
 10
84.0609
 20
-9.70001
 11
84.0609
 21
-12.8
  0
LINE
  8
0
 10
84.0609
 20
-12.8
 11
56.0406
 21
-12.8
  0
LINE
  8
0
 10
56.0406
 20
-12.8
 11
56.0406
 21
-9.70001
  0
LINE
  8
0
 10
56.0406
 20
-9.70001
 11
28.0203
 21
-9.70001
  0
LINE
  8
0
 10
28.0203
 20
-9.70001
 11
28.0203
 21
-12.8
  0
LINE
  8
0
 10
28.0203
 20
-12.8
 11
0
 21
-12.8
  0
LINE
  8
0
 10
0
 20
-12.8
 11
0
 21
-50
  0
LINE
  8
0
 10
0
 20
-50
 11
28.0203
 21
-50
  0
LINE
  8
0
 10
28.0203
 20
-50
 11
28.0203
 21
-53.1
  0
LINE
  8
0
 10
28.0203
 20
-53.1
 11
56.0406
 21
-53.1
  0
LINE
  8
0
 10
56.0406
 20
-53.1
 11
56.0406
 21
-50
  0
LINE
  8
0
 10
56.0406
 20
-100
 11
84.0609
 21
-100
  0
LINE
  8
0
 10
84.0609
 20
-100
 11
84.0609
 21
-103.1
  0
LINE
  8
0
 10
84.0609
 20
-103.1
 11
112.081
 21
-103.1
  0
LINE
  8
0
 10
112.081
 20
-103.1
 11
112.081
 21
-100
  0
LINE
  8
0
 10
112.081
 20
-100
 11
140.102
 21
-100
  0
LINE
  8
0
 10
140.102
 20
-100
 11
140.102
 21
-103.1
  0
LINE
  8
0
 10
140.102
 20
-103.1
 11
168.122
 21
-103.1
  0
LINE
  8
0
 10
168.122
 20
-103.1
 11
168.122
 21
-100
  0
LINE
  8
0
 10
168.122
 20
-100
 11
196.142
 21
-100
  0
LINE
  8
0
 10
196.142
 20
-100
 11
196.142
 21
-62.8
  0
LINE
  8
0
 10
196.142
 20
-62.8
 11
168.122
 21
-62.8
  0
LINE
  8
0
 10
168.122
 20
-62.8
 11
168.122
 21
-59.7
  0
LINE
  8
0
 10
168.122
 20
-59.7
 11
140.102
 21
-59.7
  0
LINE
  8
0
 10
140.102
 20
-59.7
 11
140.102
 21
-62.8
  0
LINE
  8
0
 10
140.102
 20
-62.8
 11
112.081
 21
-62.8
  0
LINE
  8
0
 10
112.081
 20
-62.8
 11
112.081
 21
-59.7
  0
LINE
  8
0
 10
112.081
 20
-59.7
 11
84.0609
 21
-59.7
  0
LINE
  8
0
 10
84.0609
 20
-59.7
 11
84.0609
 21
-62.8
  0
LINE
  8
0
 10
84.0609
 20
-62.8
 11
56.0406
 21
-62.8
  0
LINE
  8
0
 10
56.0406
 20
-62.8
 11
56.0406
 21
-59.7
  0
LINE
  8
0
 10
56.0406
 20
-59.7
 11
28.0203
 21
-59.7
  0
LINE
  8
0
 10
28.0203
 20
-59.7
 11
28.0203
 21
-62.8
  0
LINE
  8
0
 10
28.0203
 20
-62.8
 11
0
 21
-62.8
  0
LINE
  8
0
 10
0
 20
-62.8
 11
0
 21
-100
  0
LINE
  8
0
 10
0
 20
-100
 11
28.0203
 21
-100
  0
LINE
  8
0
 10
28.0203
 20
-100
 11
28.0203
 21
-103.1
  0
LINE
  8
0
 10
28.0203
 20
-103.1
 11
56.0406
 21
-103.1
  0
LINE
  8
0
 10
56.0406
 20
-103.1
 11
56.0406
 21
-100
  0
ENDSEC
  0
SECTION
  2
OBJECTS
  0
DICTIONARY
  0
ENDSEC
  0
EOF
