  0
SECTION
  2
BLOCKS
  0
ENDSEC
  0
SECTION
  2
ENTITIES
  0
LINE
  8
0
 10
219.232
 20
0.489426
 11
222.02
 21
1.90982
  0
LINE
  8
0
 10
222.02
 20
1.90982
 11
224.232
 21
4.12215
  0
LINE
  8
0
 10
224.232
 20
4.12215
 11
225.653
 21
6.90982
  0
LINE
  8
0
 10
225.653
 20
6.90982
 11
226.142
 21
10
  0
LINE
  8
0
 10
226.142
 20
10
 11
226.142
 21
216.142
  0
LINE
  8
0
 10
226.142
 20
216.142
 11
225.653
 21
219.232
  0
LINE
  8
0
 10
225.653
 20
219.232
 11
224.232
 21
222.02
  0
LINE
  8
0
 10
224.232
 20
222.02
 11
222.02
 21
224.232
  0
LINE
  8
0
 10
222.02
 20
224.232
 11
219.232
 21
225.653
  0
LINE
  8
0
 10
219.232
 20
225.653
 11
216.142
 21
226.142
  0
LINE
  8
0
 10
216.142
 20
226.142
 11
10
 21
226.142
  0
LINE
  8
0
 10
10
 20
226.142
 11
6.90982
 21
225.653
  0
LINE
  8
0
 10
6.90982
 20
225.653
 11
4.12215
 21
224.232
  0
LINE
  8
0
 10
4.12215
 20
224.232
 11
1.90982
 21
222.02
  0
LINE
  8
0
 10
1.90982
 20
222.02
 11
0.489426
 21
219.232
  0
LINE
  8
0
 10
0.489426
 20
219.232
 11
0
 21
216.142
  0
LINE
  8
0
 10
0
 20
216.142
 11
0
 21
10
  0
LINE
  8
0
 10
0
 20
10
 11
0.489426
 21
6.90982
  0
LINE
  8
0
 10
0.489426
 20
6.90982
 11
1.90982
 21
4.12215
  0
LINE
  8
0
 10
1.90982
 20
4.12215
 11
4.12215
 21
1.90982
  0
LINE
  8
0
 10
4.12215
 20
1.90982
 11
6.90982
 21
0.489426
  0
LINE
  8
0
 10
6.90982
 20
0.489426
 11
9.99998
 21
0
  0
LINE
  8
0
 10
9.99998
 20
0
 11
216.142
 21
0
  0
LINE
  8
0
 10
216.142
 20
0
 11
219.232
 21
0.489426
  0
LINE
  8
0
 10
215.648
 20
214.62
 11
215.202
 21
214.848
  0
LINE
  8
0
 10
215.202
 20
214.848
 11
214.848
 21
215.202
  0
LINE
  8
0
 10
214.848
 20
215.202
 11
214.62
 21
215.648
  0
LINE
  8
0
 10
214.62
 20
215.648
 11
214.542
 21
216.142
  0
LINE
  8
0
 10
214.542
 20
216.142
 11
214.62
 21
216.637
  0
LINE
  8
0
 10
214.62
 20
216.637
 11
214.848
 21
217.083
  0
LINE
  8
0
 10
214.848
 20
217.083
 11
215.202
 21
217.437
  0
LINE
  8
0
 10
215.202
 20
217.437
 11
215.648
 21
217.664
  0
LINE
  8
0
 10
215.648
 20
217.664
 11
216.142
 21
217.742
  0
LINE
  8
0
 10
216.142
 20
217.742
 11
216.637
 21
217.664
  0
LINE
  8
0
 10
216.637
 20
217.664
 11
217.083
 21
217.437
  0
LINE
  8
0
 10
217.083
 20
217.437
 11
217.437
 21
217.083
  0
LINE
  8
0
 10
217.437
 20
217.083
 11
217.664
 21
216.637
  0
LINE
  8
0
 10
217.664
 20
216.637
 11
217.742
 21
216.142
  0
LINE
  8
0
 10
217.742
 20
216.142
 11
217.664
 21
215.648
  0
LINE
  8
0
 10
217.664
 20
215.648
 11
217.437
 21
215.202
  0
LINE
  8
0
 10
217.437
 20
215.202
 11
217.083
 21
214.848
  0
LINE
  8
0
 10
217.083
 20
214.848
 11
216.637
 21
214.62
  0
LINE
  8
0
 10
216.637
 20
214.62
 11
216.142
 21
214.542
  0
LINE
  8
0
 10
216.142
 20
214.542
 11
215.648
 21
214.62
  0
LINE
  8
0
 10
9.50557
 20
214.62
 11
9.05954
 21
214.848
  0
LINE
  8
0
 10
9.05954
 20
214.848
 11
8.70557
 21
215.202
  0
LINE
  8
0
 10
8.70557
 20
215.202
 11
8.4783
 21
215.648
  0
LINE
  8
0
 10
8.4783
 20
215.648
 11
8.39999
 21
216.142
  0
LINE
  8
0
 10
8.39999
 20
216.142
 11
8.4783
 21
216.637
  0
LINE
  8
0
 10
8.4783
 20
216.637
 11
8.70557
 21
217.083
  0
LINE
  8
0
 10
8.70557
 20
217.083
 11
9.05954
 21
217.437
  0
LINE
  8
0
 10
9.05954
 20
217.437
 11
9.50557
 21
217.664
  0
LINE
  8
0
 10
9.50557
 20
217.664
 11
10
 21
217.742
  0
LINE
  8
0
 10
10
 20
217.742
 11
10.4944
 21
217.664
  0
LINE
  8
0
 10
10.4944
 20
217.664
 11
10.9404
 21
217.437
  0
LINE
  8
0
 10
10.9404
 20
217.437
 11
11.2944
 21
217.083
  0
LINE
  8
0
 10
11.2944
 20
217.083
 11
11.5217
 21
216.637
  0
LINE
  8
0
 10
11.5217
 20
216.637
 11
11.6
 21
216.142
  0
LINE
  8
0
 10
11.6
 20
216.142
 11
11.5217
 21
215.648
  0
LINE
  8
0
 10
11.5217
 20
215.648
 11
11.2944
 21
215.202
  0
LINE
  8
0
 10
11.2944
 20
215.202
 11
10.9404
 21
214.848
  0
LINE
  8
0
 10
10.9404
 20
214.848
 11
10.4944
 21
214.62
  0
LINE
  8
0
 10
10.4944
 20
214.62
 11
10
 21
214.542
  0
LINE
  8
0
 10
10
 20
214.542
 11
9.50557
 21
214.62
  0
LINE
  8
0
 10
43.0203
 20
214.592
 11
43.0203
 21
217.692
  0
LINE
  8
0
 10
43.0203
 20
217.692
 11
71.0406
 21
217.692
  0
LINE
  8
0
 10
71.0406
 20
217.692
 11
71.0406
 21
214.592
  0
LINE
  8
0
 10
71.0406
 20
214.592
 11
43.0203
 21
214.592
  0
LINE
  8
0
 10
99.0609
 20
214.592
 11
99.0609
 21
217.692
  0
LINE
  8
0
 10
99.0609
 20
217.692
 11
127.081
 21
217.692
  0
LINE
  8
0
 10
127.081
 20
217.692
 11
127.081
 21
214.592
  0
LINE
  8
0
 10
127.081
 20
214.592
 11
99.0609
 21
214.592
  0
LINE
  8
0
 10
155.102
 20
214.592
 11
155.102
 21
217.692
  0
LINE
  8
0
 10
155.102
 20
217.692
 11
183.122
 21
217.692
  0
LINE
  8
0
 10
183.122
 20
217.692
 11
183.122
 21
214.592
  0
LINE
  8
0
 10
183.122
 20
214.592
 11
155.102
 21
214.592
  0
LINE
  8
0
 10
195.077
 20
197.799
 11
194.631
 21
198.027
  0
LINE
  8
0
 10
194.631
 20
198.027
 11
194.277
 21
198.381
  0
LINE
  8
0
 10
194.277
 20
198.381
 11
194.049
 21
198.827
  0
LINE
  8
0
 10
194.049
 20
198.827
 11
193.971
 21
199.321
  0
LINE
  8
0
 10
193.971
 20
199.321
 11
194.049
 21
199.815
  0
LINE
  8
0
 10
194.049
 20
199.815
 11
194.277
 21
200.262
  0
LINE
  8
0
 10
194.277
 20
200.262
 11
194.631
 21
200.615
  0
LINE
  8
0
 10
194.631
 20
200.615
 11
195.077
 21
200.843
  0
LINE
  8
0
 10
195.077
 20
200.843
 11
195.571
 21
200.921
  0
LINE
  8
0
 10
195.571
 20
200.921
 11
196.065
 21
200.843
  0
LINE
  8
0
 10
196.065
 20
200.843
 11
196.512
 21
200.615
  0
LINE
  8
0
 10
196.512
 20
200.615
 11
196.865
 21
200.262
  0
LINE
  8
0
 10
196.865
 20
200.262
 11
197.093
 21
199.815
  0
LINE
  8
0
 10
197.093
 20
199.815
 11
197.171
 21
199.321
  0
LINE
  8
0
 10
197.171
 20
199.321
 11
197.093
 21
198.827
  0
LINE
  8
0
 10
197.093
 20
198.827
 11
196.865
 21
198.381
  0
LINE
  8
0
 10
196.865
 20
198.381
 11
196.512
 21
198.027
  0
LINE
  8
0
 10
196.512
 20
198.027
 11
196.065
 21
197.799
  0
LINE
  8
0
 10
196.065
 20
197.799
 11
195.571
 21
197.721
  0
LINE
  8
0
 10
195.571
 20
197.721
 11
195.077
 21
197.799
  0
LINE
  8
0
 10
30.0766
 20
197.799
 11
29.6306
 21
198.027
  0
LINE
  8
0
 10
29.6306
 20
198.027
 11
29.2766
 21
198.381
  0
LINE
  8
0
 10
29.2766
 20
198.381
 11
29.0494
 21
198.827
  0
LINE
  8
0
 10
29.0494
 20
198.827
 11
28.9711
 21
199.321
  0
LINE
  8
0
 10
28.9711
 20
199.321
 11
29.0494
 21
199.815
  0
LINE
  8
0
 10
29.0494
 20
199.815
 11
29.2766
 21
200.262
  0
LINE
  8
0
 10
29.2766
 20
200.262
 11
29.6306
 21
200.615
  0
LINE
  8
0
 10
29.6306
 20
200.615
 11
30.0766
 21
200.843
  0
LINE
  8
0
 10
30.0766
 20
200.843
 11
30.5711
 21
200.921
  0
LINE
  8
0
 10
30.5711
 20
200.921
 11
31.0655
 21
200.843
  0
LINE
  8
0
 10
31.0655
 20
200.843
 11
31.5115
 21
200.615
  0
LINE
  8
0
 10
31.5115
 20
200.615
 11
31.8655
 21
200.262
  0
LINE
  8
0
 10
31.8655
 20
200.262
 11
32.0928
 21
199.815
  0
LINE
  8
0
 10
32.0928
 20
199.815
 11
32.1711
 21
199.321
  0
LINE
  8
0
 10
32.1711
 20
199.321
 11
32.0928
 21
198.827
  0
LINE
  8
0
 10
32.0928
 20
198.827
 11
31.8655
 21
198.381
  0
LINE
  8
0
 10
31.8655
 20
198.381
 11
31.5115
 21
198.027
  0
LINE
  8
0
 10
31.5115
 20
198.027
 11
31.0655
 21
197.799
  0
LINE
  8
0
 10
31.0655
 20
197.799
 11
30.5711
 21
197.721
  0
LINE
  8
0
 10
30.5711
 20
197.721
 11
30.0766
 21
197.799
  0
LINE
  8
0
 10
112.577
 20
197.799
 11
112.131
 21
198.027
  0
LINE
  8
0
 10
112.131
 20
198.027
 11
111.777
 21
198.381
  0
LINE
  8
0
 10
111.777
 20
198.381
 11
111.549
 21
198.827
  0
LINE
  8
0
 10
111.549
 20
198.827
 11
111.471
 21
199.321
  0
LINE
  8
0
 10
111.471
 20
199.321
 11
111.549
 21
199.815
  0
LINE
  8
0
 10
111.549
 20
199.815
 11
111.777
 21
200.262
  0
LINE
  8
0
 10
111.777
 20
200.262
 11
112.131
 21
200.615
  0
LINE
  8
0
 10
112.131
 20
200.615
 11
112.577
 21
200.843
  0
LINE
  8
0
 10
112.577
 20
200.843
 11
113.071
 21
200.921
  0
LINE
  8
0
 10
113.071
 20
200.921
 11
113.565
 21
200.843
  0
LINE
  8
0
 10
113.565
 20
200.843
 11
114.012
 21
200.615
  0
LINE
  8
0
 10
114.012
 20
200.615
 11
114.365
 21
200.262
  0
LINE
  8
0
 10
114.365
 20
200.262
 11
114.593
 21
199.815
  0
LINE
  8
0
 10
114.593
 20
199.815
 11
114.671
 21
199.321
  0
LINE
  8
0
 10
114.671
 20
199.321
 11
114.593
 21
198.827
  0
LINE
  8
0
 10
114.593
 20
198.827
 11
114.365
 21
198.381
  0
LINE
  8
0
 10
114.365
 20
198.381
 11
114.012
 21
198.027
  0
LINE
  8
0
 10
114.012
 20
198.027
 11
113.565
 21
197.799
  0
LINE
  8
0
 10
113.565
 20
197.799
 11
113.071
 21
197.721
  0
LINE
  8
0
 10
113.071
 20
197.721
 11
112.577
 21
197.799
  0
LINE
  8
0
 10
24.5766
 20
189.549
 11
24.1306
 21
189.777
  0
LINE
  8
0
 10
24.1306
 20
189.777
 11
23.7766
 21
190.131
  0
LINE
  8
0
 10
23.7766
 20
190.131
 11
23.5494
 21
190.577
  0
LINE
  8
0
 10
23.5494
 20
190.577
 11
23.4711
 21
191.071
  0
LINE
  8
0
 10
23.4711
 20
191.071
 11
23.5494
 21
191.565
  0
LINE
  8
0
 10
23.5494
 20
191.565
 11
23.7766
 21
192.012
  0
LINE
  8
0
 10
23.7766
 20
192.012
 11
24.1306
 21
192.365
  0
LINE
  8
0
 10
24.1306
 20
192.365
 11
24.5766
 21
192.593
  0
LINE
  8
0
 10
24.5766
 20
192.593
 11
25.0711
 21
192.671
  0
LINE
  8
0
 10
25.0711
 20
192.671
 11
25.5655
 21
192.593
  0
LINE
  8
0
 10
25.5655
 20
192.593
 11
26.0115
 21
192.365
  0
LINE
  8
0
 10
26.0115
 20
192.365
 11
26.3655
 21
192.012
  0
LINE
  8
0
 10
26.3655
 20
192.012
 11
26.5928
 21
191.565
  0
LINE
  8
0
 10
26.5928
 20
191.565
 11
26.6711
 21
191.071
  0
LINE
  8
0
 10
26.6711
 20
191.071
 11
26.5928
 21
190.577
  0
LINE
  8
0
 10
26.5928
 20
190.577
 11
26.3655
 21
190.131
  0
LINE
  8
0
 10
26.3655
 20
190.131
 11
26.0115
 21
189.777
  0
LINE
  8
0
 10
26.0115
 20
189.777
 11
25.5655
 21
189.549
  0
LINE
  8
0
 10
25.5655
 20
189.549
 11
25.0711
 21
189.471
  0
LINE
  8
0
 10
25.0711
 20
189.471
 11
24.5766
 21
189.549
  0
LINE
  8
0
 10
190.667
 20
184.263
 11
190.284
 21
184.459
  0
LINE
  8
0
 10
190.284
 20
184.459
 11
189.98
 21
184.763
  0
LINE
  8
0
 10
189.98
 20
184.763
 11
189.784
 21
185.146
  0
LINE
  8
0
 10
189.784
 20
185.146
 11
189.717
 21
185.571
  0
LINE
  8
0
 10
189.717
 20
185.571
 11
189.784
 21
185.996
  0
LINE
  8
0
 10
189.784
 20
185.996
 11
189.98
 21
186.379
  0
LINE
  8
0
 10
189.98
 20
186.379
 11
190.284
 21
186.683
  0
LINE
  8
0
 10
190.284
 20
186.683
 11
190.667
 21
186.879
  0
LINE
  8
0
 10
190.667
 20
186.879
 11
191.092
 21
186.946
  0
LINE
  8
0
 10
191.092
 20
186.946
 11
191.517
 21
186.879
  0
LINE
  8
0
 10
191.517
 20
186.879
 11
191.9
 21
186.683
  0
LINE
  8
0
 10
191.9
 20
186.683
 11
192.205
 21
186.379
  0
LINE
  8
0
 10
192.205
 20
186.379
 11
192.4
 21
185.996
  0
LINE
  8
0
 10
192.4
 20
185.996
 11
192.467
 21
185.571
  0
LINE
  8
0
 10
192.467
 20
185.571
 11
192.4
 21
185.146
  0
LINE
  8
0
 10
192.4
 20
185.146
 11
192.205
 21
184.763
  0
LINE
  8
0
 10
192.205
 20
184.763
 11
191.9
 21
184.459
  0
LINE
  8
0
 10
191.9
 20
184.459
 11
191.517
 21
184.263
  0
LINE
  8
0
 10
191.517
 20
184.263
 11
191.092
 21
184.196
  0
LINE
  8
0
 10
191.092
 20
184.196
 11
190.667
 21
184.263
  0
LINE
  8
0
 10
132.667
 20
184.263
 11
132.284
 21
184.459
  0
LINE
  8
0
 10
132.284
 20
184.459
 11
131.98
 21
184.763
  0
LINE
  8
0
 10
131.98
 20
184.763
 11
131.784
 21
185.146
  0
LINE
  8
0
 10
131.784
 20
185.146
 11
131.717
 21
185.571
  0
LINE
  8
0
 10
131.717
 20
185.571
 11
131.784
 21
185.996
  0
LINE
  8
0
 10
131.784
 20
185.996
 11
131.98
 21
186.379
  0
LINE
  8
0
 10
131.98
 20
186.379
 11
132.284
 21
186.683
  0
LINE
  8
0
 10
132.284
 20
186.683
 11
132.667
 21
186.879
  0
LINE
  8
0
 10
132.667
 20
186.879
 11
133.092
 21
186.946
  0
LINE
  8
0
 10
133.092
 20
186.946
 11
133.517
 21
186.879
  0
LINE
  8
0
 10
133.517
 20
186.879
 11
133.9
 21
186.683
  0
LINE
  8
0
 10
133.9
 20
186.683
 11
134.205
 21
186.379
  0
LINE
  8
0
 10
134.205
 20
186.379
 11
134.4
 21
185.996
  0
LINE
  8
0
 10
134.4
 20
185.996
 11
134.467
 21
185.571
  0
LINE
  8
0
 10
134.467
 20
185.571
 11
134.4
 21
185.146
  0
LINE
  8
0
 10
134.4
 20
185.146
 11
134.205
 21
184.763
  0
LINE
  8
0
 10
134.205
 20
184.763
 11
133.9
 21
184.459
  0
LINE
  8
0
 10
133.9
 20
184.459
 11
133.517
 21
184.263
  0
LINE
  8
0
 10
133.517
 20
184.263
 11
133.092
 21
184.196
  0
LINE
  8
0
 10
133.092
 20
184.196
 11
132.667
 21
184.263
  0
LINE
  8
0
 10
214.592
 20
155.102
 11
214.592
 21
183.122
  0
LINE
  8
0
 10
214.592
 20
183.122
 11
217.692
 21
183.122
  0
LINE
  8
0
 10
217.692
 20
183.122
 11
217.692
 21
155.102
  0
LINE
  8
0
 10
217.692
 20
155.102
 11
214.592
 21
155.102
  0
LINE
  8
0
 10
8.45
 20
155.102
 11
8.45
 21
183.122
  0
LINE
  8
0
 10
8.45
 20
183.122
 11
11.55
 21
183.122
  0
LINE
  8
0
 10
11.55
 20
183.122
 11
11.55
 21
155.102
  0
LINE
  8
0
 10
11.55
 20
155.102
 11
8.45
 21
155.102
  0
LINE
  8
0
 10
179.071
 20
143.071
 11
179.071
 21
173.071
  0
LINE
  8
0
 10
179.071
 20
173.071
 11
189.071
 21
173.071
  0
LINE
  8
0
 10
189.071
 20
173.071
 11
189.071
 21
143.071
  0
LINE
  8
0
 10
189.071
 20
143.071
 11
179.071
 21
143.071
  0
LINE
  8
0
 10
37.0711
 20
143.071
 11
37.0711
 21
173.071
  0
LINE
  8
0
 10
37.0711
 20
173.071
 11
47.0711
 21
173.071
  0
LINE
  8
0
 10
47.0711
 20
173.071
 11
47.0711
 21
143.071
  0
LINE
  8
0
 10
47.0711
 20
143.071
 11
37.0711
 21
143.071
  0
LINE
  8
0
 10
190.667
 20
135.263
 11
190.284
 21
135.459
  0
LINE
  8
0
 10
190.284
 20
135.459
 11
189.98
 21
135.763
  0
LINE
  8
0
 10
189.98
 20
135.763
 11
189.784
 21
136.146
  0
LINE
  8
0
 10
189.784
 20
136.146
 11
189.717
 21
136.571
  0
LINE
  8
0
 10
189.717
 20
136.571
 11
189.784
 21
136.996
  0
LINE
  8
0
 10
189.784
 20
136.996
 11
189.98
 21
137.379
  0
LINE
  8
0
 10
189.98
 20
137.379
 11
190.284
 21
137.683
  0
LINE
  8
0
 10
190.284
 20
137.683
 11
190.667
 21
137.879
  0
LINE
  8
0
 10
190.667
 20
137.879
 11
191.092
 21
137.946
  0
LINE
  8
0
 10
191.092
 20
137.946
 11
191.517
 21
137.879
  0
LINE
  8
0
 10
191.517
 20
137.879
 11
191.9
 21
137.683
  0
LINE
  8
0
 10
191.9
 20
137.683
 11
192.205
 21
137.379
  0
LINE
  8
0
 10
192.205
 20
137.379
 11
192.4
 21
136.996
  0
LINE
  8
0
 10
192.4
 20
136.996
 11
192.467
 21
136.571
  0
LINE
  8
0
 10
192.467
 20
136.571
 11
192.4
 21
136.146
  0
LINE
  8
0
 10
192.4
 20
136.146
 11
192.205
 21
135.763
  0
LINE
  8
0
 10
192.205
 20
135.763
 11
191.9
 21
135.459
  0
LINE
  8
0
 10
191.9
 20
135.459
 11
191.517
 21
135.263
  0
LINE
  8
0
 10
191.517
 20
135.263
 11
191.092
 21
135.196
  0
LINE
  8
0
 10
191.092
 20
135.196
 11
190.667
 21
135.263
  0
LINE
  8
0
 10
132.667
 20
135.263
 11
132.284
 21
135.459
  0
LINE
  8
0
 10
132.284
 20
135.459
 11
131.98
 21
135.763
  0
LINE
  8
0
 10
131.98
 20
135.763
 11
131.784
 21
136.146
  0
LINE
  8
0
 10
131.784
 20
136.146
 11
131.717
 21
136.571
  0
LINE
  8
0
 10
131.717
 20
136.571
 11
131.784
 21
136.996
  0
LINE
  8
0
 10
131.784
 20
136.996
 11
131.98
 21
137.379
  0
LINE
  8
0
 10
131.98
 20
137.379
 11
132.284
 21
137.683
  0
LINE
  8
0
 10
132.284
 20
137.683
 11
132.667
 21
137.879
  0
LINE
  8
0
 10
132.667
 20
137.879
 11
133.092
 21
137.946
  0
LINE
  8
0
 10
133.092
 20
137.946
 11
133.517
 21
137.879
  0
LINE
  8
0
 10
133.517
 20
137.879
 11
133.9
 21
137.683
  0
LINE
  8
0
 10
133.9
 20
137.683
 11
134.205
 21
137.379
  0
LINE
  8
0
 10
134.205
 20
137.379
 11
134.4
 21
136.996
  0
LINE
  8
0
 10
134.4
 20
136.996
 11
134.467
 21
136.571
  0
LINE
  8
0
 10
134.467
 20
136.571
 11
134.4
 21
136.146
  0
LINE
  8
0
 10
134.4
 20
136.146
 11
134.205
 21
135.763
  0
LINE
  8
0
 10
134.205
 20
135.763
 11
133.9
 21
135.459
  0
LINE
  8
0
 10
133.9
 20
135.459
 11
133.517
 21
135.263
  0
LINE
  8
0
 10
133.517
 20
135.263
 11
133.092
 21
135.196
  0
LINE
  8
0
 10
133.092
 20
135.196
 11
132.667
 21
135.263
  0
LINE
  8
0
 10
8.45
 20
99.0609
 11
8.45
 21
127.081
  0
LINE
  8
0
 10
8.45
 20
127.081
 11
11.55
 21
127.081
  0
LINE
  8
0
 10
11.55
 20
127.081
 11
11.55
 21
99.0609
  0
LINE
  8
0
 10
11.55
 20
99.0609
 11
8.45
 21
99.0609
  0
LINE
  8
0
 10
214.592
 20
99.0609
 11
214.592
 21
127.081
  0
LINE
  8
0
 10
214.592
 20
127.081
 11
217.692
 21
127.081
  0
LINE
  8
0
 10
217.692
 20
127.081
 11
217.692
 21
99.0609
  0
LINE
  8
0
 10
217.692
 20
99.0609
 11
214.592
 21
99.0609
  0
LINE
  8
0
 10
26.3266
 20
111.549
 11
25.8806
 21
111.777
  0
LINE
  8
0
 10
25.8806
 20
111.777
 11
25.5266
 21
112.131
  0
LINE
  8
0
 10
25.5266
 20
112.131
 11
25.2994
 21
112.577
  0
LINE
  8
0
 10
25.2994
 20
112.577
 11
25.2211
 21
113.071
  0
LINE
  8
0
 10
25.2211
 20
113.071
 11
25.2994
 21
113.565
  0
LINE
  8
0
 10
25.2994
 20
113.565
 11
25.5266
 21
114.012
  0
LINE
  8
0
 10
25.5266
 20
114.012
 11
25.8806
 21
114.365
  0
LINE
  8
0
 10
25.8806
 20
114.365
 11
26.3266
 21
114.593
  0
LINE
  8
0
 10
26.3266
 20
114.593
 11
26.8211
 21
114.671
  0
LINE
  8
0
 10
26.8211
 20
114.671
 11
27.3155
 21
114.593
  0
LINE
  8
0
 10
27.3155
 20
114.593
 11
27.7615
 21
114.365
  0
LINE
  8
0
 10
27.7615
 20
114.365
 11
28.1155
 21
114.012
  0
LINE
  8
0
 10
28.1155
 20
114.012
 11
28.3428
 21
113.565
  0
LINE
  8
0
 10
28.3428
 20
113.565
 11
28.4211
 21
113.071
  0
LINE
  8
0
 10
28.4211
 20
113.071
 11
28.3428
 21
112.577
  0
LINE
  8
0
 10
28.3428
 20
112.577
 11
28.1155
 21
112.131
  0
LINE
  8
0
 10
28.1155
 20
112.131
 11
27.7615
 21
111.777
  0
LINE
  8
0
 10
27.7615
 20
111.777
 11
27.3155
 21
111.549
  0
LINE
  8
0
 10
27.3155
 20
111.549
 11
26.8211
 21
111.471
  0
LINE
  8
0
 10
26.8211
 20
111.471
 11
26.3266
 21
111.549
  0
LINE
  8
0
 10
198.827
 20
111.549
 11
198.381
 21
111.777
  0
LINE
  8
0
 10
198.381
 20
111.777
 11
198.027
 21
112.131
  0
LINE
  8
0
 10
198.027
 20
112.131
 11
197.799
 21
112.577
  0
LINE
  8
0
 10
197.799
 20
112.577
 11
197.721
 21
113.071
  0
LINE
  8
0
 10
197.721
 20
113.071
 11
197.799
 21
113.565
  0
LINE
  8
0
 10
197.799
 20
113.565
 11
198.027
 21
114.012
  0
LINE
  8
0
 10
198.027
 20
114.012
 11
198.381
 21
114.365
  0
LINE
  8
0
 10
198.381
 20
114.365
 11
198.827
 21
114.593
  0
LINE
  8
0
 10
198.827
 20
114.593
 11
199.321
 21
114.671
  0
LINE
  8
0
 10
199.321
 20
114.671
 11
199.815
 21
114.593
  0
LINE
  8
0
 10
199.815
 20
114.593
 11
200.262
 21
114.365
  0
LINE
  8
0
 10
200.262
 20
114.365
 11
200.615
 21
114.012
  0
LINE
  8
0
 10
200.615
 20
114.012
 11
200.843
 21
113.565
  0
LINE
  8
0
 10
200.843
 20
113.565
 11
200.921
 21
113.071
  0
LINE
  8
0
 10
200.921
 20
113.071
 11
200.843
 21
112.577
  0
LINE
  8
0
 10
200.843
 20
112.577
 11
200.615
 21
112.131
  0
LINE
  8
0
 10
200.615
 20
112.131
 11
200.262
 21
111.777
  0
LINE
  8
0
 10
200.262
 20
111.777
 11
199.815
 21
111.549
  0
LINE
  8
0
 10
199.815
 20
111.549
 11
199.321
 21
111.471
  0
LINE
  8
0
 10
199.321
 20
111.471
 11
198.827
 21
111.549
  0
LINE
  8
0
 10
135.071
 20
88.0711
 11
135.071
 21
103.071
  0
LINE
  8
0
 10
135.071
 20
103.071
 11
155.071
 21
103.071
  0
LINE
  8
0
 10
155.071
 20
103.071
 11
155.071
 21
88.0711
  0
LINE
  8
0
 10
155.071
 20
88.0711
 11
135.071
 21
88.0711
  0
LINE
  8
0
 10
214.592
 20
43.0203
 11
214.592
 21
71.0406
  0
LINE
  8
0
 10
214.592
 20
71.0406
 11
217.692
 21
71.0406
  0
LINE
  8
0
 10
217.692
 20
71.0406
 11
217.692
 21
43.0203
  0
LINE
  8
0
 10
217.692
 20
43.0203
 11
214.592
 21
43.0203
  0
LINE
  8
0
 10
8.45
 20
43.0203
 11
8.45
 21
71.0406
  0
LINE
  8
0
 10
8.45
 20
71.0406
 11
11.55
 21
71.0406
  0
LINE
  8
0
 10
11.55
 20
71.0406
 11
11.55
 21
43.0203
  0
LINE
  8
0
 10
11.55
 20
43.0203
 11
8.45
 21
43.0203
  0
LINE
  8
0
 10
200.577
 20
33.5494
 11
200.131
 21
33.7766
  0
LINE
  8
0
 10
200.131
 20
33.7766
 11
199.777
 21
34.1306
  0
LINE
  8
0
 10
199.777
 20
34.1306
 11
199.549
 21
34.5766
  0
LINE
  8
0
 10
199.549
 20
34.5766
 11
199.471
 21
35.0711
  0
LINE
  8
0
 10
199.471
 20
35.0711
 11
199.549
 21
35.5655
  0
LINE
  8
0
 10
199.549
 20
35.5655
 11
199.777
 21
36.0115
  0
LINE
  8
0
 10
199.777
 20
36.0115
 11
200.131
 21
36.3655
  0
LINE
  8
0
 10
200.131
 20
36.3655
 11
200.577
 21
36.5928
  0
LINE
  8
0
 10
200.577
 20
36.5928
 11
201.071
 21
36.6711
  0
LINE
  8
0
 10
201.071
 20
36.6711
 11
201.565
 21
36.5928
  0
LINE
  8
0
 10
201.565
 20
36.5928
 11
202.012
 21
36.3655
  0
LINE
  8
0
 10
202.012
 20
36.3655
 11
202.365
 21
36.0115
  0
LINE
  8
0
 10
202.365
 20
36.0115
 11
202.593
 21
35.5655
  0
LINE
  8
0
 10
202.593
 20
35.5655
 11
202.671
 21
35.0711
  0
LINE
  8
0
 10
202.671
 20
35.0711
 11
202.593
 21
34.5766
  0
LINE
  8
0
 10
202.593
 20
34.5766
 11
202.365
 21
34.1306
  0
LINE
  8
0
 10
202.365
 20
34.1306
 11
202.012
 21
33.7766
  0
LINE
  8
0
 10
202.012
 20
33.7766
 11
201.565
 21
33.5494
  0
LINE
  8
0
 10
201.565
 20
33.5494
 11
201.071
 21
33.4711
  0
LINE
  8
0
 10
201.071
 20
33.4711
 11
200.577
 21
33.5494
  0
LINE
  8
0
 10
195.077
 20
25.2994
 11
194.631
 21
25.5266
  0
LINE
  8
0
 10
194.631
 20
25.5266
 11
194.277
 21
25.8806
  0
LINE
  8
0
 10
194.277
 20
25.8806
 11
194.049
 21
26.3266
  0
LINE
  8
0
 10
194.049
 20
26.3266
 11
193.971
 21
26.8211
  0
LINE
  8
0
 10
193.971
 20
26.8211
 11
194.049
 21
27.3155
  0
LINE
  8
0
 10
194.049
 20
27.3155
 11
194.277
 21
27.7615
  0
LINE
  8
0
 10
194.277
 20
27.7615
 11
194.631
 21
28.1155
  0
LINE
  8
0
 10
194.631
 20
28.1155
 11
195.077
 21
28.3428
  0
LINE
  8
0
 10
195.077
 20
28.3428
 11
195.571
 21
28.4211
  0
LINE
  8
0
 10
195.571
 20
28.4211
 11
196.065
 21
28.3428
  0
LINE
  8
0
 10
196.065
 20
28.3428
 11
196.512
 21
28.1155
  0
LINE
  8
0
 10
196.512
 20
28.1155
 11
196.865
 21
27.7615
  0
LINE
  8
0
 10
196.865
 20
27.7615
 11
197.093
 21
27.3155
  0
LINE
  8
0
 10
197.093
 20
27.3155
 11
197.171
 21
26.8211
  0
LINE
  8
0
 10
197.171
 20
26.8211
 11
197.093
 21
26.3266
  0
LINE
  8
0
 10
197.093
 20
26.3266
 11
196.865
 21
25.8806
  0
LINE
  8
0
 10
196.865
 20
25.8806
 11
196.512
 21
25.5266
  0
LINE
  8
0
 10
196.512
 20
25.5266
 11
196.065
 21
25.2994
  0
LINE
  8
0
 10
196.065
 20
25.2994
 11
195.571
 21
25.2211
  0
LINE
  8
0
 10
195.571
 20
25.2211
 11
195.077
 21
25.2994
  0
LINE
  8
0
 10
112.577
 20
25.2994
 11
112.131
 21
25.5266
  0
LINE
  8
0
 10
112.131
 20
25.5266
 11
111.777
 21
25.8806
  0
LINE
  8
0
 10
111.777
 20
25.8806
 11
111.549
 21
26.3266
  0
LINE
  8
0
 10
111.549
 20
26.3266
 11
111.471
 21
26.8211
  0
LINE
  8
0
 10
111.471
 20
26.8211
 11
111.549
 21
27.3155
  0
LINE
  8
0
 10
111.549
 20
27.3155
 11
111.777
 21
27.7615
  0
LINE
  8
0
 10
111.777
 20
27.7615
 11
112.131
 21
28.1155
  0
LINE
  8
0
 10
112.131
 20
28.1155
 11
112.577
 21
28.3428
  0
LINE
  8
0
 10
112.577
 20
28.3428
 11
113.071
 21
28.4211
  0
LINE
  8
0
 10
113.071
 20
28.4211
 11
113.565
 21
28.3428
  0
LINE
  8
0
 10
113.565
 20
28.3428
 11
114.012
 21
28.1155
  0
LINE
  8
0
 10
114.012
 20
28.1155
 11
114.365
 21
27.7615
  0
LINE
  8
0
 10
114.365
 20
27.7615
 11
114.593
 21
27.3155
  0
LINE
  8
0
 10
114.593
 20
27.3155
 11
114.671
 21
26.8211
  0
LINE
  8
0
 10
114.671
 20
26.8211
 11
114.593
 21
26.3266
  0
LINE
  8
0
 10
114.593
 20
26.3266
 11
114.365
 21
25.8806
  0
LINE
  8
0
 10
114.365
 20
25.8806
 11
114.012
 21
25.5266
  0
LINE
  8
0
 10
114.012
 20
25.5266
 11
113.565
 21
25.2994
  0
LINE
  8
0
 10
113.565
 20
25.2994
 11
113.071
 21
25.2211
  0
LINE
  8
0
 10
113.071
 20
25.2211
 11
112.577
 21
25.2994
  0
LINE
  8
0
 10
30.0766
 20
25.2994
 11
29.6306
 21
25.5266
  0
LINE
  8
0
 10
29.6306
 20
25.5266
 11
29.2766
 21
25.8806
  0
LINE
  8
0
 10
29.2766
 20
25.8806
 11
29.0494
 21
26.3266
  0
LINE
  8
0
 10
29.0494
 20
26.3266
 11
28.9711
 21
26.8211
  0
LINE
  8
0
 10
28.9711
 20
26.8211
 11
29.0494
 21
27.3155
  0
LINE
  8
0
 10
29.0494
 20
27.3155
 11
29.2766
 21
27.7615
  0
LINE
  8
0
 10
29.2766
 20
27.7615
 11
29.6306
 21
28.1155
  0
LINE
  8
0
 10
29.6306
 20
28.1155
 11
30.0766
 21
28.3428
  0
LINE
  8
0
 10
30.0766
 20
28.3428
 11
30.5711
 21
28.4211
  0
LINE
  8
0
 10
30.5711
 20
28.4211
 11
31.0655
 21
28.3428
  0
LINE
  8
0
 10
31.0655
 20
28.3428
 11
31.5115
 21
28.1155
  0
LINE
  8
0
 10
31.5115
 20
28.1155
 11
31.8655
 21
27.7615
  0
LINE
  8
0
 10
31.8655
 20
27.7615
 11
32.0928
 21
27.3155
  0
LINE
  8
0
 10
32.0928
 20
27.3155
 11
32.1711
 21
26.8211
  0
LINE
  8
0
 10
32.1711
 20
26.8211
 11
32.0928
 21
26.3266
  0
LINE
  8
0
 10
32.0928
 20
26.3266
 11
31.8655
 21
25.8806
  0
LINE
  8
0
 10
31.8655
 20
25.8806
 11
31.5115
 21
25.5266
  0
LINE
  8
0
 10
31.5115
 20
25.5266
 11
31.0655
 21
25.2994
  0
LINE
  8
0
 10
31.0655
 20
25.2994
 11
30.5711
 21
25.2211
  0
LINE
  8
0
 10
30.5711
 20
25.2211
 11
30.0766
 21
25.2994
  0
LINE
  8
0
 10
215.648
 20
8.4783
 11
215.202
 21
8.70557
  0
LINE
  8
0
 10
215.202
 20
8.70557
 11
214.848
 21
9.05954
  0
LINE
  8
0
 10
214.848
 20
9.05954
 11
214.62
 21
9.50557
  0
LINE
  8
0
 10
214.62
 20
9.50557
 11
214.542
 21
10
  0
LINE
  8
0
 10
214.542
 20
10
 11
214.62
 21
10.4944
  0
LINE
  8
0
 10
214.62
 20
10.4944
 11
214.848
 21
10.9404
  0
LINE
  8
0
 10
214.848
 20
10.9404
 11
215.202
 21
11.2944
  0
LINE
  8
0
 10
215.202
 20
11.2944
 11
215.648
 21
11.5217
  0
LINE
  8
0
 10
215.648
 20
11.5217
 11
216.142
 21
11.6
  0
LINE
  8
0
 10
216.142
 20
11.6
 11
216.637
 21
11.5217
  0
LINE
  8
0
 10
216.637
 20
11.5217
 11
217.083
 21
11.2944
  0
LINE
  8
0
 10
217.083
 20
11.2944
 11
217.437
 21
10.9404
  0
LINE
  8
0
 10
217.437
 20
10.9404
 11
217.664
 21
10.4944
  0
LINE
  8
0
 10
217.664
 20
10.4944
 11
217.742
 21
10
  0
LINE
  8
0
 10
217.742
 20
10
 11
217.664
 21
9.50557
  0
LINE
  8
0
 10
217.664
 20
9.50557
 11
217.437
 21
9.05954
  0
LINE
  8
0
 10
217.437
 20
9.05954
 11
217.083
 21
8.70557
  0
LINE
  8
0
 10
217.083
 20
8.70557
 11
216.637
 21
8.4783
  0
LINE
  8
0
 10
216.637
 20
8.4783
 11
216.142
 21
8.39999
  0
LINE
  8
0
 10
216.142
 20
8.39999
 11
215.648
 21
8.4783
  0
LINE
  8
0
 10
9.50557
 20
8.4783
 11
9.05954
 21
8.70557
  0
LINE
  8
0
 10
9.05954
 20
8.70557
 11
8.70557
 21
9.05954
  0
LINE
  8
0
 10
8.70557
 20
9.05954
 11
8.4783
 21
9.50557
  0
LINE
  8
0
 10
8.4783
 20
9.50557
 11
8.39999
 21
10
  0
LINE
  8
0
 10
8.39999
 20
10
 11
8.4783
 21
10.4944
  0
LINE
  8
0
 10
8.4783
 20
10.4944
 11
8.70557
 21
10.9404
  0
LINE
  8
0
 10
8.70557
 20
10.9404
 11
9.05954
 21
11.2944
  0
LINE
  8
0
 10
9.05954
 20
11.2944
 11
9.50557
 21
11.5217
  0
LINE
  8
0
 10
9.50557
 20
11.5217
 11
10
 21
11.6
  0
LINE
  8
0
 10
10
 20
11.6
 11
10.4944
 21
11.5217
  0
LINE
  8
0
 10
10.4944
 20
11.5217
 11
10.9404
 21
11.2944
  0
LINE
  8
0
 10
10.9404
 20
11.2944
 11
11.2944
 21
10.9404
  0
LINE
  8
0
 10
11.2944
 20
10.9404
 11
11.5217
 21
10.4944
  0
LINE
  8
0
 10
11.5217
 20
10.4944
 11
11.6
 21
10
  0
LINE
  8
0
 10
11.6
 20
10
 11
11.5217
 21
9.50557
  0
LINE
  8
0
 10
11.5217
 20
9.50557
 11
11.2944
 21
9.05954
  0
LINE
  8
0
 10
11.2944
 20
9.05954
 11
10.9404
 21
8.70557
  0
LINE
  8
0
 10
10.9404
 20
8.70557
 11
10.4944
 21
8.4783
  0
LINE
  8
0
 10
10.4944
 20
8.4783
 11
10
 21
8.39999
  0
LINE
  8
0
 10
10
 20
8.39999
 11
9.50557
 21
8.4783
  0
LINE
  8
0
 10
155.102
 20
8.45
 11
155.102
 21
11.55
  0
LINE
  8
0
 10
155.102
 20
11.55
 11
183.122
 21
11.55
  0
LINE
  8
0
 10
183.122
 20
11.55
 11
183.122
 21
8.45
  0
LINE
  8
0
 10
183.122
 20
8.45
 11
155.102
 21
8.45
  0
LINE
  8
0
 10
99.0609
 20
8.45
 11
99.0609
 21
11.55
  0
LINE
  8
0
 10
99.0609
 20
11.55
 11
127.081
 21
11.55
  0
LINE
  8
0
 10
127.081
 20
11.55
 11
127.081
 21
8.45
  0
LINE
  8
0
 10
127.081
 20
8.45
 11
99.0609
 21
8.45
  0
LINE
  8
0
 10
43.0203
 20
8.45
 11
43.0203
 21
11.55
  0
LINE
  8
0
 10
43.0203
 20
11.55
 11
71.0406
 21
11.55
  0
LINE
  8
0
 10
71.0406
 20
11.55
 11
71.0406
 21
8.45
  0
LINE
  8
0
 10
71.0406
 20
8.45
 11
43.0203
 21
8.45
  0
LINE
  8
0
 10
270.142
 20
43.0203
 11
273.242
 21
43.0203
  0
LINE
  8
0
 10
273.242
 20
43.0203
 11
273.242
 21
71.0406
  0
LINE
  8
0
 10
273.242
 20
71.0406
 11
270.142
 21
71.0406
  0
LINE
  8
0
 10
270.142
 20
71.0406
 11
270.142
 21
99.0609
  0
LINE
  8
0
 10
270.142
 20
99.0609
 11
273.242
 21
99.0609
  0
LINE
  8
0
 10
273.242
 20
99.0609
 11
273.242
 21
127.081
  0
LINE
  8
0
 10
273.242
 20
127.081
 11
270.142
 21
127.081
  0
LINE
  8
0
 10
270.142
 20
127.081
 11
270.142
 21
155.102
  0
LINE
  8
0
 10
270.142
 20
155.102
 11
273.242
 21
155.102
  0
LINE
  8
0
 10
273.242
 20
155.102
 11
273.242
 21
183.122
  0
LINE
  8
0
 10
273.242
 20
183.122
 11
270.142
 21
183.122
  0
LINE
  8
0
 10
270.142
 20
183.122
 11
270.142
 21
211.142
  0
LINE
  8
0
 10
270.142
 20
211.142
 11
232.942
 21
211.142
  0
LINE
  8
0
 10
232.942
 20
211.142
 11
232.942
 21
183.122
  0
LINE
  8
0
 10
232.942
 20
183.122
 11
229.842
 21
183.122
  0
LINE
  8
0
 10
229.842
 20
183.122
 11
229.842
 21
155.102
  0
LINE
  8
0
 10
229.842
 20
155.102
 11
232.942
 21
155.102
  0
LINE
  8
0
 10
232.942
 20
155.102
 11
232.942
 21
127.081
  0
LINE
  8
0
 10
232.942
 20
127.081
 11
229.842
 21
127.081
  0
LINE
  8
0
 10
229.842
 20
127.081
 11
229.842
 21
99.0609
  0
LINE
  8
0
 10
229.842
 20
99.0609
 11
232.942
 21
99.0609
  0
LINE
  8
0
 10
232.942
 20
99.0609
 11
232.942
 21
71.0406
  0
LINE
  8
0
 10
232.942
 20
71.0406
 11
229.842
 21
71.0406
  0
LINE
  8
0
 10
229.842
 20
71.0406
 11
229.842
 21
43.0203
  0
LINE
  8
0
 10
229.842
 20
43.0203
 11
232.942
 21
43.0203
  0
LINE
  8
0
 10
232.942
 20
43.0203
 11
232.942
 21
15
  0
LINE
  8
0
 10
232.942
 20
15
 11
270.142
 21
15
  0
LINE
  8
0
 10
270.142
 20
15
 11
270.142
 21
43.0203
  0
LINE
  8
0
 10
238.942
 20
172.071
 11
238.942
 21
188.071
  0
LINE
  8
0
 10
238.942
 20
188.071
 11
254.942
 21
188.071
  0
LINE
  8
0
 10
254.942
 20
188.071
 11
254.942
 21
172.071
  0
LINE
  8
0
 10
254.942
 20
172.071
 11
238.942
 21
172.071
  0
LINE
  8
0
 10
238.942
 20
154.071
 11
238.942
 21
170.071
  0
LINE
  8
0
 10
238.942
 20
170.071
 11
254.942
 21
170.071
  0
LINE
  8
0
 10
254.942
 20
170.071
 11
254.942
 21
154.071
  0
LINE
  8
0
 10
254.942
 20
154.071
 11
238.942
 21
154.071
  0
LINE
  8
0
 10
238.942
 20
135.321
 11
238.942
 21
151.321
  0
LINE
  8
0
 10
238.942
 20
151.321
 11
251.442
 21
151.321
  0
LINE
  8
0
 10
251.442
 20
151.321
 11
251.442
 21
135.321
  0
LINE
  8
0
 10
251.442
 20
135.321
 11
238.942
 21
135.321
  0
LINE
  8
0
 10
343.342
 20
43.0203
 11
346.442
 21
43.0203
  0
LINE
  8
0
 10
346.442
 20
43.0203
 11
346.442
 21
71.0406
  0
LINE
  8
0
 10
346.442
 20
71.0406
 11
343.342
 21
71.0406
  0
LINE
  8
0
 10
343.342
 20
71.0406
 11
343.342
 21
99.0609
  0
LINE
  8
0
 10
343.342
 20
99.0609
 11
346.442
 21
99.0609
  0
LINE
  8
0
 10
346.442
 20
99.0609
 11
346.442
 21
127.081
  0
LINE
  8
0
 10
346.442
 20
127.081
 11
343.342
 21
127.081
  0
LINE
  8
0
 10
343.342
 20
127.081
 11
343.342
 21
155.102
  0
LINE
  8
0
 10
343.342
 20
155.102
 11
346.442
 21
155.102
  0
LINE
  8
0
 10
346.442
 20
155.102
 11
346.442
 21
183.122
  0
LINE
  8
0
 10
346.442
 20
183.122
 11
343.342
 21
183.122
  0
LINE
  8
0
 10
343.342
 20
183.122
 11
343.342
 21
211.142
  0
LINE
  8
0
 10
343.342
 20
211.142
 11
306.142
 21
211.142
  0
LINE
  8
0
 10
306.142
 20
211.142
 11
306.142
 21
183.122
  0
LINE
  8
0
 10
306.142
 20
183.122
 11
303.042
 21
183.122
  0
LINE
  8
0
 10
303.042
 20
183.122
 11
303.042
 21
155.102
  0
LINE
  8
0
 10
303.042
 20
155.102
 11
306.142
 21
155.102
  0
LINE
  8
0
 10
306.142
 20
155.102
 11
306.142
 21
127.081
  0
LINE
  8
0
 10
306.142
 20
127.081
 11
303.042
 21
127.081
  0
LINE
  8
0
 10
303.042
 20
127.081
 11
303.042
 21
99.0609
  0
LINE
  8
0
 10
303.042
 20
99.0609
 11
306.142
 21
99.0609
  0
LINE
  8
0
 10
306.142
 20
99.0609
 11
306.142
 21
71.0406
  0
LINE
  8
0
 10
306.142
 20
71.0406
 11
303.042
 21
71.0406
  0
LINE
  8
0
 10
303.042
 20
71.0406
 11
303.042
 21
43.0203
  0
LINE
  8
0
 10
303.042
 20
43.0203
 11
306.142
 21
43.0203
  0
LINE
  8
0
 10
306.142
 20
43.0203
 11
306.142
 21
15
  0
LINE
  8
0
 10
306.142
 20
15
 11
343.342
 21
15
  0
LINE
  8
0
 10
343.342
 20
15
 11
343.342
 21
43.0203
  0
LINE
  8
0
 10
323.537
 20
134.362
 11
322.45
 21
134.916
  0
LINE
  8
0
 10
322.45
 20
134.916
 11
321.587
 21
135.779
  0
LINE
  8
0
 10
321.587
 20
135.779
 11
321.033
 21
136.866
  0
LINE
  8
0
 10
321.033
 20
136.866
 11
320.842
 21
138.071
  0
LINE
  8
0
 10
320.842
 20
138.071
 11
321.033
 21
139.276
  0
LINE
  8
0
 10
321.033
 20
139.276
 11
321.587
 21
140.363
  0
LINE
  8
0
 10
321.587
 20
140.363
 11
322.45
 21
141.226
  0
LINE
  8
0
 10
322.45
 20
141.226
 11
323.537
 21
141.78
  0
LINE
  8
0
 10
323.537
 20
141.78
 11
324.742
 21
141.971
  0
LINE
  8
0
 10
324.742
 20
141.971
 11
325.947
 21
141.78
  0
LINE
  8
0
 10
325.947
 20
141.78
 11
327.034
 21
141.226
  0
LINE
  8
0
 10
327.034
 20
141.226
 11
327.897
 21
140.363
  0
LINE
  8
0
 10
327.897
 20
140.363
 11
328.451
 21
139.276
  0
LINE
  8
0
 10
328.451
 20
139.276
 11
328.642
 21
138.071
  0
LINE
  8
0
 10
328.642
 20
138.071
 11
328.451
 21
136.866
  0
LINE
  8
0
 10
328.451
 20
136.866
 11
327.897
 21
135.779
  0
LINE
  8
0
 10
327.897
 20
135.779
 11
327.034
 21
134.916
  0
LINE
  8
0
 10
327.034
 20
134.916
 11
325.947
 21
134.362
  0
LINE
  8
0
 10
325.947
 20
134.362
 11
324.742
 21
134.171
  0
LINE
  8
0
 10
324.742
 20
134.171
 11
323.537
 21
134.362
  0
LINE
  8
0
 10
309.242
 20
51.4461
 11
309.242
 21
118.446
  0
LINE
  8
0
 10
309.242
 20
118.446
 11
329.242
 21
118.446
  0
LINE
  8
0
 10
329.242
 20
118.446
 11
329.242
 21
51.4461
  0
LINE
  8
0
 10
329.242
 20
51.4461
 11
309.242
 21
51.4461
  0
LINE
  8
0
 10
-4.45001
 20
88.0711
 11
-4.92894
 21
88.0711
  0
LINE
  8
0
 10
-4.92894
 20
88.0711
 11
-4.92894
 21
103.071
  0
LINE
  8
0
 10
-4.92894
 20
103.071
 11
-4.45001
 21
103.071
  0
LINE
  8
0
 10
-4.45001
 20
103.071
 11
-4.45001
 21
128.342
  0
LINE
  8
0
 10
-4.45001
 20
128.342
 11
-128.45
 21
128.342
  0
LINE
  8
0
 10
-128.45
 20
128.342
 11
-128.45
 21
19.7545
  0
LINE
  8
0
 10
-128.45
 20
19.7545
 11
-126.91
 21
19.5106
  0
LINE
  8
0
 10
-126.91
 20
19.5106
 11
-124.122
 21
18.0902
  0
LINE
  8
0
 10
-124.122
 20
18.0902
 11
-121.91
 21
15.8778
  0
LINE
  8
0
 10
-121.91
 20
15.8778
 11
-120.489
 21
13.0902
  0
LINE
  8
0
 10
-120.489
 20
13.0902
 11
-120.245
 21
11.55
  0
LINE
  8
0
 10
-120.245
 20
11.55
 11
-4.45001
 21
11.55
  0
LINE
  8
0
 10
-4.45001
 20
11.55
 11
-4.45001
 21
88.0711
  0
LINE
  8
0
 10
-94.3333
 20
103.446
 11
-94.3333
 21
118.446
  0
LINE
  8
0
 10
-94.3333
 20
118.446
 11
-91.2333
 21
118.446
  0
LINE
  8
0
 10
-91.2333
 20
118.446
 11
-91.2333
 21
103.446
  0
LINE
  8
0
 10
-91.2333
 20
103.446
 11
-94.3333
 21
103.446
  0
LINE
  8
0
 10
-48.6667
 20
103.446
 11
-48.6667
 21
118.446
  0
LINE
  8
0
 10
-48.6667
 20
118.446
 11
-45.5667
 21
118.446
  0
LINE
  8
0
 10
-45.5667
 20
118.446
 11
-45.5667
 21
103.446
  0
LINE
  8
0
 10
-45.5667
 20
103.446
 11
-48.6667
 21
103.446
  0
LINE
  8
0
 10
-113.673
 20
111.549
 11
-114.119
 21
111.777
  0
LINE
  8
0
 10
-114.119
 20
111.777
 11
-114.473
 21
112.131
  0
LINE
  8
0
 10
-114.473
 20
112.131
 11
-114.701
 21
112.577
  0
LINE
  8
0
 10
-114.701
 20
112.577
 11
-114.779
 21
113.071
  0
LINE
  8
0
 10
-114.779
 20
113.071
 11
-114.701
 21
113.565
  0
LINE
  8
0
 10
-114.701
 20
113.565
 11
-114.473
 21
114.012
  0
LINE
  8
0
 10
-114.473
 20
114.012
 11
-114.119
 21
114.365
  0
LINE
  8
0
 10
-114.119
 20
114.365
 11
-113.673
 21
114.593
  0
LINE
  8
0
 10
-113.673
 20
114.593
 11
-113.179
 21
114.671
  0
LINE
  8
0
 10
-113.179
 20
114.671
 11
-112.685
 21
114.593
  0
LINE
  8
0
 10
-112.685
 20
114.593
 11
-112.238
 21
114.365
  0
LINE
  8
0
 10
-112.238
 20
114.365
 11
-111.885
 21
114.012
  0
LINE
  8
0
 10
-111.885
 20
114.012
 11
-111.657
 21
113.565
  0
LINE
  8
0
 10
-111.657
 20
113.565
 11
-111.579
 21
113.071
  0
LINE
  8
0
 10
-111.579
 20
113.071
 11
-111.657
 21
112.577
  0
LINE
  8
0
 10
-111.657
 20
112.577
 11
-111.885
 21
112.131
  0
LINE
  8
0
 10
-111.885
 20
112.131
 11
-112.238
 21
111.777
  0
LINE
  8
0
 10
-112.238
 20
111.777
 11
-112.685
 21
111.549
  0
LINE
  8
0
 10
-112.685
 20
111.549
 11
-113.179
 21
111.471
  0
LINE
  8
0
 10
-113.179
 20
111.471
 11
-113.673
 21
111.549
  0
LINE
  8
0
 10
-94.3333
 20
21.4461
 11
-94.3333
 21
36.4461
  0
LINE
  8
0
 10
-94.3333
 20
36.4461
 11
-91.2333
 21
36.4461
  0
LINE
  8
0
 10
-91.2333
 20
36.4461
 11
-91.2333
 21
21.4461
  0
LINE
  8
0
 10
-91.2333
 20
21.4461
 11
-94.3333
 21
21.4461
  0
LINE
  8
0
 10
-48.6667
 20
21.4461
 11
-48.6667
 21
36.4461
  0
LINE
  8
0
 10
-48.6667
 20
36.4461
 11
-45.5667
 21
36.4461
  0
LINE
  8
0
 10
-45.5667
 20
36.4461
 11
-45.5667
 21
21.4461
  0
LINE
  8
0
 10
-45.5667
 20
21.4461
 11
-48.6667
 21
21.4461
  0
LINE
  8
0
 10
-109.923
 20
25.2994
 11
-110.369
 21
25.5266
  0
LINE
  8
0
 10
-110.369
 20
25.5266
 11
-110.723
 21
25.8806
  0
LINE
  8
0
 10
-110.723
 20
25.8806
 11
-110.951
 21
26.3266
  0
LINE
  8
0
 10
-110.951
 20
26.3266
 11
-111.029
 21
26.8211
  0
LINE
  8
0
 10
-111.029
 20
26.8211
 11
-110.951
 21
27.3155
  0
LINE
  8
0
 10
-110.951
 20
27.3155
 11
-110.723
 21
27.7615
  0
LINE
  8
0
 10
-110.723
 20
27.7615
 11
-110.369
 21
28.1155
  0
LINE
  8
0
 10
-110.369
 20
28.1155
 11
-109.923
 21
28.3428
  0
LINE
  8
0
 10
-109.923
 20
28.3428
 11
-109.429
 21
28.4211
  0
LINE
  8
0
 10
-109.429
 20
28.4211
 11
-108.935
 21
28.3428
  0
LINE
  8
0
 10
-108.935
 20
28.3428
 11
-108.488
 21
28.1155
  0
LINE
  8
0
 10
-108.488
 20
28.1155
 11
-108.135
 21
27.7615
  0
LINE
  8
0
 10
-108.135
 20
27.7615
 11
-107.907
 21
27.3155
  0
LINE
  8
0
 10
-107.907
 20
27.3155
 11
-107.829
 21
26.8211
  0
LINE
  8
0
 10
-107.829
 20
26.8211
 11
-107.907
 21
26.3266
  0
LINE
  8
0
 10
-107.907
 20
26.3266
 11
-108.135
 21
25.8806
  0
LINE
  8
0
 10
-108.135
 20
25.8806
 11
-108.488
 21
25.5266
  0
LINE
  8
0
 10
-108.488
 20
25.5266
 11
-108.935
 21
25.2994
  0
LINE
  8
0
 10
-108.935
 20
25.2994
 11
-109.429
 21
25.2211
  0
LINE
  8
0
 10
-109.429
 20
25.2211
 11
-109.923
 21
25.2994
  0
LINE
  8
0
 10
-27.4234
 20
25.2994
 11
-27.8694
 21
25.5266
  0
LINE
  8
0
 10
-27.8694
 20
25.5266
 11
-28.2234
 21
25.8806
  0
LINE
  8
0
 10
-28.2234
 20
25.8806
 11
-28.4506
 21
26.3266
  0
LINE
  8
0
 10
-28.4506
 20
26.3266
 11
-28.5289
 21
26.8211
  0
LINE
  8
0
 10
-28.5289
 20
26.8211
 11
-28.4506
 21
27.3155
  0
LINE
  8
0
 10
-28.4506
 20
27.3155
 11
-28.2234
 21
27.7615
  0
LINE
  8
0
 10
-28.2234
 20
27.7615
 11
-27.8694
 21
28.1155
  0
LINE
  8
0
 10
-27.8694
 20
28.1155
 11
-27.4234
 21
28.3428
  0
LINE
  8
0
 10
-27.4234
 20
28.3428
 11
-26.9289
 21
28.4211
  0
LINE
  8
0
 10
-26.9289
 20
28.4211
 11
-26.4345
 21
28.3428
  0
LINE
  8
0
 10
-26.4345
 20
28.3428
 11
-25.9885
 21
28.1155
  0
LINE
  8
0
 10
-25.9885
 20
28.1155
 11
-25.6345
 21
27.7615
  0
LINE
  8
0
 10
-25.6345
 20
27.7615
 11
-25.4073
 21
27.3155
  0
LINE
  8
0
 10
-25.4073
 20
27.3155
 11
-25.3289
 21
26.8211
  0
LINE
  8
0
 10
-25.3289
 20
26.8211
 11
-25.4073
 21
26.3266
  0
LINE
  8
0
 10
-25.4073
 20
26.3266
 11
-25.6345
 21
25.8806
  0
LINE
  8
0
 10
-25.6345
 20
25.8806
 11
-25.9885
 21
25.5266
  0
LINE
  8
0
 10
-25.9885
 20
25.5266
 11
-26.4345
 21
25.2994
  0
LINE
  8
0
 10
-26.4345
 20
25.2994
 11
-26.9289
 21
25.2211
  0
LINE
  8
0
 10
-26.9289
 20
25.2211
 11
-27.4234
 21
25.2994
  0
LINE
  8
0
 10
-162.8
 20
128.342
 11
-196.9
 21
128.342
  0
LINE
  8
0
 10
-196.9
 20
128.342
 11
-196.9
 21
118.446
  0
LINE
  8
0
 10
-196.9
 20
118.446
 11
-200
 21
118.446
  0
LINE
  8
0
 10
-200
 20
118.446
 11
-200
 21
103.446
  0
LINE
  8
0
 10
-200
 20
103.446
 11
-180
 21
103.446
  0
LINE
  8
0
 10
-180
 20
103.446
 11
-180
 21
36.4461
  0
LINE
  8
0
 10
-180
 20
36.4461
 11
-200
 21
36.4461
  0
LINE
  8
0
 10
-200
 20
36.4461
 11
-200
 21
21.4461
  0
LINE
  8
0
 10
-200
 20
21.4461
 11
-196.9
 21
21.4461
  0
LINE
  8
0
 10
-196.9
 20
21.4461
 11
-196.9
 21
11.55
  0
LINE
  8
0
 10
-196.9
 20
11.55
 11
-162.8
 21
11.55
  0
LINE
  8
0
 10
-162.8
 20
11.55
 11
-162.8
 21
128.342
  0
LINE
  8
0
 10
56.0406
 20
-50
 11
84.0609
 21
-50
  0
LINE
  8
0
 10
84.0609
 20
-50
 11
84.0609
 21
-53.1
  0
LINE
  8
0
 10
84.0609
 20
-53.1
 11
112.081
 21
-53.1
  0
LINE
  8
0
 10
112.081
 20
-53.1
 11
112.081
 21
-50
  0
LINE
  8
0
 10
112.081
 20
-50
 11
140.102
 21
-50
  0
LINE
  8
0
 10
140.102
 20
-50
 11
140.102
 21
-53.1
  0
LINE
  8
0
 10
140.102
 20
-53.1
 11
168.122
 21
-53.1
  0
LINE
  8
0
 10
168.122
 20
-53.1
 11
168.122
 21
-50
  0
LINE
  8
0
 10
168.122
 20
-50
 11
196.142
 21
-50
  0
LINE
  8
0
 10
196.142
 20
-50
 11
196.142
 21
-12.8
  0
LINE
  8
0
 10
196.142
 20
-12.8
 11
168.122
 21
-12.8
  0
LINE
  8
0
 10
168.122
 20
-12.8
 11
168.122
 21
-9.70001
  0
LINE
  8
0
 10
168.122
 20
-9.70001
 11
140.102
 21
-9.70001
  0
LINE
  8
0
 10
140.102
 20
-9.70001
 11
140.102
 21
-12.8
  0
LINE
  8
0
 10
140.102
 20
-12.8
 11
112.081
 21
-12.8
  0
LINE
  8
0
 10
112.081
 20
-12.8
 11
112.081
 21
-9.70001
  0
LINE
  8
0
 10
112.081
 20
-9.70001
 11
84.0609
 21
-9.70001
  0
LINE
  8
0
 10
84.0609
 20
-9.70001
 11
84.0609
 21
-12.8
  0
LINE
  8
0
 10
84.0609
 20
-12.8
 11
56.0406
 21
-12.8
  0
LINE
  8
0
 10
56.0406
 20
-12.8
 11
56.0406
 21
-9.70001
  0
LINE
  8
0
 10
56.0406
 20
-9.70001
 11
28.0203
 21
-9.70001
  0
LINE
  8
0
 10
28.0203
 20
-9.70001
 11
28.0203
 21
-12.8
  0
LINE
  8
0
 10
28.0203
 20
-12.8
 11
0
 21
-12.8
  0
LINE
  8
0
 10
0
 20
-12.8
 11
0
 21
-50
  0
LINE
  8
0
 10
0
 20
-50
 11
28.0203
 21
-50
  0
LINE
  8
0
 10
28.0203
 20
-50
 11
28.0203
 21
-53.1
  0
LINE
  8
0
 10
28.0203
 20
-53.1
 11
56.0406
 21
-53.1
  0
LINE
  8
0
 10
56.0406
 20
-53.1
 11
56.0406
 21
-50
  0
LINE
  8
0
 10
56.0406
 20
-100
 11
84.0609
 21
-100
  0
LINE
  8
0
 10
84.0609
 20
-100
 11
84.0609
 21
-103.1
  0
LINE
  8
0
 10
84.0609
 20
-103.1
 11
112.081
 21
-103.1
  0
LINE
  8
0
 10
112.081
 20
-103.1
 11
112.081
 21
-100
  0
LINE
  8
0
 10
112.081
 20
-100
 11
140.102
 21
-100
  0
LINE
  8
0
 10
140.102
 20
-100
 11
140.102
 21
-103.1
  0
LINE
  8
0
 10
140.102
 20
-103.1
 11
168.122
 21
-103.1
  0
LINE
  8
0
 10
168.122
 20
-103.1
 11
168.122
 21
-100
  0
LINE
  8
0
 10
168.122
 20
-100
 11
196.142
 21
-100
  0
LINE
  8
0
 10
196.142
 20
-100
 11
196.142
 21
-62.8
  0
LINE
  8
0
 10
196.142
 20
-62.8
 11
168.122
 21
-62.8
  0
LINE
  8
0
 10
168.122
 20
-62.8
 11
168.122
 21
-59.7
  0
LINE
  8
0
 10
168.122
 20
-59.7
 11
140.102
 21
-59.7
  0
LINE
  8
0
 10
140.102
 20
-59.7
 11
140.102
 21
-62.8
  0
LINE
  8
0
 10
140.102
 20
-62.8
 11
112.081
 21
-62.8
  0
LINE
  8
0
 10
112.081
 20
-62.8
 11
112.081
 21
-59.7
  0
LINE
  8
0
 10
112.081
 20
-59.7
 11
84.0609
 21
-59.7
  0
LINE
  8
0
 10
84.0609
 20
-59.7
 11
84.0609
 21
-62.8
  0
LINE
  8
0
 10
84.0609
 20
-62.8
 11
56.0406
 21
-62.8
  0
LINE
  8
0
 10
56.0406
 20
-62.8
 11
56.0406
 21
-59.7
  0
LINE
  8
0
 10
56.0406
 20
-59.7
 11
28.0203
 21
-59.7
  0
LINE
  8
0
 10
28.0203
 20
-59.7
 11
28.0203
 21
-62.8
  0
LINE
  8
0
 10
28.0203
 20
-62.8
 11
0
 21
-62.8
  0
LINE
  8
0
 10
0
 20
-62.8
 11
0
 21
-100
  0
LINE
  8
0
 10
0
 20
-100
 11
28.0203
 21
-100
  0
LINE
  8
0
 10
28.0203
 20
-100
 11
28.0203
 21
-103.1
  0
LINE
  8
0
 10
28.0203
 20
-103.1
 11
56.0406
 21
-103.1
  0
LINE
  8
0
 10
56.0406
 20
-103.1
 11
56.0406
 21
-100
  0
ENDSEC
  0
SECTION
  2
OBJECTS
  0
DICTIONARY
  0
ENDSEC
  0
EOF
