  0
SECTION
  2
BLOCKS
  0
ENDSEC
  0
SECTION
  2
ENTITIES
  0
LINE
  8
0
 10
-96
 11
-96
 20
-96
 21
96
  0
LINE
  8
0
 10
-96
 11
96
 20
96
 21
96
  0
LINE
  8
0
 10
96
 11
96
 20
96
 21
-96
  0
LINE
  8
0
 10
96
 11
-96
 20
-96
 21
-96
  0
LINE
  8
0
 10
-89.663
 11
-89.663
 20
77.647
 21
78.353
  0
LINE
  8
0
 10
-89.663
 11
-89.375
 20
78.353
 21
78.999
  0
LINE
  8
0
 10
-89.375
 11
-88.85
 20
78.999
 21
79.472
  0
LINE
  8
0
 10
-88.85
 11
-88.178
 20
79.472
 21
79.691
  0
LINE
  8
0
 10
-88.178
 11
-87.475
 20
79.691
 21
79.617
  0
LINE
  8
0
 10
-87.475
 11
-86.862
 20
79.617
 21
79.263
  0
LINE
  8
0
 10
-86.862
 11
-86.447
 20
79.263
 21
78.691
  0
LINE
  8
0
 10
-86.447
 11
-86.3
 20
78.691
 21
78
  0
LINE
  8
0
 10
-86.3
 11
-86.447
 20
78
 21
77.309
  0
LINE
  8
0
 10
-86.447
 11
-86.862
 20
77.309
 21
76.737
  0
LINE
  8
0
 10
-86.862
 11
-87.475
 20
76.737
 21
76.383
  0
LINE
  8
0
 10
-87.475
 11
-88.178
 20
76.383
 21
76.309
  0
LINE
  8
0
 10
-88.178
 11
-88.85
 20
76.309
 21
76.528
  0
LINE
  8
0
 10
-88.85
 11
-89.375
 20
76.528
 21
77.001
  0
LINE
  8
0
 10
-89.375
 11
-89.663
 20
77.001
 21
77.647
  0
LINE
  8
0
 10
-88.163
 11
-88.163
 20
-0.353
 21
0.353
  0
LINE
  8
0
 10
-88.163
 11
-87.875
 20
0.353
 21
0.999
  0
LINE
  8
0
 10
-87.875
 11
-87.35
 20
0.999
 21
1.472
  0
LINE
  8
0
 10
-87.35
 11
-86.678
 20
1.472
 21
1.691
  0
LINE
  8
0
 10
-86.678
 11
-85.975
 20
1.691
 21
1.617
  0
LINE
  8
0
 10
-85.975
 11
-85.362
 20
1.617
 21
1.263
  0
LINE
  8
0
 10
-85.362
 11
-84.947
 20
1.263
 21
0.691
  0
LINE
  8
0
 10
-84.947
 11
-84.8
 20
0.691
 21
0
  0
LINE
  8
0
 10
-84.8
 11
-84.947
 20
0
 21
-0.691
  0
LINE
  8
0
 10
-84.947
 11
-85.362
 20
-0.691
 21
-1.263
  0
LINE
  8
0
 10
-85.362
 11
-85.975
 20
-1.263
 21
-1.617
  0
LINE
  8
0
 10
-85.975
 11
-86.678
 20
-1.617
 21
-1.691
  0
LINE
  8
0
 10
-86.678
 11
-87.35
 20
-1.691
 21
-1.472
  0
LINE
  8
0
 10
-87.35
 11
-87.875
 20
-1.472
 21
-0.999
  0
LINE
  8
0
 10
-87.875
 11
-88.163
 20
-0.999
 21
-0.353
  0
LINE
  8
0
 10
-85.163
 11
-85.163
 20
-86.853
 21
-86.147
  0
LINE
  8
0
 10
-85.163
 11
-84.875
 20
-86.147
 21
-85.501
  0
LINE
  8
0
 10
-84.875
 11
-84.35
 20
-85.501
 21
-85.028
  0
LINE
  8
0
 10
-84.35
 11
-83.678
 20
-85.028
 21
-84.809
  0
LINE
  8
0
 10
-83.678
 11
-82.975
 20
-84.809
 21
-84.883
  0
LINE
  8
0
 10
-82.975
 11
-82.362
 20
-84.883
 21
-85.237
  0
LINE
  8
0
 10
-82.362
 11
-81.947
 20
-85.237
 21
-85.809
  0
LINE
  8
0
 10
-81.947
 11
-81.8
 20
-85.809
 21
-86.5
  0
LINE
  8
0
 10
-81.8
 11
-81.947
 20
-86.5
 21
-87.191
  0
LINE
  8
0
 10
-81.947
 11
-82.362
 20
-87.191
 21
-87.763
  0
LINE
  8
0
 10
-82.362
 11
-82.975
 20
-87.763
 21
-88.117
  0
LINE
  8
0
 10
-82.975
 11
-83.678
 20
-88.117
 21
-88.191
  0
LINE
  8
0
 10
-83.678
 11
-84.35
 20
-88.191
 21
-87.972
  0
LINE
  8
0
 10
-84.35
 11
-84.875
 20
-87.972
 21
-87.499
  0
LINE
  8
0
 10
-84.875
 11
-85.163
 20
-87.499
 21
-86.853
  0
LINE
  8
0
 10
-85.163
 11
-85.163
 20
86.147
 21
86.853
  0
LINE
  8
0
 10
-85.163
 11
-84.875
 20
86.853
 21
87.499
  0
LINE
  8
0
 10
-84.875
 11
-84.35
 20
87.499
 21
87.972
  0
LINE
  8
0
 10
-84.35
 11
-83.678
 20
87.972
 21
88.191
  0
LINE
  8
0
 10
-83.678
 11
-82.975
 20
88.191
 21
88.117
  0
LINE
  8
0
 10
-82.975
 11
-82.362
 20
88.117
 21
87.763
  0
LINE
  8
0
 10
-82.362
 11
-81.947
 20
87.763
 21
87.191
  0
LINE
  8
0
 10
-81.947
 11
-81.8
 20
87.191
 21
86.5
  0
LINE
  8
0
 10
-81.8
 11
-81.947
 20
86.5
 21
85.809
  0
LINE
  8
0
 10
-81.947
 11
-82.362
 20
85.809
 21
85.237
  0
LINE
  8
0
 10
-82.362
 11
-82.975
 20
85.237
 21
84.883
  0
LINE
  8
0
 10
-82.975
 11
-83.678
 20
84.883
 21
84.809
  0
LINE
  8
0
 10
-83.678
 11
-84.35
 20
84.809
 21
85.028
  0
LINE
  8
0
 10
-84.35
 11
-84.875
 20
85.028
 21
85.501
  0
LINE
  8
0
 10
-84.875
 11
-85.163
 20
85.501
 21
86.147
  0
LINE
  8
0
 10
-76
 11
-76
 20
30
 21
60
  0
LINE
  8
0
 10
-76
 11
-66
 20
60
 21
60
  0
LINE
  8
0
 10
-66
 11
-66
 20
60
 21
30
  0
LINE
  8
0
 10
-66
 11
-76
 20
30
 21
30
  0
LINE
  8
0
 10
-1.663
 11
-1.663
 20
-86.853
 21
-86.147
  0
LINE
  8
0
 10
-1.663
 11
-1.375
 20
-86.147
 21
-85.501
  0
LINE
  8
0
 10
-1.375
 11
-0.85
 20
-85.501
 21
-85.028
  0
LINE
  8
0
 10
-0.85
 11
-0.178
 20
-85.028
 21
-84.809
  0
LINE
  8
0
 10
-0.178
 11
0.525
 20
-84.809
 21
-84.883
  0
LINE
  8
0
 10
0.525
 11
1.138
 20
-84.883
 21
-85.237
  0
LINE
  8
0
 10
1.138
 11
1.553
 20
-85.237
 21
-85.809
  0
LINE
  8
0
 10
1.553
 11
1.7
 20
-85.809
 21
-86.5
  0
LINE
  8
0
 10
1.7
 11
1.553
 20
-86.5
 21
-87.191
  0
LINE
  8
0
 10
1.553
 11
1.138
 20
-87.191
 21
-87.763
  0
LINE
  8
0
 10
1.138
 11
0.525
 20
-87.763
 21
-88.117
  0
LINE
  8
0
 10
0.525
 11
-0.178
 20
-88.117
 21
-88.191
  0
LINE
  8
0
 10
-0.178
 11
-0.85
 20
-88.191
 21
-87.972
  0
LINE
  8
0
 10
-0.85
 11
-1.375
 20
-87.972
 21
-87.499
  0
LINE
  8
0
 10
-1.375
 11
-1.663
 20
-87.499
 21
-86.853
  0
LINE
  8
0
 10
-1.663
 11
-1.663
 20
86.147
 21
86.853
  0
LINE
  8
0
 10
-1.663
 11
-1.375
 20
86.853
 21
87.499
  0
LINE
  8
0
 10
-1.375
 11
-0.85
 20
87.499
 21
87.972
  0
LINE
  8
0
 10
-0.85
 11
-0.178
 20
87.972
 21
88.191
  0
LINE
  8
0
 10
-0.178
 11
0.525
 20
88.191
 21
88.117
  0
LINE
  8
0
 10
0.525
 11
1.138
 20
88.117
 21
87.763
  0
LINE
  8
0
 10
1.138
 11
1.553
 20
87.763
 21
87.191
  0
LINE
  8
0
 10
1.553
 11
1.7
 20
87.191
 21
86.5
  0
LINE
  8
0
 10
1.7
 11
1.553
 20
86.5
 21
85.809
  0
LINE
  8
0
 10
1.553
 11
1.138
 20
85.809
 21
85.237
  0
LINE
  8
0
 10
1.138
 11
0.525
 20
85.237
 21
84.883
  0
LINE
  8
0
 10
0.525
 11
-0.178
 20
84.883
 21
84.809
  0
LINE
  8
0
 10
-0.178
 11
-0.85
 20
84.809
 21
85.028
  0
LINE
  8
0
 10
-0.85
 11
-1.375
 20
85.028
 21
85.501
  0
LINE
  8
0
 10
-1.375
 11
-1.663
 20
85.501
 21
86.147
  0
LINE
  8
0
 10
22
 11
22
 20
-25
 21
-10
  0
LINE
  8
0
 10
22
 11
42
 20
-10
 21
-10
  0
LINE
  8
0
 10
42
 11
42
 20
-10
 21
-25
  0
LINE
  8
0
 10
42
 11
22
 20
-25
 21
-25
  0
LINE
  8
0
 10
66
 11
66
 20
30
 21
60
  0
LINE
  8
0
 10
66
 11
76
 20
60
 21
60
  0
LINE
  8
0
 10
76
 11
76
 20
60
 21
30
  0
LINE
  8
0
 10
76
 11
66
 20
30
 21
30
  0
LINE
  8
0
 10
81.837
 11
81.837
 20
-86.853
 21
-86.147
  0
LINE
  8
0
 10
81.837
 11
82.125
 20
-86.147
 21
-85.501
  0
LINE
  8
0
 10
82.125
 11
82.65
 20
-85.501
 21
-85.028
  0
LINE
  8
0
 10
82.65
 11
83.322
 20
-85.028
 21
-84.809
  0
LINE
  8
0
 10
83.322
 11
84.025
 20
-84.809
 21
-84.883
  0
LINE
  8
0
 10
84.025
 11
84.638
 20
-84.883
 21
-85.237
  0
LINE
  8
0
 10
84.638
 11
85.053
 20
-85.237
 21
-85.809
  0
LINE
  8
0
 10
85.053
 11
85.2
 20
-85.809
 21
-86.5
  0
LINE
  8
0
 10
85.2
 11
85.053
 20
-86.5
 21
-87.191
  0
LINE
  8
0
 10
85.053
 11
84.638
 20
-87.191
 21
-87.763
  0
LINE
  8
0
 10
84.638
 11
84.025
 20
-87.763
 21
-88.117
  0
LINE
  8
0
 10
84.025
 11
83.322
 20
-88.117
 21
-88.191
  0
LINE
  8
0
 10
83.322
 11
82.65
 20
-88.191
 21
-87.972
  0
LINE
  8
0
 10
82.65
 11
82.125
 20
-87.972
 21
-87.499
  0
LINE
  8
0
 10
82.125
 11
81.837
 20
-87.499
 21
-86.853
  0
LINE
  8
0
 10
81.837
 11
81.837
 20
86.147
 21
86.853
  0
LINE
  8
0
 10
81.837
 11
82.125
 20
86.853
 21
87.499
  0
LINE
  8
0
 10
82.125
 11
82.65
 20
87.499
 21
87.972
  0
LINE
  8
0
 10
82.65
 11
83.322
 20
87.972
 21
88.191
  0
LINE
  8
0
 10
83.322
 11
84.025
 20
88.191
 21
88.117
  0
LINE
  8
0
 10
84.025
 11
84.638
 20
88.117
 21
87.763
  0
LINE
  8
0
 10
84.638
 11
85.053
 20
87.763
 21
87.191
  0
LINE
  8
0
 10
85.053
 11
85.2
 20
87.191
 21
86.5
  0
LINE
  8
0
 10
85.2
 11
85.053
 20
86.5
 21
85.809
  0
LINE
  8
0
 10
85.053
 11
84.638
 20
85.809
 21
85.237
  0
LINE
  8
0
 10
84.638
 11
84.025
 20
85.237
 21
84.883
  0
LINE
  8
0
 10
84.025
 11
83.322
 20
84.883
 21
84.809
  0
LINE
  8
0
 10
83.322
 11
82.65
 20
84.809
 21
85.028
  0
LINE
  8
0
 10
82.65
 11
82.125
 20
85.028
 21
85.501
  0
LINE
  8
0
 10
82.125
 11
81.837
 20
85.501
 21
86.147
  0
LINE
  8
0
 10
84.837
 11
84.837
 20
-0.353
 21
0.353
  0
LINE
  8
0
 10
84.837
 11
85.125
 20
0.353
 21
0.999
  0
LINE
  8
0
 10
85.125
 11
85.65
 20
0.999
 21
1.472
  0
LINE
  8
0
 10
85.65
 11
86.322
 20
1.472
 21
1.691
  0
LINE
  8
0
 10
86.322
 11
87.025
 20
1.691
 21
1.617
  0
LINE
  8
0
 10
87.025
 11
87.638
 20
1.617
 21
1.263
  0
LINE
  8
0
 10
87.638
 11
88.053
 20
1.263
 21
0.691
  0
LINE
  8
0
 10
88.053
 11
88.2
 20
0.691
 21
0
  0
LINE
  8
0
 10
88.2
 11
88.053
 20
0
 21
-0.691
  0
LINE
  8
0
 10
88.053
 11
87.638
 20
-0.691
 21
-1.263
  0
LINE
  8
0
 10
87.638
 11
87.025
 20
-1.263
 21
-1.617
  0
LINE
  8
0
 10
87.025
 11
86.322
 20
-1.617
 21
-1.691
  0
LINE
  8
0
 10
86.322
 11
85.65
 20
-1.691
 21
-1.472
  0
LINE
  8
0
 10
85.65
 11
85.125
 20
-1.472
 21
-0.999
  0
LINE
  8
0
 10
85.125
 11
84.837
 20
-0.999
 21
-0.353
  0
LINE
  8
0
 10
86.337
 11
86.337
 20
-78.353
 21
-77.647
  0
LINE
  8
0
 10
86.337
 11
86.625
 20
-77.647
 21
-77.001
  0
LINE
  8
0
 10
86.625
 11
87.15
 20
-77.001
 21
-76.528
  0
LINE
  8
0
 10
87.15
 11
87.822
 20
-76.528
 21
-76.309
  0
LINE
  8
0
 10
87.822
 11
88.525
 20
-76.309
 21
-76.383
  0
LINE
  8
0
 10
88.525
 11
89.138
 20
-76.383
 21
-76.737
  0
LINE
  8
0
 10
89.138
 11
89.553
 20
-76.737
 21
-77.309
  0
LINE
  8
0
 10
89.553
 11
89.7
 20
-77.309
 21
-78
  0
LINE
  8
0
 10
89.7
 11
89.553
 20
-78
 21
-78.691
  0
LINE
  8
0
 10
89.553
 11
89.138
 20
-78.691
 21
-79.263
  0
LINE
  8
0
 10
89.138
 11
88.525
 20
-79.263
 21
-79.617
  0
LINE
  8
0
 10
88.525
 11
87.822
 20
-79.617
 21
-79.691
  0
LINE
  8
0
 10
87.822
 11
87.15
 20
-79.691
 21
-79.472
  0
LINE
  8
0
 10
87.15
 11
86.625
 20
-79.472
 21
-78.999
  0
LINE
  8
0
 10
86.625
 11
86.337
 20
-78.999
 21
-78.353
  0
ENDSEC
  0
SECTION
  2
OBJECTS
  0
DICTIONARY
  0
ENDSEC
  0
EOF
