  0
SECTION
  2
BLOCKS
  0
ENDSEC
  0
SECTION
  2
ENTITIES
  0
LINE
  8
0
 10
270.142
 20
71.0406
 11
270.142
 21
99.0609
  0
LINE
  8
0
 10
270.142
 20
99.0609
 11
272.922
 21
99.0609
  0
LINE
  8
0
 10
272.922
 20
99.0609
 11
272.922
 21
127.081
  0
LINE
  8
0
 10
272.922
 20
127.081
 11
270.142
 21
127.081
  0
LINE
  8
0
 10
270.142
 20
127.081
 11
270.142
 21
155.102
  0
LINE
  8
0
 10
270.142
 20
155.102
 11
272.922
 21
155.102
  0
LINE
  8
0
 10
272.922
 20
155.102
 11
272.922
 21
183.122
  0
LINE
  8
0
 10
272.922
 20
183.122
 11
270.142
 21
183.122
  0
LINE
  8
0
 10
270.142
 20
183.122
 11
270.142
 21
211.142
  0
LINE
  8
0
 10
270.142
 20
211.142
 11
231.222
 21
211.142
  0
LINE
  8
0
 10
231.222
 20
211.142
 11
231.222
 21
183.122
  0
LINE
  8
0
 10
231.222
 20
183.122
 11
228.442
 21
183.122
  0
LINE
  8
0
 10
228.442
 20
183.122
 11
228.442
 21
155.102
  0
LINE
  8
0
 10
228.442
 20
155.102
 11
231.222
 21
155.102
  0
LINE
  8
0
 10
231.222
 20
155.102
 11
231.222
 21
127.081
  0
LINE
  8
0
 10
231.222
 20
127.081
 11
228.442
 21
127.081
  0
LINE
  8
0
 10
228.442
 20
127.081
 11
228.442
 21
99.0609
  0
LINE
  8
0
 10
228.442
 20
99.0609
 11
231.222
 21
99.0609
  0
LINE
  8
0
 10
231.222
 20
99.0609
 11
231.222
 21
71.0406
  0
LINE
  8
0
 10
231.222
 20
71.0406
 11
228.442
 21
71.0406
  0
LINE
  8
0
 10
228.442
 20
71.0406
 11
228.442
 21
43.0203
  0
LINE
  8
0
 10
228.442
 20
43.0203
 11
231.222
 21
43.0203
  0
LINE
  8
0
 10
231.222
 20
43.0203
 11
231.222
 21
15
  0
LINE
  8
0
 10
231.222
 20
15
 11
270.142
 21
15
  0
LINE
  8
0
 10
270.142
 20
15
 11
270.142
 21
43.0203
  0
LINE
  8
0
 10
270.142
 20
43.0203
 11
272.922
 21
43.0203
  0
LINE
  8
0
 10
272.922
 20
43.0203
 11
272.922
 21
71.0406
  0
LINE
  8
0
 10
272.922
 20
71.0406
 11
270.142
 21
71.0406
  0
LINE
  8
0
 10
252.722
 20
172.071
 11
236.722
 21
172.071
  0
LINE
  8
0
 10
236.722
 20
172.071
 11
236.722
 21
188.071
  0
LINE
  8
0
 10
236.722
 20
188.071
 11
252.722
 21
188.071
  0
LINE
  8
0
 10
252.722
 20
188.071
 11
252.722
 21
172.071
  0
LINE
  8
0
 10
252.722
 20
154.071
 11
236.722
 21
154.071
  0
LINE
  8
0
 10
236.722
 20
154.071
 11
236.722
 21
170.071
  0
LINE
  8
0
 10
236.722
 20
170.071
 11
252.722
 21
170.071
  0
LINE
  8
0
 10
252.722
 20
170.071
 11
252.722
 21
154.071
  0
LINE
  8
0
 10
251.722
 20
134.821
 11
236.722
 21
134.821
  0
LINE
  8
0
 10
236.722
 20
134.821
 11
236.722
 21
151.821
  0
LINE
  8
0
 10
236.722
 20
151.821
 11
251.722
 21
151.821
  0
LINE
  8
0
 10
251.722
 20
151.821
 11
251.722
 21
134.821
  0
ENDSEC
  0
SECTION
  2
OBJECTS
  0
DICTIONARY
  0
ENDSEC
  0
EOF
